<?xml version="1.0" standalone="no"?>
<!DOCTYPE svg PUBLIC "-//W3C//DTD SVG 1.1//EN" "http://www.w3.org/Graphics/SVG/1.1/DTD/svg11.dtd" >
<svg>
<metadata>
Created by FontForge 20120731 at Mon Apr 15 11:17:28 2019
 By www-data
(c) 2018 Unicode Fonts for Ancient Scripts; all rights reserved.
</metadata>
<defs>
<font id="Aroania" horiz-adv-x="0" >
  <font-face 
    font-family="Aroania"
    font-weight="400"
    font-stretch="normal"
    units-per-em="2048"
    panose-1="2 11 6 4 3 5 4 4 2 4"
    ascent="1638"
    descent="-410"
    x-height="923"
    cap-height="1343"
    bbox="-1024 -700 5260 1896"
    underline-thickness="70"
    underline-position="-525"
    unicode-range="U+000D-1D245"
  />
<missing-glyph horiz-adv-x="1234" 
d="M1152 -267h-1070v1698h1070v-1698zM1070 -185v1534h-906v-1534h906zM905 804q0 -122 -82 -193q-77 -67 -201 -67q-45 0 -95 12v-222h-112v294l71 54q90 -26 136 -26q171 0 171 148q0 181 -382 243l18 111l55 -9q166 -27 278 -102q143 -96 143 -243zM559 127
q0 -36 -25.5 -61.5t-61.5 -25.5t-61.5 25.5t-25.5 61.5t25.5 61.5t61.5 25.5t61.5 -25.5t25.5 -61.5z" />
    <glyph glyph-name="IJ" unicode="IJ" horiz-adv-x="1399" 
d="M1233 -24q0 -177 -108 -273q-103 -92 -282 -92q-112 0 -228 25v155h1q117 -40 203 -40q160 0 211 77q39 59 39 216v1170h-284v129h448v-1367zM624 0h-515v123h175v1097h-175v123h515v-123h-176v-1097h176v-123z" />
    <glyph glyph-name="ij" unicode="ij" horiz-adv-x="1039" 
d="M320 1078h-175v161h175v-161zM310 0h-155v923h155v-923zM896 1078h-175v161h175v-161zM887 -22q0 -151 -76 -237q-80 -91 -229 -91q-92 0 -177 24v148h8q82 -33 139 -33q114 0 150 66q29 53 29 194v743h-192v131h348v-945z" />
    <glyph glyph-name="OE" unicode="Oe" horiz-adv-x="1923" 
d="M1842 0h-961q-178 0 -292 24q-278 59 -416 312q-80 147 -80 334q0 379 291 566q167 107 501 107h957v-145h-688v-388h688v-145h-688v-520h688v-145zM992 142v1059h-118q-246 0 -384 -79q-225 -129 -225 -449q0 -313 204 -442q141 -89 405 -89h118z" />
    <glyph glyph-name="oe" unicode="oe" horiz-adv-x="1661" 
d="M1578 445h-664q0 -156 82 -242q84 -89 238 -89q178 0 317 112h10v-170q-181 -77 -326 -77q-258 0 -391 186q-119 -191 -338 -191q-206 0 -317 145q-101 130 -101 342q0 211 101 343q112 145 317 145q221 0 337 -195q130 195 354 195q190 0 289 -117q92 -108 92 -302v-85z
M1427 564q-5 257 -239 257q-118 0 -190 -71q-69 -67 -82 -186h511zM764 461q0 354 -257 354q-259 0 -259 -354q0 -353 259 -353q257 0 257 353z" />
    <glyph glyph-name="ff" unicode="ff" horiz-adv-x="1271" 
d="M1324 1243h-8q-90 26 -177 26q-133 0 -188 -63q-51 -59 -51 -194v-89h368v-131h-364v-792h-155v792h-433v-792h-155v792h-105v131h105v83q0 169 118 261q107 84 278 84q95 0 195 -42q43 -18 79 -41q103 136 319 136q77 0 174 -19v-142zM771 1147q-116 74 -206 74
q-126 0 -184 -43q-69 -51 -69 -172v-83h437v53q0 96 22 171z" />
    <glyph glyph-name="fi" unicode="fi" horiz-adv-x="1058" 
d="M914 1078h-73q-16 96 -107 147q-77 44 -183 44q-133 0 -188 -63q-51 -59 -51 -194v-89h592v-923h-155v792h-433v-792h-155v792h-105v131h105v53q0 202 98 312q103 116 303 116q211 0 352 -165v-161z" />
    <glyph glyph-name="fl" unicode="fl" horiz-adv-x="1058" 
d="M904 0h-155v1218q-59 51 -198 51q-133 0 -188 -63q-51 -59 -51 -194v-89h368v-131h-364v-792h-155v792h-105v131h105v53q0 202 98 312q103 116 303 116q103 0 187 -34v26h155v-1396z" />
    <glyph glyph-name="ffi" unicode="ffi" horiz-adv-x="1646" 
d="M1502 1078h-73q-16 96 -107 147q-77 44 -183 44q-133 0 -188 -63q-51 -59 -51 -194v-89h592v-923h-155v792h-433v-792h-155v792h-433v-792h-155v792h-105v131h105v83q0 169 118 261q107 84 278 84q95 0 195 -42q43 -18 79 -41q103 136 319 136q211 0 352 -165v-161z
M771 1147q-116 74 -206 74q-126 0 -184 -43q-69 -51 -69 -172v-83h437v53q0 96 22 171z" />
    <glyph glyph-name="ffl" unicode="ffl" horiz-adv-x="1646" 
d="M1492 0h-155v1218q-59 51 -198 51q-133 0 -188 -63q-51 -59 -51 -194v-89h368v-131h-364v-792h-155v792h-433v-792h-155v792h-105v131h105v83q0 169 118 261q107 84 278 84q95 0 195 -42q43 -18 79 -41q103 136 319 136q103 0 187 -34v26h155v-1396zM771 1147
q-116 74 -206 74q-126 0 -184 -43q-69 -51 -69 -172v-83h437v53q0 96 22 171z" />
    <glyph glyph-name="ffj" unicode="ffj" horiz-adv-x="1645" 
d="M1493 -22q0 -151 -76 -237q-80 -91 -229 -91q-92 0 -177 24v148h8q82 -33 139 -33q114 0 150 66q29 53 29 194v743h-433v-792h-155v792h-433v-792h-155v792h-105v131h105v83q0 169 118 261q107 84 278 84q95 0 195 -42q43 -18 79 -41q103 136 319 136q77 0 174 -19v-142
h-8q-90 26 -177 26q-133 0 -188 -63q-51 -59 -51 -194v-89h593v-945zM771 1147q-116 74 -206 74q-126 0 -184 -43q-69 -51 -69 -172v-83h437v53q0 96 22 171z" />
    <glyph glyph-name="fj" unicode="fj" horiz-adv-x="1057" 
d="M905 -22q0 -151 -76 -237q-80 -91 -229 -91q-92 0 -177 24v148h8q82 -33 139 -33q114 0 150 66q29 53 29 194v743h-433v-792h-155v792h-105v131h105v53q0 202 98 312q103 116 303 116q77 0 174 -19v-142h-8q-90 26 -177 26q-133 0 -188 -63q-51 -59 -51 -194v-89h593
v-945z" />
    <glyph glyph-name="Nig" unicode="Nig" horiz-adv-x="2858" 
d="M1660 1078h-175v161h175v-161zM2706 105q0 -455 -435 -455q-140 0 -281 40v159h8q150 -59 286 -59q266 0 266 251v85q-139 -112 -297 -112q-185 0 -280 141q-80 121 -80 315q0 196 104 331q114 148 304 148q130 0 249 -66l10 40h146v-818zM1650 0h-155v923h155v-923z
M1175 0h-209l-649 1197v-1197h-152v1343h245l613 -1132v1132h152v-1343zM2550 254v503q-115 52 -221 52q-143 0 -214 -101q-61 -87 -61 -235q0 -315 235 -315q136 0 261 96z" />
    <glyph glyph-name="Rig" unicode="Rig" horiz-adv-x="2762" 
d="M1564 1078h-175v161h175v-161zM2610 105q0 -455 -435 -455q-140 0 -281 40v159h8q150 -59 286 -59q266 0 266 251v85q-139 -112 -297 -112q-185 0 -280 141q-80 121 -80 315q0 196 104 331q114 148 304 148q130 0 249 -66l10 40h146v-818zM1554 0h-155v923h155v-923z
M1253 0h-212l-449 540h-263v-540h-164v1343h369q120 0 202 -16q176 -34 255 -170q40 -69 40 -176q0 -281 -280 -392zM2454 254v503q-115 52 -221 52q-143 0 -214 -101q-61 -87 -61 -235q0 -315 235 -315q136 0 261 96zM859 968q0 125 -91 186q-73 49 -221 49h-218v-528h188
q342 0 342 293z" />
    <glyph glyph-name="gy" unicode="gy" horiz-adv-x="2055" 
d="M2005 923l-539 -1263h-166l172 385l-368 878h169l283 -684l286 684h163zM902 105q0 -455 -435 -455q-140 0 -281 40v159h8q150 -59 286 -59q266 0 266 251v85q-139 -112 -297 -112q-185 0 -280 141q-80 121 -80 315q0 196 104 331q114 148 304 148q130 0 249 -66l10 40
h146v-818zM746 254v503q-115 52 -221 52q-143 0 -214 -101q-61 -87 -61 -235q0 -315 235 -315q136 0 261 96z" />
    <glyph glyph-name="gyacute" unicode="g&#xfd;" horiz-adv-x="2055" 
d="M1781 1459l-264 -371l-94 59l228 394zM2005 923l-539 -1263h-166l172 385l-368 878h169l283 -684l286 684h163zM902 105q0 -455 -435 -455q-140 0 -281 40v159h8q150 -59 286 -59q266 0 266 251v85q-139 -112 -297 -112q-185 0 -280 141q-80 121 -80 315q0 196 104 331
q114 148 304 148q130 0 249 -66l10 40h146v-818zM746 254v503q-115 52 -221 52q-143 0 -214 -101q-61 -87 -61 -235q0 -315 235 -315q136 0 261 96z" />
    <glyph glyph-name="gydieresis" unicode="g&#xff;" horiz-adv-x="2055" 
d="M1900 1251q0 -42 -29.5 -71.5t-71.5 -29.5t-71.5 29.5t-29.5 71.5t29.5 71.5t71.5 29.5t71.5 -29.5t29.5 -71.5zM1446 1251q0 -42 -29.5 -71.5t-71.5 -29.5t-71.5 29.5t-29.5 71.5t29.5 71.5t71.5 29.5t71.5 -29.5t29.5 -71.5zM2005 923l-539 -1263h-166l172 385
l-368 878h169l283 -684l286 684h163zM902 105q0 -455 -435 -455q-140 0 -281 40v159h8q150 -59 286 -59q266 0 266 251v85q-139 -112 -297 -112q-185 0 -280 141q-80 121 -80 315q0 196 104 331q114 148 304 148q130 0 249 -66l10 40h146v-818zM746 254v503q-115 52 -221 52
q-143 0 -214 -101q-61 -87 -61 -235q0 -315 235 -315q136 0 261 96z" />
    <glyph glyph-name="gycircumflex" unicode="g&#x177;" horiz-adv-x="2055" 
d="M1858 1194l-82 -74l-214 207l-214 -207l-82 74l263 308h66zM2005 923l-539 -1263h-166l172 385l-368 878h169l283 -684l286 684h163zM902 105q0 -455 -435 -455q-140 0 -281 40v159h8q150 -59 286 -59q266 0 266 251v85q-139 -112 -297 -112q-185 0 -280 141
q-80 121 -80 315q0 196 104 331q114 148 304 148q130 0 249 -66l10 40h146v-818zM746 254v503q-115 52 -221 52q-143 0 -214 -101q-61 -87 -61 -235q0 -315 235 -315q136 0 261 96z" />
    <glyph glyph-name="gydot" unicode="g&#x1e8f;" horiz-adv-x="2055" 
d="M1653 1251q0 -42 -29.5 -71.5t-71.5 -29.5t-71.5 29.5t-29.5 71.5t29.5 71.5t71.5 29.5t71.5 -29.5t29.5 -71.5zM2005 923l-539 -1263h-166l172 385l-368 878h169l283 -684l286 684h163zM902 105q0 -455 -435 -455q-140 0 -281 40v159h8q150 -59 286 -59q266 0 266 251
v85q-139 -112 -297 -112q-185 0 -280 141q-80 121 -80 315q0 196 104 331q114 148 304 148q130 0 249 -66l10 40h146v-818zM746 254v503q-115 52 -221 52q-143 0 -214 -101q-61 -87 -61 -235q0 -315 235 -315q136 0 261 96z" />
    <glyph glyph-name="gygrave" unicode="g&#x1ef3;" horiz-adv-x="2055" 
d="M1721 1147l-94 -59l-264 371l130 82zM2005 923l-539 -1263h-166l172 385l-368 878h169l283 -684l286 684h163zM902 105q0 -455 -435 -455q-140 0 -281 40v159h8q150 -59 286 -59q266 0 266 251v85q-139 -112 -297 -112q-185 0 -280 141q-80 121 -80 315q0 196 104 331
q114 148 304 148q130 0 249 -66l10 40h146v-818zM746 254v503q-115 52 -221 52q-143 0 -214 -101q-61 -87 -61 -235q0 -315 235 -315q136 0 261 96z" />
    <glyph glyph-name="gytilde" unicode="g&#x1ef9;" horiz-adv-x="2055" 
d="M1907 1395q-82 -227 -208 -227q-54 0 -175 74t-147 74q-51 0 -90 -130l-91 80q21 64 67 122q57 73 110 73t174 -77t162 -77q61 0 110 140zM2005 923l-539 -1263h-166l172 385l-368 878h169l283 -684l286 684h163zM902 105q0 -455 -435 -455q-140 0 -281 40v159h8
q150 -59 286 -59q266 0 266 251v85q-139 -112 -297 -112q-185 0 -280 141q-80 121 -80 315q0 196 104 331q114 148 304 148q130 0 249 -66l10 40h146v-818zM746 254v503q-115 52 -221 52q-143 0 -214 -101q-61 -87 -61 -235q0 -315 235 -315q136 0 261 96z" />
    <glyph glyph-name=".notdef" horiz-adv-x="1234" 
d="M1152 -267h-1070v1698h1070v-1698zM1070 -185v1534h-906v-1534h906zM905 804q0 -122 -82 -193q-77 -67 -201 -67q-45 0 -95 12v-222h-112v294l71 54q90 -26 136 -26q171 0 171 148q0 181 -382 243l18 111l55 -9q166 -27 278 -102q143 -96 143 -243zM559 127
q0 -36 -25.5 -61.5t-61.5 -25.5t-61.5 25.5t-25.5 61.5t25.5 61.5t61.5 25.5t61.5 -25.5t25.5 -61.5z" />
    <glyph glyph-name=".null" 
 />
    <glyph glyph-name="nonmarkingreturn" unicode="&#xd;" horiz-adv-x="528" 
 />
    <glyph glyph-name="space" unicode=" " horiz-adv-x="528" 
 />
    <glyph glyph-name="exclam" unicode="!" horiz-adv-x="490" 
d="M343 1343l-24 -967h-148l-24 967h196zM357 99q0 -46 -33 -79t-79 -33t-79 33t-33 79t33 79t79 33t79 -33t33 -79z" />
    <glyph glyph-name="quotedbl" unicode="&#x22;" horiz-adv-x="777" 
d="M638 1286l-36 -479h-109l-35 479h180zM319 1286l-36 -479h-109l-35 479h180z" />
    <glyph glyph-name="numbersign" unicode="#" horiz-adv-x="1384" 
d="M1237 826h-273l-78 -310h255v-112h-282l-87 -348h-107l87 348h-223l-87 -348h-107l87 348h-247v112h275l77 310h-256v112h284l87 348h106l-87 -348h224l87 348h106l-87 -348h246v-112zM857 826h-223l-78 -310h224z" />
    <glyph glyph-name="dollar" unicode="$" horiz-adv-x="1110" 
d="M1013 424q0 -153 -125 -248q-107 -80 -270 -97v-263h-107v258q-233 3 -405 81v181h15q162 -115 390 -126v393q-187 38 -270 89q-129 80 -129 237q0 152 128 244q108 77 271 92v262h107v-260q185 -5 347 -69v-178h-13q-164 101 -334 114v-391q185 -33 269 -85
q126 -78 126 -234zM511 758v375q-228 -21 -228 -180q0 -94 71 -141q44 -29 157 -54zM842 400q0 92 -70 137q-45 29 -154 51v-377q224 25 224 189z" />
    <glyph glyph-name="percent" unicode="%" horiz-adv-x="1639" 
d="M706 1098q0 -182 -58 -271q-72 -108 -245 -108t-245 108q-58 88 -58 270t58 271q72 108 245 108q172 0 244 -108q59 -89 59 -270zM1361 1476l-945 -1609h-135l942 1609h138zM1539 246q0 -182 -58 -271q-72 -108 -245 -108t-245 108q-58 88 -58 270t58 271q72 108 245 108
q172 0 244 -108q59 -89 59 -270zM568 1098q0 131 -20 181q-35 86 -145 86q-116 0 -149 -101q-15 -47 -15 -198q0 -114 25 -164q37 -73 139 -73q110 0 145 87q20 50 20 182zM1401 246q0 131 -20 181q-35 86 -145 86q-116 0 -149 -101q-15 -47 -15 -198q0 -114 25 -164
q37 -73 139 -73q110 0 145 87q20 50 20 182z" />
    <glyph glyph-name="ampersand" unicode="&#x26;" horiz-adv-x="1468" 
d="M1498 859q0 -219 -304 -264q34 -72 34 -120q0 -249 -204 -382q-174 -114 -437 -114q-198 0 -347 116q-160 125 -160 318q0 209 205 361q-56 79 -56 165q0 187 157 323q151 130 341 130q148 0 259 -88l-88 -108q-76 56 -171 56q-132 0 -242 -89q-116 -95 -116 -224
q0 -49 41 -96q65 24 130 24q54 0 92 -29q42 -32 42 -85q0 -57 -50 -88q-42 -26 -103 -26q-67 0 -131 38q-70 -45 -117 -113q-53 -76 -53 -151q0 -133 120 -218q108 -76 247 -76q201 0 335 76q166 94 166 280q0 37 -25.5 65.5t-62.5 28.5q-36 0 -77 -20q-44 -21 -58 -51
l-130 50q45 120 207 151q93 13 277 42q139 25 139 118q0 33 -21 59l110 88q51 -65 51 -147z" />
    <glyph glyph-name="quotesingle" unicode="'" horiz-adv-x="455" 
d="M455 1286l-224 -462h-114l136 462h202z" />
    <glyph glyph-name="parenleft" unicode="(" horiz-adv-x="770" 
d="M647 -323h-189q-308 349 -308 804q0 456 308 805h189v-9q-167 -149 -259.5 -360t-92.5 -436q0 -226 92 -435q93 -212 260 -360v-9z" />
    <glyph glyph-name="parenright" unicode=")" horiz-adv-x="770" 
d="M620 482q0 -456 -308 -805h-189v9q167 149 260 361q92 209 92 435q0 225 -92.5 436t-259.5 359v9h189q308 -349 308 -804z" />
    <glyph glyph-name="asterisk" unicode="*" horiz-adv-x="1076" 
d="M940 1033l-53 -91l-299 176l4 -297h-106l4 297l-298 -177l-54 91l315 171l-315 171l54 91l299 -176l-5 297h106l-5 -297l300 175l53 -91l-314 -169z" />
    <glyph glyph-name="plus" unicode="+" horiz-adv-x="1384" 
d="M1211 473h-453v-453h-132v453h-453v132h453v453h132v-453h453v-132z" />
    <glyph glyph-name="comma" unicode="," horiz-adv-x="616" 
d="M414 235l-233 -541h-121l144 541h210z" />
    <glyph glyph-name="hyphen" unicode="-" horiz-adv-x="768" 
d="M642 473h-516v132h516v-132z" />
    <glyph glyph-name="period" unicode="." horiz-adv-x="616" 
d="M439 118q0 -54 -38.5 -92.5t-92.5 -38.5t-92.5 38.5t-38.5 92.5t38.5 92.5t92.5 38.5t92.5 -38.5t38.5 -92.5z" />
    <glyph glyph-name="slash" unicode="/" horiz-adv-x="770" 
d="M752 1286l-593 -1609h-142l590 1609h145z" />
    <glyph glyph-name="zero" unicode="0" horiz-adv-x="1136" 
d="M1023 672q0 -305 -78 -469q-109 -231 -379 -231q-272 0 -380 229q-77 162 -77 469q0 305 78 469q109 231 379 231q457 0 457 -698zM854 672q0 298 -55 417q-68 146 -233 146q-160 0 -228 -132q-45 -89 -57 -273q-4 -70 -4 -160q0 -290 53 -412q66 -151 236 -151
q169 0 234 148q54 123 54 417z" />
    <glyph glyph-name="one" unicode="1" horiz-adv-x="1136" 
d="M948 0h-712v123h279v926h-279v109q298 2 312 189h126v-1224h274v-123z" />
    <glyph glyph-name="two" unicode="2" horiz-adv-x="1136" 
d="M1024 0h-894v180q124 105 365 325q72 69 202 218q102 141 102 273q0 116 -79 177q-71 55 -191 55q-185 0 -365 -118v179q169 82 370 82q188 0 304 -87q130 -97 130 -279q0 -146 -76.5 -268.5t-278.5 -311.5q-80 -75 -324 -284h735v-141z" />
    <glyph glyph-name="three" unicode="3" horiz-adv-x="1136" 
d="M1005 395q0 -200 -142 -316q-132 -107 -337 -107q-206 0 -390 83v178h3q180 -118 383 -118q143 0 228.5 75.5t85.5 217.5q0 168 -122 221q-74 32 -268 32v136h56q131 0 211 51q96 61 96 184q0 196 -269 196q-185 0 -366 -118v178q171 83 371 83q182 0 294 -68
q138 -82 138 -252q0 -110 -79 -195q-75 -80 -186 -102v-26q293 -48 293 -333z" />
    <glyph glyph-name="four" unicode="4" horiz-adv-x="1136" 
d="M1075 382h-193v-382h-158v382h-670v141l673 820h155v-830h193v-131zM724 513v616l-506 -616h506z" />
    <glyph glyph-name="five" unicode="5" horiz-adv-x="1136" 
d="M1014 424q0 -211 -138 -334q-133 -118 -346 -118q-208 0 -376 77v180h3q179 -114 370 -114q149 0 233.5 81t84.5 229q0 267 -362 267q-115 0 -272 -32v683h794v-144h-635v-377q86 8 158 8q486 0 486 -406z" />
    <glyph glyph-name="six" unicode="6" horiz-adv-x="1136" 
d="M1044 433q0 -201 -129 -331t-329 -130q-252 0 -375 191q-102 159 -102 426q0 347 148 549q168 230 502 230q93 0 154 -19v-161q-73 39 -181 39q-208 0 -326 -137q-108 -125 -127 -339q164 101 328 101q202 0 318 -108q119 -111 119 -311zM876 426q0 292 -311 292
q-144 0 -285 -78q-4 -48 -4 -90q0 -259 112 -365q84 -80 200 -80q143 0 218 91q70 84 70 230z" />
    <glyph glyph-name="seven" unicode="7" horiz-adv-x="1136" 
d="M1056 1201l-633 -1201h-176l647 1199h-752v144h914v-142z" />
    <glyph glyph-name="eight" unicode="8" horiz-adv-x="1136" 
d="M1034 371q0 -186 -145 -299q-133 -103 -324 -103q-197 0 -327 98q-143 109 -143 300q0 233 248 346v15q-212 113 -212 296q0 166 138 263q123 87 296 87q175 0 294 -80q139 -92 139 -258q0 -214 -223 -315v-16q259 -112 259 -334zM836 1034q0 107 -85 168q-75 53 -187 53
q-108 0 -182 -50q-85 -57 -85 -160q0 -128 152 -206q105 -53 222 -88q165 111 165 283zM863 354q0 94 -48 151q-45 54 -172 107l-194 72q-187 -103 -187 -303q0 -130 88 -211q85 -80 216 -80t211 65q86 71 86 199z" />
    <glyph glyph-name="nine" unicode="9" horiz-adv-x="1136" 
d="M1023 753q0 -347 -148 -549q-168 -230 -502 -230q-95 0 -155 19v161q75 -39 182 -39q413 0 452 476q-167 -101 -328 -101q-202 0 -318 108q-119 111 -119 311t129.5 330.5t328.5 130.5q255 0 377 -190q101 -158 101 -427zM855 792q0 445 -312 445q-141 0 -217 -92
q-71 -85 -71 -229q0 -292 311 -292q150 0 286 78q3 61 3 90z" />
    <glyph glyph-name="colon" unicode=":" horiz-adv-x="656" 
d="M479 806q0 -54 -38.5 -92.5t-92.5 -38.5t-92.5 38.5t-38.5 92.5t38.5 92.5t92.5 38.5t92.5 -38.5t38.5 -92.5zM479 118q0 -54 -38.5 -92.5t-92.5 -38.5t-92.5 38.5t-38.5 92.5t38.5 92.5t92.5 38.5t92.5 -38.5t38.5 -92.5z" />
    <glyph glyph-name="semicolon" unicode=";" horiz-adv-x="656" 
d="M479 806q0 -54 -38.5 -92.5t-92.5 -38.5t-92.5 38.5t-38.5 92.5t38.5 92.5t92.5 38.5t92.5 -38.5t38.5 -92.5zM454 235l-233 -541h-121l144 541h210z" />
    <glyph glyph-name="less" unicode="&#x3c;" horiz-adv-x="1384" 
d="M1169 64l-954 424v102l954 424v-149l-752 -326l752 -327v-148z" />
    <glyph glyph-name="equal" unicode="=" horiz-adv-x="1384" 
d="M1211 673h-1038v132h1038v-132zM1211 273h-1038v132h1038v-132z" />
    <glyph glyph-name="greater" unicode="&#x3e;" horiz-adv-x="1384" 
d="M1169 488l-954 -424v149l752 326l-752 327v148l954 -424v-102z" />
    <glyph glyph-name="question" unicode="?" horiz-adv-x="1008" 
d="M904 1031q0 -158 -117 -280q-78 -81 -254 -182v-202h-155v270q177 100 231 147q117 102 117 234q0 205 -250 205q-171 0 -321 -93h-8v179q163 62 341 62q176 0 288 -80q128 -91 128 -260zM567 99q0 -46 -33 -79t-79 -33t-79 33t-33 79t33 79t79 33t79 -33t33 -79z" />
    <glyph glyph-name="at" unicode="@" horiz-adv-x="1886" 
d="M1786 555q0 -200 -123 -375q-136 -194 -329 -194q-62 0 -118.5 33t-78.5 85q-142 -122 -296 -122q-185 0 -281 152q-80 127 -80 325t103 337q114 153 305 153q129 0 249 -66l10 40h146v-740q0 -71 67 -71q128 0 223 163q83 143 83 280q0 295 -219 486q-210 182 -509 182
q-298 0 -508 -210t-210 -508t210 -508t508 -210q77 0 185 21l20 -118q-120 -23 -205 -23q-346 0 -592 246t-246 592q0 347 245.5 592.5t592.5 245.5q348 0 593 -218q255 -227 255 -570zM1137 235v522q-116 52 -221 52q-143 0 -214 -104q-61 -89 -61 -239q0 -336 234 -336
q129 0 262 105z" />
    <glyph glyph-name="A" unicode="A" horiz-adv-x="1223" 
d="M1206 0h-174l-132 379h-591l-132 -379h-165l483 1343h228zM850 518l-246 697l-247 -697h493z" />
    <glyph glyph-name="B" unicode="B" horiz-adv-x="1227" 
d="M1163 410q0 -213 -165 -320q-138 -90 -364 -90h-469v1343h391q249 0 356 -56q137 -72 137 -241q0 -180 -179 -269v-18q293 -61 293 -349zM878 1022q0 159 -178 176q-62 6 -151 6h-220v-407h238q147 0 217 39q94 52 94 186zM992 403q0 158 -116 219q-71 37 -259 37h-288
v-520h244q234 0 319 59q100 70 100 205z" />
    <glyph glyph-name="C" unicode="C" horiz-adv-x="1250" 
d="M1188 96q-52 -24 -190 -79q-116 -41 -259 -41q-319 0 -488 189q-162 181 -162 505q0 168 46 298q92 259 338 353q120 46 267 46q215 0 448 -116v-202h-4q-213 179 -456 179q-234 0 -358 -166q-110 -149 -110 -392q0 -240 113 -389q126 -165 357 -165q257 0 455 179h3
v-199z" />
    <glyph glyph-name="D" unicode="D" horiz-adv-x="1381" 
d="M1285 670q0 -173 -72 -320q-77 -155 -217 -243q-171 -107 -499 -107h-332v1343h328q337 0 505 -106q287 -181 287 -567zM1113 673q0 320 -223 448q-143 82 -386 82h-175v-1063h175q265 0 406 91q203 131 203 442z" />
    <glyph glyph-name="E" unicode="E" horiz-adv-x="1130" 
d="M1035 0h-870v1343h870v-145h-706v-388h706v-145h-706v-520h706v-145z" />
    <glyph glyph-name="F" unicode="F" horiz-adv-x="1026" 
d="M1008 1198h-679v-399h584v-145h-584v-654h-164v1343h843v-145z" />
    <glyph glyph-name="G" unicode="G" horiz-adv-x="1390" 
d="M1271 98q-270 -124 -485 -124q-157 0 -286 43q-262 87 -361 348q-50 131 -50 308q0 325 186 509.5t511 184.5q234 0 484 -119v-202h-6q-100 77 -186 116q-144 66 -323 66q-240 0 -372 -158q-123 -148 -123 -392q0 -257 129 -405q136 -158 389 -158q177 0 331 64v346h-360
v143h522v-570z" />
    <glyph glyph-name="H" unicode="H" horiz-adv-x="1346" 
d="M1178 0h-164v665h-685v-665h-164v1343h164v-533h685v533h164v-1343z" />
    <glyph glyph-name="I" unicode="I" horiz-adv-x="748" 
d="M624 0h-515v123h175v1097h-175v123h515v-123h-176v-1097h176v-123z" />
    <glyph glyph-name="J" unicode="J" horiz-adv-x="809" 
d="M643 346q0 -177 -108 -273q-103 -92 -282 -92q-112 0 -228 25v155h1q117 -40 203 -40q160 0 211 77q39 59 39 216v800h-284v129h448v-997z" />
    <glyph glyph-name="K" unicode="K" horiz-adv-x="1240" 
d="M1221 0h-212l-534 608l-142 -152v-456h-163v1343h163v-720l663 720h196l-592 -631z" />
    <glyph glyph-name="L" unicode="L" horiz-adv-x="993" 
d="M1000 0h-835v1343h164v-1198h671v-145z" />
    <glyph glyph-name="M" unicode="M" horiz-adv-x="1512" 
d="M1346 0h-163v1196l-386 -822h-97l-383 823v-1197h-152v1343h232l363 -766l351 766h235v-1343z" />
    <glyph glyph-name="N" unicode="N" horiz-adv-x="1340" 
d="M1175 0h-209l-649 1197v-1197h-152v1343h245l613 -1132v1132h152v-1343z" />
    <glyph glyph-name="O" unicode="O" horiz-adv-x="1411" 
d="M1321 671q0 -311 -150 -497q-164 -202 -467 -202q-139 0 -254 47q-231 95 -318 355q-43 129 -43 297q0 312 149 498q163 202 466 202q144 0 257 -47q360 -150 360 -653zM1150 671q0 241 -99 387q-116 172 -346 172t-346 -171q-99 -146 -99 -388q0 -240 99 -387
q117 -171 346 -171t346 171q99 147 99 387z" />
    <glyph glyph-name="P" unicode="P" horiz-adv-x="1077" 
d="M1029 940q0 -179 -116 -296q-136 -138 -398 -138h-186v-506h-164v1343h357q121 0 203 -20q184 -45 263 -190q41 -76 41 -193zM858 936q0 267 -345 267h-184v-558h158q371 0 371 291z" />
    <glyph glyph-name="Q" unicode="Q" horiz-adv-x="1411" 
d="M1348 -331q-97 -23 -207 -23q-161 0 -250.5 88t-97.5 249q-48 -8 -89 -8q-139 0 -254 47q-231 95 -318 354q-43 129 -43 296q0 312 149 498q162 201 466 201q144 0 257 -47q231 -96 317 -355q43 -130 43 -297q0 -222 -85 -387q-96 -188 -286 -264q4 -119 52 -173
q52 -58 169 -58q84 0 162 31h15v-152zM1150 672q0 240 -99 387q-117 171 -346 171q-230 0 -346 -171q-99 -146 -99 -387q0 -240 100 -386q116 -171 345 -171t345 171q100 146 100 386z" />
    <glyph glyph-name="R" unicode="R" horiz-adv-x="1244" 
d="M1253 0h-212l-449 540h-263v-540h-164v1343h369q120 0 202 -16q176 -34 255 -170q40 -69 40 -176q0 -281 -280 -392zM859 968q0 125 -91 186q-73 49 -221 49h-218v-528h188q342 0 342 293z" />
    <glyph glyph-name="S" unicode="S" horiz-adv-x="1223" 
d="M1126 380q0 -199 -173 -309q-148 -95 -358 -95q-251 0 -489 106v213h2q214 -179 489 -179q140 0 236 49q122 62 122 190q0 91 -46.5 139t-135.5 68q-87 16 -314 60q-345 71 -345 365q0 185 162 290q139 90 335 90q249 0 461 -92v-201h-2q-180 153 -460 153
q-124 0 -214 -49q-111 -60 -111 -174q0 -173 201 -215q97 -16 345 -68q295 -71 295 -341z" />
    <glyph glyph-name="T" unicode="T" horiz-adv-x="1101" 
d="M1108 1198h-480v-1198h-163v1198h-480v145h1123v-145z" />
    <glyph glyph-name="U" unicode="U" horiz-adv-x="1311" 
d="M1161 538q0 -566 -508 -566q-507 0 -507 566v805h163v-814q0 -199 70 -299q82 -118 274 -118q345 0 345 412v819h163v-805z" />
    <glyph glyph-name="V" unicode="V" horiz-adv-x="1223" 
d="M1206 1343l-483 -1343h-228l-483 1343h175l426 -1210l427 1210h166z" />
    <glyph glyph-name="W" unicode="W" horiz-adv-x="1776" 
d="M1711 1343l-345 -1343h-189l-289 1151l-281 -1151h-185l-352 1343h168l288 -1153l284 1153h169l286 -1164l287 1164h159z" />
    <glyph glyph-name="X" unicode="X" horiz-adv-x="1226" 
d="M1168 1343l-458 -664l457 -679h-188l-370 565l-379 -565h-177l463 671l-452 672h187l366 -558l374 558h177z" />
    <glyph glyph-name="Y" unicode="Y" horiz-adv-x="1099" 
d="M1095 1343l-467 -753v-590h-163v571l-469 772h180l371 -614l375 614h173z" />
    <glyph glyph-name="Z" unicode="Z" horiz-adv-x="1226" 
d="M1132 0h-1033v158l831 1040h-801v145h983v-153l-840 -1045h860v-145z" />
    <glyph glyph-name="bracketleft" unicode="[" horiz-adv-x="770" 
d="M627 -323h-430v1609h430v-118h-286v-1373h286v-118z" />
    <glyph glyph-name="backslash" unicode="\" horiz-adv-x="770" 
d="M753 -323h-143l-592 1609h145z" />
    <glyph glyph-name="bracketright" unicode="]" horiz-adv-x="770" 
d="M573 -323h-430v118h286v1373h-286v118h430v-1609z" />
    <glyph glyph-name="asciicircum" unicode="^" horiz-adv-x="1385" 
d="M1231 565h-163l-376 518l-376 -519h-162l486 666h105z" />
    <glyph glyph-name="underscore" unicode="_" horiz-adv-x="1024" 
d="M1024 -442h-1024v99h1024v-99z" />
    <glyph glyph-name="grave" unicode="`" horiz-adv-x="455" 
d="M338 824h-114l-224 462h202z" />
    <glyph glyph-name="a" unicode="a" horiz-adv-x="1016" 
d="M870 0h-154v98q-40 -29 -124 -79q-95 -45 -208 -45q-128 0 -213 83t-85 211q0 196 173 272q120 53 457 70v24q0 104 -77 145q-56 29 -171 29q-127 0 -292 -63h-8v158q154 42 301 42q401 0 401 -319v-626zM716 227v257q-68 -4 -162 -10q-98 -9 -158 -26
q-150 -42 -150 -170q0 -159 194 -159q135 0 276 108z" />
    <glyph glyph-name="b" unicode="b" horiz-adv-x="1054" 
d="M965 469q0 -199 -100 -339q-113 -156 -304 -156q-128 0 -253 69l-10 -43h-145v1396h155v-570q149 123 304 123q186 0 278 -155q75 -126 75 -325zM805 464q0 337 -231 337q-131 0 -266 -105v-529q118 -53 222 -53q275 0 275 350z" />
    <glyph glyph-name="c" unicode="c" horiz-adv-x="882" 
d="M835 58q-164 -79 -295 -79q-220 0 -339 131q-114 126 -114 350q0 218 116 348q122 136 337 136q144 0 295 -76v-173h-8q-147 115 -294 115q-148 0 -221 -105q-64 -91 -64 -245q0 -153 64 -243q73 -103 221 -103q95 0 183 45q66 34 111 70h8v-171z" />
    <glyph glyph-name="d" unicode="d" horiz-adv-x="1054" 
d="M902 0h-156v97q-141 -123 -297 -123q-186 0 -281 154q-79 128 -79 326q0 201 102 340q114 155 308 155q126 0 247 -63v510h156v-1396zM746 227v530q-111 49 -220 49q-144 0 -216 -106q-60 -91 -60 -242q0 -336 236 -336q127 0 260 105z" />
    <glyph glyph-name="e" unicode="e" horiz-adv-x="1008" 
d="M925 445h-680q0 -156 86.5 -243.5t241.5 -87.5q78 0 172 31q101 33 154 81h8v-170q-184 -77 -332 -77q-230 0 -358.5 124t-128.5 353q0 217 114 351q121 142 334 142q193 0 294 -115q95 -108 95 -304v-85zM774 564q0 257 -246 257q-118 0 -195 -69.5t-88 -187.5h529z" />
    <glyph glyph-name="f" unicode="f" horiz-adv-x="683" 
d="M736 1243h-8q-90 26 -177 26q-133 0 -188 -63q-51 -59 -51 -194v-89h368v-131h-364v-792h-155v792h-105v131h105v53q0 202 98 312q103 116 303 116q77 0 174 -19v-142z" />
    <glyph glyph-name="g" unicode="g" horiz-adv-x="1054" 
d="M902 105q0 -455 -435 -455q-140 0 -281 40v159h8q150 -59 286 -59q266 0 266 251v85q-139 -112 -297 -112q-185 0 -280 141q-80 121 -80 315q0 196 104 331q114 148 304 148q130 0 249 -66l10 40h146v-818zM746 254v503q-115 52 -221 52q-143 0 -214 -101
q-61 -87 -61 -235q0 -315 235 -315q136 0 261 96z" />
    <glyph glyph-name="h" unicode="h" horiz-adv-x="1071" 
d="M925 0h-156v526q0 150 -34 206q-42 69 -161 69q-120 0 -266 -112v-689h-155v1396h155v-575q155 128 310 128q307 0 307 -350v-599z" />
    <glyph glyph-name="i" unicode="i" horiz-adv-x="464" 
d="M320 1078h-175v161h175v-161zM310 0h-155v923h155v-923z" />
    <glyph glyph-name="j" unicode="j" horiz-adv-x="583" 
d="M440 1078h-175v161h175v-161zM431 -22q0 -151 -76 -237q-80 -91 -229 -91q-92 0 -177 24v148h8q82 -33 139 -33q114 0 150 66q29 53 29 194v743h-192v131h348v-945z" />
    <glyph glyph-name="k" unicode="k" horiz-adv-x="1001" 
d="M991 0h-205l-370 404l-101 -96v-308h-156v1396h156v-935l449 462h195l-429 -426z" />
    <glyph glyph-name="l" unicode="l" horiz-adv-x="464" 
d="M310 0h-155v1396h155v-1396z" />
    <glyph glyph-name="m" unicode="m" horiz-adv-x="1646" 
d="M1500 0h-156v526q0 150 -28 203q-38 72 -157 72q-111 0 -261 -116q6 -44 6 -94v-591h-155v526q0 151 -28 204q-38 71 -157 71q-110 0 -256 -112v-689h-155v923h155v-102q155 128 299 128q190 0 258 -150q178 150 338 150q297 0 297 -350v-599z" />
    <glyph glyph-name="n" unicode="n" horiz-adv-x="1071" 
d="M925 0h-156v526q0 150 -34 206q-42 69 -161 69q-120 0 -266 -112v-689h-155v923h155v-102q155 128 310 128q307 0 307 -350v-599z" />
    <glyph glyph-name="o" unicode="o" horiz-adv-x="1027" 
d="M940 461q0 -213 -104 -344q-114 -143 -322 -143q-209 0 -322 143q-104 130 -104 344t104 345q113 143 322 143q207 0 321 -144q105 -132 105 -344zM779 461q0 354 -265 354q-266 0 -266 -354q0 -353 266 -353q265 0 265 353z" />
    <glyph glyph-name="p" unicode="p" horiz-adv-x="1054" 
d="M965 473q0 -200 -102 -338q-113 -153 -306 -153q-131 0 -249 64v-386h-155v1263h155v-97q146 123 304 123q186 0 278 -153q75 -124 75 -323zM805 469q0 332 -232 332q-127 0 -265 -105v-523q114 -52 222 -52q275 0 275 348z" />
    <glyph glyph-name="q" unicode="q" horiz-adv-x="1054" 
d="M902 -340h-156v444q-142 -122 -296 -122q-185 0 -281 152q-80 127 -80 325t103 337q114 153 305 153q129 0 249 -66l10 40h146v-1263zM746 235v522q-116 52 -221 52q-143 0 -214 -104q-61 -89 -61 -239q0 -336 234 -336q129 0 262 105z" />
    <glyph glyph-name="r" unicode="r" horiz-adv-x="722" 
d="M729 754h-8q-66 15 -145 15q-128 0 -268 -114v-655h-155v923h155v-136q170 136 308 136q50 0 113 -10v-159z" />
    <glyph glyph-name="s" unicode="s" horiz-adv-x="882" 
d="M812 266q0 -145 -128 -223q-107 -65 -262 -65q-176 0 -331 77v175h8q160 -121 336 -121q219 0 219 137q0 63 -47 94q-34 22 -105 37q-52 9 -184 39q-223 56 -223 248q0 117 95 197q99 84 278 84q173 0 308 -69v-166h-8q-142 104 -312 104q-202 0 -202 -130
q0 -100 148 -133q51 -10 185 -38q225 -50 225 -247z" />
    <glyph glyph-name="t" unicode="t" horiz-adv-x="667" 
d="M632 8q-100 -26 -187 -26q-289 0 -289 320v490h-105v131h105v265h156v-265h320v-131h-320v-420q0 -143 26 -190q35 -64 147 -64q66 0 139 30h8v-140z" />
    <glyph glyph-name="u" unicode="u" horiz-adv-x="1071" 
d="M918 0h-155v102q-163 -128 -309 -128q-308 0 -308 350v599h156v-526q0 -149 34 -205q42 -70 161 -70q124 0 266 112v689h155v-923z" />
    <glyph glyph-name="v" unicode="v" horiz-adv-x="1001" 
d="M951 923l-373 -923h-157l-371 923h169l286 -735l283 735h163z" />
    <glyph glyph-name="w" unicode="w" horiz-adv-x="1385" 
d="M1314 923l-241 -923h-143l-238 711l-235 -711h-143l-243 923h162l169 -715l231 715h128l236 -715l161 715h156z" />
    <glyph glyph-name="x" unicode="x" horiz-adv-x="1001" 
d="M952 0h-196l-262 354l-263 -354h-181l360 460l-357 463h196l260 -349l261 349h182l-363 -454z" />
    <glyph glyph-name="y" unicode="y" horiz-adv-x="1001" 
d="M951 923l-539 -1263h-166l172 385l-368 878h169l283 -684l286 684h163z" />
    <glyph glyph-name="z" unicode="z" horiz-adv-x="889" 
d="M822 0h-745v115l538 678h-527v130h720v-111l-540 -681h554v-131z" />
    <glyph glyph-name="braceleft" unicode="{" horiz-adv-x="1074" 
d="M920 -323h-123q-154 0 -242 82q-91 85 -91 237v124q0 297 -278 297h-42v129h42q278 0 278 297v124q0 153 91 237q88 82 242 82h123v-114h-94q-214 0 -214 -220v-144q0 -221 -240 -317v-19q240 -96 240 -317v-144q0 -220 214 -220h94v-114z" />
    <glyph glyph-name="bar" unicode="|" horiz-adv-x="770" 
d="M457 -323h-144v1609h144v-1609z" />
    <glyph glyph-name="braceright" unicode="}" horiz-adv-x="1074" 
d="M930 417h-42q-278 0 -278 -297v-124q0 -152 -89.5 -235.5t-243.5 -83.5h-123v114h94q214 0 214 220v144q0 221 240 317v19q-240 96 -240 317v144q0 220 -214 220h-94v114h123q154 0 243.5 -83t89.5 -236v-124q0 -297 278 -297h42v-129z" />
    <glyph glyph-name="asciitilde" unicode="~" horiz-adv-x="1384" 
d="M1209 731q-8 -384 -279 -384q-102 0 -181 57q-4 2 -143 127q-71 64 -147 64q-167 0 -170 -248h-114q8 384 279 384q102 0 181 -57q4 -2 143 -127q71 -64 147 -64q167 0 170 248h114z" />
    <glyph glyph-name="nonbreakingspace" unicode="&#xa0;" horiz-adv-x="528" 
 />
    <glyph glyph-name="exclamdown" unicode="&#xa1;" horiz-adv-x="490" 
d="M357 825q0 -46 -33 -79t-79 -33t-79 33t-33 79t33 79t79 33t79 -33t33 -79zM343 -419h-196l24 967h148z" />
    <glyph glyph-name="cent" unicode="&#xa2;" horiz-adv-x="926" 
d="M880 66q-154 -69 -284 -76v-288h-102v290q-199 19 -304 145q-103 121 -103 323q0 197 105 322q108 129 302 149v288h102v-285q140 -7 284 -75v-171h-8q-135 97 -276 111v-673q147 14 276 110h8v-170zM494 128v669q-246 -37 -246 -337q0 -296 246 -332z" />
    <glyph glyph-name="sterling" unicode="&#xa3;" horiz-adv-x="1137" 
d="M1019 0h-910v175q121 36 167 151q32 81 32 233h-162v132h162v269q0 182 111.5 295.5t293.5 113.5q114 0 283 -45v-174q-122 82 -273 82q-259 0 -259 -289v-252h376v-132h-376v-63q0 -215 -200 -333v-22h755v-141z" />
    <glyph glyph-name="currency" unicode="&#xa4;" horiz-adv-x="1384" 
d="M1177 151l-98 -97l-135 135q-114 -82 -252 -82q-141 0 -255 84l-136 -137l-94 94l136 136q-83 113 -83 255q0 138 82 252l-135 135l98 97l134 -134q113 82 253 82q142 0 255 -83l136 135l93 -93l-136 -136q84 -114 84 -255q0 -140 -82 -253zM999 539q0 128 -89.5 217.5
t-217.5 89.5t-217.5 -89.5t-89.5 -217.5t89.5 -217.5t217.5 -89.5t217.5 89.5t89.5 217.5z" />
    <glyph glyph-name="yen" unicode="&#xa5;" horiz-adv-x="1099" 
d="M1095 1343l-467 -753v-61h301v-132h-301v-126h301v-132h-301v-139h-163v139h-300v132h300v126h-300v132h300v42l-469 772h180l371 -614l375 614h173z" />
    <glyph glyph-name="brokenbar" unicode="&#xa6;" horiz-adv-x="770" 
d="M457 627h-144v659h144v-659zM457 -323h-144v659h144v-659z" />
    <glyph glyph-name="section" unicode="&#xa7;" horiz-adv-x="1092" 
d="M950 96q0 -59 -6 -95q-28 -169 -187 -254q-131 -70 -320 -70q-130 0 -294 48v164h9q169 -73 297 -73q163 0 163 107q0 77 -122 232q-179 228 -226 306q-122 206 -122 406q0 59 6 95q28 169 187 254q131 70 320 70q130 0 294 -48v-164h-9q-169 73 -297 73
q-163 0 -163 -107q0 -76 122 -231q178 -225 226 -307q122 -206 122 -406zM812 96q0 192 -125 371q-77 100 -230 301q-121 162 -115 281q-62 -67 -62 -182q0 -192 126 -371q77 -100 230 -300q121 -162 114 -285q62 61 62 185z" />
    <glyph glyph-name="dieresis" unicode="&#xa8;" horiz-adv-x="1024" 
d="M840 1251q0 -42 -29.5 -71.5t-71.5 -29.5t-71.5 29.5t-29.5 71.5t29.5 71.5t71.5 29.5t71.5 -29.5t29.5 -71.5zM386 1251q0 -42 -29.5 -71.5t-71.5 -29.5t-71.5 29.5t-29.5 71.5t29.5 71.5t71.5 29.5t71.5 -29.5t29.5 -71.5z" />
    <glyph glyph-name="copyright" unicode="&#xa9;" horiz-adv-x="1436" 
d="M1336 74q0 -260 -179 -441t-439 -181q-259 0 -438.5 181.5t-179.5 440.5t179.5 440.5t438.5 181.5t438.5 -181.5t179.5 -440.5zM1240 74q0 219 -151.5 372.5t-370.5 153.5t-370.5 -153.5t-151.5 -372.5t151.5 -372.5t370.5 -153.5t370.5 153.5t151.5 372.5zM982 -216
q-128 -66 -242 -66q-171 0 -268 91q-100 94 -100 264q0 167 102 262q99 94 267 94q111 0 241 -64v-140h-16q-111 85 -231 85q-107 0 -165 -66q-55 -62 -55 -171q0 -106 57 -169q59 -66 164 -66q127 0 231 84h15v-138z" />
    <glyph glyph-name="ordfeminine" unicode="&#xaa;" horiz-adv-x="772" 
d="M663 793h-126v63q-127 -80 -244 -80q-94 0 -159 54q-70 58 -70 150q0 151 174 203q80 24 299 34v12q0 114 -181 114q-66 0 -158 -25q-21 -8 -60 -18h-12v116q122 30 230 30q307 0 307 -222v-431zM537 955v167q-56 -3 -120 -8q-222 -18 -222 -127q0 -103 140 -103
q99 0 202 71z" />
    <glyph glyph-name="guillemotleft" unicode="&#xab;" horiz-adv-x="1148" 
d="M988 142l-454 360v74l454 359v-164l-306 -232l306 -232v-165zM608 142l-454 360v74l454 359v-164l-306 -232l306 -232v-165z" />
    <glyph glyph-name="logicalnot" unicode="&#xac;" horiz-adv-x="1384" 
d="M1211 20h-132v453h-906v132h1038v-585z" />
    <glyph glyph-name="sfthyphen" unicode="&#xad;" horiz-adv-x="768" 
d="M642 473h-516v132h516v-132z" />
    <glyph glyph-name="registered" unicode="&#xae;" horiz-adv-x="1436" 
d="M1336 1074q0 -260 -179 -441t-439 -181q-259 0 -438.5 181.5t-179.5 440.5t179.5 440.5t438.5 181.5t438.5 -181.5t179.5 -440.5zM1240 1074q0 219 -151.5 372.5t-370.5 153.5t-370.5 -153.5t-151.5 -372.5t151.5 -372.5t370.5 -153.5t370.5 153.5t151.5 372.5zM1070 730
h-185l-204 255h-82v-255h-140v687h221q288 0 288 -197q0 -141 -141 -201zM825 1214q0 84 -138 84h-88v-196h72q154 0 154 112z" />
    <glyph glyph-name="overscore" unicode="&#xaf;" horiz-adv-x="1024" 
d="M912 1407h-800v99h800v-99z" />
    <glyph glyph-name="degree" unicode="&#xb0;" horiz-adv-x="770" 
d="M677 1182q0 -122 -85 -207t-207 -85t-207 85t-85 207t85 207t207 85t207 -85t85 -207zM557 1182q0 71 -50.5 121.5t-121.5 50.5t-121.5 -50.5t-50.5 -121.5t50.5 -121.5t121.5 -50.5t121.5 50.5t50.5 121.5z" />
    <glyph glyph-name="plusminus" unicode="&#xb1;" horiz-adv-x="1384" 
d="M1211 473h-453v-453h-132v453h-453v132h453v453h132v-453h453v-132zM1211 -227h-1038v132h1038v-132z" />
    <glyph glyph-name="twosuperior" unicode="&#xb2;" horiz-adv-x="760" 
d="M684 793h-593v127q154 122 201 162q134 115 180 183q37 55 37 117q0 118 -151 118q-111 0 -225 -69h-21v130q116 53 249 53q121 0 198 -52q90 -60 90 -175q0 -89 -54 -168q-36 -53 -122 -131q-66 -60 -219 -181h430v-114z" />
    <glyph glyph-name="threesuperior" unicode="&#xb3;" horiz-adv-x="760" 
d="M672 1036q0 -126 -99 -196q-87 -63 -218 -63q-135 0 -261 53v130h24q113 -69 235 -69q180 0 180 153q0 93 -84 118q-37 11 -160 11v111q101 0 145 14q82 26 82 105q0 97 -152 97q-110 0 -224 -69h-21v130q116 53 248 53q117 0 192 -41q96 -52 96 -159q0 -129 -143 -178
q160 -47 160 -200z" />
    <glyph glyph-name="acute" unicode="&#xb4;" horiz-adv-x="1024" 
d="M691 1459l-264 -371l-94 59l228 394z" />
    <glyph glyph-name="mu1" unicode="&#xb5;" horiz-adv-x="1170" 
d="M1100 18q-39 -31 -107 -31q-159 0 -206 121q-114 -125 -248 -125q-116 0 -231 110v-144q0 -251 266 -251q35 0 76 5v-143q-31 -2 -62 -2q-435 0 -435 455v910h155v-692q83 -100 232 -100q155 0 235 107q-1 11 -1 23v662h155v-730q0 -76 69 -76q32 0 71 32z" />
    <glyph glyph-name="paragraph" unicode="&#xb6;" horiz-adv-x="1212" 
d="M1212 993h-215v-545q0 -248 -23 -368q-41 -211 -168 -317q-103 -86 -235 -86q-124 0 -211 70q-93 76 -93 197q0 88 59.5 151.5t146.5 63.5q62 0 110.5 -42.5t48.5 -103.5q0 -54 -32 -91.5t-85 -37.5q-37 0 -37 -27q0 -41 45 -65q37 -21 81 -21q275 0 275 553
q-215 -22 -270 -22q-195 0 -326 100q-145 109 -145 298q0 116 58 210q74 120 224 165q107 33 288 33q30 0 87.5 -1t83.5 -1v180h118v-180h215v-113zM879 456v537h-50q-160 0 -234 -66q-80 -70 -80 -227q0 -106 47 -178q56 -84 156 -84q70 0 161 18z" />
    <glyph glyph-name="middot" unicode="&#xb7;" horiz-adv-x="616" 
d="M439 671q0 -54 -38.5 -92.5t-92.5 -38.5t-92.5 38.5t-38.5 92.5t38.5 92.5t92.5 38.5t92.5 -38.5t38.5 -92.5z" />
    <glyph glyph-name="cedilla" unicode="&#xb8;" horiz-adv-x="1024" 
d="M730 -74q0 -128 -72.5 -202t-200.5 -74q-83 0 -163 22v132h7q77 -30 136 -30q168 0 168 138q0 43 -8 105h127q6 -60 6 -91z" />
    <glyph glyph-name="onesuperior" unicode="&#xb9;" horiz-adv-x="760" 
d="M636 793h-479v104h175v499h-175v96q105 0 144 20q49 25 53 89h111v-704h171v-104z" />
    <glyph glyph-name="ordmasculine" unicode="&#xba;" horiz-adv-x="780" 
d="M715 1112q0 -153 -86.5 -244.5t-238.5 -91.5t-239 93q-85 90 -85 243t86 244.5t238 91.5t238.5 -91.5t86.5 -244.5zM584 1112q0 235 -194 235t-194 -235t194 -235t194 235z" />
    <glyph glyph-name="guillemotright" unicode="&#xbb;" horiz-adv-x="1148" 
d="M994 501l-454 -359v164l306 232l-306 232v165l454 -360v-74zM614 501l-454 -359v164l306 232l-306 232v165l454 -360v-74z" />
    <glyph glyph-name="onequarter" unicode="&#xbc;" horiz-adv-x="1620" 
d="M636 584h-479v104h175v499h-175v96q105 0 144 20q49 25 53 89h111v-704h171v-104zM1360 1286l-945 -1609h-135l942 1609h138zM1564 -204h-125v-220h-133v220h-403v137l414 448h122v-477h125v-108zM1306 -96v310l-286 -310h286z" />
    <glyph glyph-name="onehalf" unicode="&#xbd;" horiz-adv-x="1620" 
d="M636 584h-479v104h175v499h-175v96q105 0 144 20q49 25 53 89h111v-704h171v-104zM1330 1286l-945 -1609h-135l942 1609h138zM1544 -424h-593v127q154 122 201 162q134 115 180 183q37 55 37 117q0 118 -151 118q-111 0 -225 -69h-21v130q116 53 249 53q121 0 198 -52
q90 -60 90 -175q0 -89 -54 -168q-36 -53 -122 -131q-66 -60 -219 -181h430v-114z" />
    <glyph glyph-name="threequarters" unicode="&#xbe;" horiz-adv-x="1620" 
d="M672 827q0 -126 -99 -196q-87 -63 -218 -63q-135 0 -261 53v130h24q113 -69 235 -69q180 0 180 153q0 93 -84 118q-37 11 -160 11v111q101 0 145 14q82 26 82 105q0 97 -152 97q-110 0 -224 -69h-21v130q116 53 248 53q117 0 192 -41q96 -52 96 -159q0 -129 -143 -178
q160 -47 160 -200zM1340 1286l-945 -1609h-135l942 1609h138zM1564 -204h-125v-220h-133v220h-403v137l414 448h122v-477h125v-108zM1306 -96v310l-286 -310h286z" />
    <glyph glyph-name="questiondown" unicode="&#xbf;" horiz-adv-x="1008" 
d="M708 853q0 -46 -33 -79t-79 -33t-79 33t-33 79t33 79t79 33t79 -33t33 -79zM904 -357q-163 -62 -341 -62q-176 0 -288 80q-128 91 -128 260q0 158 117 280q78 81 254 182v202h155v-270q-177 -100 -231 -147q-117 -102 -117 -234q0 -205 250 -205q171 0 321 93h8v-179z
" />
    <glyph glyph-name="Agrave" unicode="&#xc0;" horiz-adv-x="1223" 
d="M1206 0h-174l-132 379h-591l-132 -379h-165l483 1343h228zM850 518l-246 697l-247 -697h493zM757 1502l-94 -59l-264 371l130 82z" />
    <glyph glyph-name="Aacute" unicode="&#xc1;" horiz-adv-x="1223" 
d="M1206 0h-174l-132 379h-591l-132 -379h-165l483 1343h228zM850 518l-246 697l-247 -697h493zM817 1814l-264 -371l-94 59l228 394z" />
    <glyph glyph-name="Acircumflex" unicode="&#xc2;" horiz-adv-x="1223" 
d="M1206 0h-174l-132 379h-591l-132 -379h-165l483 1343h228zM850 518l-246 697l-247 -697h493zM950 1556l-69 -81l-276 205l-276 -205l-69 81l325 301h40z" />
    <glyph glyph-name="Atilde" unicode="&#xc3;" horiz-adv-x="1223" 
d="M1206 0h-174l-132 379h-591l-132 -379h-165l483 1343h228zM850 518l-246 697l-247 -697h493zM997 1750q-96 -227 -228 -227q-64 0 -203.5 74t-171.5 74q-59 0 -104 -130l-91 80q27 70 73 125q59 70 118 70q62 0 202.5 -77t188.5 -77q71 0 128 140z" />
    <glyph glyph-name="Adieresis" unicode="&#xc4;" horiz-adv-x="1223" 
d="M1206 0h-174l-132 379h-591l-132 -379h-165l483 1343h228zM850 518l-246 697l-247 -697h493zM936 1606q0 -42 -29.5 -71.5t-71.5 -29.5t-71.5 29.5t-29.5 71.5t29.5 71.5t71.5 29.5t71.5 -29.5t29.5 -71.5zM482 1606q0 -42 -29.5 -71.5t-71.5 -29.5t-71.5 29.5
t-29.5 71.5t29.5 71.5t71.5 29.5t71.5 -29.5t29.5 -71.5z" />
    <glyph glyph-name="Aring" unicode="&#xc5;" horiz-adv-x="1223" 
d="M1206 0h-174l-132 379h-591l-132 -379h-165l483 1343h228zM850 518l-246 697l-247 -697h493zM833 1671q0 -94 -65.5 -159.5t-159.5 -65.5t-159.5 65.5t-65.5 159.5t65.5 159.5t159.5 65.5t159.5 -65.5t65.5 -159.5zM723 1671q0 47 -34 81t-81 34t-81 -34t-34 -81t34 -81
t81 -34t81 34t34 81z" />
    <glyph glyph-name="AE" unicode="&#xc6;" horiz-adv-x="1768" 
d="M1685 0h-837v507h-485l-191 -507h-171l530 1343h1154v-145h-676v-388h676v-145h-676v-520h676v-145zM848 644v564h-210l-221 -564h431z" />
    <glyph glyph-name="Ccedilla" unicode="&#xc7;" horiz-adv-x="1250" 
d="M1188 96q-52 -24 -190 -79q-116 -41 -259 -41q-319 0 -488 189q-162 181 -162 505q0 168 46 298q92 259 338 353q120 46 267 46q215 0 448 -116v-202h-4q-213 179 -456 179q-234 0 -358 -166q-110 -149 -110 -392q0 -240 113 -389q126 -165 357 -165q257 0 455 179h3
v-199zM826 -74q0 -128 -72.5 -202t-200.5 -74q-83 0 -163 22v132h7q77 -30 136 -30q168 0 168 138q0 43 -8 105h127q6 -60 6 -91z" />
    <glyph glyph-name="Egrave" unicode="&#xc8;" horiz-adv-x="1130" 
d="M1035 0h-870v1343h870v-145h-706v-388h706v-145h-706v-520h706v-145zM757 1502l-94 -59l-264 371l130 82z" />
    <glyph glyph-name="Eacute" unicode="&#xc9;" horiz-adv-x="1130" 
d="M1035 0h-870v1343h870v-145h-706v-388h706v-145h-706v-520h706v-145zM797 1814l-264 -371l-94 59l228 394z" />
    <glyph glyph-name="Ecircumflex" unicode="&#xca;" horiz-adv-x="1130" 
d="M1035 0h-870v1343h870v-145h-706v-388h706v-145h-706v-520h706v-145zM950 1556l-69 -81l-276 205l-276 -205l-69 81l325 301h40z" />
    <glyph glyph-name="Edieresis" unicode="&#xcb;" horiz-adv-x="1130" 
d="M1035 0h-870v1343h870v-145h-706v-388h706v-145h-706v-520h706v-145zM926 1606q0 -42 -29.5 -71.5t-71.5 -29.5t-71.5 29.5t-29.5 71.5t29.5 71.5t71.5 29.5t71.5 -29.5t29.5 -71.5zM472 1606q0 -42 -29.5 -71.5t-71.5 -29.5t-71.5 29.5t-29.5 71.5t29.5 71.5t71.5 29.5
t71.5 -29.5t29.5 -71.5z" />
    <glyph glyph-name="Igrave" unicode="&#xcc;" horiz-adv-x="748" 
d="M624 0h-515v123h175v1097h-175v123h515v-123h-176v-1097h176v-123zM547 1502l-94 -59l-264 371l130 82z" />
    <glyph glyph-name="Iacute" unicode="&#xcd;" horiz-adv-x="748" 
d="M624 0h-515v123h175v1097h-175v123h515v-123h-176v-1097h176v-123zM567 1814l-264 -371l-94 59l228 394z" />
    <glyph glyph-name="Icircumflex" unicode="&#xce;" horiz-adv-x="748" 
d="M624 0h-515v123h175v1097h-175v123h515v-123h-176v-1097h176v-123zM720 1556l-69 -81l-276 205l-276 -205l-69 81l325 301h40z" />
    <glyph glyph-name="Idieresis" unicode="&#xcf;" horiz-adv-x="748" 
d="M624 0h-515v123h175v1097h-175v123h515v-123h-176v-1097h176v-123zM706 1606q0 -42 -29.5 -71.5t-71.5 -29.5t-71.5 29.5t-29.5 71.5t29.5 71.5t71.5 29.5t71.5 -29.5t29.5 -71.5zM252 1606q0 -42 -29.5 -71.5t-71.5 -29.5t-71.5 29.5t-29.5 71.5t29.5 71.5t71.5 29.5
t71.5 -29.5t29.5 -71.5z" />
    <glyph glyph-name="Eth" unicode="&#xd0;" horiz-adv-x="1390" 
d="M1294 670q0 -173 -72 -320q-77 -155 -217 -243q-171 -107 -499 -107h-332v675h-176v115h176v553h328q338 0 505 -106q287 -182 287 -567zM1122 673q0 320 -223 448q-143 82 -386 82h-177v-413h326v-115h-326v-535h177q265 0 406 91q203 131 203 442z" />
    <glyph glyph-name="Ntilde" unicode="&#xd1;" horiz-adv-x="1340" 
d="M1175 0h-209l-649 1197v-1197h-152v1343h245l613 -1132v1132h152v-1343zM1047 1750q-96 -227 -228 -227q-64 0 -203.5 74t-171.5 74q-59 0 -104 -130l-91 80q27 70 73 125q59 70 118 70q62 0 202.5 -77t188.5 -77q71 0 128 140z" />
    <glyph glyph-name="Ograve" unicode="&#xd2;" horiz-adv-x="1411" 
d="M1321 671q0 -311 -150 -497q-164 -202 -467 -202q-139 0 -254 47q-231 95 -318 355q-43 129 -43 297q0 312 149 498q163 202 466 202q144 0 257 -47q360 -150 360 -653zM1150 671q0 241 -99 387q-116 172 -346 172t-346 -171q-99 -146 -99 -388q0 -240 99 -387
q117 -171 346 -171t346 171q99 147 99 387zM927 1502l-94 -59l-264 371l130 82z" />
    <glyph glyph-name="Oacute" unicode="&#xd3;" horiz-adv-x="1411" 
d="M1321 671q0 -311 -150 -497q-164 -202 -467 -202q-139 0 -254 47q-231 95 -318 355q-43 129 -43 297q0 312 149 498q163 202 466 202q144 0 257 -47q360 -150 360 -653zM1150 671q0 241 -99 387q-116 172 -346 172t-346 -171q-99 -146 -99 -388q0 -240 99 -387
q117 -171 346 -171t346 171q99 147 99 387zM867 1814l-264 -371l-94 59l228 394z" />
    <glyph glyph-name="Ocircumflex" unicode="&#xd4;" horiz-adv-x="1411" 
d="M1321 671q0 -311 -150 -497q-164 -202 -467 -202q-139 0 -254 47q-231 95 -318 355q-43 129 -43 297q0 312 149 498q163 202 466 202q144 0 257 -47q360 -150 360 -653zM1150 671q0 241 -99 387q-116 172 -346 172t-346 -171q-99 -146 -99 -388q0 -240 99 -387
q117 -171 346 -171t346 171q99 147 99 387zM1020 1556l-69 -81l-276 205l-276 -205l-69 81l325 301h40z" />
    <glyph glyph-name="Otilde" unicode="&#xd5;" horiz-adv-x="1411" 
d="M1321 671q0 -311 -150 -497q-164 -202 -467 -202q-139 0 -254 47q-231 95 -318 355q-43 129 -43 297q0 312 149 498q163 202 466 202q144 0 257 -47q360 -150 360 -653zM1150 671q0 241 -99 387q-116 172 -346 172t-346 -171q-99 -146 -99 -388q0 -240 99 -387
q117 -171 346 -171t346 171q99 147 99 387zM1097 1750q-96 -227 -228 -227q-64 0 -203.5 74t-171.5 74q-59 0 -104 -130l-91 80q27 70 73 125q59 70 118 70q62 0 202.5 -77t188.5 -77q71 0 128 140z" />
    <glyph glyph-name="Odieresis" unicode="&#xd6;" horiz-adv-x="1411" 
d="M1321 671q0 -311 -150 -497q-164 -202 -467 -202q-139 0 -254 47q-231 95 -318 355q-43 129 -43 297q0 312 149 498q163 202 466 202q144 0 257 -47q360 -150 360 -653zM1150 671q0 241 -99 387q-116 172 -346 172t-346 -171q-99 -146 -99 -388q0 -240 99 -387
q117 -171 346 -171t346 171q99 147 99 387zM1026 1606q0 -42 -29.5 -71.5t-71.5 -29.5t-71.5 29.5t-29.5 71.5t29.5 71.5t71.5 29.5t71.5 -29.5t29.5 -71.5zM572 1606q0 -42 -29.5 -71.5t-71.5 -29.5t-71.5 29.5t-29.5 71.5t29.5 71.5t71.5 29.5t71.5 -29.5t29.5 -71.5z" />
    <glyph glyph-name="multiply" unicode="&#xd7;" horiz-adv-x="1384" 
d="M1191 134l-94 -94l-405 406l-405 -406l-94 94l406 405l-406 405l94 94l405 -406l405 406l94 -94l-406 -405z" />
    <glyph glyph-name="Oslash" unicode="&#xd8;" horiz-adv-x="1411" 
d="M1321 671q0 -312 -150 -497q-163 -201 -467 -201q-207 0 -358 106l-145 -211h-101l180 261q-191 192 -191 542q0 312 149 498q162 201 466 201q207 0 358 -103l130 186h101l-165 -237q193 -195 193 -545zM1153 671q0 266 -114 415l-609 -885q116 -89 275 -89
q228 0 346 171q102 148 102 388zM977 1142q-108 89 -272 89q-230 0 -347 -171q-101 -147 -101 -389q0 -264 113 -413z" />
    <glyph glyph-name="Ugrave" unicode="&#xd9;" horiz-adv-x="1311" 
d="M1161 538q0 -566 -508 -566q-507 0 -507 566v805h163v-814q0 -199 70 -299q82 -118 274 -118q345 0 345 412v819h163v-805zM797 1502l-94 -59l-264 371l130 82z" />
    <glyph glyph-name="Uacute" unicode="&#xda;" horiz-adv-x="1311" 
d="M1161 538q0 -566 -508 -566q-507 0 -507 566v805h163v-814q0 -199 70 -299q82 -118 274 -118q345 0 345 412v819h163v-805zM837 1814l-264 -371l-94 59l228 394z" />
    <glyph glyph-name="Ucircumflex" unicode="&#xdb;" horiz-adv-x="1311" 
d="M1161 538q0 -566 -508 -566q-507 0 -507 566v805h163v-814q0 -199 70 -299q82 -118 274 -118q345 0 345 412v819h163v-805zM990 1556l-69 -81l-276 205l-276 -205l-69 81l325 301h40z" />
    <glyph glyph-name="Udieresis" unicode="&#xdc;" horiz-adv-x="1311" 
d="M1161 538q0 -566 -508 -566q-507 0 -507 566v805h163v-814q0 -199 70 -299q82 -118 274 -118q345 0 345 412v819h163v-805zM976 1606q0 -42 -29.5 -71.5t-71.5 -29.5t-71.5 29.5t-29.5 71.5t29.5 71.5t71.5 29.5t71.5 -29.5t29.5 -71.5zM522 1606q0 -42 -29.5 -71.5
t-71.5 -29.5t-71.5 29.5t-29.5 71.5t29.5 71.5t71.5 29.5t71.5 -29.5t29.5 -71.5z" />
    <glyph glyph-name="Yacute" unicode="&#xdd;" horiz-adv-x="1099" 
d="M1095 1343l-467 -753v-590h-163v571l-469 772h180l371 -614l375 614h173zM727 1814l-264 -371l-94 59l228 394z" />
    <glyph glyph-name="Thorn" unicode="&#xde;" horiz-adv-x="1082" 
d="M1029 710q0 -173 -115 -284q-136 -132 -399 -132h-186v-294h-164v1343h164v-246h192q508 0 508 -387zM858 706q0 201 -204 241q-61 12 -141 12h-184v-529h158q371 0 371 276z" />
    <glyph glyph-name="germandbls" unicode="&#xdf;" horiz-adv-x="1080" 
d="M993 397q0 -180 -122 -298.5t-303 -118.5q-93 0 -161 23v137h8q62 -35 163 -35q122 0 191 91q63 82 63 208q0 146 -111 217q-93 60 -247 60v124q277 0 277 245q0 88 -66 160t-153 72q-224 0 -224 -284v-998h-155v992q0 185 100 296q104 116 287 116q142 0 254 -97
q117 -102 117 -242q0 -109 -63.5 -193t-167.5 -113v-7q139 -31 223 -121q90 -96 90 -234z" />
    <glyph glyph-name="agrave" unicode="&#xe0;" horiz-adv-x="1016" 
d="M870 0h-154v98q-40 -29 -124 -79q-95 -45 -208 -45q-128 0 -213 83t-85 211q0 196 173 272q120 53 457 70v24q0 104 -77 145q-56 29 -171 29q-127 0 -292 -63h-8v158q154 42 301 42q401 0 401 -319v-626zM716 227v257q-68 -4 -162 -10q-98 -9 -158 -26
q-150 -42 -150 -170q0 -159 194 -159q135 0 276 108zM677 1147l-94 -59l-264 371l130 82z" />
    <glyph glyph-name="aacute" unicode="&#xe1;" horiz-adv-x="1016" 
d="M870 0h-154v98q-40 -29 -124 -79q-95 -45 -208 -45q-128 0 -213 83t-85 211q0 196 173 272q120 53 457 70v24q0 104 -77 145q-56 29 -171 29q-127 0 -292 -63h-8v158q154 42 301 42q401 0 401 -319v-626zM716 227v257q-68 -4 -162 -10q-98 -9 -158 -26
q-150 -42 -150 -170q0 -159 194 -159q135 0 276 108zM707 1459l-264 -371l-94 59l228 394z" />
    <glyph glyph-name="acircumflex" unicode="&#xe2;" horiz-adv-x="1016" 
d="M870 0h-154v98q-40 -29 -124 -79q-95 -45 -208 -45q-128 0 -213 83t-85 211q0 196 173 272q120 53 457 70v24q0 104 -77 145q-56 29 -171 29q-127 0 -292 -63h-8v158q154 42 301 42q401 0 401 -319v-626zM716 227v257q-68 -4 -162 -10q-98 -9 -158 -26
q-150 -42 -150 -170q0 -159 194 -159q135 0 276 108zM804 1194l-82 -74l-214 207l-214 -207l-82 74l263 308h66z" />
    <glyph glyph-name="atilde" unicode="&#xe3;" horiz-adv-x="1016" 
d="M870 0h-154v98q-40 -29 -124 -79q-95 -45 -208 -45q-128 0 -213 83t-85 211q0 196 173 272q120 53 457 70v24q0 104 -77 145q-56 29 -171 29q-127 0 -292 -63h-8v158q154 42 301 42q401 0 401 -319v-626zM716 227v257q-68 -4 -162 -10q-98 -9 -158 -26
q-150 -42 -150 -170q0 -159 194 -159q135 0 276 108zM873 1395q-82 -227 -208 -227q-54 0 -175 74t-147 74q-51 0 -90 -130l-91 80q21 64 67 122q57 73 110 73t174 -77t162 -77q61 0 110 140z" />
    <glyph glyph-name="adieresis" unicode="&#xe4;" horiz-adv-x="1016" 
d="M870 0h-154v98q-40 -29 -124 -79q-95 -45 -208 -45q-128 0 -213 83t-85 211q0 196 173 272q120 53 457 70v24q0 104 -77 145q-56 29 -171 29q-127 0 -292 -63h-8v158q154 42 301 42q401 0 401 -319v-626zM716 227v257q-68 -4 -162 -10q-98 -9 -158 -26
q-150 -42 -150 -170q0 -159 194 -159q135 0 276 108zM836 1251q0 -42 -29.5 -71.5t-71.5 -29.5t-71.5 29.5t-29.5 71.5t29.5 71.5t71.5 29.5t71.5 -29.5t29.5 -71.5zM382 1251q0 -42 -29.5 -71.5t-71.5 -29.5t-71.5 29.5t-29.5 71.5t29.5 71.5t71.5 29.5t71.5 -29.5
t29.5 -71.5z" />
    <glyph glyph-name="aring" unicode="&#xe5;" horiz-adv-x="1016" 
d="M870 0h-154v98q-40 -29 -124 -79q-95 -45 -208 -45q-128 0 -213 83t-85 211q0 196 173 272q120 53 457 70v24q0 104 -77 145q-56 29 -171 29q-127 0 -292 -63h-8v158q154 42 301 42q401 0 401 -319v-626zM716 227v257q-68 -4 -162 -10q-98 -9 -158 -26
q-150 -42 -150 -170q0 -159 194 -159q135 0 276 108zM733 1316q0 -94 -65.5 -159.5t-159.5 -65.5t-159.5 65.5t-65.5 159.5t65.5 159.5t159.5 65.5t159.5 -65.5t65.5 -159.5zM623 1316q0 47 -34 81t-81 34t-81 -34t-34 -81t34 -81t81 -34t81 34t34 81z" />
    <glyph glyph-name="ae" unicode="&#xe6;" horiz-adv-x="1616" 
d="M1533 462h-677q0 -348 326 -348q181 0 323 112h10v-170q-173 -77 -331 -77q-269 0 -396 171q-83 -76 -134 -105q-122 -69 -270 -69q-127 0 -211 79q-87 81 -87 207q0 271 372 307q127 12 254 14v51q0 176 -247 176q-126 0 -287 -65h-11v158q160 44 299 44q258 0 353 -152
q129 154 327 154q191 0 292 -116q95 -109 95 -303v-68zM1382 581q-17 240 -244 240q-237 0 -279 -240h523zM739 246q-34 90 -34 215l-158 -5q-91 -6 -155 -22q-146 -37 -146 -160q0 -155 194 -155q168 0 299 127z" />
    <glyph glyph-name="ccedilla" unicode="&#xe7;" horiz-adv-x="882" 
d="M835 58q-68 -31 -114 -46q6 -41 6 -86q0 -128 -72 -202t-200 -74q-83 0 -163 22v132h7q77 -30 136 -30q167 0 167 138q0 31 -5 72q-37 -5 -57 -5q-220 0 -339 131q-114 126 -114 350q0 218 116 348q122 136 337 136q144 0 295 -76v-173h-8q-147 115 -294 115
q-148 0 -221 -105q-64 -91 -64 -245q0 -153 64 -243q73 -103 221 -103q95 0 183 45q66 34 111 70h8v-171z" />
    <glyph glyph-name="egrave" unicode="&#xe8;" horiz-adv-x="1008" 
d="M925 445h-680q0 -156 86.5 -243.5t241.5 -87.5q78 0 172 31q101 33 154 81h8v-170q-184 -77 -332 -77q-230 0 -358.5 124t-128.5 353q0 217 114 351q121 142 334 142q193 0 294 -115q95 -108 95 -304v-85zM774 564q0 257 -246 257q-118 0 -195 -69.5t-88 -187.5h529z
M717 1147l-94 -59l-264 371l130 82z" />
    <glyph glyph-name="eacute" unicode="&#xe9;" horiz-adv-x="1008" 
d="M925 445h-680q0 -156 86.5 -243.5t241.5 -87.5q78 0 172 31q101 33 154 81h8v-170q-184 -77 -332 -77q-230 0 -358.5 124t-128.5 353q0 217 114 351q121 142 334 142q193 0 294 -115q95 -108 95 -304v-85zM774 564q0 257 -246 257q-118 0 -195 -69.5t-88 -187.5h529z
M757 1459l-264 -371l-94 59l228 394z" />
    <glyph glyph-name="ecircumflex" unicode="&#xea;" horiz-adv-x="1008" 
d="M925 445h-680q0 -156 86.5 -243.5t241.5 -87.5q78 0 172 31q101 33 154 81h8v-170q-184 -77 -332 -77q-230 0 -358.5 124t-128.5 353q0 217 114 351q121 142 334 142q193 0 294 -115q95 -108 95 -304v-85zM774 564q0 257 -246 257q-118 0 -195 -69.5t-88 -187.5h529z
M834 1194l-82 -74l-214 207l-214 -207l-82 74l263 308h66z" />
    <glyph glyph-name="edieresis" unicode="&#xeb;" horiz-adv-x="1008" 
d="M925 445h-680q0 -156 86.5 -243.5t241.5 -87.5q78 0 172 31q101 33 154 81h8v-170q-184 -77 -332 -77q-230 0 -358.5 124t-128.5 353q0 217 114 351q121 142 334 142q193 0 294 -115q95 -108 95 -304v-85zM774 564q0 257 -246 257q-118 0 -195 -69.5t-88 -187.5h529z
M866 1251q0 -42 -29.5 -71.5t-71.5 -29.5t-71.5 29.5t-29.5 71.5t29.5 71.5t71.5 29.5t71.5 -29.5t29.5 -71.5zM412 1251q0 -42 -29.5 -71.5t-71.5 -29.5t-71.5 29.5t-29.5 71.5t29.5 71.5t71.5 29.5t71.5 -29.5t29.5 -71.5z" />
    <glyph glyph-name="igrave" unicode="&#xec;" horiz-adv-x="464" 
d="M310 0h-155v923h155v-923zM397 1147l-94 -59l-264 371l130 82z" />
    <glyph glyph-name="iacute" unicode="&#xed;" horiz-adv-x="464" 
d="M310 0h-155v923h155v-923zM447 1459l-264 -371l-94 59l228 394z" />
    <glyph glyph-name="icircumflex" unicode="&#xee;" horiz-adv-x="464" 
d="M310 0h-155v923h155v-923zM524 1194l-82 -74l-214 207l-214 -207l-82 74l263 308h66z" />
    <glyph glyph-name="idieresis" unicode="&#xef;" horiz-adv-x="464" 
d="M310 0h-155v923h155v-923zM507 1251q0 -42 -29.5 -71.5t-71.5 -29.5t-71.5 29.5t-29.5 71.5t29.5 71.5t71.5 29.5t71.5 -29.5t29.5 -71.5zM171 1251q0 -42 -29.5 -71.5t-71.5 -29.5t-71.5 29.5t-29.5 71.5t29.5 71.5t71.5 29.5t71.5 -29.5t29.5 -71.5z" />
    <glyph glyph-name="eth" unicode="&#xf0;" horiz-adv-x="1035" 
d="M940 526q0 -235 -96 -381q-114 -171 -338 -171q-197 0 -307.5 114.5t-110.5 311.5q0 179 107.5 292t285.5 113q146 0 288 -88q-57 201 -210 331l-218 -134l-54 80l196 117q-93 74 -266 162v13h244q47 -33 141 -98l173 106l55 -80l-154 -90q264 -253 264 -598zM783 499
q0 35 -4 97q-121 72 -269 72q-124 0 -192.5 -72.5t-68.5 -197.5q0 -292 258 -292q276 0 276 393z" />
    <glyph glyph-name="ntilde" unicode="&#xf1;" horiz-adv-x="1071" 
d="M925 0h-156v526q0 150 -34 206q-42 69 -161 69q-120 0 -266 -112v-689h-155v923h155v-102q155 128 310 128q307 0 307 -350v-599zM873 1395q-82 -227 -208 -227q-54 0 -175 74t-147 74q-51 0 -90 -130l-91 80q21 64 67 122q57 73 110 73t174 -77t162 -77q61 0 110 140z
" />
    <glyph glyph-name="ograve" unicode="&#xf2;" horiz-adv-x="1027" 
d="M940 461q0 -213 -104 -344q-114 -143 -322 -143q-209 0 -322 143q-104 130 -104 344t104 345q113 143 322 143q207 0 321 -144q105 -132 105 -344zM779 461q0 354 -265 354q-266 0 -266 -354q0 -353 266 -353q265 0 265 353zM707 1147l-94 -59l-264 371l130 82z" />
    <glyph glyph-name="oacute" unicode="&#xf3;" horiz-adv-x="1027" 
d="M940 461q0 -213 -104 -344q-114 -143 -322 -143q-209 0 -322 143q-104 130 -104 344t104 345q113 143 322 143q207 0 321 -144q105 -132 105 -344zM779 461q0 354 -265 354q-266 0 -266 -354q0 -353 266 -353q265 0 265 353zM687 1459l-264 -371l-94 59l228 394z" />
    <glyph glyph-name="ocircumflex" unicode="&#xf4;" horiz-adv-x="1027" 
d="M940 461q0 -213 -104 -344q-114 -143 -322 -143q-209 0 -322 143q-104 130 -104 344t104 345q113 143 322 143q207 0 321 -144q105 -132 105 -344zM779 461q0 354 -265 354q-266 0 -266 -354q0 -353 266 -353q265 0 265 353zM814 1194l-82 -74l-214 207l-214 -207l-82 74
l263 308h66z" />
    <glyph glyph-name="otilde" unicode="&#xf5;" horiz-adv-x="1027" 
d="M940 461q0 -213 -104 -344q-114 -143 -322 -143q-209 0 -322 143q-104 130 -104 344t104 345q113 143 322 143q207 0 321 -144q105 -132 105 -344zM779 461q0 354 -265 354q-266 0 -266 -354q0 -353 266 -353q265 0 265 353zM873 1395q-82 -227 -208 -227q-54 0 -175 74
t-147 74q-51 0 -90 -130l-91 80q21 64 67 122q57 73 110 73t174 -77t162 -77q61 0 110 140z" />
    <glyph glyph-name="odieresis" unicode="&#xf6;" horiz-adv-x="1027" 
d="M940 461q0 -213 -104 -344q-114 -143 -322 -143q-209 0 -322 143q-104 130 -104 344t104 345q113 143 322 143q207 0 321 -144q105 -132 105 -344zM779 461q0 354 -265 354q-266 0 -266 -354q0 -353 266 -353q265 0 265 353zM846 1251q0 -42 -29.5 -71.5t-71.5 -29.5
t-71.5 29.5t-29.5 71.5t29.5 71.5t71.5 29.5t71.5 -29.5t29.5 -71.5zM392 1251q0 -42 -29.5 -71.5t-71.5 -29.5t-71.5 29.5t-29.5 71.5t29.5 71.5t71.5 29.5t71.5 -29.5t29.5 -71.5z" />
    <glyph glyph-name="divide" unicode="&#xf7;" horiz-adv-x="1384" 
d="M828 941q0 -56 -40 -96t-96 -40t-96 40t-40 96t40 96t96 40t96 -40t40 -96zM1211 473h-1038v132h1038v-132zM828 137q0 -56 -40 -96t-96 -40t-96 40t-40 96t40 96t96 40t96 -40t40 -96z" />
    <glyph glyph-name="oslash" unicode="&#xf8;" horiz-adv-x="1027" 
d="M940 461q0 -213 -104 -344q-114 -143 -322 -143q-135 0 -236 67l-110 -163h-91l141 211q-130 134 -130 372q0 214 104 345q113 143 322 143q133 0 234 -66l96 142h91l-128 -190q133 -133 133 -374zM782 461q0 160 -57 250l-371 -554q64 -50 160 -50q142 0 211 111
q57 92 57 243zM672 768q-61 48 -158 48q-269 0 -269 -355q0 -159 57 -247z" />
    <glyph glyph-name="ugrave" unicode="&#xf9;" horiz-adv-x="1071" 
d="M918 0h-155v102q-163 -128 -309 -128q-308 0 -308 350v599h156v-526q0 -149 34 -205q42 -70 161 -70q124 0 266 112v689h155v-923zM707 1147l-94 -59l-264 371l130 82z" />
    <glyph glyph-name="uacute" unicode="&#xfa;" horiz-adv-x="1071" 
d="M918 0h-155v102q-163 -128 -309 -128q-308 0 -308 350v599h156v-526q0 -149 34 -205q42 -70 161 -70q124 0 266 112v689h155v-923zM737 1459l-264 -371l-94 59l228 394z" />
    <glyph glyph-name="ucircumflex" unicode="&#xfb;" horiz-adv-x="1071" 
d="M918 0h-155v102q-163 -128 -309 -128q-308 0 -308 350v599h156v-526q0 -149 34 -205q42 -70 161 -70q124 0 266 112v689h155v-923zM824 1194l-82 -74l-214 207l-214 -207l-82 74l263 308h66z" />
    <glyph glyph-name="udieresis" unicode="&#xfc;" horiz-adv-x="1071" 
d="M918 0h-155v102q-163 -128 -309 -128q-308 0 -308 350v599h156v-526q0 -149 34 -205q42 -70 161 -70q124 0 266 112v689h155v-923zM866 1251q0 -42 -29.5 -71.5t-71.5 -29.5t-71.5 29.5t-29.5 71.5t29.5 71.5t71.5 29.5t71.5 -29.5t29.5 -71.5zM412 1251
q0 -42 -29.5 -71.5t-71.5 -29.5t-71.5 29.5t-29.5 71.5t29.5 71.5t71.5 29.5t71.5 -29.5t29.5 -71.5z" />
    <glyph glyph-name="yacute" unicode="&#xfd;" horiz-adv-x="1001" 
d="M951 923l-539 -1263h-166l172 385l-368 878h169l283 -684l286 684h163zM727 1459l-264 -371l-94 59l228 394z" />
    <glyph glyph-name="thorn" unicode="&#xfe;" horiz-adv-x="1054" 
d="M965 473q0 -200 -102 -338q-113 -153 -306 -153q-131 0 -249 64v-386h-155v1736h155v-570q146 123 304 123q186 0 278 -153q75 -124 75 -323zM805 469q0 332 -232 332q-127 0 -265 -105v-523q114 -52 222 -52q275 0 275 348z" />
    <glyph glyph-name="ydieresis" unicode="&#xff;" horiz-adv-x="1001" 
d="M951 923l-539 -1263h-166l172 385l-368 878h169l283 -684l286 684h163zM846 1251q0 -42 -29.5 -71.5t-71.5 -29.5t-71.5 29.5t-29.5 71.5t29.5 71.5t71.5 29.5t71.5 -29.5t29.5 -71.5zM392 1251q0 -42 -29.5 -71.5t-71.5 -29.5t-71.5 29.5t-29.5 71.5t29.5 71.5
t71.5 29.5t71.5 -29.5t29.5 -71.5z" />
    <glyph glyph-name="Amacron" unicode="&#x100;" horiz-adv-x="1223" 
d="M1206 0h-174l-132 379h-591l-132 -379h-165l483 1343h228zM850 518l-246 697l-247 -697h493zM936 1606h-676v127h676v-127z" />
    <glyph glyph-name="amacron" unicode="&#x101;" horiz-adv-x="1016" 
d="M870 0h-154v98q-40 -29 -124 -79q-95 -45 -208 -45q-128 0 -213 83t-85 211q0 196 173 272q120 53 457 70v24q0 104 -77 145q-56 29 -171 29q-127 0 -292 -63h-8v158q154 42 301 42q401 0 401 -319v-626zM716 227v257q-68 -4 -162 -10q-98 -9 -158 -26
q-150 -42 -150 -170q0 -159 194 -159q135 0 276 108zM814 1200h-612v127h612v-127z" />
    <glyph glyph-name="Abreve" unicode="&#x102;" horiz-adv-x="1223" 
d="M1206 0h-174l-132 379h-591l-132 -379h-165l483 1343h228zM850 518l-246 697l-247 -697h493zM947 1823q-10 -136 -105.5 -221t-233.5 -85q-137 0 -233 85.5t-106 220.5h137q10 -86 62 -140q56 -58 140 -58t140 58q52 54 62 140h137z" />
    <glyph glyph-name="abreve" unicode="&#x103;" horiz-adv-x="1016" 
d="M870 0h-154v98q-40 -29 -124 -79q-95 -45 -208 -45q-128 0 -213 83t-85 211q0 196 173 272q120 53 457 70v24q0 104 -77 145q-56 29 -171 29q-127 0 -292 -63h-8v158q154 42 301 42q401 0 401 -319v-626zM716 227v257q-68 -4 -162 -10q-98 -9 -158 -26
q-150 -42 -150 -170q0 -159 194 -159q135 0 276 108zM818 1462q-10 -138 -90 -220q-84 -86 -220 -86q-137 0 -220 86q-80 81 -90 220h137q22 -198 173 -198q148 0 173 198h137z" />
    <glyph glyph-name="Aogonek" unicode="&#x104;" horiz-adv-x="1223" 
d="M1206 0h-174l-132 379h-591l-132 -379h-165l483 1343h228zM850 518l-246 697l-247 -697h493zM1412 -323q-80 -22 -140 -22q-117 0 -185.5 66t-68.5 183q0 36 16 104h128q-10 -44 -10 -96q0 -133 143 -133q49 0 110 29h7v-131z" />
    <glyph glyph-name="aogonek" unicode="&#x105;" horiz-adv-x="1016" 
d="M1096 -323q-80 -22 -140 -22q-117 0 -185.5 66t-68.5 183q0 34 5 56l9 40v98q-40 -29 -124 -79q-95 -45 -208 -45q-128 0 -213 83t-85 211q0 196 173 272q120 53 457 70v24q0 104 -77 145q-56 29 -171 29q-127 0 -292 -63h-8v158q154 42 301 42q401 0 401 -319v-626h-24
q-11 -48 -11 -88q0 -133 143 -133q50 0 111 29h7v-131zM716 227v257q-68 -4 -162 -10q-98 -9 -158 -26q-150 -42 -150 -170q0 -159 194 -159q135 0 276 108z" />
    <glyph glyph-name="Cacute" unicode="&#x106;" horiz-adv-x="1250" 
d="M1188 96q-52 -24 -190 -79q-116 -41 -259 -41q-319 0 -488 189q-162 181 -162 505q0 168 46 298q92 259 338 353q120 46 267 46q215 0 448 -116v-202h-4q-213 179 -456 179q-234 0 -358 -166q-110 -149 -110 -392q0 -240 113 -389q126 -165 357 -165q257 0 455 179h3
v-199zM857 1814l-264 -371l-94 59l228 394z" />
    <glyph glyph-name="cacute" unicode="&#x107;" horiz-adv-x="882" 
d="M835 58q-164 -79 -295 -79q-220 0 -339 131q-114 126 -114 350q0 218 116 348q122 136 337 136q144 0 295 -76v-173h-8q-147 115 -294 115q-148 0 -221 -105q-64 -91 -64 -245q0 -153 64 -243q73 -103 221 -103q95 0 183 45q66 34 111 70h8v-171zM677 1459l-264 -371
l-94 59l228 394z" />
    <glyph glyph-name="Ccircumflex" unicode="&#x108;" horiz-adv-x="1250" 
d="M1188 96q-52 -24 -190 -79q-116 -41 -259 -41q-319 0 -488 189q-162 181 -162 505q0 168 46 298q92 259 338 353q120 46 267 46q215 0 448 -116v-202h-4q-213 179 -456 179q-234 0 -358 -166q-110 -149 -110 -392q0 -240 113 -389q126 -165 357 -165q257 0 455 179h3
v-199zM1060 1556l-69 -81l-276 205l-276 -205l-69 81l325 301h40z" />
    <glyph glyph-name="ccircumflex" unicode="&#x109;" horiz-adv-x="882" 
d="M835 58q-164 -79 -295 -79q-220 0 -339 131q-114 126 -114 350q0 218 116 348q122 136 337 136q144 0 295 -76v-173h-8q-147 115 -294 115q-148 0 -221 -105q-64 -91 -64 -245q0 -153 64 -243q73 -103 221 -103q95 0 183 45q66 34 111 70h8v-171zM824 1194l-82 -74
l-214 207l-214 -207l-82 74l263 308h66z" />
    <glyph glyph-name="Cdot" unicode="&#x10a;" horiz-adv-x="1250" 
d="M1188 96q-52 -24 -190 -79q-116 -41 -259 -41q-319 0 -488 189q-162 181 -162 505q0 168 46 298q92 259 338 353q120 46 267 46q215 0 448 -116v-202h-4q-213 179 -456 179q-234 0 -358 -166q-110 -149 -110 -392q0 -240 113 -389q126 -165 357 -165q257 0 455 179h3
v-199zM809 1606q0 -42 -29.5 -71.5t-71.5 -29.5t-71.5 29.5t-29.5 71.5t29.5 71.5t71.5 29.5t71.5 -29.5t29.5 -71.5z" />
    <glyph glyph-name="cdot" unicode="&#x10b;" horiz-adv-x="882" 
d="M835 58q-164 -79 -295 -79q-220 0 -339 131q-114 126 -114 350q0 218 116 348q122 136 337 136q144 0 295 -76v-173h-8q-147 115 -294 115q-148 0 -221 -105q-64 -91 -64 -245q0 -153 64 -243q73 -103 221 -103q95 0 183 45q66 34 111 70h8v-171zM629 1251
q0 -42 -29.5 -71.5t-71.5 -29.5t-71.5 29.5t-29.5 71.5t29.5 71.5t71.5 29.5t71.5 -29.5t29.5 -71.5z" />
    <glyph glyph-name="Ccaron" unicode="&#x10c;" horiz-adv-x="1250" 
d="M1188 96q-52 -24 -190 -79q-116 -41 -259 -41q-319 0 -488 189q-162 181 -162 505q0 168 46 298q92 259 338 353q120 46 267 46q215 0 448 -116v-202h-4q-213 179 -456 179q-234 0 -358 -166q-110 -149 -110 -392q0 -240 113 -389q126 -165 357 -165q257 0 455 179h3
v-199zM1053 1776l-325 -301h-40l-325 301l69 81l276 -205l276 205z" />
    <glyph glyph-name="ccaron" unicode="&#x10d;" horiz-adv-x="882" 
d="M835 58q-164 -79 -295 -79q-220 0 -339 131q-114 126 -114 350q0 218 116 348q122 136 337 136q144 0 295 -76v-173h-8q-147 115 -294 115q-148 0 -221 -105q-64 -91 -64 -245q0 -153 64 -243q73 -103 221 -103q95 0 183 45q66 34 111 70h8v-171zM804 1444l-263 -308h-66
l-263 308l82 74l214 -207l214 207z" />
    <glyph glyph-name="Dcaron" unicode="&#x10e;" horiz-adv-x="1381" 
d="M1285 670q0 -173 -72 -320q-77 -155 -217 -243q-171 -107 -499 -107h-332v1343h328q337 0 505 -106q287 -181 287 -567zM1113 673q0 320 -223 448q-143 82 -386 82h-175v-1063h175q265 0 406 91q203 131 203 442zM983 1776l-325 -301h-40l-325 301l69 81l276 -205
l276 205z" />
    <glyph glyph-name="dcaron" unicode="&#x10f;" horiz-adv-x="1301" 
d="M902 0h-156v97q-141 -123 -297 -123q-186 0 -281 154q-79 128 -79 326q0 201 102 340q114 155 308 155q126 0 247 -63v510h156v-1396zM746 227v530q-111 49 -220 49q-144 0 -216 -106q-60 -91 -60 -242q0 -336 236 -336q127 0 260 105zM1351 1339q0 -105 -79 -163
q-71 -53 -179 -53h-36v71q176 -1 176 112q0 136 -184 126v133h33q112 0 186 -56q83 -62 83 -170z" />
    <glyph glyph-name="Dslash" unicode="&#x110;" horiz-adv-x="1390" 
d="M1294 670q0 -173 -72 -320q-77 -155 -217 -243q-171 -107 -499 -107h-332v675h-176v115h176v553h328q338 0 505 -106q287 -182 287 -567zM1122 673q0 320 -223 448q-143 82 -386 82h-177v-413h326v-115h-326v-535h177q265 0 406 91q203 131 203 442z" />
    <glyph glyph-name="dcroat" unicode="&#x111;" horiz-adv-x="1054" 
d="M1054 1098h-152v-1098h-156v97q-141 -123 -297 -123q-186 0 -281 154q-79 128 -79 326q0 201 102 340q114 155 308 155q126 0 247 -63v212h-300v110h300v188h156v-188h152v-110zM746 227v530q-111 49 -220 49q-144 0 -216 -106q-60 -91 -60 -242q0 -336 236 -336
q127 0 260 105z" />
    <glyph glyph-name="Emacron" unicode="&#x112;" horiz-adv-x="1130" 
d="M1035 0h-870v1343h870v-145h-706v-388h706v-145h-706v-520h706v-145zM946 1606h-676v127h676v-127z" />
    <glyph glyph-name="emacron" unicode="&#x113;" horiz-adv-x="1008" 
d="M925 445h-680q0 -156 86.5 -243.5t241.5 -87.5q78 0 172 31q101 33 154 81h8v-170q-184 -77 -332 -77q-230 0 -358.5 124t-128.5 353q0 217 114 351q121 142 334 142q193 0 294 -115q95 -108 95 -304v-85zM774 564q0 257 -246 257q-118 0 -195 -69.5t-88 -187.5h529z
M824 1200h-612v127h612v-127z" />
    <glyph glyph-name="Ebreve" unicode="&#x114;" horiz-adv-x="1130" 
d="M1035 0h-870v1343h870v-145h-706v-388h706v-145h-706v-520h706v-145zM909 1827q-8 -141 -88 -226q-84 -90 -223 -90q-140 0 -224 89q-79 85 -87 227h137q19 -208 174 -208q152 0 174 208h137z" />
    <glyph glyph-name="ebreve" unicode="&#x115;" horiz-adv-x="1008" 
d="M925 445h-680q0 -156 86.5 -243.5t241.5 -87.5q78 0 172 31q101 33 154 81h8v-170q-184 -77 -332 -77q-230 0 -358.5 124t-128.5 353q0 217 114 351q121 142 334 142q193 0 294 -115q95 -108 95 -304v-85zM774 564q0 257 -246 257q-118 0 -195 -69.5t-88 -187.5h529z
M838 1462q-10 -138 -90 -220q-84 -86 -220 -86q-137 0 -220 86q-80 81 -90 220h137q22 -198 173 -198q148 0 173 198h137z" />
    <glyph glyph-name="Edot" unicode="&#x116;" horiz-adv-x="1130" 
d="M1035 0h-870v1343h870v-145h-706v-388h706v-145h-706v-520h706v-145zM719 1606q0 -42 -29.5 -71.5t-71.5 -29.5t-71.5 29.5t-29.5 71.5t29.5 71.5t71.5 29.5t71.5 -29.5t29.5 -71.5z" />
    <glyph glyph-name="edot" unicode="&#x117;" horiz-adv-x="1008" 
d="M925 445h-680q0 -156 86.5 -243.5t241.5 -87.5q78 0 172 31q101 33 154 81h8v-170q-184 -77 -332 -77q-230 0 -358.5 124t-128.5 353q0 217 114 351q121 142 334 142q193 0 294 -115q95 -108 95 -304v-85zM774 564q0 257 -246 257q-118 0 -195 -69.5t-88 -187.5h529z
M629 1251q0 -42 -29.5 -71.5t-71.5 -29.5t-71.5 29.5t-29.5 71.5t29.5 71.5t71.5 29.5t71.5 -29.5t29.5 -71.5z" />
    <glyph glyph-name="Eogonek" unicode="&#x118;" horiz-adv-x="1130" 
d="M1035 0h-870v1343h870v-145h-706v-388h706v-145h-706v-520h706v-145zM1125 -323q-80 -22 -140 -22q-117 0 -185.5 66t-68.5 183q0 36 16 104h128q-10 -44 -10 -96q0 -133 143 -133q49 0 110 29h7v-131z" />
    <glyph glyph-name="eogonek" unicode="&#x119;" horiz-adv-x="1008" 
d="M925 445h-680q0 -156 86.5 -243.5t241.5 -87.5q78 0 172 31q101 33 154 81h8v-170q-146 -61 -256 -73q-4 -42 -4 -71q0 -133 143 -133q49 0 111 29h6v-131q-80 -22 -139 -22q-117 0 -186 66t-69 183q0 39 8 76q-209 15 -321 140t-112 336q0 217 114 351q121 142 334 142
q193 0 294 -115q95 -108 95 -304v-85zM774 564q0 257 -246 257q-118 0 -195 -69.5t-88 -187.5h529z" />
    <glyph glyph-name="Ecaron" unicode="&#x11a;" horiz-adv-x="1130" 
d="M1035 0h-870v1343h870v-145h-706v-388h706v-145h-706v-520h706v-145zM953 1776l-325 -301h-40l-325 301l69 81l276 -205l276 205z" />
    <glyph glyph-name="ecaron" unicode="&#x11b;" horiz-adv-x="1008" 
d="M925 445h-680q0 -156 86.5 -243.5t241.5 -87.5q78 0 172 31q101 33 154 81h8v-170q-184 -77 -332 -77q-230 0 -358.5 124t-128.5 353q0 217 114 351q121 142 334 142q193 0 294 -115q95 -108 95 -304v-85zM774 564q0 257 -246 257q-118 0 -195 -69.5t-88 -187.5h529z
M834 1444l-263 -308h-66l-263 308l82 74l214 -207l214 207z" />
    <glyph glyph-name="Gcircumflex" unicode="&#x11c;" horiz-adv-x="1390" 
d="M1271 98q-270 -124 -485 -124q-157 0 -286 43q-262 87 -361 348q-50 131 -50 308q0 325 186 509.5t511 184.5q234 0 484 -119v-202h-6q-100 77 -186 116q-144 66 -323 66q-240 0 -372 -158q-123 -148 -123 -392q0 -257 129 -405q136 -158 389 -158q177 0 331 64v346h-360
v143h522v-570zM1090 1556l-69 -81l-276 205l-276 -205l-69 81l325 301h40z" />
    <glyph glyph-name="gcircumflex" unicode="&#x11d;" horiz-adv-x="1054" 
d="M902 105q0 -455 -435 -455q-140 0 -281 40v159h8q150 -59 286 -59q266 0 266 251v85q-139 -112 -297 -112q-185 0 -280 141q-80 121 -80 315q0 196 104 331q114 148 304 148q130 0 249 -66l10 40h146v-818zM746 254v503q-115 52 -221 52q-143 0 -214 -101
q-61 -87 -61 -235q0 -315 235 -315q136 0 261 96zM824 1194l-82 -74l-214 207l-214 -207l-82 74l263 308h66z" />
    <glyph glyph-name="Gbreve" unicode="&#x11e;" horiz-adv-x="1390" 
d="M1271 98q-270 -124 -485 -124q-157 0 -286 43q-262 87 -361 348q-50 131 -50 308q0 325 186 509.5t511 184.5q234 0 484 -119v-202h-6q-100 77 -186 116q-144 66 -323 66q-240 0 -372 -158q-123 -148 -123 -392q0 -257 129 -405q136 -158 389 -158q177 0 331 64v346h-360
v143h522v-570zM1059 1827q-8 -141 -88 -226q-84 -90 -223 -90q-140 0 -224 89q-79 85 -87 227h137q19 -208 174 -208q152 0 174 208h137z" />
    <glyph glyph-name="gbreve" unicode="&#x11f;" horiz-adv-x="1054" 
d="M902 105q0 -455 -435 -455q-140 0 -281 40v159h8q150 -59 286 -59q266 0 266 251v85q-139 -112 -297 -112q-185 0 -280 141q-80 121 -80 315q0 196 104 331q114 148 304 148q130 0 249 -66l10 40h146v-818zM746 254v503q-115 52 -221 52q-143 0 -214 -101
q-61 -87 -61 -235q0 -315 235 -315q136 0 261 96zM828 1462q-10 -138 -90 -220q-84 -86 -220 -86q-137 0 -220 86q-80 81 -90 220h137q22 -198 173 -198q148 0 173 198h137z" />
    <glyph glyph-name="Gdot" unicode="&#x120;" horiz-adv-x="1390" 
d="M1271 98q-270 -124 -485 -124q-157 0 -286 43q-262 87 -361 348q-50 131 -50 308q0 325 186 509.5t511 184.5q234 0 484 -119v-202h-6q-100 77 -186 116q-144 66 -323 66q-240 0 -372 -158q-123 -148 -123 -392q0 -257 129 -405q136 -158 389 -158q177 0 331 64v346h-360
v143h522v-570zM849 1606q0 -42 -29.5 -71.5t-71.5 -29.5t-71.5 29.5t-29.5 71.5t29.5 71.5t71.5 29.5t71.5 -29.5t29.5 -71.5z" />
    <glyph glyph-name="gdot" unicode="&#x121;" horiz-adv-x="1054" 
d="M902 105q0 -455 -435 -455q-140 0 -281 40v159h8q150 -59 286 -59q266 0 266 251v85q-139 -112 -297 -112q-185 0 -280 141q-80 121 -80 315q0 196 104 331q114 148 304 148q130 0 249 -66l10 40h146v-818zM746 254v503q-115 52 -221 52q-143 0 -214 -101
q-61 -87 -61 -235q0 -315 235 -315q136 0 261 96zM629 1251q0 -42 -29.5 -71.5t-71.5 -29.5t-71.5 29.5t-29.5 71.5t29.5 71.5t71.5 29.5t71.5 -29.5t29.5 -71.5z" />
    <glyph glyph-name="Gcedilla" unicode="&#x122;" horiz-adv-x="1390" 
d="M1271 98q-270 -124 -485 -124q-157 0 -286 43q-262 87 -361 348q-50 131 -50 308q0 325 186 509.5t511 184.5q234 0 484 -119v-202h-6q-100 77 -186 116q-144 66 -323 66q-240 0 -372 -158q-123 -148 -123 -392q0 -257 129 -405q136 -158 389 -158q177 0 331 64v346h-360
v143h522v-570zM836 -74q0 -128 -72.5 -202t-200.5 -74q-83 0 -163 22v132h7q77 -30 136 -30q168 0 168 138q0 43 -8 105h127q6 -60 6 -91z" />
    <glyph glyph-name="gcedilla" unicode="&#x123;" horiz-adv-x="1054" 
d="M902 105q0 -455 -435 -455q-140 0 -281 40v159h8q150 -59 286 -59q266 0 266 251v85q-139 -112 -297 -112q-185 0 -280 141q-80 121 -80 315q0 196 104 331q114 148 304 148q130 0 249 -66l10 40h146v-818zM746 254v503q-115 52 -221 52q-143 0 -214 -101
q-61 -87 -61 -235q0 -315 235 -315q136 0 261 96zM649 1123h-33q-112 0 -186 56q-83 62 -83 170q0 105 79 163q71 53 179 53h36v-71q-176 1 -176 -112q0 -136 184 -126v-133z" />
    <glyph glyph-name="Hcircumflex" unicode="&#x124;" horiz-adv-x="1346" 
d="M1178 0h-164v665h-685v-665h-164v1343h164v-533h685v533h164v-1343zM1010 1556l-69 -81l-276 205l-276 -205l-69 81l325 301h40z" />
    <glyph glyph-name="hcircumflex" unicode="&#x125;" horiz-adv-x="1071" 
d="M925 0h-156v526q0 150 -34 206q-42 69 -161 69q-120 0 -266 -112v-689h-155v1396h155v-575q155 128 310 128q307 0 307 -350v-599zM784 1558l-82 -74l-214 207l-214 -207l-82 74l263 308h66z" />
    <glyph glyph-name="Hbar" unicode="&#x126;" horiz-adv-x="1346" 
d="M1329 1012h-151v-1012h-164v665h-685v-665h-164v1012h-151v112h151v219h164v-219h685v219h164v-219h151v-112zM1014 810v202h-685v-202h685z" />
    <glyph glyph-name="hbar" unicode="&#x127;" horiz-adv-x="1071" 
d="M925 0h-156v526q0 150 -34 206q-42 69 -161 69q-120 0 -266 -112v-689h-155v1098h-137v110h137v188h155v-188h265v-110h-265v-277q155 128 310 128q307 0 307 -350v-599z" />
    <glyph glyph-name="Itilde" unicode="&#x128;" horiz-adv-x="748" 
d="M624 0h-515v123h175v1097h-175v123h515v-123h-176v-1097h176v-123zM767 1750q-96 -227 -228 -227q-64 0 -203.5 74t-171.5 74q-59 0 -104 -130l-91 80q27 70 73 125q59 70 118 70q62 0 202.5 -77t188.5 -77q71 0 128 140z" />
    <glyph glyph-name="itilde" unicode="&#x129;" horiz-adv-x="464" 
d="M310 0h-155v923h155v-923zM558 1395q-72 -227 -171 -227q-49 0 -154.5 74t-115.5 74q-54 0 -88 -130l-91 80q18 60 60 120q53 75 101 75t153 -77t129 -77q47 0 89 140z" />
    <glyph glyph-name="Imacron" unicode="&#x12a;" horiz-adv-x="748" 
d="M624 0h-515v123h175v1097h-175v123h515v-123h-176v-1097h176v-123zM674 1606h-612v127h612v-127z" />
    <glyph glyph-name="imacron" unicode="&#x12b;" horiz-adv-x="464" 
d="M310 0h-155v923h155v-923zM478 1200h-486v127h486v-127z" />
    <glyph glyph-name="Ibreve" unicode="&#x12c;" horiz-adv-x="748" 
d="M624 0h-515v123h175v1097h-175v123h515v-123h-176v-1097h176v-123zM683 1827q-8 -141 -88 -226q-84 -90 -223 -90q-140 0 -224 89q-79 85 -87 227h137q19 -208 174 -208q152 0 174 208h137z" />
    <glyph glyph-name="ibreve" unicode="&#x12d;" horiz-adv-x="464" 
d="M310 0h-155v923h155v-923zM490 1462q-15 -306 -252 -306t-252 306h127q16 -198 125 -198t125 198h127z" />
    <glyph glyph-name="Iogonek" unicode="&#x12e;" horiz-adv-x="748" 
d="M624 0h-515v123h175v1097h-175v123h515v-123h-176v-1097h176v-123zM745 -323q-80 -22 -140 -22q-117 0 -185.5 66t-68.5 183q0 36 16 104h128q-10 -44 -10 -96q0 -133 143 -133q49 0 110 29h7v-131z" />
    <glyph glyph-name="iogonek" unicode="&#x12f;" horiz-adv-x="464" 
d="M320 1078h-175v161h175v-161zM481 -327q-63 -18 -125 -18q-113 0 -176 67t-63 181q0 49 16 98l22 67v855h155v-923h-50q-10 -47 -10 -88q0 -133 127 -133q54 0 96 24h8v-130z" />
    <glyph glyph-name="Idotaccent" unicode="&#x130;" horiz-adv-x="748" 
d="M624 0h-515v123h175v1097h-175v123h515v-123h-176v-1097h176v-123zM469 1606q0 -42 -29.5 -71.5t-71.5 -29.5t-71.5 29.5t-29.5 71.5t29.5 71.5t71.5 29.5t71.5 -29.5t29.5 -71.5z" />
    <glyph glyph-name="dotlessi" unicode="&#x131;" horiz-adv-x="464" 
d="M310 0h-155v923h155v-923z" />
    <glyph glyph-name="Jcircumflex" unicode="&#x134;" horiz-adv-x="809" 
d="M643 346q0 -177 -108 -273q-103 -92 -282 -92q-112 0 -228 25v155h1q117 -40 203 -40q160 0 211 77q39 59 39 216v800h-284v129h448v-997zM790 1556l-69 -81l-276 205l-276 -205l-69 81l325 301h40z" />
    <glyph glyph-name="jcircumflex" unicode="&#x135;" horiz-adv-x="583" 
d="M431 -22q0 -151 -76 -237q-80 -91 -229 -91q-92 0 -177 24v148h8q82 -33 139 -33q114 0 150 66q29 53 29 194v743h-192v131h348v-945zM584 1194l-82 -74l-214 207l-214 -207l-82 74l263 308h66z" />
    <glyph glyph-name="Kcedilla" unicode="&#x136;" horiz-adv-x="1240" 
d="M1221 0h-212l-534 608l-142 -152v-456h-163v1343h163v-720l663 720h196l-592 -631zM799 -426q0 -105 -79 -163q-71 -53 -179 -53h-36v71q176 -1 176 112q0 136 -184 126v133h33q112 0 186 -56q83 -62 83 -170z" />
    <glyph glyph-name="kcedilla" unicode="&#x137;" horiz-adv-x="1001" 
d="M991 0h-205l-370 404l-101 -96v-308h-156v1396h156v-935l449 462h195l-429 -426zM699 -426q0 -105 -79 -163q-71 -53 -179 -53h-36v71q176 -1 176 112q0 136 -184 126v133h33q112 0 186 -56q83 -62 83 -170z" />
    <glyph glyph-name="kgreenlandic" unicode="&#x138;" horiz-adv-x="1001" 
d="M991 0h-205l-370 404l-101 -96v-308h-156v923h156v-462l449 462h195l-429 -426z" />
    <glyph glyph-name="Lacute" unicode="&#x139;" horiz-adv-x="993" 
d="M1000 0h-835v1343h164v-1198h671v-145zM767 1814l-264 -371l-94 59l228 394z" />
    <glyph glyph-name="lacute" unicode="&#x13a;" horiz-adv-x="464" 
d="M310 0h-155v1396h155v-1396zM447 1814l-264 -371l-94 59l228 394z" />
    <glyph glyph-name="Lcedilla" unicode="&#x13b;" horiz-adv-x="993" 
d="M1000 0h-835v1343h164v-1198h671v-145zM759 -426q0 -105 -79 -163q-71 -53 -179 -53h-36v71q176 -1 176 112q0 136 -184 126v133h33q112 0 186 -56q83 -62 83 -170z" />
    <glyph glyph-name="lcedilla" unicode="&#x13c;" horiz-adv-x="464" 
d="M310 0h-155v1396h155v-1396zM399 -426q0 -105 -79 -163q-71 -53 -179 -53h-36v71q176 -1 176 112q0 136 -184 126v133h33q112 0 186 -56q83 -62 83 -170z" />
    <glyph glyph-name="Lcaron" unicode="&#x13d;" horiz-adv-x="993" 
d="M1000 0h-835v1343h164v-1198h671v-145zM1039 1339q0 -105 -79 -163q-71 -53 -179 -53h-36v71q176 -1 176 112q0 136 -184 126v133h33q112 0 186 -56q83 -62 83 -170z" />
    <glyph glyph-name="lcaron" unicode="&#x13e;" horiz-adv-x="709" 
d="M310 0h-155v1396h155v-1396zM759 1339q0 -105 -79 -163q-71 -53 -179 -53h-36v71q176 -1 176 112q0 136 -184 126v133h33q112 0 186 -56q83 -62 83 -170z" />
    <glyph glyph-name="Ldot" unicode="&#x13f;" horiz-adv-x="993" 
d="M867 472h-198v234h198v-234zM1000 0h-835v1343h164v-1198h671v-145z" />
    <glyph glyph-name="ldot" unicode="&#x140;" horiz-adv-x="776" 
d="M719 472h-198v234h198v-234zM310 0h-155v1396h155v-1396z" />
    <glyph glyph-name="Lslash" unicode="&#x141;" horiz-adv-x="1002" 
d="M1009 0h-835v496l-167 -138v129l167 136v720h164v-599l315 258v-129l-315 -256v-472h671v-145z" />
    <glyph glyph-name="lslash" unicode="&#x142;" horiz-adv-x="481" 
d="M468 785l-150 -119v-666h-155v552l-143 -116v131l143 114v715h155v-601l150 122v-132z" />
    <glyph glyph-name="Nacute" unicode="&#x143;" horiz-adv-x="1340" 
d="M1175 0h-209l-649 1197v-1197h-152v1343h245l613 -1132v1132h152v-1343zM877 1814l-264 -371l-94 59l228 394z" />
    <glyph glyph-name="nacute" unicode="&#x144;" horiz-adv-x="1071" 
d="M925 0h-156v526q0 150 -34 206q-42 69 -161 69q-120 0 -266 -112v-689h-155v923h155v-102q155 128 310 128q307 0 307 -350v-599zM757 1459l-264 -371l-94 59l228 394z" />
    <glyph glyph-name="Ncedilla" unicode="&#x145;" horiz-adv-x="1340" 
d="M1175 0h-209l-649 1197v-1197h-152v1343h245l613 -1132v1132h152v-1343zM839 -426q0 -105 -79 -163q-71 -53 -179 -53h-36v71q176 -1 176 112q0 136 -184 126v133h33q112 0 186 -56q83 -62 83 -170z" />
    <glyph glyph-name="ncedilla" unicode="&#x146;" horiz-adv-x="1071" 
d="M925 0h-156v526q0 150 -34 206q-42 69 -161 69q-120 0 -266 -112v-689h-155v923h155v-102q155 128 310 128q307 0 307 -350v-599zM709 -426q0 -105 -79 -163q-71 -53 -179 -53h-36v71q176 -1 176 112q0 136 -184 126v133h33q112 0 186 -56q83 -62 83 -170z" />
    <glyph glyph-name="Ncaron" unicode="&#x147;" horiz-adv-x="1340" 
d="M1175 0h-209l-649 1197v-1197h-152v1343h245l613 -1132v1132h152v-1343zM1023 1776l-325 -301h-40l-325 301l69 81l276 -205l276 205z" />
    <glyph glyph-name="ncaron" unicode="&#x148;" horiz-adv-x="1071" 
d="M925 0h-156v526q0 150 -34 206q-42 69 -161 69q-120 0 -266 -112v-689h-155v923h155v-102q155 128 310 128q307 0 307 -350v-599zM834 1444l-263 -308h-66l-263 308l82 74l214 -207l214 207z" />
    <glyph glyph-name="napostrophe" unicode="&#x149;" horiz-adv-x="1314" 
d="M1168 0h-156v526q0 150 -34 206q-42 69 -161 69q-120 0 -266 -112v-689h-155v923h155v-102q155 128 310 128q307 0 307 -350v-599zM382 1239q0 -105 -79 -163q-71 -53 -179 -53h-36v71q176 -1 176 112q0 136 -184 126v133h33q112 0 186 -56q83 -62 83 -170z" />
    <glyph glyph-name="Eng" unicode="&#x14a;" horiz-adv-x="1340" 
d="M1175 -25q0 -166 -87 -260q-89 -97 -254 -97q-60 0 -134 12v139h2q60 -14 100 -14q213 0 221 176q1 23 1 58l-707 1247v-1233h-152v1340h265l593 -1040v1040h152v-1368z" />
    <glyph glyph-name="eng" unicode="&#x14b;" horiz-adv-x="1071" 
d="M925 -23q0 -153 -83 -240t-235 -87q-60 0 -128 11v139h9q55 -12 90 -12q125 0 162 62q29 48 29 190v486q0 150 -34 206q-42 69 -161 69q-120 0 -266 -112v-689h-155v923h155v-102q155 128 310 128q307 0 307 -350v-622z" />
    <glyph glyph-name="Omacron" unicode="&#x14c;" horiz-adv-x="1411" 
d="M1321 671q0 -311 -150 -497q-164 -202 -467 -202q-139 0 -254 47q-231 95 -318 355q-43 129 -43 297q0 312 149 498q163 202 466 202q144 0 257 -47q360 -150 360 -653zM1150 671q0 241 -99 387q-116 172 -346 172t-346 -171q-99 -146 -99 -388q0 -240 99 -387
q117 -171 346 -171t346 171q99 147 99 387zM1046 1606h-676v127h676v-127z" />
    <glyph glyph-name="omacron" unicode="&#x14d;" horiz-adv-x="1027" 
d="M940 461q0 -213 -104 -344q-114 -143 -322 -143q-209 0 -322 143q-104 130 -104 344t104 345q113 143 322 143q207 0 321 -144q105 -132 105 -344zM779 461q0 354 -265 354q-266 0 -266 -354q0 -353 266 -353q265 0 265 353zM824 1200h-612v127h612v-127z" />
    <glyph glyph-name="Obreve" unicode="&#x14e;" horiz-adv-x="1411" 
d="M1321 671q0 -311 -150 -497q-164 -202 -467 -202q-139 0 -254 47q-231 95 -318 355q-43 129 -43 297q0 312 149 498q163 202 466 202q144 0 257 -47q360 -150 360 -653zM1150 671q0 241 -99 387q-116 172 -346 172t-346 -171q-99 -146 -99 -388q0 -240 99 -387
q117 -171 346 -171t346 171q99 147 99 387zM1009 1827q-8 -141 -88 -226q-84 -90 -223 -90q-140 0 -224 89q-79 85 -87 227h137q19 -208 174 -208q152 0 174 208h137z" />
    <glyph glyph-name="obreve" unicode="&#x14f;" horiz-adv-x="1027" 
d="M940 461q0 -213 -104 -344q-114 -143 -322 -143q-209 0 -322 143q-104 130 -104 344t104 345q113 143 322 143q207 0 321 -144q105 -132 105 -344zM779 461q0 354 -265 354q-266 0 -266 -354q0 -353 266 -353q265 0 265 353zM818 1462q-10 -138 -90 -220
q-84 -86 -220 -86q-137 0 -220 86q-80 81 -90 220h137q22 -198 173 -198q148 0 173 198h137z" />
    <glyph glyph-name="Odblacute" unicode="&#x150;" horiz-adv-x="1411" 
d="M1321 671q0 -311 -150 -497q-164 -202 -467 -202q-139 0 -254 47q-231 95 -318 355q-43 129 -43 297q0 312 149 498q163 202 466 202q144 0 257 -47q360 -150 360 -653zM1150 671q0 241 -99 387q-116 172 -346 172t-346 -171q-99 -146 -99 -388q0 -240 99 -387
q117 -171 346 -171t346 171q99 147 99 387zM1097 1814l-264 -371l-94 59l228 394zM757 1814l-264 -371l-94 59l228 394z" />
    <glyph glyph-name="odblacute" unicode="&#x151;" horiz-adv-x="1027" 
d="M940 461q0 -213 -104 -344q-114 -143 -322 -143q-209 0 -322 143q-104 130 -104 344t104 345q113 143 322 143q207 0 321 -144q105 -132 105 -344zM779 461q0 354 -265 354q-266 0 -266 -354q0 -353 266 -353q265 0 265 353zM897 1459l-264 -371l-94 59l228 394z
M557 1459l-264 -371l-94 59l228 394z" />
    <glyph glyph-name="Racute" unicode="&#x154;" horiz-adv-x="1244" 
d="M1253 0h-212l-449 540h-263v-540h-164v1343h369q120 0 202 -16q176 -34 255 -170q40 -69 40 -176q0 -281 -280 -392zM859 968q0 125 -91 186q-73 49 -221 49h-218v-528h188q342 0 342 293zM767 1814l-264 -371l-94 59l228 394z" />
    <glyph glyph-name="racute" unicode="&#x155;" horiz-adv-x="722" 
d="M729 754h-8q-66 15 -145 15q-128 0 -268 -114v-655h-155v923h155v-136q170 136 308 136q50 0 113 -10v-159zM637 1459l-264 -371l-94 59l228 394z" />
    <glyph glyph-name="Rcedilla" unicode="&#x156;" horiz-adv-x="1244" 
d="M1253 0h-212l-449 540h-263v-540h-164v1343h369q120 0 202 -16q176 -34 255 -170q40 -69 40 -176q0 -281 -280 -392zM859 968q0 125 -91 186q-73 49 -221 49h-218v-528h188q342 0 342 293zM769 -426q0 -105 -79 -163q-71 -53 -179 -53h-36v71q176 -1 176 112
q0 136 -184 126v133h33q112 0 186 -56q83 -62 83 -170z" />
    <glyph glyph-name="rcedilla" unicode="&#x157;" horiz-adv-x="722" 
d="M729 754h-8q-66 15 -145 15q-128 0 -268 -114v-655h-155v923h155v-136q170 136 308 136q50 0 113 -10v-159zM449 -426q0 -105 -79 -163q-71 -53 -179 -53h-36v71q176 -1 176 112q0 136 -184 126v133h33q112 0 186 -56q83 -62 83 -170z" />
    <glyph glyph-name="Rcaron" unicode="&#x158;" horiz-adv-x="1244" 
d="M1253 0h-212l-449 540h-263v-540h-164v1343h369q120 0 202 -16q176 -34 255 -170q40 -69 40 -176q0 -281 -280 -392zM859 968q0 125 -91 186q-73 49 -221 49h-218v-528h188q342 0 342 293zM913 1776l-325 -301h-40l-325 301l69 81l276 -205l276 205z" />
    <glyph glyph-name="rcaron" unicode="&#x159;" horiz-adv-x="722" 
d="M729 754h-8q-66 15 -145 15q-128 0 -268 -114v-655h-155v923h155v-136q170 136 308 136q50 0 113 -10v-159zM724 1444l-263 -308h-66l-263 308l82 74l214 -207l214 207z" />
    <glyph glyph-name="Sacute" unicode="&#x15a;" horiz-adv-x="1223" 
d="M1126 380q0 -199 -173 -309q-148 -95 -358 -95q-251 0 -489 106v213h2q214 -179 489 -179q140 0 236 49q122 62 122 190q0 91 -46.5 139t-135.5 68q-87 16 -314 60q-345 71 -345 365q0 185 162 290q139 90 335 90q249 0 461 -92v-201h-2q-180 153 -460 153
q-124 0 -214 -49q-111 -60 -111 -174q0 -173 201 -215q97 -16 345 -68q295 -71 295 -341zM777 1814l-264 -371l-94 59l228 394z" />
    <glyph glyph-name="sacute" unicode="&#x15b;" horiz-adv-x="882" 
d="M812 266q0 -145 -128 -223q-107 -65 -262 -65q-176 0 -331 77v175h8q160 -121 336 -121q219 0 219 137q0 63 -47 94q-34 22 -105 37q-52 9 -184 39q-223 56 -223 248q0 117 95 197q99 84 278 84q173 0 308 -69v-166h-8q-142 104 -312 104q-202 0 -202 -130
q0 -100 148 -133q51 -10 185 -38q225 -50 225 -247zM637 1459l-264 -371l-94 59l228 394z" />
    <glyph glyph-name="Scircumflex" unicode="&#x15c;" horiz-adv-x="1223" 
d="M1126 380q0 -199 -173 -309q-148 -95 -358 -95q-251 0 -489 106v213h2q214 -179 489 -179q140 0 236 49q122 62 122 190q0 91 -46.5 139t-135.5 68q-87 16 -314 60q-345 71 -345 365q0 185 162 290q139 90 335 90q249 0 461 -92v-201h-2q-180 153 -460 153
q-124 0 -214 -49q-111 -60 -111 -174q0 -173 201 -215q97 -16 345 -68q295 -71 295 -341zM950 1556l-69 -81l-276 205l-276 -205l-69 81l325 301h40z" />
    <glyph glyph-name="scircumflex" unicode="&#x15d;" horiz-adv-x="882" 
d="M812 266q0 -145 -128 -223q-107 -65 -262 -65q-176 0 -331 77v175h8q160 -121 336 -121q219 0 219 137q0 63 -47 94q-34 22 -105 37q-52 9 -184 39q-223 56 -223 248q0 117 95 197q99 84 278 84q173 0 308 -69v-166h-8q-142 104 -312 104q-202 0 -202 -130
q0 -100 148 -133q51 -10 185 -38q225 -50 225 -247zM744 1194l-82 -74l-214 207l-214 -207l-82 74l263 308h66z" />
    <glyph glyph-name="Scedilla" unicode="&#x15e;" horiz-adv-x="1223" 
d="M1126 380q0 -199 -173 -309q-148 -95 -358 -95q-251 0 -489 106v213h2q214 -179 489 -179q140 0 236 49q122 62 122 190q0 91 -46.5 139t-135.5 68q-87 16 -314 60q-345 71 -345 365q0 185 162 290q139 90 335 90q249 0 461 -92v-201h-2q-180 153 -460 153
q-124 0 -214 -49q-111 -60 -111 -174q0 -173 201 -215q97 -16 345 -68q295 -71 295 -341zM786 -74q0 -128 -72.5 -202t-200.5 -74q-83 0 -163 22v132h7q77 -30 136 -30q168 0 168 138q0 43 -8 105h127q6 -60 6 -91z" />
    <glyph glyph-name="scedilla" unicode="&#x15f;" horiz-adv-x="882" 
d="M812 266q0 -183 -196 -258q5 -59 5 -82q0 -128 -72 -202t-199 -74q-84 0 -164 22v132h7q78 -30 136 -30q167 0 167 138q0 38 -4 69q-35 -3 -70 -3q-176 0 -331 77v175h8q160 -121 336 -121q219 0 219 137q0 63 -47 94q-34 22 -105 37q-52 9 -184 39q-223 56 -223 248
q0 117 95 197q99 84 278 84q173 0 308 -69v-166h-8q-142 104 -312 104q-202 0 -202 -130q0 -100 148 -133q51 -10 185 -38q225 -50 225 -247z" />
    <glyph glyph-name="Scaron" unicode="&#x160;" horiz-adv-x="1223" 
d="M1126 380q0 -199 -173 -309q-148 -95 -358 -95q-251 0 -489 106v213h2q214 -179 489 -179q140 0 236 49q122 62 122 190q0 91 -46.5 139t-135.5 68q-87 16 -314 60q-345 71 -345 365q0 185 162 290q139 90 335 90q249 0 461 -92v-201h-2q-180 153 -460 153
q-124 0 -214 -49q-111 -60 -111 -174q0 -173 201 -215q97 -16 345 -68q295 -71 295 -341zM963 1776l-325 -301h-40l-325 301l69 81l276 -205l276 205z" />
    <glyph glyph-name="scaron" unicode="&#x161;" horiz-adv-x="882" 
d="M812 266q0 -145 -128 -223q-107 -65 -262 -65q-176 0 -331 77v175h8q160 -121 336 -121q219 0 219 137q0 63 -47 94q-34 22 -105 37q-52 9 -184 39q-223 56 -223 248q0 117 95 197q99 84 278 84q173 0 308 -69v-166h-8q-142 104 -312 104q-202 0 -202 -130
q0 -100 148 -133q51 -10 185 -38q225 -50 225 -247zM744 1444l-263 -308h-66l-263 308l82 74l214 -207l214 207z" />
    <glyph glyph-name="Tcedilla" unicode="&#x162;" horiz-adv-x="1101" 
d="M1108 1198h-480v-1198h-163v1198h-480v145h1123v-145zM632 -74q0 -128 -72.5 -202t-200.5 -74q-83 0 -163 22v132h7q77 -30 136 -30q168 0 168 138q0 43 -8 105h127q6 -60 6 -91z" />
    <glyph glyph-name="tcedilla" unicode="&#x163;" horiz-adv-x="667" 
d="M632 8l-21 -5q-14 -3 -25 -5q5 -45 5 -72q0 -128 -72.5 -202t-199.5 -74q-83 0 -164 22v132h8q77 -30 135 -30q167 0 167 138q0 38 -4 71h-16q-289 0 -289 319v490h-105v131h105v265h156v-265h320v-131h-320v-420q0 -143 26 -190q35 -64 147 -64q66 0 139 30h8v-140z" />
    <glyph glyph-name="Tcaron" unicode="&#x164;" horiz-adv-x="1101" 
d="M1108 1198h-480v-1198h-163v1198h-480v145h1123v-145zM893 1776l-325 -301h-40l-325 301l69 81l276 -205l276 205z" />
    <glyph glyph-name="tcaron" unicode="&#x165;" horiz-adv-x="921" 
d="M632 8q-100 -26 -187 -26q-289 0 -289 320v490h-105v131h105v265h156v-265h320v-131h-320v-420q0 -143 26 -190q35 -64 147 -64q66 0 139 30h8v-140zM971 1339q0 -105 -79 -163q-71 -53 -179 -53h-36v71q176 -1 176 112q0 136 -184 126v133h33q112 0 186 -56
q83 -62 83 -170z" />
    <glyph glyph-name="Tbar" unicode="&#x166;" horiz-adv-x="1101" 
d="M1108 1198h-480v-408h300v-115h-300v-675h-163v675h-300v115h300v408h-480v145h1123v-145z" />
    <glyph glyph-name="tbar" unicode="&#x167;" horiz-adv-x="667" 
d="M632 8q-100 -26 -187 -26q-289 0 -289 320v138h-105v111h105v241h-105v131h105v265h156v-265h320v-131h-320v-241h248v-111h-248v-68q0 -143 26 -190q35 -64 147 -64q66 0 139 30h8v-140z" />
    <glyph glyph-name="Utilde" unicode="&#x168;" horiz-adv-x="1311" 
d="M1161 538q0 -566 -508 -566q-507 0 -507 566v805h163v-814q0 -199 70 -299q82 -118 274 -118q345 0 345 412v819h163v-805zM1047 1750q-96 -227 -228 -227q-64 0 -203.5 74t-171.5 74q-59 0 -104 -130l-91 80q27 70 73 125q59 70 118 70q62 0 202.5 -77t188.5 -77
q71 0 128 140z" />
    <glyph glyph-name="utilde" unicode="&#x169;" horiz-adv-x="1071" 
d="M918 0h-155v102q-163 -128 -309 -128q-308 0 -308 350v599h156v-526q0 -149 34 -205q42 -70 161 -70q124 0 266 112v689h155v-923zM903 1395q-82 -227 -208 -227q-54 0 -175 74t-147 74q-51 0 -90 -130l-91 80q21 64 67 122q57 73 110 73t174 -77t162 -77q61 0 110 140z
" />
    <glyph glyph-name="Umacron" unicode="&#x16a;" horiz-adv-x="1311" 
d="M1161 538q0 -566 -508 -566q-507 0 -507 566v805h163v-814q0 -199 70 -299q82 -118 274 -118q345 0 345 412v819h163v-805zM996 1606h-676v127h676v-127z" />
    <glyph glyph-name="umacron" unicode="&#x16b;" horiz-adv-x="1071" 
d="M918 0h-155v102q-163 -128 -309 -128q-308 0 -308 350v599h156v-526q0 -149 34 -205q42 -70 161 -70q124 0 266 112v689h155v-923zM834 1200h-612v127h612v-127z" />
    <glyph glyph-name="Ubreve" unicode="&#x16c;" horiz-adv-x="1311" 
d="M1161 538q0 -566 -508 -566q-507 0 -507 566v805h163v-814q0 -199 70 -299q82 -118 274 -118q345 0 345 412v819h163v-805zM959 1827q-8 -141 -88 -226q-84 -90 -223 -90q-140 0 -224 89q-79 85 -87 227h137q19 -208 174 -208q152 0 174 208h137z" />
    <glyph glyph-name="ubreve" unicode="&#x16d;" horiz-adv-x="1071" 
d="M918 0h-155v102q-163 -128 -309 -128q-308 0 -308 350v599h156v-526q0 -149 34 -205q42 -70 161 -70q124 0 266 112v689h155v-923zM838 1462q-10 -138 -90 -220q-84 -86 -220 -86q-137 0 -220 86q-80 81 -90 220h137q22 -198 173 -198q148 0 173 198h137z" />
    <glyph glyph-name="Uring" unicode="&#x16e;" horiz-adv-x="1311" 
d="M1161 538q0 -566 -508 -566q-507 0 -507 566v805h163v-814q0 -199 70 -299q82 -118 274 -118q345 0 345 412v819h163v-805zM863 1671q0 -94 -65.5 -159.5t-159.5 -65.5t-159.5 65.5t-65.5 159.5t65.5 159.5t159.5 65.5t159.5 -65.5t65.5 -159.5zM753 1671q0 47 -34 81
t-81 34t-81 -34t-34 -81t34 -81t81 -34t81 34t34 81z" />
    <glyph glyph-name="uring" unicode="&#x16f;" horiz-adv-x="1071" 
d="M918 0h-155v102q-163 -128 -309 -128q-308 0 -308 350v599h156v-526q0 -149 34 -205q42 -70 161 -70q124 0 266 112v689h155v-923zM763 1316q0 -94 -65.5 -159.5t-159.5 -65.5t-159.5 65.5t-65.5 159.5t65.5 159.5t159.5 65.5t159.5 -65.5t65.5 -159.5zM653 1316
q0 47 -34 81t-81 34t-81 -34t-34 -81t34 -81t81 -34t81 34t34 81z" />
    <glyph glyph-name="Udblacute" unicode="&#x170;" horiz-adv-x="1311" 
d="M1161 538q0 -566 -508 -566q-507 0 -507 566v805h163v-814q0 -199 70 -299q82 -118 274 -118q345 0 345 412v819h163v-805zM1067 1814l-264 -371l-94 59l228 394zM727 1814l-264 -371l-94 59l228 394z" />
    <glyph glyph-name="udblacute" unicode="&#x171;" horiz-adv-x="1071" 
d="M918 0h-155v102q-163 -128 -309 -128q-308 0 -308 350v599h156v-526q0 -149 34 -205q42 -70 161 -70q124 0 266 112v689h155v-923zM907 1459l-264 -371l-94 59l228 394zM567 1459l-264 -371l-94 59l228 394z" />
    <glyph glyph-name="Uogonek" unicode="&#x172;" horiz-adv-x="1311" 
d="M1161 538q0 -566 -508 -566q-507 0 -507 566v805h163v-814q0 -199 70 -299q82 -118 274 -118q345 0 345 412v819h163v-805zM1122 -323q-80 -22 -140 -22q-117 0 -185.5 66t-68.5 183q0 36 16 104h128q-10 -44 -10 -96q0 -133 143 -133q49 0 110 29h7v-131z" />
    <glyph glyph-name="uogonek" unicode="&#x173;" horiz-adv-x="1067" 
d="M1143 -323q-80 -22 -140 -22q-117 0 -185.5 66t-68.5 183q0 33 4 51l10 45v102q-163 -128 -309 -128q-308 0 -308 350v599h156v-526q0 -149 34 -205q42 -70 161 -70q124 0 266 112v689h155v-923h-25q-11 -48 -11 -88q0 -133 143 -133q50 0 111 29h7v-131z" />
    <glyph glyph-name="Wcircumflex" unicode="&#x174;" horiz-adv-x="1776" 
d="M1711 1343l-345 -1343h-189l-289 1151l-281 -1151h-185l-352 1343h168l288 -1153l284 1153h169l286 -1164l287 1164h159zM1240 1556l-69 -81l-276 205l-276 -205l-69 81l325 301h40z" />
    <glyph glyph-name="wcircumflex" unicode="&#x175;" horiz-adv-x="1385" 
d="M1314 923l-241 -923h-143l-238 711l-235 -711h-143l-243 923h162l169 -715l231 715h128l236 -715l161 715h156zM994 1194l-82 -74l-214 207l-214 -207l-82 74l263 308h66z" />
    <glyph glyph-name="Ycircumflex" unicode="&#x176;" horiz-adv-x="1099" 
d="M1095 1343l-467 -753v-590h-163v571l-469 772h180l371 -614l375 614h173zM900 1556l-69 -81l-276 205l-276 -205l-69 81l325 301h40z" />
    <glyph glyph-name="ycircumflex" unicode="&#x177;" horiz-adv-x="1001" 
d="M951 923l-539 -1263h-166l172 385l-368 878h169l283 -684l286 684h163zM804 1194l-82 -74l-214 207l-214 -207l-82 74l263 308h66z" />
    <glyph glyph-name="Ydieresis" unicode="&#x178;" horiz-adv-x="1099" 
d="M1095 1343l-467 -753v-590h-163v571l-469 772h180l371 -614l375 614h173zM876 1606q0 -42 -29.5 -71.5t-71.5 -29.5t-71.5 29.5t-29.5 71.5t29.5 71.5t71.5 29.5t71.5 -29.5t29.5 -71.5zM422 1606q0 -42 -29.5 -71.5t-71.5 -29.5t-71.5 29.5t-29.5 71.5t29.5 71.5
t71.5 29.5t71.5 -29.5t29.5 -71.5z" />
    <glyph glyph-name="Zacute" unicode="&#x179;" horiz-adv-x="1226" 
d="M1132 0h-1033v158l831 1040h-801v145h983v-153l-840 -1045h860v-145zM787 1814l-264 -371l-94 59l228 394z" />
    <glyph glyph-name="zacute" unicode="&#x17a;" horiz-adv-x="889" 
d="M822 0h-745v115l538 678h-527v130h720v-111l-540 -681h554v-131zM657 1459l-264 -371l-94 59l228 394z" />
    <glyph glyph-name="Zdot" unicode="&#x17b;" horiz-adv-x="1226" 
d="M1132 0h-1033v158l831 1040h-801v145h983v-153l-840 -1045h860v-145zM699 1606q0 -42 -29.5 -71.5t-71.5 -29.5t-71.5 29.5t-29.5 71.5t29.5 71.5t71.5 29.5t71.5 -29.5t29.5 -71.5z" />
    <glyph glyph-name="zdot" unicode="&#x17c;" horiz-adv-x="889" 
d="M822 0h-745v115l538 678h-527v130h720v-111l-540 -681h554v-131zM549 1251q0 -42 -29.5 -71.5t-71.5 -29.5t-71.5 29.5t-29.5 71.5t29.5 71.5t71.5 29.5t71.5 -29.5t29.5 -71.5z" />
    <glyph glyph-name="Zcaron" unicode="&#x17d;" horiz-adv-x="1226" 
d="M1132 0h-1033v158l831 1040h-801v145h983v-153l-840 -1045h860v-145zM963 1776l-325 -301h-40l-325 301l69 81l276 -205l276 205z" />
    <glyph glyph-name="zcaron" unicode="&#x17e;" horiz-adv-x="889" 
d="M822 0h-745v115l538 678h-527v130h720v-111l-540 -681h554v-131zM754 1444l-263 -308h-66l-263 308l82 74l214 -207l214 207z" />
    <glyph glyph-name="longs" unicode="&#x17f;" horiz-adv-x="683" 
d="M736 1243h-8q-90 26 -177 26q-133 0 -187 -65q-48 -59 -48 -195v-1009h-155v976q0 202 98 312q103 116 303 116q77 0 174 -19v-142z" />
    <glyph glyph-name="Eturn" unicode="&#x18e;" horiz-adv-x="1130" 
d="M971 0h-870v145h706v388h-706v145h706v520h-706v145h870v-1343z" />
    <glyph glyph-name="Schwa" unicode="&#x18f;" horiz-adv-x="1411" 
d="M1321 671q0 -311 -150 -497q-163 -202 -467 -202t-466 203q-149 185 -149 496q0 53 4 99h1053q-19 205 -125 326q-117 134 -316 134q-232 0 -364 -142l-121 96q180 187 484 187t467 -203q150 -186 150 -497zM1149 625h-889q9 -224 112 -359q118 -153 333 -153
q216 0 332 153q103 134 112 359z" />
    <glyph glyph-name="florin" unicode="&#x192;" horiz-adv-x="1076" 
d="M1058 1092h-9q-86 29 -152 29q-110 0 -164 -63q-44 -51 -69 -167l-34 -161h265v-114h-288l-86 -404q-45 -213 -152 -300q-96 -78 -256 -78q-66 0 -143 13v149h9q66 -28 141 -28q114 0 170 67q44 52 70 177l85 404h-179v114h203l34 164q75 361 399 361q59 0 156 -15v-148z
" />
    <glyph glyph-name="Ohorn" unicode="&#x1a0;" horiz-adv-x="1439" 
d="M1481 1226q0 -194 -214 -227q54 -153 54 -328q0 -311 -150 -497q-164 -202 -467 -202q-139 0 -254 47q-231 95 -318 355q-43 129 -43 297q0 312 149 498q163 202 466 202q287 0 450 -182q32 -35 63 -87q143 7 143 132q0 75 -30 137h131q20 -74 20 -145zM1150 671
q0 241 -99 387q-116 172 -346 172t-346 -171q-99 -146 -99 -388q0 -240 99 -387q117 -171 346 -171t346 171q99 147 99 387z" />
    <glyph glyph-name="ohorn" unicode="&#x1a1;" horiz-adv-x="1027" 
d="M1007 1029q0 -176 -184 -210q117 -130 117 -358q0 -213 -104 -344q-114 -143 -322 -143q-209 0 -322 143q-104 130 -104 344t104 345q113 143 322 143q88 0 157 -26h77q135 0 135 112q0 70 -28 124v8h132q20 -72 20 -138zM779 461q0 354 -265 354q-266 0 -266 -354
q0 -353 266 -353q265 0 265 353z" />
    <glyph glyph-name="Uhorn" unicode="&#x1af;" horiz-adv-x="1348" 
d="M1461 1465q0 -232 -300 -232v-696q0 -565 -508 -565q-507 0 -507 565v804h163v-813q0 -200 69 -299q83 -117 275 -117q191 0 274 115q71 99 71 296v818h187q156 0 156 131q0 75 -30 137h130q20 -74 20 -144z" />
    <glyph glyph-name="uhorn" unicode="&#x1b0;" horiz-adv-x="1116" 
d="M1194 1029q0 -218 -274 -218h-2v-811h-155v102q-163 -128 -309 -128q-308 0 -308 350v599h156v-526q0 -149 34 -205q42 -70 161 -70q124 0 266 112v689h172q135 0 135 112q0 70 -28 124v8h132q20 -72 20 -138z" />
    <glyph glyph-name="Ezh" unicode="&#x1b7;" horiz-adv-x="1063" 
d="M973 153q0 -237 -136 -388q-141 -157 -375 -157q-219 0 -398 76v174h2q172 -114 393 -114q171 0 266 128q86 114 86 291q0 171 -93 275q-97 109 -266 109h-86v129l414 522h-671v145h864v-151l-382 -496v-24q187 -23 290 -181q92 -140 92 -338z" />
    <glyph glyph-name="eturn" unicode="&#x1dd;" horiz-adv-x="1008" 
d="M925 471q0 -217 -114 -350q-120 -142 -334 -142q-194 0 -294 114q-95 108 -95 304v85h680q0 156 -86.5 243.5t-241.5 87.5q-78 0 -172 -31q-100 -32 -154 -80h-8v169q184 78 332 78q230 0 358 -123q129 -126 129 -355zM768 363h-529q2 -256 246 -256q118 0 195 69t88 187
z" />
    <glyph glyph-name="Aringacute" unicode="&#x1fa;" horiz-adv-x="1223" 
d="M1206 0h-174l-132 379h-591l-132 -379h-165l483 1343h228zM850 518l-246 697l-247 -697h493zM723 1671q0 -94 -65.5 -159.5t-159.5 -65.5t-159.5 65.5t-65.5 159.5t65.5 159.5t159.5 65.5t159.5 -65.5t65.5 -159.5zM613 1671q0 47 -34 81t-81 34t-81 -34t-34 -81t34 -81
t81 -34t81 34t34 81zM1047 1814l-264 -371l-94 59l228 394z" />
    <glyph glyph-name="aringacute" unicode="&#x1fb;" horiz-adv-x="1016" 
d="M870 0h-154v98q-40 -29 -124 -79q-95 -45 -208 -45q-128 0 -213 83t-85 211q0 196 173 272q120 53 457 70v24q0 104 -77 145q-56 29 -171 29q-127 0 -292 -63h-8v158q154 42 301 42q401 0 401 -319v-626zM716 227v257q-68 -4 -162 -10q-98 -9 -158 -26
q-150 -42 -150 -170q0 -159 194 -159q135 0 276 108zM563 1316q0 -94 -65.5 -159.5t-159.5 -65.5t-159.5 65.5t-65.5 159.5t65.5 159.5t159.5 65.5t159.5 -65.5t65.5 -159.5zM453 1316q0 47 -34 81t-81 34t-81 -34t-34 -81t34 -81t81 -34t81 34t34 81zM907 1459l-264 -371
l-94 59l228 394z" />
    <glyph glyph-name="AEacute" unicode="&#x1fc;" horiz-adv-x="1768" 
d="M1685 0h-837v507h-485l-191 -507h-171l530 1343h1154v-145h-676v-388h676v-145h-676v-520h676v-145zM848 644v564h-210l-221 -564h431zM1167 1814l-264 -371l-94 59l228 394z" />
    <glyph glyph-name="aeacute" unicode="&#x1fd;" horiz-adv-x="1616" 
d="M1533 462h-677q0 -348 326 -348q181 0 323 112h10v-170q-173 -77 -331 -77q-269 0 -396 171q-83 -76 -134 -105q-122 -69 -270 -69q-127 0 -211 79q-87 81 -87 207q0 271 372 307q127 12 254 14v51q0 176 -247 176q-126 0 -287 -65h-11v158q160 44 299 44q258 0 353 -152
q129 154 327 154q191 0 292 -116q95 -109 95 -303v-68zM1382 581q-17 240 -244 240q-237 0 -279 -240h523zM739 246q-34 90 -34 215l-158 -5q-91 -6 -155 -22q-146 -37 -146 -160q0 -155 194 -155q168 0 299 127zM1067 1459l-264 -371l-94 59l228 394z" />
    <glyph glyph-name="Oslashacute" unicode="&#x1fe;" horiz-adv-x="1411" 
d="M1321 671q0 -312 -150 -497q-163 -201 -467 -201q-207 0 -358 106l-145 -211h-101l180 261q-191 192 -191 542q0 312 149 498q162 201 466 201q207 0 358 -103l130 186h101l-165 -237q193 -195 193 -545zM1153 671q0 266 -114 415l-609 -885q116 -89 275 -89
q228 0 346 171q102 148 102 388zM977 1142q-108 89 -272 89q-230 0 -347 -171q-101 -147 -101 -389q0 -264 113 -413zM867 1814l-264 -371l-94 59l228 394z" />
    <glyph glyph-name="oslashacute" unicode="&#x1ff;" horiz-adv-x="1027" 
d="M940 461q0 -213 -104 -344q-114 -143 -322 -143q-135 0 -236 67l-110 -163h-91l141 211q-130 134 -130 372q0 214 104 345q113 143 322 143q133 0 234 -66l96 142h91l-128 -190q133 -133 133 -374zM782 461q0 160 -57 250l-371 -554q64 -50 160 -50q142 0 211 111
q57 92 57 243zM672 768q-61 48 -158 48q-269 0 -269 -355q0 -159 57 -247zM687 1459l-264 -371l-94 59l228 394z" />
    <glyph glyph-name="Scommaaccent" unicode="&#x218;" horiz-adv-x="1223" 
d="M1126 380q0 -199 -173 -309q-148 -95 -358 -95q-251 0 -489 106v213h2q214 -179 489 -179q140 0 236 49q122 62 122 190q0 91 -46.5 139t-135.5 68q-87 16 -314 60q-345 71 -345 365q0 185 162 290q139 90 335 90q249 0 461 -92v-201h-2q-180 153 -460 153
q-124 0 -214 -49q-111 -60 -111 -174q0 -173 201 -215q97 -16 345 -68q295 -71 295 -341zM769 -426q0 -105 -79 -163q-71 -53 -179 -53h-36v71q176 -1 176 112q0 136 -184 126v133h33q112 0 186 -56q83 -62 83 -170z" />
    <glyph glyph-name="scommaaccent" unicode="&#x219;" horiz-adv-x="882" 
d="M812 266q0 -145 -128 -223q-107 -65 -262 -65q-176 0 -331 77v175h8q160 -121 336 -121q219 0 219 137q0 63 -47 94q-34 22 -105 37q-52 9 -184 39q-223 56 -223 248q0 117 95 197q99 84 278 84q173 0 308 -69v-166h-8q-142 104 -312 104q-202 0 -202 -130
q0 -100 148 -133q51 -10 185 -38q225 -50 225 -247zM639 -426q0 -105 -79 -163q-71 -53 -179 -53h-36v71q176 -1 176 112q0 136 -184 126v133h33q112 0 186 -56q83 -62 83 -170z" />
    <glyph glyph-name="Tcommaaccent" unicode="&#x21a;" horiz-adv-x="1101" 
d="M1108 1198h-480v-1198h-163v1198h-480v145h1123v-145zM699 -426q0 -105 -79 -163q-71 -53 -179 -53h-36v71q176 -1 176 112q0 136 -184 126v133h33q112 0 186 -56q83 -62 83 -170z" />
    <glyph glyph-name="tcommaaccent" unicode="&#x21b;" horiz-adv-x="667" 
d="M632 8q-100 -26 -187 -26q-289 0 -289 320v490h-105v131h105v265h156v-265h320v-131h-320v-420q0 -143 26 -190q35 -64 147 -64q66 0 139 30h8v-140zM579 -426q0 -105 -79 -163q-71 -53 -179 -53h-36v71q176 -1 176 112q0 136 -184 126v133h33q112 0 186 -56
q83 -62 83 -170z" />
    <glyph glyph-name="Yogh" unicode="&#x21c;" horiz-adv-x="978" 
d="M891 335q0 -286 -270 -483q-174 -127 -526 -246v144q627 194 627 566q0 126 -82 211q-169 -129 -545 -255v143q627 191 627 549q0 118 -64 189q-67 75 -183 75q-232 0 -415 -183h-2v205q245 116 418 116q184 0 296 -98q119 -103 119 -284q0 -185 -133 -345
q133 -117 133 -304z" />
    <glyph glyph-name="yogh" unicode="&#x21d;" horiz-adv-x="822" 
d="M733 130q0 -286 -406 -430q-27 -9 -237 -68v143q232 64 305 100q178 88 178 236q0 121 -68 179q-114 -67 -415 -152v142q238 62 305 94q178 85 178 234q0 216 -233 216q-143 0 -282 -119h-4v170q137 69 320 69q359 0 359 -318q0 -123 -100 -234q100 -95 100 -262z" />
    <glyph glyph-name="OU" unicode="&#x222;" horiz-adv-x="1279" 
d="M1190 1305q0 -169 -138 -311q-84 -87 -282 -209q292 -210 292 -437q0 -152 -139 -267q-132 -109 -287 -109q-172 0 -303 89q-148 100 -148 265q0 246 321 460q-202 118 -259 163q-158 123 -158 240q0 95 92 216l113 -84q-64 -81 -64 -132q0 -57 113 -138q38 -27 162 -100
q38 -22 135 -80q200 122 262 175q147 126 147 259q0 61 -98 141l91 108q75 -63 105 -107q43 -63 43 -142zM921 348q0 176 -282 357q-145 -91 -207 -154q-106 -107 -106 -225q0 -102 109 -162q92 -51 201 -51q96 0 187 68q98 74 98 167z" />
    <glyph glyph-name="ou" unicode="&#x223;" horiz-adv-x="982" 
d="M893 844q0 -94 -104 -184q-58 -51 -186 -124q216 -142 216 -303q0 -120 -118 -192q-103 -63 -229 -63q-120 0 -220 67q-113 76 -113 189q0 157 206 300q-256 147 -256 272q0 74 40 153l112 -67q-22 -40 -22 -75q0 -64 253 -203l170 98q120 79 120 132q0 57 -64 81l51 120
q144 -56 144 -201zM688 233q0 103 -214 228q-204 -122 -204 -227q0 -53 77 -92q66 -33 125 -33q65 0 133 30q83 37 83 94z" />
    <glyph glyph-name="Zhook" unicode="&#x224;" horiz-adv-x="1226" 
d="M1159 -120q0 -188 -246 -386l-63 66q113 125 113 233q0 207 -236 207h-628v158l831 1040h-801v145h983v-153l-840 -1045h587q123 0 208 -70q92 -75 92 -195z" />
    <glyph glyph-name="zhook" unicode="&#x225;" horiz-adv-x="889" 
d="M836 -87q0 -162 -202 -325l-52 51q93 103 93 191q0 170 -194 170h-404v115l538 678h-527v130h720v-111l-540 -681h322q101 0 171 -58q75 -61 75 -160z" />
    <glyph glyph-name="dotlessj" unicode="&#x237;" horiz-adv-x="583" 
d="M431 -22q0 -151 -76 -237q-80 -91 -229 -91q-92 0 -177 24v148h8q82 -33 139 -33q114 0 150 66q29 53 29 194v743h-192v131h348v-945z" />
    <glyph glyph-name="zswashtail" unicode="&#x240;" horiz-adv-x="906" 
d="M956 -192q-123 -110 -230 -110q-118 0 -204 78q-6 6 -124 146q-65 78 -130 78h-191v115l538 678h-487v130h680v-111l-540 -681q105 0 187 -78q40 -48 123 -145q68 -78 148 -78q55 0 144 78z" />
    <glyph glyph-name="aturn" unicode="&#x250;" horiz-adv-x="1016" 
d="M870 652q0 -195 -173 -272q-122 -54 -457 -70v-24q0 -104 77 -145q56 -29 171 -29q127 0 292 62h8v-157q-154 -43 -300 -43q-402 0 -402 319v627h154v-99q40 29 124 80q95 44 208 44q128 0 213 -83t85 -210zM710 641q0 160 -194 160q-135 0 -276 -109v-257l162 11
q96 8 158 26q150 43 150 169z" />
    <glyph glyph-name="ascriptlatin" unicode="&#x251;" horiz-adv-x="1143" 
d="M1073 18q-39 -31 -107 -31q-164 0 -209 126q-155 -131 -307 -131q-185 0 -281 152q-80 127 -80 325t103 337q114 153 305 153q129 0 249 -66l10 40h146v-730q0 -76 69 -76q30 0 71 32zM746 235v522q-116 52 -221 52q-143 0 -214 -104q-61 -89 -61 -239q0 -336 234 -336
q129 0 262 105z" />
    <glyph glyph-name="ascriptturn" unicode="&#x252;" horiz-adv-x="1143" 
d="M1073 472q0 -199 -102 -337q-114 -153 -306 -153q-128 0 -249 65l-10 -40h-146v730q0 76 -69 76q-30 0 -71 -32l-31 131q39 31 107 31q164 0 209 -126q155 132 308 132q185 0 280 -153q80 -128 80 -324zM913 464q0 337 -235 337q-128 0 -262 -106v-522q116 -52 222 -52
q143 0 214 104q61 89 61 239z" />
    <glyph glyph-name="bhook" unicode="&#x253;" horiz-adv-x="1054" 
d="M965 469q0 -199 -100 -339q-113 -156 -304 -156q-128 0 -253 69l-10 -43h-145v1196q0 154 82 240t235 86q58 0 128 -11v-138h-9q-53 12 -89 12q-125 0 -162 -63q-30 -51 -30 -190v-306q149 123 304 123q187 0 279 -154q74 -126 74 -326zM805 464q0 337 -231 337
q-131 0 -266 -105v-529q118 -53 222 -53q275 0 275 350z" />
    <glyph glyph-name="cturn" unicode="&#x254;" horiz-adv-x="882" 
d="M835 464q0 -218 -116 -348q-121 -137 -336 -137q-145 0 -296 77v173h8q147 -115 294 -115q148 0 221 105q64 91 64 245q0 153 -64 243q-73 103 -221 103q-95 0 -183 -45q-66 -34 -111 -70h-8v171q164 78 296 78q220 0 339 -131q113 -125 113 -349z" />
    <glyph glyph-name="ccurl" unicode="&#x255;" horiz-adv-x="927" 
d="M887 269q0 -140 -123 -220q-106 -69 -254 -69q-30 0 -66 5q-48 -74 -119 -198l-113 56q47 94 101 183q-226 111 -226 434q0 218 116 348q122 136 337 136q144 0 295 -76v-173h-8q-147 115 -294 115q-148 0 -221 -105q-64 -91 -64 -245q0 -234 143 -313q194 278 339 278
q68 0 112.5 -44t44.5 -112zM757 269q0 26 -27 26q-62 0 -205 -185q86 3 151 38q81 44 81 121z" />
    <glyph glyph-name="drthook" unicode="&#x256;" horiz-adv-x="1192" 
d="M1192 -339q-70 -11 -128 -11q-153 0 -235.5 86t-82.5 240v121q-142 -123 -297 -123q-186 0 -281 154q-79 128 -79 326q0 201 102 340q114 155 308 155q126 0 247 -63v510h156v-1356q0 -76 5 -115q18 -138 186 -138q37 0 90 12h9v-138zM746 227v530q-110 49 -220 49
q-276 0 -276 -348q0 -336 236 -336q127 0 260 105z" />
    <glyph glyph-name="dhook" unicode="&#x257;" horiz-adv-x="1054" 
d="M1191 1373h-9q-53 12 -89 12q-125 0 -162 -63q-30 -51 -30 -190v-1132h-155v97q-142 -123 -297 -123q-186 0 -281 154q-79 128 -79 326q0 201 102 340q114 155 308 155q126 0 247 -63v310q0 154 82 240t235 86q58 0 128 -11v-138zM746 227v530q-110 49 -220 49
q-276 0 -276 -348q0 -336 236 -336q127 0 260 105z" />
    <glyph glyph-name="erev" unicode="&#x258;" horiz-adv-x="1008" 
d="M925 456q0 -229 -128.5 -353t-358.5 -124q-148 0 -332 77v170h8q53 -48 154 -81q94 -31 172 -31q155 0 241.5 87.5t86.5 243.5h-680v85q0 196 95 304q101 115 294 115q213 0 334 -142q114 -134 114 -351zM768 564q-11 118 -88 187.5t-195 69.5q-244 0 -246 -257h529z" />
    <glyph glyph-name="schwa" unicode="&#x259;" horiz-adv-x="1008" 
d="M925 471q0 -217 -114 -350q-120 -142 -334 -142q-194 0 -294 114q-95 108 -95 304v85h680q0 156 -86.5 243.5t-241.5 87.5q-78 0 -172 -31q-100 -32 -154 -80h-8v169q184 78 332 78q230 0 358 -123q129 -126 129 -355zM768 363h-529q2 -256 246 -256q118 0 195 69t88 187
z" />
    <glyph glyph-name="schwahook" unicode="&#x25a;" horiz-adv-x="1434" 
d="M1434 648q-82 -22 -140 -22q-117 0 -185.5 66.5t-68.5 182.5v155q0 27 -15 27q-13 0 -47 -39l-221 -250q78 -120 78 -304q0 -218 -116 -348q-121 -137 -336 -137q-145 0 -296 77v70l520 584q-75 100 -218 100q-95 0 -183 -45q-66 -34 -111 -70h-8v171q164 78 296 78
q208 0 326 -118l1 -1l257 289q58 65 99 65q33 0 59 -18q28 -21 28 -53v-215q0 -143 164 -143q48 0 110 29h7v-131zM674 464q0 103 -29 177l-429 -486q89 -41 173 -41q148 0 221 105q64 91 64 245z" />
    <glyph glyph-name="epsilonlatin" unicode="&#x25b;" horiz-adv-x="868" 
d="M831 53q-165 -74 -353 -74q-154 0 -259 59q-129 73 -129 215q0 169 193 230v5q-74 19 -119 74t-45 131q0 132 133 199q105 53 251 53q130 0 291 -50v-171h-11q-114 88 -298 88q-207 0 -207 -129q0 -88 81 -117q48 -17 162 -17h141v-137h-170q-116 0 -162 -18
q-81 -32 -81 -127q0 -155 237 -155q85 0 177 29q100 31 158 82h10v-170z" />
    <glyph glyph-name="epsilonlatinrev" unicode="&#x25c;" horiz-adv-x="868" 
d="M821 671q0 -169 -193 -230v-5q74 -19 119 -74t45 -131q0 -132 -133 -199q-105 -53 -251 -53q-130 0 -291 50v171h11q114 -88 298 -88q207 0 207 129q0 88 -81 117q-48 17 -162 17h-141v137h170q116 0 162 18q81 32 81 127q0 155 -237 155q-85 0 -177 -29
q-100 -31 -158 -82h-10v170q165 74 353 74q154 0 259 -59q129 -73 129 -215z" />
    <glyph glyph-name="epsilonlatinrevhook" unicode="&#x25d;" horiz-adv-x="1434" 
d="M1434 648q-82 -22 -140 -22q-117 0 -185.5 66.5t-68.5 182.5v155q0 27 -15 27q-12 0 -47 -39l-187 -211q40 -58 40 -136q0 -169 -193 -230v-5q74 -19 119 -74t45 -131q0 -132 -133 -199q-105 -53 -251 -53q-130 0 -291 50v171h11q114 -88 298 -88q207 0 207 129
q0 88 -81 117q-48 17 -162 17h-141v137h170q116 0 162 18q81 32 81 127q0 155 -237 155q-85 0 -177 -29q-100 -31 -158 -82h-10v170q165 74 353 74q190 0 298 -85l226 254q58 65 99 65q33 0 59 -18q28 -21 28 -53v-215q0 -143 164 -143q48 0 110 29h7v-131z" />
    <glyph glyph-name="epsilonlatinrevclosed" unicode="&#x25e;" horiz-adv-x="1050" 
d="M962 253q0 -146 -138 -220q-110 -59 -269 -59q-230 0 -350 130q-117 126 -117 357q0 223 110 351q117 137 336 137q149 0 259 -54q140 -69 140 -202q0 -76 -45 -131t-119 -74v-5q193 -60 193 -230zM803 267q0 96 -81 127q-46 18 -162 18h-150v137h121q112 0 159 16
q84 29 84 118q0 133 -225 133q-301 0 -301 -355q0 -352 304 -352q97 0 163 31q88 41 88 127z" />
    <glyph glyph-name="jdotlessbar" unicode="&#x25f;" horiz-adv-x="714" 
d="M678 418h-247v-440q0 -151 -76 -237q-80 -91 -229 -91q-92 0 -177 24v148h8q82 -33 139 -33q114 0 150 66q29 53 29 194v369h-225v110h225v264h-192v131h348v-395h247v-110z" />
    <glyph glyph-name="ghook" unicode="&#x260;" horiz-adv-x="1054" 
d="M1192 1373h-9q-53 12 -89 12q-125 0 -162 -63q-30 -51 -30 -190v-1027q0 -455 -435 -455q-138 0 -281 40v159h8q151 -59 286 -59q266 0 266 251v85q-140 -112 -297 -112q-185 0 -280 141q-80 121 -80 315q0 196 104 331q114 148 304 148q129 0 249 -66v313
q0 154 82.5 240t235.5 86q58 0 128 -11v-138zM746 254v503q-115 52 -221 52q-143 0 -214 -101q-61 -87 -61 -235q0 -315 235 -315q136 0 261 96z" />
    <glyph glyph-name="gcursive" unicode="&#x261;" horiz-adv-x="1054" 
d="M902 105q0 -455 -435 -455q-140 0 -281 40v159h8q150 -59 286 -59q266 0 266 251v85q-139 -112 -297 -112q-185 0 -280 141q-80 121 -80 315q0 196 104 331q114 148 304 148q130 0 249 -66l10 40h146v-818zM746 254v503q-115 52 -221 52q-143 0 -214 -101
q-61 -87 -61 -235q0 -315 235 -315q136 0 261 96z" />
    <glyph glyph-name="Gsmallcap" unicode="&#x262;" horiz-adv-x="1093" 
d="M985 71q-211 -88 -372 -88q-241 0 -379 117q-148 125 -148 362q0 231 151 358q141 119 376 119q175 0 371 -85v-162h-28q-171 120 -366 120q-160 0 -252 -92.5t-92 -253.5q0 -169 96 -262t265 -93q119 0 224 37v199h-263v130h417v-406z" />
    <glyph glyph-name="gammalatin" unicode="&#x263;" horiz-adv-x="962" 
d="M927 886q0 -101 -133 -302q-25 -37 -207 -281q135 -245 135 -396q0 -113 -70 -188t-183 -75q-103 0 -165.5 65t-62.5 169q0 191 168 409q-95 211 -150 297q-113 177 -239 210l79 129q212 -45 421 -499q121 160 158 217q97 150 97 237q0 20 -8 45h157q3 -20 3 -37z
M570 -129q0 102 -90 315q-109 -140 -109 -285q0 -57 25 -96q29 -46 83 -46q91 0 91 112z" />
    <glyph glyph-name="babygamma" unicode="&#x264;" horiz-adv-x="835" 
d="M800 908q0 -141 -274 -439q111 -175 111 -279q0 -92 -68 -149q-64 -54 -158 -54q-86 0 -144 48q-62 51 -62 135q0 132 147 299q-90 141 -138 196q-93 107 -194 131l79 129q186 -34 361 -340q187 210 187 321q0 9 -1 17h154v-15zM483 167q0 82 -66 195q-80 -93 -80 -176
q0 -84 80 -84q66 0 66 65z" />
    <glyph glyph-name="hturn" unicode="&#x265;" horiz-adv-x="1071" 
d="M918 -363h-155v465q-155 -128 -310 -128q-307 0 -307 350v599h156v-526q0 -150 34 -206q42 -69 161 -69q120 0 266 112v689h155v-1286z" />
    <glyph glyph-name="hhook" unicode="&#x266;" horiz-adv-x="1071" 
d="M925 0h-156v526q0 150 -34 206q-42 69 -161 69q-120 0 -266 -112v-689h-155v1196q0 154 82 240t235 86q58 0 128 -11v-138h-9q-53 12 -89 12q-125 0 -162 -63q-30 -51 -30 -190v-311q154 128 310 128q307 0 307 -350v-599z" />
    <glyph glyph-name="henghook" unicode="&#x267;" horiz-adv-x="1071" 
d="M925 -23q0 -153 -83 -240t-235 -87q-58 0 -128 11v139h9q53 -12 90 -12q64 0 102 15q71 28 84 123q5 37 5 114v486q0 150 -34 206q-42 69 -161 69q-120 0 -266 -112v-689h-155v1196q0 154 82 240t235 86q58 0 128 -11v-138h-9q-53 12 -89 12q-125 0 -162 -63
q-30 -51 -30 -190v-311q154 128 310 128q307 0 307 -350v-622z" />
    <glyph glyph-name="ibar" unicode="&#x268;" horiz-adv-x="728" 
d="M451 1078h-175v161h175v-161zM678 418h-236v-418h-156v418h-236v110h236v395h156v-395h236v-110z" />
    <glyph glyph-name="iotalatin" unicode="&#x269;" horiz-adv-x="542" 
d="M472 18q-42 -31 -107 -31q-93 0 -154 49q-65 54 -65 145v742h155v-730q0 -76 69 -76q30 0 71 32z" />
    <glyph glyph-name="Ismallcap" unicode="&#x26a;" horiz-adv-x="623" 
d="M512 0h-412v117h129v689h-129v117h412v-117h-128v-689h128v-117z" />
    <glyph glyph-name="lmidtilde" unicode="&#x26b;" horiz-adv-x="847" 
d="M827 851q-3 -139 -48 -229q-59 -120 -182 -120q-52 0 -96 22v-524h-155v676q-48 55 -92 55q-104 0 -114 -230h-120q3 140 47 229q59 120 183 120q52 0 96 -21v567h155v-719q49 -56 93 -56q109 0 113 230h120z" />
    <glyph glyph-name="lbelt" unicode="&#x26c;" horiz-adv-x="934" 
d="M914 529h-329v-529h-155v532q-410 27 -410 214q0 78 72 124q62 40 144 40q106 0 194 -76v562h155v-741h329v-126zM430 658q-86 128 -208 128q-76 0 -76 -41t125 -67q82 -17 159 -20z" />
    <glyph glyph-name="lrthook" unicode="&#x26d;" horiz-adv-x="601" 
d="M601 -339q-70 -11 -128 -11q-153 0 -235.5 86t-82.5 240v1420h156v-1356q0 -76 5 -115q18 -138 186 -138q37 0 90 12h9v-138z" />
    <glyph glyph-name="lyogh" unicode="&#x26e;" horiz-adv-x="1104" 
d="M1023 74q0 -452 -449 -452q-120 0 -283 76v170h4q129 -122 282 -122q286 0 286 328q0 148 -79 241q-83 99 -229 100v31l275 347h-520v-793h-155v1396h155v-473h703v-112l-248 -320q258 -113 258 -417z" />
    <glyph glyph-name="mturn" unicode="&#x26f;" horiz-adv-x="1646" 
d="M1500 0h-156v102q-154 -128 -299 -128q-189 0 -258 150q-177 -150 -337 -150q-297 0 -297 350v599h155v-526q0 -150 28 -203q38 -72 157 -72q112 0 261 116q-5 44 -5 94v591h155v-526q0 -151 28 -204q38 -71 157 -71q110 0 255 112v689h156v-923z" />
    <glyph glyph-name="mturndescend" unicode="&#x270;" horiz-adv-x="1741" 
d="M1671 -292q-42 -31 -107 -31q-93 0 -154 50q-66 53 -66 144v231q-154 -128 -299 -128q-189 0 -258 150q-178 -150 -337 -150q-297 0 -297 350v599h155v-526q0 -150 28 -203q38 -72 157 -72q111 0 261 116q-5 38 -5 94v591h155v-526q0 -151 28 -204q38 -71 157 -71
q109 0 255 112v689h156v-1040q0 -76 69 -76q30 0 71 32z" />
    <glyph glyph-name="mhook" unicode="&#x271;" horiz-adv-x="1646" 
d="M1500 -23q0 -153 -83 -240t-235 -87q-58 0 -128 11v139h9q53 -12 90 -12q64 0 102 15q71 28 84 123q5 37 5 114v486q0 150 -28 203q-38 72 -157 72q-111 0 -261 -116q6 -46 6 -94v-591h-155v526q0 151 -28 204q-38 71 -157 71q-110 0 -256 -112v-689h-155v923h155v-102
q154 128 299 128q189 0 258 -150q178 150 338 150q297 0 297 -350v-622z" />
    <glyph glyph-name="nlftlfthook" unicode="&#x272;" horiz-adv-x="1157" 
d="M1011 0h-156v526q0 150 -34 206q-42 69 -161 69q-120 0 -266 -112v-713q0 -154 -82 -240t-235 -86q-60 0 -128 11v138h9q55 -12 89 -12q125 0 162 63q30 51 30 190v883h155v-102q155 128 310 128q307 0 307 -350v-599z" />
    <glyph glyph-name="nrthook" unicode="&#x273;" horiz-adv-x="1215" 
d="M1215 -339q-68 -11 -128 -11q-153 0 -235.5 86t-82.5 240v550q0 150 -34 206q-42 69 -161 69q-120 0 -266 -112v-689h-155v923h155v-102q155 128 310 128q307 0 307 -350v-559q0 -76 5 -115q18 -138 186 -138q35 0 90 12h9v-138z" />
    <glyph glyph-name="Nsmallcap" unicode="&#x274;" horiz-adv-x="1056" 
d="M915 0h-181l-446 771v-771h-146v923h221l406 -701v701h146v-923z" />
    <glyph glyph-name="obar" unicode="&#x275;" horiz-adv-x="1108" 
d="M1022 461q0 -222 -123 -349q-125 -130 -346 -130t-345 130q-122 127 -122 349t123.5 351t343.5 129q221 0 345 -129t124 -351zM856 544q-38 269 -302 269t-303 -269h605zM860 413h-612q24 -303 306 -303q138 0 219 83q76 80 87 220z" />
    <glyph glyph-name="OEsmallcap" unicode="&#x276;" horiz-adv-x="1482" 
d="M1403 0h-720q-135 0 -217 16q-170 33 -272 152q-105 122 -105 293q0 261 221 389q126 73 375 73h718v-131h-503v-221h503v-131h-503v-309h503v-131zM746 129v665h-69q-177 0 -272 -50q-155 -82 -155 -282q0 -333 427 -333h69z" />
    <glyph glyph-name="omegaclosed" unicode="&#x277;" horiz-adv-x="1436" 
d="M1343 416q0 -180 -98 -305q-107 -136 -283 -136q-181 0 -242 198h-3q-27 -87 -104.5 -142.5t-168.5 -55.5q-175 0 -270 138q-81 120 -81 303q0 257 185 431q181 170 440 170t440 -170q185 -174 185 -431zM1184 414q0 130 -58 237q-61 113 -173 170q-116 59 -235 59
q-128 0 -236 -58q-113 -62 -171.5 -169.5t-58.5 -238.5q0 -119 39 -200q51 -106 157 -106q95 0 149 93q45 78 45 180v198h153v-198q0 -273 163 -273q107 0 171 104q55 89 55 202z" />
    <glyph glyph-name="philatin" unicode="&#x278;" horiz-adv-x="1327" 
d="M1240 461q0 -211 -147 -343q-136 -122 -352 -140v-418h-155v418q-216 18 -352 140q-146 132 -146 343q0 214 145 344q134 120 353 140v78h155v-78q219 -20 353 -140q146 -131 146 -344zM1079 461q0 152 -94 245q-90 89 -244 105v-699q153 16 243 105q95 93 95 244z
M586 112v699q-154 -16 -244 -105q-94 -93 -94 -245q0 -151 95 -244q90 -89 243 -105z" />
    <glyph glyph-name="rturn" unicode="&#x279;" horiz-adv-x="806" 
d="M649 0h-155v136q-170 -136 -308 -136q-51 0 -113 10v159h8q66 -15 145 -15q127 0 268 114v655h155v-923z" />
    <glyph glyph-name="rturnascend" unicode="&#x27a;" horiz-adv-x="806" 
d="M649 0h-155v136q-170 -136 -308 -136q-51 0 -113 10v159h8q66 -15 145 -15q127 0 268 114v1128h155v-1396z" />
    <glyph glyph-name="rturnrthook" unicode="&#x27b;" horiz-adv-x="940" 
d="M940 -339q-70 -11 -128 -11q-153 0 -235.5 86t-82.5 240v160q-169 -136 -308 -136q-50 0 -113 10v159h8q63 -15 145 -15q128 0 268 114v655h155v-883q0 -139 30 -190q37 -63 162 -63q37 0 90 12h9v-138z" />
    <glyph glyph-name="rdescend" unicode="&#x27c;" horiz-adv-x="722" 
d="M729 754h-8q-66 15 -145 15q-128 0 -268 -114v-995h-155v1263h155v-136q170 136 308 136q50 0 113 -10v-159z" />
    <glyph glyph-name="rrthook" unicode="&#x27d;" horiz-adv-x="722" 
d="M729 754h-8q-63 15 -145 15q-128 0 -268 -114v-615q0 -139 30 -190q37 -63 162 -63q37 0 90 12h9v-138q-70 -11 -128 -11q-153 0 -235.5 86t-82.5 240v947h155v-136q169 136 308 136q50 0 113 -10v-159z" />
    <glyph glyph-name="rfishhook" unicode="&#x27e;" horiz-adv-x="722" 
d="M729 754h-8q-13 0 -34 5q-25 6 -34 7q-30 3 -77 3q-123 0 -195.5 -70.5t-72.5 -193.5v-505h-155v523q0 72 32 150q103 250 431 250q51 0 113 -10v-159z" />
    <glyph glyph-name="rfishhookrev" unicode="&#x27f;" horiz-adv-x="795" 
d="M649 -340h-155v845q0 123 -72.5 193.5t-195.5 70.5q-47 0 -77 -3q-9 -1 -34 -7q-21 -5 -34 -5h-8v159q62 10 113 10q328 0 431 -250q32 -78 32 -150v-863z" />
    <glyph glyph-name="Rsmallcap" unicode="&#x280;" horiz-adv-x="987" 
d="M995 0h-204l-328 357h-166v-357h-155v923h287q380 0 380 -257q0 -187 -191 -266zM649 658q0 137 -211 137h-141v-313h119q233 0 233 176z" />
    <glyph glyph-name="Rsmallcapinv" unicode="&#x281;" horiz-adv-x="987" 
d="M995 923l-377 -400q191 -79 191 -266q0 -257 -380 -257h-287v923h155v-357h166l328 357h204zM649 265q0 176 -233 176h-119v-313h141q211 0 211 137z" />
    <glyph glyph-name="srthook" unicode="&#x282;" horiz-adv-x="882" 
d="M812 266q0 -145 -128 -223q-107 -65 -262 -65q-95 0 -175 21v-49q0 -76 5 -115q18 -138 186 -138q37 0 90 12h9v-138q-70 -11 -128 -11q-153 0 -235.5 86t-82.5 240v344h8q161 -121 336 -121q219 0 219 137q0 63 -47 94q-34 22 -105 37q-52 9 -184 39q-223 56 -223 248
q0 140 122 216q103 65 251 65q173 0 308 -69v-166h-8q-142 104 -312 104q-202 0 -202 -130q0 -100 148 -133q51 -10 185 -38q225 -50 225 -247z" />
    <glyph glyph-name="esh" unicode="&#x283;" horiz-adv-x="637" 
d="M770 1245h-8q-80 23 -140 23q-105 0 -147 -51q-38 -45 -38 -153v-1064q0 -340 -318 -340q-83 0 -170 16v142h8q80 -23 140 -23q105 0 147 51q38 45 38 153v1065q0 340 318 340q84 0 170 -17v-142z" />
    <glyph glyph-name="jhookdblbar" unicode="&#x284;" horiz-adv-x="637" 
d="M770 1245h-8q-80 23 -140 23q-105 0 -147 -51q-38 -45 -38 -153v-329h241v-132h-241v-228h241v-132h-241v-243q0 -340 -318 -340q-83 0 -170 16v142h8q80 -23 140 -23q105 0 147 51q38 45 38 153v244h-240v132h240v228h-240v132h240v329q0 340 318 340q84 0 170 -17v-142
z" />
    <glyph glyph-name="eshshortrev" unicode="&#x285;" horiz-adv-x="826" 
d="M842 -324q-86 -16 -170 -16q-318 0 -318 340v584q0 109 -37 154q-42 50 -148 50q-60 0 -140 -23h-8v142q87 17 170 17q318 0 318 -340v-585q0 -108 38 -153q42 -51 147 -51q60 0 140 23h8v-142z" />
    <glyph glyph-name="eshcurl" unicode="&#x286;" horiz-adv-x="791" 
d="M924 1245h-8q-79 23 -140 23q-105 0 -147 -51q-38 -45 -38 -153v-1082q0 -112 -34 -182q86 -75 176 -165l-90 -88q-102 93 -175 152q-106 -52 -222 -52q-217 0 -286 185q-10 27 -10 54q0 67 47.5 113.5t115.5 46.5q120 0 313 -141q10 43 10 144v1015q0 340 318 340
q81 0 170 -17v-142zM349 -195q-46 36 -118 75q-86 47 -125 47q-11 0 -23.5 -11t-12.5 -22q0 -5 3 -12q43 -100 171 -100q78 0 105 23z" />
    <glyph glyph-name="tturn" unicode="&#x287;" horiz-adv-x="667" 
d="M632 265h-105v-265h-155v265h-321v131h321v530q0 142 -27 190q-36 64 -147 64q-66 0 -139 -30h-8v140q100 26 188 26q288 0 288 -319v-601h105v-131z" />
    <glyph glyph-name="trthook" unicode="&#x288;" horiz-adv-x="667" 
d="M632 792h-320v-752q0 -76 5 -115q18 -138 186 -138q37 0 90 12h9v-138q-70 -11 -128 -11q-153 0 -235.5 86t-82.5 240v816h-105v131h105v265h156v-265h320v-131z" />
    <glyph glyph-name="ubar" unicode="&#x289;" horiz-adv-x="1114" 
d="M1078 618h-126v-618h-155v102q-162 -128 -309 -128q-307 0 -307 350v294h-131v110h131v195h155v-195h461v195h155v-195h126v-110zM797 234v384h-461v-221q0 -147 35 -205q42 -70 161 -70q123 0 265 112z" />
    <glyph glyph-name="upsilonlatin" unicode="&#x28a;" horiz-adv-x="1106" 
d="M1046 793h-189q156 -145 156 -386q0 -197 -133 -316q-128 -116 -327 -116t-327 116q-133 119 -133 316q0 241 156 386h-189v130h354v-163q-161 -125 -161 -353q0 -137 81.5 -220.5t218.5 -83.5t218.5 83.5t81.5 220.5q0 228 -161 353v163h354v-130z" />
    <glyph glyph-name="vscriptlatin" unicode="&#x28b;" horiz-adv-x="1089" 
d="M1002 535q0 -560 -433 -560q-236 0 -338 152q-85 126 -85 374v422h155v-430q0 -173 47 -262q64 -121 221 -121q139 0 207.5 100.5t68.5 342.5q0 132 -29 182q-42 73 -167 73q-36 0 -89 -12h-9v138q70 11 128 11q183 0 260 -119q63 -98 63 -291z" />
    <glyph glyph-name="vturn" unicode="&#x28c;" horiz-adv-x="1001" 
d="M951 0h-168l-286 735l-284 -735h-163l374 923h156z" />
    <glyph glyph-name="wturn" unicode="&#x28d;" horiz-adv-x="1385" 
d="M1314 0h-162l-170 715l-230 -715h-128l-236 715l-161 -715h-156l241 923h143l237 -711l236 711h143z" />
    <glyph glyph-name="yturn" unicode="&#x28e;" horiz-adv-x="1001" 
d="M951 0h-168l-284 684l-286 -684h-163l539 1263h166l-172 -385z" />
    <glyph glyph-name="Ysmallcap" unicode="&#x28f;" horiz-adv-x="881" 
d="M872 923l-357 -521v-402h-154v390l-358 533h174l262 -392l264 392h169z" />
    <glyph glyph-name="zrthook" unicode="&#x290;" horiz-adv-x="1058" 
d="M1112 -379q-70 -11 -128 -11q-153 0 -235.5 86t-82.5 240v64h-589v115l538 678h-527v130h720v-111l-540 -681h554v-171q0 -37 5 -75q18 -138 186 -138q37 0 90 12h9v-138z" />
    <glyph glyph-name="zcurl" unicode="&#x291;" horiz-adv-x="1012" 
d="M972 274q0 -11 -2 -23q-43 -251 -350 -251h-131q-114 -149 -187 -251l-106 68q48 61 143 183h-262v115l538 678h-527v130h720v-111l-540 -681h172q239 292 373 292q66 0 112.5 -42t46.5 -107zM842 273q0 20 -31 20q-35 0 -117 -68q-66 -55 -104 -100q14 -1 29 -1
q80 0 144 33q79 41 79 116z" />
    <glyph glyph-name="ezh" unicode="&#x292;" horiz-adv-x="854" 
d="M773 74q0 -452 -449 -452q-120 0 -283 76v170h4q129 -122 282 -122q286 0 286 328q0 148 -79 241q-83 99 -229 100v31l275 347h-492v130h675v-112l-248 -320q258 -113 258 -417z" />
    <glyph glyph-name="yoghcurl" unicode="&#x293;" horiz-adv-x="884" 
d="M803 74q0 -278 -170 -385q61 -82 116 -167l-106 -68q-78 108 -140 185q-60 -15 -119 -15q-137 0 -228 57q-103 66 -122 194q-2 13 -2 23q0 65 46.5 107t112.5 42q140 0 352 -247q100 78 100 274q0 148 -79 241q-83 99 -229 100v31l275 347h-522v130h705v-112l-248 -320
q258 -113 258 -417zM414 -251q-35 42 -104 99q-83 69 -117 69q-31 0 -31 -20q0 -75 79 -116q64 -33 144 -33q15 0 29 1z" />
    <glyph glyph-name="glottalstop" unicode="&#x294;" horiz-adv-x="1001" 
d="M896 1017q0 -165 -121 -293q-82 -87 -265 -192v-532h-164v606q188 107 241 153q123 107 123 244q0 214 -261 214q-182 0 -337 -97h-7v189q170 65 358 65q185 0 301 -84q132 -95 132 -273z" />
    <glyph glyph-name="glottalstoprevinv" unicode="&#x295;" horiz-adv-x="1001" 
d="M896 1120h-7q-155 97 -337 97q-261 0 -261 -214q0 -137 123 -244q53 -46 241 -153v-606h-164v532q-183 105 -265 192q-121 128 -121 293q0 178 132 273q116 84 301 84q188 0 358 -65v-189z" />
    <glyph glyph-name="glottalstopinv" unicode="&#x296;" horiz-adv-x="1001" 
d="M896 326q0 -178 -132 -273q-116 -84 -301 -84q-188 0 -358 65v189h7q155 -97 337 -97q261 0 261 214q0 137 -123 244q-53 46 -241 153v606h164v-532q183 -105 265 -192q121 -128 121 -293z" />
    <glyph glyph-name="cstretch" unicode="&#x297;" horiz-adv-x="882" 
d="M835 -328q-164 -79 -295 -79q-453 0 -453 674q0 281 85 451q114 226 368 226q145 0 295 -76v-173h-8q-147 115 -294 115q-285 0 -285 -543q0 -539 285 -539q152 0 294 115h8v-171z" />
    <glyph glyph-name="kiss" unicode="&#x298;" horiz-adv-x="1424" 
d="M1335 595q0 -259 -181.5 -441t-440.5 -182t-441.5 182t-182.5 441t182.5 440t441.5 181t440.5 -181t181.5 -440zM1201 595q0 200 -144 343.5t-344 143.5t-344.5 -144t-144.5 -343q0 -200 144.5 -344.5t344.5 -144.5t344 144.5t144 344.5zM853 595q0 -56 -42 -97t-98 -41
q-57 0 -98.5 40.5t-41.5 97.5q0 58 41 100.5t99 42.5q57 0 98.5 -43t41.5 -100z" />
    <glyph glyph-name="Bsmallcap" unicode="&#x299;" horiz-adv-x="974" 
d="M906 289q0 -154 -132 -229q-106 -60 -272 -60h-360v923h303q167 0 246 -29q132 -48 132 -185q0 -116 -114 -180q197 -53 197 -240zM663 693q0 72 -77 93q-37 10 -137 10h-152v-234h171q195 0 195 131zM746 284q0 95 -73 129q-50 23 -159 23h-217v-309h177q272 0 272 157z
" />
    <glyph glyph-name="epsilonclosed" unicode="&#x29a;" horiz-adv-x="1050" 
d="M962 462q0 -223 -110 -351q-117 -137 -336 -137q-149 0 -259 54q-140 69 -140 202q0 76 45 131t119 74v5q-193 60 -193 230q0 146 138 220q110 59 269 59q230 0 350 -130q117 -126 117 -357zM802 462q0 352 -304 352q-97 0 -163 -31q-88 -41 -88 -127q0 -96 81 -127
q46 -18 162 -18h150v-137h-121q-112 0 -159 -16q-84 -29 -84 -118q0 -133 225 -133q301 0 301 355z" />
    <glyph glyph-name="Gsmallcaphook" unicode="&#x29b;" horiz-adv-x="1136" 
d="M1274 1373h-9q-53 12 -89 12q-125 0 -162 -63q-30 -51 -30 -190v-440h-28q-171 120 -366 120q-160 0 -252 -92.5t-92 -253.5q0 -169 96 -262t265 -93q119 0 224 37v199h-263v130h417v-406q-211 -88 -372 -88q-241 0 -379 117q-148 125 -148 362q0 231 151 358
q141 119 376 119q107 0 215 -29v286q0 154 82.5 240t235.5 86q58 0 128 -11v-138z" />
    <glyph glyph-name="Hsmallcap" unicode="&#x29c;" horiz-adv-x="1061" 
d="M917 0h-155v440h-465v-440h-155v923h155v-352h465v352h155v-923z" />
    <glyph glyph-name="jcrosstail" unicode="&#x29d;" horiz-adv-x="744" 
d="M601 1078h-175v161h175v-161zM733 -365l-90 -88q-102 93 -175 152q-106 -52 -222 -52q-217 0 -286 185q-10 27 -10 54q0 67 47.5 113.5t115.5 46.5q119 0 313 -141q10 45 10 144v743h-192v131h348v-945q0 -106 -35 -178q86 -74 176 -165zM349 -195q-46 36 -118 75
q-86 47 -125 47q-11 0 -23.5 -11t-12.5 -22q0 -5 3 -12q43 -100 171 -100q78 0 105 23z" />
    <glyph glyph-name="kturn" unicode="&#x29e;" horiz-adv-x="1001" 
d="M888 -363h-155v825l-449 -462h-196l429 426l-460 497h205l370 -404l101 96v308h155v-1286z" />
    <glyph glyph-name="Lsmallcap" unicode="&#x29f;" horiz-adv-x="803" 
d="M787 0h-645v923h155v-792h490v-131z" />
    <glyph glyph-name="qhook" unicode="&#x2a0;" horiz-adv-x="1054" 
d="M1192 1373h-9q-53 12 -89 12q-125 0 -162 -63q-30 -51 -30 -190v-1472h-156v444q-142 -122 -296 -122q-185 0 -281 152q-80 127 -80 325t103 337q114 153 305 153q127 0 249 -66v313q0 155 82 240.5t236 85.5q58 0 128 -11v-138zM746 235v522q-116 52 -221 52
q-275 0 -275 -343q0 -336 234 -336q129 0 262 105z" />
    <glyph glyph-name="glottalstopbar" unicode="&#x2a1;" horiz-adv-x="1001" 
d="M896 1017q0 -165 -121 -293q-82 -87 -265 -192v-137h343v-132h-343v-263h-164v263h-274v132h274v211q188 107 241 153q123 107 123 244q0 214 -261 214q-182 0 -337 -97h-7v189q170 65 358 65q185 0 301 -84q132 -95 132 -273z" />
    <glyph glyph-name="glottalstopbarrev" unicode="&#x2a2;" horiz-adv-x="1001" 
d="M896 263h-274v-263h-164v263h-343v132h343v137q-183 105 -265 192q-121 128 -121 293q0 178 132 273q116 84 301 84q188 0 358 -65v-189h-7q-155 97 -337 97q-261 0 -261 -214q0 -137 123 -244q53 -46 241 -153v-211h274v-132z" />
    <glyph glyph-name="dz" unicode="&#x2a3;" horiz-adv-x="1714" 
d="M1647 0h-901v97q-142 -123 -297 -123q-186 0 -281 154q-79 128 -79 326q0 201 102 340q114 155 308 155q126 0 247 -63v510h156v-473h731v-111l-540 -681h554v-131zM1440 793h-538v-678zM746 227v530q-110 49 -220 49q-276 0 -276 -348q0 -336 236 -336q127 0 260 105z
" />
    <glyph glyph-name="dyogh" unicode="&#x2a4;" horiz-adv-x="1734" 
d="M1653 74q0 -452 -449 -452q-120 0 -283 76v170h4q129 -122 282 -122q286 0 286 328q0 148 -79 241q-83 99 -229 100v31l275 347h-558v-793h-156v97q-141 -123 -297 -123q-186 0 -281 154q-79 128 -79 326q0 201 102 340q114 155 308 155q126 0 247 -63v510h156v-473h741
v-112l-248 -320q258 -113 258 -417zM746 227v530q-111 49 -220 49q-144 0 -216 -106q-60 -91 -60 -242q0 -336 236 -336q127 0 260 105z" />
    <glyph glyph-name="dzcurl" unicode="&#x2a5;" horiz-adv-x="1837" 
d="M1797 274q0 -11 -2 -23q-43 -251 -350 -251h-131q-114 -149 -187 -251l-106 68q48 61 143 183h-418v97q-142 -123 -297 -123q-186 0 -281 154q-79 128 -79 326q0 201 102 340q114 155 308 155q126 0 247 -63v510h156v-473h731v-111l-540 -681h172q239 292 373 292
q66 0 112.5 -41.5t46.5 -107.5zM1667 273q0 20 -31 20q-35 0 -117 -68q-66 -55 -104 -100q14 -1 29 -1q80 0 144 33q79 41 79 116zM1440 793h-538v-678zM746 227v530q-110 49 -220 49q-276 0 -276 -348q0 -336 236 -336q127 0 260 105z" />
    <glyph glyph-name="ts" unicode="&#x2a6;" horiz-adv-x="1291" 
d="M1222 266q0 -145 -128 -223q-107 -65 -262 -65h-359q-153 0 -235.5 86t-82.5 240v510h-104v131h104v243h156v-243h567q174 0 308 -69v-166h-8q-141 104 -312 104q-202 0 -202 -130q0 -97 145 -133q89 -21 268 -65q145 -62 145 -220zM1064 246q0 54 -32 83q-38 35 -186 62
q-163 30 -229 69q-112 66 -112 204q0 86 48 150h-242v-446q0 -102 8 -136q29 -123 182 -123h344q219 0 219 137z" />
    <glyph glyph-name="tesh" unicode="&#x2a7;" horiz-adv-x="1107" 
d="M1240 1135h-8q-80 23 -140 23q-105 0 -147 -51q-38 -45 -38 -153v-954q0 -340 -318 -340q-83 0 -170 16v142h8q80 -23 140 -23q105 0 147 51q38 45 38 153v793h-440v-420q0 -142 26 -190q35 -64 147 -64q66 0 139 30h8v-140q-100 -26 -187 -26q-289 0 -289 320v490h-105
v131h105v265h156v-265h440v31q0 340 318 340q84 0 170 -17v-142z" />
    <glyph glyph-name="tccurl" unicode="&#x2a8;" horiz-adv-x="1487" 
d="M1447 269q0 -140 -123 -220q-106 -69 -254 -69q-30 0 -66 5q-48 -74 -119 -198l-113 56q48 95 101 183q-226 110 -226 434q0 225 121 353h-456v-441q0 -143 26 -190q35 -64 147 -64q66 0 139 30h8v-140q-98 -26 -187 -26q-289 0 -289 320v511h-105v131h105v244h156v-244
h788q145 0 295 -76v-173h-8q-148 115 -294 115q-148 0 -221 -105q-64 -91 -64 -245q0 -234 143 -313q194 278 339 278q68 0 112.5 -44t44.5 -112zM1317 269q0 26 -27 26q-62 0 -205 -185q86 3 151 38q81 44 81 121z" />
    <glyph glyph-name="fengdigraph" unicode="&#x2a9;" horiz-adv-x="1668" 
d="M1522 -23q0 -153 -83 -240t-235 -87q-58 0 -128 11v139h9q53 -12 90 -12q64 0 102 15q71 28 84 123q5 37 5 114v486q0 150 -34 206q-42 69 -161 69q-120 0 -266 -112v-689h-155v792h-434v-792h-155v792h-105v131h105v53q0 202 98 312q103 116 303 116q77 0 174 -19v-142
h-8q-90 26 -177 26q-133 0 -188 -63q-51 -59 -51 -194v-89h593v-102q154 128 310 128q307 0 307 -350v-622z" />
    <glyph glyph-name="lsdigraph" unicode="&#x2aa;" horiz-adv-x="1291" 
d="M1222 266q0 -145 -128 -223q-107 -65 -262 -65h-359q-153 0 -235.5 86t-82.5 240v1092h156v-1028q0 -102 8 -136q29 -123 182 -123h344q219 0 219 137q0 54 -32 83q-38 35 -186 62q-163 30 -229 69q-112 66 -112 204q0 140 122 216q104 65 251 65q174 0 308 -69v-166h-8
q-141 104 -312 104q-202 0 -202 -130q0 -97 145 -133q89 -21 268 -65q145 -62 145 -220z" />
    <glyph glyph-name="lzdigraph" unicode="&#x2ab;" horiz-adv-x="1122" 
d="M1055 0h-900v1396h155v-473h731v-111l-540 -681h554v-131zM848 793h-538v-678z" />
    <glyph glyph-name="bilabialpercussive" unicode="&#x2ac;" horiz-adv-x="1089" 
d="M1022 1510l-186 -645h-130l-161 437l-160 -437h-130l-188 645h155l113 -430l154 430h118l157 -430l107 430h151zM1022 645l-186 -645h-130l-161 437l-160 -437h-130l-188 645h155l113 -430l154 430h118l157 -430l107 430h151z" />
    <glyph glyph-name="bidentalpercussive" unicode="&#x2ad;" horiz-adv-x="1024" 
d="M941 880h-88v318h-682v-318h-88v396l50 67h758l50 -67v-396zM941 0h-88v318h-682v-318h-88v396l50 67h758l50 -67v-396z" />
    <glyph glyph-name="hturnfishhook" unicode="&#x2ae;" horiz-adv-x="1176" 
d="M1023 -363h-155v465q-154 -128 -310 -128q-307 0 -307 350v415q0 76 -69 76q-30 0 -71 -32l-31 131q42 31 107 31q93 0 154 -50q66 -53 66 -144v-354q0 -150 34 -206q42 -69 161 -69q120 0 266 112v689h155v-1286z" />
    <glyph glyph-name="hturnfishhooktail" unicode="&#x2af;" horiz-adv-x="1314" 
d="M1314 -339q-70 -11 -128 -11q-153 0 -235.5 86t-82.5 240v126q-154 -128 -310 -128q-307 0 -307 350v415q0 76 -69 76q-30 0 -71 -32l-31 131q42 31 107 31q93 0 154 -50q66 -53 66 -144v-354q0 -150 34 -206q42 -69 161 -69q120 0 266 112v689h156v-883q0 -76 5 -115
q18 -138 186 -138q37 0 90 12h9v-138z" />
    <glyph glyph-name="turnedcomma" unicode="&#x2bb;" horiz-adv-x="1024" 
d="M663 1123h-33q-112 0 -186 56q-83 62 -83 170q0 105 79 163q71 53 179 53h36v-71q-176 1 -176 -112q0 -136 184 -126v-133z" />
    <glyph glyph-name="apostrophe" unicode="&#x2bc;" horiz-adv-x="1024" 
d="M663 1339q0 -105 -79 -163q-71 -53 -179 -53h-36v71q176 -1 176 112q0 136 -184 126v133h33q112 0 186 -56q83 -62 83 -170z" />
    <glyph glyph-name="apostropherev" unicode="&#x2bd;" horiz-adv-x="1024" 
d="M663 1432q-184 10 -184 -126q0 -113 176 -112v-71h-36q-108 0 -179 53q-79 58 -79 163q0 108 83 170q74 56 186 56h33v-133z" />
    <glyph glyph-name="circumflex" unicode="&#x2c6;" horiz-adv-x="1024" 
d="M808 1194l-82 -74l-214 207l-214 -207l-82 74l263 308h66z" />
    <glyph glyph-name="caron" unicode="&#x2c7;" horiz-adv-x="1024" 
d="M808 1444l-263 -308h-66l-263 308l82 74l214 -207l214 207z" />
    <glyph glyph-name="macron" unicode="&#x2c9;" horiz-adv-x="1024" 
d="M818 1200h-612v127h612v-127z" />
    <glyph glyph-name="breve" unicode="&#x2d8;" horiz-adv-x="1024" 
d="M822 1462q-10 -138 -90 -220q-84 -86 -220 -86q-137 0 -220 86q-80 81 -90 220h137q22 -198 173 -198q148 0 173 198h137z" />
    <glyph glyph-name="dotaccent" unicode="&#x2d9;" horiz-adv-x="1024" 
d="M613 1251q0 -42 -29.5 -71.5t-71.5 -29.5t-71.5 29.5t-29.5 71.5t29.5 71.5t71.5 29.5t71.5 -29.5t29.5 -71.5z" />
    <glyph glyph-name="ring" unicode="&#x2da;" horiz-adv-x="1024" 
d="M737 1316q0 -94 -65.5 -159.5t-159.5 -65.5t-159.5 65.5t-65.5 159.5t65.5 159.5t159.5 65.5t159.5 -65.5t65.5 -159.5zM627 1316q0 47 -34 81t-81 34t-81 -34t-34 -81t34 -81t81 -34t81 34t34 81z" />
    <glyph glyph-name="ogonek" unicode="&#x2db;" horiz-adv-x="1024" 
d="M709 -323q-80 -22 -140 -22q-117 0 -185.5 66t-68.5 183q0 36 16 104h128q-10 -44 -10 -96q0 -133 143 -133q49 0 110 29h7v-131z" />
    <glyph glyph-name="tilde" unicode="&#x2dc;" horiz-adv-x="1024" 
d="M867 1395q-82 -227 -208 -227q-54 0 -175 74t-147 74q-51 0 -90 -130l-91 80q21 64 67 122q57 73 110 73t174 -77t162 -77q61 0 110 140z" />
    <glyph glyph-name="hungarumlaut" unicode="&#x2dd;" horiz-adv-x="1024" 
d="M861 1459l-264 -371l-94 59l228 394zM521 1459l-264 -371l-94 59l228 394z" />
    <glyph glyph-name="apostrophedbl" unicode="&#x2ee;" horiz-adv-x="1024" 
d="M863 1339q0 -105 -79 -163q-71 -53 -179 -53h-36v71q176 -1 176 112q0 136 -184 126v133h33q112 0 186 -56q83 -62 83 -170zM463 1339q0 -105 -79 -163q-71 -53 -179 -53h-36v71q176 -1 176 112q0 136 -184 126v133h33q112 0 186 -56q83 -62 83 -170z" />
    <glyph glyph-name="gravenosp" unicode="&#x300;" 
d="M-333 1147l-94 -59l-264 371l130 82z" />
    <glyph glyph-name="acutenosp" unicode="&#x301;" 
d="M-333 1459l-264 -371l-94 59l228 394z" />
    <glyph glyph-name="circumflexnosp" unicode="&#x302;" 
d="M-216 1194l-82 -74l-214 207l-214 -207l-82 74l263 308h66z" />
    <glyph glyph-name="tildenosp" unicode="&#x303;" 
d="M-157 1395q-82 -227 -208 -227q-54 0 -175 74t-147 74q-51 0 -90 -130l-91 80q21 64 67 122q57 73 110 73t174 -77t162 -77q61 0 110 140z" />
    <glyph glyph-name="macronnosp" unicode="&#x304;" 
d="M-206 1200h-612v127h612v-127z" />
    <glyph glyph-name="brevenosp" unicode="&#x306;" 
d="M-202 1462q-10 -138 -90 -220q-84 -86 -220 -86q-137 0 -220 86q-80 81 -90 220h137q22 -198 173 -198q148 0 173 198h137z" />
    <glyph glyph-name="dotnosp" unicode="&#x307;" 
d="M-411 1251q0 -42 -29.5 -71.5t-71.5 -29.5t-71.5 29.5t-29.5 71.5t29.5 71.5t71.5 29.5t71.5 -29.5t29.5 -71.5z" />
    <glyph glyph-name="dieresisnosp" unicode="&#x308;" 
d="M-184 1251q0 -42 -29.5 -71.5t-71.5 -29.5t-71.5 29.5t-29.5 71.5t29.5 71.5t71.5 29.5t71.5 -29.5t29.5 -71.5zM-638 1251q0 -42 -29.5 -71.5t-71.5 -29.5t-71.5 29.5t-29.5 71.5t29.5 71.5t71.5 29.5t71.5 -29.5t29.5 -71.5z" />
    <glyph glyph-name="hooksupnosp" unicode="&#x309;" 
d="M-326 1417q0 -117 -165 -210v-84h-104v134q77 41 99 59q55 43 55 95q0 71 -99 71q-65 0 -131 -40h-27v107q86 32 164 32q85 0 142 -39q66 -44 66 -125z" />
    <glyph glyph-name="ringnosp" unicode="&#x30a;" 
d="M-287 1316q0 -94 -65.5 -159.5t-159.5 -65.5t-159.5 65.5t-65.5 159.5t65.5 159.5t159.5 65.5t159.5 -65.5t65.5 -159.5zM-397 1316q0 47 -34 81t-81 34t-81 -34t-34 -81t34 -81t81 -34t81 34t34 81z" />
    <glyph glyph-name="acutedblnosp" unicode="&#x30b;" 
d="M-163 1459l-264 -371l-94 59l228 394zM-503 1459l-264 -371l-94 59l228 394z" />
    <glyph glyph-name="haceknosp" unicode="&#x30c;" 
d="M-216 1444l-263 -308h-66l-263 308l82 74l214 -207l214 207z" />
    <glyph glyph-name="gravedblnosp" unicode="&#x30f;" 
d="M-163 1147l-94 -59l-264 371l130 82zM-503 1147l-94 -59l-264 371l130 82z" />
    <glyph glyph-name="commaturnsupnosp" unicode="&#x312;" 
d="M-361 1123h-33q-112 0 -186 56q-83 62 -83 170q0 105 79 163q71 53 179 53h36v-71q-176 1 -176 -112q0 -136 184 -126v-133z" />
    <glyph glyph-name="apostrophesupnosp" unicode="&#x313;" 
d="M-361 1339q0 -105 -79 -163q-71 -53 -179 -53h-36v71q176 -1 176 112q0 136 -184 126v133h33q112 0 186 -56q83 -62 83 -170z" />
    <glyph glyph-name="dasianosp" unicode="&#x314;" 
d="M-361 1432q-184 10 -184 -126q0 -113 176 -112v-71h-36q-108 0 -179 53q-79 58 -79 163q0 108 83 170q74 56 186 56h33v-133z" />
    <glyph glyph-name="acutesubnosp" unicode="&#x317;" 
d="M-333 -282l-264 -371l-94 59l228 394z" />
    <glyph glyph-name="dotsubnosp" unicode="&#x323;" 
d="M-411 -364q0 -42 -29.5 -71.5t-71.5 -29.5t-71.5 29.5t-29.5 71.5t29.5 71.5t71.5 29.5t71.5 -29.5t29.5 -71.5z" />
    <glyph glyph-name="commasubnosp" unicode="&#x326;" 
d="M-361 -426q0 -105 -79 -163q-71 -53 -179 -53h-36v71q176 -1 176 112q0 136 -184 126v133h33q112 0 186 -56q83 -62 83 -170z" />
    <glyph glyph-name="cedillanosp" unicode="&#x327;" 
d="M-294 -74q0 -128 -72.5 -202t-200.5 -74q-83 0 -163 22v132h7q77 -30 136 -30q168 0 168 138q0 43 -8 105h127q6 -60 6 -91z" />
    <glyph glyph-name="ogoneknosp" unicode="&#x328;" 
d="M-315 -323q-80 -22 -140 -22q-117 0 -185.5 66t-68.5 183q0 36 16 104h128q-10 -44 -10 -96q0 -133 143 -133q49 0 110 29h7v-131z" />
    <glyph glyph-name="brevesubnosp" unicode="&#x32e;" 
d="M-86 -424q-151 -276 -426 -276t-426 276l70 54q57 -85 157 -134q96 -48 199 -48t199 48q100 49 157 134z" />
    <glyph glyph-name="tildesubnosp" unicode="&#x330;" 
d="M-136 -325q-90 -227 -213 -227q-58 0 -191.5 74t-159.5 74q-54 0 -97 -130l-91 80q24 67 68 123q56 72 111 72q58 0 190 -77t175 -77q67 0 120 140z" />
    <glyph glyph-name="macronsubnosp" unicode="&#x331;" 
d="M-140 -690h-744v132h744v-132z" />
    <glyph glyph-name="underscorenosp" unicode="&#x332;" 
d="M610 -690h-1220v132h1220v-132z" />
    <glyph glyph-name="acuterightnosp" unicode="&#x341;" 
d="M-486 1654l-342 -468l-70 45l258 514h76z" />
    <glyph glyph-name="perispomeninosp" unicode="&#x342;" 
d="M-136 1430q-90 -227 -213 -227q-58 0 -191.5 74t-159.5 74q-54 0 -97 -130l-91 80q24 67 68 123q56 72 111 72q58 0 190 -77t175 -77q67 0 120 140z" />
    <glyph glyph-name="psilinosp" unicode="&#x343;" 
d="M-361 1339q0 -105 -79 -163q-71 -53 -179 -53h-36v71q176 -1 176 112q0 136 -184 126v133h33q112 0 186 -56q83 -62 83 -170z" />
    <glyph glyph-name="dialytikaoxianosp" unicode="&#x344;" 
d="M-315 1687l-156 -427l-107 31l115 441zM-184 1251q0 -42 -29.5 -71.5t-71.5 -29.5t-71.5 29.5t-29.5 71.5t29.5 71.5t71.5 29.5t71.5 -29.5t29.5 -71.5zM-638 1251q0 -42 -29.5 -71.5t-71.5 -29.5t-71.5 29.5t-29.5 71.5t29.5 71.5t71.5 29.5t71.5 -29.5t29.5 -71.5z" />
    <glyph glyph-name="iotasubnosp" unicode="&#x345;" 
d="M-419 -482h-186l40 327h106z" />
    <glyph glyph-name="lefthalfringnosp" unicode="&#x351;" 
d="M-402 1123q-94 0 -159.5 65.5t-65.5 159.5t65.5 159.5t159.5 65.5v-110q-47 0 -81 -34t-34 -81t34 -81t81 -34v-110z" />
    <glyph glyph-name="righthalfringnosp" unicode="&#x357;" 
d="M-402 1348q0 -94 -65.5 -159.5t-159.5 -65.5v110q47 0 81 34t34 81t-34 81t-81 34v110q94 0 159.5 -65.5t65.5 -159.5z" />
    <glyph glyph-name="asterisksubnosp" unicode="&#x359;" 
d="M-277 -457l-39 -68l-158 93l3 -156h-81l2 156l-157 -93l-40 68l165 90l-165 90l40 68l158 -92l-3 155h81l-3 -155l158 92l39 -68l-164 -89z" />
    <glyph glyph-name="doubleringbelownosp" unicode="&#x35a;" 
d="M-103 -408q0 -95 -66.5 -158.5t-162.5 -63.5q-104 0 -180 82q-75 -82 -180 -82q-95 0 -162 63.5t-67 158.5q0 96 66.5 158t162.5 62q106 0 180 -80q75 80 180 80q96 0 162.5 -62t66.5 -158zM-213 -408q0 51 -34 85t-85 34q-52 0 -86 -33.5t-34 -85.5q0 -51 34.5 -85.5
t85.5 -34.5q52 0 85.5 34t33.5 86zM-572 -408q0 52 -34 85.5t-86 33.5t-85.5 -33.5t-33.5 -85.5q0 -51 34 -85.5t85 -34.5q52 0 86 34t34 86z" />
    <glyph glyph-name="zigzagabovenosp" unicode="&#x35b;" 
d="M-178 1541l-322 -453l-94 59l160 276h-412l321 453l94 -59l-159 -276h412z" />
    <glyph glyph-name="doublebrevenosp" unicode="&#x35c;" 
d="M949 -261q-371 -439 -949 -439t-949 439l60 51q352 -362 889 -362t889 362z" />
    <glyph glyph-name="doublebreveovernosp" unicode="&#x35d;" 
d="M949 1845q-371 -439 -949 -439t-949 439l60 51q352 -362 889 -362t889 362z" />
    <glyph glyph-name="doublemacronnosp" unicode="&#x35e;" 
d="M836 1754h-1672v132h1672v-132z" />
    <glyph glyph-name="doublemacronbelownosp" unicode="&#x35f;" 
d="M836 -690h-1672v132h1672v-132z" />
    <glyph glyph-name="doubletildenosp" unicode="&#x360;" 
d="M900 1896q-41 -171 -141 -270q-111 -110 -277 -110q-135 0 -319 58q-155 55 -309 110q-248 88 -376 88q-237 0 -311 -256h-67q33 166 138 269q113 111 275 111q135 0 305 -52q23 -7 291.5 -104.5t401.5 -97.5q252 0 321 254h68z" />
    <glyph glyph-name="doubleinvbrevenosp" unicode="&#x361;" 
d="M949 1457l-60 -51q-352 362 -889 362t-889 -362l-60 51q371 439 949 439t949 -439z" />
    <glyph glyph-name="Heta" unicode="&#x370;" horiz-adv-x="1182" 
d="M1014 665h-685v-665h-164v1343h164v-533h685v-145z" />
    <glyph glyph-name="heta" unicode="&#x371;" horiz-adv-x="922" 
d="M770 416h-462v-416h-155v923h155v-374h462v-133z" />
    <glyph glyph-name="Sampiarchaic" unicode="&#x372;" horiz-adv-x="1551" 
d="M1393 690h-164v511h-368v-1201h-164v1201h-368v-511h-164v653h1228v-653z" />
    <glyph glyph-name="sampiarchaic" unicode="&#x373;" horiz-adv-x="1205" 
d="M1125 635q0 -50 -15 -145l-132 18q13 79 13 127q0 63 -40 108.5t-102 45.5h-169v-789h-155v789h-169q-62 0 -102 -45.5t-40 -108.5q0 -48 13 -127l-132 -18q-15 95 -15 145q0 120 78.5 204t197.5 84h493q119 0 197.5 -84t78.5 -204z" />
    <glyph glyph-name="dexiakeraia" unicode="&#x374;" horiz-adv-x="524" 
d="M524 1434l-247 -511h-112l160 511h199z" />
    <glyph glyph-name="aristerikeraia" unicode="&#x375;" horiz-adv-x="524" 
d="M359 0l-161 -511h-198l246 511h113z" />
    <glyph glyph-name="Digammapamphylian" unicode="&#x376;" horiz-adv-x="1344" 
d="M1176 0h-163v1107l-679 -1107h-169v1343h163v-1091l671 1091h177v-1343z" />
    <glyph glyph-name="digammapamphylian" unicode="&#x377;" horiz-adv-x="1083" 
d="M930 0h-153v693l-484 -693h-140v923h154v-683l478 683h145v-923z" />
    <glyph glyph-name="iotasub" unicode="&#x37a;" horiz-adv-x="1024" 
d="M431 -506q-27 -11 -53 -11q-74 0 -122 40q-52 43 -52 115v183h132v-165q0 -63 37 -63q16 0 32 6z" />
    <glyph glyph-name="antisigma" unicode="&#x37b;" horiz-adv-x="882" 
d="M835 464q0 -218 -116 -348q-121 -137 -336 -137q-145 0 -296 77v173h8q147 -115 294 -115q148 0 221 105q64 91 64 245q0 153 -64 243q-73 103 -221 103q-95 0 -183 -45q-66 -34 -111 -70h-8v171q164 78 296 78q220 0 339 -131q113 -125 113 -349z" />
    <glyph glyph-name="sigma_periestigmenon" unicode="&#x37c;" horiz-adv-x="882" 
d="M646 388h-176v161h176v-161zM835 58q-164 -79 -295 -79q-220 0 -339 131q-114 126 -114 350q0 218 116 348q122 136 337 136q144 0 295 -76v-173h-8q-147 115 -294 115q-148 0 -221 -105q-64 -91 -64 -245q0 -153 64 -243q73 -103 221 -103q95 0 183 45q66 34 111 70h8
v-171z" />
    <glyph glyph-name="antisigma_periestigmenon" unicode="&#x37d;" horiz-adv-x="882" 
d="M835 464q0 -218 -116 -348q-121 -137 -336 -137q-145 0 -296 77v173h8q147 -115 294 -115q148 0 221 105q64 91 64 245q0 153 -64 243q-73 103 -221 103q-95 0 -183 -45q-66 -34 -111 -70h-8v171q164 78 296 78q220 0 339 -131q113 -125 113 -349zM452 375h-176v161h176
v-161z" />
    <glyph glyph-name="erotimatiko" unicode="&#x37e;" horiz-adv-x="656" 
d="M479 806q0 -54 -38.5 -92.5t-92.5 -38.5t-92.5 38.5t-38.5 92.5t38.5 92.5t92.5 38.5t92.5 -38.5t38.5 -92.5zM454 235l-233 -541h-121l144 541h210z" />
    <glyph glyph-name="Yot" unicode="&#x37f;" horiz-adv-x="809" 
d="M643 46q0 -177 -108 -273q-103 -92 -282 -92q-112 0 -228 25v155h1q117 -40 203 -40q160 0 211 77q39 59 39 216v1100h-284v129h448v-1297z" />
    <glyph glyph-name="tonos" unicode="&#x384;" horiz-adv-x="1024" 
d="M644 1550l-157 -427l-107 31l116 441z" />
    <glyph glyph-name="dieresistonos" unicode="&#x385;" horiz-adv-x="1024" 
d="M709 1687l-156 -427l-107 31l115 441zM840 1251q0 -42 -29.5 -71.5t-71.5 -29.5t-71.5 29.5t-29.5 71.5t29.5 71.5t71.5 29.5t71.5 -29.5t29.5 -71.5zM386 1251q0 -42 -29.5 -71.5t-71.5 -29.5t-71.5 29.5t-29.5 71.5t29.5 71.5t71.5 29.5t71.5 -29.5t29.5 -71.5z" />
    <glyph glyph-name="Alphatonos" unicode="&#x386;" horiz-adv-x="1267" 
d="M1250 0h-174l-132 379h-591l-132 -379h-165l483 1343h228zM894 518l-246 697l-247 -697h493zM264 1350l-157 -427l-107 31l116 441z" />
    <glyph glyph-name="anoteleia" unicode="&#x387;" horiz-adv-x="616" 
d="M479 806q0 -54 -38.5 -92.5t-92.5 -38.5t-92.5 38.5t-38.5 92.5t38.5 92.5t92.5 38.5t92.5 -38.5t38.5 -92.5z" />
    <glyph glyph-name="Epsilontonos" unicode="&#x388;" horiz-adv-x="1414" 
d="M1319 0h-870v1343h870v-145h-706v-388h706v-145h-706v-520h706v-145zM264 1350l-157 -427l-107 31l116 441z" />
    <glyph glyph-name="Etatonos" unicode="&#x389;" horiz-adv-x="1630" 
d="M1462 0h-164v665h-685v-665h-164v1343h164v-533h685v533h164v-1343zM264 1350l-157 -427l-107 31l116 441z" />
    <glyph glyph-name="Iotatonos" unicode="&#x38a;" horiz-adv-x="1062" 
d="M938 0h-515v123h175v1097h-175v123h515v-123h-176v-1097h176v-123zM264 1350l-157 -427l-107 31l116 441z" />
    <glyph glyph-name="Omicrontonos" unicode="&#x38c;" horiz-adv-x="1675" 
d="M1585 671q0 -311 -150 -497q-164 -202 -467 -202q-139 0 -254 47q-231 95 -318 355q-43 129 -43 297q0 312 149 498q163 202 466 202q144 0 257 -47q360 -150 360 -653zM1414 671q0 241 -99 387q-116 172 -346 172t-346 -171q-99 -146 -99 -388q0 -240 99 -387
q117 -171 346 -171t346 171q99 147 99 387zM264 1350l-157 -427l-107 31l116 441z" />
    <glyph glyph-name="Upsilontonos" unicode="&#x38e;" horiz-adv-x="1503" 
d="M1499 1343l-467 -753v-590h-163v571l-469 772h180l371 -614l375 614h173zM264 1350l-157 -427l-107 31l116 441z" />
    <glyph glyph-name="Omegatonos" unicode="&#x38f;" horiz-adv-x="1711" 
d="M1628 0h-505v222q159 117 220 222q69 117 69 304q0 210 -111 342q-118 140 -324 140t-324 -140q-111 -132 -111 -342q0 -187 69 -304q61 -105 220 -222v-222h-505v144h341v31q-140 99 -217.5 250t-77.5 323q0 275 164 447q168 176 441 176q274 0 441 -176
q164 -172 164 -447q0 -172 -77.5 -323t-217.5 -250v-31h341v-144zM264 1350l-157 -427l-107 31l116 441z" />
    <glyph glyph-name="iotadieresistonos" unicode="&#x390;" horiz-adv-x="581" 
d="M511 18q-42 -31 -107 -31q-93 0 -154 49q-65 54 -65 145v550q0 88 -43 79l-31 131q26 4 58 4q171 0 171 -193v-559q0 -76 69 -76q30 0 71 32zM475 1687l-156 -427l-107 31l115 441zM556 1251q0 -42 -29.5 -71.5t-71.5 -29.5t-71.5 29.5t-29.5 71.5t29.5 71.5t71.5 29.5
t71.5 -29.5t29.5 -71.5zM202 1251q0 -42 -29.5 -71.5t-71.5 -29.5t-71.5 29.5t-29.5 71.5t29.5 71.5t71.5 29.5t71.5 -29.5t29.5 -71.5z" />
    <glyph glyph-name="Alpha" unicode="&#x391;" horiz-adv-x="1223" 
d="M1206 0h-174l-132 379h-591l-132 -379h-165l483 1343h228zM850 518l-246 697l-247 -697h493z" />
    <glyph glyph-name="Beta" unicode="&#x392;" horiz-adv-x="1227" 
d="M1163 410q0 -213 -165 -320q-138 -90 -364 -90h-469v1343h391q249 0 356 -56q137 -72 137 -241q0 -180 -179 -269v-18q293 -61 293 -349zM878 1022q0 159 -178 176q-62 6 -151 6h-220v-407h238q147 0 217 39q94 52 94 186zM992 403q0 158 -116 219q-71 37 -259 37h-288
v-520h244q234 0 319 59q100 70 100 205z" />
    <glyph glyph-name="Gamma" unicode="&#x393;" horiz-adv-x="1011" 
d="M1018 1198h-689v-1198h-164v1343h853v-145z" />
    <glyph glyph-name="Delta" unicode="&#x394;" horiz-adv-x="1259" 
d="M1242 0h-1230l501 1343h228zM1023 138l-401 1075l-399 -1075h800z" />
    <glyph glyph-name="Epsilon" unicode="&#x395;" horiz-adv-x="1130" 
d="M1035 0h-870v1343h870v-145h-706v-388h706v-145h-706v-520h706v-145z" />
    <glyph glyph-name="Zeta" unicode="&#x396;" horiz-adv-x="1226" 
d="M1132 0h-1033v158l831 1040h-801v145h983v-153l-840 -1045h860v-145z" />
    <glyph glyph-name="Eta" unicode="&#x397;" horiz-adv-x="1346" 
d="M1178 0h-164v665h-685v-665h-164v1343h164v-533h685v533h164v-1343z" />
    <glyph glyph-name="Theta" unicode="&#x398;" horiz-adv-x="1411" 
d="M1321 671q0 -311 -150 -497q-164 -202 -467 -202q-139 0 -254 47q-231 95 -318 355q-43 129 -43 297q0 312 149 498q163 202 466 202q144 0 257 -47q360 -150 360 -653zM1150 671q0 241 -99 387q-116 172 -346 172t-346 -171q-99 -146 -99 -388q0 -240 99 -387
q117 -171 346 -171t346 171q99 147 99 387zM1000 597h-590v148h590v-148z" />
    <glyph glyph-name="Iota" unicode="&#x399;" horiz-adv-x="748" 
d="M624 0h-515v123h175v1097h-175v123h515v-123h-176v-1097h176v-123z" />
    <glyph glyph-name="Kappa" unicode="&#x39a;" horiz-adv-x="1240" 
d="M1221 0h-212l-534 608l-142 -152v-456h-163v1343h163v-720l663 720h196l-592 -631z" />
    <glyph glyph-name="Lambda" unicode="&#x39b;" horiz-adv-x="1227" 
d="M1210 0h-176l-428 1187l-427 -1187h-167l496 1343h206z" />
    <glyph glyph-name="Mu" unicode="&#x39c;" horiz-adv-x="1512" 
d="M1346 0h-163v1196l-386 -822h-97l-383 823v-1197h-152v1343h232l363 -766l351 766h235v-1343z" />
    <glyph glyph-name="Nu" unicode="&#x39d;" horiz-adv-x="1340" 
d="M1175 0h-209l-649 1197v-1197h-152v1343h245l613 -1132v1132h152v-1343z" />
    <glyph glyph-name="Xi" unicode="&#x39e;" horiz-adv-x="1160" 
d="M1066 1198h-978v145h978v-145zM1019 665h-884v145h884v-145zM1066 0h-978v145h978v-145z" />
    <glyph glyph-name="Omicron" unicode="&#x39f;" horiz-adv-x="1411" 
d="M1321 671q0 -311 -150 -497q-164 -202 -467 -202q-139 0 -254 47q-231 95 -318 355q-43 129 -43 297q0 312 149 498q163 202 466 202q144 0 257 -47q360 -150 360 -653zM1150 671q0 241 -99 387q-116 172 -346 172t-346 -171q-99 -146 -99 -388q0 -240 99 -387
q117 -171 346 -171t346 171q99 147 99 387z" />
    <glyph glyph-name="Pi" unicode="&#x3a0;" horiz-adv-x="1346" 
d="M1178 0h-164v1198h-685v-1198h-164v1343h1013v-1343z" />
    <glyph glyph-name="Rho" unicode="&#x3a1;" horiz-adv-x="1077" 
d="M1029 940q0 -179 -116 -296q-136 -138 -398 -138h-186v-506h-164v1343h357q121 0 203 -20q184 -45 263 -190q41 -76 41 -193zM858 936q0 267 -345 267h-184v-558h158q371 0 371 291z" />
    <glyph glyph-name="Sigma" unicode="&#x3a3;" horiz-adv-x="1203" 
d="M1124 0h-1033v157l563 551l-545 483v152h974v-145h-763l541 -473v-17l-579 -563h842v-145z" />
    <glyph glyph-name="Tau" unicode="&#x3a4;" horiz-adv-x="1101" 
d="M1108 1198h-480v-1198h-163v1198h-480v145h1123v-145z" />
    <glyph glyph-name="Upsilon" unicode="&#x3a5;" horiz-adv-x="1099" 
d="M1095 1343l-467 -753v-590h-163v571l-469 772h180l371 -614l375 614h173z" />
    <glyph glyph-name="Phi" unicode="&#x3a6;" horiz-adv-x="1468" 
d="M1388 681q0 -372 -333 -499q-109 -42 -240 -45v-151h-163v151q-128 3 -236 43q-336 125 -336 501q0 229 144 374q152 153 428 161v141h163v-141q139 -3 249 -47q206 -83 285 -273q39 -94 39 -215zM1217 688q0 189 -113 299q-102 99 -289 103v-827q181 4 282 99
q120 113 120 326zM652 263v827q-104 -1 -169 -26q-232 -89 -232 -376q0 -215 120 -326q105 -97 281 -99z" />
    <glyph glyph-name="Chi" unicode="&#x3a7;" horiz-adv-x="1226" 
d="M1168 1343l-458 -664l457 -679h-188l-370 565l-379 -565h-177l463 671l-452 672h187l366 -558l374 558h177z" />
    <glyph glyph-name="Psi" unicode="&#x3a8;" horiz-adv-x="1562" 
d="M1417 1001q0 -280 -136 -454q-146 -186 -418 -210v-337h-163v337q-273 25 -418 210q-136 173 -136 454v342h164v-335q0 -212 89 -348q101 -154 301 -181v864h163v-864q200 27 301 181q89 136 89 348v335h164v-342z" />
    <glyph glyph-name="Omega" unicode="&#x3a9;" horiz-adv-x="1467" 
d="M1384 0h-505v222q159 117 220 222q69 117 69 304q0 210 -111 342q-118 140 -324 140t-324 -140q-111 -132 -111 -342q0 -187 69 -304q61 -105 220 -222v-222h-505v144h341v31q-140 99 -217.5 250t-77.5 323q0 275 164 447q168 176 441 176q274 0 441 -176
q164 -172 164 -447q0 -172 -77.5 -323t-217.5 -250v-31h341v-144z" />
    <glyph glyph-name="Iotadieresis" unicode="&#x3aa;" horiz-adv-x="748" 
d="M624 0h-515v123h175v1097h-175v123h515v-123h-176v-1097h176v-123zM706 1606q0 -42 -29.5 -71.5t-71.5 -29.5t-71.5 29.5t-29.5 71.5t29.5 71.5t71.5 29.5t71.5 -29.5t29.5 -71.5zM252 1606q0 -42 -29.5 -71.5t-71.5 -29.5t-71.5 29.5t-29.5 71.5t29.5 71.5t71.5 29.5
t71.5 -29.5t29.5 -71.5z" />
    <glyph glyph-name="Upsilondieresis" unicode="&#x3ab;" horiz-adv-x="1099" 
d="M1095 1343l-467 -753v-590h-163v571l-469 772h180l371 -614l375 614h173zM876 1606q0 -42 -29.5 -71.5t-71.5 -29.5t-71.5 29.5t-29.5 71.5t29.5 71.5t71.5 29.5t71.5 -29.5t29.5 -71.5zM422 1606q0 -42 -29.5 -71.5t-71.5 -29.5t-71.5 29.5t-29.5 71.5t29.5 71.5
t71.5 29.5t71.5 -29.5t29.5 -71.5z" />
    <glyph glyph-name="alphatonos" unicode="&#x3ac;" horiz-adv-x="1253" 
d="M1173 97l-81 -115q-103 80 -171 188q-114 -196 -382 -196q-209 0 -333 141q-118 134 -118 346t118 347q124 141 333 141q268 0 382 -196q68 109 171 188l81 -116q-196 -150 -196 -364t196 -364zM830 461q0 150 -68 246q-78 108 -223 108q-146 0 -223 -108
q-68 -94 -68 -246q0 -148 70 -244q78 -109 221 -109t221 109q70 96 70 244zM780 1550l-157 -427l-107 31l116 441z" />
    <glyph glyph-name="epsilontonos" unicode="&#x3ad;" horiz-adv-x="868" 
d="M831 53q-165 -74 -353 -74q-154 0 -259 59q-129 73 -129 215q0 169 193 230v5q-74 19 -119 74t-45 131q0 132 133 199q105 53 251 53q130 0 291 -50v-171h-11q-114 88 -298 88q-207 0 -207 -129q0 -88 81 -117q48 -17 162 -17h141v-137h-170q-116 0 -162 -18
q-81 -32 -81 -127q0 -155 237 -155q85 0 177 29q100 31 158 82h10v-170zM650 1550l-157 -427l-107 31l116 441z" />
    <glyph glyph-name="etatonos" unicode="&#x3ae;" horiz-adv-x="1110" 
d="M964 -440h-156v966q0 139 -28 194q-41 81 -167 81q-120 0 -266 -112v-689h-155v689q0 122 -72 122q-9 0 -18 -1l-31 131q26 4 58 4q140 0 197 -140q173 144 331 144q307 0 307 -350v-1039zM700 1550l-157 -427l-107 31l116 441z" />
    <glyph glyph-name="iotatonos" unicode="&#x3af;" horiz-adv-x="581" 
d="M511 18q-42 -31 -107 -31q-93 0 -154 49q-65 54 -65 145v550q0 88 -43 79l-31 131q26 4 58 4q171 0 171 -193v-559q0 -76 69 -76q30 0 71 32zM420 1550l-157 -427l-107 31l116 441z" />
    <glyph glyph-name="upsilondieresistonos" unicode="&#x3b0;" horiz-adv-x="1216" 
d="M1105 941l-31 -131q-43 9 -43 -79v-200q0 -556 -423 -556t-423 556v200q0 88 -43 79l-31 131q26 4 58 4q171 0 171 -193v-229q0 -413 268 -413t268 413v229q0 193 171 193q32 0 58 -4zM805 1687l-156 -427l-107 31l115 441zM936 1251q0 -42 -29.5 -71.5t-71.5 -29.5
t-71.5 29.5t-29.5 71.5t29.5 71.5t71.5 29.5t71.5 -29.5t29.5 -71.5zM482 1251q0 -42 -29.5 -71.5t-71.5 -29.5t-71.5 29.5t-29.5 71.5t29.5 71.5t71.5 29.5t71.5 -29.5t29.5 -71.5z" />
    <glyph glyph-name="alpha" unicode="&#x3b1;" horiz-adv-x="1253" 
d="M1173 97l-81 -115q-103 80 -171 188q-114 -196 -382 -196q-209 0 -333 141q-118 134 -118 346t118 347q124 141 333 141q268 0 382 -196q68 109 171 188l81 -116q-196 -150 -196 -364t196 -364zM830 461q0 150 -68 246q-78 108 -223 108q-146 0 -223 -108
q-68 -94 -68 -246q0 -148 70 -244q78 -109 221 -109t221 109q70 96 70 244z" />
    <glyph glyph-name="beta" unicode="&#x3b2;" horiz-adv-x="1153" 
d="M1073 397q0 -193 -142 -308q-132 -107 -330 -107q-164 0 -293 111v-533h-155v1411q0 184 109 289.5t294 105.5q159 0 259 -77q112 -85 112 -239q0 -163 -161 -267l2 -9q140 -20 224 -129q81 -104 81 -248zM912 401q0 119 -76 192.5t-195 73.5q-78 0 -179 -36l-31 131
q124 -1 223 71q108 79 108 199q0 203 -220 203q-112 0 -175 -78q-59 -72 -59 -186v-753q120 -97 268 -97q149 0 237 63q99 73 99 217z" />
    <glyph glyph-name="gamma" unicode="&#x3b3;" horiz-adv-x="1227" 
d="M1267 923q-343 -411 -580 -860q-40 -76 -58 -152q-39 -166 -57 -212q-55 -141 -136 -141q-85 0 -85 99q0 79 125 332q40 81 40 154q0 164 -114 400q-130 269 -273 269q-46 0 -87 -21l-32 134q57 20 119 20q214 0 361 -233q117 -185 150 -430q212 362 460 641h167z" />
    <glyph glyph-name="delta" unicode="&#x3b4;" horiz-adv-x="1021" 
d="M933 419q0 -192 -114 -317q-117 -128 -308 -128q-184 0 -303.5 122.5t-119.5 307.5q0 291 316 416q-90 47 -156 111q-85 83 -85 163q0 140 115 212q97 60 245 60q146 0 361 -109v-166h-9q-197 144 -362 144q-191 0 -191 -120q0 -73 158 -161q232 -130 295 -187
q158 -143 158 -348zM773 415q0 118 -64 196q-49 59 -168 125q-293 -92 -293 -334q0 -121 73 -205q76 -89 195 -89t191 97q66 87 66 210z" />
    <glyph glyph-name="epsilon" unicode="&#x3b5;" horiz-adv-x="868" 
d="M831 53q-165 -74 -353 -74q-154 0 -259 59q-129 73 -129 215q0 169 193 230v5q-74 19 -119 74t-45 131q0 132 133 199q105 53 251 53q130 0 291 -50v-171h-11q-114 88 -298 88q-207 0 -207 -129q0 -88 81 -117q48 -17 162 -17h141v-137h-170q-116 0 -162 -18
q-81 -32 -81 -127q0 -155 237 -155q85 0 177 29q100 31 158 82h10v-170z" />
    <glyph glyph-name="zeta" unicode="&#x3b6;" horiz-adv-x="837" 
d="M873 -127q0 -145 -136 -222q-112 -63 -269 -63q-19 0 -38 2v141q44 -7 89 -7q82 0 141 32q73 39 73 115q0 104 -167 114q-267 16 -310 31q-167 58 -167 279q0 226 135 473q117 214 305 392q-133 8 -293 90l40 149h6q137 -105 281 -105q131 0 259 82h20v-112
q-237 -160 -409 -431q-186 -293 -186 -557q0 -106 112 -137q39 -11 218 -16q136 -4 207 -61q89 -72 89 -189z" />
    <glyph glyph-name="eta" unicode="&#x3b7;" horiz-adv-x="1110" 
d="M964 -440h-156v966q0 139 -28 194q-41 81 -167 81q-120 0 -266 -112v-689h-155v689q0 122 -72 122q-9 0 -18 -1l-31 131q26 4 58 4q140 0 197 -140q173 144 331 144q307 0 307 -350v-1039z" />
    <glyph glyph-name="theta" unicode="&#x3b8;" horiz-adv-x="1086" 
d="M1037 646h-68q-5 -274 -106 -459q-116 -213 -320 -213q-205 0 -320 212q-101 186 -106 460h-68v133h72q21 249 120 406q114 181 302 181q187 0 301 -181q100 -158 120 -406h73v-133zM804 779q-33 453 -261 453q-229 0 -262 -453h523zM808 646h-531q4 -203 53 -342
q69 -196 213 -196q143 0 212 197q49 140 53 341z" />
    <glyph glyph-name="iota" unicode="&#x3b9;" horiz-adv-x="581" 
d="M511 18q-42 -31 -107 -31q-93 0 -154 49q-65 54 -65 145v550q0 88 -43 79l-31 131q26 4 58 4q171 0 171 -193v-559q0 -76 69 -76q30 0 71 32z" />
    <glyph glyph-name="kappa" unicode="&#x3ba;" horiz-adv-x="1026" 
d="M1011 0h-205l-354 384l-112 -120v-264h-155v731q0 88 -43 79l-31 131q26 4 58 4q171 0 171 -193v-290l430 461h185l-402 -431z" />
    <glyph glyph-name="lambda" unicode="&#x3bb;" horiz-adv-x="1068" 
d="M1068 -9q-26 -4 -58 -4q-88 0 -134 28q-51 30 -81 109l-215 568l-359 -692h-171l458 882l-70 181q-66 170 -166 170q-95 0 -175 -60l-32 134q102 59 207 59q142 0 230 -111q54 -69 120 -242l318 -839q22 -59 97 -52z" />
    <glyph glyph-name="mu" unicode="&#x3bc;" horiz-adv-x="1170" 
d="M1100 18q-39 -31 -107 -31q-159 0 -206 121q-114 -125 -248 -125q-116 0 -231 110v-164q0 -137 18 -196q24 -78 108 -162v-13h-181q-100 132 -100 355v1010h155v-692q83 -100 232 -100q155 0 235 107q-1 11 -1 23v662h155v-730q0 -76 69 -76q32 0 71 32z" />
    <glyph glyph-name="nu" unicode="&#x3bd;" horiz-adv-x="1014" 
d="M968 830q0 -204 -128 -438q-73 -133 -265 -392h-157l-236 766q-20 46 -53 46q-12 0 -27 -2l-31 131q26 4 58 4q162 0 221 -193l173 -564q281 382 281 621q0 56 -47 93v21h172q39 -35 39 -93z" />
    <glyph glyph-name="xi" unicode="&#x3be;" horiz-adv-x="851" 
d="M860 -79q0 -158 -133 -242q-113 -71 -284 -71q-19 0 -38 2v141q41 -7 89 -7q86 0 148 32q78 40 78 118q0 43 -21 73q-24 35 -65 35h-69q-174 0 -262 30q-131 45 -189 173q-28 62 -28 135q0 135 80.5 236.5t212.5 134.5v9q-94 21 -160.5 105t-66.5 180q0 151 117 258
q114 103 267 103q119 0 261 -51v-171h-11q-115 89 -268 89q-89 0 -147.5 -63t-58.5 -153q0 -245 437 -245v-136h-244q-102 0 -180 -84.5t-78 -187.5q0 -144 92 -191q56 -29 200 -30q148 -1 198 -24q123 -56 123 -198z" />
    <glyph glyph-name="omicron" unicode="&#x3bf;" horiz-adv-x="1027" 
d="M940 461q0 -213 -104 -344q-114 -143 -322 -143q-209 0 -322 143q-104 130 -104 344t104 345q113 143 322 143q207 0 321 -144q105 -132 105 -344zM779 461q0 354 -265 354q-266 0 -266 -354q0 -353 266 -353q265 0 265 353z" />
    <glyph glyph-name="pi" unicode="&#x3c0;" horiz-adv-x="1377" 
d="M1291 792h-228v-599q0 -76 69 -76q30 0 71 32l31 -131q-42 -31 -107 -31q-93 0 -154 49q-65 54 -65 145v611h-353v-792h-155v792h-105q-108 0 -181 -104h-21v160q71 75 184 75h1014v-131z" />
    <glyph glyph-name="rho" unicode="&#x3c1;" horiz-adv-x="1092" 
d="M1005 461q0 -209 -100 -341q-112 -146 -315 -146q-152 0 -282 111v-525h-155v901q0 214 104 345q113 143 322 143q207 0 321 -144q105 -132 105 -344zM844 461q0 354 -265 354q-271 0 -271 -354v-251q121 -97 268 -97q268 0 268 348z" />
    <glyph glyph-name="sigma1" unicode="&#x3c2;" horiz-adv-x="859" 
d="M829 -107q0 -145 -137 -222q-112 -63 -268 -63q-19 0 -38 2v141q44 -7 89 -7q82 0 141 32q73 39 73 115q0 69 -63 95q-37 15 -122 20q-417 23 -417 448q0 222 124 354q126 136 347 136q128 0 257 -52v-175h-10q-141 93 -264 93q-145 0 -224 -109q-69 -97 -69 -247
q0 -238 181 -295q27 -8 158 -22q97 -10 153 -55q89 -72 89 -189z" />
    <glyph glyph-name="sigma" unicode="&#x3c3;" horiz-adv-x="1130" 
d="M1120 787h-288q108 -127 108 -326q0 -213 -104 -344q-113 -143 -321 -143q-210 0 -323 142q-104 130 -104 345q0 214 105 345q114 143 323 143q53 0 158.5 -13t158.5 -13h287v-136zM779 461q0 355 -263 355q-268 0 -268 -355q0 -353 267 -353q264 0 264 353z" />
    <glyph glyph-name="tau" unicode="&#x3c4;" horiz-adv-x="948" 
d="M940 792h-354v-599q0 -76 69 -76q30 0 71 32l31 -131q-42 -31 -107 -31q-93 0 -154 49q-65 54 -65 145v611h-176q-108 0 -181 -104h-21v160q71 75 184 75h703v-131z" />
    <glyph glyph-name="upsilon" unicode="&#x3c5;" horiz-adv-x="1216" 
d="M1105 941l-31 -131q-43 9 -43 -79v-200q0 -556 -423 -556t-423 556v200q0 88 -43 79l-31 131q26 4 58 4q171 0 171 -193v-229q0 -413 268 -413t268 413v229q0 193 171 193q32 0 58 -4z" />
    <glyph glyph-name="phi" unicode="&#x3c6;" horiz-adv-x="1337" 
d="M1251 476q0 -217 -147 -350q-138 -126 -359 -138v-430h-154v430q-228 10 -364 144q-141 137 -141 363q0 208 135 330q131 118 341 118l-33 -141q-133 0 -209 -85q-72 -82 -72 -217q0 -164 88 -268q92 -110 254 -114v576q0 107 66 174.5t172 67.5q183 0 306 -140
q117 -135 117 -320zM1090 484q0 127 -64 210q-70 92 -193 92q-88 0 -88 -86v-582q167 7 256 102.5t89 263.5z" />
    <glyph glyph-name="chi" unicode="&#x3c7;" horiz-adv-x="1046" 
d="M1021 -438q-26 -4 -58 -4q-45 0 -96 19q-59 22 -77 56l-246 459l-290 -532h-167l374 686l-272 504q-33 61 -70 61q-8 0 -17 -1l-31 131q26 4 58 4q131 0 179 -89l241 -447l280 514h167l-364 -669l275 -510q28 -52 67 -52q7 0 16 1z" />
    <glyph glyph-name="psi" unicode="&#x3c8;" horiz-adv-x="1576" 
d="M1391 711q0 -690 -526 -733v-418h-154v418q-526 43 -526 733v212h155v-220q0 -543 371 -588v908h154v-908q371 45 371 588v220h155v-212z" />
    <glyph glyph-name="omega" unicode="&#x3c9;" horiz-adv-x="1436" 
d="M1343 416q0 -180 -98 -305q-107 -136 -283 -136q-181 0 -242 198h-3q-27 -87 -104.5 -142.5t-168.5 -55.5q-175 0 -270 138q-81 120 -81 303q0 173 85 314.5t240 212.5l65 -121q-111 -55 -173 -170q-58 -108 -58 -238q0 -119 39 -200q51 -106 157 -106q95 0 149 93
q45 78 45 180v198h153v-198q0 -273 163 -273q107 0 171 104q55 89 55 202q0 130 -58 237q-62 115 -173 170l65 122q155 -71 240 -212.5t85 -314.5z" />
    <glyph glyph-name="iotadieresis" unicode="&#x3ca;" horiz-adv-x="581" 
d="M511 18q-42 -31 -107 -31q-93 0 -154 49q-65 54 -65 145v550q0 88 -43 79l-31 131q26 4 58 4q171 0 171 -193v-559q0 -76 69 -76q30 0 71 32zM547 1251q0 -42 -29.5 -71.5t-71.5 -29.5t-71.5 29.5t-29.5 71.5t29.5 71.5t71.5 29.5t71.5 -29.5t29.5 -71.5zM211 1251
q0 -42 -29.5 -71.5t-71.5 -29.5t-71.5 29.5t-29.5 71.5t29.5 71.5t71.5 29.5t71.5 -29.5t29.5 -71.5z" />
    <glyph glyph-name="upsilondieresis" unicode="&#x3cb;" horiz-adv-x="1216" 
d="M1105 941l-31 -131q-43 9 -43 -79v-200q0 -556 -423 -556t-423 556v200q0 88 -43 79l-31 131q26 4 58 4q171 0 171 -193v-229q0 -413 268 -413t268 413v229q0 193 171 193q32 0 58 -4zM916 1251q0 -42 -29.5 -71.5t-71.5 -29.5t-71.5 29.5t-29.5 71.5t29.5 71.5
t71.5 29.5t71.5 -29.5t29.5 -71.5zM462 1251q0 -42 -29.5 -71.5t-71.5 -29.5t-71.5 29.5t-29.5 71.5t29.5 71.5t71.5 29.5t71.5 -29.5t29.5 -71.5z" />
    <glyph glyph-name="omicrontonos" unicode="&#x3cc;" horiz-adv-x="1027" 
d="M940 461q0 -213 -104 -344q-114 -143 -322 -143q-209 0 -322 143q-104 130 -104 344t104 345q113 143 322 143q207 0 321 -144q105 -132 105 -344zM779 461q0 354 -265 354q-266 0 -266 -354q0 -353 266 -353q265 0 265 353zM670 1550l-157 -427l-107 31l116 441z" />
    <glyph glyph-name="upsilontonos" unicode="&#x3cd;" horiz-adv-x="1216" 
d="M1105 941l-31 -131q-43 9 -43 -79v-200q0 -556 -423 -556t-423 556v200q0 88 -43 79l-31 131q26 4 58 4q171 0 171 -193v-229q0 -413 268 -413t268 413v229q0 193 171 193q32 0 58 -4zM770 1550l-157 -427l-107 31l116 441z" />
    <glyph glyph-name="omegatonos" unicode="&#x3ce;" horiz-adv-x="1436" 
d="M1343 416q0 -180 -98 -305q-107 -136 -283 -136q-181 0 -242 198h-3q-27 -87 -104.5 -142.5t-168.5 -55.5q-175 0 -270 138q-81 120 -81 303q0 173 85 314.5t240 212.5l65 -121q-111 -55 -173 -170q-58 -108 -58 -238q0 -119 39 -200q51 -106 157 -106q95 0 149 93
q45 78 45 180v198h153v-198q0 -273 163 -273q107 0 171 104q55 89 55 202q0 130 -58 237q-62 115 -173 170l65 122q155 -71 240 -212.5t85 -314.5zM890 1550l-157 -427l-107 31l116 441z" />
    <glyph glyph-name="Kai" unicode="&#x3cf;" horiz-adv-x="1240" 
d="M1192 1343l-478 -509q229 -42 345 -218q104 -158 104 -402q0 -385 -257 -546q-140 -88 -336 -88q-122 0 -242 38v153h12q112 -52 241 -52q291 0 383 278q31 94 31 217q0 131 -34 222q-68 182 -222 241q-70 27 -146 29l-260 -277v-429h-163v1343h163v-720l663 720h196z
" />
    <glyph glyph-name="betacurled" unicode="&#x3d0;" horiz-adv-x="1121" 
d="M1041 410q0 -197 -125 -316.5t-323 -119.5q-228 0 -361 187q-119 166 -119 403q0 265 141 512q166 290 406 290q88 0 157 -63t69 -150q0 -164 -208 -235q-119 -41 -344 -54q-52 -148 -52 -307t75 -292q90 -157 237 -157q126 0 209.5 87.5t83.5 214.5q0 80 -45 149
q-50 79 -126 79q-127 0 -159 -178l-144 32q20 122 91 196q78 81 197 81q138 0 239 -110t101 -249zM711 1145q0 36 -29.5 61.5t-65.5 25.5q-68 0 -146 -101q-64 -82 -93 -164q334 28 334 178z" />
    <glyph glyph-name="thetascript" unicode="&#x3d1;" horiz-adv-x="1060" 
d="M1060 615h-175q0 -232 -90 -412q-113 -228 -323 -228q-263 0 -327 260q-19 77 -63 77q-12 0 -27 -2l-31 131q26 4 58 4q163 0 214 -189q40 -147 177 -147q124 0 183 186q40 126 40 289v31q-203 -2 -246 1q-163 11 -227 65q-110 92 -110 254q0 164 106 294
q112 138 273 138q337 0 393 -597h175v-155zM696 770v20q0 151 -40 271q-57 172 -176 172q-96 0 -158 -102q-54 -88 -54 -190q0 -111 82 -148q51 -23 179 -23h167z" />
    <glyph glyph-name="Upsilonhook" unicode="&#x3d2;" horiz-adv-x="1100" 
d="M1084 1210q-233 -6 -360 -329q-96 -244 -96 -521v-360h-164v360q0 277 -96 521q-127 323 -360 329v152q128 0 216 -44q104 -52 197 -206q77 -127 125 -287q47 156 126 287q93 155 196 206q88 44 216 44v-152z" />
    <glyph glyph-name="Upsilonhooktonos" unicode="&#x3d3;" horiz-adv-x="1524" 
d="M1508 1210q-233 -6 -360 -329q-96 -244 -96 -521v-360h-164v360q0 277 -96 521q-127 323 -360 329v152q128 0 216 -44q104 -52 197 -206q77 -127 125 -287q47 156 126 287q93 155 196 206q88 44 216 44v-152zM264 1350l-157 -427l-107 31l116 441z" />
    <glyph glyph-name="Upsilonhookdieresis" unicode="&#x3d4;" horiz-adv-x="1100" 
d="M1084 1210q-233 -6 -360 -329q-96 -244 -96 -521v-360h-164v360q0 277 -96 521q-127 323 -360 329v152q128 0 216 -44q104 -52 197 -206q77 -127 125 -287q47 156 126 287q93 155 196 206q88 44 216 44v-152zM876 1606q0 -42 -29.5 -71.5t-71.5 -29.5t-71.5 29.5
t-29.5 71.5t29.5 71.5t71.5 29.5t71.5 -29.5t29.5 -71.5zM422 1606q0 -42 -29.5 -71.5t-71.5 -29.5t-71.5 29.5t-29.5 71.5t29.5 71.5t71.5 29.5t71.5 -29.5t29.5 -71.5z" />
    <glyph glyph-name="phiscript" unicode="&#x3d5;" horiz-adv-x="1327" 
d="M1240 461q0 -211 -147 -343q-136 -122 -352 -140v-418h-155v418q-216 18 -352 140q-146 132 -146 343q0 214 145 344q134 120 353 140v78h155v-78q219 -20 353 -140q146 -131 146 -344zM1079 461q0 152 -94 245q-90 89 -244 105v-699q153 16 243 105q95 93 95 244z
M586 112v699q-154 -16 -244 -105q-94 -93 -94 -245q0 -151 95 -244q90 -89 243 -105z" />
    <glyph glyph-name="omegapi" unicode="&#x3d6;" horiz-adv-x="1714" 
d="M1621 792h-251q112 -171 112 -376q0 -181 -98 -305q-107 -136 -283 -136q-180 0 -242 198h-3q-26 -87 -104 -142.5t-169 -55.5q-175 0 -270 138q-81 120 -81 303q0 205 112 376h-251v131h1528v-131zM1324 414q0 211 -128 378h-677q-128 -167 -128 -378q0 -119 39 -200
q51 -106 157 -106q96 0 150 96q44 78 44 177v98h153v-98q0 -273 163 -273q108 0 173 106q54 88 54 200z" />
    <glyph glyph-name="kai" unicode="&#x3d7;" horiz-adv-x="1027" 
d="M1005 61q0 -213 -104 -344q-114 -143 -322 -143v134q265 0 265 353q0 354 -265 354q-91 0 -159 -42q-80 -49 -80 -135v-238h-155v731q0 88 -43 79l-31 131q26 4 58 4q171 0 171 -193v-283l317 344q103 112 217 112q13 0 39 -1t39 -1v-137h-9q-11 0 -31.5 1.5t-31.5 1.5
q-65 0 -126 -66l-162 -175q202 -5 312 -149q101 -131 101 -338z" />
    <glyph glyph-name="Koppaarchaic" unicode="&#x3d8;" horiz-adv-x="1411" 
d="M1321 721q0 -274 -133 -443q-141 -179 -408 -203v-255q0 -126 134 -241v-21h-166q-81 86 -107 164q-22 67 -22 197v157q-263 26 -401 206q-129 168 -129 439q0 300 156 472q162 178 459 178q298 0 460 -178q157 -171 157 -472zM1150 721q0 231 -105 363
q-115 146 -340 146t-340 -146q-105 -132 -105 -363q0 -230 105 -362q116 -146 340 -146q225 0 340 146q105 132 105 362z" />
    <glyph glyph-name="koppaarchaic" unicode="&#x3d9;" horiz-adv-x="1027" 
d="M940 481q0 -183 -85 -305q-94 -134 -269 -157v-90q0 -137 18 -196q24 -78 108 -162v-13h-181q-100 132 -100 355v107q-171 26 -261 160q-82 121 -82 301q0 209 107 335q113 133 319 133t319 -134q107 -125 107 -334zM779 481q0 334 -265 334q-266 0 -266 -334
q0 -333 266 -333q265 0 265 333z" />
    <glyph glyph-name="Stigma" unicode="&#x3da;" horiz-adv-x="1311" 
d="M1318 1198h-590q-235 0 -357 -156q-111 -141 -111 -382q0 -239 113 -384q125 -160 357 -160h169v-556h-163v416q-318 0 -486 185q-161 178 -161 499q0 316 166 497q171 186 485 186h578v-145z" />
    <glyph glyph-name="stigma" unicode="&#x3db;" horiz-adv-x="1132" 
d="M1124 787h-583q-146 0 -224 -108q-69 -95 -69 -247q0 -243 183 -299q52 -16 198 -16q94 0 153 -62t59 -156q0 -138 -129 -261h-146v12q135 117 135 220q0 42 -22 74q-25 36 -65 36q-174 0 -255 25q-272 84 -272 427q0 221 124 354q128 137 347 137h566v-136z" />
    <glyph glyph-name="Digamma" unicode="&#x3dc;" horiz-adv-x="1026" 
d="M1008 1198h-679v-399h584v-145h-584v-654h-164v1343h843v-145z" />
    <glyph glyph-name="digamma" unicode="&#x3dd;" horiz-adv-x="912" 
d="M904 787h-411q-113 0 -155 -57q-36 -48 -36 -165v-47q0 -12 1 -29v-17h320v-131h-315v-681h-155v923q0 340 318 340h433v-136z" />
    <glyph glyph-name="Koppa" unicode="&#x3de;" horiz-adv-x="938" 
d="M878 923l-415 -1263h-145l367 1117h-625l255 691h135l-202 -545h630z" />
    <glyph glyph-name="koppa" unicode="&#x3df;" horiz-adv-x="915" 
d="M865 759l-361 -1099h-145l317 962h-626l252 682h135l-202 -545h630z" />
    <glyph glyph-name="Sampi" unicode="&#x3e0;" horiz-adv-x="1227" 
d="M1210 0h-176l-220 611l-220 -611h-167l307 832l-128 355l-427 -1187h-167l496 1343h206z" />
    <glyph glyph-name="sampi" unicode="&#x3e1;" horiz-adv-x="1050" 
d="M1028 -94q0 -150 -49 -309l-127 42q45 133 45 274q0 121 -40 257l-467 -319l-81 110l496 340q-62 114 -142 208l-500 -346l-78 109l475 331q-247 186 -538 186v134q426 0 716 -295t290 -722z" />
    <glyph glyph-name="kappascript" unicode="&#x3f0;" horiz-adv-x="1079" 
d="M1001 886q-58 -195 -191 -320q-7 -80 -7 -125q0 -124 18 -182q32 -105 126 -105q26 0 53 4v-157q-51 -23 -110 -23q-219 0 -219 473q-87 -65 -240 -165q-39 -208 -215 -309l-97 60q49 194 188 329q4 57 4 99q0 185 -35 247.5t-115 62.5q-18 0 -41 -6v161q66 20 109 20
q141 0 189 -179q24 -91 26 -293q91 64 235 143q51 239 232 330z" />
    <glyph glyph-name="rhotailed" unicode="&#x3f1;" horiz-adv-x="1092" 
d="M1005 481q0 -199 -106 -330q-115 -141 -309 -141q-157 0 -283 114q43 -425 238 -425q15 0 46 4t46 4q167 0 222 -215l-127 -31q-25 112 -95 112q-15 0 -46 -4t-46 -4q-233 0 -337 285q-72 197 -72 482q0 617 443 617q198 0 315 -137q111 -130 111 -331zM844 481
q0 334 -265 334q-175 0 -239 -150q-43 -98 -43 -298v-71q114 -147 279 -147q268 0 268 332z" />
    <glyph glyph-name="sigmalunate" unicode="&#x3f2;" horiz-adv-x="882" 
d="M835 58q-164 -79 -295 -79q-220 0 -339 131q-114 126 -114 350q0 218 116 348q122 136 337 136q144 0 295 -76v-173h-8q-147 115 -294 115q-148 0 -221 -105q-64 -91 -64 -245q0 -153 64 -243q73 -103 221 -103q95 0 183 45q66 34 111 70h8v-171z" />
    <glyph glyph-name="yot" unicode="&#x3f3;" horiz-adv-x="583" 
d="M431 -114q0 -152 -75 -238q-80 -90 -230 -90q-91 0 -177 24v148h8q82 -33 139 -33q114 0 150 66q29 53 29 194v966h156v-1037z" />
    <glyph glyph-name="Thetasymbol" unicode="&#x3f4;" horiz-adv-x="1411" 
d="M1321 671q0 -311 -150 -497q-164 -202 -467 -202q-139 0 -254 47q-231 95 -318 355q-43 129 -43 297q0 312 149 498q163 202 466 202q144 0 257 -47q360 -150 360 -653zM1146 770q-20 206 -125 327q-116 133 -316 133t-316 -133q-106 -121 -125 -327h882zM1149 625h-889
q10 -225 113 -359q116 -153 332 -153t332 153q103 135 112 359z" />
    <glyph glyph-name="epsilonlunate" unicode="&#x3f5;" horiz-adv-x="925" 
d="M854 40q-147 -61 -297 -61q-226 0 -347.5 127t-121.5 354q0 222 123 351q125 133 346 133q144 0 297 -71v-167h-10q-135 105 -296 105q-263 0 -303 -262h472v-124h-475q8 -142 85 -225q81 -88 221 -88q176 0 296 98h10v-170z" />
    <glyph glyph-name="epsilonlunatereversed" unicode="&#x3f6;" horiz-adv-x="925" 
d="M838 480q0 -225 -122 -360q-128 -141 -350 -141q-144 0 -297 62v171h10q127 -100 304 -100q140 0 219 88q73 82 82 225h-466v124h465q-33 262 -291 262q-158 0 -295 -105h-11v170q173 68 297 68q218 0 336.5 -122t118.5 -342z" />
    <glyph glyph-name="Sho" unicode="&#x3f7;" horiz-adv-x="981" 
d="M900 681q0 -372 -333 -499q-109 -42 -239 -45v-151h-163v1371h163v-141q140 -3 249 -47q323 -130 323 -488zM730 688q0 188 -114 299q-102 99 -288 103v-827q179 4 281 99q121 113 121 326z" />
    <glyph glyph-name="sho" unicode="&#x3f8;" horiz-adv-x="1054" 
d="M965 473q0 -200 -102 -338q-113 -153 -306 -153q-131 0 -249 64v-386h-155v1736h155v-570q146 123 304 123q186 0 278 -153q75 -124 75 -323zM805 469q0 332 -232 332q-127 0 -265 -105v-523q114 -52 222 -52q275 0 275 348z" />
    <glyph glyph-name="Sigmalunate" unicode="&#x3f9;" horiz-adv-x="1250" 
d="M1188 96q-52 -24 -190 -79q-116 -41 -259 -41q-319 0 -488 189q-162 181 -162 505q0 168 46 298q92 259 338 353q120 46 267 46q215 0 448 -116v-202h-4q-213 179 -456 179q-234 0 -358 -166q-110 -149 -110 -392q0 -240 113 -389q126 -165 357 -165q257 0 455 179h3
v-199z" />
    <glyph glyph-name="San" unicode="&#x3fa;" horiz-adv-x="1776" 
d="M1711 0h-167l-288 1153l-284 -1153h-170l-286 1164l-286 -1164h-160l345 1343h190l288 -1151l282 1151h185z" />
    <glyph glyph-name="san" unicode="&#x3fb;" horiz-adv-x="1653" 
d="M1653 -18q-26 -4 -58 -4q-162 0 -221 193l-173 564q-281 -382 -281 -621q0 -84 48 -111v-21q-26 -4 -58 -4q-162 0 -221 193l-173 564q-281 -382 -281 -621q0 -56 47 -93v-21h-172q-39 36 -39 93q0 204 130 442q72 132 263 388h157l179 -580q70 206 349 580h157l238 -772
q19 -39 61 -39q8 0 17 1z" />
    <glyph glyph-name="rhopavla" unicode="&#x3fc;" horiz-adv-x="1092" 
d="M1005 461q0 -209 -100 -341q-112 -146 -315 -146q-152 0 -282 111v-345h356v-127h-356v-133h-155v133h-122v127h122v721q0 214 104 345q113 143 322 143q207 0 321 -144q105 -132 105 -344zM844 461q0 354 -265 354q-271 0 -271 -354v-251q121 -97 268 -97q268 0 268 348
z" />
    <glyph glyph-name="Antisigma" unicode="&#x3fd;" horiz-adv-x="1342" 
d="M1253 670q0 -324 -162 -505q-169 -189 -488 -189q-131 0 -259 41q-42 13 -190 79v199h3q198 -179 455 -179q319 0 432 305q38 102 38 249q0 243 -110 392q-124 166 -358 166q-243 0 -456 -179h-4v202q231 116 448 116q147 0 267 -46q384 -147 384 -651z" />
    <glyph glyph-name="Sigma_periestigmenon" unicode="&#x3fe;" horiz-adv-x="1342" 
d="M934 676q0 -47 -33.5 -80.5t-80.5 -33.5t-80.5 33.5t-33.5 80.5t33.5 80.5t80.5 33.5t80.5 -33.5t33.5 -80.5zM1188 96q-102 -48 -190 -79q-115 -41 -259 -41q-319 0 -488 189q-162 181 -162 505q0 504 384 651q120 46 267 46q217 0 448 -116v-202h-4q-213 179 -456 179
q-234 0 -358 -166q-110 -149 -110 -392q0 -240 113 -389q126 -165 357 -165q257 0 455 179h3v-199z" />
    <glyph glyph-name="Antisigma_periestigmenon" unicode="&#x3ff;" horiz-adv-x="1342" 
d="M1253 670q0 -324 -162 -505q-169 -189 -488 -189q-131 0 -259 41q-42 13 -190 79v199h3q198 -179 455 -179q319 0 432 305q38 102 38 249q0 243 -110 392q-124 166 -358 166q-243 0 -456 -179h-4v202q231 116 448 116q147 0 267 -46q384 -147 384 -651zM636 676
q0 -47 -33.5 -80.5t-80.5 -33.5t-80.5 33.5t-33.5 80.5t33.5 80.5t80.5 33.5t80.5 -33.5t33.5 -80.5z" />
    <glyph glyph-name="Iegrave" unicode="&#x400;" horiz-adv-x="1130" 
d="M1035 0h-870v1343h870v-145h-706v-388h706v-145h-706v-520h706v-145zM757 1502l-94 -59l-264 371l130 82z" />
    <glyph glyph-name="afii10023" unicode="&#x401;" horiz-adv-x="1130" 
d="M1035 0h-870v1343h870v-145h-706v-388h706v-145h-706v-520h706v-145zM926 1606q0 -42 -29.5 -71.5t-71.5 -29.5t-71.5 29.5t-29.5 71.5t29.5 71.5t71.5 29.5t71.5 -29.5t29.5 -71.5zM472 1606q0 -42 -29.5 -71.5t-71.5 -29.5t-71.5 29.5t-29.5 71.5t29.5 71.5t71.5 29.5
t71.5 -29.5t29.5 -71.5z" />
    <glyph glyph-name="afii10051" unicode="&#x402;" horiz-adv-x="1420" 
d="M1362 412q0 -206 -148 -315q-132 -97 -346 -97h-92v146h76q172 0 237 47q101 73 101 215q0 147 -95 212q-73 50 -302 50h-257v-670h-164v1198h-388v145h1002v-145h-450v-388h313q133 0 200 -12q104 -19 181 -79q132 -103 132 -307z" />
    <glyph glyph-name="afii10052" unicode="&#x403;" horiz-adv-x="1011" 
d="M1018 1198h-689v-1198h-164v1343h853v-145zM827 1814l-264 -371l-94 59l228 394z" />
    <glyph glyph-name="afii10053" unicode="&#x404;" horiz-adv-x="1254" 
d="M1176 57q-208 -81 -426 -81q-151 0 -273 47q-248 95 -341 354q-47 131 -47 296q0 314 173 501q177 193 488 193q229 0 426 -80v-191h-4q-163 133 -425 133q-308 0 -429 -242q-41 -81 -56 -195h741v-143h-749q0 -257 146 -401q136 -134 350 -134q268 0 422 128h4v-185z
" />
    <glyph glyph-name="afii10054" unicode="&#x405;" horiz-adv-x="1223" 
d="M1126 380q0 -199 -173 -309q-148 -95 -358 -95q-251 0 -489 106v213h2q214 -179 489 -179q140 0 236 49q122 62 122 190q0 91 -46.5 139t-135.5 68q-87 16 -314 60q-345 71 -345 365q0 185 162 290q139 90 335 90q249 0 461 -92v-201h-2q-180 153 -460 153
q-124 0 -214 -49q-111 -60 -111 -174q0 -173 201 -215q97 -16 345 -68q295 -71 295 -341z" />
    <glyph glyph-name="afii10055" unicode="&#x406;" horiz-adv-x="748" 
d="M624 0h-515v123h175v1097h-175v123h515v-123h-176v-1097h176v-123z" />
    <glyph glyph-name="afii10056" unicode="&#x407;" horiz-adv-x="748" 
d="M624 0h-515v123h175v1097h-175v123h515v-123h-176v-1097h176v-123zM706 1606q0 -42 -29.5 -71.5t-71.5 -29.5t-71.5 29.5t-29.5 71.5t29.5 71.5t71.5 29.5t71.5 -29.5t29.5 -71.5zM252 1606q0 -42 -29.5 -71.5t-71.5 -29.5t-71.5 29.5t-29.5 71.5t29.5 71.5t71.5 29.5
t71.5 -29.5t29.5 -71.5z" />
    <glyph glyph-name="afii10057" unicode="&#x408;" horiz-adv-x="809" 
d="M643 346q0 -177 -108 -273q-103 -92 -282 -92q-112 0 -228 25v155h1q117 -40 203 -40q160 0 211 77q39 59 39 216v800h-284v129h448v-997z" />
    <glyph glyph-name="afii10058" unicode="&#x409;" horiz-adv-x="2010" 
d="M1963 413q0 -212 -159 -320q-137 -93 -360 -93h-470v1198h-491q-6 -129 -16 -386q-13 -361 -66 -526q-42 -132 -133 -216q-79 -73 -190 -73q-13 0 -38.5 1.5t-38.5 1.5v160h5q28 -3 50 -3q72 0 115 44q79 81 113 306q16 109 27 335q5 108 9 237l8 264h809v-533h312
q134 0 201 -12q107 -19 182 -78q131 -103 131 -307zM1792 409q0 145 -97 211q-54 37 -146 46q-39 4 -155 4h-257v-531h252q217 0 302 59q101 70 101 211z" />
    <glyph glyph-name="afii10059" unicode="&#x40a;" horiz-adv-x="1983" 
d="M1935 413q0 -212 -159 -320q-137 -93 -360 -93h-470v670h-617v-670h-164v1343h164v-533h617v533h163v-533h313q133 0 200 -12q107 -19 182 -78q131 -103 131 -307zM1764 409q0 145 -97 211q-54 37 -146 46q-39 4 -155 4h-257v-531h252q217 0 302 59q101 70 101 211z" />
    <glyph glyph-name="afii10060" unicode="&#x40b;" horiz-adv-x="1466" 
d="M1353 0h-164v354q0 67 -10 132q-20 130 -125 173q-56 23 -147 23q-171 0 -371 -68v-614h-164v1198h-388v145h1002v-145h-450v-444q236 77 407 77q193 0 299 -96q111 -99 111 -291v-444z" />
    <glyph glyph-name="afii10061" unicode="&#x40c;" horiz-adv-x="1240" 
d="M1221 0h-209l-546 619h-133v-619h-163v1343h163v-609q56 1 96 9q83 17 152 93q47 52 123 238q61 149 142 207q86 62 243 62h63v-146h-67q-110 0 -166 -52q-36 -34 -87 -157q-54 -132 -93 -177q-48 -56 -137 -102zM887 1814l-264 -371l-94 59l228 394z" />
    <glyph glyph-name="Icyrilgrave" unicode="&#x40d;" horiz-adv-x="1344" 
d="M1176 0h-163v1107l-679 -1107h-169v1343h163v-1091l671 1091h177v-1343zM817 1502l-94 -59l-264 371l130 82z" />
    <glyph glyph-name="afii10062" unicode="&#x40e;" horiz-adv-x="1099" 
d="M1097 1343l-506 -1132q-97 -217 -331 -217q-43 0 -87 3l-59 4v154h5l44 -5q44 -5 73 -5q18 0 51 3q69 6 120 49q28 24 50 72l34 76l-496 998h181l397 -811l356 811h168zM905 1838q-19 -327 -367 -327t-367 327h152q6 -218 215 -218t215 218h152z" />
    <glyph glyph-name="afii10145" unicode="&#x40f;" horiz-adv-x="1346" 
d="M1178 0h-430v-304h-153v304h-430v1343h164v-1202h685v1202h164v-1343z" />
    <glyph glyph-name="afii10017" unicode="&#x410;" horiz-adv-x="1223" 
d="M1206 0h-174l-132 379h-591l-132 -379h-165l483 1343h228zM850 518l-246 697l-247 -697h493z" />
    <glyph glyph-name="afii10018" unicode="&#x411;" horiz-adv-x="1227" 
d="M1164 413q0 -212 -160 -320q-137 -93 -359 -93h-480v1343h885v-145h-721v-388h321q134 0 201 -12q107 -19 182 -78q131 -103 131 -307zM992 409q0 232 -242 257q-39 4 -156 4h-265v-531h261q218 0 302 59q100 70 100 211z" />
    <glyph glyph-name="afii10019" unicode="&#x412;" horiz-adv-x="1227" 
d="M1163 410q0 -213 -165 -320q-138 -90 -364 -90h-469v1343h391q249 0 356 -56q137 -72 137 -241q0 -180 -179 -269v-18q293 -61 293 -349zM878 1022q0 159 -178 176q-62 6 -151 6h-220v-407h238q147 0 217 39q94 52 94 186zM992 403q0 158 -116 219q-71 37 -259 37h-288
v-520h244q234 0 319 59q100 70 100 205z" />
    <glyph glyph-name="afii10020" unicode="&#x413;" horiz-adv-x="1011" 
d="M1018 1198h-689v-1198h-164v1343h853v-145z" />
    <glyph glyph-name="afii10021" unicode="&#x414;" horiz-adv-x="1336" 
d="M1267 -304h-155v304h-963v-304h-155v445h105q135 224 203 583q57 299 57 619h781v-1202h127v-445zM976 141v1061h-464q-27 -683 -258 -1061h722z" />
    <glyph glyph-name="afii10022" unicode="&#x415;" horiz-adv-x="1130" 
d="M1035 0h-870v1343h870v-145h-706v-388h706v-145h-706v-520h706v-145z" />
    <glyph glyph-name="afii10024" unicode="&#x416;" horiz-adv-x="1748" 
d="M1730 0h-199l-473 621h-106v-621h-162v621h-107l-473 -621h-188l530 693q-148 97 -206 291q-20 65 -29 87q-21 50 -48 77q-48 49 -159 49h-47v146h57q152 0 232 -63q76 -59 127 -206q7 -18 24 -67q43 -126 100 -187q71 -77 187 -88v611h162v-613q194 15 270 204
q14 35 29 79q35 103 58 150q41 83 97 123q80 57 226 57h56v-146h-46q-108 0 -160 -49q-38 -35 -78 -164q-57 -180 -211 -280z" />
    <glyph glyph-name="afii10025" unicode="&#x417;" horiz-adv-x="1100" 
d="M1014 398q0 -93 -41 -170q-88 -166 -275 -222q-100 -30 -222 -30q-230 0 -418 75v189h4q204 -122 418 -122q156 0 252 65q112 76 112 224q0 252 -365 252h-174v138h154q139 0 233 47q120 60 120 186q0 149 -186 185q-52 10 -120 10q-114 0 -245 -46q-58 -20 -154 -75h-2
v187q181 76 397 76q192 0 315 -63q160 -82 160 -255q0 -114 -74 -194q-70 -75 -185 -100v-27q51 -9 105 -30q110 -44 163 -152q28 -57 28 -148z" />
    <glyph glyph-name="afii10026" unicode="&#x418;" horiz-adv-x="1344" 
d="M1176 0h-163v1107l-679 -1107h-169v1343h163v-1091l671 1091h177v-1343z" />
    <glyph glyph-name="afii10027" unicode="&#x419;" horiz-adv-x="1344" 
d="M1176 0h-163v1107l-679 -1107h-169v1343h163v-1091l671 1091h177v-1343zM1035 1838q-19 -327 -367 -327t-367 327h152q6 -218 215 -218t215 218h152z" />
    <glyph glyph-name="afii10028" unicode="&#x41a;" horiz-adv-x="1240" 
d="M1221 0h-209l-546 619h-133v-619h-163v1343h163v-609q56 1 96 9q83 17 152 93q47 52 123 238q61 149 142 207q86 62 243 62h63v-146h-67q-110 0 -166 -52q-36 -34 -87 -157q-54 -132 -93 -177q-48 -56 -137 -102z" />
    <glyph glyph-name="afii10029" unicode="&#x41b;" horiz-adv-x="1315" 
d="M1146 0h-163v1198h-500q-6 -129 -16 -386q-13 -361 -66 -526q-42 -132 -133 -216q-79 -73 -190 -73q-13 0 -38.5 1.5t-38.5 1.5v160h5q28 -3 50 -3q72 0 115 44q79 81 113 306q16 109 27 335q5 108 9 237l8 264h818v-1343z" />
    <glyph glyph-name="afii10030" unicode="&#x41c;" horiz-adv-x="1512" 
d="M1346 0h-163v1196l-386 -822h-97l-383 823v-1197h-152v1343h232l363 -766l351 766h235v-1343z" />
    <glyph glyph-name="afii10031" unicode="&#x41d;" horiz-adv-x="1346" 
d="M1178 0h-164v665h-685v-665h-164v1343h164v-533h685v533h164v-1343z" />
    <glyph glyph-name="afii10032" unicode="&#x41e;" horiz-adv-x="1411" 
d="M1321 671q0 -311 -150 -497q-164 -202 -467 -202q-139 0 -254 47q-231 95 -318 355q-43 129 -43 297q0 312 149 498q163 202 466 202q144 0 257 -47q360 -150 360 -653zM1150 671q0 241 -99 387q-116 172 -346 172t-346 -171q-99 -146 -99 -388q0 -240 99 -387
q117 -171 346 -171t346 171q99 147 99 387z" />
    <glyph glyph-name="afii10033" unicode="&#x41f;" horiz-adv-x="1346" 
d="M1178 0h-164v1198h-685v-1198h-164v1343h1013v-1343z" />
    <glyph glyph-name="afii10034" unicode="&#x420;" horiz-adv-x="1077" 
d="M1029 940q0 -179 -116 -296q-136 -138 -398 -138h-186v-506h-164v1343h357q121 0 203 -20q184 -45 263 -190q41 -76 41 -193zM858 936q0 267 -345 267h-184v-558h158q371 0 371 291z" />
    <glyph glyph-name="afii10035" unicode="&#x421;" horiz-adv-x="1250" 
d="M1188 96q-52 -24 -190 -79q-116 -41 -259 -41q-319 0 -488 189q-162 181 -162 505q0 168 46 298q92 259 338 353q120 46 267 46q215 0 448 -116v-202h-4q-213 179 -456 179q-234 0 -358 -166q-110 -149 -110 -392q0 -240 113 -389q126 -165 357 -165q257 0 455 179h3
v-199z" />
    <glyph glyph-name="afii10036" unicode="&#x422;" horiz-adv-x="1101" 
d="M1108 1198h-480v-1198h-163v1198h-480v145h1123v-145z" />
    <glyph glyph-name="afii10037" unicode="&#x423;" horiz-adv-x="1099" 
d="M1097 1343l-506 -1132q-97 -217 -331 -217q-43 0 -87 3l-59 4v154h5l44 -5q44 -5 73 -5q18 0 51 3q69 6 120 49q28 24 50 72l34 76l-496 998h181l397 -811l356 811h168z" />
    <glyph glyph-name="afii10038" unicode="&#x424;" horiz-adv-x="1468" 
d="M1388 681q0 -372 -333 -499q-109 -42 -240 -45v-151h-163v151q-128 3 -236 43q-336 125 -336 501q0 229 144 374q152 153 428 161v141h163v-141q139 -3 249 -47q206 -83 285 -273q39 -94 39 -215zM1217 688q0 189 -113 299q-102 99 -289 103v-827q181 4 282 99
q120 113 120 326zM652 263v827q-104 -1 -169 -26q-232 -89 -232 -376q0 -215 120 -326q105 -97 281 -99z" />
    <glyph glyph-name="afii10039" unicode="&#x425;" horiz-adv-x="1226" 
d="M1168 1343l-458 -664l457 -679h-188l-370 565l-379 -565h-177l463 671l-452 672h187l366 -558l374 558h177z" />
    <glyph glyph-name="afii10040" unicode="&#x426;" horiz-adv-x="1364" 
d="M1296 -304h-155v307h-976v1340h164v-1197h676v1197h164v-1197h127v-450z" />
    <glyph glyph-name="afii10041" unicode="&#x427;" horiz-adv-x="1275" 
d="M1105 0h-164v577q-249 -77 -413 -77q-194 0 -302 95q-113 100 -113 292v456h164v-365q0 -167 51 -238q64 -89 237 -89q202 0 376 66v626h164v-1343z" />
    <glyph glyph-name="afii10042" unicode="&#x428;" horiz-adv-x="1851" 
d="M1693 0h-1528v1343h164v-1201h518v1201h164v-1201h518v1201h164v-1343z" />
    <glyph glyph-name="afii10043" unicode="&#x429;" horiz-adv-x="1878" 
d="M1820 -304h-155v307h-1500v1340h164v-1199h518v1199h164v-1199h518v1199h164v-1199h127v-448z" />
    <glyph glyph-name="afii10044" unicode="&#x42a;" horiz-adv-x="1404" 
d="M1345 413q0 -212 -160 -320q-137 -93 -360 -93h-470v1198h-370v145h533v-533h313q133 0 200 -12q106 -19 182 -78q132 -103 132 -307zM1173 409q0 232 -242 257q-39 4 -156 4h-257v-531h252q217 0 302 59q101 70 101 211z" />
    <glyph glyph-name="afii10045" unicode="&#x42b;" horiz-adv-x="1652" 
d="M1490 0h-164v1343h164v-1343zM1155 413q0 -212 -160 -320q-137 -93 -359 -93h-471v1343h164v-533h312q134 0 201 -12q107 -19 182 -78q131 -103 131 -307zM983 409q0 232 -242 257q-39 4 -156 4h-256v-531h252q218 0 302 59q100 70 100 211z" />
    <glyph glyph-name="afii10046" unicode="&#x42c;" horiz-adv-x="1218" 
d="M1155 413q0 -212 -160 -320q-137 -93 -359 -93h-471v1343h164v-533h312q134 0 201 -12q107 -19 182 -78q131 -103 131 -307zM983 409q0 232 -242 257q-39 4 -156 4h-256v-531h252q218 0 302 59q100 70 100 211z" />
    <glyph glyph-name="afii10047" unicode="&#x42d;" horiz-adv-x="1255" 
d="M1161 677q0 -310 -174 -502q-180 -199 -487 -199q-236 0 -428 80v187h5q161 -129 425 -129q227 0 361 149t134 386h-733v143h725q-14 118 -56 199q-124 238 -431 238q-250 0 -421 -131h-5v188q196 81 426 81q322 0 493 -185q166 -180 166 -505z" />
    <glyph glyph-name="afii10048" unicode="&#x42e;" horiz-adv-x="1858" 
d="M1777 671q0 -309 -146 -495q-161 -204 -463 -204q-297 0 -456 199q-146 180 -152 486h-231v-657h-164v1343h164v-544h239q31 264 182 414q158 158 418 158q302 0 463 -204q146 -186 146 -496zM1606 671q0 240 -96 386q-113 173 -341 173q-230 0 -344 -172
q-96 -146 -96 -387q0 -239 97 -386q115 -172 343 -172q227 0 341 173q96 147 96 385z" />
    <glyph glyph-name="afii10049" unicode="&#x42f;" horiz-adv-x="1264" 
d="M1094 0h-164v540h-301l-401 -540h-196l429 564q-289 99 -289 400q0 189 153 298q113 81 334 81h435v-1343zM930 675v528h-280q-143 0 -214 -48q-92 -62 -92 -198q0 -282 314 -282h272z" />
    <glyph glyph-name="afii10065" unicode="&#x430;" horiz-adv-x="1016" 
d="M870 0h-154v98q-40 -29 -124 -79q-95 -45 -208 -45q-128 0 -213 83t-85 211q0 196 173 272q120 53 457 70v24q0 104 -77 145q-56 29 -171 29q-127 0 -292 -63h-8v158q154 42 301 42q401 0 401 -319v-626zM716 227v257q-68 -4 -162 -10q-98 -9 -158 -26
q-150 -42 -150 -170q0 -159 194 -159q135 0 276 108z" />
    <glyph glyph-name="afii10066" unicode="&#x431;" horiz-adv-x="1039" 
d="M949 454q0 -197 -114 -334q-122 -146 -315 -146q-424 0 -424 613q0 136 32 279q40 178 124 263q121 122 414 148q31 3 121 9l101 7v-143l-108 -6q-189 -11 -297 -43q-149 -45 -191 -181q-22 -71 -28 -134q145 105 293 105q189 0 294 -125q98 -118 98 -312zM791 445
q0 138 -64 217q-70 87 -204 87q-133 0 -264 -84q-4 -51 -4 -99q0 -457 271 -457q136 0 206 104q59 90 59 232z" />
    <glyph glyph-name="afii10067" unicode="&#x432;" horiz-adv-x="1006" 
d="M915 279q0 -147 -122 -220q-100 -59 -258 -59h-382v923h357q181 0 254 -38q101 -53 101 -174q0 -134 -139 -198v-8q189 -46 189 -226zM706 687q0 65 -52 91q-42 21 -185 21h-162v-253h194q205 0 205 141zM754 278q0 89 -80 127q-44 21 -168 21h-199v-302h147
q171 0 229 33q71 40 71 121z" />
    <glyph glyph-name="afii10068" unicode="&#x433;" horiz-adv-x="797" 
d="M789 787h-481v-787h-155v923h636v-136z" />
    <glyph glyph-name="afii10069" unicode="&#x434;" horiz-adv-x="1052" 
d="M991 -221h-145v223h-694v-223h-145v353h100q192 316 192 791h580v-791h112v-353zM724 132v660h-279q-20 -394 -185 -660h464z" />
    <glyph glyph-name="afii10070" unicode="&#x435;" horiz-adv-x="1008" 
d="M925 445h-680q0 -156 86.5 -243.5t241.5 -87.5q78 0 172 31q101 33 154 81h8v-170q-184 -77 -332 -77q-230 0 -358.5 124t-128.5 353q0 217 114 351q121 142 334 142q193 0 294 -115q95 -108 95 -304v-85zM774 564q0 257 -246 257q-118 0 -195 -69.5t-88 -187.5h529z" />
    <glyph glyph-name="afii10072" unicode="&#x436;" horiz-adv-x="1350" 
d="M1311 0h-188l-296 421h-75v-421h-154v421h-67l-309 -421h-179l356 483q-85 45 -128 181q-22 70 -51 95q-33 30 -102 30h-44v134h57q197 0 264 -186q26 -72 41 -102q54 -106 162 -112v400h154v-400q118 7 167 118q22 49 38 96q65 186 262 186h57v-134h-44q-68 0 -102 -30
q-30 -27 -51 -95q-40 -129 -124 -176z" />
    <glyph glyph-name="afii10073" unicode="&#x437;" horiz-adv-x="887" 
d="M795 259q0 -145 -128 -219q-105 -61 -260 -61q-188 0 -353 74v170h10q127 -111 335 -111q237 0 237 157q0 90 -75 123q-51 22 -169 22h-135v134h93q124 0 173 16q93 30 93 121q0 127 -204 127q-188 0 -302 -88h-11v171q155 50 304 50q246 0 337 -127q35 -49 35 -120
q0 -154 -166 -206v-6q186 -45 186 -227z" />
    <glyph glyph-name="afii10074" unicode="&#x438;" horiz-adv-x="1083" 
d="M930 0h-153v693l-484 -693h-140v923h154v-683l478 683h145v-923z" />
    <glyph glyph-name="afii10075" unicode="&#x439;" horiz-adv-x="1083" 
d="M930 0h-153v693l-484 -693h-140v923h154v-683l478 683h145v-923zM828 1428q-9 -272 -290 -272t-290 272h141q0 -164 149 -164t149 164h141z" />
    <glyph glyph-name="afii10076" unicode="&#x43a;" horiz-adv-x="1001" 
d="M986 0h-203l-384 423h-84v-423h-156v923h156v-398q142 0 204 116q6 11 45 96q47 101 113.5 143.5t178.5 42.5h71v-134h-68q-116 0 -169 -125q-55 -130 -148 -174z" />
    <glyph glyph-name="afii10077" unicode="&#x43b;" horiz-adv-x="1050" 
d="M897 0h-155v792h-345l-5 -132q-1 -23 -4 -115q-11 -246 -54 -357q-32 -81 -97 -140q-56 -50 -137 -50q-13 0 -38 1t-38 1v136h8q7 0 20 -1t20 -1q50 0 77 27q86 85 101 424q3 54 7 161l5 177h635v-923z" />
    <glyph glyph-name="afii10078" unicode="&#x43c;" horiz-adv-x="1178" 
d="M1025 0h-153v729l-230 -474h-116l-228 474v-729h-145v923h187l252 -516l243 516h190v-923z" />
    <glyph glyph-name="afii10079" unicode="&#x43d;" horiz-adv-x="1078" 
d="M925 0h-155v416h-462v-416h-155v923h155v-374h462v374h155v-923z" />
    <glyph glyph-name="afii10080" unicode="&#x43e;" horiz-adv-x="1027" 
d="M940 461q0 -213 -104 -344q-114 -143 -322 -143q-209 0 -322 143q-104 130 -104 344t104 345q113 143 322 143q207 0 321 -144q105 -132 105 -344zM779 461q0 354 -265 354q-266 0 -266 -354q0 -353 266 -353q265 0 265 353z" />
    <glyph glyph-name="afii10081" unicode="&#x43f;" horiz-adv-x="1078" 
d="M925 0h-155v789h-462v-789h-155v923h772v-923z" />
    <glyph glyph-name="afii10082" unicode="&#x440;" horiz-adv-x="1054" 
d="M965 473q0 -200 -102 -338q-113 -153 -306 -153q-131 0 -249 64v-386h-155v1263h155v-97q146 123 304 123q186 0 278 -153q75 -124 75 -323zM805 469q0 332 -232 332q-127 0 -265 -105v-523q114 -52 222 -52q275 0 275 348z" />
    <glyph glyph-name="afii10083" unicode="&#x441;" horiz-adv-x="904" 
d="M844 58q-168 -79 -299 -79q-222 0 -341 130q-116 127 -116 351q0 219 118 349q122 135 339 135q145 0 299 -76v-173h-9q-151 115 -297 115q-148 0 -223 -105q-66 -92 -66 -245q0 -154 66 -244q74 -102 223 -102q95 0 185 45q67 33 112 70h9v-171z" />
    <glyph glyph-name="afii10084" unicode="&#x442;" horiz-adv-x="840" 
d="M831 787h-334v-787h-155v787h-334v136h823v-136z" />
    <glyph glyph-name="afii10085" unicode="&#x443;" horiz-adv-x="1001" 
d="M951 923l-539 -1263h-166l172 385l-368 878h169l283 -684l286 684h163z" />
    <glyph glyph-name="afii10086" unicode="&#x444;" horiz-adv-x="1423" 
d="M1331 486q0 -196 -86 -335q-103 -164 -287 -164q-59 0 -170 53v-380h-153v380q-73 -35 -88 -40q-38 -13 -97 -13q-183 0 -278 151q-80 128 -80 321q0 222 116 361q104 124 255 124q81 0 172 -56v398h153v-398q95 56 193 56q180 0 273 -145q77 -122 77 -313zM1172 469
q0 341 -225 341q-69 0 -159 -36v-615q83 -39 139 -39q245 0 245 349zM635 159v615q-77 36 -139 36q-245 0 -245 -344q0 -140 45 -229q59 -117 185 -117q63 0 154 39z" />
    <glyph glyph-name="afii10087" unicode="&#x445;" horiz-adv-x="1001" 
d="M952 0h-196l-262 354l-263 -354h-181l360 460l-357 463h196l260 -349l261 349h182l-363 -454z" />
    <glyph glyph-name="afii10088" unicode="&#x446;" horiz-adv-x="1091" 
d="M1030 -221h-145v221h-732v923h155v-789h455v789h155v-789h112v-355z" />
    <glyph glyph-name="afii10089" unicode="&#x447;" horiz-adv-x="1025" 
d="M872 0h-156v354q-166 -51 -293 -51q-306 0 -306 285v335h156v-256q0 -119 34 -167q43 -61 169 -61q116 0 240 37v447h156v-923z" />
    <glyph glyph-name="afii10090" unicode="&#x448;" horiz-adv-x="1482" 
d="M1330 0h-1177v923h155v-789h356v789h155v-789h355v789h156v-923z" />
    <glyph glyph-name="afii10091" unicode="&#x449;" horiz-adv-x="1502" 
d="M1441 -221h-145v221h-1143v923h155v-789h356v789h155v-789h355v789h156v-789h111v-355z" />
    <glyph glyph-name="afii10092" unicode="&#x44a;" horiz-adv-x="1084" 
d="M1008 286q0 -148 -119 -223q-100 -63 -257 -63h-353v787h-271v136h427v-359h201q372 0 372 -278zM848 283q0 89 -62 126q-49 29 -206 29h-145v-314h142q151 0 206 34q65 40 65 125z" />
    <glyph glyph-name="afii10093" unicode="&#x44b;" horiz-adv-x="1344" 
d="M1192 0h-156v923h156v-923zM882 286q0 -148 -119 -223q-100 -63 -257 -63h-353v923h155v-359h202q372 0 372 -278zM721 283q0 89 -62 126q-48 29 -205 29h-146v-314h142q152 0 207 34q64 40 64 125z" />
    </font>
</defs>
</svg>
