<?xml version="1.0" standalone="no"?>
<!DOCTYPE svg PUBLIC "-//W3C//DTD SVG 1.1//EN" "http://www.w3.org/Graphics/SVG/1.1/DTD/svg11.dtd" >
<svg>
<metadata>
Created by FontForge 20120731 at Mon Apr 15 11:39:13 2019
 By www-data
(c) 2018 Unicode Fonts for Ancient Scripts; all rights reserved.
</metadata>
<defs>
<font id="AseaBold" horiz-adv-x="963" >
  <font-face 
    font-family="Asea"
    font-weight="700"
    font-stretch="normal"
    units-per-em="2048"
    panose-1="2 7 8 2 8 8 5 6 8 3"
    ascent="1638"
    descent="-410"
    x-height="754"
    cap-height="1316"
    bbox="-1024 -682 4701 1683"
    underline-thickness="70"
    underline-position="-525"
    unicode-range="U+000D-1D245"
  />
<missing-glyph horiz-adv-x="1152" 
d="M1040 0h-928v1494h928v-1494zM912 128v1238h-672v-1238h672zM810 984q0 -177 -232 -269l-25 -157h-71l-21 213q202 34 202 187q0 157 -334 157l25 107h8q448 0 448 -238zM613 352q0 -39 -28.5 -67.5t-67.5 -28.5t-67.5 28.5t-28.5 67.5q0 40 28.5 68.5t67.5 28.5
t67.5 -28.5t28.5 -68.5z" />
    <glyph glyph-name="IJ" unicode="IJ" horiz-adv-x="1414" 
d="M1367 1255q0 -17 -61 -23q-69 -6 -93 -49t-24 -141v-999q0 -236 -91 -392q-111 -190 -330 -190q-71 0 -123 42q-57 45 -57 115q0 45 35 73q32 27 78 27q59 0 103.5 -76t65.5 -76q68 0 68 123v1353q0 82 -14 120q-22 61 -88 68l-58 7q-11 1 -14.5 4.5t-3.5 56.5
q0 18 27 18h8q45 0 134 -4.5t134 -4.5t134.5 4.5t134.5 4.5h11q23 0 25 -19q-1 11 -1 -42zM667 8q0 -17 -28 -17h-7q-45 0 -134 4.5t-134 4.5t-134 -4.5t-134 -4.5h-8q-26 0 -29 18q1 -6 1 43q0 17 62 23q69 6 94 50q22 41 22 133v790q0 171 -101 182l-59 7q-10 1 -14 4.5
t-4 56.5q0 18 25 18h11q44 0 133.5 -4.5t133.5 -4.5q45 0 134.5 4.5t134.5 4.5h11q23 0 26 -19q-2 11 -2 -42q0 -17 -61 -23q-69 -6 -92.5 -49t-23.5 -135v-790q0 -171 101 -182l59 -6q10 -1 13.5 -5t3.5 -57z" />
    <glyph glyph-name="ij" unicode="ij" horiz-adv-x="994" 
d="M895 1079q0 -53 -37.5 -90t-89.5 -37t-89.5 37t-37.5 90t37.5 90t89.5 37t89.5 -37t37.5 -90zM410 1079q0 -53 -37.5 -90t-89.5 -37q-53 0 -90 37t-37 90t37 90t90 37q52 0 89.5 -37t37.5 -90zM872 -135q0 -124 -91 -222q-85 -90 -210 -122h-4q-6 0 -15 21.5t-9 29.5
q0 3 6 6q45 23 65 43q62 58 62 133v733q0 64 -12 84q-10 15 -56 34q-41 17 -41 36q0 13 6 23q3 4 137.5 58t145.5 54q16 0 16 -16v-895zM492 6q0 -14 -15 -14h-14q-95 8 -176 8q-77 0 -172 -8h-9q-22 0 -22 20q0 5 1 14.5t1 14.5q0 12 39 17q44 7 54.5 29t10.5 87v313
q0 64 -12 84q-9 15 -56 34q-40 17 -40 36q0 13 6 23q3 4 137.5 58t145.5 54q16 0 16 -16v-572q0 -83 8 -100q12 -23 56 -30q41 -5 41 -17v-35z" />
    <glyph glyph-name="OE" unicode="Oe" horiz-adv-x="2035" 
d="M2011 274q0 -5 -85 -256q-9 -26 -20 -25l-733 7q-68 0 -116 -4q-45 -7 -136 -18q-48 -4 -102 -4q-314 0 -531.5 186.5t-217.5 456.5q0 300 217.5 508.5t481.5 208.5q25 0 50 -1l341 -26h159h-84l627 7q20 0 20 -25v-276q0 -17 -57 -17q-14 0 -17 17l-13 75
q-12 73 -69.5 102t-256.5 29q-89 0 -119.5 -30.5t-30.5 -119.5v-341h227q73 0 100 37q16 22 37 106q2 7 7.5 12.5t52.5 5.5q19 0 19 -18q0 11 -6.5 -59t-6.5 -130q0 -59 6.5 -129t6.5 -59q0 -18 -60 -18q-14 0 -32 70q-23 92 -124 92h-227v-375q0 -96 11 -121
q21 -48 104 -53q23 -2 60 -2h44q163 0 247 32t121.5 107.5t48.5 75.5q14 0 33 -7q23 -9 23 -21zM1067 247v791q0 60 -32 112q-55 92 -221 92q-216 0 -348 -132t-132 -348q0 -293 145.5 -495.5t355.5 -202.5q149 0 199 75q33 49 33 108z" />
    <glyph glyph-name="oe" unicode="oe" horiz-adv-x="1391" 
d="M1341 502q0 -29 -8 -34.5t-39 -6.5l-442 -12v-23q0 -134 77.5 -213.5t211.5 -79.5q60 0 114 41t48 41q6 0 20 -15t14 -22q0 -5 -4 -12q-113 -189 -332 -189q-133 0 -237 123q-127 -123 -281 -123q-161 0 -274 104q-117 107 -117 267q0 172 109 294q112 126 282 126
q174 0 303 -133q126 133 271 133q284 0 284 -266zM1151 580q0 23 -12 47q-36 67 -117 67q-132 0 -162 -170l205 6q86 3 86 50zM682 311q0 162 -63.5 272.5t-153.5 110.5q-178 0 -178 -260q0 -162 63.5 -272.5t153.5 -110.5q178 0 178 260z" />
    <glyph glyph-name="ff" unicode="ff" horiz-adv-x="1198" 
d="M1249 1241q0 -39 -25.5 -66.5t-64.5 -27.5q-31 0 -74.5 37t-66.5 37q-62 0 -62 -95v-381h162q23 0 23 -32q0 -41 -23 -41h-162v-475q0 -81 13 -105q14 -27 69 -34q49 -5 49 -17v-35q0 -14 -28 -14q-31 0 -94 4t-95 4q-31 0 -93 -4t-93 -4t-31 20q0 5 1 14.5t1 14.5
q0 12 41.5 18.5t52.5 28t11 88.5v496h-367v-475q0 -81 13 -105q14 -27 69 -34q49 -5 49 -17v-35q0 -14 -28 -14q-32 0 -95 4t-94 4t-93 -4t-93 -4t-31 20q0 5 1 14.5t1 14.5q0 12 39 18q44 7 55 28.5t11 88.5v496h-103q-20 0 -20 30q0 43 20 43h103v68q0 184 123.5 313
t305.5 129q130 0 239 -60q104 136 261 136q46 0 81 -22q42 -25 42 -68zM817 1118q-87 52 -208 52q-216 0 -216 -178v-247h367v129q0 128 57 244z" />
    <glyph glyph-name="fi" unicode="fi" horiz-adv-x="1104" 
d="M1063 6q0 -14 -14 -14h-15q-95 8 -176 8q-77 0 -172 -8h-8q-23 0 -23 20q0 5 1 14.5t1 14.5q0 12 41.5 18t52.5 28t11 87v367q0 131 -98 131h-271v-475q0 -81 13 -105q14 -27 69 -34q49 -5 49 -17v-35q0 -14 -28 -14q-32 0 -95 4t-94 4t-93 -4t-93 -4t-31 20q0 5 1 14.5
t1 14.5q0 12 39 18q44 7 55 28.5t11 88.5v496h-103q-20 0 -20 30q0 43 20 43h103v129q0 184 103 315q111 142 290 142q123 0 224 -35q142 -49 142 -147q0 -52 -37.5 -86.5t-91.5 -34.5q-53 0 -90 34t-37 87q0 96 -110 96q-68 0 -125 -26q-72 -33 -72 -93v-381h455
q11 0 49 15.5t45 15.5q16 0 16 -16v-572q0 -83 9 -100q11 -23 56 -30q40 -5 40 -17v-35z" />
    <glyph glyph-name="fl" unicode="fl" horiz-adv-x="1116" 
d="M1061 6q0 -14 -12 -14h-17q-95 8 -174 8t-174 -8h-10q-21 0 -21 20q0 5 1 14.5t1 14.5q0 12 41.5 18t52.5 28.5t11 82.5v932q0 143 -170 143q-68 0 -125 -26q-72 -33 -72 -93v-381h162q23 0 23 -32q0 -41 -23 -41h-162v-475q0 -81 13 -105q14 -27 69 -34q49 -5 49 -17
v-35q0 -14 -28 -14q-32 0 -95 4t-94 4t-93 -4t-93 -4t-31 20q0 5 1 14.5t1 14.5q0 12 39 18q44 7 55 28.5t11 88.5v496h-103q-20 0 -20 30q0 43 20 43h103v129q0 184 103 315q111 142 290 142q136 0 244 -43l100 41q22 1 22 -16v-1125q0 -78 11 -100.5t55 -28.5
q39 -6 39 -18v-35z" />
    <glyph glyph-name="ffi" unicode="ffi" horiz-adv-x="1667" 
d="M1626 6q0 -14 -14 -14h-15q-95 8 -176 8q-76 0 -172 -8h-8q-22 0 -22 20q0 5 1 14.5t1 14.5q0 12 39 17q43 7 54 29t11 87v367q0 131 -98 131h-271v-475q0 -81 13 -105q14 -27 69 -34q49 -5 49 -17v-35q0 -14 -28 -14q-31 0 -94 4t-95 4q-31 0 -93 -4t-93 -4t-31 20
q0 5 1 14.5t1 14.5q0 12 41.5 18.5t52.5 28t11 88.5v496h-367v-475q0 -81 13 -105q14 -27 69 -34q49 -5 49 -17v-35q0 -14 -28 -14q-32 0 -95 4t-94 4t-93 -4t-93 -4t-31 20q0 5 1 14.5t1 14.5q0 12 39 18q44 7 55 28.5t11 88.5v496h-103q-20 0 -20 30q0 43 20 43h103v68
q0 184 123.5 313t305.5 129q131 0 241 -61q111 137 286 137q123 0 225 -35q142 -49 142 -147q0 -52 -38 -86.5t-91 -34.5t-90 34t-37 87q0 96 -111 96q-68 0 -124 -26q-73 -33 -73 -93v-381h455q11 0 49 15.5t45 15.5q17 0 17 -16v-572q0 -83 8 -100q11 -23 56 -30
q40 -5 40 -17v-35zM817 1118q-87 52 -208 52q-216 0 -216 -178v-247h367v129q0 132 57 244z" />
    <glyph glyph-name="ffl" unicode="ffl" horiz-adv-x="1679" 
d="M1624 6q0 -14 -12 -14h-17q-95 8 -174 8t-174 -8h-10q-20 0 -20 20q0 5 1 14.5t1 14.5q0 12 39 18q44 6 54.5 28.5t10.5 82.5v932q0 143 -170 143q-68 0 -124 -26q-73 -33 -73 -93v-381h162q23 0 23 -32q0 -41 -23 -41h-162v-475q0 -81 13 -105q14 -27 69 -34
q49 -5 49 -17v-35q0 -14 -28 -14q-31 0 -94 4t-95 4q-31 0 -93 -4t-93 -4t-31 20q0 5 1 14.5t1 14.5q0 12 41.5 18.5t52.5 28t11 88.5v496h-367v-475q0 -81 13 -105q14 -27 69 -34q49 -5 49 -17v-35q0 -14 -28 -14q-32 0 -95 4t-94 4t-93 -4t-93 -4t-31 20q0 5 1 14.5
t1 14.5q0 12 39 18q44 7 55 28.5t11 88.5v496h-103q-20 0 -20 30q0 43 20 43h103v68q0 184 123.5 313t305.5 129q131 0 241 -61q111 137 286 137q136 0 244 -43l100 41q22 1 22 -16v-1125q0 -78 11 -100.5t55 -28.5q39 -6 39 -18v-35zM817 1118q-87 52 -208 52
q-216 0 -216 -178v-247h367v129q0 132 57 244z" />
    <glyph glyph-name="ffj" unicode="ffj" horiz-adv-x="1644" 
d="M1522 -74q0 -123 -90 -221q-85 -91 -209 -123h-4q-6 0 -15.5 22t-9.5 29q0 4 4 7q24 12 68 43q59 55 59 133v725q0 131 -98 131h-270v-475q0 -81 12 -105q14 -27 69 -34q50 -5 50 -17v-35q0 -14 -29 -14q-31 0 -94 4t-94 4q-32 0 -93.5 -4t-93.5 -4q-30 0 -30 20
q0 5 1 14.5t1 14.5q0 12 39 18q44 7 54.5 28.5t10.5 88.5v496h-367v-475q0 -81 13 -105q14 -27 69 -34q50 -5 50 -17v-35q0 -14 -29 -14q-31 0 -94 4t-95 4q-31 0 -93 -4t-93 -4t-31 20q0 5 1 14.5t1 14.5q0 12 41.5 18.5t52.5 28t11 88.5v496h-103q-20 0 -20 30q0 43 20 43
h103v68q0 184 123.5 313t305.5 129q130 0 239 -60q105 136 262 136q45 0 81 -22q42 -25 42 -68q0 -39 -26 -66.5t-65 -27.5q-31 0 -74 37t-67 37q-61 0 -61 -95v-381h448q18 0 56 15.5t45 15.5q16 0 16 -16v-834zM817 1118q-87 52 -208 52q-216 0 -216 -178v-247h367v129
q0 128 57 244z" />
    <glyph glyph-name="fj" unicode="fj" horiz-adv-x="1080" 
d="M958 -74q0 -123 -90 -221q-84 -91 -209 -123h-4q-6 0 -15 22t-9 29q0 4 4 7q24 12 67 43q60 55 60 133v725q0 131 -98 131h-271v-475q0 -81 13 -105q14 -27 69 -34q49 -5 49 -17v-35q0 -14 -28 -14q-32 0 -95 4t-94 4t-93 -4t-93 -4t-31 20q0 5 1 14.5t1 14.5q0 12 39 18
q44 7 55 28.5t11 88.5v496h-103q-20 0 -20 30q0 43 20 43h103v129q0 173 95 307q106 150 271 150q45 0 81 -22q42 -25 42 -68q0 -39 -25.5 -66.5t-64.5 -27.5q-31 0 -74.5 37t-66.5 37q-62 0 -62 -95v-381h449q17 0 55 15.5t45 15.5q16 0 16 -16v-834z" />
    <glyph glyph-name="Nig" unicode="Nig" horiz-adv-x="3117" 
d="M2024 1079q0 -53 -37.5 -90t-89.5 -37q-53 0 -90 37t-37 90t37 90t90 37q52 0 89.5 -37t37.5 -90zM3063 -96q0 -153 -153 -244q-130 -78 -293 -78q-365 0 -365 256l199 94q-101 15 -141.5 62t-40.5 149l182 127q-79 26 -131 80q-59 61 -59 137q0 128 110 209
q99 72 232 72q151 0 245 -74h199q16 0 16 -16v-74q0 -16 -16 -16h-113q9 -31 9 -62q0 -128 -109 -207q-98 -71 -231 -71q-44 0 -90 8q-72 -37 -72 -82q0 -53 143 -53h164q133 0 224 -63t91 -154zM2106 6q0 -14 -15 -14h-14q-95 8 -176 8q-77 0 -172 -8h-9q-22 0 -22 20
q0 5 1 14.5t1 14.5q0 12 39 17q44 7 54.5 29t10.5 87v313q0 64 -12 84q-9 15 -56 34q-40 17 -40 36q0 13 6 23q3 4 137.5 58t145.5 54q16 0 16 -16v-572q0 -83 8 -100q12 -23 56 -30q41 -5 41 -17v-35zM1581 1255q0 -17 -61 -23q-70 -6 -93.5 -49.5t-23.5 -134.5v-864
q0 -66 3 -143q0 -7 1.5 -26.5t1.5 -30.5q0 -31 -72 -31q-13 0 -21 9l-945 1099v-803q0 -171 101 -182l59 -6q10 -1 13.5 -5t3.5 -57q0 -17 -27 -17h-8q-32 0 -97 4.5t-97 4.5q-33 0 -97.5 -4.5t-96.5 -4.5h-9q-25 0 -28 19q1 -8 1 42q0 17 62 23q69 6 93 50q23 41 23 133
v790q0 120 -50 155q-34 23 -165 34q-8 0 -19 5q-5 4 -5 56q0 18 26 18h9q33 0 99 -4.5t99 -4.5q58 0 133 4.5t64 4.5q27 0 120 -108l721 -837v677q0 171 -101 182l-59 7q-9 1 -13 5t-4 56q0 19 24 19q32 0 101 -5t104 -5t104.5 5t102.5 5q22 0 25 -20q-2 17 -2 -42z
M2750 461q0 86 -38 156q-45 85 -124 85q-133 0 -133 -149q0 -86 37 -155q45 -85 123 -85q135 0 135 148zM2889 -182q0 108 -165 108q-17 0 -46 -1t-41 -1q-87 0 -124 2q-86 -41 -86 -125q0 -69 78 -109q64 -32 141 -32q243 0 243 158z" />
    <glyph glyph-name="Rig" unicode="Rig" horiz-adv-x="2907" 
d="M1814 1079q0 -53 -37.5 -90t-89.5 -37q-53 0 -90 37t-37 90t37 90t90 37q52 0 89.5 -37t37.5 -90zM2853 -96q0 -153 -153 -244q-130 -78 -293 -78q-365 0 -365 256l199 94q-101 15 -141.5 62t-40.5 149l182 127q-79 26 -131 80q-59 61 -59 137q0 128 110 209
q99 72 232 72q151 0 245 -74h199q16 0 16 -16v-74q0 -16 -16 -16h-113q9 -31 9 -62q0 -128 -109 -207q-98 -71 -231 -71q-44 0 -90 8q-72 -37 -72 -82q0 -53 143 -53h164q133 0 224 -63t91 -154zM1896 6q0 -14 -15 -14h-14q-95 8 -176 8q-77 0 -172 -8h-9q-22 0 -22 20
q0 5 1 14.5t1 14.5q0 12 39 17q44 7 54.5 29t10.5 87v313q0 64 -12 84q-9 15 -56 34q-40 17 -40 36q0 13 6 23q3 4 137.5 58t145.5 54q16 0 16 -16v-572q0 -83 8 -100q12 -23 56 -30q41 -5 41 -17v-35zM1426 8q0 -17 -28 -17q-36 0 -99 4q-71 5 -99 6l-129 -2q-26 0 -50 36
l-294 464q-58 91 -99 119q-51 35 -148 35v-388q0 -178 108 -189l63 -6q6 -1 16 -5q4 -3 4 -57q0 -17 -28 -17h-7q-46 0 -137.5 4.5t-136.5 4.5q-47 0 -138.5 -4.5t-138.5 -4.5h-7q-26 0 -29 19q1 -7 1 42q0 17 61 22q70 7 94 51q23 41 23 132v792q0 170 -102 181l-58 7
q-11 1 -14.5 4.5t-3.5 56.5q0 18 24 18q47 0 140 -4.5t139 -4.5t137 4t136 4q181 0 312 -65q169 -83 169 -244q0 -231 -299 -291q87 -44 130 -111l239 -378q53 -85 89 -114q31 -26 93 -36t63 -11q4 -4 4 -57zM2540 461q0 86 -38 156q-45 85 -124 85q-133 0 -133 -149
q0 -86 37 -155q45 -85 123 -85q135 0 135 148zM2679 -182q0 108 -165 108q-17 0 -46 -1t-41 -1q-87 0 -124 2q-86 -41 -86 -125q0 -69 78 -109q64 -32 141 -32q243 0 243 158zM843 986q0 103 -64.5 166t-167.5 63q-131 0 -131 -153v-315q45 -4 93 -4q119 0 192 61
q78 66 78 182z" />
    <glyph glyph-name="gy" unicode="gy" horiz-adv-x="1903" 
d="M1873 731q0 -4 -1 -13t-1 -13q0 -9 -18 -13q-44 -9 -50 -12q-18 -8 -38 -35q-27 -36 -64 -123l-299 -710q-95 -228 -235 -228q-47 0 -85 23q-44 26 -44 69q0 44 28.5 74.5t71.5 30.5q24 0 72.5 -10.5t72.5 -10.5q22 0 60 88l71 166l-258 543q-30 64 -57 96q-21 25 -76 39
q-14 4 -14 47q0 15 14 15q31 0 95 -4.5t96 -4.5t96 4.5t94 4.5q19 0 19 -23q0 -32 -3.5 -36t-35.5 -4q-49 -1 -49 -34q0 -22 20 -67l156 -340l147 358q15 35 15 49q0 24 -36 30t-36 30q0 37 18 37q20 0 58.5 -4.5t58.5 -4.5t59.5 4.5t59.5 4.5q18 0 18 -23zM915 -96
q0 -153 -153 -244q-130 -78 -293 -78q-365 0 -365 256l199 94q-101 15 -141.5 62t-40.5 149l182 127q-79 26 -131 80q-59 61 -59 137q0 128 110 209q99 72 232 72q151 0 245 -74h199q16 0 16 -16v-74q0 -16 -16 -16h-113q9 -31 9 -62q0 -128 -109 -207q-98 -71 -231 -71
q-44 0 -90 8q-72 -37 -72 -82q0 -53 143 -53h164q133 0 224 -63t91 -154zM602 461q0 86 -38 156q-45 85 -124 85q-133 0 -133 -149q0 -86 37 -155q45 -85 123 -85q135 0 135 148zM741 -182q0 108 -165 108q-17 0 -46 -1t-41 -1q-87 0 -124 2q-86 -41 -86 -125q0 -69 78 -109
q64 -32 141 -32q243 0 243 158z" />
    <glyph glyph-name="gyacute" unicode="g&#xfd;" horiz-adv-x="1903" 
d="M1642 1233q0 -47 -37 -94l-229 -295q-8 -10 -19 -10q-10 0 -26.5 12t-16.5 22l2 11l137 342q37 92 103 92q33 0 59.5 -24t26.5 -56zM1873 731q0 -4 -1 -13t-1 -13q0 -9 -18 -13q-44 -9 -50 -12q-18 -8 -38 -35q-27 -36 -64 -123l-299 -710q-95 -228 -235 -228
q-47 0 -85 23q-44 26 -44 69q0 44 28.5 74.5t71.5 30.5q24 0 72.5 -10.5t72.5 -10.5q22 0 60 88l71 166l-258 543q-30 64 -57 96q-21 25 -76 39q-14 4 -14 47q0 15 14 15q31 0 95 -4.5t96 -4.5t96 4.5t94 4.5q19 0 19 -23q0 -32 -3.5 -36t-35.5 -4q-49 -1 -49 -34
q0 -22 20 -67l156 -340l147 358q15 35 15 49q0 24 -36 30t-36 30q0 37 18 37q20 0 58.5 -4.5t58.5 -4.5t59.5 4.5t59.5 4.5q18 0 18 -23zM915 -96q0 -153 -153 -244q-130 -78 -293 -78q-365 0 -365 256l199 94q-101 15 -141.5 62t-40.5 149l182 127q-79 26 -131 80
q-59 61 -59 137q0 128 110 209q99 72 232 72q151 0 245 -74h199q16 0 16 -16v-74q0 -16 -16 -16h-113q9 -31 9 -62q0 -128 -109 -207q-98 -71 -231 -71q-44 0 -90 8q-72 -37 -72 -82q0 -53 143 -53h164q133 0 224 -63t91 -154zM602 461q0 86 -38 156q-45 85 -124 85
q-133 0 -133 -149q0 -86 37 -155q45 -85 123 -85q135 0 135 148zM741 -182q0 108 -165 108q-17 0 -46 -1t-41 -1q-87 0 -124 2q-86 -41 -86 -125q0 -69 78 -109q64 -32 141 -32q243 0 243 158z" />
    <glyph glyph-name="gydieresis" unicode="g&#xff;" horiz-adv-x="1903" 
d="M1787 1063q0 -41 -28.5 -69.5t-69.5 -28.5t-69.5 28.5t-28.5 69.5t28.5 69.5t69.5 28.5t69.5 -28.5t28.5 -69.5zM1324 1063q0 -41 -28.5 -69.5t-69.5 -28.5t-69.5 28.5t-28.5 69.5t28.5 69.5t69.5 28.5t69.5 -28.5t28.5 -69.5zM1873 731q0 -4 -1 -13t-1 -13q0 -9 -18 -13
q-44 -9 -50 -12q-18 -8 -38 -35q-27 -36 -64 -123l-299 -710q-95 -228 -235 -228q-47 0 -85 23q-44 26 -44 69q0 44 28.5 74.5t71.5 30.5q24 0 72.5 -10.5t72.5 -10.5q22 0 60 88l71 166l-258 543q-30 64 -57 96q-21 25 -76 39q-14 4 -14 47q0 15 14 15q31 0 95 -4.5
t96 -4.5t96 4.5t94 4.5q19 0 19 -23q0 -32 -3.5 -36t-35.5 -4q-49 -1 -49 -34q0 -22 20 -67l156 -340l147 358q15 35 15 49q0 24 -36 30t-36 30q0 37 18 37q20 0 58.5 -4.5t58.5 -4.5t59.5 4.5t59.5 4.5q18 0 18 -23zM915 -96q0 -153 -153 -244q-130 -78 -293 -78
q-365 0 -365 256l199 94q-101 15 -141.5 62t-40.5 149l182 127q-79 26 -131 80q-59 61 -59 137q0 128 110 209q99 72 232 72q151 0 245 -74h199q16 0 16 -16v-74q0 -16 -16 -16h-113q9 -31 9 -62q0 -128 -109 -207q-98 -71 -231 -71q-44 0 -90 8q-72 -37 -72 -82
q0 -53 143 -53h164q133 0 224 -63t91 -154zM602 461q0 86 -38 156q-45 85 -124 85q-133 0 -133 -149q0 -86 37 -155q45 -85 123 -85q135 0 135 148zM741 -182q0 108 -165 108q-17 0 -46 -1t-41 -1q-87 0 -124 2q-86 -41 -86 -125q0 -69 78 -109q64 -32 141 -32
q243 0 243 158z" />
    <glyph glyph-name="gycircumflex" unicode="g&#x177;" horiz-adv-x="1903" 
d="M1761 868q0 -10 -15 -22t-26 -12q-10 0 -19 10l-223 254l-223 -254q-9 -10 -19 -10q-11 0 -26 12t-15 22q0 2 4 11l197 389q25 49 82 49t82 -49l196 -389q5 -9 5 -11zM1873 731q0 -4 -1 -13t-1 -13q0 -9 -18 -13q-44 -9 -50 -12q-18 -8 -38 -35q-27 -36 -64 -123
l-299 -710q-95 -228 -235 -228q-47 0 -85 23q-44 26 -44 69q0 44 28.5 74.5t71.5 30.5q24 0 72.5 -10.5t72.5 -10.5q22 0 60 88l71 166l-258 543q-30 64 -57 96q-21 25 -76 39q-14 4 -14 47q0 15 14 15q31 0 95 -4.5t96 -4.5t96 4.5t94 4.5q19 0 19 -23q0 -32 -3.5 -36
t-35.5 -4q-49 -1 -49 -34q0 -22 20 -67l156 -340l147 358q15 35 15 49q0 24 -36 30t-36 30q0 37 18 37q20 0 58.5 -4.5t58.5 -4.5t59.5 4.5t59.5 4.5q18 0 18 -23zM915 -96q0 -153 -153 -244q-130 -78 -293 -78q-365 0 -365 256l199 94q-101 15 -141.5 62t-40.5 149l182 127
q-79 26 -131 80q-59 61 -59 137q0 128 110 209q99 72 232 72q151 0 245 -74h199q16 0 16 -16v-74q0 -16 -16 -16h-113q9 -31 9 -62q0 -128 -109 -207q-98 -71 -231 -71q-44 0 -90 8q-72 -37 -72 -82q0 -53 143 -53h164q133 0 224 -63t91 -154zM602 461q0 86 -38 156
q-45 85 -124 85q-133 0 -133 -149q0 -86 37 -155q45 -85 123 -85q135 0 135 148zM741 -182q0 108 -165 108q-17 0 -46 -1t-41 -1q-87 0 -124 2q-86 -41 -86 -125q0 -69 78 -109q64 -32 141 -32q243 0 243 158z" />
    <glyph glyph-name="gydot" unicode="g&#x1e8f;" horiz-adv-x="1903" 
d="M1593 1063q0 -48 -34 -81.5t-81 -33.5q-48 0 -81.5 33.5t-33.5 81.5q0 47 33.5 81t81.5 34q47 0 81 -34t34 -81zM1873 731q0 -4 -1 -13t-1 -13q0 -9 -18 -13q-44 -9 -50 -12q-18 -8 -38 -35q-27 -36 -64 -123l-299 -710q-95 -228 -235 -228q-47 0 -85 23q-44 26 -44 69
q0 44 28.5 74.5t71.5 30.5q24 0 72.5 -10.5t72.5 -10.5q22 0 60 88l71 166l-258 543q-30 64 -57 96q-21 25 -76 39q-14 4 -14 47q0 15 14 15q31 0 95 -4.5t96 -4.5t96 4.5t94 4.5q19 0 19 -23q0 -32 -3.5 -36t-35.5 -4q-49 -1 -49 -34q0 -22 20 -67l156 -340l147 358
q15 35 15 49q0 24 -36 30t-36 30q0 37 18 37q20 0 58.5 -4.5t58.5 -4.5t59.5 4.5t59.5 4.5q18 0 18 -23zM915 -96q0 -153 -153 -244q-130 -78 -293 -78q-365 0 -365 256l199 94q-101 15 -141.5 62t-40.5 149l182 127q-79 26 -131 80q-59 61 -59 137q0 128 110 209
q99 72 232 72q151 0 245 -74h199q16 0 16 -16v-74q0 -16 -16 -16h-113q9 -31 9 -62q0 -128 -109 -207q-98 -71 -231 -71q-44 0 -90 8q-72 -37 -72 -82q0 -53 143 -53h164q133 0 224 -63t91 -154zM602 461q0 86 -38 156q-45 85 -124 85q-133 0 -133 -149q0 -86 37 -155
q45 -85 123 -85q135 0 135 148zM741 -182q0 108 -165 108q-17 0 -46 -1t-41 -1q-87 0 -124 2q-86 -41 -86 -125q0 -69 78 -109q64 -32 141 -32q243 0 243 158z" />
    <glyph glyph-name="gygrave" unicode="g&#x1ef3;" horiz-adv-x="1903" 
d="M1580 868q0 -10 -16 -22t-27 -12q-10 0 -18 10l-229 295q-37 47 -37 94q0 32 26.5 56t59.5 24q65 0 102 -92zM1873 731q0 -4 -1 -13t-1 -13q0 -9 -18 -13q-44 -9 -50 -12q-18 -8 -38 -35q-27 -36 -64 -123l-299 -710q-95 -228 -235 -228q-47 0 -85 23q-44 26 -44 69
q0 44 28.5 74.5t71.5 30.5q24 0 72.5 -10.5t72.5 -10.5q22 0 60 88l71 166l-258 543q-30 64 -57 96q-21 25 -76 39q-14 4 -14 47q0 15 14 15q31 0 95 -4.5t96 -4.5t96 4.5t94 4.5q19 0 19 -23q0 -32 -3.5 -36t-35.5 -4q-49 -1 -49 -34q0 -22 20 -67l156 -340l147 358
q15 35 15 49q0 24 -36 30t-36 30q0 37 18 37q20 0 58.5 -4.5t58.5 -4.5t59.5 4.5t59.5 4.5q18 0 18 -23zM915 -96q0 -153 -153 -244q-130 -78 -293 -78q-365 0 -365 256l199 94q-101 15 -141.5 62t-40.5 149l182 127q-79 26 -131 80q-59 61 -59 137q0 128 110 209
q99 72 232 72q151 0 245 -74h199q16 0 16 -16v-74q0 -16 -16 -16h-113q9 -31 9 -62q0 -128 -109 -207q-98 -71 -231 -71q-44 0 -90 8q-72 -37 -72 -82q0 -53 143 -53h164q133 0 224 -63t91 -154zM602 461q0 86 -38 156q-45 85 -124 85q-133 0 -133 -149q0 -86 37 -155
q45 -85 123 -85q135 0 135 148zM741 -182q0 108 -165 108q-17 0 -46 -1t-41 -1q-87 0 -124 2q-86 -41 -86 -125q0 -69 78 -109q64 -32 141 -32q243 0 243 158z" />
    <glyph glyph-name="gytilde" unicode="g&#x1ef9;" horiz-adv-x="1903" 
d="M1804 1165q0 -85 -74 -170q-76 -88 -160 -88q-40 0 -117 76t-100 76q-66 0 -113 -75t-57 -75q-31 0 -31 31q0 85 75 171.5t159 86.5q49 0 126.5 -75.5t90.5 -75.5q66 0 113 74.5t57 74.5q31 0 31 -31zM1873 731q0 -4 -1 -13t-1 -13q0 -9 -18 -13q-44 -9 -50 -12
q-18 -8 -38 -35q-27 -36 -64 -123l-299 -710q-95 -228 -235 -228q-47 0 -85 23q-44 26 -44 69q0 44 28.5 74.5t71.5 30.5q24 0 72.5 -10.5t72.5 -10.5q22 0 60 88l71 166l-258 543q-30 64 -57 96q-21 25 -76 39q-14 4 -14 47q0 15 14 15q31 0 95 -4.5t96 -4.5t96 4.5t94 4.5
q19 0 19 -23q0 -32 -3.5 -36t-35.5 -4q-49 -1 -49 -34q0 -22 20 -67l156 -340l147 358q15 35 15 49q0 24 -36 30t-36 30q0 37 18 37q20 0 58.5 -4.5t58.5 -4.5t59.5 4.5t59.5 4.5q18 0 18 -23zM915 -96q0 -153 -153 -244q-130 -78 -293 -78q-365 0 -365 256l199 94
q-101 15 -141.5 62t-40.5 149l182 127q-79 26 -131 80q-59 61 -59 137q0 128 110 209q99 72 232 72q151 0 245 -74h199q16 0 16 -16v-74q0 -16 -16 -16h-113q9 -31 9 -62q0 -128 -109 -207q-98 -71 -231 -71q-44 0 -90 8q-72 -37 -72 -82q0 -53 143 -53h164q133 0 224 -63
t91 -154zM602 461q0 86 -38 156q-45 85 -124 85q-133 0 -133 -149q0 -86 37 -155q45 -85 123 -85q135 0 135 148zM741 -182q0 108 -165 108q-17 0 -46 -1t-41 -1q-87 0 -124 2q-86 -41 -86 -125q0 -69 78 -109q64 -32 141 -32q243 0 243 158z" />
    <glyph glyph-name=".notdef" horiz-adv-x="1152" 
d="M1040 0h-928v1494h928v-1494zM912 128v1238h-672v-1238h672zM810 984q0 -177 -232 -269l-25 -157h-71l-21 213q202 34 202 187q0 157 -334 157l25 107h8q448 0 448 -238zM613 352q0 -39 -28.5 -67.5t-67.5 -28.5t-67.5 28.5t-28.5 67.5q0 40 28.5 68.5t67.5 28.5
t67.5 -28.5t28.5 -68.5z" />
    <glyph glyph-name=".null" horiz-adv-x="0" 
 />
    <glyph glyph-name="nonmarkingreturn" unicode="&#xd;" horiz-adv-x="512" 
 />
    <glyph glyph-name="space" unicode=" " horiz-adv-x="512" 
 />
    <glyph glyph-name="exclam" unicode="!" horiz-adv-x="557" 
d="M442 1260q0 -2 -2 -15l-127 -813q-3 -20 -34 -20q-32 0 -35 20l-127 813q-2 13 -2 15q0 163 164 163q163 0 163 -163zM416 115q0 -58 -39.5 -98t-97.5 -40q-59 0 -98.5 40t-39.5 98t39.5 97.5t98.5 39.5q58 0 97.5 -39.5t39.5 -97.5z" />
    <glyph glyph-name="quotedbl" unicode="&#x22;" horiz-adv-x="872" 
d="M756 1282q0 -29 -2 -45l-56 -449q-5 -43 -47 -43h-41q-42 0 -47 43l-55 449q-2 16 -2 45q0 131 125 131t125 -131zM367 1282q0 -29 -2 -45l-56 -449q-5 -43 -47 -43h-41q-42 0 -47 43l-55 449q-2 16 -2 45q0 131 125 131t125 -131z" />
    <glyph glyph-name="numbersign" unicode="#" horiz-adv-x="995" 
d="M948 899q0 -41 -37 -123q-12 -26 -34 -26h-129l-54 -172h131q21 0 21 -19q0 -41 -37 -123q-12 -26 -35 -26h-131l-129 -416q-4 -14 -43 -14q-45 0 -45 24q0 8 123 406h-254l-129 -416q-5 -14 -43 -14q-45 0 -45 24q0 8 123 406h-133q-21 0 -21 18q0 44 37 123
q12 27 35 27h133l53 172h-135q-20 0 -20 18q0 44 36 123q13 27 35 27h137l123 399q5 14 43 14q45 0 45 -24q0 -8 -118 -389h256l122 399q5 14 43 14q46 0 46 -24q0 -8 -119 -389h129q20 0 20 -19zM653 750h-254l-53 -172h254z" />
    <glyph glyph-name="dollar" unicode="$" horiz-adv-x="992" 
d="M901 377q0 -166 -101 -271t-267 -120v-108q0 -22 -20 -26q1 0 -39 0q-25 0 -25 26v106q-135 7 -229 66q-114 72 -114 196q0 47 32.5 78t79.5 31q55 0 81 -56q23 -59 45 -119q35 -74 105 -105v502q-139 61 -226 157q-101 113 -101 248q0 142 93 236q90 90 234 102v110
q0 22 20 26q-1 0 39 0q25 0 25 -26v-106q109 -4 201 -45q119 -54 119 -146t-105 -92q-48 0 -98 82q-56 93 -117 115v-440q191 -95 256 -155q112 -104 112 -266zM449 843v397q-138 -29 -138 -190q0 -104 138 -207zM711 285q0 158 -178 250v-468q178 14 178 218z" />
    <glyph glyph-name="percent" unicode="%" horiz-adv-x="1642" 
d="M1556 322q0 -144 -81 -244q-87 -107 -228 -107q-139 0 -226 108q-81 100 -81 243t81 244q86 108 226 108q141 0 228 -108q81 -100 81 -244zM1198 1348q0 -8 -4 -17l-621 -1333q-12 -27 -30 -27h-80q-10 0 -10 6q0 8 4 17l600 1333q12 27 30 27h101q10 0 10 -6zM702 987
q0 -143 -81 -243q-87 -107 -228 -107q-139 0 -226 107q-81 100 -81 243q0 144 81 244q86 108 226 108q141 0 228 -107q81 -101 81 -245zM1395 322q0 99 -27 169q-38 99 -121 99q-145 0 -145 -268q0 -267 145 -267q82 0 120 99q28 70 28 168zM541 987q0 99 -27 169
q-38 99 -121 99q-145 0 -145 -268q0 -266 145 -266q82 0 120 98q28 71 28 168z" />
    <glyph glyph-name="ampersand" unicode="&#x26;" horiz-adv-x="1911" 
d="M1911 1116q0 -161 -132 -241q-108 -66 -280 -66q-17 0 -47 1q-35 1 -47 1q25 -131 25 -184q0 -285 -226 -482q-217 -190 -506 -190q-242 0 -410 103q-200 122 -200 350q0 213 182 376q-16 66 -16 121q0 184 117 313q121 134 303 134q98 0 159 -49q66 -53 66 -148
q0 -56 -34.5 -97.5t-90.5 -41.5q-45 0 -80 31t-35 75q0 37 25 61q26 21 51 42q-3 26 -82 26q-125 0 -202 -100q-70 -92 -70 -221q0 -22 4 -56q94 60 184 60q88 0 148 -48q65 -51 65 -136q0 -95 -68.5 -156.5t-164.5 -61.5q-150 0 -234 138q-59 -84 -59 -172q0 -158 156 -244
q127 -70 299 -70q227 0 400 124q194 137 194 356v24q0 99 -17 121q-22 29 -114 29q-203 0 -203 -158q0 -23 14 -23q8 0 25.5 43t64.5 43q101 0 101 -106q0 -121 -166 -121q-64 0 -113 50t-49 114q0 130 111 205q97 65 233 65q7 0 88 -10q130 -16 240 -16q98 0 176 43
q94 52 94 143q0 61 -36.5 104t-96.5 43q-27 0 -27 -14q0 -5 26.5 -34.5t26.5 -61.5q0 -45 -34 -74t-80 -29q-111 0 -111 125q0 82 65 134q60 49 144 49q107 0 175.5 -65t68.5 -171zM639 745q0 78 -96 78q-77 0 -135 -51q50 -121 145 -121q86 0 86 94z" />
    <glyph glyph-name="quotesingle" unicode="'" horiz-adv-x="524" 
d="M414 1292q0 -36 -15 -80l-145 -424q-15 -43 -57 -43h-43q-37 0 -37 39v4l41 476q13 149 133 149q123 0 123 -121z" />
    <glyph glyph-name="parenleft" unicode="(" horiz-adv-x="623" 
d="M514 -322q-30 -51 -53 -51q-8 0 -10 2q-179 155 -279 395q-96 230 -96 476q0 244 97 475q101 242 278 395q2 2 10 2q23 0 53 -51q-2 -4 -4 -6q-17 -18 -49 -55q-81 -101 -139 -277q-80 -239 -80 -483q0 -245 80 -484q60 -179 139 -278q16 -18 49 -53q2 -3 4 -7z" />
    <glyph glyph-name="parenright" unicode=")" horiz-adv-x="623" 
d="M547 500q0 -244 -97 -476q-101 -242 -278 -395q-2 -2 -10 -2q-23 0 -53 51q2 5 4 7q16 18 49 55q80 101 139 276q80 240 80 484t-80 483q-60 180 -139 279q-17 17 -49 53q-2 2 -4 6q30 51 53 51q8 0 10 -2q178 -155 279 -395q96 -230 96 -475z" />
    <glyph glyph-name="asterisk" unicode="*" horiz-adv-x="993" 
d="M709 1300q0 -31 -17 -53l-125 -166q-6 -8 -18 -4l-43 15q-12 4 -12 14l-5 209q0 38 26 62t65 24q46 0 85 -26q44 -30 44 -75zM924 983q0 -111 -90 -111q-15 0 -27 5l-197 67q-10 4 -10 17v45q0 12 10 16l197 68q12 4 27 4q90 0 90 -111zM422 1083q5 -8 -2 -18l-27 -37
q-8 -11 -16 -8l-199 61q-59 19 -59 80q0 44 35.5 85.5t78.5 41.5q46 0 70 -35zM709 666q0 -45 -44 -74q-39 -27 -85 -27q-39 0 -65 24t-26 62l5 209q0 10 12 14l43 17q11 4 18 -6l125 -166q17 -22 17 -53zM422 883l-119 -170q-24 -35 -70 -35q-43 0 -78.5 41.5t-35.5 85.5
q0 61 59 80l199 61q8 3 16 -8l27 -37q7 -10 2 -18z" />
    <glyph glyph-name="plus" unicode="+" horiz-adv-x="1348" 
d="M1184 395q0 -22 -25 -22h-407v-410q0 -22 -23 -22h-111q-22 0 -22 22v410h-410q-22 0 -22 22v111q0 22 22 22h410v408q0 25 22 25h111q23 0 23 -25v-408h407q25 0 25 -22v-111z" />
    <glyph glyph-name="comma" unicode="," horiz-adv-x="557" 
d="M442 41q0 -106 -72.5 -196.5t-176.5 -114.5q-3 -1 -9 -2q-11 0 -30 19.5t-19 31.5q0 10 15 16q70 31 88 43q42 28 61 76q10 25 10 35q0 49 -91 85.5t-91 104.5q0 52 47 84q42 29 96 29q79 0 128 -68q44 -61 44 -143z" />
    <glyph glyph-name="hyphen" unicode="-" horiz-adv-x="557" 
d="M496 395q0 -22 -25 -22h-387q-23 0 -23 22v111q0 22 23 22h387q25 0 25 -22v-111z" />
    <glyph glyph-name="period" unicode="." horiz-adv-x="557" 
d="M416 115q0 -58 -39.5 -98t-97.5 -40q-59 0 -98.5 40t-39.5 98t39.5 97.5t98.5 39.5q58 0 97.5 -39.5t39.5 -97.5z" />
    <glyph glyph-name="slash" unicode="/" horiz-adv-x="995" 
d="M981 1372l-815 -1745h-152l813 1745h154z" />
    <glyph glyph-name="zero" unicode="0" horiz-adv-x="995" 
d="M895 655q0 -270 -70 -440q-101 -242 -331 -242t-330 243q-70 170 -70 439q0 271 70 442q100 244 330 244q231 0 331 -243q70 -171 70 -443zM799 631q0 477 -316 477q-151 0 -231 -146q-64 -117 -64 -282q0 -477 318 -477q151 0 230 145q63 117 63 283z" />
    <glyph glyph-name="one" unicode="1" horiz-adv-x="995" 
d="M809 47q0 -57 -27 -57h-20q-144 10 -215 10q-76 0 -219 -10h-19q-28 0 -28 30q0 8 1 24t1 24q0 21 53 27q60 6 82 52q18 41 18 136v847q-190 -135 -198 -135q-12 0 -33 21t-21 33q0 8 13 18q53 39 159 121q76 70 170 147q17 6 35 6h72q20 0 20 -22v-1024q0 -183 86 -197
l54 -6q16 -7 16 -45z" />
    <glyph glyph-name="two" unicode="2" horiz-adv-x="995" 
d="M883 985q0 -188 -202 -428q-106 -126 -351 -344h495q43 0 43 -33q0 -25 -65 -141q-32 -55 -68 -55q-24 0 -65 4q-49 5 -66 6q-118 6 -272 6q-74 0 -170.5 -4t-95.5 -4q-23 0 -23 55q0 24 20 45q54 47 158 141q424 392 424 664q0 231 -221 231q-115 0 -238 -135
q-5 -6 -18 -6q-14 0 -32.5 18t-18.5 31v4q45 118 177 209.5t257 91.5q161 0 248 -98q84 -95 84 -258z" />
    <glyph glyph-name="three" unicode="3" horiz-adv-x="995" 
d="M870 473q0 -178 -187 -339t-396 -161q-75 0 -141 26q-87 35 -87 97q0 97 117 97q46 0 126 -48.5t124 -48.5q47 0 96 29q113 65 113 252q0 109 -68 188q-71 84 -178 84q-11 0 -32 -4t-31 -4q-33 0 -33 51q0 19 19 28t59 28q63 33 127 90q82 73 82 123q0 78 -63 121
q-54 38 -136 38q-47 0 -80 -12q-6 -2 -37.5 -19.5t-34.5 -17.5q-7 0 -26 11t-19 18q1 2 2 6q36 94 125 163q94 72 191 72q101 0 178 -59q84 -64 84 -162q0 -87 -48 -168t-124 -129q133 -27 205.5 -120t72.5 -230z" />
    <glyph glyph-name="four" unicode="4" horiz-adv-x="995" 
d="M913 414q0 -25 -26 -25h-125v-356q0 -33 -27 -33h-164q-26 0 -26 33v356h-445q-22 0 -22 39v107l565 796q7 10 31 10q5 0 15 -1t16 -1q57 0 57 -22v-758q17 0 52 1t52 1q31 0 39 -9.5t8 -41.5v-96zM545 559v498l-350 -498h350z" />
    <glyph glyph-name="five" unicode="5" horiz-adv-x="995" 
d="M897 434q0 -197 -174 -334q-163 -127 -367 -127q-288 0 -288 148q0 52 38 83q35 29 89 29q51 0 100 -68.5t100 -68.5q123 0 199 91q72 86 72 210q0 120 -67 203q-71 90 -187 90q-61 0 -195 -63q-15 3 -40 18q-28 18 -25 31l104 616q3 21 27 21q45 0 136.5 -3t137.5 -3
q43 0 129 2t129 2q29 0 29 -17q0 -6 -36.5 -78t-45.5 -86q-21 -30 -49 -30h-391l-35 -215q59 12 127 12q223 0 351 -119q132 -122 132 -344z" />
    <glyph glyph-name="six" unicode="6" horiz-adv-x="995" 
d="M905 391q0 -182 -98 -296q-104 -122 -283 -122q-216 0 -328 139q-102 127 -102 349q0 305 167 525q147 193 441 341q9 4 15 4q14 0 28.5 -24t14.5 -39q0 -12 -15 -21q-120 -74 -178 -126q-82 -73 -135 -173q-74 -139 -92 -340q109 127 256 127q152 0 233 -98
q76 -91 76 -246zM668 330q0 102 -37 175q-47 93 -139 93q-93 0 -160 -88v-96q0 -344 164 -344q86 0 133 91q39 74 39 169z" />
    <glyph glyph-name="seven" unicode="7" horiz-adv-x="995" 
d="M965 1268q0 -17 -41 -82q-28 -45 -72 -119q-64 -107 -188 -324l-439 -790q-5 -10 -16 -10q-20 0 -88 47q-10 7 -10 16q0 14 293.5 528t293.5 531q0 14 -39 14h-530q-18 0 -18 17q0 4 31 94.5t36 99.5q12 23 35 23h731q21 0 21 -45z" />
    <glyph glyph-name="eight" unicode="8" horiz-adv-x="995" 
d="M893 346q0 -164 -119 -268.5t-301 -104.5q-153 0 -259 87q-116 94 -116 245q0 105 84 194q70 75 178 122q-231 176 -231 346q0 160 102 265q107 109 285 109q140 0 239 -80q105 -87 105 -227q0 -180 -231 -284q264 -200 264 -404zM682 1014q0 84 -37 151q-44 82 -121 82
q-66 0 -111.5 -44.5t-45.5 -110.5q0 -163 200 -299q65 62 85 96q30 51 30 125zM664 262q0 147 -236 309q-143 -110 -143 -243q0 -95 46 -171q53 -89 142 -89q81 0 136 56.5t55 137.5z" />
    <glyph glyph-name="nine" unicode="9" horiz-adv-x="995" 
d="M891 854q0 -307 -160 -525q-142 -194 -434 -343q-8 -4 -14 -4q-14 0 -28.5 23t-14.5 38q0 14 14 23q116 72 169 117q80 68 132 157q82 141 94 350q-111 -137 -262 -137q-138 0 -227 110q-82 103 -82 244q0 174 102 300q109 134 279 134q209 0 325 -142q107 -131 107 -345
zM655 786l-2 2q0 185 -19 275q-39 182 -157 182q-79 0 -126 -102q-38 -82 -38 -172q0 -105 37 -181q47 -100 139 -100q97 0 166 96z" />
    <glyph glyph-name="colon" unicode=":" horiz-adv-x="557" 
d="M416 631q0 -58 -39.5 -97.5t-97.5 -39.5q-59 0 -98.5 39.5t-39.5 97.5t39.5 97.5t98.5 39.5q58 0 97.5 -39.5t39.5 -97.5zM416 115q0 -58 -39.5 -98t-97.5 -40q-59 0 -98.5 40t-39.5 98t39.5 97.5t98.5 39.5q58 0 97.5 -39.5t39.5 -97.5z" />
    <glyph glyph-name="semicolon" unicode=";" horiz-adv-x="557" 
d="M416 631q0 -58 -39.5 -97.5t-97.5 -39.5q-59 0 -98.5 39.5t-39.5 97.5t39.5 97.5t98.5 39.5q58 0 97.5 -39.5t39.5 -97.5zM442 41q0 -106 -72.5 -196.5t-176.5 -114.5q-3 -1 -9 -2q-11 0 -30 19.5t-19 31.5q0 10 15 16q70 31 88 43q42 28 61 76q10 25 10 35
q0 49 -91 85.5t-91 104.5q0 52 47 84q42 29 96 29q79 0 128 -68q44 -61 44 -143z" />
    <glyph glyph-name="less" unicode="&#x3c;" horiz-adv-x="1348" 
d="M1241 37q0 -17 -49 -107q-7 -12 -23 -12q-5 0 -10 2l-1009 471q-29 14 -29 60t29 59l1009 471q5 2 10 2q16 0 23 -12q49 -89 49 -107q0 -16 -14 -22l-838 -391l838 -392q14 -6 14 -22z" />
    <glyph glyph-name="equal" unicode="=" horiz-adv-x="1348" 
d="M1184 600q0 -22 -25 -22h-973q-22 0 -22 22v111q0 22 22 22h973q25 0 25 -22v-111zM1184 190q0 -22 -25 -22h-973q-22 0 -22 22v111q0 23 22 23h973q25 0 25 -23v-111z" />
    <glyph glyph-name="greater" unicode="&#x3e;" horiz-adv-x="1348" 
d="M1227 451q0 -46 -29 -60l-1010 -471q-4 -2 -10 -2q-16 0 -22 12q-50 90 -50 107q0 16 15 22l837 392l-837 391q-15 6 -15 22q0 18 50 107q6 12 22 12q6 0 10 -2l1010 -471q29 -13 29 -59z" />
    <glyph glyph-name="question" unicode="?" horiz-adv-x="803" 
d="M682 901q0 -268 -369 -319v-152q0 -12 -12 -12h-68q-12 0 -12 12v336q0 20 25 27q18 3 55 10q102 21 164 63q98 67 98 152q0 69 -53 118.5t-123 49.5q-28 0 -83.5 -12.5t-84.5 -12.5q-98 0 -98 105q0 61 34 107q37 50 97 50q199 0 321 -167q109 -150 109 -355zM416 115
q0 -58 -39.5 -98t-97.5 -40q-59 0 -98.5 40t-39.5 98t39.5 97.5t98.5 39.5q58 0 97.5 -39.5t39.5 -97.5z" />
    <glyph glyph-name="at" unicode="@" horiz-adv-x="1585" 
d="M1524 512q0 -203 -153 -367q-156 -168 -357 -168q-129 0 -129 129q-130 -129 -267 -129q-70 0 -113 66q-38 57 -38 131q0 67 176 145q56 24 242 87v79q0 76 -37 105q-32 24 -111 24q-114 0 -114 -47q0 -4 5 -14.5t5 -20.5q0 -9 -10 -16q-78 -49 -107 -49q-27 0 -27 61
q0 70 109 131l193 109q143 0 204 -31q88 -45 88 -174v-379q0 -53 29 -53q143 0 222 115q96 138 96 274q0 215 -163 349q-153 126 -372 126q-287 0 -500 -209t-213 -495q0 -245 190 -403q179 -148 429 -148q260 0 481 145l47 -51q-248 -184 -532 -184q-291 0 -504 166
q-232 180 -232 463q0 324 237.5 568.5t561.5 244.5q278 0 463 -148q201 -161 201 -432zM885 174v168q-103 -35 -130 -49q-85 -42 -85 -92q0 -34 18 -70q22 -43 51 -43q65 0 146 86z" />
    <glyph glyph-name="A" unicode="A" horiz-adv-x="1439" 
d="M1395 8q0 -17 -27 -17h-8q-40 0 -120 4.5t-120 4.5t-119.5 -4.5t-119.5 -4.5h-8q-25 0 -28 19q1 -7 1 42q0 18 64.5 25t64.5 45q0 18 -11 45l-124 308h-416l-104 -308q-8 -22 -8 -39q0 -41 66 -50q77 -11 80 -14t3 -56q0 -17 -27 -17q-30 0 -95 4.5t-98 4.5t-97.5 -4.5
t-95.5 -4.5q-25 0 -28 19q1 -8 1 42q0 9 5 13q2 2 66 10q59 7 95 50.5t69 139.5l150 432q49 137 144 414q20 56 40 136q18 19 85.5 72.5t73.5 53.5q9 0 13 -12l451 -1135q33 -84 58 -113t72.5 -37.5t49.5 -11.5t2 -56zM804 565l-189 471l-160 -471h349z" />
    <glyph glyph-name="B" unicode="B" horiz-adv-x="1264" 
d="M1198 381q0 -202 -154 -303q-130 -85 -343 -85q-57 0 -169.5 3.5t-169.5 3.5q-45 0 -136.5 -4.5t-137.5 -4.5q-26 0 -30 18q1 -7 1 43q0 17 61 23q70 6 95 50q22 41 22 140v777q0 82 -13 120q-23 61 -88 68l-59 7q-10 1 -14 4.5t-4 56.5q0 18 25 18q46 0 139 -4.5
t139 -4.5q52 0 155.5 3.5t155.5 3.5q175 0 287 -61q141 -77 141 -237q0 -254 -373 -290q470 -40 470 -345zM840 1003q0 221 -229 221q-122 0 -122 -127v-341q63 -6 106 -6q245 0 245 253zM931 362q0 298 -321 298q-56 0 -121 -9v-386q0 -107 49 -147q43 -35 152 -35
q241 0 241 279z" />
    <glyph glyph-name="C" unicode="C" horiz-adv-x="1439" 
d="M1365 343l-1 -5q-27 -128 -70 -274q-8 -8 -22 -14q-179 -76 -414 -76q-351 0 -565.5 176.5t-214.5 465.5q0 329 212 526q207 191 539 191q229 0 422 -73q15 -5 22 -13.5t9 -21.5l44 -256v-4q0 -22 -57 -22q-12 0 -20 14q-76 140 -167 207q-109 78 -236 78
q-241 0 -378 -175q-126 -161 -126 -408q0 -250 152.5 -422.5t371.5 -172.5q168 0 264 64.5t160 219.5q5 11 8 16h2q65 0 65 -21z" />
    <glyph glyph-name="D" unicode="D" horiz-adv-x="1579" 
d="M1505 651q0 -285 -226 -477q-215 -181 -506 -181q-68 0 -205.5 3.5t-205.5 3.5q-46 0 -137.5 -4.5t-137.5 -4.5q-26 0 -30 18q2 -7 2 43q0 17 60 23q70 6 95 50q22 39 22 140v795q0 137 -104 137q-9 0 -24 -1t-21 -1q-18 0 -25 7q-3 3 -3 53q0 7 33 16q82 22 249 38
q184 18 334 18q366 0 598 -189t232 -487zM1242 646q0 591 -553 591q-120 0 -160.5 -41.5t-40.5 -162.5v-670q0 -164 50 -222q55 -63 216 -63q235 0 367 171q121 155 121 397z" />
    <glyph glyph-name="E" unicode="E" horiz-adv-x="1193" 
d="M1185 274q0 -5 -43 -131l-43 -125q-8 -26 -19 -25l-604 7h-174q-31 -1 -113 -5q-72 -4 -114 -4q-26 0 -30 18q1 -6 1 43q0 17 62 23q70 6 93 49t23 134v790q0 171 -101 182l-59 7q-10 1 -14 4.5t-4 56.5q0 18 25 18q44 0 120 -4q89 -5 120 -5h66l650 7q19 0 19 -25v-276
q0 -17 -56 -17q-14 0 -17 17l-13 75q-13 73 -70.5 102t-263.5 29q-86 0 -117 -28q-33 -31 -33 -117v-346h224q72 0 100 37q15 22 36 106q2 8 8 13t53 5q18 0 18 -18q0 9 -6.5 -62t-6.5 -127q0 -57 6.5 -127.5t6.5 -60.5q0 -18 -60 -18q-14 0 -32 70q-22 92 -123 92h-224
v-382q0 -115 29.5 -142t145.5 -27h61q162 0 246.5 32t121.5 107.5t49 75.5q56 0 56 -28z" />
    <glyph glyph-name="F" unicode="F" horiz-adv-x="1193" 
d="M1119 1013q0 -17 -57 -17q-14 0 -17 17l-13 75q-12 73 -70 102t-181 29h-143q-83 0 -114 -30.5t-31 -114.5v-346h322q72 0 100 37q16 21 37 106q1 7 7 12.5t53 5.5q19 0 19 -18q0 9 -6.5 -62t-6.5 -127q0 -57 6.5 -127.5t6.5 -60.5q0 -18 -61 -18q-14 0 -31 70
q-23 92 -124 92h-322v-380q0 -171 102 -182l58 -6q11 -1 14.5 -5t3.5 -57q0 -17 -28 -17h-7q-45 0 -134 4.5t-134 4.5t-134.5 -4.5t-134.5 -4.5h-7q-26 0 -29 18q1 -6 1 43q0 17 62 23q69 6 92.5 49t23.5 134v790q0 171 -102 182l-58 7q-11 1 -14.5 4.5t-3.5 56.5
q0 18 25 18q68 0 202.5 -4.5t201.5 -4.5q56 0 606 7q20 0 20 -25v-276z" />
    <glyph glyph-name="G" unicode="G" horiz-adv-x="1545" 
d="M1493 523q0 -17 -42 -23q-49 -7 -65 -31t-16 -81q0 -278 -6.5 -288.5t-32.5 -23.5q-205 -102 -500 -102q-318 0 -538.5 186.5t-220.5 455.5q0 301 227 509t556 208q260 0 444 -89q20 -9 29.5 -21.5t27.5 -245.5q1 -17 -56 -17q-16 0 -22 18q-48 130 -134 191
q-102 73 -257 73q-253 0 -405 -164q-147 -160 -147 -416q0 -251 150 -424.5t365 -173.5q41 0 83 7q130 20 174 100q31 58 31 198q0 101 -70 126q-30 11 -158 11q-16 0 -20.5 3t-4.5 58q0 18 24 18h11q45 0 134.5 -5t134.5 -5q139 0 269 10h13q22 2 24 -20q-2 17 -2 -42z" />
    <glyph glyph-name="H" unicode="H" horiz-adv-x="1685" 
d="M1623 8q0 -17 -27 -17h-9q-44 0 -133.5 4.5t-133.5 4.5q-45 0 -134.5 -4.5t-134.5 -4.5h-7q-26 0 -29 18q1 -6 1 43q0 17 61 23q70 6 94 50q22 41 22 133v402h-710v-402q0 -171 102 -182l58 -6q11 -1 14.5 -5t3.5 -57q0 -17 -28 -17h-8q-44 0 -133.5 4.5t-133.5 4.5
q-45 0 -134.5 -4.5t-134.5 -4.5h-8q-25 0 -28 19q1 -7 1 42q0 17 61 23q70 6 94 50q22 41 22 133v790q0 171 -101 182l-58 7q-11 1 -14.5 4.5t-3.5 56.5q0 18 27 18h8q45 0 134 -4.5t134 -4.5t134.5 4.5t133.5 4.5h12q23 0 25 -19q-1 11 -1 -42q0 -17 -61 -23
q-70 -6 -93.5 -49t-23.5 -135v-298h710v298q0 171 -101 182l-59 7q-10 1 -13.5 4.5t-3.5 56.5q0 18 24 18h11q45 0 134 -4.5t134 -4.5t134 4.5t134 4.5h9q25 0 28 -19q-1 8 -1 -42q0 -17 -61 -23q-70 -6 -93.5 -49t-23.5 -135v-790q0 -171 101 -182l59 -6q10 -1 14 -5t4 -57
z" />
    <glyph glyph-name="I" unicode="I" horiz-adv-x="737" 
d="M667 8q0 -17 -28 -17h-7q-45 0 -134 4.5t-134 4.5t-134 -4.5t-134 -4.5h-8q-26 0 -29 18q1 -6 1 43q0 17 62 23q69 6 94 50q22 41 22 133v790q0 171 -101 182l-59 7q-10 1 -14 4.5t-4 56.5q0 18 25 18h11q44 0 133.5 -4.5t133.5 -4.5q45 0 134.5 4.5t134.5 4.5h11
q23 0 26 -19q-2 11 -2 -42q0 -17 -61 -23q-69 -6 -92.5 -49t-23.5 -135v-790q0 -171 101 -182l59 -6q10 -1 13.5 -5t3.5 -57z" />
    <glyph glyph-name="J" unicode="J" horiz-adv-x="702" 
d="M654 1255q0 -17 -61 -23q-69 -6 -92.5 -49t-23.5 -141v-917q0 -236 -91 -392q-112 -190 -330 -190q-71 0 -124 42q-57 45 -57 115q0 45 35 73q32 27 78 27q59 0 104 -76t65 -76q68 0 68 122v1272q0 82 -14 120q-22 61 -87 68l-59 7q-10 1 -14 4.5t-4 56.5q0 18 27 18h9
q44 0 133.5 -4.5t133.5 -4.5q45 0 134.5 4.5t134.5 4.5h11q23 0 26 -19q-2 11 -2 -42z" />
    <glyph glyph-name="K" unicode="K" horiz-adv-x="1404" 
d="M1418 8q0 -17 -28 -17h-7q-47 0 -139.5 4.5t-139.5 4.5t-140.5 -4.5t-140.5 -4.5h-8q-25 0 -28 19q1 -7 1 42q0 10 5 14q40 3 80 5q71 6 71 42q0 25 -30 74l-323 511l-103 -92v-348q0 -171 101 -182l59 -6q10 -1 13.5 -5t3.5 -57q0 -17 -27 -17h-8q-45 0 -134 4.5
t-134 4.5q-44 0 -133.5 -4.5t-134.5 -4.5h-8q-25 0 -29 18q2 -6 2 43q0 17 61 23q69 6 94 50q22 41 22 133v790q0 171 -101 182l-59 7q-10 1 -13.5 4.5t-3.5 56.5q0 18 24 18h11q44 0 133.5 -4.5t134.5 -4.5q44 0 133.5 4.5t134.5 4.5h8q26 0 29 -19q-2 8 -2 -42
q0 -17 -61 -23q-69 -6 -92.5 -49t-23.5 -135v-331q187 170 355 344q94 98 94 137q0 33 -66 37q-39 3 -77 6q-5 3 -5 57q0 18 24 18h11q35 0 105.5 -4.5t105.5 -4.5q36 0 106.5 4.5t105.5 4.5h9q25 0 28 -19q-2 10 -2 -42q0 -12 -4 -15t-18 -3q-91 0 -134 -24
q-47 -27 -110 -93q-154 -161 -242 -247l404 -647q53 -84 89 -114q29 -25 90 -36q29 -6 58 -11q3 -3 3 -57z" />
    <glyph glyph-name="L" unicode="L" horiz-adv-x="1158" 
d="M1150 278q0 -4 -31 -132l-32 -128q-6 -26 -39 -25l-410 7h-191q-355 -9 -362 -9q-26 0 -29 18q1 -6 1 43q0 17 61 23q70 6 94 50q22 41 22 133v790q0 171 -101 182l-59 7q-10 1 -13.5 4.5t-3.5 56.5q0 18 27 18h8q45 0 134 -4.5t134 -4.5q44 0 133.5 4.5t134.5 4.5h11
q24 0 26 -19q-1 11 -1 -42q0 -17 -61 -23q-70 -6 -93.5 -49t-23.5 -135v-791q0 -170 176 -170h38q145 0 224 31q95 37 125 106q35 79 45 79q56 0 56 -25z" />
    <glyph glyph-name="M" unicode="M" horiz-adv-x="1790" 
d="M1725 8q0 -17 -27 -17h-9q-44 0 -133 4.5t-133 4.5q-45 0 -134.5 -4.5t-134.5 -4.5h-7q-26 0 -29 18q1 -6 1 43q0 16 18 18l58 6q96 11 96 166v23l-25 827l-232 -576q-55 -129 -157 -391l-44 -124q-11 -31 -35 -31q-21 0 -32 30l-46 125q-1 2 -161 389l-229 550l-21 -821
q0 -156 95 -167l59 -6q10 -1 13.5 -4.5t3.5 -57.5q0 -17 -26 -17q-32 0 -100.5 4.5t-103.5 4.5q-32 0 -97 -4.5t-97 -4.5h-9q-25 0 -28 19q1 -8 1 42q0 17 61 22q70 7 95 50t28 141l23 798q0 77 -17 111q-23 50 -90 56l-64 7q-6 0 -16 5q-4 3 -4 56q0 21 24 19l12 -1
q111 -9 199 -9q34 0 101.5 4.5t98.5 4.5q30 0 88 -138l320 -770l309 770q55 138 87 138q30 0 94 -4.5t97 -4.5q34 0 102 5t100 5q23 0 25 -20q-2 16 -2 -42q0 -16 -17 -18l-59 -7q-97 -10 -97 -166v-22l24 -777q3 -98 27.5 -140t84.5 -50q65 -8 68 -11t3 -56z" />
    <glyph glyph-name="N" unicode="N" horiz-adv-x="1614" 
d="M1581 1255q0 -17 -61 -23q-70 -6 -93.5 -49.5t-23.5 -134.5v-864q0 -66 3 -143q0 -7 1.5 -26.5t1.5 -30.5q0 -31 -72 -31q-13 0 -21 9l-945 1099v-803q0 -171 101 -182l59 -6q10 -1 13.5 -5t3.5 -57q0 -17 -27 -17h-8q-32 0 -97 4.5t-97 4.5q-33 0 -97.5 -4.5t-96.5 -4.5
h-9q-25 0 -28 19q1 -8 1 42q0 17 62 23q69 6 93 50q23 41 23 133v790q0 120 -50 155q-34 23 -165 34q-8 0 -19 5q-5 4 -5 56q0 18 26 18h9q33 0 99 -4.5t99 -4.5q58 0 133 4.5t64 4.5q27 0 120 -108l721 -837v677q0 171 -101 182l-59 7q-9 1 -13 5t-4 56q0 19 24 19
q32 0 101 -5t104 -5t104.5 5t102.5 5q22 0 25 -20q-2 17 -2 -42z" />
    <glyph glyph-name="O" unicode="O" horiz-adv-x="1650" 
d="M1563 688q0 -307 -220 -513q-215 -201 -524 -201q-313 0 -528.5 187t-215.5 456q0 308 219 514q215 202 525 202q314 0 529 -187.5t215 -457.5zM1311 559q0 289 -149 486t-365 197t-345 -141q-125 -136 -125 -355q0 -287 150 -484.5t363 -197.5q217 0 346 140
q125 136 125 355z" />
    <glyph glyph-name="P" unicode="P" horiz-adv-x="1193" 
d="M1126 950q0 -203 -164 -305q-136 -84 -353 -84q-21 0 -21 46q0 32 4 38q71 14 141 27q129 51 129 251q0 163 -55 238q-64 87 -219 87q-100 0 -100 -101v-882q0 -178 109 -189l63 -6q6 -1 16 -5q3 -3 3 -57q0 -17 -27 -17h-8q-46 0 -137 4.5t-137 4.5t-138 -4.5t-138 -4.5
h-8q-25 0 -29 19q2 -7 2 42q0 17 61 23q69 6 94 50q22 41 22 140v804q0 144 -97 144q-11 0 -34.5 -4.5t-34.5 -4.5t-11 63q0 9 35 17q119 30 205 40q129 16 253 16q231 0 382 -79q192 -101 192 -311z" />
    <glyph glyph-name="Q" unicode="Q" horiz-adv-x="1650" 
d="M1577 688q0 -237 -141.5 -424t-369.5 -256q119 -284 437 -284q26 0 29 -16q0 2 0 -41q0 -22 -6 -28q-19 -20 -163 -20q-378 0 -564 355q-289 7 -498 178q-227 184 -227 465q0 308 223 515q218 201 528 201q317 0 534.5 -187t217.5 -458zM1325 589q0 276 -148.5 464.5
t-361.5 188.5q-227 0 -361 -151q-128 -145 -128 -375q0 -275 148 -462q149 -190 361 -190q228 0 362 151q128 144 128 374z" />
    <glyph glyph-name="R" unicode="R" horiz-adv-x="1404" 
d="M1426 8q0 -17 -28 -17q-36 0 -99 4q-71 5 -99 6l-129 -2q-26 0 -50 36l-294 464q-58 91 -99 119q-51 35 -148 35v-388q0 -178 108 -189l63 -6q6 -1 16 -5q4 -3 4 -57q0 -17 -28 -17h-7q-46 0 -137.5 4.5t-136.5 4.5q-47 0 -138.5 -4.5t-138.5 -4.5h-7q-26 0 -29 19
q1 -7 1 42q0 17 61 22q70 7 94 51q23 41 23 132v792q0 170 -102 181l-58 7q-11 1 -14.5 4.5t-3.5 56.5q0 18 24 18q47 0 140 -4.5t139 -4.5t137 4t136 4q181 0 312 -65q169 -83 169 -244q0 -231 -299 -291q87 -44 130 -111l239 -378q53 -85 89 -114q31 -26 93 -36t63 -11
q4 -4 4 -57zM843 986q0 103 -64.5 166t-167.5 63q-131 0 -131 -153v-315q45 -4 93 -4q119 0 192 61q78 66 78 182z" />
    <glyph glyph-name="S" unicode="S" horiz-adv-x="1018" 
d="M939 382q0 -203 -154 -312q-135 -96 -347 -96q-165 0 -297 67q-12 6 -17 15q-8 10 -30 248q-3 26 58 26q12 0 17 -14q97 -252 294 -252q282 0 282 224q0 139 -252 236q-186 72 -277 155q-124 113 -124 280q0 171 145 277q131 97 308 97q166 0 278 -61q20 -10 29 -23
t19 -246q1 -17 -55 -26q-14 -3 -19 16q-29 122 -88 179q-74 70 -190 70q-234 0 -234 -190q0 -79 74 -146q68 -62 230 -124q166 -63 246 -142q104 -103 104 -258z" />
    <glyph glyph-name="T" unicode="T" horiz-adv-x="1264" 
d="M1249 1394q0 17 -33 -164q-13 -74 -24 -160q-2 -18 -19 -17q-18 1 -37 1q-20 4 -22 22l-6 82q-5 54 -165 54h-178v-954q0 -170 113 -182l65 -6q6 -1 16 -5q4 -3 4 -57q0 -17 -27 -17h-9q-48 0 -144 4.5t-144 4.5t-144 -4.5t-145 -4.5h-8q-25 0 -28 19q1 -7 1 42
q0 17 68 23q78 6 105 50q25 40 25 133v954h-179q-161 0 -207 -103q-29 -66 -42 -64q-56 9 -56 23q0 -24 29 161q5 54 20 158q4 19 21 19h4l48 -8q4 -1 27 -43q15 -26 72.5 -37t163.5 -11h487q184 0 253 73q20 21 34 33q61 -6 61 -19z" />
    <glyph glyph-name="U" unicode="U" horiz-adv-x="1545" 
d="M1526 1255q0 -18 -61 -23q-69 -6 -93 -49t-24 -141v-552q0 -262 -166 -395q-152 -121 -422 -121q-210 0 -359 84q-184 102 -184 296v688q0 82 -13 120q-22 61 -88 68l-58 7q-11 1 -14.5 4.5t-3.5 56.5q0 18 24 18h11q45 0 134 -4.5t134 -4.5t134.5 4.5t133.5 4.5h12
q23 0 25 -19q-1 11 -1 -42q0 -18 -61 -23q-69 -6 -93 -49t-24 -141v-588q0 -348 388 -348q160 0 270 93q117 99 117 255v588q0 82 -13 120q-22 61 -88 68l-58 7q-11 1 -14.5 4.5t-3.5 56.5q0 19 24 19q32 0 101 -5t104 -5q33 0 97.5 4.5t97.5 4.5h9q25 0 27 -20
q-1 10 -1 -41z" />
    <glyph glyph-name="V" unicode="V" horiz-adv-x="1404" 
d="M1393 1255q0 -10 -2.5 -12.5t-50 -11t-78.5 -48.5q-35 -45 -73 -141l-426 -1060q-5 -12 -49 -12q-45 0 -50 12l-439 1099q-38 96 -68 119.5t-130 36.5q-5 1 -14 5q-4 3 -4 56q0 18 27 18h9q44 0 132 -4.5t132 -4.5t131.5 4.5t131.5 4.5h12q23 0 25 -19q-1 12 -1 -42
q0 -18 -72.5 -25t-72.5 -47q0 -18 10 -44l326 -804l315 804q10 26 10 43q0 39 -63 47q-76 10 -79 13t-3 56q0 19 24 19q30 0 91 -5t92 -5t92 5t92 5q23 0 25 -20q-2 17 -2 -42z" />
    <glyph glyph-name="W" unicode="W" horiz-adv-x="1895" 
d="M1848 1255q0 -15 -12 -18q-38 -9 -49 -15q-15 -9 -35 -39q-33 -48 -71 -141l-217 -528q-104 -252 -157 -389q-14 -34 -40 -104q-4 -15 -14 -43q-3 -8 -30 -8q-24 0 -27 8q-5 14 -14 42q-63 182 -174 446l-156 -344q-23 -51 -43 -102q-5 -15 -16 -42q-4 -8 -29 -8t-29 8
q-5 14 -16 42q-15 38 -44 103q-42 92 -446 958q-32 67 -49 91q-35 50 -80 58l-36 7q-12 2 -12 61q0 19 23 19q33 0 99.5 -5t99.5 -5q34 0 101 5t101 5q19 0 21 -22q-2 20 -2 -40q0 -17 -32 -24t-32 -30q0 -20 20 -62l394 -832l121 264l-207 510q-28 71 -42 92q-31 49 -78 57
l-36 7q-12 2 -12 61q0 19 23 19q34 0 103 -5t104 -5q34 0 103.5 5t103.5 5q22 0 22 -19v-43q0 -18 -48.5 -25t-48.5 -39q0 -20 13 -52l123 -299l138 299q16 37 16 55q0 29 -83 43q-12 2 -12 61q0 19 23 19q22 0 67.5 -5t69.5 -5q23 0 69.5 5t69.5 5q22 0 24 -22
q-2 16 -2 -40q0 -9 -3 -13l-37.5 -9.5t-67.5 -49.5q-39 -50 -81 -141l-145 -312l160 -392l327 801q15 39 15 59q0 25 -56 39q-10 2 -10 61q0 19 21 19q19 0 58.5 -5t59.5 -5t59.5 5t58.5 5q20 0 22 -22q-2 18 -2 -40z" />
    <glyph glyph-name="X" unicode="X" horiz-adv-x="1439" 
d="M1421 8q0 -17 -22 -17h-13q-46 0 -137 4.5t-137 4.5q-45 0 -136.5 -4.5t-137.5 -4.5h-7q-26 0 -29 18q1 -6 1 43q0 9 3 12.5t72 11.5q62 8 62 36q0 21 -24 55l-239 353l-271 -353q-28 -36 -28 -56q0 -27 60 -35q68 -8 71 -11.5t3 -56.5q0 -17 -27 -17h-8q-33 0 -98.5 4.5
t-98.5 4.5t-98.5 -4.5t-97.5 -4.5h-9q-25 0 -28 19q1 -8 1 42q0 15 22 18q61 7 80 14q31 10 68 41q60 49 130 140l268 346l-318 470q-56 83 -96 115q-29 23 -94 35q-31 5 -62 11q-3 4 -3 56q0 18 24 18h11q47 0 141 -4.5t141 -4.5t141 4.5t141 4.5h11q24 0 26 -19
q-2 12 -2 -42q0 -9 -3 -12.5t-71 -12.5q-61 -7 -61 -37q0 -21 22 -54l216 -317l244 317q28 37 28 57q0 27 -61 35q-67 9 -70 12t-3 55q0 21 24 19l11 -1q112 -9 199 -9q36 0 105.5 4.5t102.5 4.5q24 0 27 -19q-1 10 -1 -42q0 -15 -23 -18q-62 -8 -80 -14q-33 -10 -70 -40
q-60 -49 -131 -141l-241 -312l341 -504q56 -83 95 -115q26 -23 85 -35q28 -6 56 -11q3 -3 3 -57z" />
    <glyph glyph-name="Y" unicode="Y" horiz-adv-x="1334" 
d="M1330 1255q0 -10 -2.5 -13t-51.5 -12q-33 -5 -74 -47q-50 -50 -112 -141l-280 -414v-370q0 -171 102 -182l58 -6q6 -1 14 -5q4 -4 4 -57q0 -17 -28 -17h-7q-45 0 -134 4.5t-134 4.5t-134.5 -4.5t-134.5 -4.5h-7q-26 0 -29 18q1 -6 1 43q0 17 61 23q70 6 93.5 49t23.5 134
v347l-311 476q-55 84 -91 115q-26 22 -84 35q-28 5 -55 11q-4 4 -4 56q0 21 23 19l12 -1q121 -9 249 -9q42 0 125 4.5t124 4.5h12q23 0 25 -19q-1 11 -1 -42q0 -19 -52.5 -25t-52.5 -32q0 -19 26 -59l267 -409l272 409q21 33 21 53q0 30 -61 38q-70 9 -73 12.5t-3 55.5
q0 19 25 19q29 0 88 -5t88 -5q30 0 89.5 5t89.5 5q22 0 25 -20q-2 17 -2 -42z" />
    <glyph glyph-name="Z" unicode="Z" horiz-adv-x="1264" 
d="M1216 274q0 -5 -43 -131l-43 -125q-9 -26 -31 -25l-620 7q-117 1 -414 -8q-16 -1 -16 31q0 33 19 59q105 141 309 429l474 704h-356q-230 0 -302 -131q-41 -76 -53 -76t-32 9q-23 10 -23 22q0 3 43 172l43 165q6 22 21 22h49q11 0 26 -33q17 -36 71 -46q43 -8 169 -10
l242 -2q36 0 417 2q10 0 18.5 -13t8.5 -23q0 -5 -3 -11l-793 -1175h356q152 0 236 32t121.5 107.5t49.5 75.5q56 0 56 -28z" />
    <glyph glyph-name="bracketleft" unicode="[" horiz-adv-x="627" 
d="M594 -328q0 -45 -29 -45h-420q-39 0 -39 39v1667q0 39 39 39h420q29 0 29 -45t-29 -45h-131q-53 0 -91 -38t-38 -91v-1307q0 -53 38 -91t91 -38h131q29 0 29 -45z" />
    <glyph glyph-name="backslash" unicode="\" horiz-adv-x="995" 
d="M981 -373h-152l-815 1745h154z" />
    <glyph glyph-name="bracketright" unicode="]" horiz-adv-x="627" 
d="M520 -334q0 -39 -39 -39h-420q-28 0 -28 45t28 45h132q53 0 91 38t38 91v1307q0 53 -38 91t-91 38h-132q-28 0 -28 45t28 45h420q39 0 39 -39v-1667z" />
    <glyph glyph-name="asciicircum" unicode="^" horiz-adv-x="992" 
d="M899 966q-244 110 -403 253q-152 -139 -400 -253v92q134 97 208.5 191t141.5 245h103q66 -152 140.5 -245t209.5 -191v-92z" />
    <glyph glyph-name="underscore" unicode="_" horiz-adv-x="992" 
d="M992 -535h-992v123h992v-123z" />
    <glyph glyph-name="grave" unicode="`" horiz-adv-x="524" 
d="M408 784q0 -39 -37 -39h-43q-43 0 -58 43l-145 424q-14 41 -14 80q0 121 122 121q121 0 134 -149z" />
    <glyph glyph-name="a" unicode="a" horiz-adv-x="835" 
d="M817 147q-1 -1 -2 -4q-16 -72 -65 -117q-52 -49 -123 -49q-129 0 -129 129q-130 -129 -267 -129q-70 0 -113 66q-38 57 -38 131q0 67 176 145q56 24 242 87v79q0 76 -37 105q-32 24 -111 24q-114 0 -114 -47q0 -4 5 -14.5t5 -20.5q0 -9 -10 -16q-78 -49 -107 -49
q-27 0 -27 61q0 70 109 131l192 109q144 0 205 -31q88 -45 88 -174v-379q0 -53 29 -53q23 0 42.5 17.5t25.5 17.5q24 0 24 -19zM498 174v168q-103 -35 -130 -49q-85 -42 -85 -92q0 -34 18 -70q21 -43 51 -43q65 0 146 86z" />
    <glyph glyph-name="b" unicode="b" horiz-adv-x="1002" 
d="M924 401q0 -175 -115 -298q-117 -126 -291 -126q-111 0 -223 50q-9 4 -19 4q-19 0 -44 -28t-33 -28q-43 0 -43 23v1042q0 64 -13 84q-9 15 -55 34q-41 17 -41 36q0 13 6 23q3 4 137.5 58t145.5 54q16 0 16 -16v-643q104 98 256 98q142 0 232 -115q84 -107 84 -252z
M729 340q0 115 -53 205q-63 106 -170 106q-87 0 -154 -47v-358q0 -86 44 -140q47 -57 130 -57q203 0 203 291z" />
    <glyph glyph-name="c" unicode="c" horiz-adv-x="768" 
d="M727 164q0 -8 -4 -14q-103 -173 -283 -173q-170 0 -264 102q-92 98 -92 269q0 176 119 298t295 122q74 0 134 -30q75 -37 75 -103q0 -37 -24 -62.5t-60 -25.5q-65 0 -112 73.5t-81 73.5q-84 0 -136 -70q-48 -64 -48 -151q0 -132 71 -230q78 -110 205 -110q57 0 115 35
t53 35q8 0 22.5 -15.5t14.5 -23.5z" />
    <glyph glyph-name="d" unicode="d" horiz-adv-x="1002" 
d="M963 74q0 -6 -1 -17t-1 -16q0 -15 -37 -18q-138 -15 -242 -54q-23 -2 -23 17v96q-116 -105 -260 -105q-139 0 -229 111q-84 103 -84 246q0 177 111 303q116 131 290 131q95 0 172 -37v309q0 64 -12 84q-9 15 -56 34q-40 17 -40 36q0 13 6 23q3 4 137.5 58t145.5 54
q16 0 16 -16v-1118q0 -66 14.5 -80.5t75.5 -14.5q17 0 17 -26zM659 145v369q0 184 -172 184q-99 0 -157 -100q-49 -85 -49 -192q0 -117 58 -208q67 -104 177 -104q85 0 143 51z" />
    <glyph glyph-name="e" unicode="e" horiz-adv-x="802" 
d="M752 504q0 -29 -11 -36q-6 -4 -36 -5l-443 -14v-23q0 -132 74 -211q76 -82 207 -82q61 0 119 41t51 41q7 0 21 -15t14 -22q0 -5 -5 -12q-112 -189 -342 -189q-145 0 -240 116q-89 108 -89 257q0 170 107 292q112 126 280 126q293 0 293 -264zM561 580q0 23 -12 47
q-35 67 -117 67q-129 0 -164 -170l207 6q86 3 86 50z" />
    <glyph glyph-name="f" unicode="f" horiz-adv-x="635" 
d="M686 1241q0 -39 -25.5 -66.5t-64.5 -27.5q-31 0 -74.5 37t-66.5 37q-62 0 -62 -95v-381h162q23 0 23 -32q0 -41 -23 -41h-162v-475q0 -81 13 -105q14 -27 69 -34q49 -5 49 -17v-35q0 -14 -28 -14q-32 0 -95 4t-94 4t-93 -4t-93 -4t-31 20q0 5 1 14.5t1 14.5q0 12 39 18
q44 7 55 28.5t11 88.5v496h-103q-20 0 -20 30q0 43 20 43h103v129q0 173 95 307q106 150 271 150q45 0 81 -22q42 -25 42 -68z" />
    <glyph glyph-name="g" unicode="g" horiz-adv-x="969" 
d="M915 -96q0 -153 -153 -244q-130 -78 -293 -78q-365 0 -365 256l199 94q-101 15 -141.5 62t-40.5 149l182 127q-79 26 -131 80q-59 61 -59 137q0 128 110 209q99 72 232 72q151 0 245 -74h199q16 0 16 -16v-74q0 -16 -16 -16h-113q9 -31 9 -62q0 -128 -109 -207
q-98 -71 -231 -71q-44 0 -90 8q-72 -37 -72 -82q0 -53 143 -53h164q133 0 224 -63t91 -154zM602 461q0 86 -38 156q-45 85 -124 85q-133 0 -133 -149q0 -86 37 -155q45 -85 123 -85q135 0 135 148zM741 -182q0 108 -165 108q-17 0 -46 -1t-41 -1q-87 0 -124 2
q-86 -41 -86 -125q0 -69 78 -109q64 -32 141 -32q243 0 243 158z" />
    <glyph glyph-name="h" unicode="h" horiz-adv-x="1069" 
d="M999 6q0 -14 -18 -14h-10q-96 8 -174 8q-79 0 -174 -8h-11q-20 0 -20 20q0 5 1 14.5t1 14.5q0 12 39 17q43 7 55 30q10 20 10 88v334q0 133 -139 133q-95 0 -178 -82v-385q0 -68 10 -88q12 -23 55 -30q39 -5 39 -17v-35q0 -14 -20 -14h-8q-96 8 -174 8q-31 0 -91.5 -4
t-91.5 -4q-22 0 -22 22q0 5 1 13.5t1 13.5q0 12 39 17q43 7 55 30q10 20 10 88v864q0 64 -12 84q-9 15 -56 34q-40 17 -40 36q0 13 6 23q3 4 137.5 58t145.5 54q16 0 16 -16v-678q145 133 287 133q103 0 164 -55q63 -58 63 -160v-365q0 -80 10 -100q12 -24 56 -30
q38 -5 38 -17v-35z" />
    <glyph glyph-name="i" unicode="i" horiz-adv-x="534" 
d="M410 1079q0 -53 -37.5 -90t-89.5 -37q-53 0 -90 37t-37 90t37 90t90 37q52 0 89.5 -37t37.5 -90zM492 6q0 -14 -15 -14h-14q-95 8 -176 8q-77 0 -172 -8h-9q-22 0 -22 20q0 5 1 14.5t1 14.5q0 12 39 17q44 7 54.5 29t10.5 87v313q0 64 -12 84q-9 15 -56 34q-40 17 -40 36
q0 13 6 23q3 4 137.5 58t145.5 54q16 0 16 -16v-572q0 -83 8 -100q12 -23 56 -30q41 -5 41 -17v-35z" />
    <glyph glyph-name="j" unicode="j" horiz-adv-x="501" 
d="M401 1079q0 -53 -37 -90t-90 -37q-52 0 -89.5 37t-37.5 90t37.5 90t89.5 37q53 0 90 -37t37 -90zM379 -74q0 -123 -92 -221q-84 -91 -209 -123h-4q-6 0 -15.5 22t-9.5 29q0 3 6 7q45 23 66 43q61 57 61 133v671q0 64 -12 84q-9 15 -56 34q-40 17 -40 36q0 13 6 23
q3 4 137.5 58t144.5 54q17 0 17 -16v-834z" />
    <glyph glyph-name="k" unicode="k" horiz-adv-x="1002" 
d="M971 31q0 -39 -15 -39q-29 0 -89.5 4t-90.5 4q-29 0 -87 -4t-87 -4q-18 0 -18 22q0 5 1 14t1 13q0 12 27.5 17t27.5 24q0 14 -25 55l-155 260l-90 -67v-154q0 -67 10.5 -88.5t54.5 -28.5q39 -6 39 -18v-35q0 -14 -29 -14t-86.5 4t-87.5 4q-29 0 -87 -4t-87 -4
q-28 0 -28 20v29q0 12 39 17q43 7 54 29t11 87v866q0 64 -12 84q-9 15 -56 34q-40 17 -40 36q0 13 6 23q2 4 136.5 58t145.5 54q17 0 17 -16v-907q274 206 274 253q0 33 -86 33q-22 0 -22 25q0 37 20 37q28 0 83 -4.5t83 -4.5q27 0 81.5 4.5t82.5 4.5q20 0 20 -23
q0 -4 -1 -13t-1 -13q0 -9 -18 -13q-30 -4 -88 -20q-24 -11 -98 -76q-50 -44 -101 -88l203 -320q75 -118 125 -129q15 -2 29 -6t14 -22z" />
    <glyph glyph-name="l" unicode="l" horiz-adv-x="534" 
d="M479 6q0 -14 -12 -14h-16q-96 8 -175 8q-78 0 -174 -8h-10q-20 0 -20 20q0 5 1 14.5t1 14.5q0 12 39 18q44 6 54.5 28t10.5 83v870q0 64 -12 84q-9 15 -56 34q-40 17 -40 36q0 13 6 23q3 4 137 58t145 54q17 0 17 -16v-1125q0 -79 10.5 -101t54.5 -28q39 -6 39 -18v-35z
" />
    <glyph glyph-name="m" unicode="m" horiz-adv-x="1570" 
d="M1495 6q0 -14 -29 -14t-87.5 4t-88.5 4q-80 0 -176 -8h-8q-21 0 -21 20v29q0 12 41.5 18t53.5 29q10 20 10 88v336q0 131 -135 131q-102 0 -176 -82v-385q0 -68 10 -88q12 -23 55 -30q39 -5 39 -17v-35q0 -14 -18 -14h-11q-95 8 -174 8q-78 0 -174 -8h-10q-21 0 -21 20
q0 5 1.5 14.5t1.5 14.5q0 12 38 17q44 7 56 30q10 20 10 88v303q0 70 -33 114q-37 50 -104 50q-99 0 -174 -82v-385q0 -68 10 -88q11 -23 55 -29q39 -6 39 -18v-35q0 -14 -20 -14h-9q-95 8 -174 8q-78 0 -174 -8h-8q-20 0 -20 20v29q0 12 38 17q44 7 56 30q10 20 10 88v311
q0 64 -12 84q-9 15 -56 34q-40 17 -40 36q0 13 6 23q2 4 136.5 58t145.5 54q17 0 17 -16v-133q148 141 286 141q175 0 213 -147q153 147 295 147q101 0 161 -55.5t60 -155.5v-369q0 -81 11 -100q12 -23 57 -29q41 -6 41 -18v-35z" />
    <glyph glyph-name="n" unicode="n" horiz-adv-x="1069" 
d="M1004 6q0 -14 -29 -14q-30 0 -89.5 4t-88.5 4q-31 0 -91.5 -4t-91.5 -4q-24 0 -24 22q0 5 1 13.5t1 13.5q0 12 39 17q43 7 54 29t11 89v338q0 129 -135 129q-97 0 -172 -82v-385q0 -67 11 -89t55 -29q39 -5 39 -17v-35q0 -14 -29 -14t-86 4t-86 4q-81 0 -176 -8h-8
q-21 0 -21 20v29q0 12 40 17q45 7 56 30q9 17 9 88v311q0 64 -13 84q-9 15 -56 34q-40 17 -40 36q0 13 6 23q3 4 137.5 58t145.5 54q16 0 16 -16v-133q146 141 283 141q101 0 161 -55.5t60 -155.5v-369q0 -76 12 -99.5t58 -29.5q41 -6 41 -18v-35z" />
    <glyph glyph-name="o" unicode="o" horiz-adv-x="969" 
d="M889 397q0 -173 -112 -294q-114 -126 -285 -126q-164 0 -280 103q-120 107 -120 268q0 173 112 295q116 125 288 125q163 0 278 -102q119 -107 119 -269zM696 295q0 167 -68 283t-163 116q-178 0 -178 -245q0 -168 67.5 -283t161.5 -115q180 0 180 244z" />
    <glyph glyph-name="p" unicode="p" horiz-adv-x="1002" 
d="M928 403q0 -179 -121.5 -302.5t-300.5 -123.5q-70 0 -150 9v-189q0 -88 15 -116q17 -34 64.5 -40.5t48.5 -8t1 -23.5q0 -26 -2 -29q-3 -6 -26 -6q-32 0 -93.5 4t-93.5 4q-33 0 -98 -4t-98 -4q-23 0 -23 23q0 4 1 13t1 13q0 12 39 17q43 6 58 41q10 24 10 108v698
q0 64 -13 84q-9 15 -55 34q-41 17 -41 36q0 13 6 23q3 4 137.5 58t145.5 54q16 0 16 -16v-111l158 111q39 8 70 8q148 0 248 -109q96 -105 96 -256zM733 338q0 114 -50 204q-60 109 -165 109q-94 0 -162 -69v-443q80 -90 174 -90q203 0 203 289z" />
    <glyph glyph-name="q" unicode="q" horiz-adv-x="1002" 
d="M958 -412q0 -14 -20 -14h-8q-96 8 -176 8q-76 0 -172 -8h-11q-20 0 -20 23q0 4 1 13t1 13q0 12 36 17q41 6 56 41q10 24 10 114v285q-116 -103 -258 -103q-138 0 -228 111q-85 104 -85 246q0 183 127 308.5t311 125.5q84 0 191 -37q6 -2 14 -2q23 0 44 21.5t30 21.5
q12 0 31.5 -8t19.5 -19v-940q0 -101 10 -124q15 -35 58 -41q38 -5 38 -17v-35zM655 145v365q0 188 -168 188q-109 0 -162 -97q-42 -77 -42 -195q0 -117 57 -207q67 -105 176 -105q82 0 139 51z" />
    <glyph glyph-name="r" unicode="r" horiz-adv-x="776" 
d="M741 672q0 -113 -112 -113q-20 0 -53.5 19.5t-53.5 19.5q-54 0 -131 -102v-320q0 -68 13 -89t70 -28q52 -6 52 -18v-35q0 -14 -28 -14q-31 0 -95.5 4t-95.5 4t-94 -4t-94 -4t-31 20q0 5 1 14.5t1 14.5q0 12 39 17q44 7 55 29t11 89v311q0 64 -13 84q-9 15 -55 34
q-41 17 -41 36q0 13 6 23q3 4 137.5 58t145.5 54q16 0 16 -16v-180q80 94 105 118q75 70 133 70q45 0 78.5 -26t33.5 -70z" />
    <glyph glyph-name="s" unicode="s" horiz-adv-x="668" 
d="M608 219q0 -107 -86 -177q-80 -65 -190 -65q-139 0 -219 70q-17 14 -17 31q0 9 1 28.5t1 28.5q0 10 -1 30t-1 30q0 22 43 22q18 0 29 -20q40 -74 62 -98q43 -48 102 -48q112 0 112 105q0 41 -25 72t-112 82q-97 57 -133 91q-63 60 -63 134q0 104 83 171q78 62 185 62
q54 0 119 -15q90 -21 90 -57v-127q0 -20 -43 -20q-11 0 -17 12q-17 42 -21 50q-13 24 -34 42q-46 41 -104 41q-97 0 -97 -78q0 -55 164 -151q89 -53 125 -97q47 -59 47 -149z" />
    <glyph glyph-name="t" unicode="t" horiz-adv-x="668" 
d="M631 123q0 -7 -4 -14q-70 -132 -252 -132q-217 0 -217 195v440q0 50 -52.5 57t-52.5 25q0 17 17 33q42 35 123 109l120 120q13 13 27 13t14 -15v-209h244q14 0 14 -36q0 -37 -14 -37h-244v-441q0 -52 35.5 -91.5t87.5 -39.5q43 0 87 23.5t42 23.5q25 0 25 -24z" />
    <glyph glyph-name="u" unicode="u" horiz-adv-x="1069" 
d="M993 102q0 -5 -1 -16t-1 -16q0 -8 -37 -17q-146 -36 -241 -78q-23 0 -23 17v127q-145 -142 -293 -142q-102 0 -162 56q-63 58 -63 160v348q0 79 -10 100q-15 30 -57 35q-37 4 -37 16v35q0 13 30 16l252 25q19 0 19 -16v-516q0 -134 141 -134q108 0 180 84v355
q0 79 -10 100q-15 30 -57 35q-37 4 -37 16v35q0 13 30 16l252 25q19 0 19 -16v-582q0 -49 28 -49q12 0 34.5 6t33.5 6q10 0 10 -31z" />
    <glyph glyph-name="v" unicode="v" horiz-adv-x="969" 
d="M911 705q0 -9 -14 -13q-34 -9 -43 -14q-13 -7 -31 -33q-33 -47 -67 -123l-244 -540q-4 -9 -33 -9t-33 9l-258 575q-29 65 -52.5 93.5t-78.5 41.5q-14 4 -14 13v34q0 15 29 15q30 0 91 -4.5t91 -4.5q33 0 98.5 4.5t96.5 4.5q18 0 18 -23q0 -4 -1 -13t-1 -13q0 -12 -44 -19
t-44 -35q0 -14 12 -43l158 -368l164 368q12 28 12 45q0 28 -44 34t-44 18v34q0 15 18 15q20 0 59.5 -4.5t59.5 -4.5t60.5 4.5t60.5 4.5q18 0 18 -23v-26z" />
    <glyph glyph-name="w" unicode="w" horiz-adv-x="1369" 
d="M1294 727q0 -5 -1 -15.5t-1 -15.5q0 -8 -16 -12q-39 -9 -47 -13q-17 -8 -35 -34q-24 -34 -59 -121l-215 -528q-6 -15 -35 -15q-27 0 -33 15l-172 426l-174 -426q-6 -15 -35 -15q-27 1 -33 15l-235 569q-26 63 -51 94q-23 28 -82 41q-17 4 -17 13v34q0 15 15 15
q43 0 117 -4q85 -4 118 -5h232q55 0 165.5 4.5t165.5 4.5q17 0 17 -23q0 -4 -1 -13t-1 -13q0 -13 -47.5 -19t-47.5 -33q0 -13 7 -28l151 -387l143 362q11 26 11 45q0 26 -39 32.5t-39 18.5v35q0 14 22 14q19 0 57.5 -5t57.5 -5q20 0 56.5 5t50.5 5q30 0 30 -18zM645 502
l-41 102q-27 68 -121 68h-73q-39 0 -39 -31q0 -13 6 -29l155 -391z" />
    <glyph glyph-name="x" unicode="x" horiz-adv-x="969" 
d="M915 6q0 -14 -12 -14h-16q-95 8 -178 8t-179 -8h-8q-22 0 -22 20q0 5 1 14.5t1 14.5q0 12 41 17.5t41 27.5q0 17 -25 51l-115 160l-127 -160q-30 -38 -30 -55q0 -18 36 -24q41 -6 42 -7q4 -5 4 -24q0 -35 -21 -35q-22 0 -65.5 4t-65.5 4t-65.5 -4t-65.5 -4q-23 0 -23 22
q0 5 1.5 14t1.5 13q0 9 51 18q32 6 72 41.5t214 253.5l-143 203q-43 61 -78 94q-27 26 -86 41q-14 4 -14 13v34q0 15 29 15t88.5 -4.5t89.5 -4.5q32 0 96 4.5t94 4.5q19 0 19 -23q0 -4 -1 -13t-1 -13q0 -13 -41 -18t-41 -25q0 -19 24 -54l99 -137l108 137q31 39 31 56
q0 18 -41 22.5t-41 28.5q0 39 18 39q22 0 65.5 -4.5t65.5 -4.5t66 4.5t65 4.5t21 -23q0 -4 -1 -13t-1 -13q0 -10 -51 -19q-32 -6 -73 -42t-196 -228l164 -228q47 -65 78 -94q28 -26 86 -41q14 -3 14 -12v-35z" />
    <glyph glyph-name="y" unicode="y" horiz-adv-x="935" 
d="M905 731q0 -4 -1 -13t-1 -13q0 -9 -18 -13q-44 -9 -50 -12q-18 -8 -38 -35q-27 -36 -64 -123l-299 -710q-95 -228 -235 -228q-47 0 -85 23q-44 26 -44 69q0 44 28.5 74.5t71.5 30.5q24 0 72.5 -10.5t72.5 -10.5q22 0 60 88l71 166l-258 543q-30 64 -57 96q-21 25 -76 39
q-14 4 -14 47q0 15 14 15q31 0 95 -4.5t96 -4.5t96 4.5t94 4.5q19 0 19 -23q0 -32 -3.5 -36t-35.5 -4q-49 -1 -49 -34q0 -22 20 -67l156 -340l147 358q15 35 15 49q0 24 -36 30t-36 30q0 37 18 37q20 0 58.5 -4.5t58.5 -4.5t59.5 4.5t59.5 4.5q18 0 18 -23z" />
    <glyph glyph-name="z" unicode="z" horiz-adv-x="869" 
d="M813 182q0 -7 -47 -168q-15 -20 -29 -20q-17 0 -52 3t-52 3h-352q-29 0 -84.5 -6t-83.5 -6q-11 0 -22 14t-11 25q0 9 2 12l424 633h-195q-65 0 -117.5 -52.5t-54.5 -52.5q-14 0 -33 9q-22 10 -22 22q36 91 47 188q1 8 5.5 11.5t19.5 3.5q26 0 32 -10q8 -15 39 -39
q16 -7 117 -7h389q25 0 25 -32q0 -12 -6 -21l-414 -616h244q96 0 133 69q33 62 43 62q55 0 55 -25z" />
    <glyph glyph-name="braceleft" unicode="{" horiz-adv-x="840" 
d="M725 -373q-469 73 -469 314q0 47 24.5 138.5t24.5 139.5q0 186 -227 240v82q227 53 227 239q0 48 -24.5 139.5t-24.5 139.5q0 240 469 313v-80q-238 -77 -238 -227q0 -36 19.5 -109t19.5 -116q0 -230 -338 -340q338 -110 338 -338q0 -44 -19.5 -117.5t-19.5 -110.5
q0 -148 238 -225v-82z" />
    <glyph glyph-name="bar" unicode="|" horiz-adv-x="590" 
d="M367 -373h-144v1745h144v-1745z" />
    <glyph glyph-name="braceright" unicode="}" horiz-adv-x="840" 
d="M762 459q-227 -54 -227 -240q0 -48 24.5 -139.5t24.5 -138.5q0 -241 -469 -314v80q237 77 237 227q0 37 -19.5 109.5t-19.5 116.5q0 229 338 340q-338 109 -338 338q0 43 19.5 117t19.5 110q0 148 -237 225v82q469 -73 469 -313q0 -48 -24.5 -139.5t-24.5 -139.5
q0 -186 227 -239v-82z" />
    <glyph glyph-name="asciitilde" unicode="~" horiz-adv-x="1348" 
d="M1229 545q0 -10 -12 -35q-41 -84 -111 -137q-77 -58 -164 -58q-34 0 -108 17q-6 1 -227 63q-138 39 -230 39q-75 0 -155.5 -46t-69.5 -46q-12 0 -22.5 14.5t-10.5 26.5q0 10 10 27q46 74 117 127q81 61 157 61q99 0 283.5 -58.5t282.5 -58.5q111 0 211 86q9 8 18 8
q31 0 31 -30z" />
    <glyph glyph-name="nonbreakingspace" unicode="&#xa0;" horiz-adv-x="512" 
 />
    <glyph glyph-name="exclamdown" unicode="&#xa1;" horiz-adv-x="557" 
d="M416 631q0 -58 -39.5 -97.5t-97.5 -39.5q-59 0 -98.5 39.5t-39.5 97.5t39.5 97.5t98.5 39.5q58 0 97.5 -39.5t39.5 -97.5zM442 -514q0 -164 -163 -164q-164 0 -164 164q0 1 2 14l127 813q3 21 35 21q31 0 34 -21l127 -813q2 -13 2 -14z" />
    <glyph glyph-name="cent" unicode="&#xa2;" horiz-adv-x="768" 
d="M727 352q0 -7 -4 -14q-93 -156 -256 -171v-167q0 -27 -37 -27t-37 27v168q-148 14 -228.5 112t-80.5 257q0 147 86 259.5t223 147.5v164q0 27 37 27t37 -27v-153q15 1 31 1q74 0 134 -29q75 -37 75 -104q0 -36 -24 -62t-60 -26q-58 0 -98 53q-29 40 -58 81v-541
q27 -6 55 -6q57 0 115 34.5t53 34.5q8 0 22.5 -15.5t14.5 -23.5zM393 358v521q-68 -15 -109 -81q-38 -61 -38 -136q0 -92 37 -174q40 -86 110 -130z" />
    <glyph glyph-name="sterling" unicode="&#xa3;" horiz-adv-x="993" 
d="M928 287q0 -126 -73 -216q-79 -98 -202 -98q-87 0 -187 82q-114 92 -173 107q-79 -189 -180 -189q-74 0 -74 88q0 74 63 128q54 47 131 63q19 91 19 199q0 61 -10 215h-160q-27 0 -27 36q0 54 31 54h152q-7 103 -7 153q0 173 99 298q106 134 274 134q104 0 188 -46
q103 -55 103 -150q0 -44 -32 -72.5t-77 -28.5q-44 0 -74 31t-30 76v35q0 78 -64 78q-122 0 -186 -508h203q29 0 29 -35q0 -55 -33 -55h-209q-24 -180 -92 -406q72 -2 217 -39q141 -37 217 -37q35 0 60.5 21t25.5 55q0 26 -93 62t-93 92q0 42 29 70t71 28q78 0 124 -77
q40 -65 40 -148z" />
    <glyph glyph-name="currency" unicode="&#xa4;" horiz-adv-x="1347" 
d="M1145 147l-95 -94l-132 131q-110 -80 -245 -80q-137 0 -248 82l-132 -133l-92 91l133 132q-81 110 -81 248q0 135 80 246l-132 131l96 94l130 -130q110 80 246 80q138 0 248 -81l133 131l90 -90l-132 -133q82 -111 82 -248q0 -136 -80 -246zM972 524q0 124 -87.5 211.5
t-211.5 87.5q-123 0 -210.5 -87.5t-87.5 -211.5q0 -123 87.5 -210.5t210.5 -87.5q124 0 211.5 87.5t87.5 210.5z" />
    <glyph glyph-name="yen" unicode="&#xa5;" horiz-adv-x="1334" 
d="M1330 1255q0 -10 -2.5 -13t-51.5 -12q-33 -5 -74 -47q-50 -50 -112 -141l-275 -407h356q14 0 14 -13v-63q0 -14 -14 -14h-361v-153h361q14 0 14 -13v-63q0 -14 -14 -14h-361v-44q0 -171 102 -182l58 -6q6 -1 14 -5q4 -4 4 -57q0 -17 -28 -17h-7q-45 0 -134 4.5t-134 4.5
t-134.5 -4.5t-134.5 -4.5h-7q-26 0 -29 18q1 -6 1 43q0 17 61 23q70 6 93.5 49t23.5 134v44h-352q-14 0 -14 14v63q0 13 14 13h352v153h-352q-14 0 -14 14v63q0 13 14 13h332l-291 446q-55 84 -91 115q-26 22 -84 35q-28 5 -55 11q-4 4 -4 56q0 21 23 19l12 -1
q121 -9 249 -9q42 0 125 4.5t124 4.5h12q23 0 25 -19q-1 11 -1 -42q0 -19 -52.5 -25t-52.5 -32q0 -19 26 -59l267 -409l272 409q21 33 21 53q0 30 -61 38q-70 9 -73 12.5t-3 55.5q0 19 25 19q29 0 88 -5t88 -5q30 0 89.5 5t89.5 5q22 0 25 -20q-2 17 -2 -42z" />
    <glyph glyph-name="brokenbar" unicode="&#xa6;" horiz-adv-x="590" 
d="M367 651h-144v721h144v-721zM367 -373h-144v721h144v-721z" />
    <glyph glyph-name="section" unicode="&#xa7;" horiz-adv-x="1036" 
d="M885 129q0 -179 -112 -312q-116 -138 -292 -147h-39q-86 0 -164 36q-98 45 -98 120q0 47 37 78q34 28 82 28q57 0 116.5 -77.5t82.5 -77.5q86 0 86 133q0 65 -31 126q-15 30 -70 111q-191 283 -222 339q-109 201 -109 384q0 178 117 304q114 121 292 149q39 6 53 6
q78 0 141 -32q79 -39 79 -109q0 -41 -30.5 -67.5t-72.5 -26.5q-49 0 -107 64.5t-87 64.5q-93 0 -93 -90q0 -43 52 -144l244 -416q145 -258 145 -444zM772 86q0 113 -114 318q-106 176 -212 351q-114 195 -114 281q0 45 14 92q-82 -90 -82 -215q0 -119 112 -315
q104 -167 208 -333q112 -185 112 -277q0 -88 -30 -158q106 96 106 256z" />
    <glyph glyph-name="dieresis" unicode="&#xa8;" horiz-adv-x="864" 
d="M762 1063q0 -41 -28.5 -69.5t-69.5 -28.5t-70 28.5t-29 69.5t29 69.5t70 28.5t69.5 -28.5t28.5 -69.5zM299 1063q0 -41 -28.5 -69.5t-69.5 -28.5t-70 28.5t-29 69.5t29 69.5t70 28.5t69.5 -28.5t28.5 -69.5z" />
    <glyph glyph-name="copyright" unicode="&#xa9;" horiz-adv-x="1008" 
d="M1090 330q0 -213 -146.5 -359.5t-359.5 -146.5t-359.5 146.5t-146.5 359.5t146.5 360.5t359.5 147.5t359.5 -147.5t146.5 -360.5zM1018 330q0 183 -125.5 308.5t-308.5 125.5t-308.5 -126t-125.5 -308q0 -183 125.5 -307.5t308.5 -124.5t308.5 124.5t125.5 307.5z
M848 200v-3q-23 -110 -33 -120q-5 -5 -13 -8q-80 -33 -185 -33q-157 0 -254 77t-97 203q0 143 96 229q93 82 242 82q102 0 189 -31q16 -6 19 -21q19 -109 19 -111q0 -18 -33 -18q-10 0 -16 10q-32 58 -71 85q-46 32 -99 32q-102 0 -160 -71q-54 -66 -54 -168t65 -172.5
t158 -70.5q129 0 179 115q2 5 7 12h5q36 0 36 -18z" />
    <glyph glyph-name="ordfeminine" unicode="&#xaa;" horiz-adv-x="600" 
d="M588 571q0 -5 -2 -8v4q-27 -114 -142 -114q-82 0 -98 69q-84 -69 -174 -69q-52 0 -86 43q-31 40 -31 94q0 68 289 153v41q0 49 -32 63q-18 7 -76 7q-50 0 -50 -16q9 -16 9 -23q0 -11 -15 -20q-6 -5 -40.5 -19t-39.5 -14q-30 0 -30 51q0 50 82 92l135 70q104 0 149 -20
q71 -32 70 -121l-2 -248q0 -13 8 -13q12 0 25 11.5t22 11.5q29 0 29 -25zM344 594v84q-125 -37 -125 -72q0 -16 11 -36q12 -23 26 -23q37 0 88 47z" />
    <glyph glyph-name="guillemotleft" unicode="&#xab;" horiz-adv-x="903" 
d="M821 145q0 -11 -18.5 -27t-30.5 -16t-16 4l-340 324q-10 10 -10 21q0 8 10 18l340 326q4 4 14 4q12 0 31.5 -16.5t19.5 -28.5q0 -7 -188 -303q188 -296 188 -306zM494 145q0 -11 -19 -27t-31 -16t-16 4l-340 324q-10 10 -10 21q0 8 10 18l340 326q4 4 14 4
q13 0 32.5 -16.5t19.5 -28.5q0 -7 -189 -303q189 -296 189 -306z" />
    <glyph glyph-name="logicalnot" unicode="&#xac;" horiz-adv-x="1348" 
d="M1184 -37q0 -22 -23 -22h-110q-23 0 -23 22v410h-842q-22 0 -22 22v111q0 22 22 22h973q25 0 25 -22v-543z" />
    <glyph glyph-name="sfthyphen" unicode="&#xad;" horiz-adv-x="557" 
d="M496 395q0 -22 -25 -22h-387q-23 0 -23 22v111q0 22 23 22h387q25 0 25 -22v-111z" />
    <glyph glyph-name="registered" unicode="&#xae;" horiz-adv-x="1090" 
d="M1090 1176q0 -214 -146.5 -360t-359.5 -146t-359.5 146.5t-146.5 359.5t146.5 360t359.5 147t359.5 -147t146.5 -360zM1018 1176q0 183 -125.5 308.5t-308.5 125.5t-308.5 -126t-125.5 -308q0 -183 125.5 -308t308.5 -125t308.5 125t125.5 308zM908 913q0 -15 -15 -16h-6
q-16 0 -43 2q-33 2 -44 3l-56 -1q-16 0 -29 19l-130 196q-39 60 -93 61v-156q0 -67 40 -71q16 0 39 -7q5 -4 5 -30q0 -15 -15 -16h-6h-3q-20 0 -60 2t-61 2q-20 0 -60.5 -2t-60.5 -2h-3q-23 0 -21 25v9q0 15 24 17l11 1q26 2 34.5 17.5t8.5 51.5v335q0 65 -37 69
q-15 0 -37 7q-4 4 -4 30q0 15 19 15q21 0 61.5 -2t61.5 -2q20 0 60 2t60 2q81 0 141 -28q79 -37 79 -111q0 -95 -117 -126q25 -15 41 -40l105 -160q23 -34 36 -45t40.5 -15t31 -7t3.5 -29zM635 1327q0 88 -94 88q-49 0 -49 -56v-126q16 -1 33 -1q110 0 110 95z" />
    <glyph glyph-name="overscore" unicode="&#xaf;" horiz-adv-x="864" 
d="M768 1360h-672v123h672v-123z" />
    <glyph glyph-name="degree" unicode="&#xb0;" horiz-adv-x="758" 
d="M727 1042q0 -135 -92 -230t-227 -95q-130 0 -221 79q-97 82 -97 210q0 136 91 231.5t227 95.5q129 0 222 -79q97 -84 97 -212zM563 967q0 101 -38 188q-49 111 -138 111q-133 0 -133 -183q0 -101 38 -187q49 -112 136 -112q135 0 135 183z" />
    <glyph glyph-name="plusminus" unicode="&#xb1;" horiz-adv-x="1348" 
d="M1184 395q0 -22 -25 -22h-407v-410q0 -22 -23 -22h-111q-22 0 -22 22v410h-410q-22 0 -22 22v111q0 22 22 22h410v408q0 25 22 25h111q23 0 23 -25v-408h407q25 0 25 -22v-111zM1184 -301q0 -23 -25 -23h-973q-22 0 -22 23v111q0 22 22 22h973q25 0 25 -22v-111z" />
    <glyph glyph-name="twosuperior" unicode="&#xb2;" horiz-adv-x="713" 
d="M633 1100q0 -183 -359 -473h308q43 0 43 -35q0 -20 -47 -94q-26 -41 -58 -41q22 0 -92 6q-76 4 -186 4q-31 0 -92.5 -3t-92.5 -3q-28 0 -28 47q0 20 18 39q38 29 111 88q286 241 286 410q0 133 -139 133q-64 0 -113.5 -44t-62.5 -44q-14 0 -31.5 14.5t-17.5 28.5q0 1 2 6
q6 19 29 49q46 62 126.5 105.5t155.5 43.5q112 0 176 -62.5t64 -174.5z" />
    <glyph glyph-name="threesuperior" unicode="&#xb3;" horiz-adv-x="713" 
d="M625 778q0 -119 -136 -225q-130 -102 -278 -102q-53 0 -104 20q-66 26 -66 70q0 71 92 71q34 0 90 -29.5t84 -29.5q29 0 60 16q71 39 71 148q0 66 -45.5 113t-111.5 47q-8 0 -22 -3.5t-21 -3.5q-35 0 -35 46q0 18 21 30q19 7 38 15q40 17 83 51q54 42 54 71q0 91 -125 91
q-30 0 -66.5 -16.5t-37.5 -16.5q-7 0 -25 12t-18 19q0 5 2 10q28 65 93.5 110t135.5 45q73 0 129 -38q64 -44 64 -113q0 -109 -100 -182q174 -49 174 -226z" />
    <glyph glyph-name="acute" unicode="&#xb4;" horiz-adv-x="864" 
d="M596 1233q0 -46 -37 -94l-229 -295q-8 -10 -19 -10t-27 12t-16 22l2 11l138 342q37 92 102 92q33 0 59.5 -23.5t26.5 -56.5z" />
    <glyph glyph-name="mu1" unicode="&#xb5;" horiz-adv-x="1184" 
d="M1141 125q0 -65 -57 -108q-53 -40 -119 -40q-115 0 -193 132q-108 -134 -258 -134q-154 0 -254 142q-2 -25 -2 -80q0 -90 17 -142t69 -126q37 -53 37 -107q0 -88 -86 -88q-83 0 -123 105q-29 75 -29 176q0 227 43 446q-24 83 -24 229q0 238 129 238q106 0 106 -115
q0 -65 -53 -176.5t-53 -167.5q0 -72 47 -136q51 -69 121 -69q147 0 219 226q33 103 33 237q0 16 -2 46.5t-2 45.5q0 50 33 79.5t83 29.5q113 0 113 -137q0 -92 -31 -218.5t-74 -207.5q50 -68 99 -68q84 0 117 137q94 -72 94 -149z" />
    <glyph glyph-name="paragraph" unicode="&#xb6;" horiz-adv-x="1309" 
d="M1374 1126l-57 -79q-100 -37 -301 -37v-582q0 -754 -494 -754q-136 0 -232 81q-102 85 -102 218q0 96 63.5 166t158.5 70q65 0 117.5 -46.5t52.5 -111.5q0 -56 -32 -94q-34 -41 -89.5 -41t-55.5 -45q0 -52 54 -87q47 -32 102 -32q208 0 289 240q31 93 35 350
q-179 -20 -262 -20q-196 0 -326 97q-143 108 -143 298q0 114 55.5 209t154.5 145q90 44 255 54q32 1 266 1v174l133 27v-201h358zM883 408v602h-195q-35 -130 -35 -279q0 -139 31 -274q79 -33 199 -49z" />
    <glyph glyph-name="middot" unicode="&#xb7;" horiz-adv-x="557" 
d="M416 654q0 -58 -39.5 -97.5t-97.5 -39.5q-59 0 -98.5 39.5t-39.5 97.5t39.5 97.5t98.5 39.5q58 0 97.5 -39.5t39.5 -97.5z" />
    <glyph glyph-name="cedilla" unicode="&#xb8;" horiz-adv-x="864" 
d="M664 -317q0 -100 -91 -161q-79 -54 -180 -54q-60 0 -116 18q-76 25 -76 72q0 57 63 57q15 0 68 -31q45 -26 86 -26q104 0 104 86q0 100 -121 100q-8 0 -25 -3t-26 -3q-51 0 -51 47q0 12 221 235l60 -14l-99 -139q75 -15 125 -59q58 -51 58 -125z" />
    <glyph glyph-name="onesuperior" unicode="&#xb9;" horiz-adv-x="713" 
d="M584 498q0 -37 -41 -37q-26 0 -77 3t-77 3t-78 -3t-78 -3q-38 0 -38 31v30q0 25 37 28q45 4 57 27.5t12 75.5v516q-114 -75 -125 -75q-13 0 -31 17t-18 30q0 9 14 20q37 25 109 76q51 44 121 94q18 6 28 6h50q26 0 26 -26v-645q0 -84 28 -104q1 -1 53 -11q28 -5 28 -53z
" />
    <glyph glyph-name="ordmasculine" unicode="&#xba;" horiz-adv-x="692" 
d="M637 729q0 -118 -83 -197t-202 -79q-113 0 -197 64q-92 71 -92 181q0 119 85 198t204 79q114 0 196 -65q89 -70 89 -181zM481 666q0 81 -33 151q-42 88 -114 88q-111 0 -111 -143q0 -81 33 -151q41 -87 113 -87q112 0 112 142z" />
    <glyph glyph-name="guillemotright" unicode="&#xbb;" horiz-adv-x="903" 
d="M825 451q0 -9 -10 -19l-340 -326q-4 -4 -14 -4q-13 0 -32 16.5t-19 28.5q0 8 188 304q-188 296 -188 305q0 11 18.5 27t30.5 16t16 -4l340 -324q10 -10 10 -20zM498 451q0 -9 -11 -19l-340 -326q-4 -4 -14 -4q-12 0 -31.5 16.5t-19.5 28.5q0 8 188 304q-188 296 -188 305
q0 11 19 27t30 16q12 0 16 -4l340 -324q11 -10 11 -20z" />
    <glyph glyph-name="onequarter" unicode="&#xbc;" horiz-adv-x="1765" 
d="M1708 334q0 -75 -12 -84q-7 -4 -92 -4v-213q0 -33 -31 -33h-113q-30 0 -30 33v213h-295q-29 0 -29 37v69l393 506q10 12 31 12q74 0 74 -28v-465q8 0 28 1t31 1q45 0 45 -45zM1409 1325q0 -4 -4 -10l-836 -1323q-11 -19 -28 -19h-88q-15 0 -15 9q1 5 4 10l836 1323
q12 18 29 18h90q12 0 12 -8zM584 498q0 -37 -41 -37q-26 0 -77 3t-77 3t-78 -3t-78 -3q-38 0 -38 31v30q0 25 37 28q45 4 57 27.5t12 75.5v516q-114 -75 -125 -75q-13 0 -31 17t-18 30q0 9 14 20q37 25 109 76q51 44 121 94q18 6 28 6h50q26 0 26 -26v-645q0 -84 28 -104
q1 -1 53 -11q28 -5 28 -53zM1430 377v264l-205 -264h205z" />
    <glyph glyph-name="onehalf" unicode="&#xbd;" horiz-adv-x="1765" 
d="M1686 633q0 -183 -359 -473h307q43 0 43 -35q0 -20 -47 -94q-26 -41 -57 -41q22 0 -92 6q-76 4 -187 4q-30 0 -91.5 -3t-92.5 -3q-29 0 -29 47q0 20 19 39q37 29 110 88q287 241 287 410q0 133 -139 133q-64 0 -113.5 -44t-62.5 -44q-15 0 -32 14.5t-17 28.5q0 1 2 6
q6 19 28 49q47 62 127.5 105.5t155.5 43.5q112 0 176 -62.5t64 -174.5zM1368 1325q0 -4 -4 -10l-836 -1323q-11 -19 -28 -19h-88q-15 0 -15 9q1 5 4 10l836 1323q12 18 29 18h90q12 0 12 -8zM584 498q0 -37 -41 -37q-26 0 -77 3t-77 3t-78 -3t-78 -3q-38 0 -38 31v30
q0 25 37 28q45 4 57 27.5t12 75.5v516q-114 -75 -125 -75q-13 0 -31 17t-18 30q0 9 14 20q37 25 109 76q51 44 121 94q18 6 28 6h50q26 0 26 -26v-645q0 -84 28 -104q1 -1 53 -11q28 -5 28 -53z" />
    <glyph glyph-name="threequarters" unicode="&#xbe;" horiz-adv-x="1765" 
d="M1708 334q0 -75 -12 -84q-7 -4 -92 -4v-213q0 -33 -31 -33h-113q-30 0 -30 33v213h-295q-29 0 -29 37v69l393 506q10 12 31 12q74 0 74 -28v-465q8 0 28 1t31 1q45 0 45 -45zM1389 1325q0 -4 -5 -10l-835 -1323q-12 -19 -29 -19h-88q-14 0 -14 9q1 5 4 10l835 1323
q12 18 29 18h90q13 0 13 -8zM625 778q0 -119 -136 -225q-130 -102 -278 -102q-53 0 -104 20q-66 26 -66 70q0 71 92 71q34 0 90 -29.5t84 -29.5q29 0 60 16q71 39 71 148q0 66 -45.5 113t-111.5 47q-8 0 -22 -3.5t-21 -3.5q-35 0 -35 45q0 19 21 31q19 7 38 15q40 17 83 51
q54 42 54 71q0 91 -125 91q-30 0 -66.5 -16.5t-37.5 -16.5q-7 0 -25 12t-18 18t2 11q28 65 93.5 110t135.5 45q73 0 129 -38q64 -44 64 -113q0 -109 -100 -182q174 -49 174 -226zM1430 377v264l-205 -264h205z" />
    <glyph glyph-name="questiondown" unicode="&#xbf;" horiz-adv-x="803" 
d="M662 631q0 -58 -40 -97.5t-98 -39.5t-97.5 39.5t-39.5 97.5t39.5 97.5t97.5 39.5q59 0 98.5 -39.5t39.5 -97.5zM682 -520q0 -62 -34 -108q-37 -50 -97 -50q-199 0 -321 167q-109 151 -109 355q0 269 368 320v151q0 13 13 13h67q13 0 13 -13v-335q0 -21 -25 -27
q-19 -3 -55 -10q-102 -22 -164 -64q-98 -66 -98 -151q0 -69 53 -118.5t123 -49.5q28 0 83.5 12t84.5 12q98 0 98 -104z" />
    <glyph glyph-name="Agrave" unicode="&#xc0;" horiz-adv-x="1439" 
d="M1395 8q0 -17 -27 -17h-8q-40 0 -120 4.5t-120 4.5t-119.5 -4.5t-119.5 -4.5h-8q-25 0 -28 19q1 -7 1 42q0 18 64.5 25t64.5 45q0 18 -11 45l-124 308h-416l-104 -308q-8 -22 -8 -39q0 -41 66 -50q77 -11 80 -14t3 -56q0 -17 -27 -17q-30 0 -95 4.5t-98 4.5t-97.5 -4.5
t-95.5 -4.5q-25 0 -28 19q1 -8 1 42q0 9 5 13q2 2 66 10q59 7 95 50.5t69 139.5l150 432q49 137 144 414q20 56 40 136q18 19 85.5 72.5t73.5 53.5q9 0 13 -12l451 -1135q33 -84 58 -113t72.5 -37.5t49.5 -11.5t2 -56zM804 565l-189 471l-160 -471h349zM969 1386
q0 -16 -15.5 -32.5t-31.5 -16.5q-10 0 -21 6l-274 162q-74 44 -74 97q0 33 27 57t61 24q53 0 103 -51l215 -223q10 -11 10 -23z" />
    <glyph glyph-name="Aacute" unicode="&#xc1;" horiz-adv-x="1439" 
d="M1395 8q0 -17 -27 -17h-8q-40 0 -120 4.5t-120 4.5t-119.5 -4.5t-119.5 -4.5h-8q-25 0 -28 19q1 -7 1 42q0 18 64.5 25t64.5 45q0 18 -11 45l-124 308h-416l-104 -308q-8 -22 -8 -39q0 -41 66 -50q77 -11 80 -14t3 -56q0 -17 -27 -17q-30 0 -95 4.5t-98 4.5t-97.5 -4.5
t-95.5 -4.5q-25 0 -28 19q1 -8 1 42q0 9 5 13q2 2 66 10q59 7 95 50.5t69 139.5l150 432q49 137 144 414q20 56 40 136q18 19 85.5 72.5t73.5 53.5q9 0 13 -12l451 -1135q33 -84 58 -113t72.5 -37.5t49.5 -11.5t2 -56zM804 565l-189 471l-160 -471h349zM873 1610
q0 -63 -97 -119l-268 -156q-7 -4 -14 -4q-12 0 -23.5 15.5t-11.5 27.5q1 2 2 6l4 9l217 227q65 67 113 67q30 0 54 -21.5t24 -51.5z" />
    <glyph glyph-name="Acircumflex" unicode="&#xc2;" horiz-adv-x="1439" 
d="M1395 8q0 -17 -27 -17h-8q-40 0 -120 4.5t-120 4.5t-119.5 -4.5t-119.5 -4.5h-8q-25 0 -28 19q1 -7 1 42q0 18 64.5 25t64.5 45q0 18 -11 45l-124 308h-416l-104 -308q-8 -22 -8 -39q0 -41 66 -50q77 -11 80 -14t3 -56q0 -17 -27 -17q-30 0 -95 4.5t-98 4.5t-97.5 -4.5
t-95.5 -4.5q-25 0 -28 19q1 -8 1 42q0 9 5 13q2 2 66 10q59 7 95 50.5t69 139.5l150 432q49 137 144 414q20 56 40 136q18 19 85.5 72.5t73.5 53.5q9 0 13 -12l451 -1135q33 -84 58 -113t72.5 -37.5t49.5 -11.5t2 -56zM804 565l-189 471l-160 -471h349zM1083 1386
q0 -16 -15.5 -32.5t-31.5 -16.5q-8 0 -21 6l-321 154l-322 -154q-13 -6 -20 -6q-16 0 -31.5 16.5t-15.5 32.5q0 15 10 23l276 223q64 51 103 51t102 -51l277 -223q10 -8 10 -23z" />
    <glyph glyph-name="Atilde" unicode="&#xc3;" horiz-adv-x="1439" 
d="M1395 8q0 -17 -27 -17h-8q-40 0 -120 4.5t-120 4.5t-119.5 -4.5t-119.5 -4.5h-8q-25 0 -28 19q1 -7 1 42q0 18 64.5 25t64.5 45q0 18 -11 45l-124 308h-416l-104 -308q-8 -22 -8 -39q0 -41 66 -50q77 -11 80 -14t3 -56q0 -17 -27 -17q-30 0 -95 4.5t-98 4.5t-97.5 -4.5
t-95.5 -4.5q-25 0 -28 19q1 -8 1 42q0 9 5 13q2 2 66 10q59 7 95 50.5t69 139.5l150 432q49 137 144 414q20 56 40 136q18 19 85.5 72.5t73.5 53.5q9 0 13 -12l451 -1135q33 -84 58 -113t72.5 -37.5t49.5 -11.5t2 -56zM804 565l-189 471l-160 -471h349zM1081 1642
q0 -88 -82.5 -166.5t-171.5 -78.5q-47 0 -122 63.5t-95 63.5q-73 0 -121.5 -63.5t-58.5 -63.5q-41 0 -41 41q0 88 82.5 166.5t171.5 78.5q51 0 130 -63.5t87 -63.5q73 0 121.5 63.5t58.5 63.5q41 0 41 -41z" />
    <glyph glyph-name="Adieresis" unicode="&#xc4;" horiz-adv-x="1439" 
d="M1395 8q0 -17 -27 -17h-8q-40 0 -120 4.5t-120 4.5t-119.5 -4.5t-119.5 -4.5h-8q-25 0 -28 19q1 -7 1 42q0 18 64.5 25t64.5 45q0 18 -11 45l-124 308h-416l-104 -308q-8 -22 -8 -39q0 -41 66 -50q77 -11 80 -14t3 -56q0 -17 -27 -17q-30 0 -95 4.5t-98 4.5t-97.5 -4.5
t-95.5 -4.5q-25 0 -28 19q1 -8 1 42q0 9 5 13q2 2 66 10q59 7 95 50.5t69 139.5l150 432q49 137 144 414q20 56 40 136q18 19 85.5 72.5t73.5 53.5q9 0 13 -12l451 -1135q33 -84 58 -113t72.5 -37.5t49.5 -11.5t2 -56zM804 565l-189 471l-160 -471h349zM1034 1575
q0 -45 -32 -77t-77 -32t-76.5 32t-31.5 77t31.5 76.5t76.5 31.5t77 -31.5t32 -76.5zM571 1575q0 -45 -32 -77t-77 -32t-76.5 32t-31.5 77t31.5 76.5t76.5 31.5t77 -31.5t32 -76.5z" />
    <glyph glyph-name="Aring" unicode="&#xc5;" horiz-adv-x="1439" 
d="M1395 8q0 -17 -27 -17h-8q-40 0 -120 4.5t-120 4.5t-119.5 -4.5t-119.5 -4.5h-8q-25 0 -28 19q1 -7 1 42q0 18 64.5 25t64.5 45q0 18 -11 45l-124 308h-416l-104 -308q-8 -22 -8 -39q0 -41 66 -50q77 -11 80 -14t3 -56q0 -17 -27 -17q-30 0 -95 4.5t-98 4.5t-97.5 -4.5
t-95.5 -4.5q-25 0 -28 19q1 -8 1 42q0 9 5 13q2 2 66 10q59 7 95 50.5t69 139.5l150 432q49 137 144 414q20 56 40 136q8 8 32 29q-137 48 -137 194q0 87 60 148t147 61q88 0 147.5 -60.5t59.5 -148.5q0 -124 -108 -182l422 -1062q33 -84 58 -113t72.5 -37.5t49.5 -11.5
t2 -56zM805 1470q0 49 -32.5 81t-80.5 32q-47 0 -78.5 -33t-31.5 -80q0 -45 32 -77.5t78 -32.5q47 0 80 31.5t33 78.5zM804 565l-189 471l-160 -471h349z" />
    <glyph glyph-name="AE" unicode="&#xc6;" horiz-adv-x="1860" 
d="M1834 274q0 -5 -86 -256q-9 -26 -19 -25l-579 7h-169q-31 -1 -115 -5q-73 -4 -116 -4q-26 0 -30 18q1 -5 1 43q0 17 61 23q70 6 94 50q23 41 23 133v382h-329l-215 -385q-46 -84 -46 -123q0 -47 74 -55q90 -10 93.5 -13t3.5 -56q0 -17 -26 -17h-10q-35 0 -104 4.5
t-104 4.5q-89 0 -210 -9l-12 -1q-22 -2 -25 21q2 -11 2 41q0 10 3 13q26 5 51 10q51 12 90 50q42 43 104 140q261 412 491 874q14 30 14 48q0 34 -62 42q-74 10 -77 13t-3 56q0 18 24 18q80 0 238 -6q145 -5 238 -3l584 7q19 0 19 -25v-276q0 -17 -56 -17q-14 0 -17 17
l-13 75q-13 73 -70.5 102t-247.5 29q-89 0 -120 -30.5t-31 -119.5v-341h221q72 0 99 37q16 22 37 106q2 7 7.5 12.5t53.5 5.5q18 0 18 -18q0 9 -6.5 -62t-6.5 -127q0 -57 6.5 -127.5t6.5 -60.5q0 -18 -60 -18q-14 0 -32 70q-23 92 -123 92h-221v-382q0 -115 31 -143
q28 -26 145 -26h35q162 0 246 32t121.5 107.5t48.5 75.5q13 0 33 -7q24 -9 24 -21zM899 730v482h-12l-268 -482h280z" />
    <glyph glyph-name="Ccedilla" unicode="&#xc7;" horiz-adv-x="1439" 
d="M1365 343l-1 -5q-27 -128 -70 -274q-8 -8 -22 -14q-179 -76 -414 -76q-351 0 -565.5 176.5t-214.5 465.5q0 329 212 526q207 191 539 191q229 0 422 -73q15 -5 22 -13.5t9 -21.5l44 -256v-4q0 -22 -57 -22q-12 0 -20 14q-76 140 -167 207q-109 78 -236 78
q-241 0 -378 -175q-126 -161 -126 -408q0 -250 152.5 -422.5t371.5 -172.5q168 0 264 64.5t160 219.5q5 11 8 16h2q65 0 65 -21zM992 -317q0 -100 -91 -161q-79 -54 -180 -54q-60 0 -116 18q-76 25 -76 72q0 57 63 57q15 0 68 -31q45 -26 86 -26q104 0 104 86
q0 100 -121 100q-8 0 -25 -3t-26 -3q-51 0 -51 47q0 12 221 235l60 -14l-99 -139q75 -15 125 -59q58 -51 58 -125z" />
    <glyph glyph-name="Egrave" unicode="&#xc8;" horiz-adv-x="1193" 
d="M1185 274q0 -5 -43 -131l-43 -125q-8 -26 -19 -25l-604 7h-174q-31 -1 -113 -5q-72 -4 -114 -4q-26 0 -30 18q1 -6 1 43q0 17 62 23q70 6 93 49t23 134v790q0 171 -101 182l-59 7q-10 1 -14 4.5t-4 56.5q0 18 25 18q44 0 120 -4q89 -5 120 -5h66l650 7q19 0 19 -25v-276
q0 -17 -56 -17q-14 0 -17 17l-13 75q-13 73 -70.5 102t-263.5 29q-86 0 -117 -28q-33 -31 -33 -117v-346h224q72 0 100 37q15 22 36 106q2 8 8 13t53 5q18 0 18 -18q0 9 -6.5 -62t-6.5 -127q0 -57 6.5 -127.5t6.5 -60.5q0 -18 -60 -18q-14 0 -32 70q-22 92 -123 92h-224
v-382q0 -115 29.5 -142t145.5 -27h61q162 0 246.5 32t121.5 107.5t49 75.5q56 0 56 -28zM825 1386q0 -16 -15.5 -32.5t-31.5 -16.5q-10 0 -21 6l-274 162q-74 44 -74 97q0 33 27 57t61 24q53 0 103 -51l215 -223q10 -11 10 -23z" />
    <glyph glyph-name="Eacute" unicode="&#xc9;" horiz-adv-x="1193" 
d="M1185 274q0 -5 -43 -131l-43 -125q-8 -26 -19 -25l-604 7h-174q-31 -1 -113 -5q-72 -4 -114 -4q-26 0 -30 18q1 -6 1 43q0 17 62 23q70 6 93 49t23 134v790q0 171 -101 182l-59 7q-10 1 -14 4.5t-4 56.5q0 18 25 18q44 0 120 -4q89 -5 120 -5h66l650 7q19 0 19 -25v-276
q0 -17 -56 -17q-14 0 -17 17l-13 75q-13 73 -70.5 102t-263.5 29q-86 0 -117 -28q-33 -31 -33 -117v-346h224q72 0 100 37q15 22 36 106q2 8 8 13t53 5q18 0 18 -18q0 9 -6.5 -62t-6.5 -127q0 -57 6.5 -127.5t6.5 -60.5q0 -18 -60 -18q-14 0 -32 70q-22 92 -123 92h-224
v-382q0 -115 29.5 -142t145.5 -27h61q162 0 246.5 32t121.5 107.5t49 75.5q56 0 56 -28zM811 1610q0 -63 -97 -119l-268 -156q-7 -4 -14 -4q-12 0 -23.5 15.5t-11.5 27.5q1 2 2 6l4 9l217 227q65 67 113 67q30 0 54 -21.5t24 -51.5z" />
    <glyph glyph-name="Ecircumflex" unicode="&#xca;" horiz-adv-x="1193" 
d="M1185 274q0 -5 -43 -131l-43 -125q-8 -26 -19 -25l-604 7h-174q-31 -1 -113 -5q-72 -4 -114 -4q-26 0 -30 18q1 -6 1 43q0 17 62 23q70 6 93 49t23 134v790q0 171 -101 182l-59 7q-10 1 -14 4.5t-4 56.5q0 18 25 18q44 0 120 -4q89 -5 120 -5h66l650 7q19 0 19 -25v-276
q0 -17 -56 -17q-14 0 -17 17l-13 75q-13 73 -70.5 102t-263.5 29q-86 0 -117 -28q-33 -31 -33 -117v-346h224q72 0 100 37q15 22 36 106q2 8 8 13t53 5q18 0 18 -18q0 9 -6.5 -62t-6.5 -127q0 -57 6.5 -127.5t6.5 -60.5q0 -18 -60 -18q-14 0 -32 70q-22 92 -123 92h-224
v-382q0 -115 29.5 -142t145.5 -27h61q162 0 246.5 32t121.5 107.5t49 75.5q56 0 56 -28zM981 1386q0 -16 -15.5 -32.5t-31.5 -16.5q-8 0 -21 6l-321 154l-322 -154q-13 -6 -20 -6q-16 0 -31.5 16.5t-15.5 32.5q0 15 10 23l276 223q64 51 103 51t102 -51l277 -223
q10 -8 10 -23z" />
    <glyph glyph-name="Edieresis" unicode="&#xcb;" horiz-adv-x="1193" 
d="M1185 274q0 -5 -43 -131l-43 -125q-8 -26 -19 -25l-604 7h-174q-31 -1 -113 -5q-72 -4 -114 -4q-26 0 -30 18q1 -6 1 43q0 17 62 23q70 6 93 49t23 134v790q0 171 -101 182l-59 7q-10 1 -14 4.5t-4 56.5q0 18 25 18q44 0 120 -4q89 -5 120 -5h66l650 7q19 0 19 -25v-276
q0 -17 -56 -17q-14 0 -17 17l-13 75q-13 73 -70.5 102t-263.5 29q-86 0 -117 -28q-33 -31 -33 -117v-346h224q72 0 100 37q15 22 36 106q2 8 8 13t53 5q18 0 18 -18q0 9 -6.5 -62t-6.5 -127q0 -57 6.5 -127.5t6.5 -60.5q0 -18 -60 -18q-14 0 -32 70q-22 92 -123 92h-224
v-382q0 -115 29.5 -142t145.5 -27h61q162 0 246.5 32t121.5 107.5t49 75.5q56 0 56 -28zM973 1575q0 -45 -32 -77t-77 -32t-76.5 32t-31.5 77t31.5 76.5t76.5 31.5t77 -31.5t32 -76.5zM510 1575q0 -45 -32 -77t-77 -32t-76.5 32t-31.5 77t31.5 76.5t76.5 31.5t77 -31.5
t32 -76.5z" />
    <glyph glyph-name="Igrave" unicode="&#xcc;" horiz-adv-x="737" 
d="M667 8q0 -17 -28 -17h-7q-45 0 -134 4.5t-134 4.5t-134 -4.5t-134 -4.5h-8q-26 0 -29 18q1 -6 1 43q0 17 62 23q69 6 94 50q22 41 22 133v790q0 171 -101 182l-59 7q-10 1 -14 4.5t-4 56.5q0 18 25 18h11q44 0 133.5 -4.5t133.5 -4.5q45 0 134.5 4.5t134.5 4.5h11
q23 0 26 -19q-2 11 -2 -42q0 -17 -61 -23q-69 -6 -92.5 -49t-23.5 -135v-790q0 -171 101 -182l59 -6q10 -1 13.5 -5t3.5 -57zM600 1386q0 -16 -15.5 -32.5t-31.5 -16.5q-10 0 -21 6l-274 162q-74 44 -74 97q0 33 27 57t61 24q53 0 103 -51l215 -223q10 -11 10 -23z" />
    <glyph glyph-name="Iacute" unicode="&#xcd;" horiz-adv-x="737" 
d="M667 8q0 -17 -28 -17h-7q-45 0 -134 4.5t-134 4.5t-134 -4.5t-134 -4.5h-8q-26 0 -29 18q1 -6 1 43q0 17 62 23q69 6 94 50q22 41 22 133v790q0 171 -101 182l-59 7q-10 1 -14 4.5t-4 56.5q0 18 25 18h11q44 0 133.5 -4.5t133.5 -4.5q45 0 134.5 4.5t134.5 4.5h11
q23 0 26 -19q-2 11 -2 -42q0 -17 -61 -23q-69 -6 -92.5 -49t-23.5 -135v-790q0 -171 101 -182l59 -6q10 -1 13.5 -5t3.5 -57zM586 1610q0 -63 -97 -119l-268 -156q-7 -4 -14 -4q-12 0 -23.5 15.5t-11.5 27.5q1 2 2 6l4 9l217 227q65 67 113 67q30 0 54 -21.5t24 -51.5z" />
    <glyph glyph-name="Icircumflex" unicode="&#xce;" horiz-adv-x="737" 
d="M667 8q0 -17 -28 -17h-7q-45 0 -134 4.5t-134 4.5t-134 -4.5t-134 -4.5h-8q-26 0 -29 18q1 -6 1 43q0 17 62 23q69 6 94 50q22 41 22 133v790q0 171 -101 182l-59 7q-10 1 -14 4.5t-4 56.5q0 18 25 18h11q44 0 133.5 -4.5t133.5 -4.5q45 0 134.5 4.5t134.5 4.5h11
q23 0 26 -19q-2 11 -2 -42q0 -17 -61 -23q-69 -6 -92.5 -49t-23.5 -135v-790q0 -171 101 -182l59 -6q10 -1 13.5 -5t3.5 -57zM687 1386q0 -16 -16 -32.5t-32 -16.5q-10 0 -20 6l-260 154l-260 -154q-11 -6 -21 -6q-16 0 -31.5 16.5t-15.5 32.5q0 12 10 23l215 223
q50 51 103 51t102 -51l215 -223q11 -11 11 -23z" />
    <glyph glyph-name="Idieresis" unicode="&#xcf;" horiz-adv-x="737" 
d="M667 8q0 -17 -28 -17h-7q-45 0 -134 4.5t-134 4.5t-134 -4.5t-134 -4.5h-8q-26 0 -29 18q1 -6 1 43q0 17 62 23q69 6 94 50q22 41 22 133v790q0 171 -101 182l-59 7q-10 1 -14 4.5t-4 56.5q0 18 25 18h11q44 0 133.5 -4.5t133.5 -4.5q45 0 134.5 4.5t134.5 4.5h11
q23 0 26 -19q-2 11 -2 -42q0 -17 -61 -23q-69 -6 -92.5 -49t-23.5 -135v-790q0 -171 101 -182l59 -6q10 -1 13.5 -5t3.5 -57zM707 1575q0 -45 -32 -77t-77 -32t-76.5 32t-31.5 77t31.5 76.5t76.5 31.5t77 -31.5t32 -76.5zM244 1575q0 -45 -32 -77t-77 -32t-76.5 32t-31.5 77
t31.5 76.5t76.5 31.5t77 -31.5t32 -76.5z" />
    <glyph glyph-name="Eth" unicode="&#xd0;" horiz-adv-x="1579" 
d="M1505 651q0 -285 -226 -477q-215 -181 -506 -181q-68 0 -205.5 3.5t-205.5 3.5q-46 0 -137.5 -4.5t-137.5 -4.5q-26 0 -30 18q2 -7 2 43q0 17 60 23q70 6 95 50q22 39 22 140v358h-119q-23 0 -23 20v80q0 20 23 20h119v317q0 137 -104 137q-9 0 -24 -1t-21 -1
q-18 0 -25 7q-3 3 -3 53q0 7 33 16q82 22 249 38q184 18 334 18q366 0 598 -189t232 -487zM1242 646q0 591 -553 591q-120 0 -160.5 -41.5t-40.5 -162.5v-290h204q21 0 21 -20v-80q0 -20 -21 -20h-204v-260q0 -164 50 -222q55 -63 216 -63q235 0 367 171q121 155 121 397z
" />
    <glyph glyph-name="Ntilde" unicode="&#xd1;" horiz-adv-x="1614" 
d="M1581 1255q0 -17 -61 -23q-70 -6 -93.5 -49.5t-23.5 -134.5v-864q0 -66 3 -143q0 -7 1.5 -26.5t1.5 -30.5q0 -31 -72 -31q-13 0 -21 9l-945 1099v-803q0 -171 101 -182l59 -6q10 -1 13.5 -5t3.5 -57q0 -17 -27 -17h-8q-32 0 -97 4.5t-97 4.5q-33 0 -97.5 -4.5t-96.5 -4.5
h-9q-25 0 -28 19q1 -8 1 42q0 17 62 23q69 6 93 50q23 41 23 133v790q0 120 -50 155q-34 23 -165 34q-8 0 -19 5q-5 4 -5 56q0 18 26 18h9q33 0 99 -4.5t99 -4.5q58 0 133 4.5t64 4.5q27 0 120 -108l721 -837v677q0 171 -101 182l-59 7q-9 1 -13 5t-4 56q0 19 24 19
q32 0 101 -5t104 -5t104.5 5t102.5 5q22 0 25 -20q-2 17 -2 -42zM1204 1642q0 -88 -82.5 -166.5t-171.5 -78.5q-47 0 -122 63.5t-95 63.5q-73 0 -121.5 -63.5t-58.5 -63.5q-41 0 -41 41q0 88 82.5 166.5t171.5 78.5q51 0 130 -63.5t87 -63.5q73 0 121.5 63.5t58.5 63.5
q41 0 41 -41z" />
    <glyph glyph-name="Ograve" unicode="&#xd2;" horiz-adv-x="1650" 
d="M1563 688q0 -307 -220 -513q-215 -201 -524 -201q-313 0 -528.5 187t-215.5 456q0 308 219 514q215 202 525 202q314 0 529 -187.5t215 -457.5zM1311 559q0 289 -149 486t-365 197t-345 -141q-125 -136 -125 -355q0 -287 150 -484.5t363 -197.5q217 0 346 140
q125 136 125 355zM1051 1386q0 -16 -15.5 -32.5t-31.5 -16.5q-10 0 -21 6l-274 162q-74 44 -74 97q0 33 27 57t61 24q53 0 103 -51l215 -223q10 -11 10 -23z" />
    <glyph glyph-name="Oacute" unicode="&#xd3;" horiz-adv-x="1650" 
d="M1563 688q0 -307 -220 -513q-215 -201 -524 -201q-313 0 -528.5 187t-215.5 456q0 308 219 514q215 202 525 202q314 0 529 -187.5t215 -457.5zM1311 559q0 289 -149 486t-365 197t-345 -141q-125 -136 -125 -355q0 -287 150 -484.5t363 -197.5q217 0 346 140
q125 136 125 355zM996 1610q0 -63 -97 -119l-268 -156q-7 -4 -14 -4q-12 0 -23.5 15.5t-11.5 27.5q1 2 2 6l4 9l217 227q65 67 113 67q30 0 54 -21.5t24 -51.5z" />
    <glyph glyph-name="Ocircumflex" unicode="&#xd4;" horiz-adv-x="1650" 
d="M1563 688q0 -307 -220 -513q-215 -201 -524 -201q-313 0 -528.5 187t-215.5 456q0 308 219 514q215 202 525 202q314 0 529 -187.5t215 -457.5zM1311 559q0 289 -149 486t-365 197t-345 -141q-125 -136 -125 -355q0 -287 150 -484.5t363 -197.5q217 0 346 140
q125 136 125 355zM1206 1386q0 -16 -15.5 -32.5t-31.5 -16.5q-8 0 -21 6l-321 154l-322 -154q-13 -6 -20 -6q-16 0 -31.5 16.5t-15.5 32.5q0 15 10 23l276 223q64 51 103 51t102 -51l277 -223q10 -8 10 -23z" />
    <glyph glyph-name="Otilde" unicode="&#xd5;" horiz-adv-x="1650" 
d="M1563 688q0 -307 -220 -513q-215 -201 -524 -201q-313 0 -528.5 187t-215.5 456q0 308 219 514q215 202 525 202q314 0 529 -187.5t215 -457.5zM1311 559q0 289 -149 486t-365 197t-345 -141q-125 -136 -125 -355q0 -287 150 -484.5t363 -197.5q217 0 346 140
q125 136 125 355zM1143 1642q0 -88 -82.5 -166.5t-171.5 -78.5q-47 0 -122 63.5t-95 63.5q-73 0 -121.5 -63.5t-58.5 -63.5q-41 0 -41 41q0 88 82.5 166.5t171.5 78.5q51 0 130 -63.5t87 -63.5q73 0 121.5 63.5t58.5 63.5q41 0 41 -41z" />
    <glyph glyph-name="Odieresis" unicode="&#xd6;" horiz-adv-x="1650" 
d="M1563 688q0 -307 -220 -513q-215 -201 -524 -201q-313 0 -528.5 187t-215.5 456q0 308 219 514q215 202 525 202q314 0 529 -187.5t215 -457.5zM1311 559q0 289 -149 486t-365 197t-345 -141q-125 -136 -125 -355q0 -287 150 -484.5t363 -197.5q217 0 346 140
q125 136 125 355zM1157 1575q0 -45 -32 -77t-77 -32t-76.5 32t-31.5 77t31.5 76.5t76.5 31.5t77 -31.5t32 -76.5zM694 1575q0 -45 -32 -77t-77 -32t-76.5 32t-31.5 77t31.5 76.5t76.5 31.5t77 -31.5t32 -76.5z" />
    <glyph glyph-name="multiply" unicode="&#xd7;" horiz-adv-x="1348" 
d="M1184 41q0 -10 -6 -16l-78 -78q-6 -6 -17 -6q-10 0 -16 6l-393 393l-393 -393q-7 -6 -17 -6t-16 6l-78 78q-6 6 -6 16t6 16l393 394l-391 393q-8 8 -8 18q0 8 6 15l78 77q6 7 14 7q10 0 19 -9l393 -391l393 391q8 9 18 9q9 0 15 -7l78 -77q6 -7 6 -15q0 -10 -8 -18
l-392 -393l394 -394q6 -6 6 -16z" />
    <glyph glyph-name="Oslash" unicode="&#xd8;" horiz-adv-x="1650" 
d="M1563 688q0 -307 -220 -513q-215 -202 -524 -202q-273 0 -471 142l-131 -131q-23 -23 -55 -21q-22 1 -45 1q-33 3 -33 16l192 194q-200 184 -200 442q0 308 219 515q215 202 524 202q272 0 471 -141l140 141q13 14 32 13q97 -8 97 -15l-197 -198q201 -184 201 -445z
M1153 1055q-148 188 -356 188q-216 0 -345 -142q-124 -137 -124 -356q0 -237 104 -415zM1311 559q0 241 -105 420l-723 -727q148 -189 357 -189q216 0 345 141q126 136 126 355z" />
    <glyph glyph-name="Ugrave" unicode="&#xd9;" horiz-adv-x="1545" 
d="M1526 1255q0 -18 -61 -23q-69 -6 -93 -49t-24 -141v-552q0 -262 -166 -395q-152 -121 -422 -121q-210 0 -359 84q-184 102 -184 296v688q0 82 -13 120q-22 61 -88 68l-58 7q-11 1 -14.5 4.5t-3.5 56.5q0 18 24 18h11q45 0 134 -4.5t134 -4.5t134.5 4.5t133.5 4.5h12
q23 0 25 -19q-1 11 -1 -42q0 -18 -61 -23q-69 -6 -93 -49t-24 -141v-588q0 -348 388 -348q160 0 270 93q117 99 117 255v588q0 82 -13 120q-22 61 -88 68l-58 7q-11 1 -14.5 4.5t-3.5 56.5q0 19 24 19q32 0 101 -5t104 -5q33 0 97.5 4.5t97.5 4.5h9q25 0 27 -20
q-1 10 -1 -41zM1030 1386q0 -16 -15.5 -32.5t-31.5 -16.5q-10 0 -21 6l-274 162q-74 44 -74 97q0 33 27 57t61 24q53 0 103 -51l215 -223q10 -11 10 -23z" />
    <glyph glyph-name="Uacute" unicode="&#xda;" horiz-adv-x="1545" 
d="M1526 1255q0 -18 -61 -23q-69 -6 -93 -49t-24 -141v-552q0 -262 -166 -395q-152 -121 -422 -121q-210 0 -359 84q-184 102 -184 296v688q0 82 -13 120q-22 61 -88 68l-58 7q-11 1 -14.5 4.5t-3.5 56.5q0 18 24 18h11q45 0 134 -4.5t134 -4.5t134.5 4.5t133.5 4.5h12
q23 0 25 -19q-1 11 -1 -42q0 -18 -61 -23q-69 -6 -93 -49t-24 -141v-588q0 -348 388 -348q160 0 270 93q117 99 117 255v588q0 82 -13 120q-22 61 -88 68l-58 7q-11 1 -14.5 4.5t-3.5 56.5q0 19 24 19q32 0 101 -5t104 -5q33 0 97.5 4.5t97.5 4.5h9q25 0 27 -20
q-1 10 -1 -41zM1078 1610q0 -63 -97 -119l-268 -156q-7 -4 -14 -4q-12 0 -23.5 15.5t-11.5 27.5q1 2 2 6l4 9l217 227q65 67 113 67q30 0 54 -21.5t24 -51.5z" />
    <glyph glyph-name="Ucircumflex" unicode="&#xdb;" horiz-adv-x="1545" 
d="M1526 1255q0 -18 -61 -23q-69 -6 -93 -49t-24 -141v-552q0 -262 -166 -395q-152 -121 -422 -121q-210 0 -359 84q-184 102 -184 296v688q0 82 -13 120q-22 61 -88 68l-58 7q-11 1 -14.5 4.5t-3.5 56.5q0 18 24 18h11q45 0 134 -4.5t134 -4.5t134.5 4.5t133.5 4.5h12
q23 0 25 -19q-1 11 -1 -42q0 -18 -61 -23q-69 -6 -93 -49t-24 -141v-588q0 -348 388 -348q160 0 270 93q117 99 117 255v588q0 82 -13 120q-22 61 -88 68l-58 7q-11 1 -14.5 4.5t-3.5 56.5q0 19 24 19q32 0 101 -5t104 -5q33 0 97.5 4.5t97.5 4.5h9q25 0 27 -20
q-1 10 -1 -41zM1227 1386q0 -16 -15.5 -32.5t-31.5 -16.5q-8 0 -21 6l-321 154l-322 -154q-13 -6 -20 -6q-16 0 -31.5 16.5t-15.5 32.5q0 15 10 23l276 223q64 51 103 51t102 -51l277 -223q10 -8 10 -23z" />
    <glyph glyph-name="Udieresis" unicode="&#xdc;" horiz-adv-x="1545" 
d="M1526 1255q0 -18 -61 -23q-69 -6 -93 -49t-24 -141v-552q0 -262 -166 -395q-152 -121 -422 -121q-210 0 -359 84q-184 102 -184 296v688q0 82 -13 120q-22 61 -88 68l-58 7q-11 1 -14.5 4.5t-3.5 56.5q0 18 24 18h11q45 0 134 -4.5t134 -4.5t134.5 4.5t133.5 4.5h12
q23 0 25 -19q-1 11 -1 -42q0 -18 -61 -23q-69 -6 -93 -49t-24 -141v-588q0 -348 388 -348q160 0 270 93q117 99 117 255v588q0 82 -13 120q-22 61 -88 68l-58 7q-11 1 -14.5 4.5t-3.5 56.5q0 19 24 19q32 0 101 -5t104 -5q33 0 97.5 4.5t97.5 4.5h9q25 0 27 -20
q-1 10 -1 -41zM1178 1575q0 -45 -32 -77t-77 -32t-76.5 32t-31.5 77t31.5 76.5t76.5 31.5t77 -31.5t32 -76.5zM715 1575q0 -45 -32 -77t-77 -32t-76.5 32t-31.5 77t31.5 76.5t76.5 31.5t77 -31.5t32 -76.5z" />
    <glyph glyph-name="Yacute" unicode="&#xdd;" horiz-adv-x="1334" 
d="M1330 1255q0 -10 -2.5 -13t-51.5 -12q-33 -5 -74 -47q-50 -50 -112 -141l-280 -414v-370q0 -171 102 -182l58 -6q6 -1 14 -5q4 -4 4 -57q0 -17 -28 -17h-7q-45 0 -134 4.5t-134 4.5t-134.5 -4.5t-134.5 -4.5h-7q-26 0 -29 18q1 -6 1 43q0 17 61 23q70 6 93.5 49t23.5 134
v347l-311 476q-55 84 -91 115q-26 22 -84 35q-28 5 -55 11q-4 4 -4 56q0 21 23 19l12 -1q121 -9 249 -9q42 0 125 4.5t124 4.5h12q23 0 25 -19q-1 11 -1 -42q0 -19 -52.5 -25t-52.5 -32q0 -19 26 -59l267 -409l272 409q21 33 21 53q0 30 -61 38q-70 9 -73 12.5t-3 55.5
q0 19 25 19q29 0 88 -5t88 -5q30 0 89.5 5t89.5 5q22 0 25 -20q-2 17 -2 -42zM975 1610q0 -63 -97 -119l-268 -156q-7 -4 -14 -4q-12 0 -23.5 15.5t-11.5 27.5q1 2 2 6l4 9l217 227q65 67 113 67q30 0 54 -21.5t24 -51.5z" />
    <glyph glyph-name="Thorn" unicode="&#xde;" horiz-adv-x="1193" 
d="M1126 660q0 -372 -529 -372q-9 0 -9 46q0 44 9 44q140 0 202.5 68.5t62.5 218.5q0 317 -270 317q-67 0 -90 -47q-14 -31 -14 -110v-560q0 -178 101 -189l59 -6q10 -1 13.5 -5t3.5 -57q0 -17 -27 -17h-8q-45 0 -134 4.5t-134 4.5q-44 0 -133.5 -4.5t-134.5 -4.5h-8
q-25 0 -29 19q2 -7 2 42q0 17 61 23q69 6 94 50q22 41 22 140v777q0 82 -13 120q-23 61 -88 68l-59 7q-10 1 -13.5 4.5t-3.5 56.5q0 18 24 18h11q44 0 133.5 -4.5t134.5 -4.5q44 0 133.5 4.5t134.5 4.5h11q23 0 26 -19q-2 11 -2 -42q0 -16 -17 -18l-59 -7q-98 -11 -100 -165
q50 6 112 6q215 0 359 -96q166 -111 166 -315z" />
    <glyph glyph-name="germandbls" unicode="&#xdf;" horiz-adv-x="1061" 
d="M991 254q0 -114 -71 -194q-74 -83 -187 -83q-64 0 -114 34q-56 38 -56 100q0 36 31 61q28 23 65 23q74 0 74 -62v-24q0 -58 47 -58q39 0 60 40q18 33 18 75q0 58 -168 225t-168 254q0 45 89 178t89 232q0 75 -50.5 126.5t-125.5 51.5q-131 0 -131 -219v-824q0 -79 8 -98
q12 -26 42 -31q41 -6 45 -8.5t4 -25.5q0 -35 -19 -35h-10q-96 8 -172 8q-74 0 -170 -8h-10q-21 0 -21 20q0 5 1 14.5t1 14.5q0 12 39 18q43 6 55 29q11 19 11 90v438q0 192 18 298q30 173 117 268q135 147 334 147q94 0 160.5 -62.5t66.5 -156.5q0 -79 -100.5 -190.5
t-100.5 -169.5q0 -24 37 -68q88 -95 176 -189q86 -108 86 -239z" />
    <glyph glyph-name="agrave" unicode="&#xe0;" horiz-adv-x="835" 
d="M817 147q-1 -1 -2 -4q-16 -72 -65 -117q-52 -49 -123 -49q-129 0 -129 129q-130 -129 -267 -129q-70 0 -113 66q-38 57 -38 131q0 67 176 145q56 24 242 87v79q0 76 -37 105q-32 24 -111 24q-114 0 -114 -47q0 -4 5 -14.5t5 -20.5q0 -9 -10 -16q-78 -49 -107 -49
q-27 0 -27 61q0 70 109 131l192 109q144 0 205 -31q88 -45 88 -174v-379q0 -53 29 -53q23 0 42.5 17.5t25.5 17.5q24 0 24 -19zM498 174v168q-103 -35 -130 -49q-85 -42 -85 -92q0 -34 18 -70q21 -43 51 -43q65 0 146 86zM592 868q0 -10 -16.5 -22t-26.5 -12q-11 0 -19 10
l-229 295q-37 47 -37 94q0 32 26.5 56t59.5 24q65 0 102 -92z" />
    <glyph glyph-name="aacute" unicode="&#xe1;" horiz-adv-x="835" 
d="M817 147q-1 -1 -2 -4q-16 -72 -65 -117q-52 -49 -123 -49q-129 0 -129 129q-130 -129 -267 -129q-70 0 -113 66q-38 57 -38 131q0 67 176 145q56 24 242 87v79q0 76 -37 105q-32 24 -111 24q-114 0 -114 -47q0 -4 5 -14.5t5 -20.5q0 -9 -10 -16q-78 -49 -107 -49
q-27 0 -27 61q0 70 109 131l192 109q144 0 205 -31q88 -45 88 -174v-379q0 -53 29 -53q23 0 42.5 17.5t25.5 17.5q24 0 24 -19zM498 174v168q-103 -35 -130 -49q-85 -42 -85 -92q0 -34 18 -70q21 -43 51 -43q65 0 146 86zM613 1233q0 -47 -37 -94l-230 -295q-7 -10 -18 -10
t-27 12t-16 22l2 11l137 342q37 92 103 92q33 0 59.5 -24t26.5 -56z" />
    <glyph glyph-name="acircumflex" unicode="&#xe2;" horiz-adv-x="835" 
d="M817 147q-1 -1 -2 -4q-16 -72 -65 -117q-52 -49 -123 -49q-129 0 -129 129q-130 -129 -267 -129q-70 0 -113 66q-38 57 -38 131q0 67 176 145q56 24 242 87v79q0 76 -37 105q-32 24 -111 24q-114 0 -114 -47q0 -4 5 -14.5t5 -20.5q0 -9 -10 -16q-78 -49 -107 -49
q-27 0 -27 61q0 70 109 131l192 109q144 0 205 -31q88 -45 88 -174v-379q0 -53 29 -53q23 0 42.5 17.5t25.5 17.5q24 0 24 -19zM498 174v168q-103 -35 -130 -49q-85 -42 -85 -92q0 -34 18 -70q21 -43 51 -43q65 0 146 86zM731 868q0 -10 -14.5 -22t-25.5 -12q-10 0 -19 10
l-223 254l-223 -254q-9 -10 -19 -10q-11 0 -26 12t-15 22q0 2 4 11l197 389q25 49 82 49t82 -49l196 -389q4 -9 4 -11z" />
    <glyph glyph-name="atilde" unicode="&#xe3;" horiz-adv-x="835" 
d="M817 147q-1 -1 -2 -4q-16 -72 -65 -117q-52 -49 -123 -49q-129 0 -129 129q-130 -129 -267 -129q-70 0 -113 66q-38 57 -38 131q0 67 176 145q56 24 242 87v79q0 76 -37 105q-32 24 -111 24q-114 0 -114 -47q0 -4 5 -14.5t5 -20.5q0 -9 -10 -16q-78 -49 -107 -49
q-27 0 -27 61q0 70 109 131l192 109q144 0 205 -31q88 -45 88 -174v-379q0 -53 29 -53q23 0 42.5 17.5t25.5 17.5q24 0 24 -19zM498 174v168q-103 -35 -130 -49q-85 -42 -85 -92q0 -34 18 -70q21 -43 51 -43q65 0 146 86zM775 1165q0 -85 -74 -170q-76 -88 -160 -88
q-40 0 -117 76t-100 76q-66 0 -113 -75t-57 -75q-31 0 -31 31q0 85 75 171.5t159 86.5q48 0 126 -75.5t91 -75.5q66 0 113 74.5t57 74.5q31 0 31 -31z" />
    <glyph glyph-name="adieresis" unicode="&#xe4;" horiz-adv-x="835" 
d="M817 147q-1 -1 -2 -4q-16 -72 -65 -117q-52 -49 -123 -49q-129 0 -129 129q-130 -129 -267 -129q-70 0 -113 66q-38 57 -38 131q0 67 176 145q56 24 242 87v79q0 76 -37 105q-32 24 -111 24q-114 0 -114 -47q0 -4 5 -14.5t5 -20.5q0 -9 -10 -16q-78 -49 -107 -49
q-27 0 -27 61q0 70 109 131l192 109q144 0 205 -31q88 -45 88 -174v-379q0 -53 29 -53q23 0 42.5 17.5t25.5 17.5q24 0 24 -19zM498 174v168q-103 -35 -130 -49q-85 -42 -85 -92q0 -34 18 -70q21 -43 51 -43q65 0 146 86zM721 1063q0 -41 -29 -69.5t-70 -28.5t-69.5 28.5
t-28.5 69.5t28.5 69.5t69.5 28.5t70 -28.5t29 -69.5zM340 1063q0 -41 -29 -69.5t-70 -28.5t-69.5 28.5t-28.5 69.5t28.5 69.5t69.5 28.5t70 -28.5t29 -69.5z" />
    <glyph glyph-name="aring" unicode="&#xe5;" horiz-adv-x="835" 
d="M817 147q-1 -1 -2 -4q-16 -72 -65 -117q-52 -49 -123 -49q-129 0 -129 129q-130 -129 -267 -129q-70 0 -113 66q-38 57 -38 131q0 67 176 145q56 24 242 87v79q0 76 -37 105q-32 24 -111 24q-114 0 -114 -47q0 -4 5 -14.5t5 -20.5q0 -9 -10 -16q-78 -49 -107 -49
q-27 0 -27 61q0 70 109 131l192 109q144 0 205 -31q88 -45 88 -174v-379q0 -53 29 -53q23 0 42.5 17.5t25.5 17.5q24 0 24 -19zM498 174v168q-103 -35 -130 -49q-85 -42 -85 -92q0 -34 18 -70q21 -43 51 -43q65 0 146 86zM614 1104q0 -79 -54 -132.5t-132 -53.5t-132 54
t-54 132t53.5 133t132.5 55t132.5 -54.5t53.5 -133.5zM520 1104q0 40 -26 66t-66 26q-39 0 -64.5 -26.5t-25.5 -65.5q0 -37 26.5 -63.5t63.5 -26.5q39 0 65.5 25.5t26.5 64.5z" />
    <glyph glyph-name="ae" unicode="&#xe6;" horiz-adv-x="1188" 
d="M1139 539q0 -20 -37 -31l-430 -125q16 -250 229 -250q70 0 140 41t59 41q7 0 21 -15t14 -22q0 -8 -2 -12q-107 -189 -332 -189q-194 0 -271 164q-165 -164 -262 -164q-80 0 -134 59t-54 140q0 56 179 131q57 24 237 84q4 64 4 80q0 143 -148 143q-114 0 -114 -47
q0 -6 4 -17t4 -18q0 -10 -10 -16q-79 -49 -107 -49q-27 0 -27 55q0 77 72 117l229 129q199 0 250 -96q126 96 242 96q107 0 174 -60q70 -63 70 -169zM952 580q0 50 -38 82t-89 32q-143 0 -153 -258l182 56q98 29 98 88zM518 197q-15 68 -20 137q-215 -76 -215 -133
q0 -36 22 -72q25 -41 57 -41q53 0 156 109z" />
    <glyph glyph-name="ccedilla" unicode="&#xe7;" horiz-adv-x="768" 
d="M727 164q0 -8 -4 -14q-103 -173 -283 -173q-170 0 -264 102q-92 98 -92 269q0 176 119 298t295 122q74 0 134 -30q75 -37 75 -103q0 -37 -24 -62.5t-60 -25.5q-65 0 -112 73.5t-81 73.5q-84 0 -136 -70q-48 -64 -48 -151q0 -132 71 -230q78 -110 205 -110q57 0 115 35
t53 35q8 0 22.5 -15.5t14.5 -23.5zM577 -240q0 -75 -69 -122q-61 -41 -137 -41q-44 0 -88 14q-58 20 -58 55q0 45 49 45q13 0 52 -22q34 -21 63 -21q76 0 76 62q0 73 -86 73q-7 0 -20 -2t-19 -2q-41 0 -41 37q0 11 168 180l43 -22l-66 -94q133 -29 133 -140z" />
    <glyph glyph-name="egrave" unicode="&#xe8;" horiz-adv-x="802" 
d="M752 504q0 -29 -11 -36q-6 -4 -36 -5l-443 -14v-23q0 -132 74 -211q76 -82 207 -82q61 0 119 41t51 41q7 0 21 -15t14 -22q0 -5 -5 -12q-112 -189 -342 -189q-145 0 -240 116q-89 108 -89 257q0 170 107 292q112 126 280 126q293 0 293 -264zM561 580q0 23 -12 47
q-35 67 -117 67q-129 0 -164 -170l207 6q86 3 86 50zM596 868q0 -10 -16.5 -22t-26.5 -12q-11 0 -19 10l-229 295q-37 47 -37 94q0 32 26.5 56t59.5 24q65 0 102 -92z" />
    <glyph glyph-name="eacute" unicode="&#xe9;" horiz-adv-x="802" 
d="M752 504q0 -29 -11 -36q-6 -4 -36 -5l-443 -14v-23q0 -132 74 -211q76 -82 207 -82q61 0 119 41t51 41q7 0 21 -15t14 -22q0 -5 -5 -12q-112 -189 -342 -189q-145 0 -240 116q-89 108 -89 257q0 170 107 292q112 126 280 126q293 0 293 -264zM561 580q0 23 -12 47
q-35 67 -117 67q-129 0 -164 -170l207 6q86 3 86 50zM613 1233q0 -47 -37 -94l-230 -295q-7 -10 -18 -10t-27 12t-16 22l2 11l137 342q37 92 103 92q33 0 59.5 -24t26.5 -56z" />
    <glyph glyph-name="ecircumflex" unicode="&#xea;" horiz-adv-x="802" 
d="M752 504q0 -29 -11 -36q-6 -4 -36 -5l-443 -14v-23q0 -132 74 -211q76 -82 207 -82q61 0 119 41t51 41q7 0 21 -15t14 -22q0 -5 -5 -12q-112 -189 -342 -189q-145 0 -240 116q-89 108 -89 257q0 170 107 292q112 126 280 126q293 0 293 -264zM561 580q0 23 -12 47
q-35 67 -117 67q-129 0 -164 -170l207 6q86 3 86 50zM731 868q0 -10 -14.5 -22t-25.5 -12q-10 0 -19 10l-223 254l-223 -254q-9 -10 -19 -10q-11 0 -26 12t-15 22q0 2 4 11l197 389q25 49 82 49t82 -49l196 -389q4 -9 4 -11z" />
    <glyph glyph-name="edieresis" unicode="&#xeb;" horiz-adv-x="802" 
d="M752 504q0 -29 -11 -36q-6 -4 -36 -5l-443 -14v-23q0 -132 74 -211q76 -82 207 -82q61 0 119 41t51 41q7 0 21 -15t14 -22q0 -5 -5 -12q-112 -189 -342 -189q-145 0 -240 116q-89 108 -89 257q0 170 107 292q112 126 280 126q293 0 293 -264zM561 580q0 23 -12 47
q-35 67 -117 67q-129 0 -164 -170l207 6q86 3 86 50zM721 1063q0 -41 -29 -69.5t-70 -28.5t-69.5 28.5t-28.5 69.5t28.5 69.5t69.5 28.5t70 -28.5t29 -69.5zM340 1063q0 -41 -29 -69.5t-70 -28.5t-69.5 28.5t-28.5 69.5t28.5 69.5t69.5 28.5t70 -28.5t29 -69.5z" />
    <glyph glyph-name="igrave" unicode="&#xec;" horiz-adv-x="534" 
d="M492 6q0 -14 -15 -14h-14q-95 8 -176 8q-77 0 -172 -8h-9q-22 0 -22 20q0 5 1 14.5t1 14.5q0 12 39 17q44 7 54.5 29t10.5 87v313q0 64 -12 84q-9 15 -56 34q-40 17 -40 36q0 13 6 23q3 4 137.5 58t145.5 54q16 0 16 -16v-572q0 -83 8 -100q12 -23 56 -30q41 -5 41 -17
v-35zM428 868q0 -10 -16.5 -22t-26.5 -12q-11 0 -19 10l-229 295q-37 47 -37 94q0 32 26.5 56t59.5 24q65 0 102 -92z" />
    <glyph glyph-name="iacute" unicode="&#xed;" horiz-adv-x="534" 
d="M492 6q0 -14 -15 -14h-14q-95 8 -176 8q-77 0 -172 -8h-9q-22 0 -22 20q0 5 1 14.5t1 14.5q0 12 39 17q44 7 54.5 29t10.5 87v313q0 64 -12 84q-9 15 -56 34q-40 17 -40 36q0 13 6 23q3 4 137.5 58t145.5 54q16 0 16 -16v-572q0 -83 8 -100q12 -23 56 -30q41 -5 41 -17
v-35zM449 1233q0 -47 -37 -94l-230 -295q-7 -10 -18 -10t-27 12t-16 22l2 11l137 342q37 92 103 92q33 0 59.5 -24t26.5 -56z" />
    <glyph glyph-name="icircumflex" unicode="&#xee;" horiz-adv-x="534" 
d="M492 6q0 -14 -15 -14h-14q-95 8 -176 8q-77 0 -172 -8h-9q-22 0 -22 20q0 5 1 14.5t1 14.5q0 12 39 17q44 7 54.5 29t10.5 87v313q0 64 -12 84q-9 15 -56 34q-40 17 -40 36q0 13 6 23q3 4 137.5 58t145.5 54q16 0 16 -16v-572q0 -83 8 -100q12 -23 56 -30q41 -5 41 -17
v-35zM528 868q0 -10 -15 -22t-26 -12q-10 0 -18 10l-203 266l-203 -266q-7 -10 -18 -10t-26 12t-15 22q0 2 4 11l176 389q22 49 82 49t82 -49l176 -389q4 -9 4 -11z" />
    <glyph glyph-name="idieresis" unicode="&#xef;" horiz-adv-x="534" 
d="M492 6q0 -14 -15 -14h-14q-95 8 -176 8q-77 0 -172 -8h-9q-22 0 -22 20q0 5 1 14.5t1 14.5q0 12 39 17q44 7 54.5 29t10.5 87v313q0 64 -12 84q-9 15 -56 34q-40 17 -40 36q0 13 6 23q3 4 137.5 58t145.5 54q16 0 16 -16v-572q0 -83 8 -100q12 -23 56 -30q41 -5 41 -17
v-35zM557 1063q0 -41 -29 -69.5t-70 -28.5t-69.5 28.5t-28.5 69.5t28.5 69.5t69.5 28.5t70 -28.5t29 -69.5zM176 1063q0 -41 -29 -69.5t-70 -28.5t-69.5 28.5t-28.5 69.5t28.5 69.5t69.5 28.5t70 -28.5t29 -69.5z" />
    <glyph glyph-name="eth" unicode="&#xf0;" horiz-adv-x="969" 
d="M889 397q0 -173 -112 -294q-114 -126 -285 -126q-164 0 -280 103q-120 107 -120 268q0 173 114 296.5t286 123.5q47 0 94 -10q-66 140 -121 227l-170 -80q-5 -2 -6 -2q-15 0 -28 25q-11 22 -11 39q0 12 8 16l158 74l-162 198q0 10 12 17q99 57 123 57q12 0 72 -63
q63 -67 117 -133l180 84q4 1 6 2q14 0 27 -26q12 -22 12 -38q0 -13 -8 -16l-164 -76q258 -350 258 -666zM696 295q0 167 -67.5 283t-163.5 116q-178 0 -178 -245q0 -168 67.5 -283t161.5 -115q180 0 180 244z" />
    <glyph glyph-name="ntilde" unicode="&#xf1;" horiz-adv-x="1069" 
d="M1004 6q0 -14 -29 -14q-30 0 -89.5 4t-88.5 4q-31 0 -91.5 -4t-91.5 -4q-24 0 -24 22q0 5 1 13.5t1 13.5q0 12 39 17q43 7 54 29t11 89v338q0 129 -135 129q-97 0 -172 -82v-385q0 -67 11 -89t55 -29q39 -5 39 -17v-35q0 -14 -29 -14t-86 4t-86 4q-81 0 -176 -8h-8
q-21 0 -21 20v29q0 12 40 17q45 7 56 30q9 17 9 88v311q0 64 -13 84q-9 15 -56 34q-40 17 -40 36q0 13 6 23q3 4 137.5 58t145.5 54q16 0 16 -16v-133q146 141 283 141q101 0 161 -55.5t60 -155.5v-369q0 -76 12 -99.5t58 -29.5q41 -6 41 -18v-35zM857 1165q0 -85 -74 -170
q-76 -88 -160 -88q-40 0 -117 76t-100 76q-66 0 -113 -75t-57 -75q-31 0 -31 31q0 85 75 171.5t159 86.5q48 0 126 -75.5t91 -75.5q66 0 113 74.5t57 74.5q31 0 31 -31z" />
    <glyph glyph-name="ograve" unicode="&#xf2;" horiz-adv-x="969" 
d="M889 397q0 -173 -112 -294q-114 -126 -285 -126q-164 0 -280 103q-120 107 -120 268q0 173 112 295q116 125 288 125q163 0 278 -102q119 -107 119 -269zM696 295q0 167 -68 283t-163 116q-178 0 -178 -245q0 -168 67.5 -283t161.5 -115q180 0 180 244zM654 868
q0 -10 -16.5 -22t-26.5 -12q-11 0 -19 10l-229 295q-37 47 -37 94q0 32 26.5 56t59.5 24q65 0 102 -92z" />
    <glyph glyph-name="oacute" unicode="&#xf3;" horiz-adv-x="969" 
d="M889 397q0 -173 -112 -294q-114 -126 -285 -126q-164 0 -280 103q-120 107 -120 268q0 173 112 295q116 125 288 125q163 0 278 -102q119 -107 119 -269zM696 295q0 167 -68 283t-163 116q-178 0 -178 -245q0 -168 67.5 -283t161.5 -115q180 0 180 244zM654 1233
q0 -47 -37 -94l-230 -295q-7 -10 -18 -10t-27 12t-16 22l2 11l137 342q37 92 103 92q33 0 59.5 -24t26.5 -56z" />
    <glyph glyph-name="ocircumflex" unicode="&#xf4;" horiz-adv-x="969" 
d="M889 397q0 -173 -112 -294q-114 -126 -285 -126q-164 0 -280 103q-120 107 -120 268q0 173 112 295q116 125 288 125q163 0 278 -102q119 -107 119 -269zM696 295q0 167 -68 283t-163 116q-178 0 -178 -245q0 -168 67.5 -283t161.5 -115q180 0 180 244zM772 868
q0 -10 -14.5 -22t-25.5 -12q-10 0 -19 10l-223 254l-223 -254q-9 -10 -19 -10q-11 0 -26 12t-15 22q0 2 4 11l197 389q25 49 82 49t82 -49l196 -389q4 -9 4 -11z" />
    <glyph glyph-name="otilde" unicode="&#xf5;" horiz-adv-x="969" 
d="M889 397q0 -173 -112 -294q-114 -126 -285 -126q-164 0 -280 103q-120 107 -120 268q0 173 112 295q116 125 288 125q163 0 278 -102q119 -107 119 -269zM696 295q0 167 -68 283t-163 116q-178 0 -178 -245q0 -168 67.5 -283t161.5 -115q180 0 180 244zM816 1165
q0 -85 -74 -170q-76 -88 -160 -88q-40 0 -117 76t-100 76q-66 0 -113 -75t-57 -75q-31 0 -31 31q0 85 75 171.5t159 86.5q48 0 126 -75.5t91 -75.5q66 0 113 74.5t57 74.5q31 0 31 -31z" />
    <glyph glyph-name="odieresis" unicode="&#xf6;" horiz-adv-x="969" 
d="M889 397q0 -173 -112 -294q-114 -126 -285 -126q-164 0 -280 103q-120 107 -120 268q0 173 112 295q116 125 288 125q163 0 278 -102q119 -107 119 -269zM696 295q0 167 -68 283t-163 116q-178 0 -178 -245q0 -168 67.5 -283t161.5 -115q180 0 180 244zM783 1063
q0 -41 -29 -69.5t-70 -28.5t-69.5 28.5t-28.5 69.5t28.5 69.5t69.5 28.5t70 -28.5t29 -69.5zM402 1063q0 -41 -29 -69.5t-70 -28.5t-69.5 28.5t-28.5 69.5t28.5 69.5t69.5 28.5t70 -28.5t29 -69.5z" />
    <glyph glyph-name="divide" unicode="&#xf7;" horiz-adv-x="1348" 
d="M795 854q0 -50 -35.5 -85.5t-85.5 -35.5t-85.5 35.5t-35.5 85.5t35.5 85.5t85.5 35.5t85.5 -35.5t35.5 -85.5zM1184 395q0 -22 -25 -22h-973q-22 0 -22 22v111q0 22 22 22h973q25 0 25 -22v-111zM795 47q0 -50 -35.5 -85.5t-85.5 -35.5t-85.5 35.5t-35.5 85.5t35.5 85.5
t85.5 35.5t85.5 -35.5t35.5 -85.5z" />
    <glyph glyph-name="oslash" unicode="&#xf8;" horiz-adv-x="969" 
d="M905 776l-114 -129q98 -102 98 -250q0 -173 -112 -294q-114 -126 -285 -126q-130 0 -236 70l-70 -80q-17 -20 -59 -20q-49 0 -49 10l121 135q-107 105 -107 256q0 173 112 295q116 125 288 125q134 0 241 -74l68 78q10 12 51 12q53 0 53 -8zM629 578q-69 116 -164 116
q-178 0 -178 -245q0 -123 35 -216zM696 295q0 118 -32 209l-306 -344q66 -109 158 -109q180 0 180 244z" />
    <glyph glyph-name="ugrave" unicode="&#xf9;" horiz-adv-x="1069" 
d="M993 102q0 -5 -1 -16t-1 -16q0 -8 -37 -17q-146 -36 -241 -78q-23 0 -23 17v127q-145 -142 -293 -142q-102 0 -162 56q-63 58 -63 160v348q0 79 -10 100q-15 30 -57 35q-37 4 -37 16v35q0 13 30 16l252 25q19 0 19 -16v-516q0 -134 141 -134q108 0 180 84v355
q0 79 -10 100q-15 30 -57 35q-37 4 -37 16v35q0 13 30 16l252 25q19 0 19 -16v-582q0 -49 28 -49q12 0 34.5 6t33.5 6q10 0 10 -31zM674 868q0 -10 -16.5 -22t-26.5 -12q-11 0 -19 10l-229 295q-37 47 -37 94q0 32 26.5 56t59.5 24q65 0 102 -92z" />
    <glyph glyph-name="uacute" unicode="&#xfa;" horiz-adv-x="1069" 
d="M993 102q0 -5 -1 -16t-1 -16q0 -8 -37 -17q-146 -36 -241 -78q-23 0 -23 17v127q-145 -142 -293 -142q-102 0 -162 56q-63 58 -63 160v348q0 79 -10 100q-15 30 -57 35q-37 4 -37 16v35q0 13 30 16l252 25q19 0 19 -16v-516q0 -134 141 -134q108 0 180 84v355
q0 79 -10 100q-15 30 -57 35q-37 4 -37 16v35q0 13 30 16l252 25q19 0 19 -16v-582q0 -49 28 -49q12 0 34.5 6t33.5 6q10 0 10 -31zM736 1233q0 -47 -37 -94l-230 -295q-7 -10 -18 -10t-27 12t-16 22l2 11l137 342q37 92 103 92q33 0 59.5 -24t26.5 -56z" />
    <glyph glyph-name="ucircumflex" unicode="&#xfb;" horiz-adv-x="1069" 
d="M993 102q0 -5 -1 -16t-1 -16q0 -8 -37 -17q-146 -36 -241 -78q-23 0 -23 17v127q-145 -142 -293 -142q-102 0 -162 56q-63 58 -63 160v348q0 79 -10 100q-15 30 -57 35q-37 4 -37 16v35q0 13 30 16l252 25q19 0 19 -16v-516q0 -134 141 -134q108 0 180 84v355
q0 79 -10 100q-15 30 -57 35q-37 4 -37 16v35q0 13 30 16l252 25q19 0 19 -16v-582q0 -49 28 -49q12 0 34.5 6t33.5 6q10 0 10 -31zM792 868q0 -10 -14.5 -22t-25.5 -12q-10 0 -19 10l-223 254l-223 -254q-9 -10 -19 -10q-11 0 -26 12t-15 22q0 2 4 11l197 389q25 49 82 49
t82 -49l196 -389q4 -9 4 -11z" />
    <glyph glyph-name="udieresis" unicode="&#xfc;" horiz-adv-x="1069" 
d="M993 102q0 -5 -1 -16t-1 -16q0 -8 -37 -17q-146 -36 -241 -78q-23 0 -23 17v127q-145 -142 -293 -142q-102 0 -162 56q-63 58 -63 160v348q0 79 -10 100q-15 30 -57 35q-37 4 -37 16v35q0 13 30 16l252 25q19 0 19 -16v-516q0 -134 141 -134q108 0 180 84v355
q0 79 -10 100q-15 30 -57 35q-37 4 -37 16v35q0 13 30 16l252 25q19 0 19 -16v-582q0 -49 28 -49q12 0 34.5 6t33.5 6q10 0 10 -31zM840 1063q0 -41 -29 -69.5t-70 -28.5t-69.5 28.5t-28.5 69.5t28.5 69.5t69.5 28.5t70 -28.5t29 -69.5zM377 1063q0 -41 -29 -69.5t-70 -28.5
t-69.5 28.5t-28.5 69.5t28.5 69.5t69.5 28.5t70 -28.5t29 -69.5z" />
    <glyph glyph-name="yacute" unicode="&#xfd;" horiz-adv-x="935" 
d="M905 731q0 -4 -1 -13t-1 -13q0 -9 -18 -13q-44 -9 -50 -12q-18 -8 -38 -35q-27 -36 -64 -123l-299 -710q-95 -228 -235 -228q-47 0 -85 23q-44 26 -44 69q0 44 28.5 74.5t71.5 30.5q24 0 72.5 -10.5t72.5 -10.5q22 0 60 88l71 166l-258 543q-30 64 -57 96q-21 25 -76 39
q-14 4 -14 47q0 15 14 15q31 0 95 -4.5t96 -4.5t96 4.5t94 4.5q19 0 19 -23q0 -32 -3.5 -36t-35.5 -4q-49 -1 -49 -34q0 -22 20 -67l156 -340l147 358q15 35 15 49q0 24 -36 30t-36 30q0 37 18 37q20 0 58.5 -4.5t58.5 -4.5t59.5 4.5t59.5 4.5q18 0 18 -23zM674 1233
q0 -47 -37 -94l-230 -295q-7 -10 -18 -10t-27 12t-16 22l2 11l137 342q37 92 103 92q33 0 59.5 -24t26.5 -56z" />
    <glyph glyph-name="thorn" unicode="&#xfe;" horiz-adv-x="1002" 
d="M928 403q0 -179 -121.5 -302.5t-300.5 -123.5q-70 0 -150 9v-189q0 -88 15 -116q17 -34 64.5 -40.5t48.5 -8t1 -23.5q0 -26 -2 -29q-3 -6 -26 -6q-32 0 -93.5 4t-93.5 4q-33 0 -98 -4t-98 -4q-23 0 -23 23q0 4 1 13t1 13q0 12 39 17q43 6 58 41q10 24 10 108v1251
q0 64 -13 84q-9 15 -55 34q-41 17 -41 36q0 13 6 23q3 4 137.5 58t145.5 54q16 0 16 -16v-664l158 111q39 8 70 8q148 0 248 -109q96 -105 96 -256zM733 338q0 114 -50 204q-60 109 -165 109q-94 0 -162 -69v-443q80 -90 174 -90q203 0 203 289z" />
    <glyph glyph-name="ydieresis" unicode="&#xff;" horiz-adv-x="935" 
d="M905 731q0 -4 -1 -13t-1 -13q0 -9 -18 -13q-44 -9 -50 -12q-18 -8 -38 -35q-27 -36 -64 -123l-299 -710q-95 -228 -235 -228q-47 0 -85 23q-44 26 -44 69q0 44 28.5 74.5t71.5 30.5q24 0 72.5 -10.5t72.5 -10.5q22 0 60 88l71 166l-258 543q-30 64 -57 96q-21 25 -76 39
q-14 4 -14 47q0 15 14 15q31 0 95 -4.5t96 -4.5t96 4.5t94 4.5q19 0 19 -23q0 -32 -3.5 -36t-35.5 -4q-49 -1 -49 -34q0 -22 20 -67l156 -340l147 358q15 35 15 49q0 24 -36 30t-36 30q0 37 18 37q20 0 58.5 -4.5t58.5 -4.5t59.5 4.5t59.5 4.5q18 0 18 -23zM820 1063
q0 -41 -29 -69.5t-70 -28.5t-69.5 28.5t-28.5 69.5t28.5 69.5t69.5 28.5t70 -28.5t29 -69.5zM357 1063q0 -41 -29 -69.5t-70 -28.5t-69.5 28.5t-28.5 69.5t28.5 69.5t69.5 28.5t70 -28.5t29 -69.5z" />
    <glyph glyph-name="Amacron" unicode="&#x100;" horiz-adv-x="1439" 
d="M1395 8q0 -17 -27 -17h-8q-40 0 -120 4.5t-120 4.5t-119.5 -4.5t-119.5 -4.5h-8q-25 0 -28 19q1 -7 1 42q0 18 64.5 25t64.5 45q0 18 -11 45l-124 308h-416l-104 -308q-8 -22 -8 -39q0 -41 66 -50q77 -11 80 -14t3 -56q0 -17 -27 -17q-30 0 -95 4.5t-98 4.5t-97.5 -4.5
t-95.5 -4.5q-25 0 -28 19q1 -8 1 42q0 9 5 13q2 2 66 10q59 7 95 50.5t69 139.5l150 432q49 137 144 414q20 56 40 136q18 19 85.5 72.5t73.5 53.5q9 0 13 -12l451 -1135q33 -84 58 -113t72.5 -37.5t49.5 -11.5t2 -56zM804 565l-189 471l-160 -471h349zM1057 1536h-684v147
h684v-147z" />
    <glyph glyph-name="amacron" unicode="&#x101;" horiz-adv-x="835" 
d="M817 147q-1 -1 -2 -4q-16 -72 -65 -117q-52 -49 -123 -49q-129 0 -129 129q-130 -129 -267 -129q-70 0 -113 66q-38 57 -38 131q0 67 176 145q56 24 242 87v79q0 76 -37 105q-32 24 -111 24q-114 0 -114 -47q0 -4 5 -14.5t5 -20.5q0 -9 -10 -16q-78 -49 -107 -49
q-27 0 -27 61q0 70 109 131l192 109q144 0 205 -31q88 -45 88 -174v-379q0 -53 29 -53q23 0 42.5 17.5t25.5 17.5q24 0 24 -19zM498 174v168q-103 -35 -130 -49q-85 -42 -85 -92q0 -34 18 -70q21 -43 51 -43q65 0 146 86zM740 987h-624v148h624v-148z" />
    <glyph glyph-name="Abreve" unicode="&#x102;" horiz-adv-x="1439" 
d="M1395 8q0 -17 -27 -17h-8q-40 0 -120 4.5t-120 4.5t-119.5 -4.5t-119.5 -4.5h-8q-25 0 -28 19q1 -7 1 42q0 18 64.5 25t64.5 45q0 18 -11 45l-124 308h-416l-104 -308q-8 -22 -8 -39q0 -41 66 -50q77 -11 80 -14t3 -56q0 -17 -27 -17q-30 0 -95 4.5t-98 4.5t-97.5 -4.5
t-95.5 -4.5q-25 0 -28 19q1 -8 1 42q0 9 5 13q2 2 66 10q59 7 95 50.5t69 139.5l150 432q49 137 144 414q20 56 40 136q18 19 85.5 72.5t73.5 53.5q9 0 13 -12l451 -1135q33 -84 58 -113t72.5 -37.5t49.5 -11.5t2 -56zM804 565l-189 471l-160 -471h349zM1036 1683
q-16 -133 -111.5 -221t-230.5 -88t-231 88t-111 221h51q66 -139 291 -139t291 139h51z" />
    <glyph glyph-name="abreve" unicode="&#x103;" horiz-adv-x="835" 
d="M817 147q-1 -1 -2 -4q-16 -72 -65 -117q-52 -49 -123 -49q-129 0 -129 129q-130 -129 -267 -129q-70 0 -113 66q-38 57 -38 131q0 67 176 145q56 24 242 87v79q0 76 -37 105q-32 24 -111 24q-114 0 -114 -47q0 -4 5 -14.5t5 -20.5q0 -9 -10 -16q-78 -49 -107 -49
q-27 0 -27 61q0 70 109 131l192 109q144 0 205 -31q88 -45 88 -174v-379q0 -53 29 -53q23 0 42.5 17.5t25.5 17.5q24 0 24 -19zM498 174v168q-103 -35 -130 -49q-85 -42 -85 -92q0 -34 18 -70q21 -43 51 -43q65 0 146 86zM744 1280q-13 -146 -100 -246q-93 -108 -230 -108
t-230 108q-88 100 -100 246h47q58 -168 283 -168t282 168h48z" />
    <glyph glyph-name="Aogonek" unicode="&#x104;" horiz-adv-x="1439" 
d="M1395 8q0 -17 -27 -17h-8q-40 0 -120 4.5t-120 4.5t-119.5 -4.5t-119.5 -4.5h-8q-25 0 -28 19q1 -7 1 42q0 18 64.5 25t64.5 45q0 18 -11 45l-124 308h-416l-104 -308q-8 -22 -8 -39q0 -41 66 -50q77 -11 80 -14t3 -56q0 -17 -27 -17q-30 0 -95 4.5t-98 4.5t-97.5 -4.5
t-95.5 -4.5q-25 0 -28 19q1 -8 1 42q0 9 5 13q2 2 66 10q59 7 95 50.5t69 139.5l150 432q49 137 144 414q20 56 40 136q18 19 85.5 72.5t73.5 53.5q9 0 13 -12l451 -1135q33 -84 58 -113t72.5 -37.5t49.5 -11.5t2 -56zM804 565l-189 471l-160 -471h349zM1462 -231
q0 -10 -8 -17q-116 -98 -240 -98q-65 0 -110 38q-48 40 -48 105q0 85 123 203h74q-70 -87 -70 -139q0 -49 32 -82t81 -33q45 0 131 45q4 2 10 4q25 0 25 -26z" />
    <glyph glyph-name="aogonek" unicode="&#x105;" horiz-adv-x="835" 
d="M817 147q-1 -1 -2 -4q-16 -72 -65 -117q-52 -49 -123 -49q-129 0 -129 129q-130 -129 -267 -129q-70 0 -113 66q-38 57 -38 131q0 67 176 145q56 24 242 87v79q0 76 -37 105q-32 24 -111 24q-114 0 -114 -47q0 -4 5 -14.5t5 -20.5q0 -9 -10 -16q-78 -49 -107 -49
q-27 0 -27 61q0 70 109 131l192 109q144 0 205 -31q88 -45 88 -174v-379q0 -53 29 -53q23 0 42.5 17.5t25.5 17.5q24 0 24 -19zM498 174v168q-103 -35 -130 -49q-85 -42 -85 -92q0 -34 18 -70q21 -43 51 -43q65 0 146 86zM922 -231q0 -10 -8 -17q-116 -98 -240 -98
q-65 0 -110 38q-48 40 -48 105q0 85 123 203h74q-70 -87 -70 -139q0 -49 32 -82t81 -33q45 0 131 45q4 2 10 4q25 0 25 -26z" />
    <glyph glyph-name="Cacute" unicode="&#x106;" horiz-adv-x="1439" 
d="M1365 343l-1 -5q-27 -128 -70 -274q-8 -8 -22 -14q-179 -76 -414 -76q-351 0 -565.5 176.5t-214.5 465.5q0 329 212 526q207 191 539 191q229 0 422 -73q15 -5 22 -13.5t9 -21.5l44 -256v-4q0 -22 -57 -22q-12 0 -20 14q-76 140 -167 207q-109 78 -236 78
q-241 0 -378 -175q-126 -161 -126 -408q0 -250 152.5 -422.5t371.5 -172.5q168 0 264 64.5t160 219.5q5 11 8 16h2q65 0 65 -21zM955 1610q0 -63 -97 -119l-268 -156q-7 -4 -14 -4q-12 0 -23.5 15.5t-11.5 27.5q1 2 2 6l4 9l217 227q65 67 113 67q30 0 54 -21.5t24 -51.5z
" />
    <glyph glyph-name="cacute" unicode="&#x107;" horiz-adv-x="768" 
d="M727 164q0 -8 -4 -14q-103 -173 -283 -173q-170 0 -264 102q-92 98 -92 269q0 176 119 298t295 122q74 0 134 -30q75 -37 75 -103q0 -37 -24 -62.5t-60 -25.5q-65 0 -112 73.5t-81 73.5q-84 0 -136 -70q-48 -64 -48 -151q0 -132 71 -230q78 -110 205 -110q57 0 115 35
t53 35q8 0 22.5 -15.5t14.5 -23.5zM613 1233q0 -47 -37 -94l-230 -295q-7 -10 -18 -10t-27 12t-16 22l2 11l137 342q37 92 103 92q33 0 59.5 -24t26.5 -56z" />
    <glyph glyph-name="Ccircumflex" unicode="&#x108;" horiz-adv-x="1439" 
d="M1365 343l-1 -5q-27 -128 -70 -274q-8 -8 -22 -14q-179 -76 -414 -76q-351 0 -565.5 176.5t-214.5 465.5q0 329 212 526q207 191 539 191q229 0 422 -73q15 -5 22 -13.5t9 -21.5l44 -256v-4q0 -22 -57 -22q-12 0 -20 14q-76 140 -167 207q-109 78 -236 78
q-241 0 -378 -175q-126 -161 -126 -408q0 -250 152.5 -422.5t371.5 -172.5q168 0 264 64.5t160 219.5q5 11 8 16h2q65 0 65 -21zM1186 1386q0 -16 -15.5 -32.5t-31.5 -16.5q-8 0 -21 6l-321 154l-322 -154q-13 -6 -20 -6q-16 0 -31.5 16.5t-15.5 32.5q0 15 10 23l276 223
q64 51 103 51t102 -51l277 -223q10 -8 10 -23z" />
    <glyph glyph-name="ccircumflex" unicode="&#x109;" horiz-adv-x="768" 
d="M727 164q0 -8 -4 -14q-103 -173 -283 -173q-170 0 -264 102q-92 98 -92 269q0 176 119 298t295 122q74 0 134 -30q75 -37 75 -103q0 -37 -24 -62.5t-60 -25.5q-65 0 -112 73.5t-81 73.5q-84 0 -136 -70q-48 -64 -48 -151q0 -132 71 -230q78 -110 205 -110q57 0 115 35
t53 35q8 0 22.5 -15.5t14.5 -23.5zM731 868q0 -10 -14.5 -22t-25.5 -12q-10 0 -19 10l-223 254l-223 -254q-9 -10 -19 -10q-11 0 -26 12t-15 22q0 2 4 11l197 389q25 49 82 49t82 -49l196 -389q4 -9 4 -11z" />
    <glyph glyph-name="Cdot" unicode="&#x10a;" horiz-adv-x="1439" 
d="M1365 343l-1 -5q-27 -128 -70 -274q-8 -8 -22 -14q-179 -76 -414 -76q-351 0 -565.5 176.5t-214.5 465.5q0 329 212 526q207 191 539 191q229 0 422 -73q15 -5 22 -13.5t9 -21.5l44 -256v-4q0 -22 -57 -22q-12 0 -20 14q-76 140 -167 207q-109 78 -236 78
q-241 0 -378 -175q-126 -161 -126 -408q0 -250 152.5 -422.5t371.5 -172.5q168 0 264 64.5t160 219.5q5 11 8 16h2q65 0 65 -21zM953 1569q0 -48 -34 -81.5t-81 -33.5q-48 0 -81.5 33.5t-33.5 81.5q0 47 33.5 80.5t81.5 33.5q47 0 81 -33.5t34 -80.5z" />
    <glyph glyph-name="cdot" unicode="&#x10b;" horiz-adv-x="768" 
d="M727 164q0 -8 -4 -14q-103 -173 -283 -173q-170 0 -264 102q-92 98 -92 269q0 176 119 298t295 122q74 0 134 -30q75 -37 75 -103q0 -37 -24 -62.5t-60 -25.5q-65 0 -112 73.5t-81 73.5q-84 0 -136 -70q-48 -64 -48 -151q0 -132 71 -230q78 -110 205 -110q57 0 115 35
t53 35q8 0 22.5 -15.5t14.5 -23.5zM543 1063q0 -48 -34 -81.5t-81 -33.5q-48 0 -81.5 33.5t-33.5 81.5q0 47 33.5 81t81.5 34q47 0 81 -34t34 -81z" />
    <glyph glyph-name="Ccaron" unicode="&#x10c;" horiz-adv-x="1439" 
d="M1365 343l-1 -5q-27 -128 -70 -274q-8 -8 -22 -14q-179 -76 -414 -76q-351 0 -565.5 176.5t-214.5 465.5q0 329 212 526q207 191 539 191q229 0 422 -73q15 -5 22 -13.5t9 -21.5l44 -256v-4q0 -22 -57 -22q-12 0 -20 14q-76 140 -167 207q-109 78 -236 78
q-241 0 -378 -175q-126 -161 -126 -408q0 -250 152.5 -422.5t371.5 -172.5q168 0 264 64.5t160 219.5q5 11 8 16h2q65 0 65 -21zM1206 1634q0 -14 -10 -22l-277 -223q-63 -52 -102 -52t-103 52l-276 223q-10 8 -10 22q0 16 15.5 32.5t31.5 16.5q7 0 20 -6l322 -153l321 153
q13 6 21 6q16 0 31.5 -16.5t15.5 -32.5z" />
    <glyph glyph-name="ccaron" unicode="&#x10d;" horiz-adv-x="768" 
d="M727 164q0 -8 -4 -14q-103 -173 -283 -173q-170 0 -264 102q-92 98 -92 269q0 176 119 298t295 122q74 0 134 -30q75 -37 75 -103q0 -37 -24 -62.5t-60 -25.5q-65 0 -112 73.5t-81 73.5q-84 0 -136 -70q-48 -64 -48 -151q0 -132 71 -230q78 -110 205 -110q57 0 115 35
t53 35q8 0 22.5 -15.5t14.5 -23.5zM722 1282q0 -2 -4 -10l-196 -389q-25 -49 -82 -49t-82 49l-197 389q-4 8 -4 10q0 11 15 23t26 12q10 0 19 -10l223 -254l223 254q9 10 19 10q11 0 25.5 -12t14.5 -23z" />
    <glyph glyph-name="Dcaron" unicode="&#x10e;" horiz-adv-x="1579" 
d="M1505 651q0 -285 -226 -477q-215 -181 -506 -181q-68 0 -205.5 3.5t-205.5 3.5q-46 0 -137.5 -4.5t-137.5 -4.5q-26 0 -30 18q2 -7 2 43q0 17 60 23q70 6 95 50q22 39 22 140v795q0 137 -104 137q-9 0 -24 -1t-21 -1q-18 0 -25 7q-3 3 -3 53q0 7 33 16q82 22 249 38
q184 18 334 18q366 0 598 -189t232 -487zM1242 646q0 591 -553 591q-120 0 -160.5 -41.5t-40.5 -162.5v-670q0 -164 50 -222q55 -63 216 -63q235 0 367 171q121 155 121 397zM1186 1634q0 -14 -10 -22l-277 -223q-63 -52 -102 -52t-103 52l-276 223q-10 8 -10 22
q0 16 15.5 32.5t31.5 16.5q7 0 20 -6l322 -153l321 153q13 6 21 6q16 0 31.5 -16.5t15.5 -32.5z" />
    <glyph glyph-name="dcaron" unicode="&#x10f;" horiz-adv-x="1296" 
d="M963 74q0 -6 -1 -17t-1 -16q0 -15 -37 -18q-138 -15 -242 -54q-23 -2 -23 17v96q-116 -105 -260 -105q-139 0 -229 111q-84 103 -84 246q0 177 111 303q116 131 290 131q95 0 172 -37v309q0 64 -12 84q-9 15 -56 34q-40 17 -40 36q0 13 6 23q3 4 137.5 58t145.5 54
q16 0 16 -16v-1118q0 -66 14.5 -80.5t75.5 -14.5q17 0 17 -26zM659 145v369q0 184 -172 184q-99 0 -157 -100q-49 -85 -49 -192q0 -117 58 -208q67 -104 177 -104q85 0 143 51zM1296 1118q0 -185 -231 -282q-5 -2 -13 -2q-7 0 -21.5 24t-14.5 33q0 11 14 18q149 78 149 133
q0 39 -77.5 71.5t-77.5 105.5q0 43 36 70q32 24 74 24q75 0 121 -64q41 -56 41 -131z" />
    <glyph glyph-name="Dslash" unicode="&#x110;" horiz-adv-x="1579" 
d="M1505 651q0 -285 -226 -477q-215 -181 -506 -181q-68 0 -205.5 3.5t-205.5 3.5q-46 0 -137.5 -4.5t-137.5 -4.5q-26 0 -30 18q2 -7 2 43q0 17 60 23q70 6 95 50q22 39 22 140v358h-119q-23 0 -23 20v80q0 20 23 20h119v317q0 137 -104 137q-9 0 -24 -1t-21 -1
q-18 0 -25 7q-3 3 -3 53q0 7 33 16q82 22 249 38q184 18 334 18q366 0 598 -189t232 -487zM1242 646q0 591 -553 591q-120 0 -160.5 -41.5t-40.5 -162.5v-290h204q21 0 21 -20v-80q0 -20 -21 -20h-204v-260q0 -164 50 -222q55 -63 216 -63q235 0 367 171q121 155 121 397z
" />
    <glyph glyph-name="dcroat" unicode="&#x111;" horiz-adv-x="1002" 
d="M973 985q0 -10 -12 -10h-105v-780q0 -66 14.5 -80.5t75.5 -14.5q17 0 17 -26q0 -6 -1 -17t-1 -16q0 -15 -37 -18q-138 -15 -242 -54q-23 -2 -23 17v96q-116 -105 -260 -105q-139 0 -229 111q-84 103 -84 246q0 177 111 303q116 131 290 131q95 0 172 -37v244h-192
q-10 0 -10 10v53q0 11 10 11h192q0 55 -12 75q-9 15 -56 34q-40 17 -40 36q0 13 6 23q3 4 137.5 58t145.5 54q16 0 16 -16v-264h105q12 0 12 -11v-53zM659 145v369q0 184 -172 184q-99 0 -157 -100q-49 -85 -49 -192q0 -117 58 -208q67 -104 177 -104q85 0 143 51z" />
    <glyph glyph-name="Emacron" unicode="&#x112;" horiz-adv-x="1193" 
d="M1185 274q0 -5 -43 -131l-43 -125q-8 -26 -19 -25l-604 7h-174q-31 -1 -113 -5q-72 -4 -114 -4q-26 0 -30 18q1 -6 1 43q0 17 62 23q70 6 93 49t23 134v790q0 171 -101 182l-59 7q-10 1 -14 4.5t-4 56.5q0 18 25 18q44 0 120 -4q89 -5 120 -5h66l650 7q19 0 19 -25v-276
q0 -17 -56 -17q-14 0 -17 17l-13 75q-13 73 -70.5 102t-263.5 29q-86 0 -117 -28q-33 -31 -33 -117v-346h224q72 0 100 37q15 22 36 106q2 8 8 13t53 5q18 0 18 -18q0 9 -6.5 -62t-6.5 -127q0 -57 6.5 -127.5t6.5 -60.5q0 -18 -60 -18q-14 0 -32 70q-22 92 -123 92h-224
v-382q0 -115 29.5 -142t145.5 -27h61q162 0 246.5 32t121.5 107.5t49 75.5q56 0 56 -28zM934 1536h-684v147h684v-147z" />
    <glyph glyph-name="emacron" unicode="&#x113;" horiz-adv-x="802" 
d="M752 504q0 -29 -11 -36q-6 -4 -36 -5l-443 -14v-23q0 -132 74 -211q76 -82 207 -82q61 0 119 41t51 41q7 0 21 -15t14 -22q0 -5 -5 -12q-112 -189 -342 -189q-145 0 -240 116q-89 108 -89 257q0 170 107 292q112 126 280 126q293 0 293 -264zM561 580q0 23 -12 47
q-35 67 -117 67q-129 0 -164 -170l207 6q86 3 86 50zM710 987h-565v148h565v-148z" />
    <glyph glyph-name="Ebreve" unicode="&#x114;" horiz-adv-x="1193" 
d="M1185 274q0 -5 -43 -131l-43 -125q-8 -26 -19 -25l-604 7h-174q-31 -1 -113 -5q-72 -4 -114 -4q-26 0 -30 18q1 -6 1 43q0 17 62 23q70 6 93 49t23 134v790q0 171 -101 182l-59 7q-10 1 -14 4.5t-4 56.5q0 18 25 18q44 0 120 -4q89 -5 120 -5h66l650 7q19 0 19 -25v-276
q0 -17 -56 -17q-14 0 -17 17l-13 75q-13 73 -70.5 102t-263.5 29q-86 0 -117 -28q-33 -31 -33 -117v-346h224q72 0 100 37q15 22 36 106q2 8 8 13t53 5q18 0 18 -18q0 9 -6.5 -62t-6.5 -127q0 -57 6.5 -127.5t6.5 -60.5q0 -18 -60 -18q-14 0 -32 70q-22 92 -123 92h-224
v-382q0 -115 29.5 -142t145.5 -27h61q162 0 246.5 32t121.5 107.5t49 75.5q56 0 56 -28zM954 1683q-16 -133 -111.5 -221t-230.5 -88t-231 88t-111 221h51q66 -139 291 -139t291 139h51z" />
    <glyph glyph-name="ebreve" unicode="&#x115;" horiz-adv-x="802" 
d="M752 504q0 -29 -11 -36q-6 -4 -36 -5l-443 -14v-23q0 -132 74 -211q76 -82 207 -82q61 0 119 41t51 41q7 0 21 -15t14 -22q0 -5 -5 -12q-112 -189 -342 -189q-145 0 -240 116q-89 108 -89 257q0 170 107 292q112 126 280 126q293 0 293 -264zM561 580q0 23 -12 47
q-35 67 -117 67q-129 0 -164 -170l207 6q86 3 86 50zM758 1280q-13 -146 -100 -246q-93 -108 -230 -108t-230 108q-88 100 -100 246h47q58 -168 283 -168t282 168h48z" />
    <glyph glyph-name="Edot" unicode="&#x116;" horiz-adv-x="1193" 
d="M1185 274q0 -5 -43 -131l-43 -125q-8 -26 -19 -25l-604 7h-174q-31 -1 -113 -5q-72 -4 -114 -4q-26 0 -30 18q1 -6 1 43q0 17 62 23q70 6 93 49t23 134v790q0 171 -101 182l-59 7q-10 1 -14 4.5t-4 56.5q0 18 25 18q44 0 120 -4q89 -5 120 -5h66l650 7q19 0 19 -25v-276
q0 -17 -56 -17q-14 0 -17 17l-13 75q-13 73 -70.5 102t-263.5 29q-86 0 -117 -28q-33 -31 -33 -117v-346h224q72 0 100 37q15 22 36 106q2 8 8 13t53 5q18 0 18 -18q0 9 -6.5 -62t-6.5 -127q0 -57 6.5 -127.5t6.5 -60.5q0 -18 -60 -18q-14 0 -32 70q-22 92 -123 92h-224
v-382q0 -115 29.5 -142t145.5 -27h61q162 0 246.5 32t121.5 107.5t49 75.5q56 0 56 -28zM748 1569q0 -48 -34 -81.5t-81 -33.5q-48 0 -81.5 33.5t-33.5 81.5q0 47 33.5 80.5t81.5 33.5q47 0 81 -33.5t34 -80.5z" />
    <glyph glyph-name="edot" unicode="&#x117;" horiz-adv-x="802" 
d="M752 504q0 -29 -11 -36q-6 -4 -36 -5l-443 -14v-23q0 -132 74 -211q76 -82 207 -82q61 0 119 41t51 41q7 0 21 -15t14 -22q0 -5 -5 -12q-112 -189 -342 -189q-145 0 -240 116q-89 108 -89 257q0 170 107 292q112 126 280 126q293 0 293 -264zM561 580q0 23 -12 47
q-35 67 -117 67q-129 0 -164 -170l207 6q86 3 86 50zM543 1063q0 -48 -34 -81.5t-81 -33.5q-48 0 -81.5 33.5t-33.5 81.5q0 47 33.5 81t81.5 34q47 0 81 -34t34 -81z" />
    <glyph glyph-name="Eogonek" unicode="&#x118;" horiz-adv-x="1193" 
d="M1185 274q0 -5 -43 -131l-43 -125q-8 -26 -19 -25l-604 7h-174q-31 -1 -113 -5q-72 -4 -114 -4q-26 0 -30 18q1 -6 1 43q0 17 62 23q70 6 93 49t23 134v790q0 171 -101 182l-59 7q-10 1 -14 4.5t-4 56.5q0 18 25 18q44 0 120 -4q89 -5 120 -5h66l650 7q19 0 19 -25v-276
q0 -17 -56 -17q-14 0 -17 17l-13 75q-13 73 -70.5 102t-263.5 29q-86 0 -117 -28q-33 -31 -33 -117v-346h224q72 0 100 37q15 22 36 106q2 8 8 13t53 5q18 0 18 -18q0 9 -6.5 -62t-6.5 -127q0 -57 6.5 -127.5t6.5 -60.5q0 -18 -60 -18q-14 0 -32 70q-22 92 -123 92h-224
v-382q0 -115 29.5 -142t145.5 -27h61q162 0 246.5 32t121.5 107.5t49 75.5q56 0 56 -28zM1176 -231q0 -10 -8 -17q-116 -98 -240 -98q-65 0 -110 38q-48 40 -48 105q0 85 123 203h74q-70 -87 -70 -139q0 -49 32 -82t81 -33q45 0 131 45q4 2 10 4q25 0 25 -26z" />
    <glyph glyph-name="eogonek" unicode="&#x119;" horiz-adv-x="802" 
d="M752 504q0 -29 -11 -36q-6 -4 -36 -5l-443 -14v-23q0 -132 74 -211q76 -82 207 -82q61 0 119 41t51 41q7 0 21 -15t14 -22q0 -5 -5 -12q-112 -189 -342 -189q-145 0 -240 116q-89 108 -89 257q0 170 107 292q112 126 280 126q293 0 293 -264zM561 580q0 23 -12 47
q-35 67 -117 67q-129 0 -164 -170l207 6q86 3 86 50zM746 -231q0 -10 -8 -17q-116 -98 -240 -98q-65 0 -110 38q-48 40 -48 105q0 85 123 203h74q-70 -87 -70 -139q0 -49 32 -82t81 -33q45 0 131 45q4 2 10 4q25 0 25 -26z" />
    <glyph glyph-name="Ecaron" unicode="&#x11a;" horiz-adv-x="1193" 
d="M1185 274q0 -5 -43 -131l-43 -125q-8 -26 -19 -25l-604 7h-174q-31 -1 -113 -5q-72 -4 -114 -4q-26 0 -30 18q1 -6 1 43q0 17 62 23q70 6 93 49t23 134v790q0 171 -101 182l-59 7q-10 1 -14 4.5t-4 56.5q0 18 25 18q44 0 120 -4q89 -5 120 -5h66l650 7q19 0 19 -25v-276
q0 -17 -56 -17q-14 0 -17 17l-13 75q-13 73 -70.5 102t-263.5 29q-86 0 -117 -28q-33 -31 -33 -117v-346h224q72 0 100 37q15 22 36 106q2 8 8 13t53 5q18 0 18 -18q0 9 -6.5 -62t-6.5 -127q0 -57 6.5 -127.5t6.5 -60.5q0 -18 -60 -18q-14 0 -32 70q-22 92 -123 92h-224
v-382q0 -115 29.5 -142t145.5 -27h61q162 0 246.5 32t121.5 107.5t49 75.5q56 0 56 -28zM1001 1634q0 -14 -10 -22l-277 -223q-63 -52 -102 -52t-103 52l-276 223q-10 8 -10 22q0 16 15.5 32.5t31.5 16.5q7 0 20 -6l322 -153l321 153q13 6 21 6q16 0 31.5 -16.5t15.5 -32.5z
" />
    <glyph glyph-name="ecaron" unicode="&#x11b;" horiz-adv-x="802" 
d="M752 504q0 -29 -11 -36q-6 -4 -36 -5l-443 -14v-23q0 -132 74 -211q76 -82 207 -82q61 0 119 41t51 41q7 0 21 -15t14 -22q0 -5 -5 -12q-112 -189 -342 -189q-145 0 -240 116q-89 108 -89 257q0 170 107 292q112 126 280 126q293 0 293 -264zM561 580q0 23 -12 47
q-35 67 -117 67q-129 0 -164 -170l207 6q86 3 86 50zM710 1282q0 -2 -4 -10l-196 -389q-25 -49 -82 -49t-82 49l-197 389q-4 8 -4 10q0 11 15 23t26 12q10 0 19 -10l223 -254l223 254q9 10 19 10q11 0 25.5 -12t14.5 -23z" />
    <glyph glyph-name="Gcircumflex" unicode="&#x11c;" horiz-adv-x="1545" 
d="M1493 523q0 -17 -42 -23q-49 -7 -65 -31t-16 -81q0 -278 -6.5 -288.5t-32.5 -23.5q-205 -102 -500 -102q-318 0 -538.5 186.5t-220.5 455.5q0 301 227 509t556 208q260 0 444 -89q20 -9 29.5 -21.5t27.5 -245.5q1 -17 -56 -17q-16 0 -22 18q-48 130 -134 191
q-102 73 -257 73q-253 0 -405 -164q-147 -160 -147 -416q0 -251 150 -424.5t365 -173.5q41 0 83 7q130 20 174 100q31 58 31 198q0 101 -70 126q-30 11 -158 11q-16 0 -20.5 3t-4.5 58q0 18 24 18h11q45 0 134.5 -5t134.5 -5q139 0 269 10h13q22 2 24 -20q-2 17 -2 -42z
M1227 1386q0 -16 -15.5 -32.5t-31.5 -16.5q-8 0 -21 6l-321 154l-322 -154q-13 -6 -20 -6q-16 0 -31.5 16.5t-15.5 32.5q0 15 10 23l276 223q64 51 103 51t102 -51l277 -223q10 -8 10 -23z" />
    <glyph glyph-name="gcircumflex" unicode="&#x11d;" horiz-adv-x="969" 
d="M915 -96q0 -153 -153 -244q-130 -78 -293 -78q-365 0 -365 256l199 94q-101 15 -141.5 62t-40.5 149l182 127q-79 26 -131 80q-59 61 -59 137q0 128 110 209q99 72 232 72q151 0 245 -74h199q16 0 16 -16v-74q0 -16 -16 -16h-113q9 -31 9 -62q0 -128 -109 -207
q-98 -71 -231 -71q-44 0 -90 8q-72 -37 -72 -82q0 -53 143 -53h164q133 0 224 -63t91 -154zM602 461q0 86 -38 156q-45 85 -124 85q-133 0 -133 -149q0 -86 37 -155q45 -85 123 -85q135 0 135 148zM741 -182q0 108 -165 108q-17 0 -46 -1t-41 -1q-87 0 -124 2
q-86 -41 -86 -125q0 -69 78 -109q64 -32 141 -32q243 0 243 158zM772 868q0 -10 -14.5 -22t-25.5 -12q-10 0 -19 10l-223 254l-223 -254q-9 -10 -19 -10q-11 0 -26 12t-15 22q0 2 4 11l197 389q25 49 82 49t82 -49l196 -389q4 -9 4 -11z" />
    <glyph glyph-name="Gbreve" unicode="&#x11e;" horiz-adv-x="1545" 
d="M1493 523q0 -17 -42 -23q-49 -7 -65 -31t-16 -81q0 -278 -6.5 -288.5t-32.5 -23.5q-205 -102 -500 -102q-318 0 -538.5 186.5t-220.5 455.5q0 301 227 509t556 208q260 0 444 -89q20 -9 29.5 -21.5t27.5 -245.5q1 -17 -56 -17q-16 0 -22 18q-48 130 -134 191
q-102 73 -257 73q-253 0 -405 -164q-147 -160 -147 -416q0 -251 150 -424.5t365 -173.5q41 0 83 7q130 20 174 100q31 58 31 198q0 101 -70 126q-30 11 -158 11q-16 0 -20.5 3t-4.5 58q0 18 24 18h11q45 0 134.5 -5t134.5 -5q139 0 269 10h13q22 2 24 -20q-2 17 -2 -42z
M1159 1683q-16 -133 -111.5 -221t-230.5 -88t-231 88t-111 221h51q66 -139 291 -139t291 139h51z" />
    <glyph glyph-name="gbreve" unicode="&#x11f;" horiz-adv-x="969" 
d="M915 -96q0 -153 -153 -244q-130 -78 -293 -78q-365 0 -365 256l199 94q-101 15 -141.5 62t-40.5 149l182 127q-79 26 -131 80q-59 61 -59 137q0 128 110 209q99 72 232 72q151 0 245 -74h199q16 0 16 -16v-74q0 -16 -16 -16h-113q9 -31 9 -62q0 -128 -109 -207
q-98 -71 -231 -71q-44 0 -90 8q-72 -37 -72 -82q0 -53 143 -53h164q133 0 224 -63t91 -154zM602 461q0 86 -38 156q-45 85 -124 85q-133 0 -133 -149q0 -86 37 -155q45 -85 123 -85q135 0 135 148zM741 -182q0 108 -165 108q-17 0 -46 -1t-41 -1q-87 0 -124 2
q-86 -41 -86 -125q0 -69 78 -109q64 -32 141 -32q243 0 243 158zM799 1280q-13 -146 -100 -246q-93 -108 -230 -108t-230 108q-88 100 -100 246h47q58 -168 283 -168t282 168h48z" />
    <glyph glyph-name="Gdot" unicode="&#x120;" horiz-adv-x="1545" 
d="M1493 523q0 -17 -42 -23q-49 -7 -65 -31t-16 -81q0 -278 -6.5 -288.5t-32.5 -23.5q-205 -102 -500 -102q-318 0 -538.5 186.5t-220.5 455.5q0 301 227 509t556 208q260 0 444 -89q20 -9 29.5 -21.5t27.5 -245.5q1 -17 -56 -17q-16 0 -22 18q-48 130 -134 191
q-102 73 -257 73q-253 0 -405 -164q-147 -160 -147 -416q0 -251 150 -424.5t365 -173.5q41 0 83 7q130 20 174 100q31 58 31 198q0 101 -70 126q-30 11 -158 11q-16 0 -20.5 3t-4.5 58q0 18 24 18h11q45 0 134.5 -5t134.5 -5q139 0 269 10h13q22 2 24 -20q-2 17 -2 -42z
M953 1569q0 -48 -34 -81.5t-81 -33.5q-48 0 -81.5 33.5t-33.5 81.5q0 47 33.5 80.5t81.5 33.5q47 0 81 -33.5t34 -80.5z" />
    <glyph glyph-name="gdot" unicode="&#x121;" horiz-adv-x="969" 
d="M915 -96q0 -153 -153 -244q-130 -78 -293 -78q-365 0 -365 256l199 94q-101 15 -141.5 62t-40.5 149l182 127q-79 26 -131 80q-59 61 -59 137q0 128 110 209q99 72 232 72q151 0 245 -74h199q16 0 16 -16v-74q0 -16 -16 -16h-113q9 -31 9 -62q0 -128 -109 -207
q-98 -71 -231 -71q-44 0 -90 8q-72 -37 -72 -82q0 -53 143 -53h164q133 0 224 -63t91 -154zM602 461q0 86 -38 156q-45 85 -124 85q-133 0 -133 -149q0 -86 37 -155q45 -85 123 -85q135 0 135 148zM741 -182q0 108 -165 108q-17 0 -46 -1t-41 -1q-87 0 -124 2
q-86 -41 -86 -125q0 -69 78 -109q64 -32 141 -32q243 0 243 158zM605 1063q0 -48 -34 -81.5t-81 -33.5q-48 0 -81.5 33.5t-33.5 81.5q0 47 33.5 81t81.5 34q47 0 81 -34t34 -81z" />
    <glyph glyph-name="Gcedilla" unicode="&#x122;" horiz-adv-x="1545" 
d="M1493 523q0 -17 -42 -23q-49 -7 -65 -31t-16 -81q0 -278 -6.5 -288.5t-32.5 -23.5q-205 -102 -500 -102q-318 0 -538.5 186.5t-220.5 455.5q0 301 227 509t556 208q260 0 444 -89q20 -9 29.5 -21.5t27.5 -245.5q1 -17 -56 -17q-16 0 -22 18q-48 130 -134 191
q-102 73 -257 73q-253 0 -405 -164q-147 -160 -147 -416q0 -251 150 -424.5t365 -173.5q41 0 83 7q130 20 174 100q31 58 31 198q0 101 -70 126q-30 11 -158 11q-16 0 -20.5 3t-4.5 58q0 18 24 18h11q45 0 134.5 -5t134.5 -5q139 0 269 10h13q22 2 24 -20q-2 17 -2 -42z
M971 -317q0 -100 -91 -161q-79 -54 -180 -54q-60 0 -116 18q-76 25 -76 72q0 57 63 57q15 0 68 -31q45 -26 86 -26q104 0 104 86q0 100 -121 100q-8 0 -25 -3t-26 -3q-51 0 -51 47q0 12 221 235l60 -14l-99 -139q75 -15 125 -59q58 -51 58 -125z" />
    <glyph glyph-name="gcedilla" unicode="&#x123;" horiz-adv-x="969" 
d="M915 -96q0 -153 -153 -244q-130 -78 -293 -78q-365 0 -365 256l199 94q-101 15 -141.5 62t-40.5 149l182 127q-79 26 -131 80q-59 61 -59 137q0 128 110 209q99 72 232 72q151 0 245 -74h199q16 0 16 -16v-74q0 -16 -16 -16h-113q9 -31 9 -62q0 -128 -109 -207
q-98 -71 -231 -71q-44 0 -90 8q-72 -37 -72 -82q0 -53 143 -53h164q133 0 224 -63t91 -154zM602 461q0 86 -38 156q-45 85 -124 85q-133 0 -133 -149q0 -86 37 -155q45 -85 123 -85q135 0 135 148zM741 -182q0 108 -165 108q-17 0 -46 -1t-41 -1q-87 0 -124 2
q-86 -41 -86 -125q0 -69 78 -109q64 -32 141 -32q243 0 243 158zM610 1255q0 -11 -14 -18q-150 -78 -150 -133q0 -38 78 -71t78 -105q0 -44 -36 -71q-32 -23 -75 -23q-74 0 -120 63q-41 56 -41 131q0 185 231 283q5 2 12 2q8 0 22.5 -24.5t14.5 -33.5z" />
    <glyph glyph-name="Hcircumflex" unicode="&#x124;" horiz-adv-x="1685" 
d="M1623 8q0 -17 -27 -17h-9q-44 0 -133.5 4.5t-133.5 4.5q-45 0 -134.5 -4.5t-134.5 -4.5h-7q-26 0 -29 18q1 -6 1 43q0 17 61 23q70 6 94 50q22 41 22 133v402h-710v-402q0 -171 102 -182l58 -6q11 -1 14.5 -5t3.5 -57q0 -17 -28 -17h-8q-44 0 -133.5 4.5t-133.5 4.5
q-45 0 -134.5 -4.5t-134.5 -4.5h-8q-25 0 -28 19q1 -7 1 42q0 17 61 23q70 6 94 50q22 41 22 133v790q0 171 -101 182l-58 7q-11 1 -14.5 4.5t-3.5 56.5q0 18 27 18h8q45 0 134 -4.5t134 -4.5t134.5 4.5t133.5 4.5h12q23 0 25 -19q-1 11 -1 -42q0 -17 -61 -23
q-70 -6 -93.5 -49t-23.5 -135v-298h710v298q0 171 -101 182l-59 7q-10 1 -13.5 4.5t-3.5 56.5q0 18 24 18h11q45 0 134 -4.5t134 -4.5t134 4.5t134 4.5h9q25 0 28 -19q-1 8 -1 -42q0 -17 -61 -23q-70 -6 -93.5 -49t-23.5 -135v-790q0 -171 101 -182l59 -6q10 -1 14 -5t4 -57
zM1227 1386q0 -16 -15.5 -32.5t-31.5 -16.5q-8 0 -21 6l-321 154l-322 -154q-13 -6 -20 -6q-16 0 -31.5 16.5t-15.5 32.5q0 15 10 23l276 223q64 51 103 51t102 -51l277 -223q10 -8 10 -23z" />
    <glyph glyph-name="hcircumflex" unicode="&#x125;" horiz-adv-x="1069" 
d="M999 6q0 -14 -18 -14h-10q-96 8 -174 8q-79 0 -174 -8h-11q-20 0 -20 20q0 5 1 14.5t1 14.5q0 12 39 17q43 7 55 30q10 20 10 88v334q0 133 -139 133q-95 0 -178 -82v-385q0 -68 10 -88q12 -23 55 -30q39 -5 39 -17v-35q0 -14 -20 -14h-8q-96 8 -174 8q-31 0 -91.5 -4
t-91.5 -4q-22 0 -22 22q0 5 1 13.5t1 13.5q0 12 39 17q43 7 55 30q10 20 10 88v864q0 64 -12 84q-9 15 -56 34q-40 17 -40 36q0 13 6 23q3 4 137.5 58t145.5 54q16 0 16 -16v-678q145 133 287 133q103 0 164 -55q63 -58 63 -160v-365q0 -80 10 -100q12 -24 56 -30
q38 -5 38 -17v-35zM876 1386q0 -16 -16 -32.5t-32 -16.5q-10 0 -20 6l-260 154l-260 -154q-11 -6 -21 -6q-16 0 -31.5 16.5t-15.5 32.5q0 12 10 23l215 223q50 51 103 51t102 -51l215 -223q11 -11 11 -23z" />
    <glyph glyph-name="Hbar" unicode="&#x126;" horiz-adv-x="1685" 
d="M1623 8q0 -17 -27 -17h-9q-44 0 -133.5 4.5t-133.5 4.5q-45 0 -134.5 -4.5t-134.5 -4.5h-7q-26 0 -29 18q1 -6 1 43q0 17 61 23q70 6 94 50q22 41 22 133v402h-710v-402q0 -171 102 -182l58 -6q11 -1 14.5 -5t3.5 -57q0 -17 -28 -17h-8q-44 0 -133.5 4.5t-133.5 4.5
q-45 0 -134.5 -4.5t-134.5 -4.5h-8q-25 0 -28 19q1 -7 1 42q0 17 61 23q70 6 94 50q22 41 22 133v715h-73q-14 0 -14 14v63q0 13 14 13h73q-2 156 -101 167l-58 7q-11 1 -14.5 4.5t-3.5 56.5q0 18 27 18h8q45 0 134 -4.5t134 -4.5t134.5 4.5t133.5 4.5h12q23 0 25 -19
q-1 11 -1 -42q0 -17 -61 -23q-70 -6 -94 -50q-21 -38 -23 -119h710q-2 156 -101 167l-59 7q-10 1 -13.5 4.5t-3.5 56.5q0 18 24 18h11q45 0 134 -4.5t134 -4.5t134 4.5t134 4.5h9q25 0 28 -19q-1 8 -1 -42q0 -17 -61 -23q-70 -6 -94 -50q-21 -38 -23 -119h86q14 0 14 -13
v-63q0 -14 -14 -14h-86v-715q0 -171 101 -182l59 -6q10 -1 14 -5t4 -57zM1193 973h-710v-223h710v223z" />
    <glyph glyph-name="hbar" unicode="&#x127;" horiz-adv-x="1069" 
d="M999 6q0 -14 -18 -14h-10q-96 8 -174 8q-79 0 -174 -8h-11q-20 0 -20 20q0 5 1 14.5t1 14.5q0 12 39 17q43 7 55 30q10 20 10 88v334q0 133 -139 133q-95 0 -178 -82v-385q0 -68 10 -88q12 -23 55 -30q39 -5 39 -17v-35q0 -14 -20 -14h-8q-96 8 -174 8q-31 0 -91.5 -4
t-91.5 -4q-22 0 -22 22q0 5 1 13.5t1 13.5q0 12 39 17q43 7 55 30q10 20 10 88v803h-96q-12 0 -12 63q0 11 12 11h96q0 52 -12 71q-9 15 -56 34q-40 17 -40 36q0 13 6 23q3 4 137.5 58t145.5 54q16 0 16 -16v-260h225q9 0 12 -14q2 -9 0 -27q-2 -24 -2 -23q0 -10 -10 -10
h-225v-344q145 133 287 133q103 0 164 -55q63 -58 63 -160v-365q0 -80 10 -100q12 -24 56 -30q38 -5 38 -17v-35z" />
    <glyph glyph-name="Itilde" unicode="&#x128;" horiz-adv-x="737" 
d="M667 8q0 -17 -28 -17h-7q-45 0 -134 4.5t-134 4.5t-134 -4.5t-134 -4.5h-8q-26 0 -29 18q1 -6 1 43q0 17 62 23q69 6 94 50q22 41 22 133v790q0 171 -101 182l-59 7q-10 1 -14 4.5t-4 56.5q0 18 25 18h11q44 0 133.5 -4.5t133.5 -4.5q45 0 134.5 4.5t134.5 4.5h11
q23 0 26 -19q-2 11 -2 -42q0 -17 -61 -23q-69 -6 -92.5 -49t-23.5 -135v-790q0 -171 101 -182l59 -6q10 -1 13.5 -5t3.5 -57zM713 1642q0 -88 -82.5 -166.5t-171.5 -78.5q-47 0 -122 63.5t-95 63.5q-73 0 -121.5 -63.5t-58.5 -63.5q-41 0 -41 41q0 88 82.5 166.5t171.5 78.5
q51 0 130 -63.5t87 -63.5q73 0 121.5 63.5t58.5 63.5q41 0 41 -41z" />
    <glyph glyph-name="itilde" unicode="&#x129;" horiz-adv-x="534" 
d="M492 6q0 -14 -15 -14h-14q-95 8 -176 8q-77 0 -172 -8h-9q-22 0 -22 20q0 5 1 14.5t1 14.5q0 12 39 17q44 7 54.5 29t10.5 87v313q0 64 -12 84q-9 15 -56 34q-40 17 -40 36q0 13 6 23q3 4 137.5 58t145.5 54q16 0 16 -16v-572q0 -83 8 -100q12 -23 56 -30q41 -5 41 -17
v-35zM571 1151q0 -80 -70 -162t-149 -82q-39 0 -109 70t-90 70q-58 0 -101 -69t-54 -69q-33 0 -33 33q0 80 70 162t149 82q47 0 118 -69.5t81 -69.5q59 0 101.5 68.5t53.5 68.5q33 0 33 -33z" />
    <glyph glyph-name="Imacron" unicode="&#x12a;" horiz-adv-x="737" 
d="M667 8q0 -17 -28 -17h-7q-45 0 -134 4.5t-134 4.5t-134 -4.5t-134 -4.5h-8q-26 0 -29 18q1 -6 1 43q0 17 62 23q69 6 94 50q22 41 22 133v790q0 171 -101 182l-59 7q-10 1 -14 4.5t-4 56.5q0 18 25 18h11q44 0 133.5 -4.5t133.5 -4.5q45 0 134.5 4.5t134.5 4.5h11
q23 0 26 -19q-2 11 -2 -42q0 -17 -61 -23q-69 -6 -92.5 -49t-23.5 -135v-790q0 -171 101 -182l59 -6q10 -1 13.5 -5t3.5 -57zM711 1536h-684v147h684v-147z" />
    <glyph glyph-name="imacron" unicode="&#x12b;" horiz-adv-x="534" 
d="M492 6q0 -14 -15 -14h-14q-95 8 -176 8q-77 0 -172 -8h-9q-22 0 -22 20q0 5 1 14.5t1 14.5q0 12 39 17q44 7 54.5 29t10.5 87v313q0 64 -12 84q-9 15 -56 34q-40 17 -40 36q0 13 6 23q3 4 137.5 58t145.5 54q16 0 16 -16v-572q0 -83 8 -100q12 -23 56 -30q41 -5 41 -17
v-35zM546 987h-565v148h565v-148z" />
    <glyph glyph-name="Ibreve" unicode="&#x12c;" horiz-adv-x="737" 
d="M667 8q0 -17 -28 -17h-7q-45 0 -134 4.5t-134 4.5t-134 -4.5t-134 -4.5h-8q-26 0 -29 18q1 -6 1 43q0 17 62 23q69 6 94 50q22 41 22 133v790q0 171 -101 182l-59 7q-10 1 -14 4.5t-4 56.5q0 18 25 18h11q44 0 133.5 -4.5t133.5 -4.5q45 0 134.5 4.5t134.5 4.5h11
q23 0 26 -19q-2 11 -2 -42q0 -17 -61 -23q-69 -6 -92.5 -49t-23.5 -135v-790q0 -171 101 -182l59 -6q10 -1 13.5 -5t3.5 -57zM709 1683q-16 -133 -111.5 -221t-230.5 -88t-231 88t-111 221h51q66 -139 291 -139t291 139h51z" />
    <glyph glyph-name="ibreve" unicode="&#x12d;" horiz-adv-x="534" 
d="M492 6q0 -14 -15 -14h-14q-95 8 -176 8q-77 0 -172 -8h-9q-22 0 -22 20q0 5 1 14.5t1 14.5q0 12 39 17q44 7 54.5 29t10.5 87v313q0 64 -12 84q-9 15 -56 34q-40 17 -40 36q0 13 6 23q3 4 137.5 58t145.5 54q16 0 16 -16v-572q0 -83 8 -100q12 -23 56 -30q41 -5 41 -17
v-35zM546 1280q-29 -354 -282 -354q-254 0 -283 354h47q32 -93 88 -131q53 -37 148 -37t149.5 37.5t85.5 130.5h47z" />
    <glyph glyph-name="Iogonek" unicode="&#x12e;" horiz-adv-x="737" 
d="M667 8q0 -17 -28 -17h-7q-45 0 -134 4.5t-134 4.5t-134 -4.5t-134 -4.5h-8q-26 0 -29 18q1 -6 1 43q0 17 62 23q69 6 94 50q22 41 22 133v790q0 171 -101 182l-59 7q-10 1 -14 4.5t-4 56.5q0 18 25 18h11q44 0 133.5 -4.5t133.5 -4.5q45 0 134.5 4.5t134.5 4.5h11
q23 0 26 -19q-2 11 -2 -42q0 -17 -61 -23q-69 -6 -92.5 -49t-23.5 -135v-790q0 -171 101 -182l59 -6q10 -1 13.5 -5t3.5 -57zM725 -231q0 -10 -8 -17q-116 -98 -240 -98q-65 0 -110 38q-48 40 -48 105q0 85 123 203h74q-70 -87 -70 -139q0 -49 32 -82t81 -33q45 0 131 45
q4 2 10 4q25 0 25 -26z" />
    <glyph glyph-name="iogonek" unicode="&#x12f;" horiz-adv-x="534" 
d="M410 1079q0 -53 -37.5 -90t-89.5 -37q-53 0 -90 37t-37 90t37 90t90 37q52 0 89.5 -37t37.5 -90zM492 6q0 -14 -15 -14h-14q-95 8 -176 8q-77 0 -172 -8h-9q-22 0 -22 20q0 5 1 14.5t1 14.5q0 12 39 17q44 7 54.5 29t10.5 87v313q0 64 -12 84q-9 15 -56 34q-40 17 -40 36
q0 13 6 23q3 4 137.5 58t145.5 54q16 0 16 -16v-572q0 -83 8 -100q12 -23 56 -30q41 -5 41 -17v-35z" />
    <glyph glyph-name="Idotaccent" unicode="&#x130;" horiz-adv-x="737" 
d="M667 8q0 -17 -28 -17h-7q-45 0 -134 4.5t-134 4.5t-134 -4.5t-134 -4.5h-8q-26 0 -29 18q1 -6 1 43q0 17 62 23q69 6 94 50q22 41 22 133v790q0 171 -101 182l-59 7q-10 1 -14 4.5t-4 56.5q0 18 25 18h11q44 0 133.5 -4.5t133.5 -4.5q45 0 134.5 4.5t134.5 4.5h11
q23 0 26 -19q-2 11 -2 -42q0 -17 -61 -23q-69 -6 -92.5 -49t-23.5 -135v-790q0 -171 101 -182l59 -6q10 -1 13.5 -5t3.5 -57zM482 1569q0 -48 -34 -81.5t-81 -33.5q-48 0 -81.5 33.5t-33.5 81.5q0 47 33.5 80.5t81.5 33.5q47 0 81 -33.5t34 -80.5z" />
    <glyph glyph-name="dotlessi" unicode="&#x131;" horiz-adv-x="534" 
d="M492 6q0 -14 -15 -14h-14q-95 8 -176 8q-77 0 -172 -8h-9q-22 0 -22 20q0 5 1 14.5t1 14.5q0 12 39 17q44 7 54.5 29t10.5 87v313q0 64 -12 84q-9 15 -56 34q-40 17 -40 36q0 13 6 23q3 4 137.5 58t145.5 54q16 0 16 -16v-572q0 -83 8 -100q12 -23 56 -30q41 -5 41 -17
v-35z" />
    <glyph glyph-name="Jcircumflex" unicode="&#x134;" horiz-adv-x="702" 
d="M654 1255q0 -17 -61 -23q-69 -6 -92.5 -49t-23.5 -141v-917q0 -236 -91 -392q-112 -190 -330 -190q-71 0 -124 42q-57 45 -57 115q0 45 35 73q32 27 78 27q59 0 104 -76t65 -76q68 0 68 122v1272q0 82 -14 120q-22 61 -87 68l-59 7q-10 1 -14 4.5t-4 56.5q0 18 27 18h9
q44 0 133.5 -4.5t133.5 -4.5q45 0 134.5 4.5t134.5 4.5h11q23 0 26 -19q-2 11 -2 -42zM680 1386q0 -16 -16 -32.5t-32 -16.5q-10 0 -20 6l-260 154l-260 -154q-11 -6 -21 -6q-16 0 -31.5 16.5t-15.5 32.5q0 12 10 23l215 223q50 51 103 51t102 -51l215 -223q11 -11 11 -23z
" />
    <glyph glyph-name="jcircumflex" unicode="&#x135;" horiz-adv-x="501" 
d="M379 -74q0 -123 -92 -221q-84 -91 -209 -123h-4q-6 0 -15.5 22t-9.5 29q0 3 6 7q45 23 66 43q61 57 61 133v671q0 64 -12 84q-9 15 -56 34q-40 17 -40 36q0 13 6 23q3 4 137.5 58t144.5 54q17 0 17 -16v-834zM512 868q0 -10 -15 -22t-26 -12q-10 0 -18 10l-203 266
l-203 -266q-7 -10 -18 -10t-26 12t-15 22q0 2 4 11l176 389q22 49 82 49t82 -49l176 -389q4 -9 4 -11z" />
    <glyph glyph-name="Kcedilla" unicode="&#x136;" horiz-adv-x="1404" 
d="M1418 8q0 -17 -28 -17h-7q-47 0 -139.5 4.5t-139.5 4.5t-140.5 -4.5t-140.5 -4.5h-8q-25 0 -28 19q1 -7 1 42q0 10 5 14q40 3 80 5q71 6 71 42q0 25 -30 74l-323 511l-103 -92v-348q0 -171 101 -182l59 -6q10 -1 13.5 -5t3.5 -57q0 -17 -27 -17h-8q-45 0 -134 4.5
t-134 4.5q-44 0 -133.5 -4.5t-134.5 -4.5h-8q-25 0 -29 18q2 -6 2 43q0 17 61 23q69 6 94 50q22 41 22 133v790q0 171 -101 182l-59 7q-10 1 -13.5 4.5t-3.5 56.5q0 18 24 18h11q44 0 133.5 -4.5t134.5 -4.5q44 0 133.5 4.5t134.5 4.5h8q26 0 29 -19q-2 8 -2 -42
q0 -17 -61 -23q-69 -6 -92.5 -49t-23.5 -135v-331q187 170 355 344q94 98 94 137q0 33 -66 37q-39 3 -77 6q-5 3 -5 57q0 18 24 18h11q35 0 105.5 -4.5t105.5 -4.5q36 0 106.5 4.5t105.5 4.5h9q25 0 28 -19q-2 10 -2 -42q0 -12 -4 -15t-18 -3q-91 0 -134 -24
q-47 -27 -110 -93q-154 -161 -242 -247l404 -647q53 -84 89 -114q29 -25 90 -36q29 -6 58 -11q3 -3 3 -57zM848 -356q0 -186 -232 -283q-5 -2 -12 -2q-8 0 -22.5 24t-14.5 33q0 11 14 19q150 77 150 133q0 38 -78 70.5t-78 105.5q0 44 36 70q32 24 75 24q74 0 120 -63
q42 -57 42 -131z" />
    <glyph glyph-name="kcedilla" unicode="&#x137;" horiz-adv-x="1002" 
d="M971 31q0 -39 -15 -39q-29 0 -89.5 4t-90.5 4q-29 0 -87 -4t-87 -4q-18 0 -18 22q0 5 1 14t1 13q0 12 27.5 17t27.5 24q0 14 -25 55l-155 260l-90 -67v-154q0 -67 10.5 -88.5t54.5 -28.5q39 -6 39 -18v-35q0 -14 -29 -14t-86.5 4t-87.5 4q-29 0 -87 -4t-87 -4
q-28 0 -28 20v29q0 12 39 17q43 7 54 29t11 87v866q0 64 -12 84q-9 15 -56 34q-40 17 -40 36q0 13 6 23q2 4 136.5 58t145.5 54q17 0 17 -16v-907q274 206 274 253q0 33 -86 33q-22 0 -22 25q0 37 20 37q28 0 83 -4.5t83 -4.5q27 0 81.5 4.5t82.5 4.5q20 0 20 -23
q0 -4 -1 -13t-1 -13q0 -9 -18 -13q-30 -4 -88 -20q-24 -11 -98 -76q-50 -44 -101 -88l203 -320q75 -118 125 -129q15 -2 29 -6t14 -22zM664 -356q0 -186 -232 -283q-5 -2 -12 -2q-8 0 -22.5 24t-14.5 33q0 11 14 19q150 77 150 133q0 38 -78 70.5t-78 105.5q0 44 36 70
q32 24 75 24q74 0 120 -63q42 -57 42 -131z" />
    <glyph glyph-name="kgreenlandic" unicode="&#x138;" horiz-adv-x="1002" 
d="M971 31q0 -39 -15 -39q-29 0 -89.5 4t-90.5 4q-29 0 -87 -4t-87 -4q-18 0 -18 22q0 5 1 14t1 13q0 12 27.5 17t27.5 24q0 14 -25 55l-155 260l-90 -67v-154q0 -67 10.5 -88.5t54.5 -28.5q39 -6 39 -18v-35q0 -14 -29 -14t-85.5 4t-86.5 4q-29 0 -88 -4t-88 -4
q-28 0 -28 20v29q0 12 39 17q43 7 54 29t11 87v367q0 79 -10 100q-15 30 -57 35q-37 4 -37 16v35q0 13 30 16l252 25q19 0 19 -16v-346q274 206 274 253q0 33 -86 33q-22 0 -22 25q0 37 20 37q28 0 83 -4.5t83 -4.5q27 0 81.5 4.5t82.5 4.5q20 0 20 -23q0 -4 -1 -13t-1 -13
q0 -9 -18 -13q-30 -4 -88 -20q-24 -11 -98 -76q-50 -44 -101 -88l203 -320q75 -118 125 -129q15 -2 29 -6t14 -22z" />
    <glyph glyph-name="Lacute" unicode="&#x139;" horiz-adv-x="1158" 
d="M1150 278q0 -4 -31 -132l-32 -128q-6 -26 -39 -25l-410 7h-191q-355 -9 -362 -9q-26 0 -29 18q1 -6 1 43q0 17 61 23q70 6 94 50q22 41 22 133v790q0 171 -101 182l-59 7q-10 1 -13.5 4.5t-3.5 56.5q0 18 27 18h8q45 0 134 -4.5t134 -4.5q44 0 133.5 4.5t134.5 4.5h11
q24 0 26 -19q-1 11 -1 -42q0 -17 -61 -23q-70 -6 -93.5 -49t-23.5 -135v-791q0 -170 176 -170h38q145 0 224 31q95 37 125 106q35 79 45 79q56 0 56 -25zM607 1610q0 -63 -97 -119l-268 -156q-7 -4 -14 -4q-12 0 -23.5 15.5t-11.5 27.5q1 2 2 6l4 9l217 227q65 67 113 67
q30 0 54 -21.5t24 -51.5z" />
    <glyph glyph-name="lacute" unicode="&#x13a;" horiz-adv-x="534" 
d="M479 6q0 -14 -12 -14h-16q-96 8 -175 8q-78 0 -174 -8h-10q-20 0 -20 20q0 5 1 14.5t1 14.5q0 12 39 18q44 6 54.5 28t10.5 83v870q0 64 -12 84q-9 15 -56 34q-40 17 -40 36q0 13 6 23q3 4 137 58t145 54q17 0 17 -16v-1125q0 -79 10.5 -101t54.5 -28q39 -6 39 -18v-35z
M484 1610q0 -63 -97 -119l-268 -156q-7 -4 -14 -4q-12 0 -23.5 15.5t-11.5 27.5q1 2 2 6l4 9l217 227q65 67 113 67q30 0 54 -21.5t24 -51.5z" />
    <glyph glyph-name="Lcedilla" unicode="&#x13b;" horiz-adv-x="1158" 
d="M1150 278q0 -4 -31 -132l-32 -128q-6 -26 -39 -25l-410 7h-191q-355 -9 -362 -9q-26 0 -29 18q1 -6 1 43q0 17 61 23q70 6 94 50q22 41 22 133v790q0 171 -101 182l-59 7q-10 1 -13.5 4.5t-3.5 56.5q0 18 27 18h8q45 0 134 -4.5t134 -4.5q44 0 133.5 4.5t134.5 4.5h11
q24 0 26 -19q-1 11 -1 -42q0 -17 -61 -23q-70 -6 -93.5 -49t-23.5 -135v-791q0 -170 176 -170h38q145 0 224 31q95 37 125 106q35 79 45 79q56 0 56 -25zM746 -356q0 -186 -232 -283q-5 -2 -12 -2q-8 0 -22.5 24t-14.5 33q0 11 14 19q150 77 150 133q0 38 -78 70.5
t-78 105.5q0 44 36 70q32 24 75 24q74 0 120 -63q42 -57 42 -131z" />
    <glyph glyph-name="lcedilla" unicode="&#x13c;" horiz-adv-x="534" 
d="M479 6q0 -14 -12 -14h-16q-96 8 -175 8q-78 0 -174 -8h-10q-20 0 -20 20q0 5 1 14.5t1 14.5q0 12 39 18q44 6 54.5 28t10.5 83v870q0 64 -12 84q-9 15 -56 34q-40 17 -40 36q0 13 6 23q3 4 137 58t145 54q17 0 17 -16v-1125q0 -79 10.5 -101t54.5 -28q39 -6 39 -18v-35z
M418 -356q0 -186 -232 -283q-5 -2 -12 -2q-8 0 -22.5 24t-14.5 33q0 11 14 19q150 77 150 133q0 38 -78 70.5t-78 105.5q0 44 36 70q32 24 75 24q74 0 120 -63q42 -57 42 -131z" />
    <glyph glyph-name="Lcaron" unicode="&#x13d;" horiz-adv-x="1158" 
d="M1150 278q0 -4 -31 -132l-32 -128q-6 -26 -39 -25l-410 7h-191q-355 -9 -362 -9q-26 0 -29 18q1 -6 1 43q0 17 61 23q70 6 94 50q22 41 22 133v790q0 171 -101 182l-59 7q-10 1 -13.5 4.5t-3.5 56.5q0 18 27 18h8q45 0 134 -4.5t134 -4.5q44 0 133.5 4.5t134.5 4.5h11
q24 0 26 -19q-1 11 -1 -42q0 -17 -61 -23q-70 -6 -93.5 -49t-23.5 -135v-791q0 -170 176 -170h38q145 0 224 31q95 37 125 106q35 79 45 79q56 0 56 -25zM1163 1118q0 -185 -231 -282q-5 -2 -13 -2q-7 0 -21.5 24t-14.5 33q0 11 14 18q149 78 149 133q0 39 -77.5 71.5
t-77.5 105.5q0 43 36 70q32 24 74 24q75 0 121 -64q41 -56 41 -131z" />
    <glyph glyph-name="lcaron" unicode="&#x13e;" horiz-adv-x="815" 
d="M479 6q0 -14 -12 -14h-16q-96 8 -175 8q-78 0 -174 -8h-10q-20 0 -20 20q0 5 1 14.5t1 14.5q0 12 39 18q44 6 54.5 28t10.5 83v870q0 64 -12 84q-9 15 -56 34q-40 17 -40 36q0 13 6 23q3 4 137 58t145 54q17 0 17 -16v-1125q0 -79 10.5 -101t54.5 -28q39 -6 39 -18v-35z
M815 1118q0 -185 -231 -282q-5 -2 -13 -2q-7 0 -21.5 24t-14.5 33q0 11 14 18q149 78 149 133q0 39 -77.5 71.5t-77.5 105.5q0 43 36 70q32 24 74 24q75 0 121 -64q41 -56 41 -131z" />
    <glyph glyph-name="Ldot" unicode="&#x13f;" horiz-adv-x="1158" 
d="M1150 278q0 -4 -31 -132l-32 -128q-6 -26 -39 -25l-410 7h-191q-355 -9 -362 -9q-26 0 -29 18q1 -6 1 43q0 17 61 23q70 6 94 50q22 41 22 133v790q0 171 -101 182l-59 7q-10 1 -13.5 4.5t-3.5 56.5q0 18 27 18h8q45 0 134 -4.5t134 -4.5q44 0 133.5 4.5t134.5 4.5h11
q24 0 26 -19q-1 11 -1 -42q0 -17 -61 -23q-70 -6 -93.5 -49t-23.5 -135v-791q0 -170 176 -170h38q145 0 224 31q95 37 125 106q35 79 45 79q56 0 56 -25zM1112 756q0 -58 -39.5 -97.5t-97.5 -39.5q-59 0 -98.5 39.5t-39.5 97.5t39.5 97.5t98.5 39.5q58 0 97.5 -39.5
t39.5 -97.5z" />
    <glyph glyph-name="ldot" unicode="&#x140;" horiz-adv-x="795" 
d="M795 631q0 -53 -37.5 -90t-89.5 -37q-53 0 -90 37t-37 90t37 90t90 37q52 0 89.5 -37t37.5 -90zM479 6q0 -14 -12 -14h-16q-96 8 -175 8q-78 0 -174 -8h-10q-20 0 -20 20q0 5 1 14.5t1 14.5q0 12 39 18q44 6 54.5 28t10.5 83v870q0 64 -12 84q-9 15 -56 34q-40 17 -40 36
q0 13 6 23q3 4 137 58t145 54q17 0 17 -16v-1125q0 -79 10.5 -101t54.5 -28q39 -6 39 -18v-35z" />
    <glyph glyph-name="Lslash" unicode="&#x141;" horiz-adv-x="1158" 
d="M1150 278q0 -4 -31 -132l-32 -128q-6 -26 -39 -25l-410 7h-191q-355 -9 -362 -9q-26 0 -29 18q1 -6 1 43q0 17 61 23q70 6 94 50q22 41 22 133v205l-89 -75q-11 -9 -19 1l-41 49q-9 10 2 19l147 123v468q0 171 -101 182l-59 7q-10 1 -13.5 4.5t-3.5 56.5q0 18 27 18h8
q45 0 134 -4.5t134 -4.5q44 0 133.5 4.5t134.5 4.5h11q24 0 26 -19q-1 11 -1 -42q0 -17 -61 -23q-70 -6 -93.5 -49t-23.5 -135v-256l280 234q10 9 19 -1l40 -48q9 -11 -1 -19l-338 -284v-417q0 -170 176 -170h38q145 0 224 31q95 37 125 106q35 79 45 79q56 0 56 -25z" />
    <glyph glyph-name="lslash" unicode="&#x142;" horiz-adv-x="591" 
d="M592 801q0 -9 -4 -13l-205 -165v-435q0 -79 10.5 -101t54.5 -28q39 -6 39 -18v-35q0 -14 -12 -14h-16q-95 8 -174 8t-174 -8h-11q-20 0 -20 20q0 5 1 14.5t1 14.5q0 12 39 18q44 6 54.5 28t10.5 83v293l-59 -49q-2 -2 -8 -2q-16 0 -33.5 21.5t-17.5 37.5q0 7 4 10l114 92
v467q0 64 -12 84q-9 15 -56 34q-40 17 -40 36q0 13 6 23q3 4 137.5 58t145.5 54q16 0 16 -16v-580l149 123q3 2 7 2q16 0 34.5 -20.5t18.5 -36.5z" />
    <glyph glyph-name="Nacute" unicode="&#x143;" horiz-adv-x="1614" 
d="M1581 1255q0 -17 -61 -23q-70 -6 -93.5 -49.5t-23.5 -134.5v-864q0 -66 3 -143q0 -7 1.5 -26.5t1.5 -30.5q0 -31 -72 -31q-13 0 -21 9l-945 1099v-803q0 -171 101 -182l59 -6q10 -1 13.5 -5t3.5 -57q0 -17 -27 -17h-8q-32 0 -97 4.5t-97 4.5q-33 0 -97.5 -4.5t-96.5 -4.5
h-9q-25 0 -28 19q1 -8 1 42q0 17 62 23q69 6 93 50q23 41 23 133v790q0 120 -50 155q-34 23 -165 34q-8 0 -19 5q-5 4 -5 56q0 18 26 18h9q33 0 99 -4.5t99 -4.5q58 0 133 4.5t64 4.5q27 0 120 -108l721 -837v677q0 171 -101 182l-59 7q-9 1 -13 5t-4 56q0 19 24 19
q32 0 101 -5t104 -5t104.5 5t102.5 5q22 0 25 -20q-2 17 -2 -42zM1037 1610q0 -63 -97 -119l-268 -156q-7 -4 -14 -4q-12 0 -23.5 15.5t-11.5 27.5q1 2 2 6l4 9l217 227q65 67 113 67q30 0 54 -21.5t24 -51.5z" />
    <glyph glyph-name="nacute" unicode="&#x144;" horiz-adv-x="1069" 
d="M1004 6q0 -14 -29 -14q-30 0 -89.5 4t-88.5 4q-31 0 -91.5 -4t-91.5 -4q-24 0 -24 22q0 5 1 13.5t1 13.5q0 12 39 17q43 7 54 29t11 89v338q0 129 -135 129q-97 0 -172 -82v-385q0 -67 11 -89t55 -29q39 -5 39 -17v-35q0 -14 -29 -14t-86 4t-86 4q-81 0 -176 -8h-8
q-21 0 -21 20v29q0 12 40 17q45 7 56 30q9 17 9 88v311q0 64 -13 84q-9 15 -56 34q-40 17 -40 36q0 13 6 23q3 4 137.5 58t145.5 54q16 0 16 -16v-133q146 141 283 141q101 0 161 -55.5t60 -155.5v-369q0 -76 12 -99.5t58 -29.5q41 -6 41 -18v-35zM756 1233q0 -47 -37 -94
l-230 -295q-7 -10 -18 -10t-27 12t-16 22l2 11l137 342q37 92 103 92q33 0 59.5 -24t26.5 -56z" />
    <glyph glyph-name="Ncedilla" unicode="&#x145;" horiz-adv-x="1614" 
d="M1581 1255q0 -17 -61 -23q-70 -6 -93.5 -49.5t-23.5 -134.5v-864q0 -66 3 -143q0 -7 1.5 -26.5t1.5 -30.5q0 -31 -72 -31q-13 0 -21 9l-945 1099v-803q0 -171 101 -182l59 -6q10 -1 13.5 -5t3.5 -57q0 -17 -27 -17h-8q-32 0 -97 4.5t-97 4.5q-33 0 -97.5 -4.5t-96.5 -4.5
h-9q-25 0 -28 19q1 -8 1 42q0 17 62 23q69 6 93 50q23 41 23 133v790q0 120 -50 155q-34 23 -165 34q-8 0 -19 5q-5 4 -5 56q0 18 26 18h9q33 0 99 -4.5t99 -4.5q58 0 133 4.5t64 4.5q27 0 120 -108l721 -837v677q0 171 -101 182l-59 7q-9 1 -13 5t-4 56q0 19 24 19
q32 0 101 -5t104 -5t104.5 5t102.5 5q22 0 25 -20q-2 17 -2 -42zM971 -356q0 -186 -232 -283q-5 -2 -12 -2q-8 0 -22.5 24t-14.5 33q0 11 14 19q150 77 150 133q0 38 -78 70.5t-78 105.5q0 44 36 70q32 24 75 24q74 0 120 -63q42 -57 42 -131z" />
    <glyph glyph-name="ncedilla" unicode="&#x146;" horiz-adv-x="1069" 
d="M1004 6q0 -14 -29 -14q-30 0 -89.5 4t-88.5 4q-31 0 -91.5 -4t-91.5 -4q-24 0 -24 22q0 5 1 13.5t1 13.5q0 12 39 17q43 7 54 29t11 89v338q0 129 -135 129q-97 0 -172 -82v-385q0 -67 11 -89t55 -29q39 -5 39 -17v-35q0 -14 -29 -14t-86 4t-86 4q-81 0 -176 -8h-8
q-21 0 -21 20v29q0 12 40 17q45 7 56 30q9 17 9 88v311q0 64 -13 84q-9 15 -56 34q-40 17 -40 36q0 13 6 23q3 4 137.5 58t145.5 54q16 0 16 -16v-133q146 141 283 141q101 0 161 -55.5t60 -155.5v-369q0 -76 12 -99.5t58 -29.5q41 -6 41 -18v-35zM685 -356
q0 -186 -232 -283q-5 -2 -12 -2q-8 0 -22.5 24t-14.5 33q0 11 14 19q150 77 150 133q0 38 -78 70.5t-78 105.5q0 44 36 70q32 24 75 24q74 0 120 -63q42 -57 42 -131z" />
    <glyph glyph-name="Ncaron" unicode="&#x147;" horiz-adv-x="1614" 
d="M1581 1255q0 -17 -61 -23q-70 -6 -93.5 -49.5t-23.5 -134.5v-864q0 -66 3 -143q0 -7 1.5 -26.5t1.5 -30.5q0 -31 -72 -31q-13 0 -21 9l-945 1099v-803q0 -171 101 -182l59 -6q10 -1 13.5 -5t3.5 -57q0 -17 -27 -17h-8q-32 0 -97 4.5t-97 4.5q-33 0 -97.5 -4.5t-96.5 -4.5
h-9q-25 0 -28 19q1 -8 1 42q0 17 62 23q69 6 93 50q23 41 23 133v790q0 120 -50 155q-34 23 -165 34q-8 0 -19 5q-5 4 -5 56q0 18 26 18h9q33 0 99 -4.5t99 -4.5q58 0 133 4.5t64 4.5q27 0 120 -108l721 -837v677q0 171 -101 182l-59 7q-9 1 -13 5t-4 56q0 19 24 19
q32 0 101 -5t104 -5t104.5 5t102.5 5q22 0 25 -20q-2 17 -2 -42zM1247 1634q0 -14 -10 -22l-277 -223q-63 -52 -102 -52t-103 52l-276 223q-10 8 -10 22q0 16 15.5 32.5t31.5 16.5q7 0 20 -6l322 -153l321 153q13 6 21 6q16 0 31.5 -16.5t15.5 -32.5z" />
    <glyph glyph-name="ncaron" unicode="&#x148;" horiz-adv-x="1069" 
d="M1004 6q0 -14 -29 -14q-30 0 -89.5 4t-88.5 4q-31 0 -91.5 -4t-91.5 -4q-24 0 -24 22q0 5 1 13.5t1 13.5q0 12 39 17q43 7 54 29t11 89v338q0 129 -135 129q-97 0 -172 -82v-385q0 -67 11 -89t55 -29q39 -5 39 -17v-35q0 -14 -29 -14t-86 4t-86 4q-81 0 -176 -8h-8
q-21 0 -21 20v29q0 12 40 17q45 7 56 30q9 17 9 88v311q0 64 -13 84q-9 15 -56 34q-40 17 -40 36q0 13 6 23q3 4 137.5 58t145.5 54q16 0 16 -16v-133q146 141 283 141q101 0 161 -55.5t60 -155.5v-369q0 -76 12 -99.5t58 -29.5q41 -6 41 -18v-35zM833 1282q0 -2 -4 -10
l-196 -389q-25 -49 -82 -49t-82 49l-197 389q-4 8 -4 10q0 11 15 23t26 12q10 0 19 -10l223 -254l223 254q9 10 19 10q11 0 25.5 -12t14.5 -23z" />
    <glyph glyph-name="napostrophe" unicode="&#x149;" horiz-adv-x="1230" 
d="M1166 6q0 -14 -29 -14q-30 0 -89.5 4t-88.5 4q-31 0 -91.5 -4t-91.5 -4q-24 0 -24 22q0 5 1 13.5t1 13.5q0 12 39 17q43 7 54 29t11 89v338q0 129 -135 129q-97 0 -172 -82v-385q0 -67 11 -89t55 -29q39 -5 39 -17v-35q0 -14 -29 -14t-86 4t-86 4q-81 0 -176 -8h-8
q-21 0 -21 20v29q0 12 40 17q45 7 56 30q9 17 9 88v311q0 64 -13 84q-9 15 -56 34q-40 17 -40 36q0 13 6 23q3 4 137.5 58t145.5 54q16 0 16 -16v-133q146 141 283 141q101 0 161 -55.5t60 -155.5v-369q0 -76 12 -99.5t58 -29.5q41 -6 41 -18v-35zM280 1118
q0 -185 -231 -282q-5 -2 -13 -2q-7 0 -21.5 24t-14.5 33q0 11 14 18q149 78 149 133q0 39 -77.5 71.5t-77.5 105.5q0 43 36 70q32 24 74 24q75 0 121 -64q41 -56 41 -131z" />
    <glyph glyph-name="Eng" unicode="&#x14a;" horiz-adv-x="1675" 
d="M1628 1288q0 -6 -1 -16.5t-1 -16.5q0 -16 -59 -22q-69 -7 -94 -51q-23 -38 -23 -140v-1040q0 -243 -60 -367q-85 -174 -303 -174q-71 0 -123 42q-57 45 -57 114q0 45 35 73q32 27 78 27q58 0 104 -75.5t66 -75.5q67 0 67 123v342l-886 1030v-811q0 -160 102 -174
q34 -2 72 -10q4 -6 4 -50q0 -26 -35 -26q-32 0 -97 5t-98 5t-100.5 -5t-101.5 -5q-29 0 -29 28q0 6 1 17t1 16q0 17 61 23q69 7 95 51q22 39 22 133v791q0 119 -51 154q-33 23 -164 34q-8 0 -20 4q-4 5 -4 47q0 29 34 29t100 -5t99 -5q75 0 133 4q8 0 32 3q20 3 32 3
q27 0 121 -109l677 -788v631q0 166 -102 180q-33 2 -72 10q-4 6 -4 47q0 29 35 29q40 0 119 -5t119 -5t119.5 5t119.5 5q37 0 37 -29z" />
    <glyph glyph-name="eng" unicode="&#x14b;" horiz-adv-x="1043" 
d="M893 -74q0 -123 -91 -221q-85 -91 -210 -123h-2q-6 0 -16.5 22t-10.5 29q0 3 6 7q45 23 66 43q61 57 61 133v698q0 129 -135 129q-97 0 -172 -82v-385q0 -67 11 -89t55 -29q39 -5 39 -17v-35q0 -14 -29 -14t-86 4t-86 4q-81 0 -176 -8h-8q-21 0 -21 20v29q0 12 40 17
q45 7 56 30q9 17 9 88v311q0 64 -13 84q-9 15 -56 34q-40 17 -40 36q0 13 6 23q3 4 137.5 58t145.5 54q16 0 16 -16v-133q146 141 283 141q101 0 161 -55.5t60 -155.5v-631z" />
    <glyph glyph-name="Omacron" unicode="&#x14c;" horiz-adv-x="1650" 
d="M1563 688q0 -307 -220 -513q-215 -201 -524 -201q-313 0 -528.5 187t-215.5 456q0 308 219 514q215 202 525 202q314 0 529 -187.5t215 -457.5zM1311 559q0 289 -149 486t-365 197t-345 -141q-125 -136 -125 -355q0 -287 150 -484.5t363 -197.5q217 0 346 140
q125 136 125 355zM1139 1536h-684v147h684v-147z" />
    <glyph glyph-name="omacron" unicode="&#x14d;" horiz-adv-x="969" 
d="M889 397q0 -173 -112 -294q-114 -126 -285 -126q-164 0 -280 103q-120 107 -120 268q0 173 112 295q116 125 288 125q163 0 278 -102q119 -107 119 -269zM696 295q0 167 -68 283t-163 116q-178 0 -178 -245q0 -168 67.5 -283t161.5 -115q180 0 180 244zM802 987h-624v148
h624v-148z" />
    <glyph glyph-name="Obreve" unicode="&#x14e;" horiz-adv-x="1650" 
d="M1563 688q0 -307 -220 -513q-215 -201 -524 -201q-313 0 -528.5 187t-215.5 456q0 308 219 514q215 202 525 202q314 0 529 -187.5t215 -457.5zM1311 559q0 289 -149 486t-365 197t-345 -141q-125 -136 -125 -355q0 -287 150 -484.5t363 -197.5q217 0 346 140
q125 136 125 355zM1159 1683q-16 -133 -111.5 -221t-230.5 -88t-231 88t-111 221h51q66 -139 291 -139t291 139h51z" />
    <glyph glyph-name="obreve" unicode="&#x14f;" horiz-adv-x="969" 
d="M889 397q0 -173 -112 -294q-114 -126 -285 -126q-164 0 -280 103q-120 107 -120 268q0 173 112 295q116 125 288 125q163 0 278 -102q119 -107 119 -269zM696 295q0 167 -68 283t-163 116q-178 0 -178 -245q0 -168 67.5 -283t161.5 -115q180 0 180 244zM799 1280
q-13 -146 -100 -246q-93 -108 -230 -108t-230 108q-88 100 -100 246h47q58 -168 283 -168t282 168h48z" />
    <glyph glyph-name="Odblacute" unicode="&#x150;" horiz-adv-x="1650" 
d="M1563 688q0 -307 -220 -513q-215 -201 -524 -201q-313 0 -528.5 187t-215.5 456q0 308 219 514q215 202 525 202q314 0 529 -187.5t215 -457.5zM1311 559q0 289 -149 486t-365 197t-345 -141q-125 -136 -125 -355q0 -287 150 -484.5t363 -197.5q217 0 346 140
q125 136 125 355zM1336 1602q0 -53 -74 -97l-275 -162q-10 -6 -20 -6q-16 0 -31.5 16.5t-15.5 32.5q0 12 10 23l215 223q49 51 103 51q34 0 61 -24t27 -57zM926 1602q0 -53 -74 -97l-274 -162q-11 -6 -21 -6q-16 0 -31.5 16.5t-15.5 32.5q0 12 11 23l215 223q49 51 102 51
q34 0 61 -24t27 -57z" />
    <glyph glyph-name="odblacute" unicode="&#x151;" horiz-adv-x="969" 
d="M889 397q0 -173 -112 -294q-114 -126 -285 -126q-164 0 -280 103q-120 107 -120 268q0 173 112 295q116 125 288 125q163 0 278 -102q119 -107 119 -269zM696 295q0 167 -68 283t-163 116q-178 0 -178 -245q0 -168 67.5 -283t161.5 -115q180 0 180 244zM879 1233
q0 -47 -37 -94l-230 -295q-8 -10 -18 -10q-11 0 -27 12t-16 22l2 11l137 342q37 92 103 92q32 0 59 -24t27 -56zM551 1233q0 -47 -37 -94l-229 -295q-8 -10 -19 -10q-10 0 -26.5 12t-16.5 22l2 11l137 342q37 92 103 92q33 0 59.5 -24t26.5 -56z" />
    <glyph glyph-name="Racute" unicode="&#x154;" horiz-adv-x="1404" 
d="M1426 8q0 -17 -28 -17q-36 0 -99 4q-71 5 -99 6l-129 -2q-26 0 -50 36l-294 464q-58 91 -99 119q-51 35 -148 35v-388q0 -178 108 -189l63 -6q6 -1 16 -5q4 -3 4 -57q0 -17 -28 -17h-7q-46 0 -137.5 4.5t-136.5 4.5q-47 0 -138.5 -4.5t-138.5 -4.5h-7q-26 0 -29 19
q1 -7 1 42q0 17 61 22q70 7 94 51q23 41 23 132v792q0 170 -102 181l-58 7q-11 1 -14.5 4.5t-3.5 56.5q0 18 24 18q47 0 140 -4.5t139 -4.5t137 4t136 4q181 0 312 -65q169 -83 169 -244q0 -231 -299 -291q87 -44 130 -111l239 -378q53 -85 89 -114q31 -26 93 -36t63 -11
q4 -4 4 -57zM843 986q0 103 -64.5 166t-167.5 63q-131 0 -131 -153v-315q45 -4 93 -4q119 0 192 61q78 66 78 182zM832 1610q0 -63 -97 -119l-268 -156q-7 -4 -14 -4q-12 0 -23.5 15.5t-11.5 27.5q1 2 2 6l4 9l217 227q65 67 113 67q30 0 54 -21.5t24 -51.5z" />
    <glyph glyph-name="racute" unicode="&#x155;" horiz-adv-x="776" 
d="M741 672q0 -113 -112 -113q-20 0 -53.5 19.5t-53.5 19.5q-54 0 -131 -102v-320q0 -68 13 -89t70 -28q52 -6 52 -18v-35q0 -14 -28 -14q-31 0 -95.5 4t-95.5 4t-94 -4t-94 -4t-31 20q0 5 1 14.5t1 14.5q0 12 39 17q44 7 55 29t11 89v311q0 64 -13 84q-9 15 -55 34
q-41 17 -41 36q0 13 6 23q3 4 137.5 58t145.5 54q16 0 16 -16v-180q80 94 105 118q75 70 133 70q45 0 78.5 -26t33.5 -70zM572 1233q0 -47 -37 -94l-230 -295q-7 -10 -18 -10t-27 12t-16 22l2 11l137 342q37 92 103 92q33 0 59.5 -24t26.5 -56z" />
    <glyph glyph-name="Rcedilla" unicode="&#x156;" horiz-adv-x="1404" 
d="M1426 8q0 -17 -28 -17q-36 0 -99 4q-71 5 -99 6l-129 -2q-26 0 -50 36l-294 464q-58 91 -99 119q-51 35 -148 35v-388q0 -178 108 -189l63 -6q6 -1 16 -5q4 -3 4 -57q0 -17 -28 -17h-7q-46 0 -137.5 4.5t-136.5 4.5q-47 0 -138.5 -4.5t-138.5 -4.5h-7q-26 0 -29 19
q1 -7 1 42q0 17 61 22q70 7 94 51q23 41 23 132v792q0 170 -102 181l-58 7q-11 1 -14.5 4.5t-3.5 56.5q0 18 24 18q47 0 140 -4.5t139 -4.5t137 4t136 4q181 0 312 -65q169 -83 169 -244q0 -231 -299 -291q87 -44 130 -111l239 -378q53 -85 89 -114q31 -26 93 -36t63 -11
q4 -4 4 -57zM843 986q0 103 -64.5 166t-167.5 63q-131 0 -131 -153v-315q45 -4 93 -4q119 0 192 61q78 66 78 182zM889 -356q0 -186 -232 -283q-5 -2 -12 -2q-8 0 -22.5 24t-14.5 33q0 11 14 19q150 77 150 133q0 38 -78 70.5t-78 105.5q0 44 36 70q32 24 75 24
q74 0 120 -63q42 -57 42 -131z" />
    <glyph glyph-name="rcedilla" unicode="&#x157;" horiz-adv-x="776" 
d="M741 672q0 -113 -112 -113q-20 0 -53.5 19.5t-53.5 19.5q-54 0 -131 -102v-320q0 -68 13 -89t70 -28q52 -6 52 -18v-35q0 -14 -28 -14q-31 0 -95.5 4t-95.5 4t-94 -4t-94 -4t-31 20q0 5 1 14.5t1 14.5q0 12 39 17q44 7 55 29t11 89v311q0 64 -13 84q-9 15 -55 34
q-41 17 -41 36q0 13 6 23q3 4 137.5 58t145.5 54q16 0 16 -16v-180q80 94 105 118q75 70 133 70q45 0 78.5 -26t33.5 -70zM439 -356q0 -186 -232 -283q-5 -2 -12 -2q-8 0 -22.5 24t-14.5 33q0 11 14 19q150 77 150 133q0 38 -78 70.5t-78 105.5q0 44 36 70q32 24 75 24
q74 0 120 -63q42 -57 42 -131z" />
    <glyph glyph-name="Rcaron" unicode="&#x158;" horiz-adv-x="1404" 
d="M1426 8q0 -17 -28 -17q-36 0 -99 4q-71 5 -99 6l-129 -2q-26 0 -50 36l-294 464q-58 91 -99 119q-51 35 -148 35v-388q0 -178 108 -189l63 -6q6 -1 16 -5q4 -3 4 -57q0 -17 -28 -17h-7q-46 0 -137.5 4.5t-136.5 4.5q-47 0 -138.5 -4.5t-138.5 -4.5h-7q-26 0 -29 19
q1 -7 1 42q0 17 61 22q70 7 94 51q23 41 23 132v792q0 170 -102 181l-58 7q-11 1 -14.5 4.5t-3.5 56.5q0 18 24 18q47 0 140 -4.5t139 -4.5t137 4t136 4q181 0 312 -65q169 -83 169 -244q0 -231 -299 -291q87 -44 130 -111l239 -378q53 -85 89 -114q31 -26 93 -36t63 -11
q4 -4 4 -57zM843 986q0 103 -64.5 166t-167.5 63q-131 0 -131 -153v-315q45 -4 93 -4q119 0 192 61q78 66 78 182zM981 1634q0 -14 -10 -22l-277 -223q-63 -52 -102 -52t-103 52l-276 223q-10 8 -10 22q0 16 15.5 32.5t31.5 16.5q7 0 20 -6l322 -153l321 153q13 6 21 6
q16 0 31.5 -16.5t15.5 -32.5z" />
    <glyph glyph-name="rcaron" unicode="&#x159;" horiz-adv-x="776" 
d="M741 672q0 -113 -112 -113q-20 0 -53.5 19.5t-53.5 19.5q-54 0 -131 -102v-320q0 -68 13 -89t70 -28q52 -6 52 -18v-35q0 -14 -28 -14q-31 0 -95.5 4t-95.5 4t-94 -4t-94 -4t-31 20q0 5 1 14.5t1 14.5q0 12 39 17q44 7 55 29t11 89v311q0 64 -13 84q-9 15 -55 34
q-41 17 -41 36q0 13 6 23q3 4 137.5 58t145.5 54q16 0 16 -16v-180q80 94 105 118q75 70 133 70q45 0 78.5 -26t33.5 -70zM690 1282q0 -2 -4 -10l-196 -389q-25 -49 -82 -49t-82 49l-197 389q-4 8 -4 10q0 11 15 23t26 12q10 0 19 -10l223 -254l223 254q9 10 19 10
q11 0 25.5 -12t14.5 -23z" />
    <glyph glyph-name="Sacute" unicode="&#x15a;" horiz-adv-x="1018" 
d="M939 382q0 -203 -154 -312q-135 -96 -347 -96q-165 0 -297 67q-12 6 -17 15q-8 10 -30 248q-3 26 58 26q12 0 17 -14q97 -252 294 -252q282 0 282 224q0 139 -252 236q-186 72 -277 155q-124 113 -124 280q0 171 145 277q131 97 308 97q166 0 278 -61q20 -10 29 -23
t19 -246q1 -17 -55 -26q-14 -3 -19 16q-29 122 -88 179q-74 70 -190 70q-234 0 -234 -190q0 -79 74 -146q68 -62 230 -124q166 -63 246 -142q104 -103 104 -258zM709 1610q0 -63 -97 -119l-268 -156q-7 -4 -14 -4q-12 0 -23.5 15.5t-11.5 27.5q1 2 2 6l4 9l217 227
q65 67 113 67q30 0 54 -21.5t24 -51.5z" />
    <glyph glyph-name="sacute" unicode="&#x15b;" horiz-adv-x="668" 
d="M608 219q0 -107 -86 -177q-80 -65 -190 -65q-139 0 -219 70q-17 14 -17 31q0 9 1 28.5t1 28.5q0 10 -1 30t-1 30q0 22 43 22q18 0 29 -20q40 -74 62 -98q43 -48 102 -48q112 0 112 105q0 41 -25 72t-112 82q-97 57 -133 91q-63 60 -63 134q0 104 83 171q78 62 185 62
q54 0 119 -15q90 -21 90 -57v-127q0 -20 -43 -20q-11 0 -17 12q-17 42 -21 50q-13 24 -34 42q-46 41 -104 41q-97 0 -97 -78q0 -55 164 -151q89 -53 125 -97q47 -59 47 -149zM531 1233q0 -47 -37 -94l-230 -295q-7 -10 -18 -10t-27 12t-16 22l2 11l137 342q37 92 103 92
q33 0 59.5 -24t26.5 -56z" />
    <glyph glyph-name="Scircumflex" unicode="&#x15c;" horiz-adv-x="1018" 
d="M939 382q0 -203 -154 -312q-135 -96 -347 -96q-165 0 -297 67q-12 6 -17 15q-8 10 -30 248q-3 26 58 26q12 0 17 -14q97 -252 294 -252q282 0 282 224q0 139 -252 236q-186 72 -277 155q-124 113 -124 280q0 171 145 277q131 97 308 97q166 0 278 -61q20 -10 29 -23
t19 -246q1 -17 -55 -26q-14 -3 -19 16q-29 122 -88 179q-74 70 -190 70q-234 0 -234 -190q0 -79 74 -146q68 -62 230 -124q166 -63 246 -142q104 -103 104 -258zM899 1386q0 -16 -15.5 -32.5t-31.5 -16.5q-8 0 -21 6l-321 154l-322 -154q-13 -6 -20 -6q-16 0 -31.5 16.5
t-15.5 32.5q0 15 10 23l276 223q64 51 103 51t102 -51l277 -223q10 -8 10 -23z" />
    <glyph glyph-name="scircumflex" unicode="&#x15d;" horiz-adv-x="668" 
d="M608 219q0 -107 -86 -177q-80 -65 -190 -65q-139 0 -219 70q-17 14 -17 31q0 9 1 28.5t1 28.5q0 10 -1 30t-1 30q0 22 43 22q18 0 29 -20q40 -74 62 -98q43 -48 102 -48q112 0 112 105q0 41 -25 72t-112 82q-97 57 -133 91q-63 60 -63 134q0 104 83 171q78 62 185 62
q54 0 119 -15q90 -21 90 -57v-127q0 -20 -43 -20q-11 0 -17 12q-17 42 -21 50q-13 24 -34 42q-46 41 -104 41q-97 0 -97 -78q0 -55 164 -151q89 -53 125 -97q47 -59 47 -149zM628 868q0 -10 -14.5 -22t-25.5 -12q-10 0 -19 10l-223 254l-223 -254q-9 -10 -19 -10
q-11 0 -26 12t-15 22q0 2 4 11l197 389q25 49 82 49t82 -49l196 -389q4 -9 4 -11z" />
    <glyph glyph-name="Scedilla" unicode="&#x15e;" horiz-adv-x="1018" 
d="M939 382q0 -203 -154 -312q-135 -96 -347 -96q-165 0 -297 67q-12 6 -17 15q-8 10 -30 248q-3 26 58 26q12 0 17 -14q97 -252 294 -252q282 0 282 224q0 139 -252 236q-186 72 -277 155q-124 113 -124 280q0 171 145 277q131 97 308 97q166 0 278 -61q20 -10 29 -23
t19 -246q1 -17 -55 -26q-14 -3 -19 16q-29 122 -88 179q-74 70 -190 70q-234 0 -234 -190q0 -79 74 -146q68 -62 230 -124q166 -63 246 -142q104 -103 104 -258zM684 -317q0 -100 -91 -161q-79 -54 -180 -54q-60 0 -116 18q-76 25 -76 72q0 57 63 57q15 0 68 -31
q45 -26 86 -26q104 0 104 86q0 100 -121 100q-8 0 -25 -3t-26 -3q-51 0 -51 47q0 12 221 235l60 -14l-99 -139q75 -15 125 -59q58 -51 58 -125z" />
    <glyph glyph-name="scedilla" unicode="&#x15f;" horiz-adv-x="668" 
d="M608 219q0 -107 -86 -177q-80 -65 -190 -65q-139 0 -219 70q-17 14 -17 31q0 9 1 28.5t1 28.5q0 10 -1 30t-1 30q0 22 43 22q18 0 29 -20q40 -74 62 -98q43 -48 102 -48q112 0 112 105q0 41 -25 72t-112 82q-97 57 -133 91q-63 60 -63 134q0 104 83 171q78 62 185 62
q54 0 119 -15q90 -21 90 -57v-127q0 -20 -43 -20q-11 0 -17 12q-17 42 -21 50q-13 24 -34 42q-46 41 -104 41q-97 0 -97 -78q0 -55 164 -151q89 -53 125 -97q47 -59 47 -149zM491 -240q0 -75 -69 -122q-61 -41 -137 -41q-44 0 -88 14q-58 20 -58 55q0 45 49 45q13 0 52 -22
q34 -21 63 -21q76 0 76 62q0 73 -86 73q-7 0 -20 -2t-19 -2q-41 0 -41 37q0 11 168 180l43 -22l-66 -94q133 -29 133 -140z" />
    <glyph glyph-name="Scaron" unicode="&#x160;" horiz-adv-x="1018" 
d="M939 382q0 -203 -154 -312q-135 -96 -347 -96q-165 0 -297 67q-12 6 -17 15q-8 10 -30 248q-3 26 58 26q12 0 17 -14q97 -252 294 -252q282 0 282 224q0 139 -252 236q-186 72 -277 155q-124 113 -124 280q0 171 145 277q131 97 308 97q166 0 278 -61q20 -10 29 -23
t19 -246q1 -17 -55 -26q-14 -3 -19 16q-29 122 -88 179q-74 70 -190 70q-234 0 -234 -190q0 -79 74 -146q68 -62 230 -124q166 -63 246 -142q104 -103 104 -258zM899 1634q0 -14 -10 -22l-277 -223q-63 -52 -102 -52t-103 52l-276 223q-10 8 -10 22q0 16 15.5 32.5
t31.5 16.5q7 0 20 -6l322 -153l321 153q13 6 21 6q16 0 31.5 -16.5t15.5 -32.5z" />
    <glyph glyph-name="scaron" unicode="&#x161;" horiz-adv-x="668" 
d="M608 219q0 -107 -86 -177q-80 -65 -190 -65q-139 0 -219 70q-17 14 -17 31q0 9 1 28.5t1 28.5q0 10 -1 30t-1 30q0 22 43 22q18 0 29 -20q40 -74 62 -98q43 -48 102 -48q112 0 112 105q0 41 -25 72t-112 82q-97 57 -133 91q-63 60 -63 134q0 104 83 171q78 62 185 62
q54 0 119 -15q90 -21 90 -57v-127q0 -20 -43 -20q-11 0 -17 12q-17 42 -21 50q-13 24 -34 42q-46 41 -104 41q-97 0 -97 -78q0 -55 164 -151q89 -53 125 -97q47 -59 47 -149zM628 1282q0 -2 -4 -10l-196 -389q-25 -49 -82 -49t-82 49l-197 389q-4 8 -4 10q0 11 15 23t26 12
q10 0 19 -10l223 -254l223 254q9 10 19 10q11 0 25.5 -12t14.5 -23z" />
    <glyph glyph-name="Tcedilla" unicode="&#x162;" horiz-adv-x="1264" 
d="M1249 1394q0 17 -33 -164q-13 -74 -24 -160q-2 -18 -19 -17q-18 1 -37 1q-20 4 -22 22l-6 82q-5 54 -165 54h-178v-954q0 -170 113 -182l65 -6q6 -1 16 -5q4 -3 4 -57q0 -17 -27 -17h-9q-48 0 -144 4.5t-144 4.5t-144 -4.5t-145 -4.5h-8q-25 0 -28 19q1 -7 1 42
q0 17 68 23q78 6 105 50q25 40 25 133v954h-179q-161 0 -207 -103q-29 -66 -42 -64q-56 9 -56 23q0 -24 29 161q5 54 20 158q4 19 21 19h4l48 -8q4 -1 27 -43q15 -26 72.5 -37t163.5 -11h487q184 0 253 73q20 21 34 33q61 -6 61 -19zM828 -317q0 -100 -91 -161
q-79 -54 -180 -54q-60 0 -116 18q-76 25 -76 72q0 57 63 57q15 0 68 -31q45 -26 86 -26q104 0 104 86q0 100 -121 100q-8 0 -25 -3t-26 -3q-51 0 -51 47q0 12 221 235l60 -14l-99 -139q75 -15 125 -59q58 -51 58 -125z" />
    <glyph glyph-name="tcedilla" unicode="&#x163;" horiz-adv-x="668" 
d="M631 123q0 -7 -4 -14q-70 -132 -252 -132q-217 0 -217 195v440q0 50 -52.5 57t-52.5 25q0 17 17 33q42 35 123 109l120 120q13 13 27 13t14 -15v-209h244q14 0 14 -36q0 -37 -14 -37h-244v-441q0 -52 35.5 -91.5t87.5 -39.5q43 0 87 23.5t42 23.5q25 0 25 -24zM516 -240
q0 -75 -69 -122q-61 -41 -137 -41q-44 0 -88 14q-58 20 -58 55q0 45 49 45q13 0 52 -22q34 -21 63 -21q76 0 76 62q0 73 -86 73q-7 0 -20 -2t-19 -2q-41 0 -41 37q0 11 168 180l43 -22l-66 -94q133 -29 133 -140z" />
    <glyph glyph-name="Tcaron" unicode="&#x164;" horiz-adv-x="1264" 
d="M1249 1394q0 17 -33 -164q-13 -74 -24 -160q-2 -18 -19 -17q-18 1 -37 1q-20 4 -22 22l-6 82q-5 54 -165 54h-178v-954q0 -170 113 -182l65 -6q6 -1 16 -5q4 -3 4 -57q0 -17 -27 -17h-9q-48 0 -144 4.5t-144 4.5t-144 -4.5t-145 -4.5h-8q-25 0 -28 19q1 -7 1 42
q0 17 68 23q78 6 105 50q25 40 25 133v954h-179q-161 0 -207 -103q-29 -66 -42 -64q-56 9 -56 23q0 -24 29 161q5 54 20 158q4 19 21 19h4l48 -8q4 -1 27 -43q15 -26 72.5 -37t163.5 -11h487q184 0 253 73q20 21 34 33q61 -6 61 -19zM1032 1634q0 -14 -10 -22l-277 -223
q-63 -52 -102 -52t-103 52l-276 223q-10 8 -10 22q0 16 15.5 32.5t31.5 16.5q7 0 20 -6l322 -153l321 153q13 6 21 6q16 0 31.5 -16.5t15.5 -32.5z" />
    <glyph glyph-name="tcaron" unicode="&#x165;" horiz-adv-x="907" 
d="M631 123q0 -7 -4 -14q-70 -132 -252 -132q-217 0 -217 195v440q0 50 -52.5 57t-52.5 25q0 17 17 33q42 35 123 109l120 120q13 13 27 13t14 -15v-209h244q14 0 14 -36q0 -37 -14 -37h-244v-441q0 -52 35.5 -91.5t87.5 -39.5q43 0 87 23.5t42 23.5q25 0 25 -24zM907 1118
q0 -185 -231 -282q-5 -2 -13 -2q-7 0 -21.5 24t-14.5 33q0 11 14 18q149 78 149 133q0 39 -77.5 71.5t-77.5 105.5q0 43 36 70q32 24 74 24q75 0 121 -64q41 -56 41 -131z" />
    <glyph glyph-name="Tbar" unicode="&#x166;" horiz-adv-x="1264" 
d="M1249 1394q0 17 -33 -164q-13 -74 -24 -160q-2 -18 -19 -17q-18 1 -37 1q-20 4 -22 22l-6 82q-5 54 -165 54h-178v-440h280q13 0 13 -14v-63q0 -13 -13 -13h-280v-424q0 -170 113 -182l65 -6q6 -1 16 -5q4 -3 4 -57q0 -17 -27 -17h-9q-48 0 -144 4.5t-144 4.5t-144 -4.5
t-145 -4.5h-8q-25 0 -28 19q1 -7 1 42q0 17 68 23q78 6 105 50q25 40 25 133v424h-258q-13 0 -13 13v63q0 14 13 14h258v440h-179q-161 0 -207 -103q-29 -66 -42 -64q-56 9 -56 23q0 -24 29 161q5 54 20 158q4 19 21 19h4l48 -8q4 -1 27 -43q15 -26 72.5 -37t163.5 -11h487
q184 0 253 73q20 21 34 33q61 -6 61 -19z" />
    <glyph glyph-name="tbar" unicode="&#x167;" horiz-adv-x="668" 
d="M631 123q0 -7 -4 -14q-70 -132 -252 -132q-217 0 -217 195v201h-78q-14 0 -14 35q0 38 14 38h78v166q0 50 -52.5 57t-52.5 25q0 17 17 33q42 35 123 109l120 120q13 13 27 13t14 -15v-209h244q14 0 14 -36q0 -37 -14 -37h-244v-226h158q14 0 14 -38q0 -35 -14 -35h-158
v-142q0 -52 35.5 -91.5t87.5 -39.5q43 0 87 23.5t42 23.5q25 0 25 -24z" />
    <glyph glyph-name="Utilde" unicode="&#x168;" horiz-adv-x="1545" 
d="M1526 1255q0 -18 -61 -23q-69 -6 -93 -49t-24 -141v-552q0 -262 -166 -395q-152 -121 -422 -121q-210 0 -359 84q-184 102 -184 296v688q0 82 -13 120q-22 61 -88 68l-58 7q-11 1 -14.5 4.5t-3.5 56.5q0 18 24 18h11q45 0 134 -4.5t134 -4.5t134.5 4.5t133.5 4.5h12
q23 0 25 -19q-1 11 -1 -42q0 -18 -61 -23q-69 -6 -93 -49t-24 -141v-588q0 -348 388 -348q160 0 270 93q117 99 117 255v588q0 82 -13 120q-22 61 -88 68l-58 7q-11 1 -14.5 4.5t-3.5 56.5q0 19 24 19q32 0 101 -5t104 -5q33 0 97.5 4.5t97.5 4.5h9q25 0 27 -20
q-1 10 -1 -41zM1204 1642q0 -88 -82.5 -166.5t-171.5 -78.5q-47 0 -122 63.5t-95 63.5q-73 0 -121.5 -63.5t-58.5 -63.5q-41 0 -41 41q0 88 82.5 166.5t171.5 78.5q51 0 130 -63.5t87 -63.5q73 0 121.5 63.5t58.5 63.5q41 0 41 -41z" />
    <glyph glyph-name="utilde" unicode="&#x169;" horiz-adv-x="1069" 
d="M993 102q0 -5 -1 -16t-1 -16q0 -8 -37 -17q-146 -36 -241 -78q-23 0 -23 17v127q-145 -142 -293 -142q-102 0 -162 56q-63 58 -63 160v348q0 79 -10 100q-15 30 -57 35q-37 4 -37 16v35q0 13 30 16l252 25q19 0 19 -16v-516q0 -134 141 -134q108 0 180 84v355
q0 79 -10 100q-15 30 -57 35q-37 4 -37 16v35q0 13 30 16l252 25q19 0 19 -16v-582q0 -49 28 -49q12 0 34.5 6t33.5 6q10 0 10 -31zM836 1165q0 -85 -74 -170q-76 -88 -160 -88q-40 0 -117 76t-100 76q-66 0 -113 -75t-57 -75q-31 0 -31 31q0 85 75 171.5t159 86.5
q48 0 126 -75.5t91 -75.5q66 0 113 74.5t57 74.5q31 0 31 -31z" />
    <glyph glyph-name="Umacron" unicode="&#x16a;" horiz-adv-x="1545" 
d="M1526 1255q0 -18 -61 -23q-69 -6 -93 -49t-24 -141v-552q0 -262 -166 -395q-152 -121 -422 -121q-210 0 -359 84q-184 102 -184 296v688q0 82 -13 120q-22 61 -88 68l-58 7q-11 1 -14.5 4.5t-3.5 56.5q0 18 24 18h11q45 0 134 -4.5t134 -4.5t134.5 4.5t133.5 4.5h12
q23 0 25 -19q-1 11 -1 -42q0 -18 -61 -23q-69 -6 -93 -49t-24 -141v-588q0 -348 388 -348q160 0 270 93q117 99 117 255v588q0 82 -13 120q-22 61 -88 68l-58 7q-11 1 -14.5 4.5t-3.5 56.5q0 19 24 19q32 0 101 -5t104 -5q33 0 97.5 4.5t97.5 4.5h9q25 0 27 -20
q-1 10 -1 -41zM1159 1536h-684v147h684v-147z" />
    <glyph glyph-name="umacron" unicode="&#x16b;" horiz-adv-x="1069" 
d="M993 102q0 -5 -1 -16t-1 -16q0 -8 -37 -17q-146 -36 -241 -78q-23 0 -23 17v127q-145 -142 -293 -142q-102 0 -162 56q-63 58 -63 160v348q0 79 -10 100q-15 30 -57 35q-37 4 -37 16v35q0 13 30 16l252 25q19 0 19 -16v-516q0 -134 141 -134q108 0 180 84v355
q0 79 -10 100q-15 30 -57 35q-37 4 -37 16v35q0 13 30 16l252 25q19 0 19 -16v-582q0 -49 28 -49q12 0 34.5 6t33.5 6q10 0 10 -31zM822 987h-624v148h624v-148z" />
    <glyph glyph-name="Ubreve" unicode="&#x16c;" horiz-adv-x="1545" 
d="M1526 1255q0 -18 -61 -23q-69 -6 -93 -49t-24 -141v-552q0 -262 -166 -395q-152 -121 -422 -121q-210 0 -359 84q-184 102 -184 296v688q0 82 -13 120q-22 61 -88 68l-58 7q-11 1 -14.5 4.5t-3.5 56.5q0 18 24 18h11q45 0 134 -4.5t134 -4.5t134.5 4.5t133.5 4.5h12
q23 0 25 -19q-1 11 -1 -42q0 -18 -61 -23q-69 -6 -93 -49t-24 -141v-588q0 -348 388 -348q160 0 270 93q117 99 117 255v588q0 82 -13 120q-22 61 -88 68l-58 7q-11 1 -14.5 4.5t-3.5 56.5q0 19 24 19q32 0 101 -5t104 -5q33 0 97.5 4.5t97.5 4.5h9q25 0 27 -20
q-1 10 -1 -41zM1159 1683q-16 -133 -111.5 -221t-230.5 -88t-231 88t-111 221h51q66 -139 291 -139t291 139h51z" />
    <glyph glyph-name="ubreve" unicode="&#x16d;" horiz-adv-x="1069" 
d="M993 102q0 -5 -1 -16t-1 -16q0 -8 -37 -17q-146 -36 -241 -78q-23 0 -23 17v127q-145 -142 -293 -142q-102 0 -162 56q-63 58 -63 160v348q0 79 -10 100q-15 30 -57 35q-37 4 -37 16v35q0 13 30 16l252 25q19 0 19 -16v-516q0 -134 141 -134q108 0 180 84v355
q0 79 -10 100q-15 30 -57 35q-37 4 -37 16v35q0 13 30 16l252 25q19 0 19 -16v-582q0 -49 28 -49q12 0 34.5 6t33.5 6q10 0 10 -31zM861 1280q-13 -146 -100 -246q-93 -108 -230 -108t-230 108q-88 100 -100 246h47q58 -168 283 -168t282 168h48z" />
    <glyph glyph-name="Uring" unicode="&#x16e;" horiz-adv-x="1545" 
d="M1526 1255q0 -18 -61 -23q-69 -6 -93 -49t-24 -141v-552q0 -262 -166 -395q-152 -121 -422 -121q-210 0 -359 84q-184 102 -184 296v688q0 82 -13 120q-22 61 -88 68l-58 7q-11 1 -14.5 4.5t-3.5 56.5q0 18 24 18h11q45 0 134 -4.5t134 -4.5t134.5 4.5t133.5 4.5h12
q23 0 25 -19q-1 11 -1 -42q0 -18 -61 -23q-69 -6 -93 -49t-24 -141v-588q0 -348 388 -348q160 0 270 93q117 99 117 255v588q0 82 -13 120q-22 61 -88 68l-58 7q-11 1 -14.5 4.5t-3.5 56.5q0 19 24 19q32 0 101 -5t104 -5q33 0 97.5 4.5t97.5 4.5h9q25 0 27 -20
q-1 10 -1 -41zM1024 1495q0 -78 -54 -132t-132 -54t-132 54t-54 132t53.5 133t132.5 55t132.5 -54.5t53.5 -133.5zM930 1495q0 40 -26 66t-66 26q-39 0 -64.5 -26.5t-25.5 -65.5q0 -37 26.5 -63.5t63.5 -26.5q39 0 65.5 26t26.5 64z" />
    <glyph glyph-name="uring" unicode="&#x16f;" horiz-adv-x="1069" 
d="M993 102q0 -5 -1 -16t-1 -16q0 -8 -37 -17q-146 -36 -241 -78q-23 0 -23 17v127q-145 -142 -293 -142q-102 0 -162 56q-63 58 -63 160v348q0 79 -10 100q-15 30 -57 35q-37 4 -37 16v35q0 13 30 16l252 25q19 0 19 -16v-516q0 -134 141 -134q108 0 180 84v355
q0 79 -10 100q-15 30 -57 35q-37 4 -37 16v35q0 13 30 16l252 25q19 0 19 -16v-582q0 -49 28 -49q12 0 34.5 6t33.5 6q10 0 10 -31zM696 1104q0 -79 -54 -132.5t-132 -53.5t-132 54t-54 132t53.5 133t132.5 55t132.5 -54.5t53.5 -133.5zM602 1104q0 40 -26 66t-66 26
q-39 0 -64.5 -26.5t-25.5 -65.5q0 -37 26.5 -63.5t63.5 -26.5q39 0 65.5 25.5t26.5 64.5z" />
    <glyph glyph-name="Udblacute" unicode="&#x170;" horiz-adv-x="1545" 
d="M1526 1255q0 -18 -61 -23q-69 -6 -93 -49t-24 -141v-552q0 -262 -166 -395q-152 -121 -422 -121q-210 0 -359 84q-184 102 -184 296v688q0 82 -13 120q-22 61 -88 68l-58 7q-11 1 -14.5 4.5t-3.5 56.5q0 18 24 18h11q45 0 134 -4.5t134 -4.5t134.5 4.5t133.5 4.5h12
q23 0 25 -19q-1 11 -1 -42q0 -18 -61 -23q-69 -6 -93 -49t-24 -141v-588q0 -348 388 -348q160 0 270 93q117 99 117 255v588q0 82 -13 120q-22 61 -88 68l-58 7q-11 1 -14.5 4.5t-3.5 56.5q0 19 24 19q32 0 101 -5t104 -5q33 0 97.5 4.5t97.5 4.5h9q25 0 27 -20
q-1 10 -1 -41zM1336 1602q0 -53 -74 -97l-275 -162q-10 -6 -20 -6q-16 0 -31.5 16.5t-15.5 32.5q0 12 10 23l215 223q49 51 103 51q34 0 61 -24t27 -57zM926 1602q0 -53 -74 -97l-274 -162q-11 -6 -21 -6q-16 0 -31.5 16.5t-15.5 32.5q0 12 11 23l215 223q49 51 102 51
q34 0 61 -24t27 -57z" />
    <glyph glyph-name="udblacute" unicode="&#x171;" horiz-adv-x="1069" 
d="M993 102q0 -5 -1 -16t-1 -16q0 -8 -37 -17q-146 -36 -241 -78q-23 0 -23 17v127q-145 -142 -293 -142q-102 0 -162 56q-63 58 -63 160v348q0 79 -10 100q-15 30 -57 35q-37 4 -37 16v35q0 13 30 16l252 25q19 0 19 -16v-516q0 -134 141 -134q108 0 180 84v355
q0 79 -10 100q-15 30 -57 35q-37 4 -37 16v35q0 13 30 16l252 25q19 0 19 -16v-582q0 -49 28 -49q12 0 34.5 6t33.5 6q10 0 10 -31zM900 1233q0 -47 -37 -94l-230 -295q-8 -10 -18 -10q-11 0 -27 12t-16 22l2 11l137 342q37 92 103 92q32 0 59 -24t27 -56zM572 1233
q0 -47 -37 -94l-229 -295q-8 -10 -19 -10q-10 0 -26.5 12t-16.5 22l2 11l137 342q37 92 103 92q33 0 59.5 -24t26.5 -56z" />
    <glyph glyph-name="Uogonek" unicode="&#x172;" horiz-adv-x="1545" 
d="M1526 1255q0 -18 -61 -23q-69 -6 -93 -49t-24 -141v-552q0 -262 -166 -395q-152 -121 -422 -121q-210 0 -359 84q-184 102 -184 296v688q0 82 -13 120q-22 61 -88 68l-58 7q-11 1 -14.5 4.5t-3.5 56.5q0 18 24 18h11q45 0 134 -4.5t134 -4.5t134.5 4.5t133.5 4.5h12
q23 0 25 -19q-1 11 -1 -42q0 -18 -61 -23q-69 -6 -93 -49t-24 -141v-588q0 -348 388 -348q160 0 270 93q117 99 117 255v588q0 82 -13 120q-22 61 -88 68l-58 7q-11 1 -14.5 4.5t-3.5 56.5q0 19 24 19q32 0 101 -5t104 -5q33 0 97.5 4.5t97.5 4.5h9q25 0 27 -20
q-1 10 -1 -41zM1190 -231q0 -10 -8 -17q-116 -98 -240 -98q-65 0 -110 38q-48 40 -48 105q0 85 123 203h74q-70 -87 -70 -139q0 -49 32 -82t81 -33q45 0 131 45q4 2 10 4q25 0 25 -26z" />
    <glyph glyph-name="uogonek" unicode="&#x173;" horiz-adv-x="1069" 
d="M993 102q0 -5 -1 -16t-1 -16q0 -8 -37 -17q-146 -36 -241 -78q-23 0 -23 17v127q-145 -142 -293 -142q-102 0 -162 56q-63 58 -63 160v348q0 79 -10 100q-15 30 -57 35q-37 4 -37 16v35q0 13 30 16l252 25q19 0 19 -16v-516q0 -134 141 -134q108 0 180 84v355
q0 79 -10 100q-15 30 -57 35q-37 4 -37 16v35q0 13 30 16l252 25q19 0 19 -16v-582q0 -49 28 -49q12 0 34.5 6t33.5 6q10 0 10 -31zM981 -231q0 -10 -8 -17q-116 -98 -240 -98q-65 0 -110 38q-48 40 -48 105q0 85 123 203h74q-70 -87 -70 -139q0 -49 32 -82t81 -33
q45 0 131 45q4 2 10 4q25 0 25 -26z" />
    <glyph glyph-name="Wcircumflex" unicode="&#x174;" horiz-adv-x="1895" 
d="M1848 1255q0 -15 -12 -18q-38 -9 -49 -15q-15 -9 -35 -39q-33 -48 -71 -141l-217 -528q-104 -252 -157 -389q-14 -34 -40 -104q-4 -15 -14 -43q-3 -8 -30 -8q-24 0 -27 8q-5 14 -14 42q-63 182 -174 446l-156 -344q-23 -51 -43 -102q-5 -15 -16 -42q-4 -8 -29 -8t-29 8
q-5 14 -16 42q-15 38 -44 103q-42 92 -446 958q-32 67 -49 91q-35 50 -80 58l-36 7q-12 2 -12 61q0 19 23 19q33 0 99.5 -5t99.5 -5q34 0 101 5t101 5q19 0 21 -22q-2 20 -2 -40q0 -17 -32 -24t-32 -30q0 -20 20 -62l394 -832l121 264l-207 510q-28 71 -42 92q-31 49 -78 57
l-36 7q-12 2 -12 61q0 19 23 19q34 0 103 -5t104 -5q34 0 103.5 5t103.5 5q22 0 22 -19v-43q0 -18 -48.5 -25t-48.5 -39q0 -20 13 -52l123 -299l138 299q16 37 16 55q0 29 -83 43q-12 2 -12 61q0 19 23 19q22 0 67.5 -5t69.5 -5q23 0 69.5 5t69.5 5q22 0 24 -22
q-2 16 -2 -40q0 -9 -3 -13l-37.5 -9.5t-67.5 -49.5q-39 -50 -81 -141l-145 -312l160 -392l327 801q15 39 15 59q0 25 -56 39q-10 2 -10 61q0 19 21 19q19 0 58.5 -5t59.5 -5t59.5 5t58.5 5q20 0 22 -22q-2 18 -2 -40zM1432 1386q0 -16 -15.5 -32.5t-31.5 -16.5q-8 0 -21 6
l-321 154l-322 -154q-13 -6 -20 -6q-16 0 -31.5 16.5t-15.5 32.5q0 15 10 23l276 223q64 51 103 51t102 -51l277 -223q10 -8 10 -23z" />
    <glyph glyph-name="wcircumflex" unicode="&#x175;" horiz-adv-x="1369" 
d="M1294 727q0 -5 -1 -15.5t-1 -15.5q0 -8 -16 -12q-39 -9 -47 -13q-17 -8 -35 -34q-24 -34 -59 -121l-215 -528q-6 -15 -35 -15q-27 0 -33 15l-172 426l-174 -426q-6 -15 -35 -15q-27 1 -33 15l-235 569q-26 63 -51 94q-23 28 -82 41q-17 4 -17 13v34q0 15 15 15
q43 0 117 -4q85 -4 118 -5h232q55 0 165.5 4.5t165.5 4.5q17 0 17 -23q0 -4 -1 -13t-1 -13q0 -13 -47.5 -19t-47.5 -33q0 -13 7 -28l151 -387l143 362q11 26 11 45q0 26 -39 32.5t-39 18.5v35q0 14 22 14q19 0 57.5 -5t57.5 -5q20 0 56.5 5t50.5 5q30 0 30 -18zM645 502
l-41 102q-27 68 -121 68h-73q-39 0 -39 -31q0 -13 6 -29l155 -391zM997 868q0 -10 -14.5 -22t-25.5 -12q-10 0 -19 10l-223 254l-223 -254q-9 -10 -19 -10q-11 0 -26 12t-15 22q0 2 4 11l197 389q25 49 82 49t82 -49l196 -389q4 -9 4 -11z" />
    <glyph glyph-name="Ycircumflex" unicode="&#x176;" horiz-adv-x="1334" 
d="M1330 1255q0 -10 -2.5 -13t-51.5 -12q-33 -5 -74 -47q-50 -50 -112 -141l-280 -414v-370q0 -171 102 -182l58 -6q6 -1 14 -5q4 -4 4 -57q0 -17 -28 -17h-7q-45 0 -134 4.5t-134 4.5t-134.5 -4.5t-134.5 -4.5h-7q-26 0 -29 18q1 -6 1 43q0 17 61 23q70 6 93.5 49t23.5 134
v347l-311 476q-55 84 -91 115q-26 22 -84 35q-28 5 -55 11q-4 4 -4 56q0 21 23 19l12 -1q121 -9 249 -9q42 0 125 4.5t124 4.5h12q23 0 25 -19q-1 11 -1 -42q0 -19 -52.5 -25t-52.5 -32q0 -19 26 -59l267 -409l272 409q21 33 21 53q0 30 -61 38q-70 9 -73 12.5t-3 55.5
q0 19 25 19q29 0 88 -5t88 -5q30 0 89.5 5t89.5 5q22 0 25 -20q-2 17 -2 -42zM1104 1386q0 -16 -15.5 -32.5t-31.5 -16.5q-8 0 -21 6l-321 154l-322 -154q-13 -6 -20 -6q-16 0 -31.5 16.5t-15.5 32.5q0 15 10 23l276 223q64 51 103 51t102 -51l277 -223q10 -8 10 -23z" />
    <glyph glyph-name="ycircumflex" unicode="&#x177;" horiz-adv-x="935" 
d="M905 731q0 -4 -1 -13t-1 -13q0 -9 -18 -13q-44 -9 -50 -12q-18 -8 -38 -35q-27 -36 -64 -123l-299 -710q-95 -228 -235 -228q-47 0 -85 23q-44 26 -44 69q0 44 28.5 74.5t71.5 30.5q24 0 72.5 -10.5t72.5 -10.5q22 0 60 88l71 166l-258 543q-30 64 -57 96q-21 25 -76 39
q-14 4 -14 47q0 15 14 15q31 0 95 -4.5t96 -4.5t96 4.5t94 4.5q19 0 19 -23q0 -32 -3.5 -36t-35.5 -4q-49 -1 -49 -34q0 -22 20 -67l156 -340l147 358q15 35 15 49q0 24 -36 30t-36 30q0 37 18 37q20 0 58.5 -4.5t58.5 -4.5t59.5 4.5t59.5 4.5q18 0 18 -23zM792 868
q0 -10 -14.5 -22t-25.5 -12q-10 0 -19 10l-223 254l-223 -254q-9 -10 -19 -10q-11 0 -26 12t-15 22q0 2 4 11l197 389q25 49 82 49t82 -49l196 -389q4 -9 4 -11z" />
    <glyph glyph-name="Ydieresis" unicode="&#x178;" horiz-adv-x="1334" 
d="M1330 1255q0 -10 -2.5 -13t-51.5 -12q-33 -5 -74 -47q-50 -50 -112 -141l-280 -414v-370q0 -171 102 -182l58 -6q6 -1 14 -5q4 -4 4 -57q0 -17 -28 -17h-7q-45 0 -134 4.5t-134 4.5t-134.5 -4.5t-134.5 -4.5h-7q-26 0 -29 18q1 -6 1 43q0 17 61 23q70 6 93.5 49t23.5 134
v347l-311 476q-55 84 -91 115q-26 22 -84 35q-28 5 -55 11q-4 4 -4 56q0 21 23 19l12 -1q121 -9 249 -9q42 0 125 4.5t124 4.5h12q23 0 25 -19q-1 11 -1 -42q0 -19 -52.5 -25t-52.5 -32q0 -19 26 -59l267 -409l272 409q21 33 21 53q0 30 -61 38q-70 9 -73 12.5t-3 55.5
q0 19 25 19q29 0 88 -5t88 -5q30 0 89.5 5t89.5 5q22 0 25 -20q-2 17 -2 -42zM1055 1575q0 -45 -32 -77t-77 -32t-76.5 32t-31.5 77t31.5 76.5t76.5 31.5t77 -31.5t32 -76.5zM592 1575q0 -45 -32 -77t-77 -32t-76.5 32t-31.5 77t31.5 76.5t76.5 31.5t77 -31.5t32 -76.5z" />
    <glyph glyph-name="Zacute" unicode="&#x179;" horiz-adv-x="1264" 
d="M1216 274q0 -5 -43 -131l-43 -125q-9 -26 -31 -25l-620 7q-117 1 -414 -8q-16 -1 -16 31q0 33 19 59q105 141 309 429l474 704h-356q-230 0 -302 -131q-41 -76 -53 -76t-32 9q-23 10 -23 22q0 3 43 172l43 165q6 22 21 22h49q11 0 26 -33q17 -36 71 -46q43 -8 169 -10
l242 -2q36 0 417 2q10 0 18.5 -13t8.5 -23q0 -5 -3 -11l-793 -1175h356q152 0 236 32t121.5 107.5t49.5 75.5q56 0 56 -28zM893 1610q0 -63 -97 -119l-268 -156q-7 -4 -14 -4q-12 0 -23.5 15.5t-11.5 27.5q1 2 2 6l4 9l217 227q65 67 113 67q30 0 54 -21.5t24 -51.5z" />
    <glyph glyph-name="zacute" unicode="&#x17a;" horiz-adv-x="869" 
d="M813 182q0 -7 -47 -168q-15 -20 -29 -20q-17 0 -52 3t-52 3h-352q-29 0 -84.5 -6t-83.5 -6q-11 0 -22 14t-11 25q0 9 2 12l424 633h-195q-65 0 -117.5 -52.5t-54.5 -52.5q-14 0 -33 9q-22 10 -22 22q36 91 47 188q1 8 5.5 11.5t19.5 3.5q26 0 32 -10q8 -15 39 -39
q16 -7 117 -7h389q25 0 25 -32q0 -12 -6 -21l-414 -616h244q96 0 133 69q33 62 43 62q55 0 55 -25zM695 1233q0 -47 -37 -94l-230 -295q-7 -10 -18 -10t-27 12t-16 22l2 11l137 342q37 92 103 92q33 0 59.5 -24t26.5 -56z" />
    <glyph glyph-name="Zdot" unicode="&#x17b;" horiz-adv-x="1264" 
d="M1216 274q0 -5 -43 -131l-43 -125q-9 -26 -31 -25l-620 7q-117 1 -414 -8q-16 -1 -16 31q0 33 19 59q105 141 309 429l474 704h-356q-230 0 -302 -131q-41 -76 -53 -76t-32 9q-23 10 -23 22q0 3 43 172l43 165q6 22 21 22h49q11 0 26 -33q17 -36 71 -46q43 -8 169 -10
l242 -2q36 0 417 2q10 0 18.5 -13t8.5 -23q0 -5 -3 -11l-793 -1175h356q152 0 236 32t121.5 107.5t49.5 75.5q56 0 56 -28zM768 1569q0 -48 -34 -81.5t-81 -33.5q-48 0 -81.5 33.5t-33.5 81.5q0 47 33.5 80.5t81.5 33.5q47 0 81 -33.5t34 -80.5z" />
    <glyph glyph-name="zdot" unicode="&#x17c;" horiz-adv-x="869" 
d="M813 182q0 -7 -47 -168q-15 -20 -29 -20q-17 0 -52 3t-52 3h-352q-29 0 -84.5 -6t-83.5 -6q-11 0 -22 14t-11 25q0 9 2 12l424 633h-195q-65 0 -117.5 -52.5t-54.5 -52.5q-14 0 -33 9q-22 10 -22 22q36 91 47 188q1 8 5.5 11.5t19.5 3.5q26 0 32 -10q8 -15 39 -39
q16 -7 117 -7h389q25 0 25 -32q0 -12 -6 -21l-414 -616h244q96 0 133 69q33 62 43 62q55 0 55 -25zM605 1063q0 -48 -34 -81.5t-81 -33.5q-48 0 -81.5 33.5t-33.5 81.5q0 47 33.5 81t81.5 34q47 0 81 -34t34 -81z" />
    <glyph glyph-name="Zcaron" unicode="&#x17d;" horiz-adv-x="1264" 
d="M1216 274q0 -5 -43 -131l-43 -125q-9 -26 -31 -25l-620 7q-117 1 -414 -8q-16 -1 -16 31q0 33 19 59q105 141 309 429l474 704h-356q-230 0 -302 -131q-41 -76 -53 -76t-32 9q-23 10 -23 22q0 3 43 172l43 165q6 22 21 22h49q11 0 26 -33q17 -36 71 -46q43 -8 169 -10
l242 -2q36 0 417 2q10 0 18.5 -13t8.5 -23q0 -5 -3 -11l-793 -1175h356q152 0 236 32t121.5 107.5t49.5 75.5q56 0 56 -28zM1063 1634q0 -14 -10 -22l-277 -223q-63 -52 -102 -52t-103 52l-276 223q-10 8 -10 22q0 16 15.5 32.5t31.5 16.5q7 0 20 -6l322 -153l321 153
q13 6 21 6q16 0 31.5 -16.5t15.5 -32.5z" />
    <glyph glyph-name="zcaron" unicode="&#x17e;" horiz-adv-x="869" 
d="M813 182q0 -7 -47 -168q-15 -20 -29 -20q-17 0 -52 3t-52 3h-352q-29 0 -84.5 -6t-83.5 -6q-11 0 -22 14t-11 25q0 9 2 12l424 633h-195q-65 0 -117.5 -52.5t-54.5 -52.5q-14 0 -33 9q-22 10 -22 22q36 91 47 188q1 8 5.5 11.5t19.5 3.5q26 0 32 -10q8 -15 39 -39
q16 -7 117 -7h389q25 0 25 -32q0 -12 -6 -21l-414 -616h244q96 0 133 69q33 62 43 62q55 0 55 -25zM751 1282q0 -2 -4 -10l-196 -389q-25 -49 -82 -49t-82 49l-197 389q-4 8 -4 10q0 11 15 23t26 12q10 0 19 -10l223 -254l223 254q9 10 19 10q11 0 25.5 -12t14.5 -23z" />
    <glyph glyph-name="longs" unicode="&#x17f;" horiz-adv-x="635" 
d="M686 1241q0 -39 -25.5 -66.5t-64.5 -27.5q-31 0 -74.5 37t-66.5 37q-62 0 -62 -95v-931q0 -79 13 -103q14 -27 69 -34q49 -5 49 -17v-35q0 -14 -28 -14q-32 0 -95 4t-94 4q-32 0 -97 -4t-97 -4q-23 0 -23 20q0 5 1 14.5t1 14.5q0 12 39 18q44 6 55 29q11 20 11 94v692
q0 173 95 307q106 150 271 150q45 0 81 -22q42 -25 42 -68z" />
    <glyph glyph-name="Eturn" unicode="&#x18e;" horiz-adv-x="1193" 
d="M1143 52q0 -49 1 -43q-3 -18 -30 -18q-41 0 -113 4q-82 4 -113 5h-174h104l-708 -7q-11 -1 -20 25l-42 125q-43 126 -43 131q0 28 56 28q11 0 48.5 -75.5t122 -107.5t246.5 -32h60q117 0 146.5 27t29.5 142v382h-224q-101 0 -124 -92q-17 -70 -31 -70q-61 0 -61 18
q0 -10 6.5 60.5t6.5 127.5q0 56 -6.5 127t-6.5 62q0 18 19 18q47 0 52.5 -5t7.5 -13q21 -84 37 -106q28 -37 100 -37h224v346q0 86 -33 117q-31 28 -118 28q-205 0 -263 -29t-70 -102l-13 -75q-3 -17 -17 -17q-57 0 -57 17v276q0 25 20 25l551 -7h164q32 0 121 5q76 4 120 4
q24 0 24 -18q0 -53 -3.5 -56.5t-13.5 -4.5l-59 -7q-101 -11 -101 -182v-790q0 -91 23 -134t93 -49q61 -6 61 -23z" />
    <glyph glyph-name="Schwa" unicode="&#x18f;" horiz-adv-x="1650" 
d="M1563 688q0 -307 -220 -513q-215 -202 -524 -202q-293 0 -510 172q-233 185 -233 471q0 76 104 76h1026q80 0 80 66q0 57 -43 149q-36 80 -80 137q-150 199 -364 199q-142 0 -261.5 -66.5t-187.5 -179.5l-20 -6l-82 62l-2 20q211 260 573 260q315 0 529.5 -187
t214.5 -458zM1309 518q0 54 -24 67q-16 9 -52 9h-793q-84 0 -84 -49q0 -38 15 -80q61 -181 179 -285q131 -117 310 -117q190 0 319.5 132.5t129.5 322.5z" />
    <glyph glyph-name="florin" unicode="&#x192;" horiz-adv-x="937" 
d="M1001 1221q0 -32 -20.5 -55t-52.5 -23q-42 0 -72.5 52t-73.5 52q-103 0 -153 -233l-58 -269h160q17 0 17 -14q0 -59 -33 -59h-160l-135 -621q-107 -489 -395 -489q-80 0 -80 78q0 28 20.5 50.5t48.5 22.5q19 0 45 -19.5t43 -19.5q14 0 27.5 17t77.5 309l147 672h-139
q-16 0 -16 14q0 59 32 59h138l41 185q36 164 142 270q117 117 277 117q172 0 172 -96z" />
    <glyph glyph-name="Ohorn" unicode="&#x1a0;" horiz-adv-x="1650" 
d="M1766 1402q0 -174 -186 -281q-55 -32 -154 -55q137 -162 137 -378q0 -307 -220 -513q-215 -201 -524 -201q-313 0 -528.5 187t-215.5 456q0 308 219 514q215 202 525 202q309 0 521 -181q113 1 166 27q117 56 117 136q0 35 -50 52q-89 30 -92 31q-49 28 -49 90
q0 58 47 96q44 36 102 36q82 0 135 -70q50 -64 50 -148zM1311 559q0 289 -149 486t-365 197t-345 -141q-125 -136 -125 -355q0 -287 150 -484.5t363 -197.5q217 0 346 140q125 136 125 355z" />
    <glyph glyph-name="ohorn" unicode="&#x1a1;" horiz-adv-x="969" 
d="M952 887q0 -152 -166 -238q103 -103 103 -252q0 -173 -112 -294q-114 -126 -285 -126q-164 0 -280 103q-120 107 -120 268q0 173 112 295q116 125 288 125q128 0 231 -68q104 46 104 113q0 31 -42 45q-76 25 -79 27q-42 25 -42 80q0 47 43 77q38 27 88 27q71 0 116 -57
q41 -52 41 -125zM696 295q0 167 -68 283t-163 116q-178 0 -178 -245q0 -168 67.5 -283t161.5 -115q180 0 180 244z" />
    <glyph glyph-name="Uhorn" unicode="&#x1af;" horiz-adv-x="1545" 
d="M1839 1507q0 -128 -105 -206q-96 -71 -229 -71q-60 0 -75 -4q-38 -8 -58 -44q-24 -42 -24 -140v-552q0 -262 -166 -395q-152 -121 -422 -121q-210 0 -359 84q-184 102 -184 296v688q0 82 -13 120q-22 61 -88 68l-58 7q-11 1 -14.5 4.5t-3.5 56.5q0 18 24 18h11
q45 0 134 -4.5t134 -4.5t134.5 4.5t133.5 4.5h12q23 0 25 -19q-1 11 -1 -42q0 -18 -61 -23q-69 -6 -93 -49t-24 -141v-588q0 -348 388 -348q160 0 270 93q117 99 117 255v588q0 82 -13 120q-22 61 -88 68l-58 7q-11 1 -14.5 4.5t-3.5 56.5q0 19 24 19q32 0 101 -5t104 -5
q145 0 200 7q149 19 149 87q0 24 -50.5 73t-50.5 91q0 50 37 84t88 34q74 0 122 -50.5t48 -125.5z" />
    <glyph glyph-name="uhorn" unicode="&#x1b0;" horiz-adv-x="1069" 
d="M1038 963q0 -141 -151 -228v-565q0 -49 28 -49q12 0 34.5 6t33.5 6q10 0 10 -31q0 -5 -1 -16t-1 -16q0 -8 -37 -17q-146 -36 -241 -78q-23 0 -23 17v127q-145 -142 -293 -142q-102 0 -162 56q-63 58 -63 160v348q0 79 -10 100q-15 30 -57 35q-37 4 -37 16v35q0 13 30 16
l252 25q19 0 19 -16v-516q0 -134 141 -134q108 0 180 84v355q0 79 -10 100q-15 30 -57 35q-37 4 -37 16v35q0 12 135 25q61 5 121 41q71 42 71 96q0 30 -42 45q-76 25 -79 27q-42 24 -42 79q0 48 41 78q38 27 88 27q71 0 117 -57q42 -53 42 -125z" />
    <glyph glyph-name="Ezh" unicode="&#x1b7;" horiz-adv-x="1103" 
d="M1037 366q0 -107 -56 -213q-80 -151 -232 -236q-146 -82 -321 -82q-101 0 -210 50q-130 60 -130 149q0 23 64 59q60 34 87 34q23 0 32 -40q42 -186 173 -186q124 0 230 127q101 121 101 248q0 162 -76 267q-86 117 -243 117q-12 0 -36 -4.5t-37 -4.5q-27 0 -28 18
l332 545h-192q-229 0 -301 -130q-42 -76 -54 -76q-13 0 -34 10t-21 21q0 3 86 338q6 21 22 21h47q11 0 26 -32q17 -36 73 -48q41 -8 169 -8h494q26 0 26 -36q0 -7 -307 -498q147 -33 231.5 -145.5t84.5 -264.5z" />
    <glyph glyph-name="eturn" unicode="&#x1dd;" horiz-adv-x="815" 
d="M743 395q0 -170 -107 -291q-112 -127 -280 -127q-293 0 -293 265q0 29 11 35q7 5 37 6l442 14v22q0 132 -75 212.5t-206 80.5q-61 0 -119 -41t-51 -41q-7 0 -20.5 15t-13.5 22q0 6 4 13q112 188 342 188q145 0 240 -116q89 -108 89 -257zM547 221l-207 -6q-86 -3 -86 -49
q0 -24 12 -47q36 -68 117 -68q129 0 164 170z" />
    <glyph glyph-name="Aringacute" unicode="&#x1fa;" horiz-adv-x="1439" 
d="M1395 8q0 -17 -27 -17h-8q-40 0 -120 4.5t-120 4.5t-119.5 -4.5t-119.5 -4.5h-8q-25 0 -28 19q1 -7 1 42q0 18 64.5 25t64.5 45q0 18 -11 45l-124 308h-416l-104 -308q-8 -22 -8 -39q0 -41 66 -50q77 -11 80 -14t3 -56q0 -17 -27 -17q-30 0 -95 4.5t-98 4.5t-97.5 -4.5
t-95.5 -4.5q-25 0 -28 19q1 -8 1 42q0 9 5 13q2 2 66 10q59 7 95 50.5t69 139.5l150 432q49 137 144 414q20 56 40 136q8 8 32 29q-137 48 -137 194q0 87 60 148t147 61q83 0 142 -55t65 -137l123 129q65 67 113 67q30 0 53.5 -21.5t23.5 -51.5q0 -63 -96 -119l-264 -154
q-25 -30 -61 -49l422 -1062q33 -84 58 -113t72.5 -37.5t49.5 -11.5t2 -56zM805 1470q0 49 -32.5 81t-80.5 32q-47 0 -78.5 -33t-31.5 -80q0 -45 32 -77.5t78 -32.5q47 0 80 31.5t33 78.5zM804 565l-189 471l-160 -471h349z" />
    <glyph glyph-name="aringacute" unicode="&#x1fb;" horiz-adv-x="835" 
d="M817 147q-1 -1 -2 -4q-16 -72 -65 -117q-52 -49 -123 -49q-129 0 -129 129q-130 -129 -267 -129q-70 0 -113 66q-38 57 -38 131q0 67 176 145q56 24 242 87v79q0 76 -37 105q-32 24 -111 24q-114 0 -114 -47q0 -4 5 -14.5t5 -20.5q0 -9 -10 -16q-78 -49 -107 -49
q-27 0 -27 61q0 70 109 131l192 109q144 0 205 -31q88 -45 88 -174v-379q0 -53 29 -53q23 0 42.5 17.5t25.5 17.5q24 0 24 -19zM498 174v168q-103 -35 -130 -49q-85 -42 -85 -92q0 -34 18 -70q21 -43 51 -43q65 0 146 86zM797 1233q0 -47 -37 -94l-230 -295q-7 -10 -18 -10
t-27 12t-16 22l2 11l137 342q37 92 103 92q33 0 59.5 -24t26.5 -56zM532 1104q0 -79 -54 -132.5t-132 -53.5t-132 54t-54 132t53.5 133t132.5 55t132.5 -54.5t53.5 -133.5zM438 1104q0 40 -26 66t-66 26q-39 0 -64.5 -26.5t-25.5 -65.5q0 -37 26.5 -63.5t63.5 -26.5
q39 0 65.5 25.5t26.5 64.5z" />
    </font>
</defs>
</svg>
