<?xml version="1.0" standalone="no"?>
<!DOCTYPE svg PUBLIC "-//W3C//DTD SVG 1.1//EN" "http://www.w3.org/Graphics/SVG/1.1/DTD/svg11.dtd" >
<svg>
<metadata>
Created by FontForge 20120731 at Mon Apr 15 11:47:06 2019
 By www-data
(c) 2018 Unicode Fonts for Ancient Scripts; all rights reserved.
</metadata>
<defs>
<font id="AseaBoldItalic" horiz-adv-x="1294" >
  <font-face 
    font-family="Asea"
    font-weight="700"
    font-style="italic"
    font-stretch="normal"
    units-per-em="2048"
    panose-1="2 2 7 3 6 5 5 9 3 4"
    ascent="1638"
    descent="-410"
    x-height="745"
    cap-height="1307"
    bbox="-995 -682 4701 1683"
    underline-thickness="70"
    underline-position="-525"
    slope="-15"
    unicode-range="U+000D-1D245"
  />
<missing-glyph horiz-adv-x="1152" 
d="M1040 0h-928v1494h928v-1494zM912 128v1238h-672v-1238h672zM810 984q0 -177 -232 -269l-25 -157h-71l-21 213q202 34 202 187q0 157 -334 157l25 107h8q448 0 448 -238zM613 352q0 -39 -28.5 -67.5t-67.5 -28.5t-67.5 28.5t-28.5 67.5q0 40 28.5 68.5t67.5 28.5
t67.5 -28.5t28.5 -68.5z" />
    <glyph glyph-name="IJ" unicode="IJ" horiz-adv-x="1458" 
d="M1552 1260q-103 0 -147 -53q-32 -36 -62 -148l-303 -1137q-45 -171 -138 -247q-97 -81 -271 -81q-283 0 -283 201q0 58 38.5 97.5t96.5 39.5q115 0 115 -102q0 -31 -21.5 -76.5t-21.5 -50.5q0 -35 47 -35q87 0 135 180l328 1221q14 53 14 102q0 80 -137 89v47h610v-47z
M823 1260q-103 0 -147 -53q-31 -36 -62 -148l-221 -821q-18 -69 -18 -103q0 -81 139 -90v-45h-608v45q102 0 147 54q32 37 62 149l221 821q14 53 14 102q0 80 -137 89v47h610v-47z" />
    <glyph glyph-name="ij" unicode="ij" horiz-adv-x="1026" 
d="M961 1010q0 -50 -34 -83.5t-83 -33.5q-50 0 -84.5 33.5t-34.5 83.5q0 49 34.5 82.5t84.5 33.5q49 0 83 -33.5t34 -82.5zM436 1010q0 -50 -34.5 -83.5t-84.5 -33.5q-48 0 -82 34t-34 83t33.5 82.5t82.5 33.5q50 0 84.5 -33.5t34.5 -82.5zM899 766l-174 -682
q-48 -187 -114 -283q-96 -141 -253 -141q-69 0 -118 35q-56 40 -56 106q0 101 95 101q37 0 62.5 -24.5t25.5 -61.5q0 -18 -13.5 -43.5t-13.5 -28.5q0 -8 22 -8q60 0 105 174l156 608q22 88 22 100q0 37 -82 37l-4 60q214 26 340 51zM387 205q-130 -228 -268 -228
q-127 0 -127 127q0 32 22 113l84 301q21 74 21 100q0 38 -82 37l-2 60q211 25 340 51l-150 -557q-12 -46 -12 -70q0 -20 16 -20q32 0 111 119z" />
    <glyph glyph-name="OE" unicode="Oe" horiz-adv-x="1917" 
d="M1929 1307l-69 -367h-56v29q0 157 -97 222q-80 54 -245 54q-73 0 -96 -11q-32 -17 -49 -81l-111 -426q26 -2 64 -2q132 0 206 44q80 47 130 165h49l-139 -537h-43q4 35 4 49q0 125 -57 172q-51 41 -179 41h-28q-19 -1 -27 -2l-125 -471q-10 -38 -10 -53q0 -63 120 -63
q217 0 346 69q133 73 240 256h49l-112 -395h-733q-65 0 -194 -8t-194 -8q-512 0 -512 458q0 388 314 672q119 109 247 158t291 49q44 0 131.5 -7t131.5 -7h753zM1032 1128q0 127 -131 127q-99 0 -184 -51q-159 -96 -279 -399q-108 -273 -108 -488q0 -268 256 -268
q101 0 153 50q44 43 72 147l203 760q18 69 18 122z" />
    <glyph glyph-name="oe" unicode="oe" horiz-adv-x="1188" 
d="M1081 602q0 -128 -148 -214q-107 -63 -263 -91q-8 -48 -8 -80q0 -115 104 -115q88 0 174 148l59 -39q-122 -238 -317 -238q-123 0 -197 95q-105 -95 -247 -95q-120 0 -193.5 75.5t-73.5 195.5q0 181 137 345q143 173 320 173q143 0 227 -100q126 100 240 100
q80 0 131 -39q55 -43 55 -121zM928 633q0 59 -43 59q-64 0 -128 -130q-42 -86 -69 -189q97 27 164 93q76 75 76 167zM492 586q0 106 -72 106q-93 0 -171 -229q-67 -193 -67 -313q0 -103 72 -103q88 0 169 229q69 195 69 310z" />
    <glyph glyph-name="ff" unicode="ff" horiz-adv-x="977" 
d="M1130 1016q0 -98 -92 -98q-36 0 -63 25t-27 61q0 15 13.5 39.5t13.5 29.5q0 8 -17 8q-84 0 -157 -333h137l-12 -86h-140q-72 -346 -122 -537q-56 -210 -117 -307q-100 -158 -266 -158q-66 0 -109 38.5t-43 102.5q0 101 92 101q86 0 86 -86q0 -37 -26 -68q0 -14 18 -14
q72 0 170 414q5 22 104 514h-221q-38 -180 -123 -537q-55 -211 -116 -308q-99 -157 -267 -157q-65 0 -108 38.5t-43 102.5q0 101 92 101q86 0 86 -86q0 -24 -27 -70q3 -12 19 -12q71 0 170 413q23 99 104 515h-112l16 86h117q59 203 158 297q114 108 313 108q116 0 184 -41
q65 39 137 39q178 0 178 -135zM664 940q-23 30 -23 70q0 10 5 28.5t5 28.5q0 16 -55 16q-144 0 -229 -335h225q30 112 72 192z" />
    <glyph glyph-name="fi" unicode="fi" horiz-adv-x="981" 
d="M877 1010q0 -49 -35 -83t-84 -34t-83 34t-34 83q0 10 5 28.5t5 28.5q0 16 -55 16q-144 0 -229 -335q33 0 130 -2q84 -1 130 -1q86 0 188 21l-149 -557q-13 -46 -13 -70q0 -20 17 -20q32 0 110 119l47 -33q-129 -228 -268 -228q-127 0 -127 127q0 32 23 113l84 301
q20 74 20 100q0 44 -76 44h-131q-38 -180 -123 -537q-55 -211 -116 -308q-99 -157 -267 -157q-65 0 -108 38.5t-43 102.5q0 101 92 101q86 0 86 -86q0 -23 -27 -70q3 -12 19 -12q71 0 170 413q23 98 104 515h-112l16 86h117q59 203 158 297q114 108 313 108q92 0 157 -27
q89 -37 89 -116z" />
    <glyph glyph-name="fl" unicode="fl" horiz-adv-x="987" 
d="M942 1155l-254 -946q-14 -54 -14 -70q0 -20 16 -20q35 0 113 119l47 -35q-140 -226 -265 -226q-131 0 -131 127q0 39 21 113l190 688q21 74 21 103q0 26 -31.5 50.5t-58.5 24.5q-144 0 -229 -335h137l-12 -86h-140q-38 -180 -123 -537q-55 -210 -116 -307
q-100 -158 -267 -158q-65 0 -108 38.5t-43 102.5q0 101 92 101q86 0 86 -86q0 -24 -27 -70q3 -12 19 -12q71 0 170 413q23 98 104 515h-112l16 86h117q59 203 158 297q114 108 313 108q90 0 154 -26q81 13 157 28z" />
    <glyph glyph-name="ffi" unicode="ffi" horiz-adv-x="1413" 
d="M1309 1010q0 -50 -34 -83.5t-83 -33.5t-83 34t-34 83q0 10 5 28.5t5 28.5q0 16 -57 16q-144 0 -229 -335q33 0 130 -2q84 -1 130 -1q88 0 190 21l-151 -557q-13 -45 -13 -70q0 -20 17 -20q32 0 110 119l50 -33q-130 -228 -269 -228q-127 0 -127 127q0 40 21 113l84 301
q20 74 20 100q0 44 -76 44h-129q-38 -180 -122 -537q-56 -211 -117 -308q-99 -157 -266 -157q-66 0 -110 38.5t-44 102.5q0 43 26 72t68 29q84 0 84 -86q0 -24 -26 -70q2 -12 18 -12q72 0 170 413q23 98 104 515h-219q-38 -180 -123 -537q-55 -211 -116 -308
q-99 -157 -267 -157q-65 0 -108 38.5t-43 102.5q0 101 92 101q86 0 86 -86q0 -24 -27 -70q3 -12 19 -12q71 0 170 413q23 97 104 515h-112l16 86h117q59 203 158 297q114 108 313 108q132 0 198 -51q105 51 236 51q244 0 244 -143zM668 936q-27 32 -27 74q0 10 5 28.5
t5 28.5q0 16 -55 16q-144 0 -229 -335h225q32 109 76 188z" />
    <glyph glyph-name="ffl" unicode="ffl" horiz-adv-x="1421" 
d="M1376 1155l-254 -946q-14 -54 -14 -70q0 -20 16 -20q36 0 113 119l47 -35q-140 -226 -264 -226q-131 0 -131 127q0 39 20 113l191 688q20 74 20 103q0 26 -31.5 50.5t-58.5 24.5q-144 0 -229 -335h135l-12 -86h-138q-38 -180 -122 -537q-56 -211 -117 -308
q-99 -157 -266 -157q-66 0 -110 38.5t-44 102.5q0 43 26 72t68 29q84 0 84 -86q0 -24 -26 -70q2 -12 18 -12q72 0 170 413q23 97 104 515h-219q-38 -180 -123 -537q-55 -211 -116 -308q-99 -157 -267 -157q-65 0 -108 38.5t-43 102.5q0 101 92 101q86 0 86 -86
q0 -24 -27 -70q3 -12 19 -12q71 0 170 413q23 97 104 515h-112l16 86h117q59 203 158 297q114 108 313 108q132 0 198 -51q105 51 236 51q90 0 154 -26q81 13 157 28zM668 936q-27 32 -27 74q0 10 5 28.5t5 28.5q0 16 -55 16q-144 0 -229 -335h225q32 109 76 188z" />
    <glyph glyph-name="ffj" unicode="ffj" horiz-adv-x="1409" 
d="M1282 766l-174 -682q-48 -187 -114 -283q-96 -141 -253 -141q-69 0 -118 35q-56 40 -56 106q0 101 92 101q38 0 64.5 -24.5t26.5 -61.5q0 -18 -14.5 -43.5t-14.5 -28.5q0 -8 22 -8q60 0 105 174l156 608q20 80 20 100q0 44 -76 44h-162q-72 -346 -122 -537
q-56 -210 -117 -307q-100 -158 -266 -158q-66 0 -109 38.5t-43 102.5q0 101 92 101q86 0 86 -86q0 -37 -26 -68v0v0q-1 -14 16 -14q72 0 171 414q11 47 105 514h-221q-38 -180 -123 -537q-55 -211 -116 -308q-99 -157 -267 -157q-65 0 -108 38.5t-43 102.5q0 101 92 101
q86 0 86 -86q0 -24 -27 -70q3 -12 19 -12q71 0 170 413q23 98 104 515h-112l16 86h117q59 203 158 297q114 108 313 108q119 0 184 -39q61 37 135 37q180 0 180 -135q0 -98 -92 -98q-36 0 -63 25t-27 61q0 15 13.5 39.5t13.5 29.5q0 8 -17 8q-83 0 -157 -333q37 0 145 -2
q95 -1 146 -1q88 0 190 21zM664 940q-23 31 -23 70q0 10 5 28.5t5 28.5q0 16 -55 16q-144 0 -229 -335h225q30 112 72 192z" />
    <glyph glyph-name="fj" unicode="fj" horiz-adv-x="975" 
d="M848 766l-174 -682q-48 -187 -114 -283q-96 -141 -253 -141q-69 0 -119 35q-55 40 -55 106q0 101 92 101q38 0 64 -24.5t26 -61.5q0 -18 -14 -43.5t-14 -28.5q0 -8 22 -8q60 0 105 174l155 608q21 80 21 100q0 44 -76 44h-162q-72 -347 -123 -537q-55 -210 -116 -307
q-100 -158 -267 -158q-65 0 -108 38.5t-43 102.5q0 101 92 101q86 0 86 -86q0 -38 -27 -68v0v0q1 -14 19 -14q72 0 170 414q5 22 104 514h-112l16 86h115q107 403 360 403q178 0 178 -135q0 -98 -92 -98q-36 0 -63 25t-27 61q0 15 13.5 39.5t13.5 29.5q0 8 -17 8
q-84 0 -157 -333q37 0 145 -2q95 -1 145 -1q88 0 191 21z" />
    <glyph glyph-name="Nig" unicode="Nig" horiz-adv-x="2729" 
d="M1812 1010q0 -50 -34.5 -83.5t-84.5 -33.5q-48 0 -82 34t-34 83t33.5 82.5t82.5 33.5q50 0 84.5 -33.5t34.5 -82.5zM2664 686l-11 -88h-88q4 -23 4 -47q0 -137 -115 -223q-105 -78 -247 -78q-22 0 -82 4q-33 -20 -33 -43q0 -28 105 -59q142 -41 194 -72q105 -60 105 -160
q0 -131 -135 -201q-108 -57 -252 -57q-118 0 -203 36q-117 48 -117 148q0 110 190 177q-73 47 -73 108q0 79 135 154q-107 71 -107 180q0 129 112 218q104 83 237 83q127 0 231 -80h150zM1763 205q-130 -228 -268 -228q-127 0 -127 127q0 32 22 113l84 301q21 74 21 100
q0 38 -82 37l-2 60q211 25 340 51l-150 -557q-12 -46 -12 -70q0 -20 16 -20q32 0 111 119zM1470 1260q-102 0 -148 -53q-32 -38 -62 -148l-297 -1090h-60l-491 1049l-209 -780q-19 -69 -19 -103q0 -81 140 -90v-45h-418v45q101 0 147 54q33 39 62 149l207 780q20 77 20 119
q0 104 -149 113v47h385l411 -908l182 670q19 68 19 96q0 90 -137 95v47h417v-47zM2358 604q0 88 -59 88q-69 0 -118 -114q-42 -94 -42 -175q0 -84 64 -84q57 0 106 86.5t49 198.5zM2303 -152q0 52 -92 93q-36 16 -141 47q-121 -56 -121 -129q0 -61 61 -95q51 -28 117 -28
q64 0 113 24q63 31 63 88z" />
    <glyph glyph-name="Rig" unicode="Rig" horiz-adv-x="2639" 
d="M1722 1010q0 -50 -34.5 -83.5t-84.5 -33.5q-48 0 -82 34t-34 83t33.5 82.5t82.5 33.5q50 0 84.5 -33.5t34.5 -82.5zM2574 686l-11 -88h-88q4 -23 4 -47q0 -137 -115 -223q-105 -78 -247 -78q-22 0 -82 4q-33 -20 -33 -43q0 -28 105 -59q142 -41 194 -72q105 -60 105 -160
q0 -131 -135 -201q-108 -57 -252 -57q-118 0 -203 36q-117 48 -117 148q0 110 190 177q-73 47 -73 108q0 79 135 154q-107 71 -107 180q0 129 112 218q104 83 237 83q127 0 231 -80h150zM1673 205q-130 -228 -268 -228q-127 0 -127 127q0 32 22 113l84 301q21 74 21 100
q0 38 -82 37l-2 60q211 25 340 51l-150 -557q-12 -46 -12 -70q0 -20 16 -20q32 0 111 119zM1206 1014q0 -141 -121 -235q-98 -76 -254 -109l164 -494q23 -67 59.5 -93.5t108.5 -31.5v-51h-389l-209 645h-61l-109 -407q-18 -70 -18 -103q0 -82 137 -90v-45h-608v45
q102 0 147 54q32 38 62 149l221 821q14 53 14 94q0 89 -135 97v47h520q471 0 471 -293zM2268 604q0 88 -59 88q-69 0 -118 -114q-42 -94 -42 -175q0 -84 64 -84q57 0 106 86.5t49 198.5zM2213 -152q0 52 -92 93q-36 16 -141 47q-121 -56 -121 -129q0 -61 61 -95
q51 -28 117 -28q64 0 113 24q63 31 63 88zM909 1055q0 190 -174 190q-47 0 -66 -22q-12 -14 -26 -66l-121 -444q20 -2 53 -2q156 0 245 93.5t89 250.5z" />
    <glyph glyph-name="gy" unicode="gy" horiz-adv-x="1583" 
d="M1450 649q0 -117 -201 -493q-262 -492 -483 -492q-54 0 -90 27q-41 30 -41 82q0 43 30.5 72.5t73.5 29.5q31 0 80 -29.5t66 -29.5q30 0 84 63q57 68 57 117q0 22 -10 94q-31 216 -40 266q-29 157 -71 256q-16 39 -89 39q-54 0 -103 -23q-60 -29 -60 -77q0 -137 -115 -223
q-105 -78 -247 -78q-22 0 -82 4q-33 -20 -33 -43q0 -28 105 -59q142 -41 194 -72q105 -60 105 -160q0 -131 -135 -201q-108 -57 -252 -57q-118 0 -203 36q-117 48 -117 148q0 110 190 177q-73 47 -73 108q0 79 135 154q-107 71 -107 180q0 129 112 218q104 83 237 83
q89 0 207 -63q19 -10 56 -10q96 0 318 55q75 18 94 18q41 0 96 -244q12 -48 60 -303q123 229 123 299q0 21 -45 61.5t-45 77.5q0 49 31 79t79 30q109 0 109 -117zM442 604q0 88 -59 88q-69 0 -118 -114q-42 -94 -42 -175q0 -84 64 -84q57 0 106 86.5t49 198.5zM387 -152
q0 52 -92 93q-36 16 -141 47q-121 -56 -121 -129q0 -61 61 -95q51 -28 117 -28q64 0 113 24q63 31 63 88z" />
    <glyph glyph-name="gyacute" unicode="g&#xfd;" horiz-adv-x="1583" 
d="M1462 1284q0 -55 -43 -110l-256 -330q-8 -10 -18 -10q-9 0 -26 11.5t-17 22.5q1 7 2 11l155 389q41 102 111 102q35 0 63.5 -25t28.5 -61zM1450 649q0 -117 -201 -493q-262 -492 -483 -492q-54 0 -90 27q-41 30 -41 82q0 43 30.5 72.5t73.5 29.5q31 0 80 -29.5t66 -29.5
q30 0 84 63q57 68 57 117q0 22 -10 94q-31 216 -40 266q-29 157 -71 256q-16 39 -89 39q-54 0 -103 -23q-60 -29 -60 -77q0 -137 -115 -223q-105 -78 -247 -78q-22 0 -82 4q-33 -20 -33 -43q0 -28 105 -59q142 -41 194 -72q105 -60 105 -160q0 -131 -135 -201
q-108 -57 -252 -57q-118 0 -203 36q-117 48 -117 148q0 110 190 177q-73 47 -73 108q0 79 135 154q-107 71 -107 180q0 129 112 218q104 83 237 83q89 0 207 -63q19 -10 56 -10q96 0 318 55q75 18 94 18q41 0 96 -244q12 -48 60 -303q123 229 123 299q0 21 -45 61.5
t-45 77.5q0 49 31 79t79 30q109 0 109 -117zM442 604q0 88 -59 88q-69 0 -118 -114q-42 -94 -42 -175q0 -84 64 -84q57 0 106 86.5t49 198.5zM387 -152q0 52 -92 93q-36 16 -141 47q-121 -56 -121 -129q0 -61 61 -95q51 -28 117 -28q64 0 113 24q63 31 63 88z" />
    <glyph glyph-name="gydieresis" unicode="g&#xff;" horiz-adv-x="1583" 
d="M1530 1063q0 -41 -28.5 -69.5t-70.5 -28.5q-41 0 -69.5 28.5t-28.5 69.5t28.5 69.5t69.5 28.5q42 0 70.5 -28.5t28.5 -69.5zM1067 1063q0 -41 -28.5 -69.5t-69.5 -28.5t-70 28.5t-29 69.5t29 69.5t70 28.5t69.5 -28.5t28.5 -69.5zM1450 649q0 -117 -201 -493
q-262 -492 -483 -492q-54 0 -90 27q-41 30 -41 82q0 43 30.5 72.5t73.5 29.5q31 0 80 -29.5t66 -29.5q30 0 84 63q57 68 57 117q0 22 -10 94q-31 216 -40 266q-29 157 -71 256q-16 39 -89 39q-54 0 -103 -23q-60 -29 -60 -77q0 -137 -115 -223q-105 -78 -247 -78
q-22 0 -82 4q-33 -20 -33 -43q0 -28 105 -59q142 -41 194 -72q105 -60 105 -160q0 -131 -135 -201q-108 -57 -252 -57q-118 0 -203 36q-117 48 -117 148q0 110 190 177q-73 47 -73 108q0 79 135 154q-107 71 -107 180q0 129 112 218q104 83 237 83q89 0 207 -63
q19 -10 56 -10q96 0 318 55q75 18 94 18q41 0 96 -244q12 -48 60 -303q123 229 123 299q0 21 -45 61.5t-45 77.5q0 49 31 79t79 30q109 0 109 -117zM442 604q0 88 -59 88q-69 0 -118 -114q-42 -94 -42 -175q0 -84 64 -84q57 0 106 86.5t49 198.5zM387 -152q0 52 -92 93
q-36 16 -141 47q-121 -56 -121 -129q0 -61 61 -95q51 -28 117 -28q64 0 113 24q63 31 63 88z" />
    <glyph glyph-name="gycircumflex" unicode="g&#x177;" horiz-adv-x="1583" 
d="M1456 868q0 -9 -18 -21.5t-29 -12.5q-9 0 -16 10l-189 254l-258 -254q-10 -10 -20 -10q-11 0 -23 11t-12 21q0 7 4 13l248 364q33 49 90 49q54 0 74 -49l145 -364zM1450 649q0 -117 -201 -493q-262 -492 -483 -492q-54 0 -90 27q-41 30 -41 82q0 43 30.5 72.5t73.5 29.5
q31 0 80 -29.5t66 -29.5q30 0 84 63q57 68 57 117q0 22 -10 94q-31 216 -40 266q-29 157 -71 256q-16 39 -89 39q-54 0 -103 -23q-60 -29 -60 -77q0 -137 -115 -223q-105 -78 -247 -78q-22 0 -82 4q-33 -20 -33 -43q0 -28 105 -59q142 -41 194 -72q105 -60 105 -160
q0 -131 -135 -201q-108 -57 -252 -57q-118 0 -203 36q-117 48 -117 148q0 110 190 177q-73 47 -73 108q0 79 135 154q-107 71 -107 180q0 129 112 218q104 83 237 83q89 0 207 -63q19 -10 56 -10q96 0 318 55q75 18 94 18q41 0 96 -244q12 -48 60 -303q123 229 123 299
q0 21 -45 61.5t-45 77.5q0 49 31 79t79 30q109 0 109 -117zM442 604q0 88 -59 88q-69 0 -118 -114q-42 -94 -42 -175q0 -84 64 -84q57 0 106 86.5t49 198.5zM387 -152q0 52 -92 93q-36 16 -141 47q-121 -56 -121 -129q0 -61 61 -95q51 -28 117 -28q64 0 113 24q63 31 63 88z
" />
    <glyph glyph-name="gydot" unicode="g&#x1e8f;" horiz-adv-x="1583" 
d="M1315 1063q0 -48 -33.5 -81.5t-81.5 -33.5q-47 0 -81 33.5t-34 81.5q0 47 34 81t81 34q48 0 81.5 -34t33.5 -81zM1450 649q0 -117 -201 -493q-262 -492 -483 -492q-54 0 -90 27q-41 30 -41 82q0 43 30.5 72.5t73.5 29.5q31 0 80 -29.5t66 -29.5q30 0 84 63q57 68 57 117
q0 22 -10 94q-31 216 -40 266q-29 157 -71 256q-16 39 -89 39q-54 0 -103 -23q-60 -29 -60 -77q0 -137 -115 -223q-105 -78 -247 -78q-22 0 -82 4q-33 -20 -33 -43q0 -28 105 -59q142 -41 194 -72q105 -60 105 -160q0 -131 -135 -201q-108 -57 -252 -57q-118 0 -203 36
q-117 48 -117 148q0 110 190 177q-73 47 -73 108q0 79 135 154q-107 71 -107 180q0 129 112 218q104 83 237 83q89 0 207 -63q19 -10 56 -10q96 0 318 55q75 18 94 18q41 0 96 -244q12 -48 60 -303q123 229 123 299q0 21 -45 61.5t-45 77.5q0 49 31 79t79 30q109 0 109 -117
zM442 604q0 88 -59 88q-69 0 -118 -114q-42 -94 -42 -175q0 -84 64 -84q57 0 106 86.5t49 198.5zM387 -152q0 52 -92 93q-36 16 -141 47q-121 -56 -121 -129q0 -61 61 -95q51 -28 117 -28q64 0 113 24q63 31 63 88z" />
    <glyph glyph-name="gygrave" unicode="g&#x1ef3;" horiz-adv-x="1583" 
d="M1380 868q0 -11 -17 -22.5t-26 -11.5q-10 0 -18 10l-256 330q-43 55 -43 110q0 36 28.5 61t63.5 25q70 0 111 -102l155 -389q2 -7 2 -11zM1450 649q0 -117 -201 -493q-262 -492 -483 -492q-54 0 -90 27q-41 30 -41 82q0 43 30.5 72.5t73.5 29.5q31 0 80 -29.5t66 -29.5
q30 0 84 63q57 68 57 117q0 22 -10 94q-31 216 -40 266q-29 157 -71 256q-16 39 -89 39q-54 0 -103 -23q-60 -29 -60 -77q0 -137 -115 -223q-105 -78 -247 -78q-22 0 -82 4q-33 -20 -33 -43q0 -28 105 -59q142 -41 194 -72q105 -60 105 -160q0 -131 -135 -201
q-108 -57 -252 -57q-118 0 -203 36q-117 48 -117 148q0 110 190 177q-73 47 -73 108q0 79 135 154q-107 71 -107 180q0 129 112 218q104 83 237 83q89 0 207 -63q19 -10 56 -10q96 0 318 55q75 18 94 18q41 0 96 -244q12 -48 60 -303q123 229 123 299q0 21 -45 61.5
t-45 77.5q0 49 31 79t79 30q109 0 109 -117zM442 604q0 88 -59 88q-69 0 -118 -114q-42 -94 -42 -175q0 -84 64 -84q57 0 106 86.5t49 198.5zM387 -152q0 52 -92 93q-36 16 -141 47q-121 -56 -121 -129q0 -61 61 -95q51 -28 117 -28q64 0 113 24q63 31 63 88z" />
    <glyph glyph-name="gytilde" unicode="g&#x1ef9;" horiz-adv-x="1583" 
d="M1481 1167q0 -82 -60 -167q-65 -93 -143 -93q-41 0 -101.5 76t-72.5 76q-46 0 -81.5 -75t-53.5 -75q-41 0 -41 49q0 82 59 168q65 93 143 93q44 0 108.5 -76t66.5 -76q45 0 80.5 75t54.5 75q41 0 41 -50zM1450 649q0 -117 -201 -493q-262 -492 -483 -492q-54 0 -90 27
q-41 30 -41 82q0 43 30.5 72.5t73.5 29.5q31 0 80 -29.5t66 -29.5q30 0 84 63q57 68 57 117q0 22 -10 94q-31 216 -40 266q-29 157 -71 256q-16 39 -89 39q-54 0 -103 -23q-60 -29 -60 -77q0 -137 -115 -223q-105 -78 -247 -78q-22 0 -82 4q-33 -20 -33 -43q0 -28 105 -59
q142 -41 194 -72q105 -60 105 -160q0 -131 -135 -201q-108 -57 -252 -57q-118 0 -203 36q-117 48 -117 148q0 110 190 177q-73 47 -73 108q0 79 135 154q-107 71 -107 180q0 129 112 218q104 83 237 83q89 0 207 -63q19 -10 56 -10q96 0 318 55q75 18 94 18q41 0 96 -244
q12 -48 60 -303q123 229 123 299q0 21 -45 61.5t-45 77.5q0 49 31 79t79 30q109 0 109 -117zM442 604q0 88 -59 88q-69 0 -118 -114q-42 -94 -42 -175q0 -84 64 -84q57 0 106 86.5t49 198.5zM387 -152q0 52 -92 93q-36 16 -141 47q-121 -56 -121 -129q0 -61 61 -95
q51 -28 117 -28q64 0 113 24q63 31 63 88z" />
    <glyph glyph-name=".notdef" horiz-adv-x="1152" 
d="M1040 0h-928v1494h928v-1494zM912 128v1238h-672v-1238h672zM810 984q0 -177 -232 -269l-25 -157h-71l-21 213q202 34 202 187q0 157 -334 157l25 107h8q448 0 448 -238zM613 352q0 -39 -28.5 -67.5t-67.5 -28.5t-67.5 28.5t-28.5 67.5q0 40 28.5 68.5t67.5 28.5
t67.5 -28.5t28.5 -68.5z" />
    <glyph glyph-name=".null" horiz-adv-x="0" 
 />
    <glyph glyph-name="nonmarkingreturn" unicode="&#xd;" horiz-adv-x="512" 
 />
    <glyph glyph-name="space" unicode=" " horiz-adv-x="512" 
 />
    <glyph glyph-name="exclam" unicode="!" horiz-adv-x="584" 
d="M584 1212q0 -69 -130 -331q-115 -230 -197 -459l-59 20q67 331 88 598q2 34 7 104q22 197 159 197q59 0 95.5 -35.5t36.5 -93.5zM270 102q0 -53 -36.5 -90t-90.5 -37q-52 0 -88.5 37.5t-36.5 89.5q0 53 36.5 89t88.5 36q53 0 90 -36t37 -89z" />
    <glyph glyph-name="quotedbl" unicode="&#x22;" horiz-adv-x="690" 
d="M612 1321q0 -16 -4 -39l-78 -451h-41l-77 451q-4 23 -4 35q0 113 102 113t102 -109zM279 1315q0 -15 -3 -33l-77 -451h-41l-78 451q-2 12 -2 35q0 113 100 113q101 0 101 -115z" />
    <glyph glyph-name="numbersign" unicode="#" horiz-adv-x="1228" 
d="M1194 908l-61 -166h-215l-64 -178h226l-60 -164h-223l-115 -321h-180l115 321h-183l-116 -321h-178l114 321h-223l61 164h222l63 178h-235l61 166h231l115 322h178l-112 -322h182l115 322h178l-115 -322h219zM742 744h-189l-65 -182h190z" />
    <glyph glyph-name="dollar" unicode="$" horiz-adv-x="995" 
d="M999 1169l-79 -262l-43 11q0 240 -164 305l-113 -422q270 -221 270 -410q0 -179 -137 -291q-128 -104 -311 -104q-7 0 -19.5 1t-17.5 1l-55 -201h-90l55 215q-182 44 -297 150l82 287l41 -11q23 -300 194 -356l134 506q-259 175 -259 366q0 172 120 268q111 89 286 89
q29 0 47 -2l33 123h92l-39 -140q148 -32 270 -123zM625 1241q-5 0 -16 1t-17 1q-91 0 -150 -40q-67 -47 -67 -134q0 -131 145 -215zM668 311q0 120 -142 224l-125 -467q4 -1 14 -2h13q107 0 173.5 69t66.5 176z" />
    <glyph glyph-name="percent" unicode="%" horiz-adv-x="1628" 
d="M1540 494q0 -125 -77 -273q-81 -153 -185 -211q-70 -39 -145 -39q-120 0 -190.5 78t-70.5 199q0 172 132 325q137 158 307 158q105 0 167 -66t62 -171zM1245 1341l-760 -1368h-108l670 1207q-113 -50 -218 -50q-48 0 -94 11q0 -250 -119 -415t-292 -165q-115 0 -183 79
q-65 75 -65 191q0 178 131 331q136 159 311 159q108 0 184 -90q78 -27 146 -27q142 0 334 137h63zM1466 494q0 133 -104 133q-31 0 -62 -19q-62 -37 -133 -196q-67 -152 -67 -234q0 -110 100 -110q102 0 190 166q76 146 76 260zM670 1096q0 37 -15 69q-30 7 -84 45
q-17 13 -18 13q-75 0 -168 -194q-86 -177 -86 -265q0 -113 102 -113q105 0 193 175q76 152 76 270z" />
    <glyph glyph-name="ampersand" unicode="&#x26;" horiz-adv-x="1187" 
d="M1102 141q-121 -168 -275 -168q-116 0 -219 101q-137 -101 -297 -101q-131 0 -217 70q-92 74 -92 203q0 238 371 377q-15 63 -15 135q0 144 78 238q82 102 223 102q95 0 153 -46q65 -51 65 -143q0 -159 -281 -274q40 -189 129 -338q109 124 109 180q0 58 -89 60v55h338
v-57q-77 -1 -186 -152q-76 -105 -123 -160q72 -106 164 -106q51 0 117 61zM739 936q0 37 -19 65q-23 31 -58 31q-101 0 -101 -188q0 -60 17 -133q161 67 161 225zM563 141q-105 150 -170 404q-172 -90 -172 -236q0 -85 60 -147t145 -62q61 0 137 41z" />
    <glyph glyph-name="quotesingle" unicode="'" horiz-adv-x="356" 
d="M279 1315q0 -15 -3 -33l-77 -451h-41l-78 451q-4 23 -4 35q0 113 102 113q101 0 101 -115z" />
    <glyph glyph-name="parenleft" unicode="(" horiz-adv-x="771" 
d="M827 1317q-123 -88 -213 -207q-139 -185 -214 -473q-66 -253 -66 -518q0 -279 102 -484l-43 -22q-239 351 -239 725q0 325 175 597q169 262 464 421z" />
    <glyph glyph-name="parenright" unicode=")" horiz-adv-x="771" 
d="M541 633q0 -326 -176 -599q-169 -262 -463 -421l-35 39q255 182 384 537q109 301 109 663q0 277 -102 481l43 23q240 -351 240 -723z" />
    <glyph glyph-name="asterisk" unicode="*" horiz-adv-x="824" 
d="M762 801q0 -38 -27.5 -69.5t-64.5 -31.5q-45 0 -105 88q-49 73 -100 103q2 -47 38 -130t36 -99q0 -84 -93 -84q-94 0 -94 84q0 13 36.5 97.5t39.5 131.5q-29 -16 -104 -110q-63 -79 -107 -79q-35 0 -61.5 31.5t-26.5 67.5q0 35 26.5 60.5t61.5 25.5q115 0 189 37
q-65 34 -154 34q-123 0 -123 91q0 37 27.5 67.5t64.5 30.5q45 0 105 -88q46 -69 100 -101q-2 47 -38 129t-36 99q0 86 92 86q93 0 93 -86q0 -17 -37 -96q-33 -70 -37 -132q40 23 107 114q56 75 102 75q35 0 61.5 -31.5t26.5 -66.5q0 -36 -25.5 -61t-60.5 -25
q-117 0 -191 -37q67 -37 156 -37q123 0 123 -88z" />
    <glyph glyph-name="plus" unicode="+" horiz-adv-x="1348" 
d="M1184 395q0 -22 -25 -22h-407v-410q0 -22 -23 -22h-111q-22 0 -22 22v410h-410q-22 0 -22 22v111q0 22 22 22h410v408q0 25 22 25h111q23 0 23 -25v-408h407q25 0 25 -22v-111z" />
    <glyph glyph-name="comma" unicode="," horiz-adv-x="418" 
d="M258 63q0 -218 -319 -366l-25 49q195 117 195 186q0 28 -56.5 74.5t-56.5 97.5q0 53 32.5 88t84.5 35q68 0 108 -49q37 -45 37 -115z" />
    <glyph glyph-name="hyphen" unicode="-" horiz-adv-x="557" 
d="M496 395q0 -22 -25 -22h-387q-23 0 -23 22v111q0 22 23 22h387q25 0 25 -22v-111z" />
    <glyph glyph-name="period" unicode="." horiz-adv-x="418" 
d="M270 102q0 -53 -36.5 -90t-90.5 -37q-52 0 -88.5 37.5t-36.5 89.5q0 53 36.5 89t88.5 36q53 0 90 -36t37 -89z" />
    <glyph glyph-name="slash" unicode="/" horiz-adv-x="944" 
d="M774 1348l-465 -1727h-139l465 1727h139z" />
    <glyph glyph-name="zero" unicode="0" horiz-adv-x="995" 
d="M940 870q0 -172 -57 -352q-66 -205 -187 -357q-154 -194 -331 -194q-167 0 -247 154q-63 120 -63 303q0 181 56 358q63 203 184 356q153 195 328 195q170 0 252 -155q65 -121 65 -308zM741 1141q0 123 -114 123q-47 0 -92 -58q-66 -82 -179 -509q-110 -413 -110 -543
q0 -123 106 -123q51 0 99 53q66 74 180 508q110 417 110 549z" />
    <glyph glyph-name="one" unicode="1" horiz-adv-x="995" 
d="M834 1325l-297 -1126q-15 -55 -15 -70q0 -86 185 -86v-43h-666l2 41q122 2 175 59q41 43 77 172l211 752q20 73 20 98q0 68 -90 68q-41 0 -121 -4l4 39q257 45 515 100z" />
    <glyph glyph-name="two" unicode="2" horiz-adv-x="995" 
d="M924 995q0 -134 -122.5 -291.5t-527.5 -488.5h293q175 0 252 160h45l-147 -375h-707v47l228 225q434 431 434 662q0 96 -52 156.5t-147 60.5q-136 0 -240 -160l-43 21q152 315 410 315q143 0 233.5 -94t90.5 -238z" />
    <glyph glyph-name="three" unicode="3" horiz-adv-x="995" 
d="M924 1067q0 -106 -71 -186q-65 -73 -171 -107q166 -79 166 -280q0 -219 -176 -374q-170 -149 -391 -149q-94 0 -164 34q-90 43 -90 126q0 48 33 80.5t81 32.5q65 0 131.5 -96.5t116.5 -96.5q104 0 165 117q50 97 50 211q0 290 -291 305l2 35q357 72 357 307
q0 76 -43.5 122t-118.5 46q-107 0 -219 -141l-43 18q160 256 379 256q128 0 209 -64q88 -70 88 -196z" />
    <glyph glyph-name="four" unicode="4" horiz-adv-x="995" 
d="M981 1331l-219 -844h129l-51 -194h-129l-78 -293h-240l76 293h-479l53 213l823 825h115zM659 1016l-532 -529h393z" />
    <glyph glyph-name="five" unicode="5" horiz-adv-x="995" 
d="M979 1300l-57 -210h-494l-70 -152q212 -23 337 -126q145 -117 145 -318q0 -236 -171 -383q-162 -140 -401 -140q-92 0 -160 31q-90 40 -90 121q0 50 30.5 85.5t80.5 35.5q68 0 134 -95.5t126 -95.5q108 0 179 113q61 98 61 213q0 175 -140 267q-116 76 -303 81l252 573
h541z" />
    <glyph glyph-name="six" unicode="6" horiz-adv-x="995" 
d="M987 1280q-360 -129 -534 -477q60 16 114 16q133 0 214 -89.5t81 -223.5q0 -159 -78 -294q-81 -141 -221 -206q-88 -41 -176 -41q-175 0 -264 131q-76 112 -76 295q0 275 172 509q163 223 424 335q153 66 334 94zM616 606q0 139 -131 139q-30 0 -57 -16
q-55 -34 -118 -256q-56 -202 -56 -295q0 -145 117 -145q45 0 82 33q59 53 114 255q49 181 49 285z" />
    <glyph glyph-name="seven" unicode="7" horiz-adv-x="995" 
d="M1040 1300l-747 -1327h-178l647 1108h-320q-96 0 -150 -28q-60 -32 -102 -113h-49l164 360h735z" />
    <glyph glyph-name="eight" unicode="8" horiz-adv-x="995" 
d="M956 1049q0 -193 -276 -312q164 -181 164 -350q0 -184 -122 -301t-306 -117q-151 0 -258 81q-117 88 -117 235q0 145 110 246q80 74 242 139q-147 137 -147 295q0 162 105 261q102 97 265 97q144 0 235 -64q105 -73 105 -210zM772 1057q0 80 -35 137q-41 68 -116 68
q-74 0 -117 -59q-39 -53 -39 -130q0 -143 174 -289q133 116 133 273zM629 287q0 142 -185 338q-217 -115 -217 -369q0 -95 47 -156q52 -67 144 -67q101 0 159 79q52 70 52 175z" />
    <glyph glyph-name="nine" unicode="9" horiz-adv-x="995" 
d="M961 907q0 -274 -173 -509q-165 -223 -426 -335q-146 -62 -333 -92l-11 47q364 130 537 478q-59 -17 -117 -17q-132 0 -215 91q-80 88 -80 223q0 209 132 369q140 171 346 171q174 0 263 -130q77 -113 77 -296zM754 1122q0 146 -117 146q-44 0 -80 -33q-58 -52 -115 -255
q-53 -186 -53 -286q0 -137 135 -137q29 0 56 16q42 26 97 188q41 121 60 218q17 82 17 143z" />
    <glyph glyph-name="colon" unicode=":" horiz-adv-x="418" 
d="M375 625q0 -53 -37 -90t-90 -37t-89 37t-36 90q0 52 36 88.5t89 36.5t90 -36.5t37 -88.5zM270 104q0 -52 -37 -89.5t-90 -37.5q-52 0 -87.5 37t-35.5 90t35.5 88t87.5 35q53 0 90 -35t37 -88z" />
    <glyph glyph-name="semicolon" unicode=";" horiz-adv-x="418" 
d="M375 625q0 -53 -37 -90t-90 -37t-89 37t-36 90q0 52 36 88.5t89 36.5t90 -36.5t37 -88.5zM276 63q0 -216 -319 -364l-27 47q197 118 197 186q0 28 -57.5 74.5t-57.5 97.5q0 53 33.5 88t85.5 35q68 0 108 -49q37 -45 37 -115z" />
    <glyph glyph-name="less" unicode="&#x3c;" horiz-adv-x="1348" 
d="M1241 37q0 -17 -49 -107q-7 -12 -23 -12q-5 0 -10 2l-1009 471q-29 14 -29 60t29 59l1009 471q5 2 10 2q16 0 23 -12q49 -89 49 -107q0 -16 -14 -22l-838 -391l838 -392q14 -6 14 -22z" />
    <glyph glyph-name="equal" unicode="=" horiz-adv-x="1348" 
d="M1184 600q0 -22 -25 -22h-973q-22 0 -22 22v111q0 22 22 22h973q25 0 25 -22v-111zM1184 190q0 -22 -25 -22h-973q-22 0 -22 22v111q0 23 22 23h973q25 0 25 -23v-111z" />
    <glyph glyph-name="greater" unicode="&#x3e;" horiz-adv-x="1348" 
d="M1227 451q0 -46 -29 -60l-1010 -471q-4 -2 -10 -2q-16 0 -22 12q-50 90 -50 107q0 16 15 22l837 392l-837 391q-15 6 -15 22q0 18 50 107q6 12 22 12q6 0 10 -2l1010 -471q29 -13 29 -59z" />
    <glyph glyph-name="question" unicode="?" horiz-adv-x="856" 
d="M880 1074q0 -162 -268 -346q-203 -139 -256 -324l-53 13q37 203 182 395q85 112 107 149q53 91 53 172q0 155 -138 155q-39 0 -72 -16q-41 -19 -41 -53q0 -7 28 -50.5t28 -80.5q0 -48 -33.5 -80t-81.5 -32q-50 0 -80.5 38t-30.5 89q0 114 111 181q94 57 216 57
q139 0 228 -62q101 -72 101 -205zM401 102q0 -53 -37 -90t-90 -37t-89 37.5t-36 89.5q0 53 36 89t89 36t90 -36t37 -89z" />
    <glyph glyph-name="at" unicode="@" horiz-adv-x="1654" 
d="M1594 590q0 -224 -182 -418q-186 -197 -408 -197q-111 0 -111 113q0 22 4 45q-105 -158 -239 -158q-86 0 -137 61q-48 58 -48 146q0 232 189 439q132 145 266 145q91 0 119 -82l18 64h193l-146 -516q-21 -74 -21 -96q0 -37 26 -37q132 0 262 178q121 167 121 305
q0 195 -149 314q-138 109 -338 109q-302 0 -544 -229q-246 -233 -246 -533q0 -223 173 -363q161 -130 390 -130q261 0 497 145l42 -51q-267 -184 -552 -184q-267 0 -461 146q-212 160 -212 419q0 338 274.5 607.5t613.5 269.5q253 0 421 -127q185 -140 185 -385zM998 604
q0 70 -54 70q-60 0 -133 -124q-53 -90 -82 -181q-32 -99 -32 -168q0 -86 57 -86q91 0 173 203q71 175 71 286z" />
    <glyph glyph-name="A" unicode="A" 
d="M1147 0h-610v49q102 6 135 54q27 37 33 145l8 160h-412l-137 -175q-64 -80 -64 -116q0 -57 127 -68v-49h-403v49q87 0 209 150l923 1138h56l-45 -1097q0 -183 178 -191zM737 950l-372 -463h350z" />
    <glyph glyph-name="B" unicode="B" horiz-adv-x="1280" 
d="M1202 1022q0 -251 -362 -328q258 -81 258 -288q0 -94 -45 -177q-76 -139 -241 -192q-116 -37 -314 -37h-592v45q101 -1 147 54q32 38 62 149l221 821q14 53 14 102q0 82 -135 89v47h451q222 0 342 -41q194 -67 194 -244zM915 1055q0 188 -180 188q-70 0 -88 -67
l-119 -453q34 -4 58 -4q156 0 242.5 89.5t86.5 246.5zM803 432q0 133 -84 185q-66 40 -207 40l-121 -442q-16 -60 -16 -86q0 -63 108 -63q153 0 240 109q80 101 80 257z" />
    <glyph glyph-name="C" unicode="C" horiz-adv-x="1329" 
d="M1317 1337l-84 -446l-55 2q0 377 -269 377q-167 0 -308 -177q-109 -137 -173 -331q-59 -181 -59 -348q0 -157 75 -252q82 -105 234 -105q233 0 403 250l56 -45q-208 -301 -537 -301q-240 0 -384 138.5t-144 377.5q0 330 219 589q231 271 555 271q108 0 219 -26.5
t123 -26.5q55 0 78 53h51z" />
    <glyph glyph-name="D" unicode="D" horiz-adv-x="1413" 
d="M1348 764q0 -257 -162 -464.5t-412 -270.5q-113 -29 -321 -29h-547v45q101 -1 147 54q32 38 62 149l221 821q14 53 14 94q0 92 -135 97v47h520q613 0 613 -543zM1063 864q0 385 -301 385q-61 0 -88 -23.5t-43 -84.5l-248 -930q-8 -31 -8 -68q0 -84 119 -84q274 0 434 277
q135 233 135 528z" />
    <glyph glyph-name="E" unicode="E" horiz-adv-x="1243" 
d="M1255 1307l-73 -367h-54q0 174 -88 244q-78 61 -258 61q-73 0 -94 -11q-30 -16 -47 -81l-113 -426h54q140 0 212 40q82 45 136 167h47l-137 -537h-43q2 28 2 74q0 110 -65 153q-53 35 -169 35q-33 0 -55 -2l-121 -452q-16 -62 -16 -78q0 -59 106 -59q226 0 355 67
q136 71 247 260h49l-114 -395h-1110v45q102 0 147 54q32 37 62 149l221 821q14 53 14 94q0 57 -42 78q-26 13 -93 19v47h1040z" />
    <glyph glyph-name="F" unicode="F" horiz-adv-x="1165" 
d="M1239 1307l-76 -371h-55v29q0 157 -99 223q-82 55 -247 55q-59 0 -81.5 -19t-37.5 -75l-115 -430q22 -2 56 -2q255 0 327 211h50l-140 -537h-41q2 28 2 68q0 117 -52 156.5t-222 39.5l-113 -417q-18 -69 -18 -103q0 -83 137 -90v-45h-608v45q102 0 147 54q32 37 62 149
l221 821q14 53 14 102q0 80 -135 89v47h1024z" />
    <glyph glyph-name="G" unicode="G" horiz-adv-x="1454" 
d="M1389 598q-73 1 -104 -49q-13 -22 -38 -115l-90 -344q-242 -123 -504 -123q-264 0 -419 137q-162 143 -162 404q0 244 141 461t365 311q141 59 321 59q93 0 200.5 -26.5t125.5 -26.5q44 0 65 53h49l-84 -421h-55q-1 155 -68 247q-77 105 -227 105q-177 0 -323 -196
q-111 -149 -174 -359q-48 -157 -48 -297q0 -172 84 -271q90 -106 258 -106q95 0 142 39t71 133q70 266 70 305q0 81 -143 82v47h547v-49z" />
    <glyph glyph-name="H" unicode="H" horiz-adv-x="1479" 
d="M1573 1260q-104 0 -148 -52q-30 -36 -61 -149l-221 -821q-17 -61 -17 -101q0 -84 136 -92v-45h-609v45q104 0 148 53q31 37 61 150l107 393h-467l-107 -403q-18 -70 -18 -103q0 -83 137 -90v-45h-608v45q102 0 147 54q32 37 62 149l221 821q14 53 14 102q0 80 -135 89v47
h608v-47q-102 0 -147 -53q-32 -37 -62 -148l-88 -328h465l92 338q15 53 15 102q0 80 -137 89v47h612v-47z" />
    <glyph glyph-name="I" unicode="I" horiz-adv-x="729" 
d="M823 1260q-103 0 -147 -53q-31 -36 -62 -148l-221 -821q-18 -69 -18 -103q0 -81 139 -90v-45h-608v45q102 0 147 54q32 37 62 149l221 821q14 53 14 102q0 80 -137 89v47h610v-47z" />
    <glyph glyph-name="J" unicode="J" horiz-adv-x="729" 
d="M823 1260q-103 0 -147 -53q-32 -36 -62 -148l-303 -1137q-45 -171 -138 -247q-97 -81 -271 -81q-283 0 -283 201q0 58 38.5 97.5t96.5 39.5q115 0 115 -102q0 -31 -21.5 -76.5t-21.5 -50.5q0 -35 47 -35q87 0 135 180l328 1221q14 53 14 102q0 80 -137 89v47h610v-47z
" />
    <glyph glyph-name="K" unicode="K" horiz-adv-x="1241" 
d="M1335 1260q-73 0 -205 -123l-389 -363l285 -610q28 -60 54 -82q32 -29 91 -31v-51h-548v51h22q105 0 105 64q0 31 -43 123l-183 389q-6 13 -16 14q-8 -5 -12 -20l-101 -383q-18 -71 -18 -103q0 -81 137 -90v-45h-608v45q102 0 147 54q32 37 62 149l221 821q14 53 14 94
q0 57 -42 79q-27 14 -93 18v47h608v-47q-102 0 -147 -53q-32 -37 -62 -148l-92 -346q-1 -6 -4 -17l2 -4h4q11 0 363 322q149 136 149 186q0 55 -104 66v41h403v-47z" />
    <glyph glyph-name="L" unicode="L" horiz-adv-x="1223" 
d="M1141 387l-123 -387h-1112v45q102 0 147 54q32 37 62 149l221 821q14 53 14 94q0 92 -137 97v47h610v-47q-102 0 -147 -53q-32 -37 -62 -148l-217 -819q-22 -85 -22 -117q0 -55 153 -55q199 0 328 71q138 76 223 248h62z" />
    <glyph glyph-name="M" unicode="M" horiz-adv-x="1714" 
d="M1808 1260q-102 0 -147 -53q-32 -37 -62 -148l-219 -821q-16 -62 -16 -103q0 -82 137 -90v-45h-610v45q102 0 147 54q32 38 62 149l221 837l-715 -1116h-55l-129 1084l-217 -815q-19 -70 -19 -103q0 -81 138 -90v-45h-418v45q103 0 148 53q30 37 61 150l221 821
q14 53 14 100q0 82 -135 91v47h442l113 -926l598 926h440v-47z" />
    <glyph glyph-name="N" unicode="N" horiz-adv-x="1376" 
d="M1470 1260q-102 0 -148 -53q-32 -38 -62 -148l-297 -1090h-60l-491 1049l-209 -780q-19 -69 -19 -103q0 -81 140 -90v-45h-418v45q101 0 147 54q33 39 62 149l207 780q20 77 20 119q0 104 -149 113v47h385l411 -908l182 670q19 68 19 96q0 90 -137 95v47h417v-47z" />
    <glyph glyph-name="O" unicode="O" horiz-adv-x="1409" 
d="M1343 870q0 -330 -240 -612q-252 -295 -577 -295q-218 0 -343 134q-122 130 -122 349q0 246 164 494t389 346q128 55 260 55q217 0 343 -127t126 -344zM1061 1014q0 260 -199 260q-169 0 -312 -245q-99 -171 -159 -398q-49 -188 -49 -334q0 -260 199 -260q220 0 384 391
q136 325 136 586z" />
    <glyph glyph-name="P" unicode="P" horiz-adv-x="1176" 
d="M1190 1004q0 -80 -41 -154q-86 -155 -287 -202q-110 -25 -364 -25l-103 -385q-18 -70 -18 -103q0 -82 137 -90v-45h-608v45q102 0 147 54q32 37 62 149l221 821q14 53 14 102q0 79 -135 89v47h539q436 0 436 -303zM905 1053q0 188 -172 188q-49 0 -71 -30
q-12 -17 -27 -74l-117 -443h6q9 0 27.5 -2t28.5 -2q163 0 247 102q78 94 78 261z" />
    <glyph glyph-name="Q" unicode="Q" horiz-adv-x="1399" 
d="M1333 872q0 -241 -141 -470q-138 -225 -352 -345q-124 -69 -242 -80q-40 -2 -80 -5q-37 -6 -69 -40l-60 -63q139 0 313.5 -45t229.5 -45q181 0 305 158l39 -43q-195 -300 -524 -300q-80 0 -229.5 47.5t-227.5 47.5q-55 0 -131 -23l-70 -20q-28 0 -28 26q0 20 53 68
l270 244q-334 107 -334 454q0 167 68 332q62 152 188.5 291t270.5 211q136 67 284 67q223 0 345 -122t122 -345zM1055 1020q0 254 -199 254q-243 0 -414 -483q-106 -302 -106 -500q0 -252 192 -252q227 0 391 390q136 322 136 591z" />
    <glyph glyph-name="R" unicode="R" horiz-adv-x="1286" 
d="M1206 1014q0 -141 -121 -235q-98 -76 -254 -109l164 -494q23 -67 59.5 -93.5t108.5 -31.5v-51h-389l-209 645h-61l-109 -407q-18 -70 -18 -103q0 -82 137 -90v-45h-608v45q102 0 147 54q32 38 62 149l221 821q14 53 14 94q0 89 -135 97v47h520q471 0 471 -293zM909 1055
q0 190 -174 190q-47 0 -66 -22q-12 -14 -26 -66l-121 -444q20 -2 53 -2q156 0 245 93.5t89 250.5z" />
    <glyph glyph-name="S" unicode="S" horiz-adv-x="1114" 
d="M1065 1319l-92 -395h-55q0 4 1 15t1 17q0 121 -61 205q-67 94 -183 94q-88 0 -145.5 -57t-57.5 -145q0 -98 172 -250q143 -127 193 -193q90 -119 90 -252q0 -195 -132 -300q-121 -97 -321 -97q-96 0 -205 39q-114 41 -127 41q-44 0 -82 -64h-53l101 437h55
q0 -377 285 -377q98 0 168.5 71.5t70.5 170.5q0 98 -117 216q-109 105 -218 209q-117 131 -117 259q0 162 116 264q112 98 277 98q84 0 186 -30.5t111 -30.5q49 0 86 55h53z" />
    <glyph glyph-name="T" unicode="T" horiz-adv-x="1151" 
d="M1266 1307l-56 -373h-55q-20 303 -268 303l-289 -1061q-6 -22 -6 -43q0 -74 139 -84v-49h-606v49q151 8 182 125l285 1065q-283 0 -408 -281h-51l74 349h1059z" />
    <glyph glyph-name="U" unicode="U" horiz-adv-x="1235" 
d="M1411 1257q-78 -9 -124 -92q-23 -40 -56 -153l-162 -549q-73 -247 -173 -356q-129 -140 -359 -140q-185 0 -301 79q-136 92 -136 267q0 71 37 205l158 576q14 52 14 75q0 91 -141 95v43h600v-45q-95 0 -135 -40q-33 -32 -60 -130l-178 -650q-24 -89 -24 -157
q0 -95 67 -152q64 -53 160 -53q182 0 289 159q66 98 131 324l104 365q43 150 43 213q0 108 -155 119v47h401v-50z" />
    <glyph glyph-name="V" unicode="V" horiz-adv-x="1278" 
d="M1454 1253q-62 0 -119 -47q-31 -26 -90 -98l-926 -1139h-59l51 1096q0 184 -164 195v47h584v-52q-105 -6 -133 -51q-19 -31 -25 -145l-32 -703l549 682q81 102 81 156q0 60 -120 66v47h403v-54z" />
    <glyph glyph-name="W" unicode="W" horiz-adv-x="1647" 
d="M1823 1260q-70 -7 -122 -62q-32 -32 -81 -115l-668 -1118h-61l22 950l-567 -950h-57q8 1152 8 1079q0 204 -150 209v54h529v-52q-76 -6 -99 -60q-13 -31 -14 -122l-6 -610l361 600q2 53 2 70q0 125 -136 124v50h525l-2 -47q-67 -2 -95 -37q-24 -33 -28 -187l-15 -565
l383 641q25 41 25 78q0 71 -115 70v47h361v-47z" />
    <glyph glyph-name="X" unicode="X" horiz-adv-x="1065" 
d="M1241 1264q-72 -16 -153 -85q-32 -28 -125 -126l-301 -318l137 -440q38 -124 68 -167q54 -75 155 -79v-49h-590v49q127 5 127 86q0 24 -16 80l-86 295l-238 -244q-84 -86 -84 -149t127 -68v-49h-461v49q112 0 260 160l365 393l-154 510q-23 78 -62 111q-42 35 -122 37
l-2 47h592v-45q-143 0 -143 -93q0 -24 14 -71l84 -277l219 232q96 101 96 151q0 56 -104 56v47h397v-43z" />
    <glyph glyph-name="Y" unicode="Y" horiz-adv-x="1108" 
d="M1284 1260q-87 0 -252 -226l-311 -426l-107 -403q-8 -31 -8 -68q0 -57 49 -75q24 -10 97 -13v-49h-605v49q154 9 185 125l106 404q4 15 4 34t-6 37l-162 481q-21 66 -39 87q-28 33 -85 38v52h526v-47q-62 -2 -85 -10q-44 -16 -44 -64q0 -40 28 -131l113 -359l238 324
q69 95 69 154q0 86 -135 86v47h424v-47z" />
    <glyph glyph-name="Z" unicode="Z" horiz-adv-x="1141" 
d="M1128 1231l-829 -1161h154q379 0 548 311h54l-109 -381h-979v53l852 1182h-104q-187 0 -311 -65q-127 -67 -226 -222l-55 6l108 353h897v-76z" />
    <glyph glyph-name="bracketleft" unicode="[" horiz-adv-x="800" 
d="M811 1348l-10 -68h-148q-54 0 -74 -22q-12 -15 -28 -74l-375 -1395q-12 -46 -12 -59q0 -47 74 -47h161l-10 -62h-446l465 1727h403z" />
    <glyph glyph-name="backslash" unicode="\" horiz-adv-x="944" 
d="M647 -379h-139l-211 1727h137z" />
    <glyph glyph-name="bracketright" unicode="]" horiz-adv-x="800" 
d="M764 1348l-463 -1727h-403l8 68h147q55 0 74 22q13 14 29 74l376 1395q11 38 11 59q0 47 -74 47h-160l10 62h445z" />
    <glyph glyph-name="asciicircum" unicode="^" horiz-adv-x="1593" 
d="M1280 692h-102l-383 287l-381 -287h-105l393 449h187z" />
    <glyph glyph-name="underscore" unicode="_" horiz-adv-x="992" 
d="M768 -535h-992v123h992v-123z" />
    <glyph glyph-name="grave" unicode="`" horiz-adv-x="1000" 
d="M782 1032h-102l-254 185q-61 44 -61 81q0 86 81 86q49 0 97 -59z" />
    <glyph glyph-name="a" unicode="a" horiz-adv-x="918" 
d="M764 199q-134 -224 -262 -224q-111 0 -111 113q0 19 4 45q-108 -158 -239 -158q-87 0 -138 62q-47 57 -47 145q0 230 189 439q131 145 266 145q88 0 119 -82l18 64h193l-138 -484q-30 -108 -30 -123q0 -26 14 -26q37 0 109 116zM496 604q0 70 -54 70q-59 0 -132 -125
q-53 -89 -83 -180q-32 -100 -32 -168q0 -86 57 -86q90 0 173 203q71 176 71 286z" />
    <glyph glyph-name="b" unicode="b" horiz-adv-x="852" 
d="M719 541q0 -207 -160 -385q-164 -183 -369 -183q-63 0 -132 25q-89 31 -89 82q0 18 11 55l217 778q18 66 18 86q0 35 -38 42q-5 0 -64 -1v64q180 13 362 49l-135 -489q91 102 195 102q91 0 140 -69q44 -62 44 -156zM502 545q0 88 -64 88q-51 0 -96 -64
q-35 -50 -96.5 -236.5t-61.5 -246.5q0 -35 43 -35q111 0 200 197q75 167 75 297z" />
    <glyph glyph-name="c" unicode="c" horiz-adv-x="739" 
d="M633 608q0 -121 -113 -121q-100 0 -100 93q0 20 15.5 51t15.5 39q0 24 -29 24t-66 -32q-65 -59 -115 -194q-46 -126 -46 -222q0 -148 106 -148q92 0 195 154l59 -41q-144 -238 -326 -238q-123 0 -190.5 72.5t-67.5 196.5q0 144 85 277q82 128 212 198q88 47 168 47
q77 0 133 -39q64 -44 64 -117z" />
    <glyph glyph-name="d" unicode="d" horiz-adv-x="903" 
d="M858 1155l-258 -952q-16 -61 -16 -84q0 -4 8 -4q30 0 102 118l56 -36q-142 -224 -252 -224q-109 0 -109 117q0 22 4 45q-109 -162 -241 -162q-181 0 -181 232q0 217 181 416q132 145 262 145q63 0 112 -33l58 195q12 41 12 71q0 42 -92 41v64q127 12 354 51zM496 608
q0 72 -50 72q-61 0 -136 -127q-51 -86 -85 -184q-37 -106 -37 -172q0 -80 62 -80q87 0 172 205q74 180 74 286z" />
    <glyph glyph-name="e" unicode="e" horiz-adv-x="725" 
d="M618 604q0 -128 -148 -215q-108 -62 -265 -90q-8 -38 -8 -80q0 -117 104 -117q88 0 174 148l62 -39q-122 -238 -320 -238q-117 0 -183 78q-63 74 -63 193q0 177 141 344q147 174 320 174q80 0 130 -38q56 -43 56 -120zM463 635q0 55 -43 55q-113 0 -197 -317
q97 27 164 94q76 75 76 168z" />
    <glyph glyph-name="f" unicode="f" horiz-adv-x="543" 
d="M696 1016q0 -98 -92 -98q-36 0 -63 25t-27 61q0 15 13.5 39.5t13.5 29.5q0 8 -17 8q-84 0 -157 -333h137l-12 -86h-140q-72 -346 -123 -537q-55 -210 -116 -307q-100 -158 -267 -158q-65 0 -108 38.5t-43 102.5q0 101 92 101q86 0 86 -86q0 -37 -27 -68q1 -14 19 -14
q72 0 170 414q5 23 104 514h-112l16 86h115q107 403 360 403q178 0 178 -135z" />
    <glyph glyph-name="g" unicode="g" horiz-adv-x="813" 
d="M748 686l-11 -88h-88q4 -23 4 -47q0 -137 -115 -223q-105 -78 -247 -78q-22 0 -82 4q-33 -20 -33 -43q0 -28 105 -59q142 -41 194 -72q105 -60 105 -160q0 -131 -135 -201q-108 -57 -252 -57q-118 0 -203 36q-117 48 -117 148q0 110 190 177q-73 47 -73 108q0 79 135 154
q-107 71 -107 180q0 129 112 218q104 83 237 83q127 0 231 -80h150zM442 604q0 88 -59 88q-69 0 -118 -114q-42 -94 -42 -175q0 -84 64 -84q57 0 106 86.5t49 198.5zM387 -152q0 52 -92 93q-36 16 -141 47q-121 -56 -121 -129q0 -61 61 -95q51 -28 117 -28q64 0 113 24
q63 31 63 88z" />
    <glyph glyph-name="h" unicode="h" horiz-adv-x="950" 
d="M797 227q-139 -252 -281 -252q-117 0 -117 131q0 64 50 218q37 110 75 221q15 43 15 59q0 25 -21 25q-79 0 -178 -172q-101 -177 -168 -457h-217l244 911q18 69 18 88q0 35 -38 42q-5 0 -64 -1l2 64q156 11 358 49l-164 -618q163 231 310 231q131 0 131 -131
q0 -74 -51 -224q-39 -112 -78 -225q-9 -26 -9 -41q0 -24 15 -24q32 0 116 137z" />
    <glyph glyph-name="i" unicode="i" horiz-adv-x="541" 
d="M436 1010q0 -50 -34.5 -83.5t-84.5 -33.5q-48 0 -82 34t-34 83t33.5 82.5t82.5 33.5q50 0 84.5 -33.5t34.5 -82.5zM387 205q-130 -228 -268 -228q-127 0 -127 127q0 32 22 113l84 301q21 74 21 100q0 38 -82 37l-2 60q211 25 340 51l-150 -557q-12 -46 -12 -70
q0 -20 16 -20q32 0 111 119z" />
    <glyph glyph-name="j" unicode="j" horiz-adv-x="502" 
d="M436 1010q0 -50 -33.5 -83.5t-83.5 -33.5q-49 0 -83.5 33.5t-34.5 83.5q0 49 34.5 82.5t83.5 33.5q50 0 83.5 -33.5t33.5 -82.5zM375 766l-174 -682q-48 -187 -114 -283q-96 -141 -253 -141q-69 0 -119 35q-55 40 -55 106q0 101 94 101q38 0 63 -24.5t25 -61.5
q0 -18 -13 -43.5t-13 -28.5q0 -8 22 -8q60 0 105 174l155 608q23 88 23 100q0 37 -82 37l-4 60q213 26 340 51z" />
    <glyph glyph-name="k" unicode="k" horiz-adv-x="862" 
d="M784 688q-70 -9 -165 -79q-11 -8 -146 -120q50 -368 113 -368q36 0 82 104l55 -26q-105 -222 -225 -222q-105 0 -158 135q-25 62 -51 224l-41 -33l-80 -303h-217l244 911q18 69 18 88q0 35 -38 42q-5 0 -64 -1l2 64q155 11 358 49l-190 -723q229 176 229 221q0 34 -78 37
v62h352v-62z" />
    <glyph glyph-name="l" unicode="l" horiz-adv-x="506" 
d="M461 1155l-254 -946q-14 -54 -14 -70q0 -20 16 -20q35 0 113 119l47 -35q-140 -226 -265 -226q-131 0 -131 127q0 39 21 113l190 688q21 74 21 103q0 35 -82 34l-2 60q192 23 340 53z" />
    <glyph glyph-name="m" unicode="m" horiz-adv-x="1341" 
d="M1188 205q-147 -230 -270 -230q-117 0 -117 131q0 67 49 219l76 222q14 43 14 57q0 25 -22 25q-105 0 -222 -262q-50 -111 -133 -367h-207l166 547q13 40 13 57q0 25 -21 25q-81 0 -180.5 -172.5t-165.5 -456.5h-213l137 518q23 85 23 100q0 38 -80 37l-4 60
q131 13 348 51l-70 -231q160 231 309 231q132 0 132 -131q0 -27 -7 -57q142 188 277 188q131 0 131 -131q0 -68 -49 -223l-78 -226q-10 -30 -10 -41q0 -24 16 -24q28 0 107 117z" />
    <glyph glyph-name="n" unicode="n" horiz-adv-x="938" 
d="M784 205q-147 -230 -270 -230q-119 0 -119 131q0 68 50 220q39 110 77 221q13 37 13 57q0 25 -21 25q-81 0 -180.5 -172.5t-165.5 -456.5h-213l137 518q23 85 23 100q0 38 -80 37l-4 60q131 13 348 51l-70 -231q160 231 309 231q132 0 132 -131q0 -66 -53 -224
q-39 -116 -79 -231q-8 -28 -8 -35q0 -24 19 -24q26 0 104 117z" />
    <glyph glyph-name="o" unicode="o" horiz-adv-x="838" 
d="M705 498q0 -132 -84.5 -274.5t-200.5 -205.5q-84 -45 -182 -45q-120 0 -193.5 75.5t-73.5 195.5q0 181 138 347q144 175 321 175q126 0 200.5 -71.5t74.5 -196.5zM494 588q0 106 -72 106q-93 0 -173 -231q-67 -194 -67 -316q0 -98 74 -98q91 0 171 228q67 192 67 311z
" />
    <glyph glyph-name="p" unicode="p" horiz-adv-x="868" 
d="M735 549q0 -185 -132 -372q-144 -204 -320 -204q-60 0 -105 31q-55 -201 -55 -231q0 -48 100 -52v-61h-416v64q67 -1 90 33q11 15 31 93l185 709q8 32 8 57q0 42 -86 41v58q184 25 334 51l-39 -131q113 131 225 131q89 0 137 -66q43 -59 43 -151zM512 547q0 82 -53 82
q-115 0 -193 -281q-61 -221 -61 -250q0 -47 47 -47q98 0 185 203q75 176 75 293z" />
    <glyph glyph-name="q" unicode="q" horiz-adv-x="854" 
d="M748 752l-240 -899q-14 -54 -14 -74q0 -56 100 -58v-61h-420v64q64 -1 86 22q17 18 35 84l72 272q-98 -131 -220 -131q-176 0 -176 234q0 216 181 416q129 143 256 143q69 0 122 -47l9 35h209zM496 614q0 66 -52 66q-56 0 -120 -107q-134 -219 -134 -376q0 -80 60 -80
q89 0 173 208q73 180 73 289z" />
    <glyph glyph-name="r" unicode="r" horiz-adv-x="692" 
d="M637 647q0 -123 -105 -123q-40 0 -71 28t-27 28q-44 0 -121 -158q-73 -151 -143 -422h-215l137 518q23 85 23 100q0 38 -80 37l-4 60q131 14 348 51l-66 -213q123 213 224 213q100 0 100 -119z" />
    <glyph glyph-name="s" unicode="s" horiz-adv-x="676" 
d="M571 758l-39 -266l-57 6q-33 194 -145 194q-80 0 -80 -69q0 -43 147 -232q78 -100 78 -186q0 -103 -72.5 -167.5t-177.5 -64.5q-53 0 -114.5 20.5t-67.5 20.5q-26 0 -47 -34l-59 8l45 293l65 -11q17 -219 156 -219q82 0 82 82q0 49 -109.5 192t-109.5 230q0 90 64 148.5
t155 58.5q57 0 118.5 -16.5t67.5 -16.5q29 0 41 29h59z" />
    <glyph glyph-name="t" unicode="t" horiz-adv-x="557" 
d="M483 741l-22 -84h-127l-119 -405q-22 -77 -22 -109q0 -28 14 -28q35 0 121 135l53 -37q-142 -238 -287 -238q-121 0 -121 125q0 37 21 111l123 446h-76v72q172 60 299 248h84l-68 -236h127z" />
    <glyph glyph-name="u" unicode="u" horiz-adv-x="952" 
d="M799 205q-147 -232 -271 -232q-55 0 -88 39q-30 36 -30 92q0 27 16 99q-156 -230 -303 -230q-133 0 -133 131q0 58 102 414q21 71 21 100q0 38 -80 37l-4 58q151 18 346 53l-160 -571q-12 -44 -12 -60q0 -22 22 -22q80 0 178 170q102 175 168 460h215q-58 -193 -159 -585
q-2 -10 -2 -15q0 -22 16 -22q28 0 107 117z" />
    <glyph glyph-name="v" unicode="v" horiz-adv-x="762" 
d="M629 645q0 -197 -467 -672l-51 -2q0 686 -91 686q-9 0 -26 -4l-2 62q68 11 158 30q75 17 90 17q73 0 73 -518q176 199 176 274q0 19 -35.5 62.5t-35.5 76.5q0 46 30 75.5t76 29.5q49 0 77 -33.5t28 -83.5z" />
    <glyph glyph-name="w" unicode="w" horiz-adv-x="1100" 
d="M967 643q0 -123 -171 -352q-74 -99 -266 -316l-57 -4l-41 437l-256 -433l-65 -4q0 686 -91 686q-9 0 -26 -4l-2 62q73 11 160 30q74 17 88 17q55 0 75 -406l238 408h55l49 -524q174 201 174 284q0 17 -37.5 60t-37.5 80q0 43 30 72.5t74 29.5q107 0 107 -123z" />
    <glyph glyph-name="x" unicode="x" horiz-adv-x="815" 
d="M745 668q0 -41 -24 -72t-64 -31q-23 0 -61 17.5t-51 17.5q-27 0 -70 -61l-63 -90l45 -230q19 -96 61 -96q25 0 105 98l47 -37q-146 -209 -254 -209q-116 0 -168 232q-65 -111 -97 -149q-70 -83 -147 -83q-117 0 -117 105q0 44 28.5 74t72.5 30q24 0 63 -16t47 -16
q19 0 43 38l84 134l-51 260q-14 71 -41 83q-11 5 -96 5v57q83 10 159 24.5t95 14.5q49 0 75 -82q5 -16 25 -123l13 20q125 185 233 185q46 0 77 -27t31 -73z" />
    <glyph glyph-name="y" unicode="y" horiz-adv-x="770" 
d="M637 649q0 -117 -201 -493q-262 -492 -483 -492q-54 0 -90 27q-41 30 -41 82q0 43 30.5 72.5t73.5 29.5q31 0 80 -29.5t66 -29.5q30 0 84 63q57 68 57 117q0 22 -10 94q-28 196 -41 265q-29 156 -70 257q-20 52 -65 52q-12 0 -33 -5v66q75 7 141 23q79 18 94 18
q41 0 96 -244q12 -48 60 -303q123 229 123 299q0 21 -45 61.5t-45 77.5q0 49 31 79t79 30q109 0 109 -117z" />
    <glyph glyph-name="z" unicode="z" horiz-adv-x="696" 
d="M616 745l-462 -559q92 -40 149 -149q51 -98 78 -98q22 0 22 10q0 2 -15 32.5t-15 51.5q0 90 94 90q96 0 96 -96q0 -71 -59 -115q-54 -41 -127 -41q-87 0 -197 69.5t-133 69.5q-21 0 -53.5 -26.5t-44.5 -26.5q-39 0 -39 35q0 13 39 61l422 518h-181q-65 0 -85 -15
q-16 -13 -44 -81h-59l74 270h540z" />
    <glyph glyph-name="braceleft" unicode="{" horiz-adv-x="996" 
d="M819 -379q-249 0 -328 96q-60 73 -60 280q0 24 1 78v85q0 152 -53 213t-203 76v73q161 15 216 92q42 58 42 197q0 21 -1 68t-1 73q0 237 71 314q76 82 316 82v-60q-116 -2 -157.5 -51t-41.5 -231v-59.5v-61.5q0 -214 -51 -291.5t-186 -108.5q134 -30 185.5 -109
t51.5 -292v-61.5v-59.5q0 -182 41.5 -231t157.5 -51v-60z" />
    <glyph glyph-name="bar" unicode="|" horiz-adv-x="590" 
d="M367 -373h-144v1745h144v-1745z" />
    <glyph glyph-name="braceright" unicode="}" horiz-adv-x="996" 
d="M819 449q-161 -16 -216 -94q-42 -58 -42 -199q0 -20 1 -67t1 -73q0 -236 -71 -313q-76 -82 -316 -82v60q115 2 158.5 51.5t43.5 237.5q0 18 -1 56v56q0 215 52 294t185 109q-135 31 -186 108.5t-51 293.5v56q1 37 1 55q0 188 -43.5 238t-158.5 52v60q249 0 329 -97
q59 -72 59 -279v-78q-1 -54 -1 -85q0 -152 52 -211q54 -62 204 -76v-73z" />
    <glyph glyph-name="asciitilde" unicode="~" horiz-adv-x="1348" 
d="M1229 545q0 -10 -12 -35q-41 -84 -111 -137q-77 -58 -164 -58q-34 0 -108 17q-6 1 -227 63q-138 39 -230 39q-75 0 -155.5 -46t-69.5 -46q-12 0 -22.5 14.5t-10.5 26.5q0 10 10 27q46 74 117 127q81 61 157 61q99 0 283.5 -58.5t282.5 -58.5q111 0 211 86q9 8 18 8
q31 0 31 -30z" />
    <glyph glyph-name="nonbreakingspace" unicode="&#xa0;" horiz-adv-x="512" 
 />
    <glyph glyph-name="exclamdown" unicode="&#xa1;" horiz-adv-x="522" 
d="M458 623q0 -53 -36 -89t-89 -36t-90 36t-37 89t36.5 90t90.5 37q53 0 89 -37.5t36 -89.5zM278 283q-67 -331 -87 -598q-2 -34 -8 -104q-22 -197 -159 -197q-58 0 -95 35.5t-37 93.5q0 69 131 331q114 230 196 459z" />
    <glyph glyph-name="cent" unicode="&#xa2;" horiz-adv-x="824" 
d="M719 602q0 -49 -29 -83t-78 -34q-40 0 -75 29l-152 -426q103 0 207 148l49 -35q-113 -194 -293 -221l-69 -209l-74 -4l71 210q-231 28 -231 259q0 181 137 347q144 175 322 175q21 0 47 -4l70 190h73l-73 -207q98 -57 98 -135zM528 692q-18 6 -32 6q-68 0 -136 -118
q-98 -174 -98 -347q0 -89 57 -124z" />
    <glyph glyph-name="sterling" unicode="&#xa3;" horiz-adv-x="974" 
d="M999 1153q0 -55 -30 -92q-33 -39 -86 -39q-45 0 -77 27.5t-32 70.5q0 18 11.5 51.5t11.5 51.5q0 39 -58 39q-61 0 -103 -135q-15 -51 -40 -189l-37 -207h215l-18 -137h-224q-36 -162 -137 -352q128 -58 236 -58q134 0 176 119h47q-62 -332 -299 -332q-106 0 -242 123
q-84 -123 -194 -123q-73 0 -122.5 44t-49.5 116q0 87 58 138q55 48 142 48q46 0 107 -22q10 100 37 299h-203l16 137h203q35 264 166 432t295 168q231 0 231 -178zM233 170q-55 57 -118 57q-101 0 -101 -90q0 -94 97 -94q88 0 122 127z" />
    <glyph glyph-name="currency" unicode="&#xa4;" horiz-adv-x="1105" 
d="M944 125l-86 -84l-106 106q-91 -63 -199 -63q-109 0 -201 66l-108 -109l-84 82l108 108q-63 90 -63 201q0 108 63 199l-108 106l88 86l106 -106q88 61 199 61t201 -63l108 108l82 -82l-108 -108q63 -90 63 -201t-61 -199zM788 432q0 97 -69 166.5t-166 69.5t-166.5 -69.5
t-69.5 -166.5t69.5 -166t166.5 -69t166 69t69 166z" />
    <glyph glyph-name="yen" unicode="&#xa5;" horiz-adv-x="1169" 
d="M1288 1253q-92 0 -189 -112q-13 -16 -134 -191h270l-23 -80h-307l-137 -182h397l-20 -80h-434l-105 -405q-12 -48 -12 -66q0 -57 48 -75q25 -10 97 -13v-49h-573v49q151 7 182 125l107 401q2 8 2 23v10h-461l20 80h422l-61 182h-309l18 80h264l-57 174q-23 71 -46 94
q-30 31 -97 33v49h514v-47q-61 -1 -84 -9q-43 -16 -43 -64q0 -36 28 -127l113 -359l233 322q70 96 70 153q0 85 -131 84v47h438v-47z" />
    <glyph glyph-name="brokenbar" unicode="&#xa6;" horiz-adv-x="944" 
d="M541 645h-138v703h138v-703zM541 -379h-138v703h138v-703z" />
    <glyph glyph-name="section" unicode="&#xa7;" horiz-adv-x="1036" 
d="M948 1204q0 -46 -35 -78t-82 -32q-48 0 -97 64.5t-79 64.5q-106 0 -106 -103q0 -43 33 -131q86 -191 172 -381q102 -234 102 -399q0 -205 -139 -368q-146 -171 -348 -171q-92 0 -166 28q-101 38 -101 114q0 51 42 87q39 33 92 33q56 0 105.5 -77.5t72.5 -77.5
q106 0 106 172q0 70 -69 198q-137 252 -159 302q-77 176 -77 329q0 214 135 364q131 146 344 181q37 6 54 6q71 0 128 -27q72 -35 72 -98zM733 125q0 143 -155.5 461t-155.5 426q0 52 29 116q-115 -109 -115 -258q0 -145 153.5 -445t153.5 -409q0 -91 -55 -186
q145 116 145 295z" />
    <glyph glyph-name="dieresis" unicode="&#xa8;" horiz-adv-x="864" 
d="M762 1063q0 -41 -28.5 -69.5t-69.5 -28.5t-70 28.5t-29 69.5t29 69.5t70 28.5t69.5 -28.5t28.5 -69.5zM299 1063q0 -41 -28.5 -69.5t-69.5 -28.5t-70 28.5t-29 69.5t29 69.5t70 28.5t69.5 -28.5t28.5 -69.5z" />
    <glyph glyph-name="copyright" unicode="&#xa9;" horiz-adv-x="1643" 
d="M1538 662q0 -295 -211 -504t-506 -209q-296 0 -504 208t-208 505t208.5 506.5t505.5 209.5q293 0 504 -212t211 -504zM1432 662q0 253 -178 434.5t-431 181.5q-254 0 -433 -181t-179 -435q0 -257 177 -435t433 -178q253 0 432 179.5t179 433.5zM1161 442
q-124 -211 -340 -211q-179 0 -300.5 118.5t-121.5 297.5q0 185 116.5 308.5t299.5 123.5q71 0 150 -32q74 -31 77 -31q51 0 58 59h43v-317h-45q-63 266 -258 266q-228 0 -228 -356q0 -369 240 -369q156 0 266 170z" />
    <glyph glyph-name="ordfeminine" unicode="&#xaa;" horiz-adv-x="765" 
d="M748 635q-123 -186 -240 -186q-100 0 -100 94q0 22 4 43q-102 -137 -224 -137q-76 0 -122 48.5t-46 125.5q0 158 129 319q135 170 289 170q84 0 111 -74l16 58h178l-129 -404q-26 -83 -26 -104q0 -23 14 -23q36 0 100 97zM504 977q0 57 -51 57q-54 0 -119 -96
q-111 -164 -111 -301q0 -72 53 -72q83 0 160 168q68 147 68 244z" />
    <glyph glyph-name="guillemotleft" unicode="&#xab;" horiz-adv-x="1074" 
d="M969 807q0 -81 -299 -363q151 -262 151 -348q0 -28 -26 -28q-12 0 -132 135t-249 248q186 120 352 249q170 134 180 134q23 0 23 -27zM553 807q0 -81 -299 -363q149 -260 149 -348q0 -28 -24 -28q-11 0 -131 135t-250 248q187 120 352 249q171 134 180 134q23 0 23 -27z
" />
    <glyph glyph-name="logicalnot" unicode="&#xac;" horiz-adv-x="1348" 
d="M1184 -37q0 -22 -23 -22h-110q-23 0 -23 22v410h-842q-22 0 -22 22v111q0 22 22 22h973q25 0 25 -22v-543z" />
    <glyph glyph-name="sfthyphen" unicode="&#xad;" horiz-adv-x="557" 
d="M496 395q0 -22 -25 -22h-387q-23 0 -23 22v111q0 22 23 22h387q25 0 25 -22v-111z" />
    <glyph glyph-name="registered" unicode="&#xae;" horiz-adv-x="1643" 
d="M1536 649q0 -136 -59 -270q-88 -199 -264 -314.5t-392 -115.5q-296 0 -504 208.5t-208 504.5t209 506t505 210q303 0 508 -212.5t205 -516.5zM1432 662q0 251 -179 433.5t-430 182.5q-254 0 -433 -181t-179 -435q0 -257 177 -435t433 -178q253 0 432 179.5t179 433.5z
M1264 434q0 -176 -168 -176q-129 0 -157 104q-15 96 -29 192q-32 103 -169 103v-239q0 -79 97 -90v-49h-383v49q102 5 102 90v510q0 85 -102 92v51h393q116 0 202 -40q111 -52 111 -154q0 -99 -92 -150q-59 -32 -180 -53q183 -42 215 -191q5 -44 10 -89q11 -64 43 -64
q57 0 55 127h52v-23zM971 879q0 60 -42.5 101.5t-103.5 41.5q-84 0 -84 -64v-251q16 -2 43 -2q187 0 187 174z" />
    <glyph glyph-name="overscore" unicode="&#xaf;" horiz-adv-x="864" 
d="M768 1360h-672v123h672v-123z" />
    <glyph glyph-name="degree" unicode="&#xb0;" horiz-adv-x="773" 
d="M680 1092q0 -122 -86 -207.5t-207 -85.5t-207 86t-86 207t86 206.5t207 85.5t207 -85.5t86 -206.5zM580 1092q0 80 -56.5 136t-136.5 56t-136 -56.5t-56 -135.5t56.5 -137t135.5 -58q80 0 136.5 57.5t56.5 137.5z" />
    <glyph glyph-name="plusminus" unicode="&#xb1;" horiz-adv-x="1348" 
d="M1184 395q0 -22 -25 -22h-407v-410q0 -22 -23 -22h-111q-22 0 -22 22v410h-410q-22 0 -22 22v111q0 22 22 22h410v408q0 25 22 25h111q23 0 23 -25v-408h407q25 0 25 -22v-111zM1184 -301q0 -23 -25 -23h-973q-22 0 -22 23v111q0 22 22 22h973q25 0 25 -22v-111z" />
    <glyph glyph-name="twosuperior" unicode="&#xb2;" horiz-adv-x="672" 
d="M754 1104q0 -117 -166 -274q-58 -55 -266 -213h184q116 0 168 100h43l-106 -250h-492v39q233 215 270 254q183 193 183 305q0 133 -131 133q-90 0 -162 -104l-39 18q108 209 289 209q97 0 161 -60t64 -157z" />
    <glyph glyph-name="threesuperior" unicode="&#xb3;" horiz-adv-x="672" 
d="M752 1151q0 -135 -156 -188q105 -54 105 -177q0 -145 -127 -244q-117 -93 -267 -93q-65 0 -114 21q-66 29 -66 85q0 34 25 56t59 22q47 0 93 -61.5t77 -61.5q67 0 107 71q35 60 35 132q0 179 -199 188l2 33q244 46 244 190q0 101 -107 101q-69 0 -147 -92l-41 16
q116 172 268 172q88 0 144 -40q65 -46 65 -130z" />
    <glyph glyph-name="acute" unicode="&#xb4;" horiz-adv-x="864" 
d="M612 1314q0 -55 -43 -110l-256 -330q-8 -10 -18 -10q-9 0 -26 11.5t-17 22.5q1 7 2 11l156 389q41 102 110 102q35 0 63.5 -25t28.5 -61z" />
    <glyph glyph-name="mu1" unicode="&#xb5;" horiz-adv-x="958" 
d="M815 203q-146 -228 -270 -228q-121 0 -121 127q0 36 14 93q-150 -220 -291 -220q-75 0 -98 58q-22 -82 -26 -209q-3 -79 -14 -107q-20 -55 -81 -55q-82 0 -82 76q0 30 61.5 161.5t92.5 239.5l172 606h213l-158 -552q-8 -29 -8 -58q0 -22 21 -22q79 0 178 172
q105 183 168 460h215l-152 -561q-10 -38 -10 -41q0 -22 16 -22q27 0 103 117z" />
    <glyph glyph-name="paragraph" unicode="&#xb6;" horiz-adv-x="1309" 
d="M1374 1126l-57 -79q-100 -37 -301 -37v-582q0 -754 -494 -754q-136 0 -232 81q-102 85 -102 218q0 96 63.5 166t158.5 70q65 0 117.5 -46.5t52.5 -111.5q0 -56 -32 -94q-34 -41 -89.5 -41t-55.5 -45q0 -52 54 -87q47 -32 102 -32q208 0 289 240q31 93 35 350
q-179 -20 -262 -20q-196 0 -326 97q-143 108 -143 298q0 114 55.5 209t154.5 145q90 44 255 54q32 1 266 1v174l133 27v-201h358zM883 408v602h-195q-35 -130 -35 -279q0 -139 31 -274q79 -33 199 -49z" />
    <glyph glyph-name="middot" unicode="&#xb7;" horiz-adv-x="418" 
d="M352 653q0 -54 -37 -90.5t-90 -36.5t-89 37t-36 90t36 89t89 36t90 -36t37 -89z" />
    <glyph glyph-name="cedilla" unicode="&#xb8;" horiz-adv-x="864" 
d="M664 -311q0 -99 -91 -161q-79 -54 -180 -54q-60 0 -116 18q-76 25 -76 72q0 57 63 57q15 0 68 -31q45 -26 86 -26q104 0 104 86q0 100 -121 100q-8 0 -25 -3t-26 -3q-51 0 -51 47q0 13 221 236l51 -27l-90 -127q75 -15 125 -59q58 -51 58 -125z" />
    <glyph glyph-name="onesuperior" unicode="&#xb9;" horiz-adv-x="672" 
d="M701 1321l-205 -723q-10 -36 -10 -43q0 -49 125 -49v-39h-465v37q83 1 117 33q29 26 55 110l145 477q12 41 12 62q0 37 -55 37q-4 0 -90 -4l6 36q197 33 365 66z" />
    <glyph glyph-name="ordmasculine" unicode="&#xba;" horiz-adv-x="721" 
d="M694 887q0 -114 -79 -232.5t-183 -169.5q-80 -39 -168 -39q-106 0 -173 60q-71 61 -71 166q0 158 132.5 298t289.5 140q111 0 179 -55q73 -60 73 -168zM502 963q0 88 -68 88q-86 0 -159 -191q-62 -162 -62 -268q0 -82 68 -82q84 0 158 188q63 161 63 265z" />
    <glyph glyph-name="guillemotright" unicode="&#xbb;" horiz-adv-x="1074" 
d="M967 451q-182 -119 -352 -251t-177 -132q-24 0 -24 26q0 83 299 365q-152 262 -152 346q0 29 27 29q13 0 132 -136.5t247 -246.5zM551 451q-182 -119 -350 -250q-171 -133 -178 -133q-25 0 -25 26q0 83 299 365q-152 262 -152 346q0 29 27 29q13 0 132.5 -136.5
t246.5 -246.5z" />
    <glyph glyph-name="onequarter" unicode="&#xbc;" horiz-adv-x="1630" 
d="M1657 856l-152 -534h88l-37 -136h-88l-53 -186h-178l53 186h-327l38 144l566 526h90zM1372 1333l-864 -1360h-111l869 1360h106zM700 1321l-204 -723q-11 -36 -11 -43q0 -49 125 -49v-39h-465v37q84 1 118 32q29 27 54 111l146 477q12 41 12 62q0 37 -55 37q-4 0 -90 -4
l6 36q197 33 364 66zM1417 633l-338 -311h250z" />
    <glyph glyph-name="onehalf" unicode="&#xbd;" horiz-adv-x="1630" 
d="M1595 637q0 -117 -165 -274q-58 -55 -267 -213h185q116 0 168 100h43l-107 -250h-491v39q233 215 270 254q182 193 182 305q0 133 -131 133q-89 0 -162 -104l-39 18q108 209 289 209q97 0 161 -60t64 -157zM1372 1333l-864 -1360h-111l869 1360h106zM700 1321l-204 -723
q-11 -36 -11 -43q0 -49 125 -49v-39h-465v37q84 1 118 32q29 27 54 111l146 477q12 41 12 62q0 37 -55 37q-4 0 -90 -4l6 36q197 33 364 66z" />
    <glyph glyph-name="threequarters" unicode="&#xbe;" horiz-adv-x="1630" 
d="M1657 856l-152 -534h88l-37 -136h-88l-53 -186h-178l53 186h-327l38 144l566 526h90zM1372 1333l-864 -1360h-111l869 1360h106zM752 1151q0 -135 -156 -188q104 -54 104 -177q0 -145 -126 -245q-118 -92 -267 -92q-65 0 -114 21q-66 29 -66 85q0 34 25 56t59 22
q47 0 93 -61.5t77 -61.5q67 0 107 71q34 60 34 132q0 179 -198 188l2 33q243 46 243 190q0 101 -106 101q-69 0 -148 -92l-41 16q116 172 269 172q88 0 144 -40q65 -46 65 -130zM1417 633l-338 -311h250z" />
    <glyph glyph-name="questiondown" unicode="&#xbf;" horiz-adv-x="678" 
d="M612 623q0 -53 -36 -89t-89 -36q-52 0 -89.5 36t-37.5 89t37 90t90 37t89 -37.5t36 -89.5zM537 -378q0 -114 -111 -181q-94 -57 -216 -57q-139 0 -228 62q-101 72 -101 205q0 162 268 346q203 139 257 324l52 -13q-37 -203 -182 -395q-85 -112 -106 -149
q-53 -91 -53 -172q0 -155 137 -155q39 0 72 16q42 19 42 53q0 7 -28.5 50.5t-28.5 80.5q0 48 33.5 80t81.5 32q50 0 82 -39q29 -37 29 -88z" />
    <glyph glyph-name="Agrave" unicode="&#xc0;" 
d="M1147 0h-610v49q102 6 135 54q27 37 33 145l8 160h-412l-137 -175q-64 -80 -64 -116q0 -57 127 -68v-49h-403v49q87 0 209 150l923 1138h56l-45 -1097q0 -183 178 -191zM737 950l-372 -463h350zM928 1386q0 -16 -15.5 -32.5t-31.5 -16.5q-10 0 -21 6l-274 162
q-74 44 -74 97q0 33 27 57t61 24q53 0 103 -51l215 -223q10 -11 10 -23z" />
    <glyph glyph-name="Aacute" unicode="&#xc1;" 
d="M1147 0h-610v49q102 6 135 54q27 37 33 145l8 160h-412l-137 -175q-64 -80 -64 -116q0 -57 127 -68v-49h-403v49q87 0 209 150l923 1138h56l-45 -1097q0 -183 178 -191zM737 950l-372 -463h350zM1051 1602q0 -53 -74 -97l-274 -162q-11 -6 -21 -6q-16 0 -31.5 16.5
t-15.5 32.5q0 12 10 23l215 223q50 51 103 51q34 0 61 -24t27 -57z" />
    <glyph glyph-name="Acircumflex" unicode="&#xc2;" 
d="M1147 0h-610v49q102 6 135 54q27 37 33 145l8 160h-412l-137 -175q-64 -80 -64 -116q0 -57 127 -68v-49h-403v49q87 0 209 150l923 1138h56l-45 -1097q0 -183 178 -191zM737 950l-372 -463h350zM1190 1391q0 -18 -18 -36t-35 -18q-8 0 -19 6l-299 166l-344 -166
q-12 -6 -22 -6q-41 0 -41 47q0 15 14 25l307 223q71 51 111 51q38 0 94 -51l246 -223q6 -6 6 -18z" />
    <glyph glyph-name="Atilde" unicode="&#xc3;" 
d="M1147 0h-610v49q102 6 135 54q27 37 33 145l8 160h-412l-137 -175q-64 -80 -64 -116q0 -57 127 -68v-49h-403v49q87 0 209 150l923 1138h56l-45 -1097q0 -183 178 -191zM737 950l-372 -463h350zM1245 1642q0 -88 -82.5 -166.5t-171.5 -78.5q-47 0 -122 63.5t-95 63.5
q-73 0 -121.5 -63.5t-58.5 -63.5q-41 0 -41 41q0 88 82.5 166.5t171.5 78.5q51 0 130 -63.5t87 -63.5q73 0 121.5 63.5t58.5 63.5q41 0 41 -41z" />
    <glyph glyph-name="Adieresis" unicode="&#xc4;" 
d="M1147 0h-610v49q102 6 135 54q27 37 33 145l8 160h-412l-137 -175q-64 -80 -64 -116q0 -57 127 -68v-49h-403v49q87 0 209 150l923 1138h56l-45 -1097q0 -183 178 -191zM737 950l-372 -463h350zM1219 1575q0 -45 -32 -77t-77 -32t-76.5 32t-31.5 77t31.5 76.5t76.5 31.5
t77 -31.5t32 -76.5zM756 1575q0 -45 -32 -77t-77 -32t-76.5 32t-31.5 77t31.5 76.5t76.5 31.5t77 -31.5t32 -76.5z" />
    <glyph glyph-name="Aring" unicode="&#xc5;" 
d="M1147 0h-610v49q102 6 135 54q27 37 33 145l8 160h-412l-137 -175q-64 -80 -64 -116q0 -57 127 -68v-49h-403v49q87 0 209 150l923 1138h56l-45 -1097q0 -183 178 -191zM737 950l-372 -463h350zM1106 1516q0 -70 -48 -118t-118 -48t-118 48t-48 118q0 69 48 118t118 49
t118 -48.5t48 -118.5zM1012 1516q0 71 -72 71q-70 0 -70 -71q0 -29 20.5 -49.5t49.5 -20.5q72 0 72 70z" />
    <glyph glyph-name="AE" unicode="&#xc6;" horiz-adv-x="1853" 
d="M1866 1307l-74 -367h-53q0 174 -89 244q-78 61 -257 61q-74 0 -95 -11q-29 -16 -47 -81l-112 -426h53q141 0 213 40q81 45 135 167h47l-137 -537h-43q2 28 2 74q0 110 -65 153q-53 35 -168 35q-34 0 -56 -2l-121 -452q-16 -62 -16 -78q0 -59 107 -59q226 0 354 67
q137 71 248 260h49l-115 -395h-1110v45q102 0 148 54q31 38 61 149l43 160h-467l-137 -175q-64 -80 -64 -116q0 -57 127 -68v-49h-403v49q87 0 209 150l792 977q-4 48 -46 67q-25 12 -89 17v47h1176zM987 1217h-35l-587 -730h426z" />
    <glyph glyph-name="Ccedilla" unicode="&#xc7;" horiz-adv-x="1329" 
d="M1317 1337l-84 -446l-55 2q0 377 -269 377q-167 0 -308 -177q-109 -137 -173 -331q-59 -181 -59 -348q0 -157 75 -252q82 -105 234 -105q233 0 403 250l56 -45q-208 -301 -537 -301q-240 0 -384 138.5t-144 377.5q0 330 219 589q231 271 555 271q108 0 219 -26.5
t123 -26.5q55 0 78 53h51zM787 -311q0 -99 -91 -161q-79 -54 -180 -54q-60 0 -116 18q-76 25 -76 72q0 57 63 57q15 0 68 -31q45 -26 86 -26q104 0 104 86q0 100 -121 100q-8 0 -25 -3t-26 -3q-51 0 -51 47q0 13 221 236l51 -27l-90 -127q75 -15 125 -59q58 -51 58 -125z
" />
    <glyph glyph-name="Egrave" unicode="&#xc8;" horiz-adv-x="1243" 
d="M1255 1307l-73 -367h-54q0 174 -88 244q-78 61 -258 61q-73 0 -94 -11q-30 -16 -47 -81l-113 -426h54q140 0 212 40q82 45 136 167h47l-137 -537h-43q2 28 2 74q0 110 -65 153q-53 35 -169 35q-33 0 -55 -2l-121 -452q-16 -62 -16 -78q0 -59 106 -59q226 0 355 67
q136 71 247 260h49l-114 -395h-1110v45q102 0 147 54q32 37 62 149l221 821q14 53 14 94q0 57 -42 78q-26 13 -93 19v47h1040zM1010 1386q0 -16 -15.5 -32.5t-31.5 -16.5q-10 0 -21 6l-274 162q-74 44 -74 97q0 33 27 57t61 24q53 0 103 -51l215 -223q10 -11 10 -23z" />
    <glyph glyph-name="Eacute" unicode="&#xc9;" horiz-adv-x="1243" 
d="M1255 1307l-73 -367h-54q0 174 -88 244q-78 61 -258 61q-73 0 -94 -11q-30 -16 -47 -81l-113 -426h54q140 0 212 40q82 45 136 167h47l-137 -537h-43q2 28 2 74q0 110 -65 153q-53 35 -169 35q-33 0 -55 -2l-121 -452q-16 -62 -16 -78q0 -59 106 -59q226 0 355 67
q136 71 247 260h49l-114 -395h-1110v45q102 0 147 54q32 37 62 149l221 821q14 53 14 94q0 57 -42 78q-26 13 -93 19v47h1040zM1010 1602q0 -53 -74 -97l-274 -162q-11 -6 -21 -6q-16 0 -31.5 16.5t-15.5 32.5q0 12 10 23l215 223q50 51 103 51q34 0 61 -24t27 -57z" />
    <glyph glyph-name="Ecircumflex" unicode="&#xca;" horiz-adv-x="1243" 
d="M1255 1307l-73 -367h-54q0 174 -88 244q-78 61 -258 61q-73 0 -94 -11q-30 -16 -47 -81l-113 -426h54q140 0 212 40q82 45 136 167h47l-137 -537h-43q2 28 2 74q0 110 -65 153q-53 35 -169 35q-33 0 -55 -2l-121 -452q-16 -62 -16 -78q0 -59 106 -59q226 0 355 67
q136 71 247 260h49l-114 -395h-1110v45q102 0 147 54q32 37 62 149l221 821q14 53 14 94q0 57 -42 78q-26 13 -93 19v47h1040zM1190 1391q0 -18 -18 -36t-35 -18q-8 0 -19 6l-299 166l-344 -166q-12 -6 -22 -6q-41 0 -41 47q0 15 14 25l307 223q71 51 111 51q38 0 94 -51
l246 -223q6 -6 6 -18z" />
    <glyph glyph-name="Edieresis" unicode="&#xcb;" horiz-adv-x="1243" 
d="M1255 1307l-73 -367h-54q0 174 -88 244q-78 61 -258 61q-73 0 -94 -11q-30 -16 -47 -81l-113 -426h54q140 0 212 40q82 45 136 167h47l-137 -537h-43q2 28 2 74q0 110 -65 153q-53 35 -169 35q-33 0 -55 -2l-121 -452q-16 -62 -16 -78q0 -59 106 -59q226 0 355 67
q136 71 247 260h49l-114 -395h-1110v45q102 0 147 54q32 37 62 149l221 821q14 53 14 94q0 57 -42 78q-26 13 -93 19v47h1040zM1157 1575q0 -45 -32 -77t-77 -32t-76.5 32t-31.5 77t31.5 76.5t76.5 31.5t77 -31.5t32 -76.5zM694 1575q0 -45 -32 -77t-77 -32t-76.5 32
t-31.5 77t31.5 76.5t76.5 31.5t77 -31.5t32 -76.5z" />
    <glyph glyph-name="Igrave" unicode="&#xcc;" horiz-adv-x="729" 
d="M823 1260q-103 0 -147 -53q-31 -36 -62 -148l-221 -821q-18 -69 -18 -103q0 -81 139 -90v-45h-608v45q102 0 147 54q32 37 62 149l221 821q14 53 14 102q0 80 -137 89v47h610v-47zM805 1386q0 -16 -15.5 -32.5t-31.5 -16.5q-10 0 -21 6l-274 162q-74 44 -74 97
q0 33 27 57t61 24q53 0 103 -51l215 -223q10 -11 10 -23z" />
    <glyph glyph-name="Iacute" unicode="&#xcd;" horiz-adv-x="729" 
d="M823 1260q-103 0 -147 -53q-31 -36 -62 -148l-221 -821q-18 -69 -18 -103q0 -81 139 -90v-45h-608v45q102 0 147 54q32 37 62 149l221 821q14 53 14 102q0 80 -137 89v47h610v-47zM764 1602q0 -53 -74 -97l-274 -162q-11 -6 -21 -6q-16 0 -31.5 16.5t-15.5 32.5
q0 12 10 23l215 223q50 51 103 51q34 0 61 -24t27 -57z" />
    <glyph glyph-name="Icircumflex" unicode="&#xce;" horiz-adv-x="729" 
d="M823 1260q-103 0 -147 -53q-31 -36 -62 -148l-221 -821q-18 -69 -18 -103q0 -81 139 -90v-45h-608v45q102 0 147 54q32 37 62 149l221 821q14 53 14 102q0 80 -137 89v47h610v-47zM881 1389q0 -16 -18.5 -34t-35.5 -18q-9 0 -18 6l-238 170l-282 -170q-10 -6 -23 -6
q-41 0 -41 47q0 12 15 25l245 223q57 51 111 51q52 0 94 -51l184 -223q7 -8 7 -20z" />
    <glyph glyph-name="Idieresis" unicode="&#xcf;" horiz-adv-x="729" 
d="M823 1260q-103 0 -147 -53q-31 -36 -62 -148l-221 -821q-18 -69 -18 -103q0 -81 139 -90v-45h-608v45q102 0 147 54q32 37 62 149l221 821q14 53 14 102q0 80 -137 89v47h610v-47zM932 1575q0 -45 -32 -77t-77 -32t-76.5 32t-31.5 77t31.5 76.5t76.5 31.5t77 -31.5
t32 -76.5zM469 1575q0 -45 -32 -77t-77 -32t-76.5 32t-31.5 77t31.5 76.5t76.5 31.5t77 -31.5t32 -76.5z" />
    <glyph glyph-name="Eth" unicode="&#xd0;" horiz-adv-x="1413" 
d="M1348 764q0 -257 -162 -464.5t-412 -270.5q-113 -29 -321 -29h-547v45q101 -1 147 54q32 37 62 149l106 393h-211l23 86h211l92 342q14 53 14 94q0 92 -135 97v47h520q613 0 613 -543zM1063 864q0 385 -301 385q-61 0 -88 -23.5t-43 -84.5l-111 -414h277l-23 -86h-276
l-115 -430q-8 -31 -8 -68q0 -84 119 -84q274 0 434 277q135 233 135 528z" />
    <glyph glyph-name="Ntilde" unicode="&#xd1;" horiz-adv-x="1376" 
d="M1470 1260q-102 0 -148 -53q-32 -38 -62 -148l-297 -1090h-60l-491 1049l-209 -780q-19 -69 -19 -103q0 -81 140 -90v-45h-418v45q101 0 147 54q33 39 62 149l207 780q20 77 20 119q0 104 -149 113v47h385l411 -908l182 670q19 68 19 96q0 90 -137 95v47h417v-47z
M1286 1642q0 -88 -82.5 -166.5t-171.5 -78.5q-47 0 -122 63.5t-95 63.5q-73 0 -121.5 -63.5t-58.5 -63.5q-41 0 -41 41q0 88 82.5 166.5t171.5 78.5q51 0 130 -63.5t87 -63.5q73 0 121.5 63.5t58.5 63.5q41 0 41 -41z" />
    <glyph glyph-name="Ograve" unicode="&#xd2;" horiz-adv-x="1409" 
d="M1343 870q0 -330 -240 -612q-252 -295 -577 -295q-218 0 -343 134q-122 130 -122 349q0 246 164 494t389 346q128 55 260 55q217 0 343 -127t126 -344zM1061 1014q0 260 -199 260q-169 0 -312 -245q-99 -171 -159 -398q-49 -188 -49 -334q0 -260 199 -260q220 0 384 391
q136 325 136 586zM1153 1386q0 -16 -15.5 -32.5t-31.5 -16.5q-10 0 -21 6l-274 162q-74 44 -74 97q0 33 27 57t61 24q53 0 103 -51l215 -223q10 -11 10 -23z" />
    <glyph glyph-name="Oacute" unicode="&#xd3;" horiz-adv-x="1409" 
d="M1343 870q0 -330 -240 -612q-252 -295 -577 -295q-218 0 -343 134q-122 130 -122 349q0 246 164 494t389 346q128 55 260 55q217 0 343 -127t126 -344zM1061 1014q0 260 -199 260q-169 0 -312 -245q-99 -171 -159 -398q-49 -188 -49 -334q0 -260 199 -260q220 0 384 391
q136 325 136 586zM1071 1602q0 -53 -74 -97l-274 -162q-11 -6 -21 -6q-16 0 -31.5 16.5t-15.5 32.5q0 12 10 23l215 223q50 51 103 51q34 0 61 -24t27 -57z" />
    <glyph glyph-name="Ocircumflex" unicode="&#xd4;" horiz-adv-x="1409" 
d="M1343 870q0 -330 -240 -612q-252 -295 -577 -295q-218 0 -343 134q-122 130 -122 349q0 246 164 494t389 346q128 55 260 55q217 0 343 -127t126 -344zM1061 1014q0 260 -199 260q-169 0 -312 -245q-99 -171 -159 -398q-49 -188 -49 -334q0 -260 199 -260q220 0 384 391
q136 325 136 586zM1292 1391q0 -18 -18 -36t-35 -18q-8 0 -19 6l-299 166l-344 -166q-12 -6 -22 -6q-41 0 -41 47q0 15 14 25l307 223q71 51 111 51q38 0 94 -51l246 -223q6 -6 6 -18z" />
    <glyph glyph-name="Otilde" unicode="&#xd5;" horiz-adv-x="1409" 
d="M1343 870q0 -330 -240 -612q-252 -295 -577 -295q-218 0 -343 134q-122 130 -122 349q0 246 164 494t389 346q128 55 260 55q217 0 343 -127t126 -344zM1061 1014q0 260 -199 260q-169 0 -312 -245q-99 -171 -159 -398q-49 -188 -49 -334q0 -260 199 -260q220 0 384 391
q136 325 136 586zM1245 1642q0 -88 -82.5 -166.5t-171.5 -78.5q-47 0 -122 63.5t-95 63.5q-73 0 -121.5 -63.5t-58.5 -63.5q-41 0 -41 41q0 88 82.5 166.5t171.5 78.5q51 0 130 -63.5t87 -63.5q73 0 121.5 63.5t58.5 63.5q41 0 41 -41z" />
    <glyph glyph-name="Odieresis" unicode="&#xd6;" horiz-adv-x="1409" 
d="M1343 870q0 -330 -240 -612q-252 -295 -577 -295q-218 0 -343 134q-122 130 -122 349q0 246 164 494t389 346q128 55 260 55q217 0 343 -127t126 -344zM1061 1014q0 260 -199 260q-169 0 -312 -245q-99 -171 -159 -398q-49 -188 -49 -334q0 -260 199 -260q220 0 384 391
q136 325 136 586zM1260 1575q0 -45 -32 -77t-77 -32t-76.5 32t-31.5 77t31.5 76.5t76.5 31.5t77 -31.5t32 -76.5zM797 1575q0 -45 -32 -77t-77 -32t-76.5 32t-31.5 77t31.5 76.5t76.5 31.5t77 -31.5t32 -76.5z" />
    <glyph glyph-name="multiply" unicode="&#xd7;" horiz-adv-x="1348" 
d="M1184 41q0 -10 -6 -16l-78 -78q-6 -6 -17 -6q-10 0 -16 6l-393 393l-393 -393q-7 -6 -17 -6t-16 6l-78 78q-6 6 -6 16t6 16l393 394l-391 393q-8 8 -8 18q0 8 6 15l78 77q6 7 14 7q10 0 19 -9l393 -391l393 391q8 9 18 9q9 0 15 -7l78 -77q6 -7 6 -15q0 -10 -8 -18
l-392 -393l394 -394q6 -6 6 -16z" />
    <glyph glyph-name="Oslash" unicode="&#xd8;" horiz-adv-x="1409" 
d="M1343 870q0 -330 -240 -612q-252 -295 -577 -295q-95 0 -178 29l-119 -205h-92l137 238q-213 122 -213 421q0 246 164 494t389 346q128 55 260 55q84 0 152 -18l107 182h96l-123 -211q237 -113 237 -424zM977 1237q-48 37 -115 37q-169 0 -312 -245q-99 -171 -159 -398
q-49 -188 -49 -334q0 -70 18 -127zM1061 1014q0 91 -29 153l-626 -1077q50 -53 135 -53q220 0 384 391q136 325 136 586z" />
    <glyph glyph-name="Ugrave" unicode="&#xd9;" horiz-adv-x="1235" 
d="M1411 1257q-78 -9 -124 -92q-23 -40 -56 -153l-162 -549q-73 -247 -173 -356q-129 -140 -359 -140q-185 0 -301 79q-136 92 -136 267q0 71 37 205l158 576q14 52 14 75q0 91 -141 95v43h600v-45q-95 0 -135 -40q-33 -32 -60 -130l-178 -650q-24 -89 -24 -157
q0 -95 67 -152q64 -53 160 -53q182 0 289 159q66 98 131 324l104 365q43 150 43 213q0 108 -155 119v47h401v-50zM1092 1386q0 -16 -15.5 -32.5t-31.5 -16.5q-10 0 -21 6l-274 162q-74 44 -74 97q0 33 27 57t61 24q53 0 103 -51l215 -223q10 -11 10 -23z" />
    <glyph glyph-name="Uacute" unicode="&#xda;" horiz-adv-x="1235" 
d="M1411 1257q-78 -9 -124 -92q-23 -40 -56 -153l-162 -549q-73 -247 -173 -356q-129 -140 -359 -140q-185 0 -301 79q-136 92 -136 267q0 71 37 205l158 576q14 52 14 75q0 91 -141 95v43h600v-45q-95 0 -135 -40q-33 -32 -60 -130l-178 -650q-24 -89 -24 -157
q0 -95 67 -152q64 -53 160 -53q182 0 289 159q66 98 131 324l104 365q43 150 43 213q0 108 -155 119v47h401v-50zM1194 1602q0 -53 -74 -97l-274 -162q-11 -6 -21 -6q-16 0 -31.5 16.5t-15.5 32.5q0 12 10 23l215 223q50 51 103 51q34 0 61 -24t27 -57z" />
    <glyph glyph-name="Ucircumflex" unicode="&#xdb;" horiz-adv-x="1235" 
d="M1411 1257q-78 -9 -124 -92q-23 -40 -56 -153l-162 -549q-73 -247 -173 -356q-129 -140 -359 -140q-185 0 -301 79q-136 92 -136 267q0 71 37 205l158 576q14 52 14 75q0 91 -141 95v43h600v-45q-95 0 -135 -40q-33 -32 -60 -130l-178 -650q-24 -89 -24 -157
q0 -95 67 -152q64 -53 160 -53q182 0 289 159q66 98 131 324l104 365q43 150 43 213q0 108 -155 119v47h401v-50zM1272 1391q0 -18 -18 -36t-35 -18q-8 0 -19 6l-299 166l-344 -166q-12 -6 -22 -6q-41 0 -41 47q0 15 14 25l307 223q71 51 111 51q38 0 94 -51l246 -223
q6 -6 6 -18z" />
    <glyph glyph-name="Udieresis" unicode="&#xdc;" horiz-adv-x="1235" 
d="M1411 1257q-78 -9 -124 -92q-23 -40 -56 -153l-162 -549q-73 -247 -173 -356q-129 -140 -359 -140q-185 0 -301 79q-136 92 -136 267q0 71 37 205l158 576q14 52 14 75q0 91 -141 95v43h600v-45q-95 0 -135 -40q-33 -32 -60 -130l-178 -650q-24 -89 -24 -157
q0 -95 67 -152q64 -53 160 -53q182 0 289 159q66 98 131 324l104 365q43 150 43 213q0 108 -155 119v47h401v-50zM1301 1575q0 -45 -32 -77t-77 -32t-76.5 32t-31.5 77t31.5 76.5t76.5 31.5t77 -31.5t32 -76.5zM838 1575q0 -45 -32 -77t-77 -32t-76.5 32t-31.5 77t31.5 76.5
t76.5 31.5t77 -31.5t32 -76.5z" />
    <glyph glyph-name="Yacute" unicode="&#xdd;" horiz-adv-x="1108" 
d="M1284 1260q-87 0 -252 -226l-311 -426l-107 -403q-8 -31 -8 -68q0 -57 49 -75q24 -10 97 -13v-49h-605v49q154 9 185 125l106 404q4 15 4 34t-6 37l-162 481q-21 66 -39 87q-28 33 -85 38v52h526v-47q-62 -2 -85 -10q-44 -16 -44 -64q0 -40 28 -131l113 -359l238 324
q69 95 69 154q0 86 -135 86v47h424v-47zM1010 1602q0 -53 -74 -97l-274 -162q-11 -6 -21 -6q-16 0 -31.5 16.5t-15.5 32.5q0 12 10 23l215 223q50 51 103 51q34 0 61 -24t27 -57z" />
    <glyph glyph-name="Thorn" unicode="&#xde;" horiz-adv-x="1159" 
d="M1116 745q0 -79 -41 -153q-86 -156 -288 -202q-105 -23 -365 -23q-51 -190 -51 -222q0 -92 137 -100v-45h-604v45q102 0 147 54q32 37 62 149l221 821q14 53 14 102q0 81 -137 89v47h604v-47q-112 -4 -153 -54q-27 -35 -54 -157h86q422 0 422 -304zM829 795
q0 188 -174 188q-49 0 -69 -29q-12 -16 -27 -73l-117 -447q40 -4 60 -4q163 0 248 103q79 95 79 262z" />
    <glyph glyph-name="germandbls" unicode="&#xdf;" horiz-adv-x="987" 
d="M885 938q0 -95 -66 -164q-35 -36 -122 -88q-66 -40 -66 -63q0 -31 47 -101l114 -148q64 -91 64 -169q0 -103 -73 -167.5t-177 -64.5q-53 0 -114.5 20.5t-67.5 20.5q-27 0 -47 -34l-60 8l45 293l66 -11q17 -219 156 -219q82 0 82 82q0 49 -110 191.5t-110 230.5
q0 49 67 110q106 97 125 121q67 86 67 193q0 46 -31.5 75t-77.5 29q-124 0 -201 -235q-15 -49 -76 -342q-35 -176 -90 -381q-55 -211 -116 -307q-99 -158 -267 -158q-65 0 -108 38.5t-43 102.5q0 43 25 72t67 29q86 0 86 -86q0 -30 -27 -70q3 -12 19 -12q75 0 172 426
q40 211 80 423q57 265 143 394q119 176 371 176q107 0 177 -53q77 -58 77 -162z" />
    <glyph glyph-name="agrave" unicode="&#xe0;" horiz-adv-x="918" 
d="M764 199q-134 -224 -262 -224q-111 0 -111 113q0 19 4 45q-108 -158 -239 -158q-87 0 -138 62q-47 57 -47 145q0 230 189 439q131 145 266 145q88 0 119 -82l18 64h193l-138 -484q-30 -108 -30 -123q0 -26 14 -26q37 0 109 116zM496 604q0 70 -54 70q-59 0 -132 -125
q-53 -89 -83 -180q-32 -100 -32 -168q0 -86 57 -86q90 0 173 203q71 176 71 286zM690 868q0 -11 -17 -22.5t-26 -11.5q-10 0 -18 10l-256 330q-43 55 -43 110q0 36 28.5 61t63.5 25q69 0 110 -102l156 -389q2 -7 2 -11z" />
    <glyph glyph-name="aacute" unicode="&#xe1;" horiz-adv-x="918" 
d="M764 199q-134 -224 -262 -224q-111 0 -111 113q0 19 4 45q-108 -158 -239 -158q-87 0 -138 62q-47 57 -47 145q0 230 189 439q131 145 266 145q88 0 119 -82l18 64h193l-138 -484q-30 -108 -30 -123q0 -26 14 -26q37 0 109 116zM496 604q0 70 -54 70q-59 0 -132 -125
q-53 -89 -83 -180q-32 -100 -32 -168q0 -86 57 -86q90 0 173 203q71 176 71 286zM772 1284q0 -55 -43 -110l-256 -330q-8 -10 -18 -10q-9 0 -26 11.5t-17 22.5q0 7 2 11l155 389q41 102 111 102q35 0 63.5 -25t28.5 -61z" />
    <glyph glyph-name="acircumflex" unicode="&#xe2;" horiz-adv-x="918" 
d="M764 199q-134 -224 -262 -224q-111 0 -111 113q0 19 4 45q-108 -158 -239 -158q-87 0 -138 62q-47 57 -47 145q0 230 189 439q131 145 266 145q88 0 119 -82l18 64h193l-138 -484q-30 -108 -30 -123q0 -26 14 -26q37 0 109 116zM496 604q0 70 -54 70q-59 0 -132 -125
q-53 -89 -83 -180q-32 -100 -32 -168q0 -86 57 -86q90 0 173 203q71 176 71 286zM786 868q0 -9 -18 -21.5t-29 -12.5q-9 0 -16 10l-189 254l-258 -254q-10 -10 -20 -10t-22.5 11t-12.5 21q0 7 4 13l248 364q33 49 90 49q54 0 74 -49l145 -364z" />
    <glyph glyph-name="atilde" unicode="&#xe3;" horiz-adv-x="918" 
d="M764 199q-134 -224 -262 -224q-111 0 -111 113q0 19 4 45q-108 -158 -239 -158q-87 0 -138 62q-47 57 -47 145q0 230 189 439q131 145 266 145q88 0 119 -82l18 64h193l-138 -484q-30 -108 -30 -123q0 -26 14 -26q37 0 109 116zM496 604q0 70 -54 70q-59 0 -132 -125
q-53 -89 -83 -180q-32 -100 -32 -168q0 -86 57 -86q90 0 173 203q71 176 71 286zM846 1176q0 -89 -76 -177q-79 -92 -168 -92q-46 0 -125 78q-18 20 -53 53q-25 21 -39 21q-61 0 -105 -70q-10 -18 -30 -51q-18 -29 -35 -29q-41 0 -41 41q0 89 76 177q79 92 168 92
q52 0 131 -76t86 -76q60 0 104 70q11 18 31 51q18 29 35 29q41 0 41 -41z" />
    <glyph glyph-name="adieresis" unicode="&#xe4;" horiz-adv-x="918" 
d="M764 199q-134 -224 -262 -224q-111 0 -111 113q0 19 4 45q-108 -158 -239 -158q-87 0 -138 62q-47 57 -47 145q0 230 189 439q131 145 266 145q88 0 119 -82l18 64h193l-138 -484q-30 -108 -30 -123q0 -26 14 -26q37 0 109 116zM496 604q0 70 -54 70q-59 0 -132 -125
q-53 -89 -83 -180q-32 -100 -32 -168q0 -86 57 -86q90 0 173 203q71 176 71 286zM840 1063q0 -41 -29 -69.5t-70 -28.5t-69.5 28.5t-28.5 69.5t28.5 69.5t69.5 28.5t70 -28.5t29 -69.5zM377 1063q0 -41 -29 -69.5t-70 -28.5t-69.5 28.5t-28.5 69.5t28.5 69.5t69.5 28.5
t70 -28.5t29 -69.5z" />
    <glyph glyph-name="aring" unicode="&#xe5;" horiz-adv-x="918" 
d="M764 199q-134 -224 -262 -224q-111 0 -111 113q0 19 4 45q-108 -158 -239 -158q-87 0 -138 62q-47 57 -47 145q0 230 189 439q131 145 266 145q88 0 119 -82l18 64h193l-138 -484q-30 -108 -30 -123q0 -26 14 -26q37 0 109 116zM496 604q0 70 -54 70q-59 0 -132 -125
q-53 -89 -83 -180q-32 -100 -32 -168q0 -86 57 -86q90 0 173 203q71 176 71 286zM717 1104q0 -79 -54 -132.5t-132 -53.5t-132 54t-54 132t53.5 133t132.5 55t132.5 -54.5t53.5 -133.5zM623 1104q0 40 -26 66t-66 26q-39 0 -64.5 -26.5t-25.5 -65.5q0 -37 26.5 -63.5
t63.5 -26.5q39 0 65.5 25.5t26.5 64.5z" />
    <glyph glyph-name="ae" unicode="&#xe6;" horiz-adv-x="1182" 
d="M1075 602q0 -128 -148 -214q-107 -63 -263 -91q-9 -50 -9 -80q0 -115 105 -115q87 0 174 148l61 -39q-120 -236 -319 -236q-99 0 -166 59t-80 156q-130 -215 -274 -215q-87 0 -138 62q-47 57 -47 145q0 232 187 436q132 146 266 146q88 0 119 -82l18 63h193l-11 -34
q79 47 156 47q75 0 125.5 -41t50.5 -115zM922 633q0 55 -45 55q-108 0 -197 -315q96 27 164 93q78 75 78 167zM494 602q0 70 -54 70q-59 0 -131 -125q-51 -88 -82 -180q-32 -100 -32 -166q0 -86 55 -86q90 0 172 202q72 175 72 285z" />
    <glyph glyph-name="ccedilla" unicode="&#xe7;" horiz-adv-x="739" 
d="M633 608q0 -121 -113 -121q-100 0 -100 93q0 20 15.5 51t15.5 39q0 24 -29 24t-66 -32q-65 -59 -115 -194q-46 -126 -46 -222q0 -148 106 -148q92 0 195 154l59 -41q-144 -238 -326 -238q-123 0 -190.5 72.5t-67.5 196.5q0 144 85 277q82 128 212 198q88 47 168 47
q77 0 133 -39q64 -44 64 -117zM352 -240q0 -75 -69 -122q-61 -41 -137 -41q-44 0 -88 14q-58 20 -58 55q0 45 49 45q13 0 52 -22q34 -21 63 -21q76 0 76 62q0 73 -86 73q-7 0 -20 -2t-19 -2q-41 0 -41 37q0 11 168 180l43 -22l-66 -94q133 -29 133 -140z" />
    <glyph glyph-name="egrave" unicode="&#xe8;" horiz-adv-x="725" 
d="M618 604q0 -128 -148 -215q-108 -62 -265 -90q-8 -38 -8 -80q0 -117 104 -117q88 0 174 148l62 -39q-122 -238 -320 -238q-117 0 -183 78q-63 74 -63 193q0 177 141 344q147 174 320 174q80 0 130 -38q56 -43 56 -120zM463 635q0 55 -43 55q-113 0 -197 -317
q97 27 164 94q76 75 76 168zM608 868q0 -11 -17 -22.5t-26 -11.5q-10 0 -18 10l-256 330q-43 55 -43 110q0 36 28.5 61t63.5 25q69 0 110 -102l156 -389q2 -7 2 -11z" />
    <glyph glyph-name="eacute" unicode="&#xe9;" horiz-adv-x="725" 
d="M618 604q0 -128 -148 -215q-108 -62 -265 -90q-8 -38 -8 -80q0 -117 104 -117q88 0 174 148l62 -39q-122 -238 -320 -238q-117 0 -183 78q-63 74 -63 193q0 177 141 344q147 174 320 174q80 0 130 -38q56 -43 56 -120zM463 635q0 55 -43 55q-113 0 -197 -317
q97 27 164 94q76 75 76 168zM690 1284q0 -55 -43 -110l-256 -330q-8 -10 -18 -10q-9 0 -26 11.5t-17 22.5q0 7 2 11l155 389q41 102 111 102q35 0 63.5 -25t28.5 -61z" />
    <glyph glyph-name="ecircumflex" unicode="&#xea;" horiz-adv-x="725" 
d="M618 604q0 -128 -148 -215q-108 -62 -265 -90q-8 -38 -8 -80q0 -117 104 -117q88 0 174 148l62 -39q-122 -238 -320 -238q-117 0 -183 78q-63 74 -63 193q0 177 141 344q147 174 320 174q80 0 130 -38q56 -43 56 -120zM463 635q0 55 -43 55q-113 0 -197 -317
q97 27 164 94q76 75 76 168zM684 868q0 -9 -18 -21.5t-29 -12.5q-9 0 -16 10l-189 254l-258 -254q-10 -10 -20 -10t-22.5 11t-12.5 21q0 7 4 13l248 364q33 49 90 49q54 0 74 -49l145 -364z" />
    <glyph glyph-name="edieresis" unicode="&#xeb;" horiz-adv-x="725" 
d="M618 604q0 -128 -148 -215q-108 -62 -265 -90q-8 -38 -8 -80q0 -117 104 -117q88 0 174 148l62 -39q-122 -238 -320 -238q-117 0 -183 78q-63 74 -63 193q0 177 141 344q147 174 320 174q80 0 130 -38q56 -43 56 -120zM463 635q0 55 -43 55q-113 0 -197 -317
q97 27 164 94q76 75 76 168zM717 1063q0 -41 -29 -69.5t-70 -28.5t-69.5 28.5t-28.5 69.5t28.5 69.5t69.5 28.5t70 -28.5t29 -69.5zM336 1063q0 -41 -29 -69.5t-70 -28.5t-69.5 28.5t-28.5 69.5t28.5 69.5t69.5 28.5t70 -28.5t29 -69.5z" />
    <glyph glyph-name="igrave" unicode="&#xec;" horiz-adv-x="541" 
d="M387 205q-130 -228 -268 -228q-127 0 -127 127q0 32 22 113l84 301q21 74 21 100q0 38 -82 37l-2 60q211 25 340 51l-150 -557q-12 -46 -12 -70q0 -20 16 -20q32 0 111 119zM444 868q0 -11 -17 -22.5t-26 -11.5q-10 0 -18 10l-256 330q-43 55 -43 110q0 36 28.5 61
t63.5 25q69 0 110 -102l156 -389q2 -7 2 -11z" />
    <glyph glyph-name="iacute" unicode="&#xed;" horiz-adv-x="541" 
d="M387 205q-130 -228 -268 -228q-127 0 -127 127q0 32 22 113l84 301q21 74 21 100q0 38 -82 37l-2 60q211 25 340 51l-150 -557q-12 -46 -12 -70q0 -20 16 -20q32 0 111 119zM547 1284q0 -55 -43 -110l-256 -330q-8 -10 -18 -10q-9 0 -26 11.5t-17 22.5q0 7 2 11l155 389
q41 102 111 102q35 0 63.5 -25t28.5 -61z" />
    <glyph glyph-name="icircumflex" unicode="&#xee;" horiz-adv-x="541" 
d="M387 205q-130 -228 -268 -228q-127 0 -127 127q0 32 22 113l84 301q21 74 21 100q0 38 -82 37l-2 60q211 25 340 51l-150 -557q-12 -46 -12 -70q0 -20 16 -20q32 0 111 119zM545 877q0 -10 -18 -22.5t-29 -12.5q-10 0 -16 10l-168 254l-238 -254q-9 -10 -20 -10t-23 11
t-12 21q0 6 4 13l227 356q32 49 90 49q57 0 74 -49l125 -356q4 -12 4 -10z" />
    <glyph glyph-name="idieresis" unicode="&#xef;" horiz-adv-x="541" 
d="M387 205q-130 -228 -268 -228q-127 0 -127 127q0 32 22 113l84 301q21 74 21 100q0 38 -82 37l-2 60q211 25 340 51l-150 -557q-12 -46 -12 -70q0 -20 16 -20q32 0 111 119zM615 1063q0 -41 -29 -69.5t-70 -28.5t-69.5 28.5t-28.5 69.5t28.5 69.5t69.5 28.5t70 -28.5
t29 -69.5zM234 1063q0 -41 -29 -69.5t-70 -28.5t-69.5 28.5t-28.5 69.5t28.5 69.5t69.5 28.5t70 -28.5t29 -69.5z" />
    <glyph glyph-name="eth" unicode="&#xf0;" horiz-adv-x="838" 
d="M829 1071l-225 -110q115 -153 115 -359q0 -227 -125 -415q-141 -214 -356 -214q-120 0 -193.5 75.5t-73.5 195.5q0 174 136 342q143 178 313 178q39 0 86 -12q-9 72 -35 143l-235 -113l-37 70l237 117q-43 85 -112 192l53 31q95 -83 174 -166l242 117zM500 584
q0 108 -80 108q-92 0 -171 -229q-67 -194 -67 -316q0 -98 70 -98q99 0 180 223q68 186 68 312z" />
    <glyph glyph-name="ntilde" unicode="&#xf1;" horiz-adv-x="938" 
d="M784 205q-147 -230 -270 -230q-119 0 -119 131q0 68 50 220q39 110 77 221q13 37 13 57q0 25 -21 25q-81 0 -180.5 -172.5t-165.5 -456.5h-213l137 518q23 85 23 100q0 38 -80 37l-4 60q131 13 348 51l-70 -231q160 231 309 231q132 0 132 -131q0 -66 -53 -224
q-39 -116 -79 -231q-8 -28 -8 -35q0 -24 19 -24q26 0 104 117zM846 1176q0 -89 -76 -177q-79 -92 -168 -92q-46 0 -125 78q-18 20 -53 53q-25 21 -39 21q-61 0 -105 -70q-10 -18 -30 -51q-18 -29 -35 -29q-41 0 -41 41q0 89 76 177q79 92 168 92q52 0 131 -76t86 -76
q60 0 104 70q11 18 31 51q18 29 35 29q41 0 41 -41z" />
    <glyph glyph-name="ograve" unicode="&#xf2;" horiz-adv-x="838" 
d="M705 498q0 -132 -84.5 -274.5t-200.5 -205.5q-84 -45 -182 -45q-120 0 -193.5 75.5t-73.5 195.5q0 181 138 347q144 175 321 175q126 0 200.5 -71.5t74.5 -196.5zM494 588q0 106 -72 106q-93 0 -173 -231q-67 -194 -67 -316q0 -98 74 -98q91 0 171 228q67 192 67 311z
M629 868q0 -11 -17 -22.5t-26 -11.5q-10 0 -18 10l-256 330q-43 55 -43 110q0 36 28.5 61t63.5 25q69 0 110 -102l156 -389q2 -7 2 -11z" />
    <glyph glyph-name="oacute" unicode="&#xf3;" horiz-adv-x="838" 
d="M705 498q0 -132 -84.5 -274.5t-200.5 -205.5q-84 -45 -182 -45q-120 0 -193.5 75.5t-73.5 195.5q0 181 138 347q144 175 321 175q126 0 200.5 -71.5t74.5 -196.5zM494 588q0 106 -72 106q-93 0 -173 -231q-67 -194 -67 -316q0 -98 74 -98q91 0 171 228q67 192 67 311z
M711 1284q0 -55 -43 -110l-256 -330q-8 -10 -18 -10q-9 0 -26 11.5t-17 22.5q0 7 2 11l155 389q41 102 111 102q35 0 63.5 -25t28.5 -61z" />
    <glyph glyph-name="ocircumflex" unicode="&#xf4;" horiz-adv-x="838" 
d="M705 498q0 -132 -84.5 -274.5t-200.5 -205.5q-84 -45 -182 -45q-120 0 -193.5 75.5t-73.5 195.5q0 181 138 347q144 175 321 175q126 0 200.5 -71.5t74.5 -196.5zM494 588q0 106 -72 106q-93 0 -173 -231q-67 -194 -67 -316q0 -98 74 -98q91 0 171 228q67 192 67 311z
M725 868q0 -9 -18 -21.5t-29 -12.5q-9 0 -16 10l-189 254l-258 -254q-10 -10 -20 -10t-22.5 11t-12.5 21q0 7 4 13l248 364q33 49 90 49q54 0 74 -49l145 -364z" />
    <glyph glyph-name="otilde" unicode="&#xf5;" horiz-adv-x="838" 
d="M705 498q0 -132 -84.5 -274.5t-200.5 -205.5q-84 -45 -182 -45q-120 0 -193.5 75.5t-73.5 195.5q0 181 138 347q144 175 321 175q126 0 200.5 -71.5t74.5 -196.5zM494 588q0 106 -72 106q-93 0 -173 -231q-67 -194 -67 -316q0 -98 74 -98q91 0 171 228q67 192 67 311z
M729 1167q0 -82 -60 -167q-65 -93 -143 -93q-41 0 -102 76t-72 76q-46 0 -81.5 -75t-53.5 -75q-41 0 -41 49q0 82 59 168q65 93 143 93q44 0 108.5 -76t65.5 -76q46 0 81.5 75t54.5 75q41 0 41 -50z" />
    <glyph glyph-name="odieresis" unicode="&#xf6;" horiz-adv-x="838" 
d="M705 498q0 -132 -84.5 -274.5t-200.5 -205.5q-84 -45 -182 -45q-120 0 -193.5 75.5t-73.5 195.5q0 181 138 347q144 175 321 175q126 0 200.5 -71.5t74.5 -196.5zM494 588q0 106 -72 106q-93 0 -173 -231q-67 -194 -67 -316q0 -98 74 -98q91 0 171 228q67 192 67 311z
M738 1063q0 -41 -29 -69.5t-70 -28.5t-69.5 28.5t-28.5 69.5t28.5 69.5t69.5 28.5t70 -28.5t29 -69.5zM357 1063q0 -41 -29 -69.5t-70 -28.5t-69.5 28.5t-28.5 69.5t28.5 69.5t69.5 28.5t70 -28.5t29 -69.5z" />
    <glyph glyph-name="divide" unicode="&#xf7;" horiz-adv-x="1348" 
d="M795 854q0 -50 -35.5 -85.5t-85.5 -35.5t-85.5 35.5t-35.5 85.5t35.5 85.5t85.5 35.5t85.5 -35.5t35.5 -85.5zM1184 395q0 -22 -25 -22h-973q-22 0 -22 22v111q0 22 22 22h973q25 0 25 -22v-111zM795 47q0 -50 -35.5 -85.5t-85.5 -35.5t-85.5 35.5t-35.5 85.5t35.5 85.5
t85.5 35.5t85.5 -35.5t35.5 -85.5z" />
    <glyph glyph-name="oslash" unicode="&#xf8;" horiz-adv-x="838" 
d="M705 498q0 -132 -84.5 -274.5t-200.5 -205.5q-84 -45 -182 -45q-42 0 -80 11l-101 -179h-84l117 207q-119 73 -119 232q0 181 138 347q144 175 321 175q47 0 82 -8l94 166h84l-108 -193q123 -68 123 -233zM467 678q-18 16 -45 16q-87 0 -163 -204q-61 -163 -75 -312z
M494 575l-289 -507q18 -19 51 -19q89 0 167 216q64 178 71 310z" />
    <glyph glyph-name="ugrave" unicode="&#xf9;" horiz-adv-x="952" 
d="M799 205q-147 -232 -271 -232q-55 0 -88 39q-30 36 -30 92q0 27 16 99q-156 -230 -303 -230q-133 0 -133 131q0 58 102 414q21 71 21 100q0 38 -80 37l-4 58q151 18 346 53l-160 -571q-12 -44 -12 -60q0 -22 22 -22q80 0 178 170q102 175 168 460h215q-58 -193 -159 -585
q-2 -10 -2 -15q0 -22 16 -22q28 0 107 117zM690 868q0 -11 -17 -22.5t-26 -11.5q-10 0 -18 10l-256 330q-43 55 -43 110q0 36 28.5 61t63.5 25q69 0 110 -102l156 -389q2 -7 2 -11z" />
    <glyph glyph-name="uacute" unicode="&#xfa;" horiz-adv-x="952" 
d="M799 205q-147 -232 -271 -232q-55 0 -88 39q-30 36 -30 92q0 27 16 99q-156 -230 -303 -230q-133 0 -133 131q0 58 102 414q21 71 21 100q0 38 -80 37l-4 58q151 18 346 53l-160 -571q-12 -44 -12 -60q0 -22 22 -22q80 0 178 170q102 175 168 460h215q-58 -193 -159 -585
q-2 -10 -2 -15q0 -22 16 -22q28 0 107 117zM772 1284q0 -55 -43 -110l-256 -330q-8 -10 -18 -10q-9 0 -26 11.5t-17 22.5q0 7 2 11l155 389q41 102 111 102q35 0 63.5 -25t28.5 -61z" />
    <glyph glyph-name="ucircumflex" unicode="&#xfb;" horiz-adv-x="952" 
d="M799 205q-147 -232 -271 -232q-55 0 -88 39q-30 36 -30 92q0 27 16 99q-156 -230 -303 -230q-133 0 -133 131q0 58 102 414q21 71 21 100q0 38 -80 37l-4 58q151 18 346 53l-160 -571q-12 -44 -12 -60q0 -22 22 -22q80 0 178 170q102 175 168 460h215q-58 -193 -159 -585
q-2 -10 -2 -15q0 -22 16 -22q28 0 107 117zM766 868q0 -9 -18 -21.5t-29 -12.5q-9 0 -16 10l-189 254l-258 -254q-10 -10 -20 -10t-22.5 11t-12.5 21q0 7 4 13l248 364q33 49 90 49q54 0 74 -49l145 -364z" />
    <glyph glyph-name="udieresis" unicode="&#xfc;" horiz-adv-x="952" 
d="M799 205q-147 -232 -271 -232q-55 0 -88 39q-30 36 -30 92q0 27 16 99q-156 -230 -303 -230q-133 0 -133 131q0 58 102 414q21 71 21 100q0 38 -80 37l-4 58q151 18 346 53l-160 -571q-12 -44 -12 -60q0 -22 22 -22q80 0 178 170q102 175 168 460h215q-58 -193 -159 -585
q-2 -10 -2 -15q0 -22 16 -22q28 0 107 117zM861 1063q0 -41 -29 -69.5t-70 -28.5t-69.5 28.5t-28.5 69.5t28.5 69.5t69.5 28.5t70 -28.5t29 -69.5zM398 1063q0 -41 -29 -69.5t-70 -28.5t-69.5 28.5t-28.5 69.5t28.5 69.5t69.5 28.5t70 -28.5t29 -69.5z" />
    <glyph glyph-name="yacute" unicode="&#xfd;" horiz-adv-x="770" 
d="M637 649q0 -117 -201 -493q-262 -492 -483 -492q-54 0 -90 27q-41 30 -41 82q0 43 30.5 72.5t73.5 29.5q31 0 80 -29.5t66 -29.5q30 0 84 63q57 68 57 117q0 22 -10 94q-28 196 -41 265q-29 156 -70 257q-20 52 -65 52q-12 0 -33 -5v66q75 7 141 23q79 18 94 18
q41 0 96 -244q12 -48 60 -303q123 229 123 299q0 21 -45 61.5t-45 77.5q0 49 31 79t79 30q109 0 109 -117zM649 1284q0 -55 -43 -110l-256 -330q-8 -10 -18 -10q-9 0 -26 11.5t-17 22.5q0 7 2 11l155 389q41 102 111 102q35 0 63.5 -25t28.5 -61z" />
    <glyph glyph-name="thorn" unicode="&#xfe;" horiz-adv-x="858" 
d="M725 545q0 -181 -135 -369q-146 -203 -320 -203q-60 0 -104 31q-53 -194 -53 -229q0 -48 100 -51v-62h-416v64q88 0 121 127l283 1089q10 40 10 55q0 42 -86 41v58q197 25 340 55l-131 -502q102 113 205 113q92 0 141 -64q45 -58 45 -153zM500 545q0 82 -54 82
q-115 0 -192 -281q-59 -215 -59 -250q0 -45 47 -45q97 0 183 203q75 174 75 291z" />
    <glyph glyph-name="ydieresis" unicode="&#xff;" horiz-adv-x="770" 
d="M637 649q0 -117 -201 -493q-262 -492 -483 -492q-54 0 -90 27q-41 30 -41 82q0 43 30.5 72.5t73.5 29.5q31 0 80 -29.5t66 -29.5q30 0 84 63q57 68 57 117q0 22 -10 94q-28 196 -41 265q-29 156 -70 257q-20 52 -65 52q-12 0 -33 -5v66q75 7 141 23q79 18 94 18
q41 0 96 -244q12 -48 60 -303q123 229 123 299q0 21 -45 61.5t-45 77.5q0 49 31 79t79 30q109 0 109 -117zM717 1063q0 -41 -29 -69.5t-70 -28.5t-69.5 28.5t-28.5 69.5t28.5 69.5t69.5 28.5t70 -28.5t29 -69.5zM254 1063q0 -41 -29 -69.5t-70 -28.5t-69.5 28.5t-28.5 69.5
t28.5 69.5t69.5 28.5t70 -28.5t29 -69.5z" />
    <glyph glyph-name="Amacron" unicode="&#x100;" 
d="M1147 0h-610v49q102 6 135 54q27 37 33 145l8 160h-412l-137 -175q-64 -80 -64 -116q0 -57 127 -68v-49h-403v49q87 0 209 150l923 1138h56l-45 -1097q0 -183 178 -191zM737 950l-372 -463h350zM1159 1556h-684v127h684v-127z" />
    <glyph glyph-name="amacron" unicode="&#x101;" horiz-adv-x="918" 
d="M764 199q-134 -224 -262 -224q-111 0 -111 113q0 19 4 45q-108 -158 -239 -158q-87 0 -138 62q-47 57 -47 145q0 230 189 439q131 145 266 145q88 0 119 -82l18 64h193l-138 -484q-30 -108 -30 -123q0 -26 14 -26q37 0 109 116zM496 604q0 70 -54 70q-59 0 -132 -125
q-53 -89 -83 -180q-32 -100 -32 -168q0 -86 57 -86q90 0 173 203q71 176 71 286zM802 997h-624v127h624v-127z" />
    <glyph glyph-name="Abreve" unicode="&#x102;" 
d="M1147 0h-610v49q102 6 135 54q27 37 33 145l8 160h-412l-137 -175q-64 -80 -64 -116q0 -57 127 -68v-49h-403v49q87 0 209 150l923 1138h56l-45 -1097q0 -183 178 -191zM737 950l-372 -463h350zM1181 1683q-33 -129 -141 -208.5t-246 -79.5q-134 0 -215.5 75t-81.5 205v8
h52q46 -139 270 -139q225 0 311 139h51z" />
    <glyph glyph-name="abreve" unicode="&#x103;" horiz-adv-x="918" 
d="M764 199q-134 -224 -262 -224q-111 0 -111 113q0 19 4 45q-108 -158 -239 -158q-87 0 -138 62q-47 57 -47 145q0 230 189 439q131 145 266 145q88 0 119 -82l18 64h193l-138 -484q-30 -108 -30 -123q0 -26 14 -26q37 0 109 116zM496 604q0 70 -54 70q-59 0 -132 -125
q-53 -89 -83 -180q-32 -100 -32 -168q0 -86 57 -86q90 0 173 203q71 176 71 286zM926 1260q-32 -140 -132 -234q-107 -100 -247 -100q-137 0 -213 91q-69 85 -68 222v21h47q33 -168 260 -168q225 0 306 168h47z" />
    <glyph glyph-name="Aogonek" unicode="&#x104;" 
d="M1147 0h-610v49q102 6 135 54q27 37 33 145l8 160h-412l-137 -175q-64 -80 -64 -116q0 -57 127 -68v-49h-403v49q87 0 209 150l923 1138h56l-45 -1097q0 -183 178 -191zM737 950l-372 -463h350zM1196 -231q0 -10 -8 -17q-116 -98 -240 -98q-65 0 -110 38q-48 40 -48 105
q0 85 123 203h74q-70 -87 -70 -139q0 -49 32 -82t81 -33q45 0 131 45q4 2 10 4q25 0 25 -26z" />
    <glyph glyph-name="aogonek" unicode="&#x105;" horiz-adv-x="918" 
d="M764 199q-134 -224 -262 -224q-111 0 -111 113q0 19 4 45q-108 -158 -239 -158q-87 0 -138 62q-47 57 -47 145q0 230 189 439q131 145 266 145q88 0 119 -82l18 64h193l-138 -484q-30 -108 -30 -123q0 -26 14 -26q37 0 109 116zM496 604q0 70 -54 70q-59 0 -132 -125
q-53 -89 -83 -180q-32 -100 -32 -168q0 -86 57 -86q90 0 173 203q71 176 71 286zM795 -231q0 -10 -8 -17q-116 -98 -240 -98q-65 0 -110 38q-48 40 -48 105q0 85 123 203h74q-70 -87 -70 -139q0 -49 32 -82t81 -33q45 0 131 45q4 2 10 4q25 0 25 -26z" />
    <glyph glyph-name="Cacute" unicode="&#x106;" horiz-adv-x="1329" 
d="M1317 1337l-84 -446l-55 2q0 377 -269 377q-167 0 -308 -177q-109 -137 -173 -331q-59 -181 -59 -348q0 -157 75 -252q82 -105 234 -105q233 0 403 250l56 -45q-208 -301 -537 -301q-240 0 -384 138.5t-144 377.5q0 330 219 589q231 271 555 271q108 0 219 -26.5
t123 -26.5q55 0 78 53h51zM1051 1602q0 -53 -74 -97l-274 -162q-11 -6 -21 -6q-16 0 -31.5 16.5t-15.5 32.5q0 12 10 23l215 223q50 51 103 51q34 0 61 -24t27 -57z" />
    <glyph glyph-name="cacute" unicode="&#x107;" horiz-adv-x="739" 
d="M633 608q0 -121 -113 -121q-100 0 -100 93q0 20 15.5 51t15.5 39q0 24 -29 24t-66 -32q-65 -59 -115 -194q-46 -126 -46 -222q0 -148 106 -148q92 0 195 154l59 -41q-144 -238 -326 -238q-123 0 -190.5 72.5t-67.5 196.5q0 144 85 277q82 128 212 198q88 47 168 47
q77 0 133 -39q64 -44 64 -117zM690 1284q0 -55 -43 -110l-256 -330q-8 -10 -18 -10q-9 0 -26 11.5t-17 22.5q0 7 2 11l155 389q41 102 111 102q35 0 63.5 -25t28.5 -61z" />
    <glyph glyph-name="Ccircumflex" unicode="&#x108;" horiz-adv-x="1329" 
d="M1317 1337l-84 -446l-55 2q0 377 -269 377q-167 0 -308 -177q-109 -137 -173 -331q-59 -181 -59 -348q0 -157 75 -252q82 -105 234 -105q233 0 403 250l56 -45q-208 -301 -537 -301q-240 0 -384 138.5t-144 377.5q0 330 219 589q231 271 555 271q108 0 219 -26.5
t123 -26.5q55 0 78 53h51zM1188 1389q0 -16 -18.5 -34t-35.5 -18q-9 0 -18 6l-238 170l-282 -170q-10 -6 -23 -6q-41 0 -41 47q0 12 15 25l245 223q57 51 111 51q52 0 94 -51l184 -223q7 -8 7 -20z" />
    <glyph glyph-name="ccircumflex" unicode="&#x109;" horiz-adv-x="739" 
d="M633 608q0 -121 -113 -121q-100 0 -100 93q0 20 15.5 51t15.5 39q0 24 -29 24t-66 -32q-65 -59 -115 -194q-46 -126 -46 -222q0 -148 106 -148q92 0 195 154l59 -41q-144 -238 -326 -238q-123 0 -190.5 72.5t-67.5 196.5q0 144 85 277q82 128 212 198q88 47 168 47
q77 0 133 -39q64 -44 64 -117zM684 868q0 -9 -18 -21.5t-29 -12.5q-9 0 -16 10l-189 254l-258 -254q-10 -10 -20 -10t-22.5 11t-12.5 21q0 7 4 13l248 364q33 49 90 49q54 0 74 -49l145 -364z" />
    <glyph glyph-name="Cdot" unicode="&#x10a;" horiz-adv-x="1329" 
d="M1317 1337l-84 -446l-55 2q0 377 -269 377q-167 0 -308 -177q-109 -137 -173 -331q-59 -181 -59 -348q0 -157 75 -252q82 -105 234 -105q233 0 403 250l56 -45q-208 -301 -537 -301q-240 0 -384 138.5t-144 377.5q0 330 219 589q231 271 555 271q108 0 219 -26.5
t123 -26.5q55 0 78 53h51zM1014 1569q0 -48 -34 -81.5t-81 -33.5q-48 0 -81.5 33.5t-33.5 81.5q0 47 33.5 80.5t81.5 33.5q47 0 81 -33.5t34 -80.5z" />
    <glyph glyph-name="cdot" unicode="&#x10b;" horiz-adv-x="739" 
d="M633 608q0 -121 -113 -121q-100 0 -100 93q0 20 15.5 51t15.5 39q0 24 -29 24t-66 -32q-65 -59 -115 -194q-46 -126 -46 -222q0 -148 106 -148q92 0 195 154l59 -41q-144 -238 -326 -238q-123 0 -190.5 72.5t-67.5 196.5q0 144 85 277q82 128 212 198q88 47 168 47
q77 0 133 -39q64 -44 64 -117zM564 1063q0 -48 -34 -81.5t-81 -33.5q-48 0 -81.5 33.5t-33.5 81.5q0 47 33.5 81t81.5 34q47 0 81 -34t34 -81z" />
    <glyph glyph-name="Ccaron" unicode="&#x10c;" horiz-adv-x="1329" 
d="M1317 1337l-84 -446l-55 2q0 377 -269 377q-167 0 -308 -177q-109 -137 -173 -331q-59 -181 -59 -348q0 -157 75 -252q82 -105 234 -105q233 0 403 250l56 -45q-208 -301 -537 -301q-240 0 -384 138.5t-144 377.5q0 330 219 589q231 271 555 271q108 0 219 -26.5
t123 -26.5q55 0 78 53h51zM1292 1636q0 -14 -14 -24l-307 -223q-71 -52 -111 -52q-38 0 -94 52l-246 223q-6 5 -6 18q0 18 18 35.5t35 17.5q7 0 19 -6l299 -166l344 166q12 6 22 6q41 0 41 -47z" />
    <glyph glyph-name="ccaron" unicode="&#x10d;" horiz-adv-x="739" 
d="M633 608q0 -121 -113 -121q-100 0 -100 93q0 20 15.5 51t15.5 39q0 24 -29 24t-66 -32q-65 -59 -115 -194q-46 -126 -46 -222q0 -148 106 -148q92 0 195 154l59 -41q-144 -238 -326 -238q-123 0 -190.5 72.5t-67.5 196.5q0 144 85 277q82 128 212 198q88 47 168 47
q77 0 133 -39q64 -44 64 -117zM738 1260q0 -7 -4 -13l-248 -364q-34 -49 -90 -49q-54 0 -74 49l-146 364q-4 11 -4 10q0 10 18.5 22.5t28.5 12.5q9 0 17 -10l188 -254l258 254q11 10 21 10t22.5 -11t12.5 -21z" />
    <glyph glyph-name="Dcaron" unicode="&#x10e;" horiz-adv-x="1413" 
d="M1348 764q0 -257 -162 -464.5t-412 -270.5q-113 -29 -321 -29h-547v45q101 -1 147 54q32 38 62 149l221 821q14 53 14 94q0 92 -135 97v47h520q613 0 613 -543zM1063 864q0 385 -301 385q-61 0 -88 -23.5t-43 -84.5l-248 -930q-8 -31 -8 -68q0 -84 119 -84q274 0 434 277
q135 233 135 528zM1251 1636q0 -14 -14 -24l-307 -223q-71 -52 -111 -52q-38 0 -94 52l-246 223q-6 5 -6 18q0 18 18 35.5t35 17.5q7 0 19 -6l299 -166l344 166q12 6 22 6q41 0 41 -47z" />
    <glyph glyph-name="dcaron" unicode="&#x10f;" horiz-adv-x="1225" 
d="M858 1155l-258 -952q-16 -61 -16 -84q0 -4 8 -4q30 0 102 118l56 -36q-142 -224 -252 -224q-109 0 -109 117q0 22 4 45q-109 -162 -241 -162q-181 0 -181 232q0 217 181 416q132 145 262 145q63 0 112 -33l58 195q12 41 12 71q0 42 -92 41v64q127 12 354 51zM496 608
q0 72 -50 72q-61 0 -136 -127q-51 -86 -85 -184q-37 -106 -37 -172q0 -80 62 -80q87 0 172 205q74 180 74 286zM1225 1118q0 -185 -231 -282q-5 -2 -13 -2q-7 0 -21.5 24t-14.5 33q0 11 14 18q149 78 149 133q0 39 -77.5 71.5t-77.5 105.5q0 43 36 70q32 24 74 24
q75 0 121 -64q41 -56 41 -131z" />
    <glyph glyph-name="Dslash" unicode="&#x110;" horiz-adv-x="1413" 
d="M1348 764q0 -257 -162 -464.5t-412 -270.5q-113 -29 -321 -29h-547v45q101 -1 147 54q32 37 62 149l106 393h-211l23 86h211l92 342q14 53 14 94q0 92 -135 97v47h520q613 0 613 -543zM1063 864q0 385 -301 385q-61 0 -88 -23.5t-43 -84.5l-111 -414h277l-23 -86h-276
l-115 -430q-8 -31 -8 -68q0 -84 119 -84q274 0 434 277q135 233 135 528z" />
    <glyph glyph-name="dcroat" unicode="&#x111;" horiz-adv-x="896" 
d="M915 924l-26 -84h-129l-174 -639q-17 -60 -17 -82q1 -2 4 -2q35 0 107 114l53 -36q-142 -222 -250 -222t-108 117q0 19 4 45q-111 -162 -240 -162q-180 0 -180 230q0 173 133 359q144 200 309 200q63 0 111 -31l33 109h-162l25 84h159q15 54 15 73q0 42 -93 41v62
q140 12 355 51l-62 -227h133zM481 606q0 72 -47 72q-84 0 -176 -200q-82 -179 -82 -281q0 -80 62 -80q86 0 170 205q73 178 73 284z" />
    <glyph glyph-name="Emacron" unicode="&#x112;" horiz-adv-x="1243" 
d="M1255 1307l-73 -367h-54q0 174 -88 244q-78 61 -258 61q-73 0 -94 -11q-30 -16 -47 -81l-113 -426h54q140 0 212 40q82 45 136 167h47l-137 -537h-43q2 28 2 74q0 110 -65 153q-53 35 -169 35q-33 0 -55 -2l-121 -452q-16 -62 -16 -78q0 -59 106 -59q226 0 355 67
q136 71 247 260h49l-114 -395h-1110v45q102 0 147 54q32 37 62 149l221 821q14 53 14 94q0 57 -42 78q-26 13 -93 19v47h1040zM1180 1556h-684v127h684v-127z" />
    <glyph glyph-name="emacron" unicode="&#x113;" horiz-adv-x="725" 
d="M618 604q0 -128 -148 -215q-108 -62 -265 -90q-8 -38 -8 -80q0 -117 104 -117q88 0 174 148l62 -39q-122 -238 -320 -238q-117 0 -183 78q-63 74 -63 193q0 177 141 344q147 174 320 174q80 0 130 -38q56 -43 56 -120zM463 635q0 55 -43 55q-113 0 -197 -317
q97 27 164 94q76 75 76 168zM710 997h-565v127h565v-127z" />
    <glyph glyph-name="Ebreve" unicode="&#x114;" horiz-adv-x="1243" 
d="M1255 1307l-73 -367h-54q0 174 -88 244q-78 61 -258 61q-73 0 -94 -11q-30 -16 -47 -81l-113 -426h54q140 0 212 40q82 45 136 167h47l-137 -537h-43q2 28 2 74q0 110 -65 153q-53 35 -169 35q-33 0 -55 -2l-121 -452q-16 -62 -16 -78q0 -59 106 -59q226 0 355 67
q136 71 247 260h49l-114 -395h-1110v45q102 0 147 54q32 37 62 149l221 821q14 53 14 94q0 57 -42 78q-26 13 -93 19v47h1040zM1181 1683q-33 -129 -141 -208.5t-246 -79.5q-134 0 -215.5 75t-81.5 205v8h52q46 -139 270 -139q225 0 311 139h51z" />
    <glyph glyph-name="ebreve" unicode="&#x115;" horiz-adv-x="725" 
d="M618 604q0 -128 -148 -215q-108 -62 -265 -90q-8 -38 -8 -80q0 -117 104 -117q88 0 174 148l62 -39q-122 -238 -320 -238q-117 0 -183 78q-63 74 -63 193q0 177 141 344q147 174 320 174q80 0 130 -38q56 -43 56 -120zM463 635q0 55 -43 55q-113 0 -197 -317
q97 27 164 94q76 75 76 168zM789 1260q-74 -334 -332 -334q-233 0 -233 297v37h47q32 -168 213 -168q178 0 258 168h47z" />
    <glyph glyph-name="Edot" unicode="&#x116;" horiz-adv-x="1243" 
d="M1255 1307l-73 -367h-54q0 174 -88 244q-78 61 -258 61q-73 0 -94 -11q-30 -16 -47 -81l-113 -426h54q140 0 212 40q82 45 136 167h47l-137 -537h-43q2 28 2 74q0 110 -65 153q-53 35 -169 35q-33 0 -55 -2l-121 -452q-16 -62 -16 -78q0 -59 106 -59q226 0 355 67
q136 71 247 260h49l-114 -395h-1110v45q102 0 147 54q32 37 62 149l221 821q14 53 14 94q0 57 -42 78q-26 13 -93 19v47h1040zM973 1569q0 -48 -34 -81.5t-81 -33.5q-48 0 -81.5 33.5t-33.5 81.5q0 47 33.5 80.5t81.5 33.5q47 0 81 -33.5t34 -80.5z" />
    <glyph glyph-name="edot" unicode="&#x117;" horiz-adv-x="725" 
d="M618 604q0 -128 -148 -215q-108 -62 -265 -90q-8 -38 -8 -80q0 -117 104 -117q88 0 174 148l62 -39q-122 -238 -320 -238q-117 0 -183 78q-63 74 -63 193q0 177 141 344q147 174 320 174q80 0 130 -38q56 -43 56 -120zM463 635q0 55 -43 55q-113 0 -197 -317
q97 27 164 94q76 75 76 168zM564 1063q0 -48 -34 -81.5t-81 -33.5q-48 0 -81.5 33.5t-33.5 81.5q0 47 33.5 81t81.5 34q47 0 81 -34t34 -81z" />
    <glyph glyph-name="Eogonek" unicode="&#x118;" horiz-adv-x="1243" 
d="M1255 1307l-73 -367h-54q0 174 -88 244q-78 61 -258 61q-73 0 -94 -11q-30 -16 -47 -81l-113 -426h54q140 0 212 40q82 45 136 167h47l-137 -537h-43q2 28 2 74q0 110 -65 153q-53 35 -169 35q-33 0 -55 -2l-121 -452q-16 -62 -16 -78q0 -59 106 -59q226 0 355 67
q136 71 247 260h49l-114 -395h-1110v45q102 0 147 54q32 37 62 149l221 821q14 53 14 94q0 57 -42 78q-26 13 -93 19v47h1040zM1114 -231q0 -10 -8 -17q-116 -98 -240 -98q-65 0 -110 38q-48 40 -48 105q0 85 123 203h74q-70 -87 -70 -139q0 -49 32 -82t81 -33q45 0 131 45
q4 2 10 4q25 0 25 -26z" />
    <glyph glyph-name="eogonek" unicode="&#x119;" horiz-adv-x="725" 
d="M618 604q0 -128 -148 -215q-108 -62 -265 -90q-8 -38 -8 -80q0 -117 104 -117q88 0 174 148l62 -39q-122 -238 -320 -238q-117 0 -183 78q-63 74 -63 193q0 177 141 344q147 174 320 174q80 0 130 -38q56 -43 56 -120zM463 635q0 55 -43 55q-113 0 -197 -317
q97 27 164 94q76 75 76 168zM549 -231q0 -10 -8 -17q-116 -98 -240 -98q-65 0 -110 38q-48 40 -48 105q0 85 123 203h74q-70 -87 -70 -139q0 -49 32 -82t81 -33q45 0 131 45q4 2 10 4q25 0 25 -26z" />
    <glyph glyph-name="Ecaron" unicode="&#x11a;" horiz-adv-x="1243" 
d="M1255 1307l-73 -367h-54q0 174 -88 244q-78 61 -258 61q-73 0 -94 -11q-30 -16 -47 -81l-113 -426h54q140 0 212 40q82 45 136 167h47l-137 -537h-43q2 28 2 74q0 110 -65 153q-53 35 -169 35q-33 0 -55 -2l-121 -452q-16 -62 -16 -78q0 -59 106 -59q226 0 355 67
q136 71 247 260h49l-114 -395h-1110v45q102 0 147 54q32 37 62 149l221 821q14 53 14 94q0 57 -42 78q-26 13 -93 19v47h1040zM1251 1636q0 -14 -14 -24l-307 -223q-71 -52 -111 -52q-38 0 -94 52l-246 223q-6 5 -6 18q0 18 18 35.5t35 17.5q7 0 19 -6l299 -166l344 166
q12 6 22 6q41 0 41 -47z" />
    <glyph glyph-name="ecaron" unicode="&#x11b;" horiz-adv-x="725" 
d="M618 604q0 -128 -148 -215q-108 -62 -265 -90q-8 -38 -8 -80q0 -117 104 -117q88 0 174 148l62 -39q-122 -238 -320 -238q-117 0 -183 78q-63 74 -63 193q0 177 141 344q147 174 320 174q80 0 130 -38q56 -43 56 -120zM463 635q0 55 -43 55q-113 0 -197 -317
q97 27 164 94q76 75 76 168zM758 1260q0 -7 -4 -13l-248 -364q-34 -49 -90 -49q-54 0 -74 49l-146 364q-4 11 -4 10q0 10 18.5 22.5t28.5 12.5q9 0 17 -10l188 -254l258 254q11 10 21 10t22.5 -11t12.5 -21z" />
    <glyph glyph-name="Gcircumflex" unicode="&#x11c;" horiz-adv-x="1454" 
d="M1389 598q-73 1 -104 -49q-13 -22 -38 -115l-90 -344q-242 -123 -504 -123q-264 0 -419 137q-162 143 -162 404q0 244 141 461t365 311q141 59 321 59q93 0 200.5 -26.5t125.5 -26.5q44 0 65 53h49l-84 -421h-55q-1 155 -68 247q-77 105 -227 105q-177 0 -323 -196
q-111 -149 -174 -359q-48 -157 -48 -297q0 -172 84 -271q90 -106 258 -106q95 0 142 39t71 133q70 266 70 305q0 81 -143 82v47h547v-49zM1209 1389q0 -16 -18.5 -34t-35.5 -18q-9 0 -18 6l-238 170l-282 -170q-10 -6 -23 -6q-41 0 -41 47q0 12 15 25l245 223q57 51 111 51
q52 0 94 -51l184 -223q7 -8 7 -20z" />
    <glyph glyph-name="gcircumflex" unicode="&#x11d;" horiz-adv-x="813" 
d="M748 686l-11 -88h-88q4 -23 4 -47q0 -137 -115 -223q-105 -78 -247 -78q-22 0 -82 4q-33 -20 -33 -43q0 -28 105 -59q142 -41 194 -72q105 -60 105 -160q0 -131 -135 -201q-108 -57 -252 -57q-118 0 -203 36q-117 48 -117 148q0 110 190 177q-73 47 -73 108q0 79 135 154
q-107 71 -107 180q0 129 112 218q104 83 237 83q127 0 231 -80h150zM442 604q0 88 -59 88q-69 0 -118 -114q-42 -94 -42 -175q0 -84 64 -84q57 0 106 86.5t49 198.5zM387 -152q0 52 -92 93q-36 16 -141 47q-121 -56 -121 -129q0 -61 61 -95q51 -28 117 -28q64 0 113 24
q63 31 63 88zM704 868q0 -9 -18 -21.5t-29 -12.5q-9 0 -16 10l-189 254l-258 -254q-10 -10 -20 -10t-22.5 11t-12.5 21q0 7 4 13l248 364q33 49 90 49q54 0 74 -49l145 -364z" />
    <glyph glyph-name="Gbreve" unicode="&#x11e;" horiz-adv-x="1454" 
d="M1389 598q-73 1 -104 -49q-13 -22 -38 -115l-90 -344q-242 -123 -504 -123q-264 0 -419 137q-162 143 -162 404q0 244 141 461t365 311q141 59 321 59q93 0 200.5 -26.5t125.5 -26.5q44 0 65 53h49l-84 -421h-55q-1 155 -68 247q-77 105 -227 105q-177 0 -323 -196
q-111 -149 -174 -359q-48 -157 -48 -297q0 -172 84 -271q90 -106 258 -106q95 0 142 39t71 133q70 266 70 305q0 81 -143 82v47h547v-49zM1263 1683q-33 -129 -141 -208.5t-246 -79.5q-134 0 -215.5 75t-81.5 205v8h52q46 -139 270 -139q225 0 311 139h51z" />
    <glyph glyph-name="gbreve" unicode="&#x11f;" horiz-adv-x="813" 
d="M748 686l-11 -88h-88q4 -23 4 -47q0 -137 -115 -223q-105 -78 -247 -78q-22 0 -82 4q-33 -20 -33 -43q0 -28 105 -59q142 -41 194 -72q105 -60 105 -160q0 -131 -135 -201q-108 -57 -252 -57q-118 0 -203 36q-117 48 -117 148q0 110 190 177q-73 47 -73 108q0 79 135 154
q-107 71 -107 180q0 129 112 218q104 83 237 83q127 0 231 -80h150zM442 604q0 88 -59 88q-69 0 -118 -114q-42 -94 -42 -175q0 -84 64 -84q57 0 106 86.5t49 198.5zM387 -152q0 52 -92 93q-36 16 -141 47q-121 -56 -121 -129q0 -61 61 -95q51 -28 117 -28q64 0 113 24
q63 31 63 88zM789 1260q-74 -334 -332 -334q-233 0 -233 297v37h47q32 -168 213 -168q178 0 258 168h47z" />
    <glyph glyph-name="Gdot" unicode="&#x120;" horiz-adv-x="1454" 
d="M1389 598q-73 1 -104 -49q-13 -22 -38 -115l-90 -344q-242 -123 -504 -123q-264 0 -419 137q-162 143 -162 404q0 244 141 461t365 311q141 59 321 59q93 0 200.5 -26.5t125.5 -26.5q44 0 65 53h49l-84 -421h-55q-1 155 -68 247q-77 105 -227 105q-177 0 -323 -196
q-111 -149 -174 -359q-48 -157 -48 -297q0 -172 84 -271q90 -106 258 -106q95 0 142 39t71 133q70 266 70 305q0 81 -143 82v47h547v-49zM1035 1569q0 -48 -34 -81.5t-81 -33.5q-48 0 -81.5 33.5t-33.5 81.5q0 47 33.5 80.5t81.5 33.5q47 0 81 -33.5t34 -80.5z" />
    <glyph glyph-name="gdot" unicode="&#x121;" horiz-adv-x="813" 
d="M748 686l-11 -88h-88q4 -23 4 -47q0 -137 -115 -223q-105 -78 -247 -78q-22 0 -82 4q-33 -20 -33 -43q0 -28 105 -59q142 -41 194 -72q105 -60 105 -160q0 -131 -135 -201q-108 -57 -252 -57q-118 0 -203 36q-117 48 -117 148q0 110 190 177q-73 47 -73 108q0 79 135 154
q-107 71 -107 180q0 129 112 218q104 83 237 83q127 0 231 -80h150zM442 604q0 88 -59 88q-69 0 -118 -114q-42 -94 -42 -175q0 -84 64 -84q57 0 106 86.5t49 198.5zM387 -152q0 52 -92 93q-36 16 -141 47q-121 -56 -121 -129q0 -61 61 -95q51 -28 117 -28q64 0 113 24
q63 31 63 88zM543 1063q0 -48 -34 -81.5t-81 -33.5q-48 0 -81.5 33.5t-33.5 81.5q0 47 33.5 81t81.5 34q47 0 81 -34t34 -81z" />
    <glyph glyph-name="Gcedilla" unicode="&#x122;" horiz-adv-x="1454" 
d="M1389 598q-73 1 -104 -49q-13 -22 -38 -115l-90 -344q-242 -123 -504 -123q-264 0 -419 137q-162 143 -162 404q0 244 141 461t365 311q141 59 321 59q93 0 200.5 -26.5t125.5 -26.5q44 0 65 53h49l-84 -421h-55q-1 155 -68 247q-77 105 -227 105q-177 0 -323 -196
q-111 -149 -174 -359q-48 -157 -48 -297q0 -172 84 -271q90 -106 258 -106q95 0 142 39t71 133q70 266 70 305q0 81 -143 82v47h547v-49zM725 -356q0 -186 -232 -283q-5 -2 -12 -2q-8 0 -22.5 24t-14.5 33q0 11 14 19q150 77 150 133q0 38 -78 70.5t-78 105.5q0 44 36 70
q32 24 75 24q74 0 120 -63q42 -57 42 -131z" />
    <glyph glyph-name="gcedilla" unicode="&#x123;" horiz-adv-x="813" 
d="M748 686l-11 -88h-88q4 -23 4 -47q0 -137 -115 -223q-105 -78 -247 -78q-22 0 -82 4q-33 -20 -33 -43q0 -28 105 -59q142 -41 194 -72q105 -60 105 -160q0 -131 -135 -201q-108 -57 -252 -57q-118 0 -203 36q-117 48 -117 148q0 110 190 177q-73 47 -73 108q0 79 135 154
q-107 71 -107 180q0 129 112 218q104 83 237 83q127 0 231 -80h150zM442 604q0 88 -59 88q-69 0 -118 -114q-42 -94 -42 -175q0 -84 64 -84q57 0 106 86.5t49 198.5zM387 -152q0 52 -92 93q-36 16 -141 47q-121 -56 -121 -129q0 -61 61 -95q51 -28 117 -28q64 0 113 24
q63 31 63 88zM549 1255q0 -11 -14 -18q-150 -78 -150 -133q0 -38 78 -71t78 -105q0 -44 -36 -71q-32 -23 -75 -23q-74 0 -120 63q-41 56 -41 131q0 185 231 283q5 2 12 2q8 0 22.5 -24.5t14.5 -33.5z" />
    <glyph glyph-name="Hcircumflex" unicode="&#x124;" horiz-adv-x="1479" 
d="M1573 1260q-104 0 -148 -52q-30 -36 -61 -149l-221 -821q-17 -61 -17 -101q0 -84 136 -92v-45h-609v45q104 0 148 53q31 37 61 150l107 393h-467l-107 -403q-18 -70 -18 -103q0 -83 137 -90v-45h-608v45q102 0 147 54q32 37 62 149l221 821q14 53 14 102q0 80 -135 89v47
h608v-47q-102 0 -147 -53q-32 -37 -62 -148l-88 -328h465l92 338q15 53 15 102q0 80 -137 89v47h612v-47zM1313 1391q0 -18 -18 -36t-35 -18q-8 0 -19 6l-299 166l-344 -166q-12 -6 -22 -6q-41 0 -41 47q0 15 14 25l307 223q71 51 111 51q38 0 94 -51l246 -223q6 -6 6 -18z
" />
    <glyph glyph-name="hcircumflex" unicode="&#x125;" horiz-adv-x="950" 
d="M797 227q-139 -252 -281 -252q-117 0 -117 131q0 64 50 218q37 110 75 221q15 43 15 59q0 25 -21 25q-79 0 -178 -172q-101 -177 -168 -457h-217l244 911q18 69 18 88q0 35 -38 42q-5 0 -64 -1l2 64q156 11 358 49l-164 -618q163 231 310 231q131 0 131 -131
q0 -74 -51 -224q-39 -112 -78 -225q-9 -26 -9 -41q0 -24 15 -24q32 0 116 137zM918 1389q0 -16 -18.5 -34t-35.5 -18q-9 0 -18 6l-238 170l-282 -170q-10 -6 -23 -6q-41 0 -41 47q0 12 15 25l245 223q57 51 111 51q52 0 94 -51l184 -223q7 -8 7 -20z" />
    <glyph glyph-name="Hbar" unicode="&#x126;" horiz-adv-x="1479" 
d="M1573 1260q-104 0 -148 -52q-30 -36 -61 -149l-14 -55h200l-20 -86h-205l-182 -680q-17 -61 -17 -101q0 -84 136 -92v-45h-609v45q104 0 148 53q31 37 61 150l107 393h-467l-107 -403q-18 -70 -18 -103q0 -83 137 -90v-45h-608v45q102 0 147 54q32 37 62 149l180 670
h-207l21 86h208l19 65q14 53 14 102q0 80 -135 89v47h608v-47q-102 0 -147 -53q-32 -37 -62 -148l-14 -55h465l18 65q15 53 15 102q0 80 -137 89v47h612v-47zM1042 918h-467l-49 -187h465z" />
    <glyph glyph-name="hbar" unicode="&#x127;" horiz-adv-x="950" 
d="M797 227q-139 -252 -281 -252q-117 0 -117 131q0 64 50 218q37 110 75 221q15 43 15 59q0 25 -21 25q-79 0 -178 -172q-101 -177 -168 -457h-217l225 842h-151l24 86h150q14 50 14 71q0 35 -38 42q-5 0 -64 -1l2 64q156 11 358 49l-59 -225h209l-25 -84h-207l-82 -309
q163 231 310 231q131 0 131 -131q0 -74 -51 -224q-39 -112 -78 -225q-9 -26 -9 -41q0 -24 15 -24q32 0 116 137z" />
    <glyph glyph-name="Itilde" unicode="&#x128;" horiz-adv-x="729" 
d="M823 1260q-103 0 -147 -53q-31 -36 -62 -148l-221 -821q-18 -69 -18 -103q0 -81 139 -90v-45h-608v45q102 0 147 54q32 37 62 149l221 821q14 53 14 102q0 80 -137 89v47h610v-47zM938 1642q0 -88 -82.5 -166.5t-171.5 -78.5q-47 0 -122 63.5t-95 63.5
q-73 0 -121.5 -63.5t-58.5 -63.5q-41 0 -41 41q0 88 82.5 166.5t171.5 78.5q51 0 130 -63.5t87 -63.5q73 0 121.5 63.5t58.5 63.5q41 0 41 -41z" />
    <glyph glyph-name="itilde" unicode="&#x129;" horiz-adv-x="541" 
d="M387 205q-130 -228 -268 -228q-127 0 -127 127q0 32 22 113l84 301q21 74 21 100q0 38 -82 37l-2 60q211 25 340 51l-150 -557q-12 -46 -12 -70q0 -20 16 -20q32 0 111 119zM566 1167q0 -82 -60 -167q-65 -93 -143 -93q-41 0 -102 76t-72 76q-46 0 -81.5 -75t-53.5 -75
q-41 0 -41 49q0 82 59 168q65 93 143 93q44 0 108.5 -76t65.5 -76q46 0 81.5 75t54.5 75q41 0 41 -50z" />
    <glyph glyph-name="Imacron" unicode="&#x12a;" horiz-adv-x="729" 
d="M823 1260q-103 0 -147 -53q-31 -36 -62 -148l-221 -821q-18 -69 -18 -103q0 -81 139 -90v-45h-608v45q102 0 147 54q32 37 62 149l221 821q14 53 14 102q0 80 -137 89v47h610v-47zM914 1556h-684v127h684v-127z" />
    <glyph glyph-name="imacron" unicode="&#x12b;" horiz-adv-x="541" 
d="M387 205q-130 -228 -268 -228q-127 0 -127 127q0 32 22 113l84 301q21 74 21 100q0 38 -82 37l-2 60q211 25 340 51l-150 -557q-12 -46 -12 -70q0 -20 16 -20q32 0 111 119zM587 997h-565v127h565v-127z" />
    <glyph glyph-name="Ibreve" unicode="&#x12c;" horiz-adv-x="729" 
d="M823 1260q-103 0 -147 -53q-31 -36 -62 -148l-221 -821q-18 -69 -18 -103q0 -81 139 -90v-45h-608v45q102 0 147 54q32 37 62 149l221 821q14 53 14 102q0 80 -137 89v47h610v-47zM956 1683q-33 -129 -141 -208.5t-246 -79.5q-134 0 -215.5 75t-81.5 205v8h52
q46 -139 270 -139q225 0 311 139h51z" />
    <glyph glyph-name="ibreve" unicode="&#x12d;" horiz-adv-x="541" 
d="M387 205q-130 -228 -268 -228q-127 0 -127 127q0 32 22 113l84 301q21 74 21 100q0 38 -82 37l-2 60q211 25 340 51l-150 -557q-12 -46 -12 -70q0 -20 16 -20q32 0 111 119zM625 1260q-74 -334 -332 -334q-233 0 -233 297v37h47q32 -168 213 -168q178 0 258 168h47z" />
    <glyph glyph-name="Iogonek" unicode="&#x12e;" horiz-adv-x="729" 
d="M823 1260q-103 0 -147 -53q-31 -36 -62 -148l-221 -821q-18 -69 -18 -103q0 -81 139 -90v-45h-608v45q102 0 147 54q32 37 62 149l221 821q14 53 14 102q0 80 -137 89v47h610v-47zM541 -231q0 -10 -8 -17q-116 -98 -240 -98q-65 0 -110 38q-48 40 -48 105q0 85 123 203
h74q-70 -87 -70 -139q0 -49 32 -82t81 -33q45 0 131 45q4 2 10 4q25 0 25 -26z" />
    <glyph glyph-name="iogonek" unicode="&#x12f;" horiz-adv-x="541" 
d="M436 1010q0 -50 -34.5 -83.5t-84.5 -33.5q-48 0 -82 34t-34 83t33.5 82.5t82.5 33.5q50 0 84.5 -33.5t34.5 -82.5zM387 205q-130 -228 -268 -228q-127 0 -127 127q0 32 22 113l84 301q21 74 21 100q0 38 -82 37l-2 60q211 25 340 51l-150 -557q-12 -46 -12 -70
q0 -20 16 -20q32 0 111 119zM414 -231q0 -10 -8 -17q-116 -98 -240 -98q-65 0 -110 38q-48 40 -48 105q0 85 123 203h74q-70 -87 -70 -139q0 -49 32 -82t81 -33q45 0 131 45q4 2 10 4q25 0 25 -26z" />
    <glyph glyph-name="Idotaccent" unicode="&#x130;" horiz-adv-x="729" 
d="M823 1260q-103 0 -147 -53q-31 -36 -62 -148l-221 -821q-18 -69 -18 -103q0 -81 139 -90v-45h-608v45q102 0 147 54q32 37 62 149l221 821q14 53 14 102q0 80 -137 89v47h610v-47zM687 1569q0 -48 -34 -81.5t-81 -33.5q-48 0 -81.5 33.5t-33.5 81.5q0 47 33.5 80.5
t81.5 33.5q47 0 81 -33.5t34 -80.5z" />
    <glyph glyph-name="dotlessi" unicode="&#x131;" horiz-adv-x="541" 
d="M387 205q-130 -228 -268 -228q-127 0 -127 127q0 32 22 113l84 301q21 74 21 100q0 38 -82 37l-2 60q211 25 340 51l-150 -557q-12 -46 -12 -70q0 -20 16 -20q32 0 111 119z" />
    <glyph glyph-name="Jcircumflex" unicode="&#x134;" horiz-adv-x="729" 
d="M823 1260q-103 0 -147 -53q-32 -36 -62 -148l-303 -1137q-45 -171 -138 -247q-97 -81 -271 -81q-283 0 -283 201q0 58 38.5 97.5t96.5 39.5q115 0 115 -102q0 -31 -21.5 -76.5t-21.5 -50.5q0 -35 47 -35q87 0 135 180l328 1221q14 53 14 102q0 80 -137 89v47h610v-47z
M861 1389q0 -16 -18.5 -34t-35.5 -18q-9 0 -18 6l-238 170l-282 -170q-10 -6 -23 -6q-41 0 -41 47q0 12 15 25l245 223q57 51 111 51q52 0 94 -51l184 -223q7 -8 7 -20z" />
    <glyph glyph-name="jcircumflex" unicode="&#x135;" horiz-adv-x="502" 
d="M375 766l-174 -682q-48 -187 -114 -283q-96 -141 -253 -141q-69 0 -119 35q-55 40 -55 106q0 101 94 101q38 0 63 -24.5t25 -61.5q0 -18 -13 -43.5t-13 -28.5q0 -8 22 -8q60 0 105 174l155 608q23 88 23 100q0 37 -82 37l-4 60q213 26 340 51zM524 877q0 -10 -18 -22.5
t-29 -12.5q-10 0 -16 10l-168 254l-238 -254q-9 -10 -20 -10t-23 11t-12 21q0 6 4 13l227 356q32 49 90 49q57 0 74 -49l125 -356q4 -12 4 -10z" />
    <glyph glyph-name="Kcedilla" unicode="&#x136;" horiz-adv-x="1241" 
d="M1335 1260q-73 0 -205 -123l-389 -363l285 -610q28 -60 54 -82q32 -29 91 -31v-51h-548v51h22q105 0 105 64q0 31 -43 123l-183 389q-6 13 -16 14q-8 -5 -12 -20l-101 -383q-18 -71 -18 -103q0 -81 137 -90v-45h-608v45q102 0 147 54q32 37 62 149l221 821q14 53 14 94
q0 57 -42 79q-27 14 -93 18v47h608v-47q-102 0 -147 -53q-32 -37 -62 -148l-92 -346q-1 -6 -4 -17l2 -4h4q11 0 363 322q149 136 149 186q0 55 -104 66v41h403v-47zM603 -356q0 -186 -232 -283q-5 -2 -12 -2q-8 0 -22.5 24t-14.5 33q0 11 14 19q150 77 150 133
q0 38 -78 70.5t-78 105.5q0 44 36 70q32 24 75 24q74 0 120 -63q42 -57 42 -131z" />
    <glyph glyph-name="kcedilla" unicode="&#x137;" horiz-adv-x="862" 
d="M784 688q-70 -9 -165 -79q-11 -8 -146 -120q50 -368 113 -368q36 0 82 104l55 -26q-105 -222 -225 -222q-105 0 -158 135q-25 62 -51 224l-41 -33l-80 -303h-217l244 911q18 69 18 88q0 35 -38 42q-5 0 -64 -1l2 64q155 11 358 49l-190 -723q229 176 229 221q0 34 -78 37
v62h352v-62zM357 -356q0 -186 -232 -283q-5 -2 -12 -2q-8 0 -22.5 24t-14.5 33q0 11 14 19q150 77 150 133q0 38 -78 70.5t-78 105.5q0 44 36 70q32 24 75 24q74 0 120 -63q42 -57 42 -131z" />
    <glyph glyph-name="kgreenlandic" unicode="&#x138;" horiz-adv-x="883" 
d="M766 657q0 -90 -84 -90q-36 0 -58 23q-30 32 -36 35q-2 -2 -42.5 -88t-101.5 -123q47 -49 91 -142q63 -135 73 -153q24 -40 41 -52q21 -14 66 -14l-10 -53h-267l-166 367l-94 -367h-213l139 516q23 84 23 102q0 36 -84 35l-2 60q211 25 342 53l-84 -311h27q91 0 138 79
q32 74 65 148q42 80 122 80q48 0 81.5 -28.5t33.5 -76.5z" />
    <glyph glyph-name="Lacute" unicode="&#x139;" horiz-adv-x="1223" 
d="M1141 387l-123 -387h-1112v45q102 0 147 54q32 37 62 149l221 821q14 53 14 94q0 92 -137 97v47h610v-47q-102 0 -147 -53q-32 -37 -62 -148l-217 -819q-22 -85 -22 -117q0 -55 153 -55q199 0 328 71q138 76 223 248h62zM846 1602q0 -53 -74 -97l-274 -162q-11 -6 -21 -6
q-16 0 -31.5 16.5t-15.5 32.5q0 12 10 23l215 223q50 51 103 51q34 0 61 -24t27 -57z" />
    <glyph glyph-name="lacute" unicode="&#x13a;" horiz-adv-x="506" 
d="M461 1155l-254 -946q-14 -54 -14 -70q0 -20 16 -20q35 0 113 119l47 -35q-140 -226 -265 -226q-131 0 -131 127q0 39 21 113l190 688q21 74 21 103q0 35 -82 34l-2 60q192 23 340 53zM608 1597q0 -55 -43 -110l-256 -330q-8 -10 -18 -10q-9 0 -26 11.5t-17 22.5q0 7 2 11
l155 389q41 102 111 102q35 0 63.5 -25t28.5 -61z" />
    <glyph glyph-name="Lcedilla" unicode="&#x13b;" horiz-adv-x="1223" 
d="M1141 387l-123 -387h-1112v45q102 0 147 54q32 37 62 149l221 821q14 53 14 94q0 92 -137 97v47h610v-47q-102 0 -147 -53q-32 -37 -62 -148l-217 -819q-22 -85 -22 -117q0 -55 153 -55q199 0 328 71q138 76 223 248h62zM623 -356q0 -186 -232 -283q-5 -2 -12 -2
q-8 0 -22.5 24t-14.5 33q0 11 14 19q150 77 150 133q0 38 -78 70.5t-78 105.5q0 44 36 70q32 24 75 24q74 0 120 -63q42 -57 42 -131z" />
    <glyph glyph-name="lcedilla" unicode="&#x13c;" horiz-adv-x="506" 
d="M461 1155l-254 -946q-14 -54 -14 -70q0 -20 16 -20q35 0 113 119l47 -35q-140 -226 -265 -226q-131 0 -131 127q0 39 21 113l190 688q21 74 21 103q0 35 -82 34l-2 60q192 23 340 53zM193 -356q0 -186 -232 -283q-5 -2 -12 -2q-8 0 -22.5 24t-14.5 33q0 11 14 19
q150 77 150 133q0 38 -78 70.5t-78 105.5q0 44 36 70q32 24 75 24q74 0 120 -63q42 -57 42 -131z" />
    <glyph glyph-name="Lcaron" unicode="&#x13d;" horiz-adv-x="1223" 
d="M1141 387l-123 -387h-1112v45q102 0 147 54q32 37 62 149l221 821q14 53 14 94q0 92 -137 97v47h610v-47q-102 0 -147 -53q-32 -37 -62 -148l-217 -819q-22 -85 -22 -117q0 -55 153 -55q199 0 328 71q138 76 223 248h62zM1306 1118q0 -185 -231 -282q-5 -2 -13 -2
q-7 0 -21.5 24t-14.5 33q0 11 14 18q149 78 149 133q0 39 -77.5 71.5t-77.5 105.5q0 43 36 70q32 24 74 24q75 0 121 -64q41 -56 41 -131z" />
    <glyph glyph-name="lcaron" unicode="&#x13e;" horiz-adv-x="856" 
d="M461 1155l-254 -946q-14 -54 -14 -70q0 -20 16 -20q35 0 113 119l47 -35q-140 -226 -265 -226q-131 0 -131 127q0 39 21 113l190 688q21 74 21 103q0 35 -82 34l-2 60q192 23 340 53zM856 1118q0 -185 -231 -282q-5 -2 -13 -2q-7 0 -21.5 24t-14.5 33q0 11 14 18
q149 78 149 133q0 39 -77.5 71.5t-77.5 105.5q0 43 36 70q32 24 74 24q75 0 121 -64q41 -56 41 -131z" />
    <glyph glyph-name="Ldot" unicode="&#x13f;" horiz-adv-x="1223" 
d="M1141 387l-123 -387h-1112v45q102 0 147 54q32 37 62 149l221 821q14 53 14 94q0 92 -137 97v47h610v-47q-102 0 -147 -53q-32 -37 -62 -148l-217 -819q-22 -85 -22 -117q0 -55 153 -55q199 0 328 71q138 76 223 248h62zM1110 735q0 -54 -37 -90.5t-90 -36.5t-89 37
t-36 90t36 89t89 36t90 -36t37 -89z" />
    <glyph glyph-name="ldot" unicode="&#x140;" horiz-adv-x="780" 
d="M461 1155l-254 -946q-14 -54 -14 -70q0 -20 16 -20q35 0 113 119l47 -35q-140 -226 -265 -226q-131 0 -131 127q0 39 21 113l190 688q21 74 21 103q0 35 -82 34l-2 60q192 23 340 53zM731 633q0 -48 -33.5 -81.5t-81.5 -33.5t-81.5 33.5t-33.5 81.5t33.5 81.5t81.5 33.5
t81.5 -33.5t33.5 -81.5z" />
    <glyph glyph-name="Lslash" unicode="&#x141;" horiz-adv-x="1223" 
d="M1141 387l-123 -387h-1112v45q102 0 147 54q32 37 62 149l92 342l-242 -86l29 108l242 86l100 371q14 53 14 94q0 92 -137 97v47h610v-47q-102 0 -147 -53q-32 -37 -62 -148l-67 -252l366 129l-30 -109l-365 -129l-121 -458q-22 -85 -22 -117q0 -55 153 -55q199 0 328 71
q138 76 223 248h62z" />
    <glyph glyph-name="lslash" unicode="&#x142;" horiz-adv-x="506" 
d="M500 801l-35 -123l-158 -92l-100 -377q-14 -54 -14 -70q0 -20 16 -20q35 0 113 119l47 -35q-140 -226 -265 -226q-131 0 -131 127q0 39 21 113l61 221l-135 -80l33 121l135 80l96 346q21 74 21 103q0 35 -82 34l-2 60q192 23 340 53l-121 -448z" />
    <glyph glyph-name="Nacute" unicode="&#x143;" horiz-adv-x="1376" 
d="M1470 1260q-102 0 -148 -53q-32 -38 -62 -148l-297 -1090h-60l-491 1049l-209 -780q-19 -69 -19 -103q0 -81 140 -90v-45h-418v45q101 0 147 54q33 39 62 149l207 780q20 77 20 119q0 104 -149 113v47h385l411 -908l182 670q19 68 19 96q0 90 -137 95v47h417v-47z
M1112 1602q0 -53 -74 -97l-274 -162q-11 -6 -21 -6q-16 0 -31.5 16.5t-15.5 32.5q0 12 10 23l215 223q50 51 103 51q34 0 61 -24t27 -57z" />
    <glyph glyph-name="nacute" unicode="&#x144;" horiz-adv-x="938" 
d="M784 205q-147 -230 -270 -230q-119 0 -119 131q0 68 50 220q39 110 77 221q13 37 13 57q0 25 -21 25q-81 0 -180.5 -172.5t-165.5 -456.5h-213l137 518q23 85 23 100q0 38 -80 37l-4 60q131 13 348 51l-70 -231q160 231 309 231q132 0 132 -131q0 -66 -53 -224
q-39 -116 -79 -231q-8 -28 -8 -35q0 -24 19 -24q26 0 104 117zM772 1284q0 -55 -43 -110l-256 -330q-8 -10 -18 -10q-9 0 -26 11.5t-17 22.5q0 7 2 11l155 389q41 102 111 102q35 0 63.5 -25t28.5 -61z" />
    <glyph glyph-name="Ncedilla" unicode="&#x145;" horiz-adv-x="1376" 
d="M1470 1260q-102 0 -148 -53q-32 -38 -62 -148l-297 -1090h-60l-491 1049l-209 -780q-19 -69 -19 -103q0 -81 140 -90v-45h-418v45q101 0 147 54q33 39 62 149l207 780q20 77 20 119q0 104 -149 113v47h385l411 -908l182 670q19 68 19 96q0 90 -137 95v47h417v-47z
M644 -356q0 -186 -232 -283q-5 -2 -12 -2q-8 0 -22.5 24t-14.5 33q0 11 14 19q150 77 150 133q0 38 -78 70.5t-78 105.5q0 44 36 70q32 24 75 24q74 0 120 -63q42 -57 42 -131z" />
    <glyph glyph-name="ncedilla" unicode="&#x146;" horiz-adv-x="938" 
d="M784 205q-147 -230 -270 -230q-119 0 -119 131q0 68 50 220q39 110 77 221q13 37 13 57q0 25 -21 25q-81 0 -180.5 -172.5t-165.5 -456.5h-213l137 518q23 85 23 100q0 38 -80 37l-4 60q131 13 348 51l-70 -231q160 231 309 231q132 0 132 -131q0 -66 -53 -224
q-39 -116 -79 -231q-8 -28 -8 -35q0 -24 19 -24q26 0 104 117zM357 -356q0 -186 -232 -283q-5 -2 -12 -2q-8 0 -22.5 24t-14.5 33q0 11 14 19q150 77 150 133q0 38 -78 70.5t-78 105.5q0 44 36 70q32 24 75 24q74 0 120 -63q42 -57 42 -131z" />
    <glyph glyph-name="Ncaron" unicode="&#x147;" horiz-adv-x="1376" 
d="M1470 1260q-102 0 -148 -53q-32 -38 -62 -148l-297 -1090h-60l-491 1049l-209 -780q-19 -69 -19 -103q0 -81 140 -90v-45h-418v45q101 0 147 54q33 39 62 149l207 780q20 77 20 119q0 104 -149 113v47h385l411 -908l182 670q19 68 19 96q0 90 -137 95v47h417v-47z
M1292 1636q0 -14 -14 -24l-307 -223q-71 -52 -111 -52q-38 0 -94 52l-246 223q-6 5 -6 18q0 18 18 35.5t35 17.5q7 0 19 -6l299 -166l344 166q12 6 22 6q41 0 41 -47z" />
    <glyph glyph-name="ncaron" unicode="&#x148;" horiz-adv-x="938" 
d="M784 205q-147 -230 -270 -230q-119 0 -119 131q0 68 50 220q39 110 77 221q13 37 13 57q0 25 -21 25q-81 0 -180.5 -172.5t-165.5 -456.5h-213l137 518q23 85 23 100q0 38 -80 37l-4 60q131 13 348 51l-70 -231q160 231 309 231q132 0 132 -131q0 -66 -53 -224
q-39 -116 -79 -231q-8 -28 -8 -35q0 -24 19 -24q26 0 104 117zM820 1260q0 -7 -4 -13l-248 -364q-34 -49 -90 -49q-54 0 -74 49l-146 364q-4 11 -4 10q0 10 18.5 22.5t28.5 12.5q9 0 17 -10l188 -254l258 254q11 10 21 10t22.5 -11t12.5 -21z" />
    <glyph glyph-name="napostrophe" unicode="&#x149;" horiz-adv-x="1169" 
d="M1015 205q-147 -230 -270 -230q-119 0 -119 131q0 68 50 220q39 110 77 221q13 37 13 57q0 25 -21 25q-81 0 -180.5 -172.5t-165.5 -456.5h-213l137 518q23 85 23 100q0 38 -80 37l-4 60q131 13 348 51l-70 -231q160 231 309 231q132 0 132 -131q0 -66 -53 -224
q-39 -116 -79 -231q-8 -28 -8 -35q0 -24 19 -24q26 0 104 117zM330 1118q0 -185 -231 -282q-5 -2 -13 -2q-7 0 -21.5 24t-14.5 33q0 11 14 18q149 78 149 133q0 39 -77.5 71.5t-77.5 105.5q0 43 36 70q32 24 74 24q75 0 121 -64q41 -56 41 -131z" />
    <glyph glyph-name="Eng" unicode="&#x14a;" horiz-adv-x="1376" 
d="M1470 1260q-102 0 -148 -53q-32 -38 -62 -148l-326 -1196q-73 -266 -266 -266q-79 0 -139 36q-70 43 -70 117q0 43 30.5 70.5t73.5 27.5q55 0 77 -36q14 -23 17 -73q3 -45 11 -52q11 -11 32 -11q88 0 136 168l47 168l-471 1006l-209 -780q-19 -69 -19 -93q0 -92 140 -100
v-45h-418v45q102 0 147 54q32 38 62 149l207 780q20 77 20 119q0 104 -149 113v47h385l411 -908l182 670q19 68 19 96q0 90 -137 95v47h417v-47z" />
    <glyph glyph-name="eng" unicode="&#x14b;" horiz-adv-x="928" 
d="M795 633q0 -56 -54 -219l-100 -308q-92 -281 -164 -360q-76 -84 -194 -84q-74 0 -123 37q-54 42 -54 113q0 90 80 90q49 0 66 -41q7 -18 13 -76q4 -41 20 -41q34 0 114 256l170 545q8 23 -1 51q-9 33 -33 33q-50 0 -116 -65q-52 -51 -85 -107q-100 -173 -166 -457h-213
l137 518q23 85 23 100q0 38 -80 37l-4 60q131 13 348 51l-70 -231q160 231 330 231q66 0 109 -35q47 -37 47 -98z" />
    <glyph glyph-name="Omacron" unicode="&#x14c;" horiz-adv-x="1409" 
d="M1343 870q0 -330 -240 -612q-252 -295 -577 -295q-218 0 -343 134q-122 130 -122 349q0 246 164 494t389 346q128 55 260 55q217 0 343 -127t126 -344zM1061 1014q0 260 -199 260q-169 0 -312 -245q-99 -171 -159 -398q-49 -188 -49 -334q0 -260 199 -260q220 0 384 391
q136 325 136 586zM1262 1556h-684v127h684v-127z" />
    <glyph glyph-name="omacron" unicode="&#x14d;" horiz-adv-x="838" 
d="M705 498q0 -132 -84.5 -274.5t-200.5 -205.5q-84 -45 -182 -45q-120 0 -193.5 75.5t-73.5 195.5q0 181 138 347q144 175 321 175q126 0 200.5 -71.5t74.5 -196.5zM494 588q0 106 -72 106q-93 0 -173 -231q-67 -194 -67 -316q0 -98 74 -98q91 0 171 228q67 192 67 311z
M731 997h-565v127h565v-127z" />
    <glyph glyph-name="Obreve" unicode="&#x14e;" horiz-adv-x="1409" 
d="M1343 870q0 -330 -240 -612q-252 -295 -577 -295q-218 0 -343 134q-122 130 -122 349q0 246 164 494t389 346q128 55 260 55q217 0 343 -127t126 -344zM1061 1014q0 260 -199 260q-169 0 -312 -245q-99 -171 -159 -398q-49 -188 -49 -334q0 -260 199 -260q220 0 384 391
q136 325 136 586zM1304 1683q-33 -129 -141 -208.5t-246 -79.5q-134 0 -215.5 75t-81.5 205v8h52q46 -139 270 -139q225 0 311 139h51z" />
    <glyph glyph-name="obreve" unicode="&#x14f;" horiz-adv-x="838" 
d="M705 498q0 -132 -84.5 -274.5t-200.5 -205.5q-84 -45 -182 -45q-120 0 -193.5 75.5t-73.5 195.5q0 181 138 347q144 175 321 175q126 0 200.5 -71.5t74.5 -196.5zM494 588q0 106 -72 106q-93 0 -173 -231q-67 -194 -67 -316q0 -98 74 -98q91 0 171 228q67 192 67 311z
M830 1260q-74 -334 -332 -334q-233 0 -233 297v37h47q32 -168 213 -168q178 0 258 168h47z" />
    <glyph glyph-name="Odblacute" unicode="&#x150;" horiz-adv-x="1409" 
d="M1343 870q0 -330 -240 -612q-252 -295 -577 -295q-218 0 -343 134q-122 130 -122 349q0 246 164 494t389 346q128 55 260 55q217 0 343 -127t126 -344zM1061 1014q0 260 -199 260q-169 0 -312 -245q-99 -171 -159 -398q-49 -188 -49 -334q0 -260 199 -260q220 0 384 391
q136 325 136 586zM1418 1602q0 -53 -74 -97l-275 -162q-10 -6 -20 -6q-16 0 -31.5 16.5t-15.5 32.5q0 12 10 23l215 223q49 51 103 51q34 0 61 -24t27 -57zM1008 1602q0 -53 -74 -97l-274 -162q-11 -6 -21 -6q-16 0 -31.5 16.5t-15.5 32.5q0 12 11 23l215 223q49 51 102 51
q34 0 61 -24t27 -57z" />
    <glyph glyph-name="odblacute" unicode="&#x151;" horiz-adv-x="838" 
d="M705 498q0 -132 -84.5 -274.5t-200.5 -205.5q-84 -45 -182 -45q-120 0 -193.5 75.5t-73.5 195.5q0 181 138 347q144 175 321 175q126 0 200.5 -71.5t74.5 -196.5zM494 588q0 106 -72 106q-93 0 -173 -231q-67 -194 -67 -316q0 -98 74 -98q91 0 171 228q67 192 67 311z
M885 1284q0 -55 -43 -110l-256 -330q-8 -10 -18 -10q-9 0 -26 11.5t-17 22.5q1 7 2 11l155 389q41 102 111 102q35 0 63.5 -25t28.5 -61zM537 1284q0 -55 -43 -110l-256 -330q-8 -10 -18 -10t-26.5 11.5t-16.5 22.5q0 7 2 11l155 389q41 102 111 102q35 0 63.5 -25t28.5 -61
z" />
    <glyph glyph-name="Racute" unicode="&#x154;" horiz-adv-x="1286" 
d="M1206 1014q0 -141 -121 -235q-98 -76 -254 -109l164 -494q23 -67 59.5 -93.5t108.5 -31.5v-51h-389l-209 645h-61l-109 -407q-18 -70 -18 -103q0 -82 137 -90v-45h-608v45q102 0 147 54q32 38 62 149l221 821q14 53 14 94q0 89 -135 97v47h520q471 0 471 -293zM909 1055
q0 190 -174 190q-47 0 -66 -22q-12 -14 -26 -66l-121 -444q20 -2 53 -2q156 0 245 93.5t89 250.5zM948 1602q0 -53 -74 -97l-274 -162q-11 -6 -21 -6q-16 0 -31.5 16.5t-15.5 32.5q0 12 10 23l215 223q50 51 103 51q34 0 61 -24t27 -57z" />
    <glyph glyph-name="racute" unicode="&#x155;" horiz-adv-x="692" 
d="M637 647q0 -123 -105 -123q-40 0 -71 28t-27 28q-44 0 -121 -158q-73 -151 -143 -422h-215l137 518q23 85 23 100q0 38 -80 37l-4 60q131 14 348 51l-66 -213q123 213 224 213q100 0 100 -119zM608 1284q0 -55 -43 -110l-256 -330q-8 -10 -18 -10q-9 0 -26 11.5t-17 22.5
q0 7 2 11l155 389q41 102 111 102q35 0 63.5 -25t28.5 -61z" />
    <glyph glyph-name="Rcedilla" unicode="&#x156;" horiz-adv-x="1286" 
d="M1206 1014q0 -141 -121 -235q-98 -76 -254 -109l164 -494q23 -67 59.5 -93.5t108.5 -31.5v-51h-389l-209 645h-61l-109 -407q-18 -70 -18 -103q0 -82 137 -90v-45h-608v45q102 0 147 54q32 38 62 149l221 821q14 53 14 94q0 89 -135 97v47h520q471 0 471 -293zM909 1055
q0 190 -174 190q-47 0 -66 -22q-12 -14 -26 -66l-121 -444q20 -2 53 -2q156 0 245 93.5t89 250.5zM623 -356q0 -186 -232 -283q-5 -2 -12 -2q-8 0 -22.5 24t-14.5 33q0 11 14 19q150 77 150 133q0 38 -78 70.5t-78 105.5q0 44 36 70q32 24 75 24q74 0 120 -63
q42 -57 42 -131z" />
    <glyph glyph-name="rcedilla" unicode="&#x157;" horiz-adv-x="692" 
d="M637 647q0 -123 -105 -123q-40 0 -71 28t-27 28q-44 0 -121 -158q-73 -151 -143 -422h-215l137 518q23 85 23 100q0 38 -80 37l-4 60q131 14 348 51l-66 -213q123 213 224 213q100 0 100 -119zM254 -356q0 -186 -232 -283q-5 -2 -12 -2q-8 0 -22.5 24t-14.5 33
q0 11 14 19q150 77 150 133q0 38 -78 70.5t-78 105.5q0 44 36 70q32 24 75 24q74 0 120 -63q42 -57 42 -131z" />
    <glyph glyph-name="Rcaron" unicode="&#x158;" horiz-adv-x="1286" 
d="M1206 1014q0 -141 -121 -235q-98 -76 -254 -109l164 -494q23 -67 59.5 -93.5t108.5 -31.5v-51h-389l-209 645h-61l-109 -407q-18 -70 -18 -103q0 -82 137 -90v-45h-608v45q102 0 147 54q32 38 62 149l221 821q14 53 14 94q0 89 -135 97v47h520q471 0 471 -293zM909 1055
q0 190 -174 190q-47 0 -66 -22q-12 -14 -26 -66l-121 -444q20 -2 53 -2q156 0 245 93.5t89 250.5zM1169 1636q0 -14 -14 -24l-307 -223q-71 -52 -111 -52q-38 0 -94 52l-246 223q-6 5 -6 18q0 18 18 35.5t35 17.5q7 0 19 -6l299 -166l344 166q12 6 22 6q41 0 41 -47z" />
    <glyph glyph-name="rcaron" unicode="&#x159;" horiz-adv-x="692" 
d="M637 647q0 -123 -105 -123q-40 0 -71 28t-27 28q-44 0 -121 -158q-73 -151 -143 -422h-215l137 518q23 85 23 100q0 38 -80 37l-4 60q131 14 348 51l-66 -213q123 213 224 213q100 0 100 -119zM717 1260q0 -7 -4 -13l-248 -364q-34 -49 -90 -49q-54 0 -74 49l-146 364
q-4 11 -4 10q0 10 18.5 22.5t28.5 12.5q9 0 17 -10l188 -254l258 254q11 10 21 10t22.5 -11t12.5 -21z" />
    <glyph glyph-name="Sacute" unicode="&#x15a;" horiz-adv-x="1114" 
d="M1065 1319l-92 -395h-55q0 4 1 15t1 17q0 121 -61 205q-67 94 -183 94q-88 0 -145.5 -57t-57.5 -145q0 -98 172 -250q143 -127 193 -193q90 -119 90 -252q0 -195 -132 -300q-121 -97 -321 -97q-96 0 -205 39q-114 41 -127 41q-44 0 -82 -64h-53l101 437h55
q0 -377 285 -377q98 0 168.5 71.5t70.5 170.5q0 98 -117 216q-109 105 -218 209q-117 131 -117 259q0 162 116 264q112 98 277 98q84 0 186 -30.5t111 -30.5q49 0 86 55h53zM928 1602q0 -53 -74 -97l-274 -162q-11 -6 -21 -6q-16 0 -31.5 16.5t-15.5 32.5q0 12 10 23
l215 223q50 51 103 51q34 0 61 -24t27 -57z" />
    <glyph glyph-name="sacute" unicode="&#x15b;" horiz-adv-x="676" 
d="M571 758l-39 -266l-57 6q-33 194 -145 194q-80 0 -80 -69q0 -43 147 -232q78 -100 78 -186q0 -103 -72.5 -167.5t-177.5 -64.5q-53 0 -114.5 20.5t-67.5 20.5q-26 0 -47 -34l-59 8l45 293l65 -11q17 -219 156 -219q82 0 82 82q0 49 -109.5 192t-109.5 230q0 90 64 148.5
t155 58.5q57 0 118.5 -16.5t67.5 -16.5q29 0 41 29h59zM608 1284q0 -55 -43 -110l-256 -330q-8 -10 -18 -10q-9 0 -26 11.5t-17 22.5q0 7 2 11l155 389q41 102 111 102q35 0 63.5 -25t28.5 -61z" />
    <glyph glyph-name="Scircumflex" unicode="&#x15c;" horiz-adv-x="1114" 
d="M1065 1319l-92 -395h-55q0 4 1 15t1 17q0 121 -61 205q-67 94 -183 94q-88 0 -145.5 -57t-57.5 -145q0 -98 172 -250q143 -127 193 -193q90 -119 90 -252q0 -195 -132 -300q-121 -97 -321 -97q-96 0 -205 39q-114 41 -127 41q-44 0 -82 -64h-53l101 437h55
q0 -377 285 -377q98 0 168.5 71.5t70.5 170.5q0 98 -117 216q-109 105 -218 209q-117 131 -117 259q0 162 116 264q112 98 277 98q84 0 186 -30.5t111 -30.5q49 0 86 55h53zM1004 1389q0 -16 -18.5 -34t-35.5 -18q-9 0 -18 6l-238 170l-282 -170q-10 -6 -23 -6q-41 0 -41 47
q0 12 15 25l245 223q57 51 111 51q52 0 94 -51l184 -223q7 -8 7 -20z" />
    <glyph glyph-name="scircumflex" unicode="&#x15d;" horiz-adv-x="676" 
d="M571 758l-39 -266l-57 6q-33 194 -145 194q-80 0 -80 -69q0 -43 147 -232q78 -100 78 -186q0 -103 -72.5 -167.5t-177.5 -64.5q-53 0 -114.5 20.5t-67.5 20.5q-26 0 -47 -34l-59 8l45 293l65 -11q17 -219 156 -219q82 0 82 82q0 49 -109.5 192t-109.5 230q0 90 64 148.5
t155 58.5q57 0 118.5 -16.5t67.5 -16.5q29 0 41 29h59zM643 868q0 -9 -18 -21.5t-29 -12.5q-9 0 -16 10l-189 254l-258 -254q-10 -10 -20 -10t-22.5 11t-12.5 21q0 7 4 13l248 364q33 49 90 49q54 0 74 -49l145 -364z" />
    <glyph glyph-name="Scedilla" unicode="&#x15e;" horiz-adv-x="1114" 
d="M1065 1319l-92 -395h-55q0 4 1 15t1 17q0 121 -61 205q-67 94 -183 94q-88 0 -145.5 -57t-57.5 -145q0 -98 172 -250q143 -127 193 -193q90 -119 90 -252q0 -195 -132 -300q-121 -97 -321 -97q-96 0 -205 39q-114 41 -127 41q-44 0 -82 -64h-53l101 437h55
q0 -377 285 -377q98 0 168.5 71.5t70.5 170.5q0 98 -117 216q-109 105 -218 209q-117 131 -117 259q0 162 116 264q112 98 277 98q84 0 186 -30.5t111 -30.5q49 0 86 55h53zM664 -311q0 -99 -91 -161q-79 -54 -180 -54q-60 0 -116 18q-76 25 -76 72q0 57 63 57q15 0 68 -31
q45 -26 86 -26q104 0 104 86q0 100 -121 100q-8 0 -25 -3t-26 -3q-51 0 -51 47q0 13 221 236l51 -27l-90 -127q75 -15 125 -59q58 -51 58 -125z" />
    <glyph glyph-name="scedilla" unicode="&#x15f;" horiz-adv-x="676" 
d="M571 758l-39 -266l-57 6q-33 194 -145 194q-80 0 -80 -69q0 -43 147 -232q78 -100 78 -186q0 -103 -72.5 -167.5t-177.5 -64.5q-53 0 -114.5 20.5t-67.5 20.5q-26 0 -47 -34l-59 8l45 293l65 -11q17 -219 156 -219q82 0 82 82q0 49 -109.5 192t-109.5 230q0 90 64 148.5
t155 58.5q57 0 118.5 -16.5t67.5 -16.5q29 0 41 29h59zM352 -240q0 -75 -69 -122q-61 -41 -137 -41q-44 0 -88 14q-58 20 -58 55q0 45 49 45q13 0 52 -22q34 -21 63 -21q76 0 76 62q0 73 -86 73q-7 0 -20 -2t-19 -2q-41 0 -41 37q0 11 168 180l43 -22l-66 -94
q133 -29 133 -140z" />
    <glyph glyph-name="Scaron" unicode="&#x160;" horiz-adv-x="1114" 
d="M1065 1319l-92 -395h-55q0 4 1 15t1 17q0 121 -61 205q-67 94 -183 94q-88 0 -145.5 -57t-57.5 -145q0 -98 172 -250q143 -127 193 -193q90 -119 90 -252q0 -195 -132 -300q-121 -97 -321 -97q-96 0 -205 39q-114 41 -127 41q-44 0 -82 -64h-53l101 437h55
q0 -377 285 -377q98 0 168.5 71.5t70.5 170.5q0 98 -117 216q-109 105 -218 209q-117 131 -117 259q0 162 116 264q112 98 277 98q84 0 186 -30.5t111 -30.5q49 0 86 55h53zM1108 1636q0 -14 -14 -24l-307 -223q-71 -52 -111 -52q-38 0 -94 52l-246 223q-6 5 -6 18
q0 18 18 35.5t35 17.5q7 0 19 -6l299 -166l344 166q12 6 22 6q41 0 41 -47z" />
    <glyph glyph-name="scaron" unicode="&#x161;" horiz-adv-x="676" 
d="M571 758l-39 -266l-57 6q-33 194 -145 194q-80 0 -80 -69q0 -43 147 -232q78 -100 78 -186q0 -103 -72.5 -167.5t-177.5 -64.5q-53 0 -114.5 20.5t-67.5 20.5q-26 0 -47 -34l-59 8l45 293l65 -11q17 -219 156 -219q82 0 82 82q0 49 -109.5 192t-109.5 230q0 90 64 148.5
t155 58.5q57 0 118.5 -16.5t67.5 -16.5q29 0 41 29h59zM676 1260q0 -7 -4 -13l-248 -364q-34 -49 -90 -49q-54 0 -74 49l-146 364q-4 11 -4 10q0 10 18.5 22.5t28.5 12.5q9 0 17 -10l188 -254l258 254q11 10 21 10t22.5 -11t12.5 -21z" />
    <glyph glyph-name="Tcedilla" unicode="&#x162;" horiz-adv-x="1151" 
d="M1266 1307l-56 -373h-55q-20 303 -268 303l-289 -1061q-6 -22 -6 -43q0 -74 139 -84v-49h-606v49q151 8 182 125l285 1065q-283 0 -408 -281h-51l74 349h1059zM603 -311q0 -99 -91 -161q-79 -54 -180 -54q-60 0 -116 18q-76 25 -76 72q0 57 63 57q15 0 68 -31
q45 -26 86 -26q104 0 104 86q0 100 -121 100q-8 0 -25 -3t-26 -3q-51 0 -51 47q0 13 221 236l51 -27l-90 -127q75 -15 125 -59q58 -51 58 -125z" />
    <glyph glyph-name="tcedilla" unicode="&#x163;" horiz-adv-x="557" 
d="M483 741l-22 -84h-127l-119 -405q-22 -77 -22 -109q0 -28 14 -28q35 0 121 135l53 -37q-142 -238 -287 -238q-121 0 -121 125q0 37 21 111l123 446h-76v72q172 60 299 248h84l-68 -236h127zM229 -240q0 -75 -69 -122q-61 -41 -137 -41q-44 0 -88 14q-58 20 -58 55
q0 45 49 45q13 0 52 -22q34 -21 63 -21q76 0 76 62q0 73 -86 73q-7 0 -20 -2t-19 -2q-41 0 -41 37q0 11 168 180l43 -22l-66 -94q133 -29 133 -140z" />
    <glyph glyph-name="Tcaron" unicode="&#x164;" horiz-adv-x="1151" 
d="M1266 1307l-56 -373h-55q-20 303 -268 303l-289 -1061q-6 -22 -6 -43q0 -74 139 -84v-49h-606v49q151 8 182 125l285 1065q-283 0 -408 -281h-51l74 349h1059zM1190 1636q0 -14 -14 -24l-307 -223q-71 -52 -111 -52q-38 0 -94 52l-246 223q-6 5 -6 18q0 18 18 35.5
t35 17.5q7 0 19 -6l299 -166l344 166q12 6 22 6q41 0 41 -47z" />
    <glyph glyph-name="tcaron" unicode="&#x165;" horiz-adv-x="836" 
d="M483 741l-22 -84h-127l-119 -405q-22 -77 -22 -109q0 -28 14 -28q35 0 121 135l53 -37q-142 -238 -287 -238q-121 0 -121 125q0 37 21 111l123 446h-76v72q172 60 299 248h84l-68 -236h127zM835 1118q0 -185 -231 -282q-5 -2 -13 -2q-7 0 -21.5 24t-14.5 33q0 11 14 18
q149 78 149 133q0 39 -77.5 71.5t-77.5 105.5q0 43 36 70q32 24 74 24q75 0 121 -64q41 -56 41 -131z" />
    <glyph glyph-name="Tbar" unicode="&#x166;" horiz-adv-x="1151" 
d="M1266 1307l-56 -373h-55q-20 303 -268 303l-129 -477h315l-22 -86h-318l-135 -498q-6 -22 -6 -43q0 -74 139 -84v-49h-606v49q151 8 182 125l133 500h-282l22 86h283l129 479q-283 0 -408 -281h-51l74 349h1059z" />
    <glyph glyph-name="tbar" unicode="&#x167;" horiz-adv-x="557" 
d="M483 741l-22 -84h-127l-35 -120h127l-23 -84h-129l-59 -201q-22 -77 -22 -109q0 -28 14 -28q35 0 121 135l53 -37q-142 -238 -287 -238q-121 0 -121 125q0 37 21 111l65 242h-104l22 84h107l33 120h-76v72q172 60 299 248h84l-68 -236h127z" />
    <glyph glyph-name="Utilde" unicode="&#x168;" horiz-adv-x="1235" 
d="M1411 1257q-78 -9 -124 -92q-23 -40 -56 -153l-162 -549q-73 -247 -173 -356q-129 -140 -359 -140q-185 0 -301 79q-136 92 -136 267q0 71 37 205l158 576q14 52 14 75q0 91 -141 95v43h600v-45q-95 0 -135 -40q-33 -32 -60 -130l-178 -650q-24 -89 -24 -157
q0 -95 67 -152q64 -53 160 -53q182 0 289 159q66 98 131 324l104 365q43 150 43 213q0 108 -155 119v47h401v-50zM1286 1642q0 -88 -82.5 -166.5t-171.5 -78.5q-47 0 -122 63.5t-95 63.5q-73 0 -121.5 -63.5t-58.5 -63.5q-41 0 -41 41q0 88 82.5 166.5t171.5 78.5
q51 0 130 -63.5t87 -63.5q73 0 121.5 63.5t58.5 63.5q41 0 41 -41z" />
    <glyph glyph-name="utilde" unicode="&#x169;" horiz-adv-x="952" 
d="M799 205q-147 -232 -271 -232q-55 0 -88 39q-30 36 -30 92q0 27 16 99q-156 -230 -303 -230q-133 0 -133 131q0 58 102 414q21 71 21 100q0 38 -80 37l-4 58q151 18 346 53l-160 -571q-12 -44 -12 -60q0 -22 22 -22q80 0 178 170q102 175 168 460h215q-58 -193 -159 -585
q-2 -10 -2 -15q0 -22 16 -22q28 0 107 117zM846 1176q0 -89 -76 -177q-79 -92 -168 -92q-46 0 -125 78q-18 20 -53 53q-25 21 -39 21q-61 0 -105 -70q-10 -18 -30 -51q-18 -29 -35 -29q-41 0 -41 41q0 89 76 177q79 92 168 92q52 0 131 -76t86 -76q60 0 104 70q11 18 31 51
q18 29 35 29q41 0 41 -41z" />
    <glyph glyph-name="Umacron" unicode="&#x16a;" horiz-adv-x="1235" 
d="M1411 1257q-78 -9 -124 -92q-23 -40 -56 -153l-162 -549q-73 -247 -173 -356q-129 -140 -359 -140q-185 0 -301 79q-136 92 -136 267q0 71 37 205l158 576q14 52 14 75q0 91 -141 95v43h600v-45q-95 0 -135 -40q-33 -32 -60 -130l-178 -650q-24 -89 -24 -157
q0 -95 67 -152q64 -53 160 -53q182 0 289 159q66 98 131 324l104 365q43 150 43 213q0 108 -155 119v47h401v-50zM1221 1556h-684v127h684v-127z" />
    <glyph glyph-name="umacron" unicode="&#x16b;" horiz-adv-x="952" 
d="M799 205q-147 -232 -271 -232q-55 0 -88 39q-30 36 -30 92q0 27 16 99q-156 -230 -303 -230q-133 0 -133 131q0 58 102 414q21 71 21 100q0 38 -80 37l-4 58q151 18 346 53l-160 -571q-12 -44 -12 -60q0 -22 22 -22q80 0 178 170q102 175 168 460h215q-58 -193 -159 -585
q-2 -10 -2 -15q0 -22 16 -22q28 0 107 117zM802 997h-624v127h624v-127z" />
    <glyph glyph-name="Ubreve" unicode="&#x16c;" horiz-adv-x="1235" 
d="M1411 1257q-78 -9 -124 -92q-23 -40 -56 -153l-162 -549q-73 -247 -173 -356q-129 -140 -359 -140q-185 0 -301 79q-136 92 -136 267q0 71 37 205l158 576q14 52 14 75q0 91 -141 95v43h600v-45q-95 0 -135 -40q-33 -32 -60 -130l-178 -650q-24 -89 -24 -157
q0 -95 67 -152q64 -53 160 -53q182 0 289 159q66 98 131 324l104 365q43 150 43 213q0 108 -155 119v47h401v-50zM1304 1683q-33 -129 -141 -208.5t-246 -79.5q-134 0 -215.5 75t-81.5 205v8h52q46 -139 270 -139q225 0 311 139h51z" />
    <glyph glyph-name="ubreve" unicode="&#x16d;" horiz-adv-x="952" 
d="M799 205q-147 -232 -271 -232q-55 0 -88 39q-30 36 -30 92q0 27 16 99q-156 -230 -303 -230q-133 0 -133 131q0 58 102 414q21 71 21 100q0 38 -80 37l-4 58q151 18 346 53l-160 -571q-12 -44 -12 -60q0 -22 22 -22q80 0 178 170q102 175 168 460h215q-58 -193 -159 -585
q-2 -10 -2 -15q0 -22 16 -22q28 0 107 117zM885 1260q-32 -140 -132 -234q-107 -100 -247 -100q-137 0 -213 91q-69 85 -68 222v21h47q33 -168 260 -168q225 0 306 168h47z" />
    <glyph glyph-name="Uring" unicode="&#x16e;" horiz-adv-x="1235" 
d="M1411 1257q-78 -9 -124 -92q-23 -40 -56 -153l-162 -549q-73 -247 -173 -356q-129 -140 -359 -140q-185 0 -301 79q-136 92 -136 267q0 71 37 205l158 576q14 52 14 75q0 91 -141 95v43h600v-45q-95 0 -135 -40q-33 -32 -60 -130l-178 -650q-24 -89 -24 -157
q0 -95 67 -152q64 -53 160 -53q182 0 289 159q66 98 131 324l104 365q43 150 43 213q0 108 -155 119v47h401v-50zM1086 1516q0 -70 -48 -118t-118 -48t-118 48t-48 118q0 69 48 118t118 49t118 -48.5t48 -118.5zM992 1516q0 71 -72 71q-70 0 -70 -71q0 -29 20.5 -49.5
t49.5 -20.5q72 0 72 70z" />
    <glyph glyph-name="uring" unicode="&#x16f;" horiz-adv-x="952" 
d="M799 205q-147 -232 -271 -232q-55 0 -88 39q-30 36 -30 92q0 27 16 99q-156 -230 -303 -230q-133 0 -133 131q0 58 102 414q21 71 21 100q0 38 -80 37l-4 58q151 18 346 53l-160 -571q-12 -44 -12 -60q0 -22 22 -22q80 0 178 170q102 175 168 460h215q-58 -193 -159 -585
q-2 -10 -2 -15q0 -22 16 -22q28 0 107 117zM676 1104q0 -79 -54 -132.5t-132 -53.5t-132 54t-54 132t53.5 133t132.5 55t132.5 -54.5t53.5 -133.5zM582 1104q0 40 -26 66t-66 26q-39 0 -64.5 -26.5t-25.5 -65.5q0 -37 26.5 -63.5t63.5 -26.5q39 0 65.5 25.5t26.5 64.5z" />
    <glyph glyph-name="Udblacute" unicode="&#x170;" horiz-adv-x="1235" 
d="M1411 1257q-78 -9 -124 -92q-23 -40 -56 -153l-162 -549q-73 -247 -173 -356q-129 -140 -359 -140q-185 0 -301 79q-136 92 -136 267q0 71 37 205l158 576q14 52 14 75q0 91 -141 95v43h600v-45q-95 0 -135 -40q-33 -32 -60 -130l-178 -650q-24 -89 -24 -157
q0 -95 67 -152q64 -53 160 -53q182 0 289 159q66 98 131 324l104 365q43 150 43 213q0 108 -155 119v47h401v-50zM1397 1602q0 -53 -74 -97l-275 -162q-10 -6 -20 -6q-16 0 -31.5 16.5t-15.5 32.5q0 12 10 23l215 223q49 51 103 51q34 0 61 -24t27 -57zM987 1602
q0 -53 -74 -97l-274 -162q-11 -6 -21 -6q-16 0 -31.5 16.5t-15.5 32.5q0 12 11 23l215 223q49 51 102 51q34 0 61 -24t27 -57z" />
    <glyph glyph-name="udblacute" unicode="&#x171;" horiz-adv-x="952" 
d="M799 205q-147 -232 -271 -232q-55 0 -88 39q-30 36 -30 92q0 27 16 99q-156 -230 -303 -230q-133 0 -133 131q0 58 102 414q21 71 21 100q0 38 -80 37l-4 58q151 18 346 53l-160 -571q-12 -44 -12 -60q0 -22 22 -22q80 0 178 170q102 175 168 460h215q-58 -193 -159 -585
q-2 -10 -2 -15q0 -22 16 -22q28 0 107 117zM946 1284q0 -55 -43 -110l-256 -330q-8 -10 -18 -10q-9 0 -26 11.5t-17 22.5q1 7 2 11l155 389q41 102 111 102q35 0 63.5 -25t28.5 -61zM598 1284q0 -55 -43 -110l-256 -330q-8 -10 -18 -10t-26.5 11.5t-16.5 22.5q0 7 2 11
l155 389q41 102 111 102q35 0 63.5 -25t28.5 -61z" />
    <glyph glyph-name="Uogonek" unicode="&#x172;" horiz-adv-x="1235" 
d="M1411 1257q-78 -9 -124 -92q-23 -40 -56 -153l-162 -549q-73 -247 -173 -356q-129 -140 -359 -140q-185 0 -301 79q-136 92 -136 267q0 71 37 205l158 576q14 52 14 75q0 91 -141 95v43h600v-45q-95 0 -135 -40q-33 -32 -60 -130l-178 -650q-24 -89 -24 -157
q0 -95 67 -152q64 -53 160 -53q182 0 289 159q66 98 131 324l104 365q43 150 43 213q0 108 -155 119v47h401v-50zM944 -231q0 -10 -8 -17q-116 -98 -240 -98q-65 0 -110 38q-48 40 -48 105q0 85 123 203h74q-70 -87 -70 -139q0 -49 32 -82t81 -33q45 0 131 45q4 2 10 4
q25 0 25 -26z" />
    <glyph glyph-name="uogonek" unicode="&#x173;" horiz-adv-x="952" 
d="M799 205q-147 -232 -271 -232q-55 0 -88 39q-30 36 -30 92q0 27 16 99q-156 -230 -303 -230q-133 0 -133 131q0 58 102 414q21 71 21 100q0 38 -80 37l-4 58q151 18 346 53l-160 -571q-12 -44 -12 -60q0 -22 22 -22q80 0 178 170q102 175 168 460h215q-58 -193 -159 -585
q-2 -10 -2 -15q0 -22 16 -22q28 0 107 117zM825 -231q0 -10 -8 -17q-116 -98 -240 -98q-65 0 -110 38q-48 40 -48 105q0 85 123 203h74q-70 -87 -70 -139q0 -49 32 -82t81 -33q45 0 131 45q4 2 10 4q25 0 25 -26z" />
    <glyph glyph-name="Wcircumflex" unicode="&#x174;" horiz-adv-x="1647" 
d="M1823 1260q-70 -7 -122 -62q-32 -32 -81 -115l-668 -1118h-61l22 950l-567 -950h-57q8 1152 8 1079q0 204 -150 209v54h529v-52q-76 -6 -99 -60q-13 -31 -14 -122l-6 -610l361 600q2 53 2 70q0 125 -136 124v50h525l-2 -47q-67 -2 -95 -37q-24 -33 -28 -187l-15 -565
l383 641q25 41 25 78q0 71 -115 70v47h361v-47zM1477 1391q0 -18 -18 -36t-35 -18q-8 0 -19 6l-299 166l-344 -166q-12 -6 -22 -6q-41 0 -41 47q0 15 14 25l307 223q71 51 111 51q38 0 94 -51l246 -223q6 -6 6 -18z" />
    <glyph glyph-name="wcircumflex" unicode="&#x175;" horiz-adv-x="1100" 
d="M967 643q0 -123 -171 -352q-74 -99 -266 -316l-57 -4l-41 437l-256 -433l-65 -4q0 686 -91 686q-9 0 -26 -4l-2 62q73 11 160 30q74 17 88 17q55 0 75 -406l238 408h55l49 -524q174 201 174 284q0 17 -37.5 60t-37.5 80q0 43 30 72.5t74 29.5q107 0 107 -123zM827 868
q0 -9 -18 -21.5t-29 -12.5q-9 0 -16 10l-189 254l-258 -254q-10 -10 -20 -10t-22.5 11t-12.5 21q0 7 4 13l248 364q33 49 90 49q54 0 74 -49l145 -364z" />
    <glyph glyph-name="Ycircumflex" unicode="&#x176;" horiz-adv-x="1108" 
d="M1284 1260q-87 0 -252 -226l-311 -426l-107 -403q-8 -31 -8 -68q0 -57 49 -75q24 -10 97 -13v-49h-605v49q154 9 185 125l106 404q4 15 4 34t-6 37l-162 481q-21 66 -39 87q-28 33 -85 38v52h526v-47q-62 -2 -85 -10q-44 -16 -44 -64q0 -40 28 -131l113 -359l238 324
q69 95 69 154q0 86 -135 86v47h424v-47zM1149 1391q0 -18 -18 -36t-35 -18q-8 0 -19 6l-299 166l-344 -166q-12 -6 -22 -6q-41 0 -41 47q0 15 14 25l307 223q71 51 111 51q38 0 94 -51l246 -223q6 -6 6 -18z" />
    <glyph glyph-name="ycircumflex" unicode="&#x177;" horiz-adv-x="770" 
d="M637 649q0 -117 -201 -493q-262 -492 -483 -492q-54 0 -90 27q-41 30 -41 82q0 43 30.5 72.5t73.5 29.5q31 0 80 -29.5t66 -29.5q30 0 84 63q57 68 57 117q0 22 -10 94q-28 196 -41 265q-29 156 -70 257q-20 52 -65 52q-12 0 -33 -5v66q75 7 141 23q79 18 94 18
q41 0 96 -244q12 -48 60 -303q123 229 123 299q0 21 -45 61.5t-45 77.5q0 49 31 79t79 30q109 0 109 -117zM643 868q0 -9 -18 -21.5t-29 -12.5q-9 0 -16 10l-189 254l-258 -254q-10 -10 -20 -10t-22.5 11t-12.5 21q0 7 4 13l248 364q33 49 90 49q54 0 74 -49l145 -364z" />
    <glyph glyph-name="Ydieresis" unicode="&#x178;" horiz-adv-x="1108" 
d="M1284 1260q-87 0 -252 -226l-311 -426l-107 -403q-8 -31 -8 -68q0 -57 49 -75q24 -10 97 -13v-49h-605v49q154 9 185 125l106 404q4 15 4 34t-6 37l-162 481q-21 66 -39 87q-28 33 -85 38v52h526v-47q-62 -2 -85 -10q-44 -16 -44 -64q0 -40 28 -131l113 -359l238 324
q69 95 69 154q0 86 -135 86v47h424v-47zM1116 1575q0 -45 -32 -77t-77 -32t-76.5 32t-31.5 77t31.5 76.5t76.5 31.5t77 -31.5t32 -76.5zM653 1575q0 -45 -32 -77t-77 -32t-76.5 32t-31.5 77t31.5 76.5t76.5 31.5t77 -31.5t32 -76.5z" />
    <glyph glyph-name="Zacute" unicode="&#x179;" horiz-adv-x="1141" 
d="M1128 1231l-829 -1161h154q379 0 548 311h54l-109 -381h-979v53l852 1182h-104q-187 0 -311 -65q-127 -67 -226 -222l-55 6l108 353h897v-76zM989 1602q0 -53 -74 -97l-274 -162q-11 -6 -21 -6q-16 0 -31.5 16.5t-15.5 32.5q0 12 10 23l215 223q50 51 103 51q34 0 61 -24
t27 -57z" />
    <glyph glyph-name="zacute" unicode="&#x17a;" horiz-adv-x="696" 
d="M616 745l-462 -559q92 -40 149 -149q51 -98 78 -98q22 0 22 10q0 2 -15 32.5t-15 51.5q0 90 94 90q96 0 96 -96q0 -71 -59 -115q-54 -41 -127 -41q-87 0 -197 69.5t-133 69.5q-21 0 -53.5 -26.5t-44.5 -26.5q-39 0 -39 35q0 13 39 61l422 518h-181q-65 0 -85 -15
q-16 -13 -44 -81h-59l74 270h540zM608 1284q0 -55 -43 -110l-256 -330q-8 -10 -18 -10q-9 0 -26 11.5t-17 22.5q0 7 2 11l155 389q41 102 111 102q35 0 63.5 -25t28.5 -61z" />
    <glyph glyph-name="Zdot" unicode="&#x17b;" horiz-adv-x="1141" 
d="M1128 1231l-829 -1161h154q379 0 548 311h54l-109 -381h-979v53l852 1182h-104q-187 0 -311 -65q-127 -67 -226 -222l-55 6l108 353h897v-76zM830 1569q0 -48 -34 -81.5t-81 -33.5q-48 0 -81.5 33.5t-33.5 81.5q0 47 33.5 80.5t81.5 33.5q47 0 81 -33.5t34 -80.5z" />
    <glyph glyph-name="zdot" unicode="&#x17c;" horiz-adv-x="696" 
d="M616 745l-462 -559q92 -40 149 -149q51 -98 78 -98q22 0 22 10q0 2 -15 32.5t-15 51.5q0 90 94 90q96 0 96 -96q0 -71 -59 -115q-54 -41 -127 -41q-87 0 -197 69.5t-133 69.5q-21 0 -53.5 -26.5t-44.5 -26.5q-39 0 -39 35q0 13 39 61l422 518h-181q-65 0 -85 -15
q-16 -13 -44 -81h-59l74 270h540zM482 1063q0 -48 -34 -81.5t-81 -33.5q-48 0 -81.5 33.5t-33.5 81.5q0 47 33.5 81t81.5 34q47 0 81 -34t34 -81z" />
    <glyph glyph-name="Zcaron" unicode="&#x17d;" horiz-adv-x="1141" 
d="M1128 1231l-829 -1161h154q379 0 548 311h54l-109 -381h-979v53l852 1182h-104q-187 0 -311 -65q-127 -67 -226 -222l-55 6l108 353h897v-76zM1128 1636q0 -14 -14 -24l-307 -223q-71 -52 -111 -52q-38 0 -94 52l-246 223q-6 5 -6 18q0 18 18 35.5t35 17.5q7 0 19 -6
l299 -166l344 166q12 6 22 6q41 0 41 -47z" />
    <glyph glyph-name="zcaron" unicode="&#x17e;" horiz-adv-x="696" 
d="M616 745l-462 -559q92 -40 149 -149q51 -98 78 -98q22 0 22 10q0 2 -15 32.5t-15 51.5q0 90 94 90q96 0 96 -96q0 -71 -59 -115q-54 -41 -127 -41q-87 0 -197 69.5t-133 69.5q-21 0 -53.5 -26.5t-44.5 -26.5q-39 0 -39 35q0 13 39 61l422 518h-181q-65 0 -85 -15
q-16 -13 -44 -81h-59l74 270h540zM676 1260q0 -7 -4 -13l-248 -364q-34 -49 -90 -49q-54 0 -74 49l-146 364q-4 11 -4 10q0 10 18.5 22.5t28.5 12.5q9 0 17 -10l188 -254l258 254q11 10 21 10t22.5 -11t12.5 -21z" />
    <glyph glyph-name="longs" unicode="&#x17f;" horiz-adv-x="543" 
d="M696 1016q0 -98 -92 -98q-36 0 -63 25t-27 61q0 15 13.5 39.5t13.5 29.5q0 8 -17 8q-87 0 -157 -333q-42 -209 -138 -623q-55 -210 -116 -307q-100 -158 -267 -158q-65 0 -108 38.5t-43 102.5q0 43 25 72t67 29q86 0 86 -86q0 -37 -27 -68q1 -14 19 -14q81 0 195 524
q25 135 79 404l19 86q34 155 118 266q104 137 242 137q178 0 178 -135z" />
    <glyph glyph-name="Eturn" unicode="&#x18e;" horiz-adv-x="1243" 
d="M1337 1262q-102 0 -148 -54q-33 -39 -63 -149l-219 -821q-16 -62 -16 -95q0 -56 43 -78q27 -13 94 -18v-47h-1040l71 367h56q0 -175 87 -244q78 -62 257 -62q74 0 95 12q31 16 48 81l113 426h-56q-140 0 -211 -40q-81 -45 -135 -167h-49l139 536h41q-2 -27 -2 -73
q0 -110 67 -154q53 -35 169 -35q32 0 53 2l123 453q16 60 16 78q0 59 -108 59q-226 0 -354 -67q-135 -71 -246 -261h-49l112 396h1112v-45z" />
    <glyph glyph-name="Schwa" unicode="&#x18f;" horiz-adv-x="1409" 
d="M1343 870q0 -330 -240 -612q-252 -295 -577 -295q-218 0 -343 134q-122 130 -122 349q0 134 52 273h905q43 175 43 295q0 239 -199 239q-294 0 -469 -256l-55 43q208 301 536 301q217 0 343 -127t126 -344zM985 598h-602q-41 -166 -41 -301q0 -260 199 -260
q270 0 444 561z" />
    <glyph glyph-name="florin" unicode="&#x192;" horiz-adv-x="543" 
d="M709 1182q0 -99 -93 -99q-35 0 -62.5 25.5t-27.5 60.5q0 16 13.5 40.5t13.5 29.5q0 8 -16 8q-56 0 -113 -220q-14 -55 -57 -279h137l-12 -86h-142q-36 -214 -127 -635q-55 -210 -116 -307q-100 -158 -267 -158q-65 0 -108 38.5t-43 102.5q0 42 25 71t67 29q86 0 86 -86
q0 -35 -27 -67q1 -15 19 -15q71 0 171 456q55 285 109 571h-112l16 86h115q35 191 115 349q113 220 257 220q179 0 179 -135z" />
    <glyph glyph-name="Ohorn" unicode="&#x1a0;" horiz-adv-x="1409" 
d="M1507 1386q0 -103 -48 -192q-56 -104 -148 -123q32 -85 32 -201q0 -330 -240 -612q-252 -295 -577 -295q-218 0 -343 134q-122 130 -122 349q0 247 163.5 493.5t389.5 346.5q125 55 260 55q204 0 338 -122q61 -56 93 -56q57 0 96 80q33 66 33 131q0 23 -11 23
q-7 0 -38.5 -15.5t-51.5 -15.5q-37 0 -62.5 24t-25.5 62q0 49 30 80t79 31q72 0 114 -53q39 -49 39 -124zM1061 1014q0 260 -199 260q-169 0 -312 -245q-99 -171 -159 -398q-49 -188 -49 -334q0 -260 199 -260q220 0 384 391q136 325 136 586z" />
    <glyph glyph-name="ohorn" unicode="&#x1a1;" horiz-adv-x="838" 
d="M850 842q0 -81 -40 -157q-45 -86 -116 -105q11 -41 11 -82q0 -133 -84.5 -275t-200.5 -205q-84 -45 -182 -45q-120 0 -193.5 75.5t-73.5 195.5q0 181 138 347q144 175 321 175q126 0 203 -74q23 -22 41 -22q42 0 72 66q26 55 26 104q-73 -25 -74 -25q-34 0 -58 23t-24 57
q0 43 28 70.5t71 27.5q63 0 99 -43.5t36 -107.5zM494 588q0 106 -72 106q-93 0 -173 -231q-67 -194 -67 -316q0 -98 74 -98q91 0 171 228q67 192 67 311z" />
    <glyph glyph-name="Uhorn" unicode="&#x1af;" horiz-adv-x="1235" 
d="M1452 1382q0 -83 -94 -179q-107 -109 -121 -159l-168 -581q-71 -245 -173 -356q-129 -140 -359 -140q-185 0 -301 79q-136 92 -136 267q0 71 37 205l158 576q14 52 14 75q0 58 -45 79q-29 14 -96 16v43h600v-45q-95 0 -135 -40q-33 -32 -60 -130l-178 -650
q-24 -89 -24 -157q0 -95 67 -152q64 -53 160 -53q153 0 247 103.5t173 379.5l190 666q172 14 172 145q0 21 -12 21q-7 0 -38.5 -14.5t-51.5 -14.5q-86 0 -86 88q0 49 31 79t80 30q72 0 113 -56q36 -50 36 -125z" />
    <glyph glyph-name="uhorn" unicode="&#x1b0;" horiz-adv-x="952" 
d="M934 969q0 -93 -37 -154q-19 -32 -76 -84q-48 -44 -61 -82q-20 -56 -76 -259q-59 -217 -59 -247q0 -22 16 -22q29 0 107 117l51 -33q-147 -232 -271 -232q-55 0 -88 39q-30 36 -30 92q0 29 16 99q-156 -230 -303 -230q-133 0 -133 131q0 61 102 414q21 71 21 100
q0 38 -80 37l-4 58q151 18 346 53l-160 -571q-12 -44 -12 -60q0 -22 22 -22q81 0 178 170q102 177 168 460q114 0 190 52q84 57 95 166v6q-77 -23 -72 -23q-82 0 -82 78q0 43 28 71.5t71 28.5q62 0 99 -46q34 -43 34 -107z" />
    <glyph glyph-name="Ezh" unicode="&#x1b7;" horiz-adv-x="1217" 
d="M1139 1231l-308 -430q116 -28 197 -132t81 -226q0 -253 -191 -428q-186 -171 -441 -171q-314 0 -477 271l49 41q158 -201 381 -201q187 0 317.5 129t130.5 316q0 106 -48 190q-55 98 -148 98q-138 0 -256 -113l-31 58l434 602h-104q-186 0 -310 -65q-128 -68 -227 -222
l-55 6l109 353h897v-76z" />
    <glyph glyph-name="eturn" unicode="&#x1dd;" horiz-adv-x="760" 
d="M627 496q0 -177 -141 -345q-147 -176 -320 -176q-80 0 -130 38q-56 43 -56 120q0 129 147 216q108 63 264 91q10 46 10 80q0 115 -106 115q-88 0 -174 -148l-62 39q122 238 320 238q117 0 184 -77q64 -73 64 -191zM375 365q-97 -28 -165 -93q-77 -75 -77 -168
q0 -57 43 -57q65 0 129 129q42 85 70 189z" />
    <glyph glyph-name="Aringacute" unicode="&#x1fa;" 
d="M1147 0h-610v49q102 6 135 54q27 37 33 145l8 160h-412l-137 -175q-64 -80 -64 -116q0 -57 127 -68v-49h-403v49q87 0 209 150l923 1138h56l-45 -1097q0 -183 178 -191zM737 950l-372 -463h350zM1024 1516q0 -70 -48 -118t-118 -48t-118 48t-48 118q0 69 48 118t118 49
t118 -48.5t48 -118.5zM930 1516q0 71 -72 71q-70 0 -70 -71q0 -29 20.5 -49.5t49.5 -20.5q72 0 72 70zM1399 1602q0 -53 -74 -97l-274 -162q-11 -6 -21 -6q-16 0 -31.5 16.5t-15.5 32.5q0 12 10 23l215 223q50 51 103 51q34 0 61 -24t27 -57z" />
    <glyph glyph-name="aringacute" unicode="&#x1fb;" horiz-adv-x="918" 
d="M764 199q-134 -224 -262 -224q-111 0 -111 113q0 19 4 45q-108 -158 -239 -158q-87 0 -138 62q-47 57 -47 145q0 230 189 439q131 145 266 145q88 0 119 -82l18 64h193l-138 -484q-30 -108 -30 -123q0 -26 14 -26q37 0 109 116zM496 604q0 70 -54 70q-59 0 -132 -125
q-53 -89 -83 -180q-32 -100 -32 -168q0 -86 57 -86q90 0 173 203q71 176 71 286zM635 1104q0 -79 -54 -132.5t-132 -53.5t-132 54t-54 132t53.5 133t132.5 55t132.5 -54.5t53.5 -133.5zM541 1104q0 40 -26 66t-66 26q-39 0 -64.5 -26.5t-25.5 -65.5q0 -37 26.5 -63.5
t63.5 -26.5q39 0 65.5 25.5t26.5 64.5zM936 1284q0 -55 -43 -110l-256 -330q-8 -10 -18 -10q-9 0 -26 11.5t-17 22.5q0 7 2 11l155 389q41 102 111 102q35 0 63.5 -25t28.5 -61z" />
    <glyph glyph-name="AEacute" unicode="&#x1fc;" horiz-adv-x="1853" 
d="M1866 1307l-74 -367h-53q0 174 -89 244q-78 61 -257 61q-74 0 -95 -11q-29 -16 -47 -81l-112 -426h53q141 0 213 40q81 45 135 167h47l-137 -537h-43q2 28 2 74q0 110 -65 153q-53 35 -168 35q-34 0 -56 -2l-121 -452q-16 -62 -16 -78q0 -59 107 -59q226 0 354 67
q137 71 248 260h49l-115 -395h-1110v45q102 0 148 54q31 38 61 149l43 160h-467l-137 -175q-64 -80 -64 -116q0 -57 127 -68v-49h-403v49q87 0 209 150l792 977q-4 48 -46 67q-25 12 -89 17v47h1176zM987 1217h-35l-587 -730h426zM1604 1602q0 -53 -74 -97l-274 -162
q-11 -6 -21 -6q-16 0 -31.5 16.5t-15.5 32.5q0 12 10 23l215 223q50 51 103 51q34 0 61 -24t27 -57z" />
    <glyph glyph-name="aeacute" unicode="&#x1fd;" horiz-adv-x="1182" 
d="M1075 602q0 -128 -148 -214q-107 -63 -263 -91q-9 -50 -9 -80q0 -115 105 -115q87 0 174 148l61 -39q-120 -236 -319 -236q-99 0 -166 59t-80 156q-130 -215 -274 -215q-87 0 -138 62q-47 57 -47 145q0 232 187 436q132 146 266 146q88 0 119 -82l18 63h193l-11 -34
q79 47 156 47q75 0 125.5 -41t50.5 -115zM922 633q0 55 -45 55q-108 0 -197 -315q96 27 164 93q78 75 78 167zM494 602q0 70 -54 70q-59 0 -131 -125q-51 -88 -82 -180q-32 -100 -32 -166q0 -86 55 -86q90 0 172 202q72 175 72 285zM956 1284q0 -55 -43 -110l-256 -330
q-8 -10 -18 -10q-9 0 -26 11.5t-17 22.5q0 7 2 11l155 389q41 102 111 102q35 0 63.5 -25t28.5 -61z" />
    <glyph glyph-name="Oslashacute" unicode="&#x1fe;" horiz-adv-x="1409" 
d="M1343 870q0 -330 -240 -612q-252 -295 -577 -295q-95 0 -178 29l-119 -205h-92l137 238q-213 122 -213 421q0 246 164 494t389 346q128 55 260 55q84 0 152 -18l107 182h96l-123 -211q237 -113 237 -424zM977 1237q-48 37 -115 37q-169 0 -312 -245q-99 -171 -159 -398
q-49 -188 -49 -334q0 -70 18 -127zM1061 1014q0 91 -29 153l-626 -1077q50 -53 135 -53q220 0 384 391q136 325 136 586zM989 1602q0 -53 -74 -97l-274 -162q-11 -6 -21 -6q-16 0 -31.5 16.5t-15.5 32.5q0 12 10 23l215 223q50 51 103 51q34 0 61 -24t27 -57z" />
    <glyph glyph-name="oslashacute" unicode="&#x1ff;" horiz-adv-x="838" 
d="M705 498q0 -132 -84.5 -274.5t-200.5 -205.5q-84 -45 -182 -45q-42 0 -80 11l-101 -179h-84l117 207q-119 73 -119 232q0 181 138 347q144 175 321 175q47 0 82 -8l94 166h84l-108 -193q123 -68 123 -233zM467 678q-18 16 -45 16q-87 0 -163 -204q-61 -163 -75 -312z
M494 575l-289 -507q18 -19 51 -19q89 0 167 216q64 178 71 310zM690 1284q0 -55 -43 -110l-256 -330q-8 -10 -18 -10q-9 0 -26 11.5t-17 22.5q0 7 2 11l155 389q41 102 111 102q35 0 63.5 -25t28.5 -61z" />
    <glyph glyph-name="Scommaaccent" unicode="&#x218;" horiz-adv-x="1114" 
d="M1065 1319l-92 -395h-55q0 4 1 15t1 17q0 121 -61 205q-67 94 -183 94q-88 0 -145.5 -57t-57.5 -145q0 -98 172 -250q143 -127 193 -193q90 -119 90 -252q0 -195 -132 -300q-121 -97 -321 -97q-96 0 -205 39q-114 41 -127 41q-44 0 -82 -64h-53l101 437h55
q0 -377 285 -377q98 0 168.5 71.5t70.5 170.5q0 98 -117 216q-109 105 -218 209q-117 131 -117 259q0 162 116 264q112 98 277 98q84 0 186 -30.5t111 -30.5q49 0 86 55h53zM541 -356q0 -186 -232 -283q-5 -2 -12 -2q-8 0 -22.5 24t-14.5 33q0 11 14 19q150 77 150 133
q0 38 -78 70.5t-78 105.5q0 44 36 70q32 24 75 24q74 0 120 -63q42 -57 42 -131z" />
    <glyph glyph-name="scommaaccent" unicode="&#x219;" horiz-adv-x="676" 
d="M571 758l-39 -266l-57 6q-33 194 -145 194q-80 0 -80 -69q0 -43 147 -232q78 -100 78 -186q0 -103 -72.5 -167.5t-177.5 -64.5q-53 0 -114.5 20.5t-67.5 20.5q-26 0 -47 -34l-59 8l45 293l65 -11q17 -219 156 -219q82 0 82 82q0 49 -109.5 192t-109.5 230q0 90 64 148.5
t155 58.5q57 0 118.5 -16.5t67.5 -16.5q29 0 41 29h59zM316 -356q0 -186 -232 -283q-5 -2 -12 -2q-8 0 -22.5 24t-14.5 33q0 11 14 19q150 77 150 133q0 38 -78 70.5t-78 105.5q0 44 36 70q32 24 75 24q74 0 120 -63q42 -57 42 -131z" />
    <glyph glyph-name="Tcommaaccent" unicode="&#x21a;" horiz-adv-x="1151" 
d="M1266 1307l-56 -373h-55q-20 303 -268 303l-289 -1061q-6 -22 -6 -43q0 -74 139 -84v-49h-606v49q151 8 182 125l285 1065q-283 0 -408 -281h-51l74 349h1059zM521 -356q0 -186 -232 -283q-5 -2 -12 -2q-8 0 -22.5 24t-14.5 33q0 11 14 19q150 77 150 133q0 38 -78 70.5
t-78 105.5q0 44 36 70q32 24 75 24q74 0 120 -63q42 -57 42 -131z" />
    <glyph glyph-name="tcommaaccent" unicode="&#x21b;" horiz-adv-x="557" 
d="M483 741l-22 -84h-127l-119 -405q-22 -77 -22 -109q0 -28 14 -28q35 0 121 135l53 -37q-142 -238 -287 -238q-121 0 -121 125q0 37 21 111l123 446h-76v72q172 60 299 248h84l-68 -236h127zM234 -356q0 -186 -232 -283q-5 -2 -12 -2q-8 0 -22.5 24t-14.5 33q0 11 14 19
q150 77 150 133q0 38 -78 70.5t-78 105.5q0 44 36 70q32 24 75 24q74 0 120 -63q42 -57 42 -131z" />
    <glyph glyph-name="Yogh" unicode="&#x21c;" horiz-adv-x="1108" 
d="M1030 1092q0 -215 -317 -416q104 -4 177 -64q79 -66 79 -168q0 -257 -329 -481q-226 -154 -562 -266l-23 84q222 80 397 222q224 182 224 370q0 84 -71 133q-62 43 -150 43q-92 0 -230 -66l-12 103q239 106 334 170q198 134 198 286q0 89 -68 143q-64 50 -155 50
q-253 0 -307 -254l-41 -8l-6 239l8 19q213 110 469 110q133 0 246 -58q139 -72 139 -191z" />
    <glyph glyph-name="yogh" unicode="&#x21d;" horiz-adv-x="743" 
d="M610 594q0 -160 -186 -301q137 -43 137 -170q0 -198 -227 -343q-103 -65 -402 -181l-26 63q430 203 430 404q0 47 -28 81.5t-75 34.5q-42 0 -153 -57l-10 76q150 96 202 144q113 102 113 208q0 115 -100 115q-81 0 -136 -59q-49 -53 -67 -136l-53 -8l-33 164l18 37
q167 98 336 98q260 0 260 -170z" />
    <glyph glyph-name="OU" unicode="&#x222;" horiz-adv-x="1260" 
d="M1341 1278q0 -137 -159 -296q-119 -120 -281 -212q193 -122 193 -278q0 -38 -11 -80q-47 -196 -241 -322q-181 -119 -391 -119q-129 0 -217 57q-105 66 -105 187q0 131 121 260q95 100 237 176q-121 50 -202 136q-95 102 -95 219q0 110 93 251l188 33q-68 -79 -68 -155
q0 -107 163 -200q128 -60 255 -120q402 226 402 453q0 90 -101 82l11 43q54 14 106 14q102 0 102 -129zM834 346q0 99 -81 176q-69 66 -173 99q-351 -186 -351 -396q0 -92 85 -141q71 -41 169 -41q125 0 235 88q116 93 116 215z" />
    <glyph glyph-name="ou" unicode="&#x223;" horiz-adv-x="903" 
d="M829 737q0 -162 -290 -309q108 -75 108 -168q0 -120 -118 -206q-109 -79 -232 -79q-92 0 -156 33q-84 41 -84 123q0 123 183 227q-187 115 -187 226q0 73 49 149l181 35l-13 -55q-57 -14 -57 -51q0 -48 109 -110q76 -38 153 -77q246 110 246 221q0 51 -98 49l10 52
q68 26 110 26q86 0 86 -86zM455 176q0 76 -140 139q-165 -86 -165 -168q0 -46 46 -71q37 -21 89 -21q60 0 110 30q60 35 60 91z" />
    <glyph glyph-name="Zhook" unicode="&#x224;" horiz-adv-x="1141" 
d="M1128 1231l-826 -1158h540q177 0 177 -126q0 -115 -134 -221q-59 -47 -229 -141l-14 31q146 130 149 257t-173 127h-651v53l852 1182h-104q-187 0 -311 -65q-127 -67 -226 -222l-55 6l108 353h897v-76z" />
    <glyph glyph-name="zhook" unicode="&#x225;" horiz-adv-x="702" 
d="M627 725q0 -21 -25 -49l-461 -540q64 15 126 15q121 0 208 -48q107 -59 107 -169q0 -191 -318 -358l-14 32q159 131 159 269q0 81 -83 126q-68 37 -158 37q-63 0 -111 -18q-11 -4 -54 -34q-36 -25 -50 -25q-39 0 -39 35q0 16 39 61l450 520q-41 -3 -113 17
q-76 20 -112 20q-54 0 -94 -82l-53 25q64 207 166 207q46 0 134 -22.5t134 -22.5q30 0 70 23.5t51 23.5q41 0 41 -43z" />
    <glyph glyph-name="dotlessj" unicode="&#x237;" horiz-adv-x="502" 
d="M375 766l-174 -682q-48 -187 -114 -283q-96 -141 -253 -141q-69 0 -119 35q-55 40 -55 106q0 101 94 101q38 0 63 -24.5t25 -61.5q0 -18 -13 -43.5t-13 -28.5q0 -8 22 -8q60 0 105 174l155 608q23 88 23 100q0 37 -82 37l-4 60q213 26 340 51z" />
    <glyph glyph-name="zswashtail" unicode="&#x240;" horiz-adv-x="702" 
d="M623 719q0 -21 -25 -49l-434 -508q76 -37 139 -137q55 -86 78 -86q22 0 22 10q0 2 -15 32.5t-15 51.5q0 90 94 90q96 0 96 -96q0 -71 -59 -115q-54 -41 -127 -41q-87 0 -197 69.5t-133 69.5q-21 0 -53.5 -26.5t-44.5 -26.5q-39 0 -39 35q0 16 39 61l450 520h-28
q-32 0 -98.5 18.5t-98.5 18.5q-54 0 -94 -82l-53 25q64 207 166 207q50 0 134 -22.5t134 -22.5q30 0 70 23.5t51 23.5q41 0 41 -43z" />
    <glyph glyph-name="aturn" unicode="&#x250;" horiz-adv-x="835" 
d="M795 625q0 -133 -187 -215q-133 -59 -301 -74q-35 -119 -35 -141q0 -49 38 -79q35 -28 85 -28q96 0 209 119l51 -49q-159 -183 -325 -183q-108 0 -183 53q-86 60 -86 162q0 27 7 50l86 313q6 22 6 31q0 16 -15 16q-20 0 -44.5 -17.5t-32.5 -17.5q-27 0 -27 19q0 2 2 6
q28 69 101.5 122.5t146.5 53.5q104 0 104 -92q0 -11 -2 -23q112 115 244 115q69 0 112 -35q46 -38 46 -106zM606 584q0 65 -57 65q-79 0 -178 -80l-43 -157q97 15 171 49q107 50 107 123z" />
    <glyph glyph-name="ascriptlatin" unicode="&#x251;" horiz-adv-x="918" 
d="M764 199q-134 -224 -262 -224q-111 0 -111 113q0 19 4 45q-108 -158 -239 -158q-87 0 -138 62q-47 57 -47 145q0 230 189 439q131 145 266 145q88 0 119 -82l18 64h193l-138 -484q-30 -108 -30 -123q0 -26 14 -26q37 0 109 116zM496 604q0 70 -54 70q-59 0 -132 -125
q-53 -89 -83 -180q-32 -100 -32 -168q0 -86 57 -86q90 0 173 203q71 176 71 286z" />
    <glyph glyph-name="ascriptturn" unicode="&#x252;" horiz-adv-x="918" 
d="M784 559q0 -230 -188 -438q-131 -146 -266 -146q-88 0 -119 82l-18 -63h-193l137 483q31 108 31 123q0 27 -14 27q-38 0 -109 -117l-53 33q134 223 262 223q111 0 111 -113q0 -19 -5 -45q109 158 240 158q87 0 137 -61q47 -57 47 -146zM561 541q0 86 -57 86
q-90 0 -173 -204q-71 -175 -71 -286q0 -69 53 -69q60 0 133 124q52 89 82 181q33 100 33 168z" />
    <glyph glyph-name="bhook" unicode="&#x253;" horiz-adv-x="852" 
d="M719 541q0 -207 -160 -385q-164 -183 -369 -183q-63 0 -132 25q-89 31 -89 82q0 18 11 55l165 596q41 145 93 232q112 188 278 188q74 0 124 -30q60 -36 60 -105q0 -103 -92 -103q-38 0 -65 26.5t-27 64.5q0 14 14.5 39t14.5 30q0 8 -15 8q-45 0 -90 -86
q-31 -60 -49 -129l-53 -204q93 104 197 104q91 0 140 -69q44 -62 44 -156zM502 545q0 88 -64 88q-51 0 -96 -64q-35 -50 -96.5 -236.5t-61.5 -246.5q0 -35 43 -35q111 0 200 197q75 167 75 297z" />
    <glyph glyph-name="cturn" unicode="&#x254;" horiz-adv-x="739" 
d="M633 496q0 -145 -85 -277q-81 -128 -212 -199q-88 -47 -168 -47q-76 0 -133 39q-64 44 -64 117q0 121 113 121q100 0 100 -92q0 -20 -15 -51t-15 -39q0 -25 28 -25q29 0 66 33q66 58 115 193q47 126 47 223q0 147 -107 147q-92 0 -194 -154l-60 41q144 238 326 238
q123 0 190.5 -72t67.5 -196z" />
    <glyph glyph-name="ccurl" unicode="&#x255;" horiz-adv-x="801" 
d="M694 608q0 -121 -112 -121q-101 0 -101 93q0 19 15.5 50t15.5 40q0 24 -29 24q-28 0 -65 -32q-60 -54 -108 -173q-43 -109 -52 -208q87 38 176 38q146 0 146 -129q0 -89 -102 -156q-92 -61 -187 -61q-148 0 -215 103q-35 -39 -78 -103l-43 31q41 65 96 123
q-18 52 -18 115q0 145 84 277q82 127 213 198q87 47 168 47q76 0 132 -39q64 -44 64 -117zM510 197q0 75 -88 75q-81 0 -166 -47q10 -135 117 -135q47 0 90 29q47 33 47 78z" />
    <glyph glyph-name="drthook" unicode="&#x256;" horiz-adv-x="903" 
d="M858 1155l-315 -1165q-19 -68 -19 -160q0 -115 47 -115q9 0 9 43q0 36 24.5 59t61.5 23t65.5 -25.5t28.5 -62.5q0 -51 -37.5 -86t-89.5 -35q-59 0 -117 33q-149 84 -149 292q0 83 26 179q-109 -162 -241 -162q-181 0 -181 232q0 217 181 416q132 145 262 145
q63 0 112 -33l58 195q12 41 12 71q0 42 -92 41v64q127 12 354 51zM496 608q0 72 -50 72q-61 0 -136 -127q-51 -86 -85 -184q-37 -106 -37 -172q0 -80 62 -80q87 0 172 205q74 180 74 286z" />
    <glyph glyph-name="dhook" unicode="&#x257;" horiz-adv-x="926" 
d="M1079 1016q0 -103 -92 -103q-38 0 -65 26.5t-27 64.5q0 14 14.5 39t14.5 30q0 8 -15 8q-45 0 -90 -86q-32 -61 -49 -129l-170 -663q-16 -64 -16 -84q0 -4 8 -4q30 0 102 118l56 -36q-142 -224 -252 -224q-109 0 -109 117q0 22 4 45q-109 -162 -241 -162q-181 0 -181 232
q0 217 181 416q132 145 262 145q63 0 112 -33q49 160 90 230q113 188 279 188q74 0 124 -30q60 -36 60 -105zM496 608q0 72 -50 72q-61 0 -136 -127q-51 -86 -85 -184q-37 -106 -37 -172q0 -80 62 -80q87 0 172 205q74 180 74 286z" />
    <glyph glyph-name="erev" unicode="&#x258;" horiz-adv-x="838" 
d="M705 498q0 -133 -84.5 -275.5t-200.5 -204.5q-86 -45 -182 -45q-94 0 -165 53q-74 55 -93 144l59 41q47 -139 172 -139q147 0 231 217q-123 5 -207 55q-104 62 -104 174q0 101 101 178q93 70 198 70q125 0 200 -72t75 -196zM498 573q0 121 -74 121q-59 0 -100 -59
q-37 -53 -37 -115q0 -153 172 -176q39 104 39 229z" />
    <glyph glyph-name="schwa" unicode="&#x259;" horiz-adv-x="760" 
d="M627 496q0 -177 -141 -345q-147 -176 -320 -176q-80 0 -130 38q-56 43 -56 120q0 129 147 216q108 63 264 91q10 46 10 80q0 115 -106 115q-88 0 -174 -148l-62 39q122 238 320 238q117 0 184 -77q64 -73 64 -191zM375 365q-97 -28 -165 -93q-77 -75 -77 -168
q0 -57 43 -57q65 0 129 129q42 85 70 189z" />
    <glyph glyph-name="schwahook" unicode="&#x25a;" horiz-adv-x="1036" 
d="M1001 481q-92 -168 -217 -168q-120 0 -120 140q0 45 24 125q-23 -19 -63 -43q2 -20 2 -39q0 -178 -141 -345q-146 -176 -320 -176q-80 0 -130 39q-56 42 -56 119q0 122 154 220q70 44 263 122q4 29 4 45q0 115 -106 115q-89 0 -174 -148l-62 39q122 238 320 238
q196 0 239 -189q80 45 97 80l33 -6q-9 -33 -9 -74q0 -112 113 -112q71 0 143 63zM385 414q-180 -95 -238 -232q-16 -39 -16 -76q0 -59 45 -59q72 0 139 152q44 99 70 215z" />
    <glyph glyph-name="epsilonlatin" unicode="&#x25b;" horiz-adv-x="702" 
d="M598 602q0 -80 -78 -80q-54 0 -73.5 84t-65.5 84q-51 0 -83 -53q-28 -46 -28 -100q0 -79 60 -93q43 13 84 13q73 0 73 -58q0 -55 -71 -55q-41 0 -111 16q-117 -50 -117 -172q0 -53 31.5 -87.5t83.5 -34.5q107 0 186 143l66 -33q-96 -201 -303 -201q-117 0 -188 48
q-84 56 -84 167q0 162 204 218q-108 42 -108 147q0 104 101 162q83 49 196 49q84 0 149 -39q76 -47 76 -125z" />
    <glyph glyph-name="epsilonlatinrev" unicode="&#x25c;" horiz-adv-x="702" 
d="M598 551q0 -162 -205 -217q109 -43 109 -148q0 -104 -101 -162q-84 -49 -196 -49q-84 0 -149 40q-76 46 -76 124q0 80 77 80q55 0 74.5 -84t65.5 -84q50 0 82 54q28 46 28 100q0 79 -59 92q-44 -12 -84 -12q-74 0 -74 57q0 55 72 55q41 0 110 -16q117 50 117 172
q0 53 -31 88t-84 35q-106 0 -186 -144l-65 33q96 201 303 201q116 0 188 -48q84 -56 84 -167z" />
    <glyph glyph-name="epsilonlatinrevhook" unicode="&#x25d;" horiz-adv-x="1024" 
d="M989 645q-93 -168 -217 -168q-121 0 -121 139q0 45 25 125q-44 -35 -113 -71q35 -50 35 -119q0 -162 -205 -217q109 -43 109 -148q0 -104 -101 -162q-84 -49 -196 -49q-84 0 -149 40q-76 46 -76 124q0 80 77 80q55 0 74.5 -84t65.5 -84q50 0 82 54q28 46 28 100
q0 79 -59 92q-44 -12 -84 -12q-74 0 -74 57q0 55 72 55q41 0 110 -16q117 50 117 172q0 53 -31 88t-84 35q-106 0 -186 -144l-65 33q96 201 303 201q135 0 209 -64q146 69 167 117l33 -6q-8 -33 -8 -74q0 -112 113 -112q71 0 143 63z" />
    <glyph glyph-name="epsilonlatinrevclosed" unicode="&#x25e;" horiz-adv-x="797" 
d="M664 588q0 -133 -185 -193q113 -54 113 -176q0 -118 -101 -186q-88 -60 -212 -60q-136 0 -220 76q-88 79 -88 213q0 197 133 346q137 154 332 154q91 0 154 -41q74 -47 74 -133zM498 625q0 65 -64 65q-120 0 -213 -276q99 15 177 64q100 62 100 147zM422 199
q0 141 -133 141q-43 0 -92 -10q-11 -43 -11 -109q0 -174 113 -174q59 0 93 48q30 42 30 104z" />
    <glyph glyph-name="jdotlessbar" unicode="&#x25f;" horiz-adv-x="502" 
d="M492 434l-25 -86h-199l-67 -264q-48 -187 -114 -283q-96 -141 -253 -141q-69 0 -119 35q-55 40 -55 106q0 101 94 101q38 0 63 -24.5t25 -61.5q0 -18 -13 -43.5t-13 -28.5q0 -8 22 -8q60 0 105 174l112 438h-159l24 86h157l21 84q23 88 23 100q0 37 -82 37l-4 60
q213 26 340 51l-85 -332h202z" />
    <glyph glyph-name="ghook" unicode="&#x260;" horiz-adv-x="942" 
d="M1096 1016q0 -103 -92 -103q-39 0 -66 26.5t-27 64.5q0 14 14.5 39t14.5 30q0 8 -14 8q-79 0 -140 -215l-202 -725q-114 -407 -293 -503q-88 -48 -174 -48q-76 0 -130 39q-61 44 -61 117q0 121 113 121q100 0 100 -92q0 -20 -15 -51t-15 -39q0 -25 28 -25q29 0 66 33
q61 55 109 175q28 71 83 265q-108 -158 -239 -158q-87 0 -138 62q-47 57 -47 145q0 230 189 439q131 145 266 145q88 0 119 -82q65 217 114 301q98 166 252 166q74 0 124 -30q61 -36 61 -105zM496 604q0 70 -54 70q-59 0 -132 -125q-53 -89 -83 -180q-32 -100 -32 -168
q0 -86 57 -86q90 0 173 203q71 176 71 286z" />
    <glyph glyph-name="gcursive" unicode="&#x261;" horiz-adv-x="860" 
d="M756 748l-172 -607q-116 -409 -293 -503q-88 -48 -174 -48q-76 0 -130 39q-61 44 -61 117q0 121 113 121q100 0 100 -92q0 -20 -15 -51t-15 -39q0 -25 28 -25q29 0 66 33q61 55 109 175q28 71 83 265q-108 -158 -239 -158q-87 0 -138 62q-47 57 -47 145q0 230 189 439
q131 145 266 145q88 0 119 -82l18 64h193zM496 604q0 70 -54 70q-59 0 -132 -125q-53 -89 -83 -180q-32 -100 -32 -168q0 -86 57 -86q90 0 173 203q71 176 71 286z" />
    <glyph glyph-name="Gsmallcap" unicode="&#x262;" horiz-adv-x="954" 
d="M831 330q-50 1 -64 -16q-8 -8 -22 -60l-53 -199q-157 -73 -319 -73q-164 0 -266 79q-111 87 -111 246q0 146 91 269q88 120 227 173q80 29 192 29q65 0 127 -14t72 -14q15 0 26 28h66l-54 -270h-69q-6 194 -164 194q-127 0 -219 -161q-80 -140 -80 -279q0 -201 190 -201
q51 0 73 16.5t36 63.5q39 135 39 164q0 26 -88 27v63h368z" />
    <glyph glyph-name="gammalatin" unicode="&#x263;" horiz-adv-x="831" 
d="M698 649q0 -90 -115 -294q-84 -151 -171 -269q37 -195 37 -242q0 -134 -65 -220q-71 -95 -202 -95q-66 0 -104.5 39.5t-38.5 105.5q0 81 51 146l127 162q-51 455 -125 630q-21 52 -65 52q-13 0 -33 -5v66q77 7 141 23q78 18 94 18q53 0 160 -565q47 55 108 154
q72 119 72 163q0 21 -45 61.5t-45 77.5q0 49 31 79t80 30q108 0 108 -117zM258 -297q0 5 -20 145l-93 -116q-26 -34 -26 -76q0 -55 55 -55q84 0 84 102z" />
    <glyph glyph-name="babygamma" unicode="&#x264;" horiz-adv-x="877" 
d="M811 662l-39 -27q-11 17 -45 32t-63 15q-77 0 -203 -166q35 -169 35 -227q0 -135 -65 -220q-72 -96 -202 -96q-65 0 -104 40t-39 106q0 80 51 145l127 162q-5 54 -20 162q-15 78 -86 78q-60 0 -107 -54l-26 29q79 127 208 127q169 0 213 -150q117 150 216 150
q112 0 149 -106zM305 147q0 7 -20 146l-92 -117q-27 -34 -27 -76q0 -55 55 -55q84 0 84 102z" />
    <glyph glyph-name="hturn" unicode="&#x265;" horiz-adv-x="950" 
d="M842 741l-244 -911q-18 -69 -18 -88q0 -35 37 -41q6 -1 65 0l-2 -63q-156 -12 -358 -50l163 619q-162 -232 -309 -232q-131 0 -131 131q0 74 50 224q40 113 79 225q8 26 8 41q0 25 -14 25q-32 0 -117 -138l-51 31q139 252 281 252q116 0 116 -131q0 -64 -49 -217
q-38 -111 -76 -221q-14 -44 -14 -60q0 -24 21 -24q79 0 178 172q101 176 168 456h217z" />
    <glyph glyph-name="hhook" unicode="&#x266;" horiz-adv-x="950" 
d="M797 227q-139 -252 -281 -252q-117 0 -117 131q0 64 50 218q37 110 75 221q15 43 15 59q0 25 -21 25q-79 0 -178 -172q-101 -177 -168 -457h-217l197 733q35 131 94 230q113 188 278 188q74 0 124 -30q61 -36 61 -105q0 -103 -93 -103q-38 0 -65 26.5t-27 64.5
q0 14 14.5 39t14.5 30q0 8 -14 8q-83 0 -140 -215l-88 -331q163 231 310 231q131 0 131 -131q0 -74 -51 -224q-39 -112 -78 -225q-9 -26 -9 -41q0 -24 15 -24q32 0 116 137z" />
    <glyph glyph-name="henghook" unicode="&#x267;" horiz-adv-x="924" 
d="M797 633q0 -56 -54 -219l-100 -308q-92 -281 -164 -360q-76 -84 -194 -84q-74 0 -123 37q-53 42 -53 113q0 90 79 90q49 0 66 -41q7 -18 13 -76q4 -41 20 -41q35 0 114 256l170 545q8 23 0 51q-8 33 -32 33q-50 0 -115 -65q-51 -50 -84 -107q-101 -177 -168 -457h-217
l197 733q35 131 94 230q113 188 278 188q74 0 124 -30q61 -36 61 -105q0 -103 -93 -103q-38 0 -65 26.5t-27 64.5q0 14 14.5 39t14.5 30q0 8 -14 8q-83 0 -140 -215l-88 -331q163 231 330 231q66 0 109 -35q47 -37 47 -98z" />
    <glyph glyph-name="ibar" unicode="&#x268;" horiz-adv-x="541" 
d="M436 1010q0 -50 -34.5 -83.5t-84.5 -33.5q-48 0 -82 34t-34 83t33.5 82.5t82.5 33.5q50 0 84.5 -33.5t34.5 -82.5zM492 434l-25 -86h-205l-37 -139q-12 -46 -12 -70q0 -20 16 -20q32 0 111 119l47 -33q-130 -228 -268 -228q-127 0 -127 127q0 32 22 113l37 131h-155
l24 86h156l22 84q21 74 21 100q0 38 -82 37l-2 60q211 25 340 51l-88 -332h205z" />
    <glyph glyph-name="iotalatin" unicode="&#x269;" horiz-adv-x="541" 
d="M387 205q-130 -228 -268 -228q-127 0 -127 127q0 32 22 113l84 301q21 74 21 100q0 38 -82 37l-2 60q211 25 340 51l-150 -557q-12 -46 -12 -70q0 -20 16 -20q32 0 111 119z" />
    <glyph glyph-name="Ismallcap" unicode="&#x26a;" horiz-adv-x="573" 
d="M500 696q-63 0 -85.5 -17.5t-39.5 -78.5l-125 -455q-10 -37 -10 -51q0 -28 86 -33v-61h-406l-2 63q63 0 87 19.5t40 79.5l123 454q8 31 8 52q0 26 -84 30l-2 64h408z" />
    <glyph glyph-name="lmidtilde" unicode="&#x26b;" horiz-adv-x="668" 
d="M602 692q-13 -92 -59 -155q-56 -74 -142 -74q-14 0 -26 2l-70 -256q-14 -53 -14 -70q0 -20 16 -20q36 0 113 119l47 -35q-140 -226 -264 -226q-131 0 -131 127q0 38 20 113l86 313q-29 9 -47 9q-57 0 -78 -76h-53q40 229 209 229h14l60 213q20 74 20 103q0 35 -82 34
l-2 60q192 23 340 53l-141 -526q33 -11 53 -11q60 0 78 74h53z" />
    <glyph glyph-name="lbelt" unicode="&#x26c;" horiz-adv-x="614" 
d="M549 1155l-174 -647h153l-16 -53h-152l-65 -246q-14 -54 -14 -70q0 -20 16 -20q35 0 113 119l47 -35q-140 -226 -264 -226q-132 0 -132 127q0 39 21 113l65 238h-45q-38 0 -70 26t-32 64q0 68 57 113q53 42 123 42h35l57 205q21 73 21 103q0 35 -82 34l-2 60
q192 23 340 53zM201 647h-37q-37 0 -68 -24q-35 -26 -35 -62q0 -53 58 -53h43z" />
    <glyph glyph-name="lrthook" unicode="&#x26d;" horiz-adv-x="506" 
d="M461 1155l-318 -1180q-18 -68 -18 -145q0 -115 47 -115q8 0 8 43q0 36 25 59t61 23q38 0 66 -25.5t28 -62.5q0 -51 -37.5 -86t-89.5 -35q-58 0 -116 33q-156 88 -156 318q0 116 31 227l192 696q21 74 21 103q0 35 -82 34l-2 60q192 23 340 53z" />
    <glyph glyph-name="lyogh" unicode="&#x26e;" horiz-adv-x="907" 
d="M842 90q0 -197 -168 -323q-153 -115 -357 -115q-57 0 -122 28q-78 35 -78 84q0 29 23.5 48.5t52.5 19.5q27 0 78 -48t106 -48q115 0 183 111q58 95 58 219q0 192 -108 192q-55 0 -146 -95q-126 -131 -147 -147q-54 -39 -113 -39q-131 0 -131 127q0 39 21 113l190 688
q21 74 21 103q0 35 -82 34l-2 60q192 23 340 53l-111 -410q25 15 56 15q50 0 134 -22.5t134 -22.5q30 0 70 23.5t51 23.5q41 0 41 -43q0 -21 -25 -49l-256 -299q15 2 37 2q92 0 165 -72q85 -82 85 -211zM612 573h-28q-32 0 -98.5 18.5t-98.5 18.5q-72 0 -94 -82l-86 -319
q-14 -53 -14 -70q0 -20 16 -20q20 0 179 183q133 154 224 271z" />
    <glyph glyph-name="mturn" unicode="&#x26f;" horiz-adv-x="1374" 
d="M1221 205q-147 -232 -271 -232q-56 0 -89 39q-32 36 -32 92q0 20 19 99q-156 -230 -305 -230q-133 0 -133 131q0 31 16 97q-155 -228 -303 -228q-133 0 -133 131q0 58 102 414q21 71 21 100q0 38 -80 37l-4 58q151 18 346 53l-160 -571q-12 -44 -12 -60q0 -22 22 -22
q80 0 178 170q102 175 168 460h215l-151 -548q-10 -38 -10 -60t20 -22q82 0 180 170q102 175 168 460h213q-57 -194 -157 -585q-2 -10 -2 -15q0 -22 16 -22q26 0 104 117z" />
    <glyph glyph-name="mturndescend" unicode="&#x270;" horiz-adv-x="1374" 
d="M1206 743l-237 -880q-15 -53 -15 -70q0 -20 17 -20q35 0 112 118l47 -34q-139 -226 -264 -226q-131 0 -131 127q0 39 21 113l92 332q-156 -230 -305 -230q-133 0 -133 131q0 31 16 97q-155 -228 -303 -228q-133 0 -133 131q0 58 102 414q21 71 21 100q0 38 -80 37l-4 58
q151 18 346 53l-160 -571q-12 -44 -12 -60q0 -22 22 -22q80 0 178 170q102 175 168 460h215l-151 -548q-10 -38 -10 -60t20 -22q82 0 180 170q102 175 168 460h213z" />
    <glyph glyph-name="mhook" unicode="&#x271;" horiz-adv-x="1315" 
d="M1188 633q0 -56 -53 -219l-101 -308q-92 -281 -164 -360q-76 -84 -194 -84q-73 0 -122 37q-54 42 -54 113q0 90 80 90q48 0 65 -41q7 -18 13 -76q4 -41 20 -41q35 0 115 256l170 545q5 18 5 34q0 50 -38 50q-76 0 -144 -97q-92 -130 -223 -532h-207l166 547q13 40 13 57
q0 25 -21 25q-81 0 -180.5 -172.5t-165.5 -456.5h-213l137 518q23 85 23 100q0 38 -80 37l-4 60q131 13 348 51l-70 -231q160 231 309 231q132 0 132 -131q0 -27 -7 -57q47 62 91 102q92 86 198 86q66 0 111 -36t45 -97z" />
    <glyph glyph-name="nlftlfthook" unicode="&#x272;" horiz-adv-x="938" 
d="M784 205q-147 -230 -270 -230q-119 0 -119 131q0 68 50 219q39 111 77 222q13 37 13 57q0 25 -21 25q-81 0 -179.5 -170.5t-166.5 -458.5q-27 -115 -106 -213q-100 -125 -224 -125q-73 0 -122 37q-54 42 -54 113q0 90 80 90q48 0 65 -41q8 -18 13 -76q4 -41 20 -41
q47 0 115 256l137 518q23 85 23 100q0 38 -80 37l-4 60q131 13 348 51l-70 -231q160 231 309 231q132 0 132 -131q0 -66 -53 -224q-39 -116 -79 -231q-8 -28 -8 -35q0 -24 19 -24q26 0 104 117z" />
    <glyph glyph-name="nrthook" unicode="&#x273;" horiz-adv-x="918" 
d="M780 -248q0 -51 -37.5 -86t-89.5 -35q-58 0 -116 33q-156 88 -156 318q0 88 25 200q8 41 116 365q13 37 13 57q0 25 -21 25q-81 0 -180.5 -172.5t-165.5 -456.5h-213l137 518q23 85 23 100q0 38 -80 37l-4 60q131 13 348 51l-70 -231q160 231 309 231q132 0 132 -131
q0 -66 -53 -224q-39 -116 -79 -231q-3 -13 -55 -205q-18 -68 -18 -145q0 -115 47 -115q8 0 8 43q0 36 25 59t61 23q37 0 65.5 -25.5t28.5 -62.5z" />
    <glyph glyph-name="Nsmallcap" unicode="&#x274;" horiz-adv-x="965" 
d="M891 696q-63 0 -86.5 -18t-40.5 -78l-170 -616h-64l-290 546l-105 -385q-10 -37 -10 -51q0 -28 84 -33l2 -61h-291l-2 63q63 0 87 21q22 18 38 78l117 430q10 38 10 59q0 43 -90 47l-2 64h264l242 -469l90 323q10 37 10 48q0 30 -84 32l-2 66h291z" />
    <glyph glyph-name="obar" unicode="&#x275;" horiz-adv-x="913" 
d="M780 492q0 -197 -153 -354.5t-348 -157.5q-138 0 -223 78t-85 214q0 190 156.5 349t345.5 159q137 0 221 -75q86 -78 86 -213zM569 571q0 134 -102 134q-139 0 -236 -269h320q18 78 18 135zM522 330h-323q-19 -79 -19 -133q0 -138 105 -138q143 0 237 271z" />
    <glyph glyph-name="OEsmallcap" unicode="&#x276;" horiz-adv-x="1223" 
d="M1135 762l-45 -242h-68l-2 35q-5 87 -70 115q-41 18 -143 18q-35 0 -45 -37l-57 -213h14q75 0 117 25t71 92h68l-88 -336h-62q4 37 4 53q0 61 -41 80q-27 13 -98 13h-6q-72 -264 -72 -271q0 -18 41 -18q135 0 207 34q81 38 148 146h65l-74 -256h-458q-39 0 -117 -4
t-117 -4q-336 0 -336 282q0 216 189 375q140 119 336 119q26 0 79.5 -3t79.5 -3h480zM553 635q0 59 -64 59q-53 0 -100 -26q-89 -51 -155 -208q-60 -143 -60 -259q0 -135 139 -135q53 0 77 20.5t38 73.5l115 420q10 37 10 55z" />
    <glyph glyph-name="omegaclosed" unicode="&#x277;" horiz-adv-x="1096" 
d="M981 463q0 -112 -47 -215q-50 -110 -140 -186q-102 -87 -210 -87q-139 0 -164 123q-83 -123 -219 -123q-107 0 -169 101q-52 85 -52 198q0 130 68 247q67 114 179 184q140 86 361 86q175 0 277 -75q116 -84 116 -253zM774 582q0 81 -68 121q-56 34 -143 34
q-157 0 -239 -104q-55 -68 -98 -222q-42 -144 -42 -241q0 -92 60 -92q64 0 112 93q36 69 47 151q13 100 25 201q30 128 121 128q76 0 76 -92q0 -41 -62.5 -184.5t-62.5 -229.5q0 -67 73 -67q94 0 155 211q46 162 46 293z" />
    <glyph glyph-name="philatin" unicode="&#x278;" horiz-adv-x="1096" 
d="M963 434q0 -186 -167 -322q-153 -125 -347 -139l-89 -333h-170l93 348q-130 30 -215 106q-97 88 -97 209q0 185 170 323q157 128 348 138l39 147q19 70 19 88q0 43 -103 41l2 64q113 8 312 49l-107 -405q132 -30 215 -105q97 -86 97 -209zM750 512q0 110 -119 160
l-162 -615q131 19 211 170q70 132 70 285zM469 684q-135 -17 -215 -171q-68 -130 -68 -286q0 -106 119 -157z" />
    <glyph glyph-name="rturn" unicode="&#x279;" horiz-adv-x="692" 
d="M580 745l-138 -518q-22 -85 -22 -100q0 -37 80 -37l4 -59q-131 -14 -348 -51l65 213q-122 -213 -223 -213q-100 0 -100 118q0 123 104 123q41 0 71.5 -27.5t26.5 -27.5q45 0 121 158q73 151 144 421h215z" />
    <glyph glyph-name="rturnascend" unicode="&#x27a;" horiz-adv-x="692" 
d="M678 1116l-236 -889q-22 -85 -22 -100q0 -37 80 -37l4 -59q-131 -14 -348 -51l65 213q-122 -213 -223 -213q-100 0 -100 118q0 123 104 123q41 0 71.5 -27.5t26.5 -27.5q45 0 121 158q70 143 144 421l98 371h215z" />
    <glyph glyph-name="rturnrthook" unicode="&#x27b;" horiz-adv-x="692" 
d="M592 -248q0 -51 -37.5 -86t-89.5 -35q-59 0 -117 33q-155 88 -155 318q0 107 28 211q-122 -213 -223 -213q-100 0 -100 118q0 123 104 123q41 0 71.5 -27.5t26.5 -27.5q45 0 121 158q73 151 144 421h215l-205 -770q-19 -69 -19 -145q0 -115 47 -115q9 0 9 43
q0 36 24.5 59t61.5 23t65.5 -25.5t28.5 -62.5z" />
    <glyph glyph-name="rdescend" unicode="&#x27c;" horiz-adv-x="692" 
d="M637 647q0 -123 -105 -123q-40 0 -71 28t-27 28q-44 0 -121 -158q-69 -144 -143 -422l-98 -371h-215l235 889q23 85 23 100q0 38 -80 37l-4 60q131 14 348 51l-66 -213q123 213 224 213q100 0 100 -119z" />
    <glyph glyph-name="rrthook" unicode="&#x27d;" horiz-adv-x="692" 
d="M637 647q0 -123 -105 -123q-39 0 -70.5 28t-27.5 28q-45 0 -121 -158q-41 -87 -83 -221l-68 -226q-19 -56 -19 -145q0 -115 47 -115q9 0 9 43q0 36 25 59t61 23q37 0 65.5 -25.5t28.5 -62.5q0 -51 -37.5 -86t-89.5 -35q-59 0 -117 33q-155 88 -155 318q0 111 30 227
l82 309q23 85 23 100q0 38 -80 37l-4 60q131 14 348 51l-66 -213q123 213 224 213q100 0 100 -119z" />
    <glyph glyph-name="rfishhook" unicode="&#x27e;" horiz-adv-x="657" 
d="M602 631q0 -103 -92 -103q-38 0 -65 26.5t-27 63.5q0 15 14 40t14 30q0 8 -14 8q-45 0 -90 -86q-32 -61 -49 -129l-123 -481h-215l94 348q39 144 90 230q113 188 279 188q74 0 124 -30q60 -36 60 -105z" />
    <glyph glyph-name="rfishhookrev" unicode="&#x27f;" horiz-adv-x="657" 
d="M408 416q0 -116 -31 -228l-154 -559h-211l213 793q19 68 19 145q0 115 -47 115q-9 0 -9 -43q0 -36 -24.5 -59t-61.5 -23t-65.5 25.5t-28.5 62.5q0 51 37.5 86t89.5 35q59 0 117 -33q156 -87 156 -317z" />
    <glyph glyph-name="Rsmallcap" unicode="&#x280;" horiz-adv-x="866" 
d="M733 580q0 -154 -215 -205l96 -252q20 -52 105 -57v-66h-268l-134 356h-10l-57 -211q-8 -30 -8 -51q0 -28 84 -33v-61h-406l-2 63q63 0 87 19.5t40 79.5l123 454q8 31 8 46q0 32 -84 36v64h334q307 0 307 -182zM514 598q0 90 -88 90q-20 0 -26 -8q-2 -2 -9 -27l-63 -221
h8q178 0 178 166z" />
    <glyph glyph-name="Rsmallcapinv" unicode="&#x281;" horiz-adv-x="928" 
d="M895 762l-16 -62q-54 -8 -86 -43l-271 -292q84 -49 84 -150q0 -57 -31 -104q-70 -111 -307 -111h-348l-2 63q63 1 85.5 19t39.5 80l125 454q8 30 8 43q0 35 -84 39v64h408v-64q-64 1 -88 -20q-20 -18 -37 -78l-51 -184l311 346h260zM391 240q0 88 -90 94
q-63 -235 -63 -242q0 -18 34 -18q58 0 91 56q28 48 28 110z" />
    <glyph glyph-name="srthook" unicode="&#x282;" horiz-adv-x="676" 
d="M571 758l-39 -266l-57 6q-33 194 -145 194q-80 0 -80 -69q0 -44 112.5 -186t112.5 -232q0 -103 -72.5 -167.5t-177.5 -64.5q-53 0 -114 21q-23 -90 -23 -164q0 -115 47 -115q8 0 8 43q0 36 25 59t61 23q38 0 66.5 -25.5t28.5 -62.5q0 -51 -38 -86t-89 -35q-59 0 -117 33
q-135 76 -135 318q0 63 37 299l65 -11q17 -219 156 -219q82 0 82 82q0 49 -109.5 191.5t-109.5 230.5q0 90 64 148.5t155 58.5q57 0 118.5 -16.5t67.5 -16.5q30 0 41 29h59z" />
    <glyph glyph-name="esh" unicode="&#x283;" horiz-adv-x="543" 
d="M696 1016q0 -98 -92 -98q-36 0 -63 25t-27 61q0 15 13.5 39.5t13.5 29.5q0 8 -17 8q-86 0 -157 -333q-42 -209 -138 -623q-55 -210 -116 -307q-100 -158 -267 -158q-65 0 -108 38.5t-43 102.5q0 43 25 72t67 29q86 0 86 -86q0 -37 -27 -68q1 -14 19 -14q72 0 170 413
q28 118 104 515q37 191 114 316q106 173 265 173q178 0 178 -135z" />
    <glyph glyph-name="jhookdblbar" unicode="&#x284;" horiz-adv-x="543" 
d="M696 1016q0 -98 -92 -98q-36 0 -63 25t-27 61q0 15 13.5 39.5t13.5 29.5q0 8 -17 8q-86 0 -157 -333l-66 -314h199l-25 -86h-192q-29 -130 -54 -223q-55 -210 -116 -307q-100 -158 -267 -158q-65 0 -108 38.5t-43 102.5q0 43 25 72t67 29q86 0 86 -86q0 -37 -27 -68
q1 -14 19 -14q89 0 215 614h-176l24 86h168q18 96 43 228q37 191 114 316q106 173 265 173q178 0 178 -135z" />
    <glyph glyph-name="eshshortrev" unicode="&#x285;" horiz-adv-x="700" 
d="M555 -248q0 -51 -37.5 -86t-89.5 -35q-58 0 -117 33q-155 88 -155 318q0 103 32 225l162 600q19 68 19 145q0 115 -47 115q-9 0 -9 -43q0 -36 -24.5 -59t-61.5 -23t-65.5 25.5t-28.5 62.5q0 52 37.5 86.5t89.5 34.5q59 0 117 -33q155 -87 155 -317q0 -115 -30 -228
l-164 -598q-19 -67 -19 -145q0 -115 48 -115q8 0 8 43q0 36 24.5 59t61.5 23t65.5 -25.5t28.5 -62.5z" />
    <glyph glyph-name="eshcurl" unicode="&#x286;" horiz-adv-x="543" 
d="M696 1016q0 -98 -92 -98q-36 0 -63 25t-27 61q0 15 13.5 39.5t13.5 29.5q0 8 -17 8q-86 0 -157 -333q-42 -209 -138 -623q-29 -112 -57 -184h119l-12 -54h-129q-55 -128 -145 -183q-86 -52 -228 -52q-49 0 -83 30t-34 78q0 88 69 137q61 44 152 44h99q55 178 159 721
q37 191 114 316q106 173 265 173q178 0 178 -135zM-39 -113h-82q-62 0 -105 -27q-50 -33 -50 -91q0 -66 65 -66q127 0 172 184z" />
    <glyph glyph-name="tturn" unicode="&#x287;" horiz-adv-x="557" 
d="M483 643q0 -36 -20 -111l-123 -446h76v-72q-172 -60 -299 -247h-84l67 235h-127l23 84h127l119 406q22 76 22 108q0 29 -14 29q-36 0 -121 -135l-53 36q142 238 286 238q121 0 121 -125z" />
    <glyph glyph-name="trthook" unicode="&#x288;" horiz-adv-x="557" 
d="M483 741l-22 -84h-127l-191 -655q-18 -63 -18 -172q0 -115 47 -115q8 0 8 43q0 36 25 59t61 23q38 0 66 -25.5t28 -62.5q0 -51 -37.5 -86t-89.5 -35q-58 0 -116 33q-156 88 -156 318q0 110 33 229l123 446h-76v72q172 60 299 248h84l-68 -236h127z" />
    <glyph glyph-name="ubar" unicode="&#x289;" horiz-adv-x="952" 
d="M901 434l-24 -86h-203q-30 -111 -47 -190q-2 -10 -2 -15q0 -22 16 -22q28 0 107 117l51 -33q-147 -232 -271 -232q-55 0 -88 39q-30 36 -30 92q0 27 16 99q-156 -230 -303 -230q-133 0 -133 131q0 54 53 244h-147l24 86h148l24 84q21 71 21 100q0 38 -80 37l-4 58
q151 18 346 53l-92 -332h194q52 128 94 309h215l-90 -309h205zM438 348h-180l-43 -153q-12 -44 -12 -60q0 -22 22 -22q80 0 178 170q17 29 35 65z" />
    <glyph glyph-name="upsilonlatin" unicode="&#x28a;" horiz-adv-x="944" 
d="M842 768l-62 -227h-65q8 35 8 41q0 30 -64 30h-98l-4 -20q203 -55 203 -238q0 -80 -43 -159q-119 -222 -404 -222q-141 0 -232 57q-110 69 -110 201q0 143 106 244q96 93 242 121l3 16h-72q-58 0 -80 -9q-35 -14 -43 -62h-70l62 227h317l-59 -244q-80 -19 -138 -150
q-51 -112 -51 -208q0 -117 119 -117q113 0 182 139q58 115 58 240q0 84 -80 100l57 240h318z" />
    <glyph glyph-name="vscriptlatin" unicode="&#x28b;" horiz-adv-x="979" 
d="M864 530q0 -216 -164.5 -385.5t-380.5 -169.5q-114 0 -181 60.5t-67 173.5q0 75 58 255q31 96 31 136q0 23 -19 23q-24 0 -102 -119l-53 35q143 227 270 227q123 0 123 -127q0 -26 -14 -76q-31 -93 -63 -187q-36 -111 -36 -192q0 -110 110 -110q97 0 191 83
q83 72 126 170q48 109 48 228q0 78 -50 78q-21 0 -60 -17.5t-61 -17.5q-67 0 -67 64q0 47 40 79q37 29 85 29q108 0 172 -65.5t64 -174.5z" />
    <glyph glyph-name="vturn" unicode="&#x28c;" horiz-adv-x="762" 
d="M608 20q-68 -11 -157 -30q-76 -17 -91 -17q-73 0 -73 519q-176 -200 -176 -275q0 -19 35.5 -62.5t35.5 -76.5q0 -46 -30 -75.5t-76 -29.5q-49 0 -77 34t-28 83q0 197 467 672l51 2q0 -686 91 -686q9 0 26 4z" />
    <glyph glyph-name="wturn" unicode="&#x28d;" horiz-adv-x="1100" 
d="M946 25q-73 -12 -160 -31q-74 -17 -88 -17q-55 0 -75 406l-238 -408h-55l-49 525q-175 -202 -175 -285q0 -17 38 -60t38 -79q0 -44 -30 -73.5t-74 -29.5q-107 0 -107 123t171 352q74 99 266 316l57 4l41 -436l256 432l65 4q0 -686 91 -686q9 0 26 4z" />
    <glyph glyph-name="yturn" unicode="&#x28e;" horiz-adv-x="770" 
d="M786 967q0 -44 -30 -73.5t-74 -29.5q-31 0 -80 30t-65 30q-31 0 -84 -64q-58 -68 -58 -117q0 -22 11 -94q27 -196 40 -265q29 -156 70 -257q21 -51 66 -51q11 0 32 4v-66q-75 -7 -141 -22q-79 -19 -94 -19q-40 0 -96 244q-11 49 -60 303q-123 -228 -123 -299
q0 -21 45 -61t45 -78q0 -49 -31 -79t-79 -30q-109 0 -109 117t201 494q262 491 483 491q54 0 92.5 -28t38.5 -80z" />
    <glyph glyph-name="Ysmallcap" unicode="&#x28f;" horiz-adv-x="819" 
d="M786 696q-49 0 -89 -38q-11 -10 -64 -78l-182 -234l-60 -219q-2 -8 -2 -23v-10q0 -25 88 -28l2 -66h-405v63q96 5 110 58q62 231 62 237q0 7 -107 279q-21 54 -78 59l-2 66h357l2 -66h-27q-51 0 -51 -20q0 -34 78 -234l119 154q36 48 36 72q0 28 -81 28l-3 66h295z" />
    <glyph glyph-name="zrthook" unicode="&#x290;" horiz-adv-x="793" 
d="M723 -248q0 -51 -37.5 -86t-89.5 -35q-142 0 -218 132q-52 91 -54 192q-32 5 -138 33q-85 22 -139 22q-22 0 -54 -26.5t-44 -26.5q-39 0 -39 35q0 13 39 61l422 518h-181q-64 0 -85 -16q-17 -13 -44 -80h-59l74 270h540l-462 -559q35 -5 126 -40q78 -29 128 -29
q66 0 110 102l68 -20q-101 -247 -101 -369q0 -115 50 -115q8 0 8 43q0 36 25 59t61 23q37 0 65.5 -25.5t28.5 -62.5z" />
    <glyph glyph-name="zcurl" unicode="&#x291;" horiz-adv-x="696" 
d="M629 51q0 -91 -85 -140q-70 -40 -167 -40q-85 0 -227 68q-42 -58 -105 -172l-41 28q52 102 94 164q-43 21 -71 21q-17 0 -41 -11.5t-37 -11.5q-39 0 -39 35q0 13 39 61l422 518h-181q-65 0 -85 -15q-16 -13 -44 -81h-59l74 270h540l-524 -632q56 -9 105 -31
q135 135 252 135q71 0 125.5 -47.5t54.5 -118.5zM547 55q0 41 -32.5 68t-74.5 27q-85 0 -188 -95q46 -27 92 -55q56 -29 102 -29q101 0 101 84z" />
    <glyph glyph-name="ezh" unicode="&#x292;" horiz-adv-x="696" 
d="M651 745l-389 -378q26 6 57 6q118 0 210 -84t92 -201q0 -197 -168 -323q-153 -115 -357 -115q-57 0 -122 28q-78 35 -78 84q0 29 23 48.5t52 19.5q28 0 79 -48t106 -48q115 0 183 111q58 95 58 218q0 195 -159 195q-58 0 -154 -65q-26 20 -31 49l338 329h-201
q-64 0 -84 -15.5t-45 -80.5h-59l74 270h575z" />
    <glyph glyph-name="yoghcurl" unicode="&#x293;" horiz-adv-x="696" 
d="M651 745l-389 -378q26 6 57 6q118 0 210 -84t92 -201q0 -182 -156 -313q21 -49 27 -92l-39 -25q-9 45 -27 86q-132 -90 -285 -90q-82 0 -143 40q-70 46 -70 124q0 84 80 131q66 39 156 39q111 0 205 -82q28 79 28 157q0 195 -159 195q-58 0 -154 -65q-26 20 -31 49
l338 329h-201q-64 0 -84 -15.5t-45 -80.5h-59l74 270h575zM348 -145q-82 77 -186 77q-160 0 -160 -112q0 -45 47 -76q42 -29 88 -29q138 0 211 140z" />
    <glyph glyph-name="glottalstop" unicode="&#x294;" horiz-adv-x="819" 
d="M729 883q0 -157 -98.5 -298t-245.5 -200l-66 -240q-10 -37 -10 -51q0 -28 86 -33v-61h-405l-2 63q63 0 86.5 19.5t40.5 79.5l67 248q195 29 275 237q49 129 49 232q0 147 -107 147q-92 0 -194 -154l-60 41q145 238 326 238q123 0 192 -73q66 -71 66 -195z" />
    <glyph glyph-name="glottalstoprevinv" unicode="&#x295;" horiz-adv-x="748" 
d="M725 995q0 -121 -113 -121q-100 0 -100 93q0 20 15.5 51t15.5 39q0 24 -29 24t-65 -32q-66 -59 -116 -193q-46 -126 -46 -223q0 -162 137 -162q38 0 72 10l-93 -336q-10 -37 -10 -51q0 -28 86 -33v-61h-405l-2 63q63 0 86.5 19.5t40.5 79.5l55 205q-191 38 -191 262
q0 145 85 277q82 128 212 198q88 47 168 47q77 0 133 -39q64 -44 64 -117z" />
    <glyph glyph-name="glottalstopinv" unicode="&#x296;" horiz-adv-x="774" 
d="M635 496q0 -145 -85 -277q-81 -128 -212 -199q-88 -47 -168 -47q-76 0 -133 39q-64 44 -64 117q0 121 113 121q100 0 100 -92q0 -20 -15 -51t-15 -39q0 -25 28 -25q29 0 66 33q66 58 115 193q47 126 47 223q0 161 -138 161q-37 0 -71 -10l92 336q10 37 10 51q0 28 -86 33
l2 61h408l-2 -63q-63 0 -87 -19t-40 -79l-56 -205q191 -39 191 -262z" />
    <glyph glyph-name="cstretch" unicode="&#x297;" horiz-adv-x="811" 
d="M705 608q0 -121 -113 -121q-100 0 -100 93q0 19 15 50t15 40q0 24 -28 24q-74 0 -150 -155q-70 -145 -121 -309q-61 -196 -61 -322q0 -170 108 -170q93 0 195 153l59 -41q-144 -237 -325 -237q-123 0 -190.5 72t-67.5 196q0 263 151 549q177 334 416 334q76 0 133 -39
q64 -44 64 -117z" />
    <glyph glyph-name="kiss" unicode="&#x298;" horiz-adv-x="1247" 
d="M1147 662q0 -174 -117 -357.5t-274 -265.5q-125 -66 -260 -66q-189 0 -320 123.5t-131 311.5q0 248 196 464q201 222 447 222q194 0 324 -118q135 -122 135 -314zM918 743q0 118 -65 192q-67 79 -183 79q-113 0 -226 -164q-86 -125 -129 -264q-41 -135 -41 -267
q0 -111 69 -185q70 -77 181 -77q119 0 230 163q85 124 127 269q37 128 37 254zM715 539q0 -48 -33 -80.5t-80 -32.5t-80 32.5t-33 80.5q0 47 33 79.5t80 32.5q48 0 80.5 -32.5t32.5 -79.5z" />
    <glyph glyph-name="Bsmallcap" unicode="&#x299;" horiz-adv-x="854" 
d="M731 584q0 -132 -170 -185q113 -52 113 -159q0 -57 -27 -103q-79 -137 -350 -137h-377l-2 63q63 0 87 19.5t40 79.5l123 454q8 31 8 52q0 27 -84 30v64h301q338 0 338 -178zM518 596q0 92 -92 92q-28 0 -35 -24l-61 -228h8q180 0 180 160zM459 252q0 108 -150 110
l-61 -227q-8 -30 -8 -45q0 -16 36 -16q183 0 183 178z" />
    <glyph glyph-name="epsilonclosed" unicode="&#x29a;" horiz-adv-x="797" 
d="M664 473q0 -197 -133 -346q-137 -154 -332 -154q-91 0 -154 41q-74 47 -74 133q0 133 185 193q-113 54 -113 176q0 119 101 187q88 59 212 59q136 0 220 -76q88 -79 88 -213zM449 514q0 174 -113 174q-60 0 -93 -47q-30 -42 -30 -104q0 -142 133 -142q43 0 92 11
q11 43 11 108zM414 322q-99 -16 -177 -65q-100 -62 -100 -146q0 -66 64 -66q120 0 213 277z" />
    <glyph glyph-name="Gsmallcaphook" unicode="&#x29b;" horiz-adv-x="971" 
d="M1124 1016q0 -103 -92 -103q-38 0 -65 26.5t-27 64.5q0 14 14.5 39t14.5 30q0 8 -15 8q-46 0 -91 -86q-36 -67 -48 -129l-72 -358h-69q-6 194 -164 194q-127 0 -219 -161q-80 -140 -80 -279q0 -201 190 -201q51 0 73 16.5t36 63.5q39 135 39 164q0 26 -88 27v63h368
l2 -65q-50 1 -64 -16q-8 -8 -22 -60l-53 -199q-157 -73 -319 -73q-164 0 -266 79q-111 87 -111 246q0 146 91 269q88 120 227 173q80 29 192 29q62 0 129 -14q43 169 96 255q81 132 209 132q74 0 124 -30q60 -36 60 -105z" />
    <glyph glyph-name="Hsmallcap" unicode="&#x29c;" horiz-adv-x="1026" 
d="M952 696q-63 0 -85 -17t-40 -79l-125 -455q-8 -29 -8 -51q0 -28 84 -33v-61h-405l-2 63q63 0 87 20q21 17 38 79l53 192h-242l-57 -209q-8 -29 -8 -51q0 -29 84 -33v-61h-406l-2 63q63 0 87 19.5t40 79.5l123 454q8 31 8 52q0 26 -84 30v64h406l2 -66q-63 0 -86 -17.5
t-39 -78.5l-43 -158h241l48 174q6 23 6 52q0 26 -82 30l-2 64h409v-66z" />
    <glyph glyph-name="jcrosstail" unicode="&#x29d;" horiz-adv-x="502" 
d="M436 1010q0 -50 -33.5 -83.5t-83.5 -33.5q-49 0 -83.5 33.5t-34.5 83.5q0 49 34.5 82.5t83.5 33.5q50 0 83.5 -33.5t33.5 -82.5zM375 766l-174 -682q-27 -106 -54 -170q73 -16 146 -37l-19 -51q-60 17 -151 37q-102 -203 -289 -203q-192 0 -192 129q0 76 60 122
q56 42 134 42q56 0 117 -6l145 571q23 88 23 100q0 37 -82 37l-4 60q213 26 340 51zM-61 -106q-63 6 -99 6q-56 0 -93 -28q-42 -31 -42 -85q0 -72 76 -72q72 0 111 57q24 36 47 122z" />
    <glyph glyph-name="kturn" unicode="&#x29e;" horiz-adv-x="862" 
d="M745 750l-243 -912q-19 -69 -19 -88q0 -35 38 -41q6 -1 65 0l-2 -63q-156 -12 -359 -49l191 722q-230 -175 -230 -221q0 -33 78 -37v-61h-352v61q71 10 166 79q11 8 145 120q-49 369 -112 369q-37 0 -82 -105l-56 27q105 221 226 221q104 0 157 -134q25 -62 52 -224
l41 32l79 304h217z" />
    <glyph glyph-name="Lsmallcap" unicode="&#x29f;" horiz-adv-x="801" 
d="M709 252l-82 -252h-707l-2 63q63 0 87 19.5t40 79.5l123 454q8 31 8 43q0 35 -84 37l-2 66h408l2 -66q-63 0 -86 -17.5t-39 -78.5l-123 -453q-12 -45 -12 -59q0 -12 75 -12q225 0 318 176h76z" />
    <glyph glyph-name="qhook" unicode="&#x2a0;" horiz-adv-x="854" 
d="M1085 1016q0 -103 -92 -103q-38 0 -65 26.5t-27 64.5q0 14 14.5 39t14.5 30q0 8 -15 8q-81 0 -139 -219l-268 -1009q-14 -54 -14 -74q0 -56 100 -58v-61h-420v64q64 -1 86 22q17 18 35 84l72 272q-98 -131 -220 -131q-176 0 -176 234q0 216 181 416q129 143 256 143
q69 0 122 -47q6 41 38 125q31 81 55 121q112 188 278 188q74 0 124 -30q60 -36 60 -105zM496 614q0 66 -52 66q-56 0 -120 -107q-134 -219 -134 -376q0 -80 60 -80q89 0 173 208q73 180 73 289z" />
    <glyph glyph-name="glottalstopbar" unicode="&#x2a1;" horiz-adv-x="819" 
d="M729 883q0 -157 -98.5 -298t-245.5 -200l-8 -33h201l-25 -86h-201l-33 -121q-10 -37 -10 -51q0 -28 86 -33v-61h-405l-2 63q63 0 86.5 19.5t40.5 79.5l28 104h-161l24 86h160l16 58q195 29 275 237q49 129 49 232q0 147 -107 147q-92 0 -194 -154l-60 41q145 238 326 238
q123 0 192 -73q66 -71 66 -195z" />
    <glyph glyph-name="glottalstopbarrev" unicode="&#x2a2;" horiz-adv-x="748" 
d="M725 995q0 -121 -113 -121q-100 0 -100 93q0 20 15.5 51t15.5 39q0 24 -29 24t-65 -32q-66 -59 -116 -193q-46 -126 -46 -223q0 -162 137 -162q38 0 72 10l-35 -129h201l-25 -86h-201l-33 -121q-10 -37 -10 -51q0 -28 86 -33v-61h-405l-2 63q63 0 86.5 19.5t40.5 79.5
l28 104h-161l24 86h160l4 15q-191 38 -191 262q0 145 85 277q82 128 212 198q88 47 168 47q77 0 133 -39q64 -44 64 -117z" />
    <glyph glyph-name="dz" unicode="&#x2a3;" horiz-adv-x="1311" 
d="M1231 719q0 -21 -25 -49l-434 -508q76 -37 139 -137q56 -86 78 -86q23 0 23 10q0 2 -15.5 32.5t-15.5 51.5q0 90 94 90q96 0 96 -96q0 -71 -59 -115q-54 -41 -127 -41q-87 0 -207.5 74.5t-142.5 74.5q-11 0 -53.5 -23.5t-83.5 -23.5q-109 0 -109 117q0 22 4 45
q-109 -162 -241 -162q-181 0 -181 232q0 217 181 416q132 145 262 145q62 0 116 -35l50 174q20 74 20 103q0 35 -82 34l-2 60q192 23 340 53l-111 -410q25 15 56 15q50 0 134 -22.5t134 -22.5q31 0 71 23.5t50 23.5q41 0 41 -43zM1008 573h-29q-32 0 -98.5 18.5t-98.5 18.5
q-72 0 -94 -82l-86 -319q-14 -53 -14 -70q0 -20 16 -20q21 0 179 183q134 154 225 271zM496 608q0 72 -50 72q-61 0 -136 -127q-51 -86 -85 -184q-37 -106 -37 -172q0 -80 62 -80q87 0 172 205q74 180 74 286z" />
    <glyph glyph-name="dyogh" unicode="&#x2a4;" horiz-adv-x="1303" 
d="M1237 90q0 -197 -168 -323q-153 -115 -356 -115q-58 0 -123 28q-78 35 -78 84q0 29 23.5 48.5t52.5 19.5q27 0 78.5 -48t105.5 -48q116 0 184 111q58 95 58 219q0 192 -109 192q-55 0 -146 -95q-125 -131 -147 -147q-59 -43 -114 -43q-109 0 -109 117q0 22 4 45
q-109 -162 -241 -162q-181 0 -181 232q0 217 181 416q132 145 262 145q62 0 116 -35l50 174q20 73 20 103q0 35 -82 34l-2 60q192 23 340 53l-111 -410q25 15 56 15q50 0 134 -22.5t134 -22.5q31 0 71 23.5t50 23.5q41 0 41 -43q0 -21 -25 -49l-256 -299q15 2 37 2
q92 0 166 -72q84 -82 84 -211zM1008 573h-29q-32 0 -98.5 18.5t-98.5 18.5q-72 0 -94 -82l-86 -319q-14 -53 -14 -70q0 -20 16 -20q21 0 179 183q134 154 225 271zM496 608q0 72 -50 72q-61 0 -136 -127q-51 -86 -85 -184q-37 -106 -37 -172q0 -80 62 -80q87 0 172 205
q74 180 74 286z" />
    </font>
</defs>
</svg>
